<?xml version="1.0" encoding="UTF-8"?>
<!-- Generator: Adobe Illustrator 26.4.1, SVG Export Plug-In . SVG Version: 6.00 Build 0)  -->
<svg xmlns="http://www.w3.org/2000/svg" xmlns:xlink="http://www.w3.org/1999/xlink" version="1.1" id="Capa_1" x="0px" y="0px" viewBox="0 0 488.467 488.467" style="enable-background:new 0 0 488.467 488.467;" xml:space="preserve" width="512" height="512">
<g>
	<g>
		<path style="fill:#241726;" d="M297.194,29.609c-0.152,0-0.304-0.032-0.452-0.099c-0.118-0.056-11.57-7.195-11.377-9.065    c0.111-1.103,0.169-1.703,15.131-1.545c0.604,0.006,1.091,0.504,1.084,1.11c-0.006,0.604-0.604,1.071-1.11,1.084    c-4.367-0.045-9.149,0.004-11.711,0.165c2.618,2.059,8.086,5.832,8.922,6.267c0.529,0.276,0.754,0.93,0.493,1.466    C297.981,29.38,297.597,29.609,297.194,29.609z"/>
		<path style="fill:#E17B8D;" d="M314.06,26.517c0,0-4.424-16.55-12.553-11.738c-11.261,6.666-10.527,39.015,13.707,41.177    c24.235,2.162,28.68-18.308,28.68-18.308l-12.852-0.338c0,0,7.188-9.722,5.043-16.061s-7.858,0.782-7.858,0.782    s4.995-16.627-1.764-15.721S314.06,26.517,314.06,26.517z"/>
		<path style="fill:#241726;" d="M302.939,26.682c-0.484,0-0.926-0.193-1.264-0.555c-1.258-1.352-0.675-5.314-0.216-7.557    c0.122-0.593,0.698-0.975,1.296-0.855c0.593,0.122,0.975,0.703,0.855,1.296c-0.437,2.134-0.604,4.463-0.414,5.354    c0.758-0.501,1.847-2.38,2.447-4.034c0.206-0.568,0.833-0.859,1.406-0.656c0.57,0.206,0.863,0.836,0.656,1.406    c-0.446,1.23-2.091,5.266-4.517,5.586C303.104,26.678,303.02,26.682,302.939,26.682z"/>
		<path style="fill:#241726;" d="M326.929,38.059c-0.242,0-0.484-0.079-0.688-0.242c-0.471-0.381-0.546-1.071-0.167-1.543    c1.776-2.209,4.347-6.505,3.683-8.632c-0.06-0.197-0.118-0.257-0.118-0.257c-0.006,0-0.011,0-0.017,0    c-0.606,0-2.719,1.888-4.311,3.955c-0.294,0.377-0.797,0.521-1.247,0.36c-0.45-0.165-0.739-0.602-0.718-1.08    c0.135-3.092-0.133-6.224-0.589-7.25c-1.168,1.196-3.578,6.203-5.301,10.627c-0.221,0.563-0.859,0.846-1.421,0.623    c-0.564-0.221-0.844-0.855-0.624-1.421c4.877-12.521,6.955-12.288,7.621-12.206c1.596,0.184,2.449,2.434,2.545,6.698    c1.384-1.388,3.068-2.689,4.517-2.432c0.482,0.086,1.35,0.426,1.757,1.729c1.228,3.932-3.525,9.984-4.069,10.661    C327.568,37.92,327.248,38.059,326.929,38.059z"/>
		<path style="fill:#241726;" d="M314.723,51.568c-2.132,0-4.418-0.326-6.681-1.221c-4.982-1.969-8.707-6.246-11.077-12.714    c-0.208-0.568,0.084-1.2,0.653-1.408c0.564-0.204,1.2,0.084,1.408,0.653c2.143,5.854,5.449,9.699,9.824,11.429    c7.278,2.875,15.152-1.02,15.232-1.058c0.538-0.27,1.198-0.058,1.472,0.486c0.272,0.54,0.056,1.2-0.486,1.472    C324.81,49.338,320.296,51.568,314.723,51.568z"/>
	</g>
	<g>
		<path style="fill:#241726;" d="M151.424,163.67c-0.261,0-0.523-0.092-0.733-0.281c-0.45-0.405-0.489-1.099-0.084-1.549    c0.585-0.718,4.122-6.34,5.716-9.265c-2.417,0.863-6.831,2.7-10.826,4.465c-0.553,0.244-1.204-0.006-1.446-0.559    c-0.246-0.555,0.004-1.202,0.559-1.446c13.674-6.044,13.963-5.549,14.514-4.544c0.908,1.639-6.798,12.718-6.884,12.815    C152.024,163.548,151.724,163.67,151.424,163.67z"/>
		<path style="fill:#E17B8D;" d="M135.146,167.382c0,0-2.457-16.954,6.91-15.736c12.977,1.687,25.054,31.707,3.634,43.246    c-21.42,11.54-33.575-5.521-33.575-5.521l11.678-5.377c0,0-10.438-6.101-10.965-12.773s7.53-2.378,7.53-2.378    s-11.144-13.312-4.576-15.144S135.146,167.382,135.146,167.382z"/>
		<path style="fill:#241726;" d="M144.499,163.325c-2.233,0-4.847-2.582-5.654-3.445c-0.416-0.441-0.392-1.133,0.049-1.549    c0.435-0.414,1.131-0.394,1.549,0.047c1.204,1.281,2.946,2.58,3.84,2.745c-0.178-0.898-1.249-2.972-2.49-4.759    c-0.347-0.497-0.223-1.181,0.274-1.526c0.497-0.345,1.181-0.223,1.526,0.274c1.307,1.879,3.405,5.292,2.781,7.028    c-0.195,0.546-0.615,0.934-1.176,1.093C144.971,163.297,144.737,163.325,144.499,163.325z"/>
		<path style="fill:#241726;" d="M127.436,183.15c-0.174,0-0.349-0.041-0.514-0.129c-0.767-0.407-7.52-4.097-7.943-8.195    c-0.141-1.356,0.523-2.01,0.932-2.28c1.202-0.788,3.289-0.279,5.112,0.454c-1.594-3.957-1.697-6.361-0.302-7.158    c0.598-0.334,2.408-1.363,11.816,8.215c0.424,0.433,0.42,1.127-0.013,1.551c-0.433,0.426-1.127,0.422-1.551-0.013    c-3.415-3.475-7.735-7.229-9.177-7.72c-0.011,0.831,1.013,3.994,2.434,6.936c0.208,0.431,0.114,0.947-0.236,1.275    c-0.345,0.33-0.87,0.396-1.286,0.161c-2.267-1.262-4.924-2.164-5.564-1.881c0.009,0.019,0.002,0.099,0.015,0.234    c0.229,2.226,4.287,5.159,6.79,6.486c0.536,0.283,0.739,0.947,0.454,1.483C128.209,182.938,127.828,183.15,127.436,183.15z"/>
		<path style="fill:#241726;" d="M134.776,192.593c-0.456,0-0.739-0.015-0.801-0.019c-0.604-0.036-1.065-0.557-1.028-1.161    c0.039-0.604,0.557-1.088,1.161-1.028c0.09,0,8.896,0.461,14.426-5.041c3.332-3.315,4.849-8.146,4.512-14.364    c-0.034-0.606,0.431-1.123,1.035-1.155c0.686-0.056,1.123,0.431,1.155,1.035c0.373,6.878-1.365,12.279-5.168,16.052    C144.801,192.136,137.249,192.593,134.776,192.593z"/>
	</g>
	<polygon style="fill:#DDB300;" points="35.331,179.391 48.623,171.789 45.466,185.9 55.012,195.011 43.379,198.551 36.983,210.682    31.315,199.527 16.702,198.318 27.815,187.931 23.102,175.107  "/>
	<polygon style="fill:#DDB300;" points="462.429,388.552 475.721,380.951 472.565,395.061 482.111,404.172 470.477,407.713    464.081,419.843 458.414,408.689 443.801,407.479 454.914,397.092 450.201,384.269  "/>
	<g>
		<path style="fill:#FFFFFF;" d="M57.324,104.007c0,0-1.95-16.461,13.797-10.937c15.748,5.523,10.398,20.501,4.435,15.274    c-5.963-5.227,5.579-22.541,17.581-14.608s9.098,22.985,0.498,23.987c-8.6,1.001,5.426-17.499,16.091-5.821    s-13.223,32.403-22.779,24.544c-9.556-7.859-1.836-20.242,0.381-12.605c2.217,7.637-4.127,15.015-21.25,14.497    s-8.984-26.767-3.097-19.019c5.887,7.748-4.165,16.275-16.129,7.082S48.915,98.706,57.324,104.007z"/>
		<path style="fill:#241726;" d="M67.757,139.459c-0.557,0-1.127-0.009-1.71-0.026c-5.614-0.171-9.528-3.098-10.856-8.071    c-2.948-0.414-6.046-1.817-9.007-4.092c-4.654-3.578-6.201-8.937-4.24-14.7c2.018-5.941,7.343-10.597,12.118-10.597    c0.724,0,1.421,0.101,2.087,0.302c0.009-2.275,0.409-6.136,2.732-8.75c2.623-2.952,6.91-3.486,12.603-1.489    c2.185,0.767,4.097,1.748,5.695,2.929c2.717-2.792,6.156-4.373,9.573-4.373c2.402,0,4.754,0.75,6.991,2.23    c5.187,3.428,8.296,8.637,8.485,14.113c3.032,0.131,5.896,1.586,8.309,4.227c3.293,3.604,3.869,8.399,1.622,13.496    c-3.432,7.786-12.778,14.617-19.997,14.619c-0.002,0-0.002,0-0.002,0c-2.318,0-4.307-0.668-5.907-1.986    c-0.748-0.613-1.423-1.277-2.014-1.978C80.543,138.03,74.883,139.459,67.757,139.459z M57.515,131.478    c0.943,2.781,3.227,5.599,8.596,5.761c9.157,0.279,14.22-1.768,16.847-3.711c-2.344-3.908-2.119-8.155-0.765-10.777    c0.788-1.528,1.922-2.404,3.111-2.404c0.803,0,2.273,0.416,3.079,3.186c1.11,3.827,0.201,7.54-2.492,10.338    c0.512,0.611,1.099,1.189,1.753,1.727c1.198,0.983,2.717,1.485,4.514,1.485l0,0c6.346-0.002,14.921-6.346,17.991-13.31    c1.326-3.01,2.19-7.383-1.234-11.133c-2.035-2.226-4.311-3.409-6.773-3.514c-0.585,5.247-3.925,9.168-8.382,9.687    c-2.845,0.313-3.842-1.172-3.889-2.573c-0.105-3.105,4.418-8.262,10.162-9.177c-0.146-4.784-2.897-9.369-7.501-12.412    c-4.532-2.993-9.779-2.19-13.678,1.735c3.67,3.587,4.322,7.953,3.263,10.854c-1.191,3.267-4.607,4.277-7.285,1.928    c-3.291-2.884-2.143-8.42,0.917-12.532c-1.397-1.009-3.072-1.858-4.992-2.533c-4.78-1.678-8.215-1.399-10.239,0.876    c-2.755,3.102-2.113,8.84-2.106,8.898c0.051,0.42-0.146,0.831-0.504,1.056c-0.356,0.227-0.814,0.227-1.17,0    c-0.81-0.51-1.71-0.769-2.678-0.769c-3.829,0-8.335,4.086-10.042,9.108c-1.637,4.821-0.362,9.286,3.501,12.256    c2.415,1.855,4.898,3.062,7.257,3.537c-0.426-4.234,0.915-8.352,2.64-10.464c0.966-1.185,2.089-1.81,3.242-1.81    c0.812,0,2.027,0.321,3.197,1.862c2.078,2.736,2.528,5.8,1.236,8.407C63.801,129.661,60.928,131.324,57.515,131.478z     M85.304,122.541c-0.208,0-0.705,0.33-1.161,1.217c-0.992,1.92-1.185,5.187,0.478,8.255c1.915-2.188,2.505-4.939,1.654-7.868    C85.936,122.978,85.499,122.541,85.304,122.541z M60.658,118.987c-0.465,0-1.013,0.356-1.543,1.003    c-1.472,1.804-2.582,5.661-2.1,9.305c2.832-0.006,5.116-1.204,6.108-3.207c0.911-1.832,0.538-4.058-1.018-6.104    C61.762,119.527,61.23,118.987,60.658,118.987z M99.906,109.319c-4.557,0.973-7.895,5.196-7.84,6.846    c0.006,0.199,0.017,0.499,0.93,0.499c0.159,0,0.328-0.011,0.512-0.032C96.803,116.248,99.31,113.317,99.906,109.319z     M77.426,98.056c-2.642,3.58-3.19,7.673-1.146,9.464c1.545,1.361,3.081,0.876,3.777-1.031    C80.858,104.293,80.306,100.935,77.426,98.056z"/>
	</g>
	<g>
		<path style="fill:#FFFFFF;" d="M405.894,201.739c0,0-1.95-16.461,13.797-10.937c15.748,5.523,10.398,20.501,4.435,15.274    c-5.963-5.227,5.579-22.541,17.581-14.608c12.002,7.933,9.098,22.985,0.498,23.987s5.426-17.499,16.091-5.821    s-13.223,32.403-22.779,24.544c-9.556-7.859-1.836-20.242,0.381-12.605c2.217,7.637-4.127,15.015-21.25,14.497    c-17.123-0.518-8.984-26.767-3.097-19.019s-4.165,16.275-16.129,7.082C383.459,214.938,397.485,196.438,405.894,201.739z"/>
		<path style="fill:#241726;" d="M416.326,237.191c-0.557,0-1.127-0.009-1.71-0.026c-5.616-0.169-9.53-3.098-10.856-8.071    c-2.948-0.414-6.044-1.817-9.005-4.092c-4.656-3.578-6.201-8.935-4.242-14.7c2.02-5.941,7.343-10.597,12.121-10.597    c0.722,0,1.418,0.103,2.085,0.302c0.009-2.275,0.409-6.136,2.732-8.75c2.627-2.952,6.912-3.486,12.605-1.489    c2.185,0.765,4.094,1.748,5.693,2.929c2.717-2.792,6.156-4.373,9.573-4.373c2.402,0,4.754,0.75,6.991,2.23    c5.187,3.428,8.296,8.637,8.485,14.113c3.068,0.124,5.862,1.545,8.311,4.227c3.293,3.606,3.867,8.399,1.62,13.498    c-3.432,7.786-12.778,14.617-19.997,14.617c-2.32,0-4.309-0.668-5.909-1.986c-0.748-0.613-1.423-1.277-2.014-1.978    C429.113,235.761,423.452,237.191,416.326,237.191z M406.085,229.209c0.943,2.781,3.227,5.601,8.596,5.761    c9.149,0.291,14.22-1.768,16.847-3.711c-2.344-3.908-2.119-8.155-0.765-10.777c0.788-1.528,1.922-2.404,3.111-2.404    c0.803,0,2.273,0.416,3.079,3.186c1.11,3.827,0.201,7.54-2.492,10.338c0.512,0.611,1.099,1.189,1.753,1.727    c1.2,0.986,2.719,1.485,4.517,1.485c6.344,0,14.919-6.344,17.989-13.31c1.328-3.008,2.192-7.383-1.232-11.133    c-2.035-2.226-4.311-3.409-6.773-3.514c-0.585,5.247-3.925,9.168-8.382,9.687c-0.272,0.03-0.529,0.045-0.765,0.045h-0.002    c-2.237,0.002-3.081-1.352-3.124-2.618c-0.105-3.102,4.418-8.262,10.164-9.175c-0.146-4.784-2.899-9.369-7.503-12.414    c-1.875-1.238-3.82-1.866-5.783-1.866c-2.779,0-5.609,1.301-7.893,3.6c3.668,3.587,4.322,7.955,3.263,10.854    c-1.191,3.274-4.613,4.277-7.287,1.93c-3.291-2.886-2.143-8.42,0.917-12.532c-1.397-1.009-3.07-1.86-4.99-2.533    c-4.78-1.675-8.215-1.403-10.242,0.876c-2.755,3.102-2.113,8.84-2.106,8.898c0.051,0.42-0.146,0.831-0.504,1.056    c-0.356,0.227-0.814,0.227-1.17,0c-0.81-0.51-1.71-0.769-2.676-0.769c-3.831,0-8.337,4.086-10.042,9.11    c-1.639,4.819-0.362,9.286,3.501,12.253c2.415,1.855,4.896,3.062,7.255,3.537c-0.424-4.234,0.915-8.352,2.642-10.464    c0.966-1.185,2.089-1.81,3.242-1.81c0.812,0,2.027,0.324,3.197,1.862c2.078,2.736,2.528,5.8,1.234,8.407    C412.352,227.433,409.543,229.062,406.085,229.209z M433.874,220.273c-0.208,0-0.705,0.33-1.161,1.217    c-0.992,1.92-1.185,5.187,0.478,8.255c1.915-2.188,2.505-4.939,1.654-7.868C434.506,220.71,434.069,220.273,433.874,220.273z     M409.23,216.718c-0.465,0-1.013,0.356-1.543,1.005c-1.472,1.802-2.584,5.659-2.102,9.303c2.832-0.006,5.116-1.204,6.111-3.207    c0.908-1.832,0.538-4.058-1.018-6.104C410.333,217.26,409.802,216.718,409.23,216.718z M448.475,207.051    c-4.557,0.975-7.895,5.196-7.84,6.846c0.006,0.199,0.017,0.499,0.93,0.499c0,0,0,0,0.002,0c0.156,0,0.328-0.011,0.512-0.032    C445.375,213.98,447.882,211.049,448.475,207.051z M425.996,195.787c-2.64,3.58-3.19,7.673-1.146,9.464    c1.543,1.358,3.083,0.881,3.78-1.033C429.43,202.022,428.877,198.667,425.996,195.787z"/>
	</g>
	<path style="fill:#241726;" d="M457.73,443.682l-0.025-0.02c-3.305-2.562-3.908-7.336-1.345-10.643   c2.552-3.292,7.314-3.904,10.616-1.365c1.627,1.262,2.65,3.053,2.904,5.064c0.253,2.008-0.29,3.998-1.531,5.598   C465.796,445.606,461.031,446.219,457.73,443.682z M465.658,433.407c-2.366-1.819-5.75-1.383-7.564,0.956   c-1.823,2.35-1.394,5.744,0.954,7.565l-0.65,0.884l0.669-0.87c2.346,1.803,5.731,1.368,7.548-0.97   c0.883-1.138,1.269-2.551,1.087-3.98C467.523,435.562,466.796,434.29,465.658,433.407z"/>
	<path style="fill:#241726;" d="M20.393,408.578l-0.025-0.02c-3.305-2.562-3.908-7.336-1.345-10.643   c2.552-3.292,7.314-3.904,10.616-1.365c1.627,1.262,2.65,3.053,2.904,5.064c0.253,2.008-0.29,3.998-1.531,5.598   C28.458,410.502,23.693,411.115,20.393,408.578z M28.321,398.303c-2.366-1.819-5.75-1.383-7.564,0.956   c-1.823,2.35-1.394,5.744,0.954,7.565l-0.65,0.884l0.669-0.87c2.346,1.803,5.731,1.368,7.548-0.97   c0.883-1.138,1.269-2.551,1.087-3.98C30.185,400.458,29.458,399.186,28.321,398.303z"/>
	<path style="fill:#241726;" d="M476.256,207.621l-0.025-0.02c-3.305-2.562-3.908-7.336-1.345-10.643   c2.552-3.292,7.314-3.904,10.616-1.365c1.627,1.262,2.65,3.053,2.904,5.064c0.253,2.008-0.29,3.998-1.531,5.598   C484.321,209.546,479.556,210.158,476.256,207.621z M484.184,197.347c-2.366-1.819-5.75-1.383-7.564,0.956   c-1.823,2.35-1.394,5.744,0.954,7.565l-0.65,0.884l0.669-0.87c2.346,1.803,5.731,1.368,7.548-0.97   c0.883-1.138,1.269-2.551,1.087-3.98C486.048,199.502,485.321,198.229,484.184,197.347z"/>
	<path style="fill:#241726;" d="M168.348,154.325l-0.025-0.02c-3.305-2.562-3.908-7.336-1.345-10.643   c2.552-3.292,7.314-3.904,10.616-1.365c1.627,1.262,2.65,3.053,2.904,5.064c0.253,2.008-0.29,3.998-1.531,5.598   C176.414,156.25,171.649,156.862,168.348,154.325z M176.276,144.051c-2.366-1.819-5.75-1.383-7.564,0.956   c-1.823,2.35-1.394,5.744,0.954,7.565l-0.65,0.884l0.669-0.87c2.346,1.803,5.731,1.368,7.548-0.97   c0.883-1.138,1.269-2.551,1.087-3.98C178.141,146.206,177.414,144.933,176.276,144.051z"/>
	<path style="fill:#241726;" d="M390.245,169.022c-0.816,0-1.59,0-3.621-8.562c-7.197-1.483-7.795-2.308-8.026-2.627   c-0.199-0.274-0.281-0.778-0.184-1.106c0.137-0.461,0.454-1.528,8.74-4.742c3.051-7.655,4.049-7.655,4.714-7.655   c0.351,0,0.833,0.255,1.041,0.54c0.521,0.718,0.975,2.569,1.665,5.534c0.216,0.93,0.476,2.053,0.628,2.545   c0.431,0.199,1.382,0.553,2.168,0.848c4.219,1.575,5.305,2.106,5.489,3.12c0.069,0.381-0.131,0.932-0.422,1.187   c-0.87,0.761-4.986,2.228-7.143,2.965c-3.593,7.895-4.341,7.923-5.001,7.951C390.279,169.022,390.259,169.022,390.245,169.022z    M381.4,156.927c1.438,0.433,4.058,1.065,6.346,1.523c0.42,0.084,0.754,0.407,0.853,0.827c0.555,2.383,1.286,5.097,1.817,6.648   c0.818-1.427,2.063-3.957,3.072-6.194c0.126-0.276,0.362-0.491,0.649-0.587c1.969-0.664,4.193-1.483,5.577-2.068   c-0.958-0.42-2.265-0.906-3.113-1.223c-2.41-0.9-2.862-1.095-3.169-1.517c-0.266-0.366-0.426-0.977-0.998-3.437   c-0.214-0.921-0.542-2.338-0.838-3.396c-0.737,1.361-1.772,3.681-2.582,5.736c-0.111,0.285-0.339,0.512-0.626,0.621   C385.831,154.843,382.925,156.1,381.4,156.927z"/>
	<path style="fill:#241726;" d="M161.229,226.66c-0.816,0-1.59,0-3.621-8.562c-7.195-1.483-7.816-2.338-8.024-2.625   c-0.201-0.276-0.283-0.78-0.184-1.108c0.137-0.461,0.454-1.528,8.74-4.742c3.051-7.655,4.049-7.655,4.714-7.655   c0.351,0,0.833,0.255,1.041,0.54c0.521,0.718,0.975,2.571,1.663,5.536c0.216,0.93,0.478,2.053,0.63,2.545   c0.431,0.199,1.382,0.555,2.17,0.848c4.217,1.575,5.303,2.106,5.487,3.12c0.069,0.379-0.131,0.93-0.422,1.185   c-0.872,0.761-4.988,2.228-7.145,2.965c-3.593,7.895-4.341,7.923-5.001,7.951C161.263,226.66,161.244,226.66,161.229,226.66z    M152.386,214.565c1.436,0.433,4.056,1.065,6.344,1.523c0.42,0.084,0.754,0.407,0.853,0.827c0.555,2.383,1.286,5.097,1.817,6.648   c0.818-1.427,2.063-3.957,3.072-6.194c0.126-0.276,0.362-0.491,0.649-0.587c1.969-0.664,4.191-1.481,5.577-2.065   c-0.958-0.42-2.263-0.906-3.109-1.221c-2.413-0.902-2.867-1.095-3.173-1.519c-0.266-0.366-0.426-0.979-0.996-3.437   c-0.214-0.921-0.542-2.338-0.838-3.398c-0.737,1.363-1.772,3.681-2.582,5.736c-0.111,0.285-0.339,0.512-0.626,0.621   C156.815,212.48,153.91,213.738,152.386,214.565z"/>
	<path style="fill:#241726;" d="M248.282,46.592l-0.006,0l-4.244-0.015l4.496-3.048c0.501-0.341,0.633-1.023,0.292-1.524   c-0.343-0.504-1.029-0.628-1.524-0.292l-6.065,4.112l0.134-7.086c0.012-0.606-0.47-1.105-1.076-1.118l-0.006,0   c-0.602-0.008-1.099,0.472-1.111,1.076l-0.119,6.254l-3.71-4.024c-0.412-0.442-1.104-0.475-1.551-0.063   c-0.445,0.41-0.473,1.106-0.063,1.551l3.817,4.14l-7.029-0.025c-0.606-0.001-1.099,0.487-1.101,1.093   c-0.001,0.602,0.481,1.093,1.083,1.1l0.011,0l6.412,0.023l-5.01,3.396c-0.501,0.341-0.633,1.022-0.292,1.524   c0.21,0.309,0.549,0.476,0.894,0.481c0.219,0.003,0.438-0.059,0.63-0.189l5.813-3.941l-0.135,7.139   c-0.012,0.606,0.47,1.105,1.076,1.117l0.006,0c0.602,0.008,1.099-0.472,1.111-1.076l0.128-6.743l3.954,4.289   c0.213,0.23,0.501,0.349,0.792,0.353c0.27,0.003,0.543-0.091,0.758-0.29c0.445-0.41,0.473-1.106,0.063-1.55l-4.14-4.491l5.699,0.02   c0.606,0.001,1.099-0.487,1.101-1.094C249.37,47.09,248.888,46.6,248.282,46.592z"/>
	<path style="fill:#241726;" d="M466.274,357.046l-0.006,0l-4.244-0.015l4.496-3.048c0.501-0.341,0.633-1.023,0.292-1.524   c-0.343-0.504-1.029-0.628-1.524-0.292l-6.065,4.112l0.134-7.086c0.012-0.606-0.47-1.105-1.076-1.118l-0.006,0   c-0.602-0.008-1.099,0.472-1.111,1.076l-0.119,6.254l-3.71-4.024c-0.412-0.442-1.104-0.475-1.551-0.063   c-0.445,0.41-0.473,1.106-0.063,1.551l3.817,4.14l-7.029-0.025c-0.606-0.001-1.099,0.487-1.101,1.093   c-0.001,0.602,0.481,1.093,1.083,1.1l0.011,0l6.412,0.023l-5.01,3.396c-0.501,0.341-0.633,1.022-0.292,1.524   c0.21,0.309,0.549,0.476,0.894,0.481c0.219,0.003,0.438-0.059,0.63-0.189l5.813-3.941l-0.135,7.139   c-0.012,0.606,0.47,1.105,1.076,1.117l0.006,0c0.602,0.008,1.099-0.472,1.111-1.076l0.128-6.743l3.954,4.289   c0.213,0.23,0.501,0.349,0.793,0.353c0.27,0.003,0.543-0.091,0.758-0.29c0.445-0.41,0.473-1.106,0.063-1.55l-4.14-4.491l5.699,0.02   c0.606,0.001,1.099-0.487,1.101-1.094C467.362,357.544,466.88,357.054,466.274,357.046z"/>
	<path style="fill:#241726;" d="M18.865,365.438l-0.006,0l-4.244-0.015l4.496-3.048c0.501-0.341,0.633-1.023,0.292-1.524   c-0.343-0.504-1.029-0.628-1.524-0.292l-6.065,4.112l0.134-7.086c0.012-0.606-0.47-1.105-1.076-1.118l-0.006,0   c-0.602-0.008-1.099,0.472-1.111,1.076l-0.119,6.254l-3.71-4.024c-0.412-0.442-1.104-0.475-1.551-0.063   c-0.445,0.41-0.473,1.106-0.063,1.551l3.817,4.14l-7.029-0.025c-0.606-0.001-1.099,0.487-1.101,1.093   c-0.001,0.602,0.481,1.093,1.083,1.1l0.011,0l6.412,0.023l-5.01,3.396c-0.501,0.341-0.633,1.022-0.292,1.524   c0.21,0.309,0.549,0.476,0.894,0.481c0.219,0.003,0.438-0.059,0.63-0.189l5.813-3.941l-0.135,7.139   c-0.012,0.606,0.47,1.105,1.076,1.117l0.006,0c0.602,0.008,1.099-0.472,1.111-1.076l0.128-6.743l3.954,4.289   c0.213,0.23,0.501,0.349,0.792,0.353c0.27,0.003,0.543-0.091,0.758-0.29c0.445-0.41,0.473-1.106,0.063-1.55l-4.14-4.491l5.699,0.02   c0.606,0.001,1.099-0.487,1.101-1.094C19.954,365.936,19.472,365.446,18.865,365.438z"/>
	<g>
		<path style="fill:#241726;" d="M157.925,117.971c-0.285,0-0.668-0.15-0.872-0.347c-0.848-0.821-2.989-6.595-4.444-10.715    c-4.079,2.398-12.952,7.46-15.131,7.46c-0.784,0-1.219-0.465-1.365-0.9c-0.463-1.38,0.512-10.113,1.088-14.854    c-15.109-1.305-15.57-2.68-15.795-3.351c-0.201-0.593-0.658-1.954,8.536-11.474c-4.864-1.95-13.05-5.689-13.031-8.737    c0.017-3.047,7.49-6.644,11.87-8.491c-9.515-12.628-8.703-13.468-8.048-14.147c0.422-0.435,1.123-0.658,3.792-0.658    c3.345,0,8.429,0.366,10.841,0.555c-1.868-14.985-1.028-15.343-0.216-15.69c0.137-0.058,0.394-0.105,0.542-0.105    c1.566,0,10.419,3.914,15.358,6.156c1.864-14.045,3.12-14.045,4.043-14.045c0.081,0,0.199,0.013,0.279,0.03    c0.471,0.107,1.693,0.381,8.307,11.664c3.707-2.843,10.496-7.833,12.489-7.833c0.111,0,0.375,0.036,0.48,0.069    c0.696,0.221,2.28,0.718,1.427,12.228c3.349-1.018,11.122-3.285,14.036-3.285c1.56,0,1.997,0.694,2.091,1.277    c0.255,1.596-1.924,8.587-3.244,12.609c5.888,0.692,12.5,1.804,13.49,3.37c0.426,0.675,1.41,2.228-8.86,12.616    c4.928,2.383,11.683,6.19,11.377,9.029c-0.302,2.8-8.39,6.087-14.102,8.069c2.931,3.825,6.779,9.389,6.123,11.474    c-0.345,1.097-1.481,2.267-10.619,2.267c-1.768,0-3.357-0.047-4.326-0.084c-0.581,3.572-1.939,11.388-2.931,12.759    c-0.268,0.369-0.698,0.581-1.181,0.581l0,0c-1.997,0-7.808-5.369-11.647-9.145C159.785,117.969,158.488,117.971,157.925,117.971    L157.925,117.971z M153.203,104.186c0.126,0,0.253,0.021,0.375,0.066c0.311,0.114,0.553,0.358,0.662,0.671    c1.433,4.12,3.137,8.65,3.981,10.443c1.669-1.605,5.712-6.768,9.04-11.366c0.189-0.261,0.482-0.424,0.801-0.45    c0.324-0.021,0.634,0.088,0.863,0.317c3.972,3.964,8.857,8.326,10.623,9.241c0.623-1.798,1.714-7.422,2.481-12.29    c0.088-0.555,0.589-0.988,1.142-0.923c0.011,0,2.372,0.122,5.198,0.122c6.426,0,8.114-0.611,8.517-0.833    c-0.126-1.416-3.482-6.503-6.696-10.576c-0.221-0.281-0.291-0.651-0.191-0.994c0.103-0.341,0.366-0.613,0.705-0.726    c7.257-2.417,13.706-5.506,14.085-6.745c-0.114-1.148-5.502-4.652-11.536-7.448c-0.326-0.152-0.557-0.452-0.619-0.806    c-0.062-0.354,0.051-0.716,0.306-0.968c4.242-4.223,8.892-9.477,9.489-11.101c-1.322-0.728-7.64-1.813-13.057-2.404    c-0.33-0.036-0.626-0.219-0.803-0.499c-0.18-0.279-0.223-0.623-0.118-0.938c1.624-4.855,3.248-10.338,3.54-12.281    c-2.903,0.073-11.641,2.657-14.807,3.662c-0.351,0.109-0.733,0.039-1.018-0.189c-0.285-0.229-0.439-0.587-0.407-0.951    c0.396-4.602,0.484-10.038,0.032-11.51c-1.438,0.538-7.105,4.495-11.756,8.112c-0.249,0.195-0.564,0.27-0.883,0.212    c-0.311-0.062-0.581-0.253-0.739-0.527c-2.524-4.345-5.603-9.243-7.064-11.081c-0.698,2.233-1.675,7.985-2.312,12.999    c-0.045,0.347-0.251,0.651-0.555,0.821s-0.673,0.184-0.99,0.041c-6.012-2.751-12.708-5.624-15.071-6.383    c-0.062,2.29,0.555,8.712,1.292,14.475c0.043,0.33-0.066,0.66-0.298,0.898c-0.231,0.242-0.559,0.356-0.885,0.334    c-0.077-0.006-7.681-0.658-12.005-0.658c-0.776,0-1.313,0.021-1.682,0.049c1.067,2.117,4.907,7.585,8.545,12.371    c0.206,0.272,0.274,0.626,0.182,0.956c-0.09,0.33-0.33,0.6-0.647,0.726c-6.173,2.479-11.806,5.819-11.818,7.013    c0.154,1.258,6.308,4.662,13.166,7.28c0.347,0.131,0.602,0.429,0.681,0.791c0.079,0.36-0.028,0.737-0.287,1.001    c-3.797,3.874-7.998,8.602-8.956,10.31c1.952,0.696,8.851,1.588,14.81,2.078c0.298,0.024,0.572,0.169,0.761,0.401    c0.189,0.231,0.274,0.531,0.238,0.827c-0.707,5.674-1.335,11.96-1.356,14.261c2.318-0.784,8.789-4.287,14.48-7.675    C152.813,104.237,153.008,104.186,153.203,104.186z"/>
		<circle style="fill:#EABC00;" cx="161.773" cy="75.053" r="28.157"/>
		<g>
			<path style="fill:#FFFFFF;" d="M160.83,55.556c0,0,4.167,0.174,5.07,2.053"/>
			<path style="fill:#241726;" d="M165.902,58.705c-0.407,0-0.799-0.229-0.988-0.621c-0.42-0.872-2.712-1.369-4.131-1.431     c-0.604-0.028-1.073-0.54-1.048-1.144s0.533-1.084,1.14-1.05c0.806,0.034,4.883,0.321,6.014,2.674     c0.264,0.546,0.034,1.202-0.512,1.463C166.223,58.671,166.062,58.705,165.902,58.705z"/>
		</g>
		<g>
			<path style="fill:#FFFFFF;" d="M165.48,63.582c0,0,4.167,0.174,5.07,2.053"/>
			<path style="fill:#241726;" d="M170.551,66.731c-0.407,0-0.799-0.229-0.988-0.621c-0.42-0.872-2.713-1.369-4.131-1.431     c-0.604-0.028-1.073-0.54-1.048-1.144c0.026-0.604,0.512-1.054,1.14-1.05c0.806,0.034,4.883,0.321,6.014,2.674     c0.264,0.546,0.034,1.202-0.512,1.463C170.872,66.697,170.712,66.731,170.551,66.731z"/>
		</g>
		<g>
			<path style="fill:#FFFFFF;" d="M174.636,62.024c0,0,4.073,0.897,4.635,2.905"/>
			<path style="fill:#241726;" d="M179.271,66.026c-0.48,0-0.921-0.317-1.056-0.801c-0.251-0.896-2.378-1.813-3.816-2.13     c-0.591-0.131-0.966-0.716-0.836-1.307c0.131-0.589,0.707-0.96,1.307-0.836c0.788,0.174,4.752,1.168,5.457,3.681     c0.163,0.583-0.176,1.189-0.761,1.352C179.468,66.014,179.37,66.026,179.271,66.026z"/>
		</g>
		<g>
			<path style="fill:#FFFFFF;" d="M154.626,63.032c0,0,4.167,0.174,5.07,2.053"/>
			<path style="fill:#241726;" d="M159.697,66.181c-0.407,0-0.799-0.229-0.988-0.621c-0.405-0.84-2.657-1.371-4.127-1.431     c-0.606-0.026-1.076-0.538-1.052-1.142c0.026-0.606,0.525-1.063,1.142-1.052c0.806,0.034,4.881,0.321,6.012,2.674     c0.264,0.546,0.034,1.202-0.512,1.463C160.018,66.146,159.857,66.181,159.697,66.181z"/>
		</g>
		<g>
			<path style="fill:#FFFFFF;" d="M148.776,56.962c0,0,4.099-0.769,5.402,0.859"/>
			<path style="fill:#241726;" d="M154.18,58.917c-0.321,0-0.638-0.141-0.855-0.411c-0.608-0.752-2.959-0.722-4.347-0.467     c-0.602,0.114-1.168-0.283-1.279-0.876c-0.111-0.596,0.281-1.168,0.876-1.279c0.791-0.148,4.832-0.784,6.46,1.251     c0.379,0.471,0.304,1.161-0.169,1.541C154.664,58.838,154.422,58.917,154.18,58.917z"/>
		</g>
	</g>
	<path style="fill:#241726;" d="M41.806,328.269c-0.002,0-0.004,0-0.006,0c-1.536-0.009-3.06-0.126-4.529-0.351   c-0.6-0.09-1.011-0.651-0.919-1.249c0.09-0.6,0.671-1.011,1.249-0.919c1.365,0.208,2.781,0.317,4.212,0.326   c0.606,0.004,1.095,0.497,1.091,1.103C42.898,327.783,42.408,328.269,41.806,328.269z M33.169,326.92   c-0.114,0-0.227-0.017-0.341-0.054c-1.483-0.486-2.899-1.095-4.21-1.815c-0.531-0.291-0.726-0.958-0.435-1.489   c0.291-0.534,0.962-0.726,1.489-0.435c1.193,0.653,2.485,1.211,3.837,1.652c0.576,0.189,0.891,0.808,0.703,1.384   C34.06,326.626,33.632,326.92,33.169,326.92z M25.546,322.701c-0.255,0-0.51-0.088-0.716-0.266   c-1.172-1.011-2.228-2.151-3.141-3.39c-0.36-0.489-0.255-1.174,0.231-1.534c0.491-0.362,1.174-0.257,1.534,0.231   c0.816,1.108,1.761,2.128,2.807,3.03c0.461,0.396,0.51,1.088,0.116,1.547C26.158,322.572,25.852,322.701,25.546,322.701z    M20.376,315.705c-0.42,0-0.821-0.242-1.003-0.654c-0.604-1.361-1.086-2.826-1.436-4.356c-0.135-0.591,0.234-1.178,0.825-1.313   c0.596-0.139,1.181,0.236,1.313,0.825c0.319,1.393,0.756,2.723,1.303,3.957c0.246,0.553-0.004,1.202-0.559,1.446   C20.675,315.675,20.526,315.705,20.376,315.705z M18.394,307.21c-0.576,0-1.058-0.448-1.095-1.028   c-0.043-0.668-0.064-1.356-0.064-2.059c-0.002-0.797,0.026-1.62,0.084-2.466c0.043-0.604,0.572-1.071,1.17-1.02   c0.604,0.041,1.061,0.566,1.02,1.17c-0.054,0.791-0.081,1.562-0.079,2.314c0,0.658,0.021,1.298,0.06,1.924   c0.039,0.604-0.422,1.125-1.026,1.163C18.439,307.21,18.415,307.21,18.394,307.21z M18.951,298.475   c-0.062,0-0.126-0.004-0.189-0.015c-0.598-0.105-0.998-0.671-0.896-1.268c0.244-1.406,0.568-2.88,0.962-4.377   c0.152-0.585,0.758-0.943,1.339-0.782c0.587,0.154,0.936,0.754,0.782,1.339c-0.379,1.44-0.688,2.85-0.919,4.193   C19.938,298.098,19.474,298.475,18.951,298.475z M21.155,289.99c-0.118,0-0.238-0.019-0.356-0.06   c-0.572-0.195-0.878-0.818-0.681-1.393c0.504-1.472,1.076-2.877,1.699-4.18c0.266-0.546,0.919-0.773,1.466-0.514   c0.546,0.264,0.776,0.919,0.514,1.466c-0.589,1.223-1.127,2.548-1.605,3.94C22.038,289.703,21.612,289.99,21.155,289.99z    M54.496,286.802c-0.549,0-1.024-0.414-1.088-0.973c-0.069-0.602,0.364-1.146,0.966-1.215c0.951-0.107,2.233-0.463,2.937-1.536   c0.334-0.508,1.016-0.647,1.521-0.313c0.506,0.334,0.645,1.013,0.313,1.521c-0.93,1.408-2.492,2.275-4.523,2.509   C54.58,286.8,54.539,286.802,54.496,286.802z M50.16,286.367c-0.094,0-0.193-0.013-0.289-0.039   c-1.41-0.386-2.854-0.973-4.287-1.746c-0.534-0.289-0.733-0.953-0.446-1.487c0.289-0.536,0.962-0.726,1.487-0.446   c1.288,0.696,2.575,1.221,3.825,1.562c0.585,0.161,0.928,0.763,0.769,1.348C51.085,286.046,50.642,286.367,50.16,286.367z    M42.455,282.285c-0.242,0-0.484-0.079-0.686-0.24c-1.17-0.936-2.284-1.99-3.315-3.135c-0.407-0.45-0.371-1.144,0.079-1.549   c0.45-0.411,1.144-0.371,1.549,0.079c0.953,1.056,1.982,2.029,3.057,2.89c0.474,0.379,0.549,1.069,0.171,1.543   C43.095,282.144,42.776,282.285,42.455,282.285z M24.978,282.125c-0.212,0-0.426-0.06-0.615-0.189   c-0.501-0.341-0.632-1.022-0.294-1.523c0.883-1.305,1.853-2.5,2.886-3.555c0.424-0.433,1.116-0.437,1.551-0.017   c0.433,0.424,0.441,1.118,0.017,1.551c-0.941,0.962-1.828,2.055-2.638,3.25C25.674,281.955,25.329,282.125,24.978,282.125z    M58.456,280.593c-0.422,0-0.825-0.246-1.005-0.658c-0.439-1.005-1.275-2.042-2.415-3.002c-0.463-0.39-0.523-1.082-0.133-1.547   c0.394-0.463,1.084-0.523,1.547-0.133c1.395,1.176,2.436,2.492,3.01,3.803c0.242,0.555-0.011,1.202-0.566,1.444   C58.751,280.563,58.603,280.593,58.456,280.593z M31.103,275.922c-0.354,0-0.701-0.171-0.913-0.488   c-0.336-0.504-0.199-1.185,0.304-1.521c1.063-0.709,2.19-1.318,3.357-1.815c-0.126-0.257-0.251-0.516-0.369-0.778   c-0.253-0.551-0.011-1.202,0.54-1.453c0.544-0.255,1.198-0.013,1.453,0.54c0.591,1.288,1.277,2.53,2.038,3.694   c0.332,0.506,0.191,1.187-0.317,1.517c-0.501,0.332-1.185,0.195-1.517-0.317c-0.27-0.411-0.531-0.833-0.784-1.262   c-1.11,0.458-2.177,1.028-3.184,1.699C31.526,275.862,31.313,275.922,31.103,275.922z M52.051,274.834   c-0.161,0-0.324-0.034-0.478-0.109c-1.23-0.596-2.545-1.078-3.91-1.429c-0.587-0.152-0.938-0.75-0.788-1.337   c0.152-0.587,0.746-0.943,1.337-0.788c1.506,0.39,2.959,0.921,4.317,1.579c0.546,0.266,0.773,0.921,0.51,1.466   C52.848,274.606,52.458,274.834,52.051,274.834z M39.228,272.822c-0.536,0-1.005-0.394-1.084-0.941   c-0.086-0.6,0.33-1.155,0.93-1.243c1.517-0.219,3.096-0.276,4.598-0.186c0.604,0.034,1.067,0.555,1.031,1.159   c-0.036,0.604-0.578,1.073-1.159,1.031c-1.373-0.077-2.787-0.028-4.157,0.169C39.333,272.817,39.282,272.822,39.228,272.822z    M32.946,267.857c-0.474,0-0.911-0.309-1.052-0.786c-0.422-1.427-0.754-2.914-0.99-4.418c-0.092-0.598,0.317-1.159,0.915-1.253   c0.589-0.081,1.159,0.315,1.253,0.915c0.221,1.408,0.531,2.8,0.926,4.135c0.171,0.581-0.161,1.191-0.741,1.363   C33.154,267.842,33.049,267.857,32.946,267.857z M31.583,259.216c-0.589,0-1.076-0.465-1.097-1.058   c-0.015-0.429-0.021-0.859-0.021-1.294c0.002-1.043,0.041-2.115,0.124-3.212c0.047-0.604,0.583-1.058,1.178-1.011   c0.604,0.047,1.056,0.574,1.011,1.178c-0.079,1.041-0.118,2.057-0.12,3.047c0,0.407,0.006,0.812,0.021,1.215   c0.021,0.604-0.452,1.112-1.058,1.136C31.609,259.216,31.596,259.216,31.583,259.216z M32.239,250.481   c-0.064,0-0.126-0.004-0.191-0.017c-0.596-0.103-0.996-0.671-0.891-1.268c0.129-0.743,0.279-1.498,0.448-2.263   c0.163-0.733,0.343-1.444,0.536-2.128c0.165-0.583,0.765-0.926,1.356-0.756c0.583,0.167,0.921,0.773,0.756,1.356   c-0.184,0.645-0.351,1.313-0.506,2.005c-0.165,0.733-0.306,1.453-0.431,2.162C33.225,250.106,32.762,250.481,32.239,250.481z    M73.983,245.26c-0.354-0.002-0.713-0.045-1.073-0.124c-0.591-0.131-0.966-0.716-0.836-1.307c0.133-0.589,0.713-0.962,1.307-0.836   c0.212,0.047,0.418,0.071,0.611,0.073c0.493,0,1.103-0.146,1.393-1.288c0.146-0.587,0.737-0.953,1.331-0.795   c0.587,0.148,0.945,0.743,0.795,1.331C77.038,244.186,75.753,245.26,73.983,245.26z M69.368,243.012   c-0.255,0-0.512-0.088-0.72-0.27c-1.095-0.951-2.138-2.11-3.098-3.445c-0.354-0.493-0.24-1.178,0.251-1.532   c0.491-0.351,1.176-0.244,1.532,0.251c0.859,1.198,1.787,2.23,2.755,3.072c0.456,0.396,0.506,1.088,0.107,1.547   C69.978,242.883,69.674,243.012,69.368,243.012z M34.677,242.08c-0.15,0-0.302-0.03-0.448-0.094   c-0.553-0.249-0.801-0.896-0.555-1.451c0.645-1.442,1.393-2.787,2.226-4.002c0.343-0.497,1.026-0.623,1.526-0.283   c0.499,0.343,0.626,1.024,0.283,1.526c-0.756,1.103-1.44,2.333-2.029,3.655C35.498,241.838,35.097,242.08,34.677,242.08z    M75.296,239.07c-0.336,0-0.671-0.156-0.885-0.45c-0.683-0.932-1.686-1.915-2.901-2.841c-0.48-0.366-0.574-1.056-0.206-1.538   c0.371-0.484,1.058-0.574,1.538-0.206c1.399,1.067,2.522,2.175,3.338,3.291c0.358,0.489,0.253,1.174-0.238,1.532   C75.748,239.001,75.521,239.07,75.296,239.07z M64.226,235.969c-0.411,0-0.806-0.231-0.992-0.63   c-0.647-1.371-1.181-2.815-1.586-4.285c-0.161-0.585,0.184-1.189,0.767-1.35c0.454-0.116,0.911,0.049,1.172,0.403   c0.281-0.384,0.791-0.551,1.262-0.375c1.429,0.529,2.822,1.153,4.139,1.851c0.536,0.283,0.739,0.947,0.454,1.483   c-0.283,0.536-0.945,0.739-1.483,0.454c-1.202-0.636-2.475-1.208-3.782-1.697c0.298,0.881,0.645,1.746,1.039,2.582   c0.259,0.548,0.024,1.202-0.525,1.459C64.543,235.935,64.382,235.969,64.226,235.969z M39.657,234.932   c-0.294,0-0.587-0.118-0.803-0.351c-0.414-0.444-0.388-1.138,0.058-1.549c1.138-1.058,2.4-1.975,3.75-2.727   c0.525-0.294,1.196-0.107,1.491,0.424c0.296,0.529,0.105,1.196-0.424,1.491c-1.196,0.666-2.314,1.481-3.325,2.419   C40.192,234.836,39.924,234.932,39.657,234.932z M47.241,230.686c-0.478,0-0.915-0.313-1.054-0.793   c-0.167-0.583,0.169-1.191,0.75-1.358c1.436-0.414,2.957-0.688,4.523-0.816c0.598-0.039,1.133,0.399,1.183,1.003   c0.049,0.604-0.399,1.133-1.003,1.183c-1.423,0.118-2.8,0.366-4.094,0.739C47.443,230.673,47.342,230.686,47.241,230.686z    M60.266,230.604c-0.079,0-0.163-0.009-0.244-0.028c-1.403-0.321-2.809-0.54-4.18-0.656c-0.602-0.049-1.052-0.581-1.001-1.185   c0.051-0.604,0.591-1.035,1.185-1.001c1.472,0.122,2.98,0.36,4.484,0.703c0.591,0.135,0.96,0.722,0.825,1.313   C61.22,230.259,60.767,230.604,60.266,230.604z M61.907,227.553c-0.557,0-1.035-0.424-1.091-0.992   c-0.081-0.851-0.126-1.72-0.126-2.61c0.002-0.649,0.024-1.301,0.073-1.96c0.045-0.604,0.578-1.058,1.176-1.013   c0.604,0.045,1.058,0.572,1.013,1.176c-0.047,0.608-0.066,1.208-0.069,1.802c0,0.812,0.041,1.613,0.118,2.395   c0.058,0.602-0.384,1.138-0.988,1.198C61.98,227.551,61.944,227.553,61.907,227.553z M62.535,218.842   c-0.084,0-0.171-0.011-0.257-0.03c-0.589-0.144-0.951-0.735-0.81-1.324c0.351-1.448,0.823-2.905,1.403-4.328   c0.229-0.563,0.872-0.831,1.429-0.602c0.561,0.229,0.831,0.87,0.602,1.429c-0.54,1.322-0.977,2.674-1.301,4.015   C63.48,218.505,63.03,218.842,62.535,218.842z M65.824,210.74c-0.189,0-0.379-0.047-0.553-0.15c-0.523-0.304-0.701-0.975-0.394-1.5   c0.784-1.346,1.66-2.608,2.605-3.745c0.386-0.465,1.078-0.527,1.545-0.144c0.467,0.388,0.531,1.078,0.144,1.545   c-0.868,1.046-1.675,2.207-2.4,3.45C66.567,210.545,66.201,210.74,65.824,210.74z M71.418,204.041   c-0.315,0-0.628-0.135-0.844-0.399c-0.388-0.465-0.321-1.157,0.146-1.543c1.181-0.979,2.462-1.843,3.807-2.569   c0.529-0.287,1.198-0.092,1.485,0.444c0.289,0.531,0.09,1.198-0.444,1.485c-1.217,0.66-2.378,1.444-3.452,2.329   C71.913,203.957,71.665,204.041,71.418,204.041z M100.649,200.867c-0.133,0-0.27-0.024-0.401-0.075   c-0.015-0.006-1.588-0.617-4.06-1.185c-0.589-0.135-0.958-0.724-0.823-1.316c0.133-0.589,0.703-0.962,1.316-0.823   c2.644,0.606,4.3,1.253,4.369,1.279c0.563,0.223,0.842,0.859,0.621,1.423C101.5,200.604,101.086,200.867,100.649,200.867z    M79.082,199.888c-0.465,0-0.898-0.298-1.046-0.765c-0.182-0.579,0.137-1.196,0.713-1.378c1.418-0.45,2.916-0.788,4.454-1.007   c0.581-0.081,1.153,0.33,1.241,0.932c0.086,0.6-0.332,1.155-0.932,1.241c-1.418,0.201-2.798,0.514-4.099,0.926   C79.303,199.871,79.191,199.888,79.082,199.888z M92.113,198.881c-0.045,0-0.088-0.002-0.131-0.009   c-1.431-0.169-2.847-0.255-4.212-0.255c-0.606,0-1.116-0.491-1.116-1.097c0-0.606,0.474-1.097,1.08-1.097   c1.487,0,2.991,0.092,4.506,0.272c0.602,0.071,1.033,0.617,0.96,1.217C93.135,198.472,92.66,198.881,92.113,198.881z"/>
	<path style="fill:#241726;" d="M460.69,168.433c-0.388,0-0.767-0.208-0.964-0.574c-0.289-0.533-0.09-1.2,0.441-1.487   c1.176-0.636,2.237-1.463,3.158-2.462c0.411-0.448,1.106-0.474,1.549-0.062c0.446,0.409,0.474,1.103,0.062,1.549   c-1.084,1.176-2.338,2.153-3.724,2.903C461.046,168.39,460.868,168.433,460.69,168.433z M466.593,162.136   c-0.165,0-0.332-0.036-0.489-0.116c-0.542-0.27-0.763-0.928-0.493-1.47c0.585-1.181,1.058-2.488,1.406-3.891   c0.146-0.585,0.735-0.943,1.328-0.801c0.587,0.146,0.947,0.739,0.801,1.328c-0.386,1.558-0.913,3.019-1.573,4.341   C467.384,161.913,466.996,162.136,466.593,162.136z M468.755,153.69c-0.028,0-0.054,0-0.079-0.002   c-0.606-0.043-1.061-0.568-1.018-1.172c0.049-0.696,0.075-1.403,0.075-2.123c0-0.694-0.024-1.399-0.069-2.113   c-0.039-0.606,0.42-1.127,1.024-1.166c0.656-0.058,1.127,0.422,1.166,1.024c0.049,0.761,0.073,1.513,0.073,2.254   c0,0.771-0.026,1.534-0.079,2.278C469.805,153.249,469.325,153.69,468.755,153.69z M468.211,144.955   c-0.518,0-0.981-0.371-1.078-0.9c-0.251-1.376-0.583-2.773-0.988-4.157c-0.171-0.581,0.163-1.191,0.743-1.361   c0.587-0.171,1.191,0.165,1.361,0.743c0.426,1.457,0.778,2.929,1.043,4.379c0.107,0.596-0.287,1.168-0.883,1.277   C468.344,144.948,468.277,144.955,468.211,144.955z M465.762,136.543c-0.435,0-0.848-0.261-1.02-0.69   c-0.523-1.316-1.118-2.629-1.77-3.904c-0.276-0.54-0.062-1.2,0.478-1.476c0.542-0.272,1.2-0.062,1.476,0.478   c0.681,1.337,1.307,2.712,1.855,4.09c0.223,0.561-0.051,1.2-0.615,1.425C466.034,136.517,465.897,136.543,465.762,136.543z    M414.835,132.796c-0.092,0-0.186-0.011-0.281-0.036c-1.067-0.283-2.113-0.928-3.105-1.915c-0.345-0.343-0.658-0.694-0.936-1.048   c-0.373-0.476-0.291-1.166,0.186-1.541c0.474-0.371,1.163-0.296,1.54,0.186c0.223,0.285,0.476,0.568,0.756,0.846   c0.718,0.713,1.429,1.168,2.119,1.35c0.585,0.156,0.934,0.756,0.78,1.341C415.765,132.472,415.321,132.796,414.835,132.796z    M418.871,131.649c-0.309,0-0.617-0.131-0.833-0.384c-0.394-0.461-0.341-1.155,0.12-1.547c0.838-0.716,1.65-1.776,2.419-3.156   c0.291-0.531,0.962-0.718,1.491-0.424c0.529,0.294,0.72,0.962,0.424,1.491c-0.893,1.609-1.873,2.871-2.908,3.756   C419.377,131.564,419.124,131.649,418.871,131.649z M461.787,128.729c-0.364,0-0.72-0.182-0.928-0.512   c-0.763-1.213-1.583-2.4-2.44-3.531c-0.366-0.482-0.272-1.17,0.212-1.536c0.478-0.364,1.168-0.272,1.536,0.212   c0.896,1.181,1.753,2.421,2.548,3.685c0.324,0.514,0.169,1.191-0.343,1.513C462.19,128.675,461.989,128.729,461.787,128.729z    M409.776,126.203c-0.578,0-1.061-0.45-1.095-1.033c-0.011-0.169-0.015-0.339-0.015-0.51c0-1.408,0.369-2.847,1.097-4.274   c0.274-0.544,0.943-0.754,1.474-0.48c0.54,0.274,0.756,0.934,0.48,1.474c-0.568,1.118-0.857,2.222-0.857,3.28   c0,0.129,0.004,0.255,0.011,0.381c0.036,0.606-0.426,1.125-1.031,1.159C409.819,126.203,409.798,126.203,409.776,126.203z    M423.319,124.187c-0.122,0-0.246-0.019-0.366-0.064c-0.572-0.201-0.87-0.829-0.666-1.399c0.456-1.288,0.861-2.665,1.206-4.101   c0.141-0.587,0.716-0.943,1.324-0.81c0.589,0.141,0.951,0.735,0.81,1.324c-0.362,1.508-0.791,2.961-1.275,4.319   C424.194,123.906,423.772,124.187,423.319,124.187z M456.491,121.746c-0.298,0-0.596-0.122-0.812-0.36   c-0.951-1.048-1.967-2.072-3.021-3.045c-0.446-0.411-0.474-1.103-0.062-1.549s1.108-0.474,1.549-0.062   c1.101,1.016,2.164,2.087,3.158,3.182c0.407,0.448,0.375,1.142-0.075,1.549C457.018,121.652,456.754,121.746,456.491,121.746z    M413.363,118.487c-0.281,0-0.563-0.107-0.778-0.324c-0.426-0.429-0.426-1.123,0.004-1.551c1.033-1.028,2.243-1.997,3.597-2.877   c0.506-0.328,1.187-0.189,1.517,0.321c0.33,0.508,0.186,1.187-0.321,1.517c-1.226,0.799-2.318,1.671-3.246,2.595   C413.922,118.38,413.644,118.487,413.363,118.487z M449.975,115.897c-0.214,0-0.429-0.062-0.617-0.191   c-1.168-0.795-2.395-1.502-3.653-2.102c-0.548-0.261-0.78-0.915-0.518-1.461c0.261-0.546,0.915-0.778,1.461-0.519   c1.361,0.647,2.687,1.412,3.944,2.269c0.501,0.341,0.63,1.024,0.289,1.523C450.669,115.73,450.325,115.897,449.975,115.897z    M425.4,115.67c-0.056,0-0.109-0.004-0.165-0.013c-0.6-0.09-1.011-0.649-0.921-1.247c0.105-0.707,0.199-1.423,0.279-2.14   c-1.204,0.364-2.38,0.801-3.503,1.301c-0.555,0.244-1.2-0.002-1.448-0.557c-0.246-0.553,0.004-1.202,0.557-1.448   c1.365-0.606,2.8-1.127,4.27-1.545c0.111-0.034,0.236-0.043,0.341-0.043c0.114-0.525,0.651-0.893,1.148-0.861   c0.604,0.043,1.061,0.568,1.018,1.172c-0.107,1.487-0.272,2.985-0.493,4.448C426.401,115.28,425.933,115.67,425.4,115.67z    M442.086,112.139c-0.103,0-0.208-0.015-0.313-0.045c-1.331-0.396-2.719-0.694-4.124-0.891c-0.6-0.084-1.018-0.638-0.934-1.238   c0.086-0.6,0.656-0.998,1.238-0.934c1.513,0.21,3.008,0.534,4.446,0.96c0.581,0.174,0.911,0.784,0.739,1.365   C442.997,111.83,442.56,112.139,442.086,112.139z M429.051,111.252c-0.536,0-1.005-0.394-1.084-0.941   c-0.086-0.6,0.33-1.155,0.93-1.243c1.5-0.216,3.023-0.33,4.523-0.339c0.497-0.024,1.099,0.484,1.103,1.091   c0.004,0.606-0.484,1.099-1.091,1.103c-1.401,0.009-2.822,0.114-4.223,0.317C429.156,111.248,429.104,111.252,429.051,111.252z    M426.015,106.918c-0.6,0-1.091-0.482-1.097-1.084c-0.017-1.466-0.094-2.907-0.231-4.285c-0.06-0.604,0.379-1.14,0.981-1.2   c0.638-0.062,1.142,0.379,1.2,0.981c0.144,1.442,0.227,2.948,0.244,4.478c0.006,0.606-0.478,1.103-1.084,1.11   C426.023,106.918,426.019,106.918,426.015,106.918z M378.392,105.289c-0.375,0-0.741-0.193-0.947-0.542   c-0.306-0.523-0.131-1.193,0.392-1.502c0.801-0.469,1.635-1.466,2.408-2.877c0.291-0.534,0.96-0.724,1.489-0.435   c0.531,0.291,0.726,0.958,0.435,1.489c-0.977,1.785-2.061,3.036-3.222,3.717C378.773,105.24,378.582,105.289,378.392,105.289z    M374.392,104.668c-0.264,0-0.527-0.094-0.737-0.285c-0.238-0.216-0.48-0.461-0.72-0.739c-0.949-1.093-1.56-2.297-1.813-3.576   c-0.118-0.593,0.268-1.17,0.863-1.288c0.585-0.124,1.172,0.268,1.288,0.863c0.178,0.898,0.621,1.761,1.32,2.563   c0.18,0.208,0.358,0.392,0.536,0.553c0.448,0.407,0.482,1.101,0.075,1.549C374.987,104.546,374.689,104.668,374.392,104.668z    M425.113,98.199c-0.508,0-0.964-0.356-1.071-0.872c-0.302-1.44-0.686-2.811-1.14-4.075c-0.206-0.57,0.092-1.198,0.662-1.403   c0.566-0.199,1.198,0.09,1.403,0.662c0.488,1.358,0.9,2.828,1.221,4.367c0.124,0.593-0.255,1.174-0.848,1.298   C425.263,98.193,425.188,98.199,425.113,98.199z M382.915,97.955c-0.114,0-0.229-0.017-0.345-0.056   c-0.574-0.191-0.887-0.81-0.696-1.386c0.42-1.266,0.793-2.655,1.11-4.124c0.126-0.593,0.728-0.956,1.303-0.842   c0.591,0.129,0.968,0.711,0.842,1.305c-0.334,1.545-0.728,3.008-1.172,4.352C383.804,97.664,383.375,97.955,382.915,97.955z    M372.808,96.689c-0.152,0-0.306-0.032-0.452-0.099c-0.553-0.249-0.797-0.9-0.546-1.451c0.587-1.298,1.485-2.605,2.668-3.889   c0.407-0.446,1.108-0.474,1.549-0.062c0.446,0.409,0.474,1.103,0.062,1.549c-1.022,1.11-1.789,2.222-2.282,3.306   C373.625,96.449,373.226,96.689,372.808,96.689z M378.544,90.16c-0.33,0-0.658-0.15-0.874-0.433   c-0.366-0.482-0.272-1.172,0.21-1.538c1.148-0.872,2.417-1.712,3.773-2.496c0.521-0.304,1.193-0.126,1.5,0.399   c0.304,0.525,0.124,1.196-0.399,1.5c-1.279,0.739-2.47,1.53-3.546,2.346C379.009,90.088,378.775,90.16,378.544,90.16z    M422.094,90.004c-0.375,0-0.739-0.193-0.945-0.54c-0.733-1.243-1.573-2.331-2.496-3.237c-0.431-0.424-0.439-1.118-0.013-1.551   c0.422-0.431,1.116-0.439,1.551-0.013c1.058,1.039,2.016,2.28,2.848,3.687c0.309,0.521,0.135,1.193-0.388,1.502   C422.477,89.955,422.285,90.004,422.094,90.004z M384.8,89.389c-0.047,0-0.094-0.002-0.144-0.009   c-0.6-0.077-1.024-0.628-0.947-1.23c0.182-1.406,0.315-2.85,0.394-4.289c0.034-0.604,0.561-1.078,1.155-1.035   c0.399,0.021,0.735,0.253,0.908,0.581c1.198-0.525,2.425-1.007,3.657-1.436c0.576-0.193,1.198,0.107,1.397,0.677   c0.197,0.572-0.105,1.198-0.677,1.397c-1.348,0.467-2.689,1.003-3.985,1.588c-0.126,0.058-0.257,0.09-0.386,0.096   c-0.077,0.908-0.174,1.813-0.287,2.704C385.814,88.986,385.342,89.389,384.8,89.389z M415.863,84.013   c-0.167,0-0.336-0.039-0.495-0.118c-1.193-0.602-2.5-1.095-3.884-1.466c-0.587-0.156-0.934-0.758-0.778-1.343   c0.159-0.585,0.756-0.923,1.343-0.778c1.532,0.411,2.98,0.958,4.309,1.628c0.54,0.272,0.756,0.932,0.484,1.474   C416.65,83.793,416.264,84.013,415.863,84.013z M394.388,82.848c-0.493,0-0.941-0.334-1.065-0.833   c-0.146-0.587,0.212-1.183,0.801-1.328c1.474-0.366,2.957-0.662,4.407-0.876c0.585-0.099,1.159,0.321,1.245,0.923   c0.09,0.598-0.324,1.157-0.923,1.245c-1.38,0.206-2.794,0.489-4.202,0.838C394.564,82.837,394.474,82.848,394.388,82.848z    M407.449,81.702c-0.036,0-0.071-0.002-0.107-0.004c-1.018-0.099-2.042-0.137-3.098-0.139c-0.379,0-0.756,0.009-1.136,0.024   c-0.675,0.015-1.114-0.45-1.14-1.054c-0.024-0.604,0.448-1.116,1.054-1.14c0.452-0.015,0.887-0.015,1.356-0.024   c1.069,0,2.138,0.049,3.173,0.148c0.602,0.058,1.046,0.593,0.988,1.198C408.484,81.277,408.006,81.702,407.449,81.702z    M385.272,80.632c-0.593,0-1.082-0.474-1.097-1.071c-0.034-1.474-0.126-2.918-0.272-4.289c-0.064-0.602,0.371-1.142,0.975-1.206   c0.561-0.066,1.142,0.371,1.206,0.975c0.152,1.431,0.249,2.935,0.285,4.469c0.013,0.606-0.465,1.108-1.071,1.123   C385.289,80.632,385.28,80.632,385.272,80.632z M384.31,71.921c-0.506,0-0.962-0.354-1.071-0.87   c-0.306-1.455-0.69-2.828-1.138-4.084c-0.204-0.57,0.094-1.198,0.664-1.401c0.574-0.21,1.198,0.092,1.401,0.664   c0.482,1.348,0.891,2.817,1.219,4.367c0.124,0.593-0.253,1.174-0.846,1.301C384.462,71.912,384.387,71.921,384.31,71.921z    M381.31,63.712c-0.377,0-0.743-0.195-0.949-0.544c-0.726-1.251-1.56-2.344-2.477-3.244c-0.433-0.424-0.437-1.118-0.013-1.551   c0.426-0.433,1.121-0.437,1.551-0.013c1.054,1.037,2.01,2.284,2.837,3.702c0.304,0.525,0.126,1.196-0.396,1.502   C381.689,63.665,381.499,63.712,381.31,63.712z M345.987,58.945c-0.339,0-0.673-0.156-0.887-0.452   c-0.358-0.489-0.251-1.174,0.238-1.53c0.06-0.045,1.528-1.11,4.019-2.254c0.555-0.257,1.2-0.013,1.455,0.538   c0.253,0.551,0.013,1.202-0.538,1.455c-2.275,1.046-3.63,2.023-3.642,2.033C346.437,58.877,346.21,58.945,345.987,58.945z    M375.109,57.679c-0.186,0-0.373-0.047-0.544-0.144c-1.238-0.709-2.518-1.316-3.807-1.808c-0.566-0.214-0.848-0.848-0.632-1.416   c0.216-0.566,0.844-0.848,1.416-0.632c1.393,0.531,2.777,1.187,4.112,1.95c0.527,0.302,0.709,0.973,0.409,1.498   C375.859,57.48,375.489,57.679,375.109,57.679z M353.924,55.258c-0.474,0-0.911-0.309-1.052-0.784   c-0.171-0.581,0.159-1.191,0.739-1.365c1.468-0.435,2.963-0.758,4.45-0.96c0.583-0.109,1.153,0.336,1.234,0.938   c0.081,0.6-0.339,1.153-0.938,1.234c-1.376,0.189-2.762,0.489-4.12,0.891C354.131,55.243,354.026,55.258,353.924,55.258z    M366.942,54.576c-0.073,0-0.144-0.006-0.216-0.021c-1.367-0.272-2.77-0.429-4.172-0.467c-0.606-0.017-1.084-0.521-1.067-1.127   c0.017-0.606,0.495-1.091,1.127-1.067c1.523,0.043,3.051,0.214,4.54,0.51c0.594,0.118,0.979,0.696,0.861,1.29   C367.912,54.214,367.454,54.576,366.942,54.576z"/>
	<g>
		<path style="fill:#52AFA6;" d="M65.219,379.251c0,0,338.517-2.792,344.353,0c5.836,2.792,39.396,96.319,36.478,100.506    c-2.918,4.188-418.768,2.792-418.768-2.792S65.219,379.251,65.219,379.251z"/>
		<g>
			<path style="fill:#FFFFFF;" d="M383.733,415.702c0,0,15.459-0.997,15.958,0.374s12.093,31.791,8.976,34.285     s-26.43,2.992-30.669,0.499C373.76,448.366,382.611,415.079,383.733,415.702z"/>
			<path style="fill:#1A1F36;" d="M378.996,403.983c0,0,22.839-2.841,24.345,0.171c1.506,3.012-2.143,9.663-3.649,11.922     c0,0-11.035,1.633-15.177,0.88S372.219,404.359,378.996,403.983z"/>
			<path style="fill:#FFFFFF;" d="M383.43,406.183c0,0,2.005-0.702,2.706,0.401c0.702,1.103-1.403,1.905-2.506,1.203     C382.528,407.086,382.327,406.284,383.43,406.183z"/>
			<path style="fill:#FFFFFF;" d="M389.664,404.812c0,0,2.005-0.702,2.706,0.401s-1.403,1.905-2.506,1.203     S388.561,404.912,389.664,404.812z"/>
			<path style="fill:#FFFFFF;" d="M386.422,409.176c0,0,2.005-0.702,2.706,0.401c0.702,1.103-1.403,1.905-2.506,1.203     C385.52,410.078,385.319,409.276,386.422,409.176z"/>
			<path style="fill:#FFFFFF;" d="M393.279,409.425c0,0,2.005-0.702,2.706,0.401s-1.403,1.905-2.506,1.203     S392.176,409.525,393.279,409.425z"/>
			<path style="fill:#FFFFFF;" d="M396.271,406.682c0,0,2.005-0.702,2.706,0.401c0.702,1.103-1.403,1.905-2.506,1.203     C395.369,407.584,395.169,406.782,396.271,406.682z"/>
			<path style="fill:#241726;" d="M403.736,442.867c-0.467,0-0.898-0.298-1.046-0.767c-1.446-4.574-5.183-19.283-5.341-19.907     c-0.15-0.587,0.206-1.185,0.793-1.333c0.591-0.154,1.183,0.206,1.333,0.793c0.039,0.152,3.88,15.27,5.307,19.787     c0.182,0.576-0.137,1.193-0.716,1.376C403.957,442.85,403.846,442.867,403.736,442.867z"/>
		</g>
		<g>
			<path style="fill:#FFFFFF;" d="M339.853,399.247c0,0,15.459-0.997,15.958,0.374c0.499,1.371,12.093,31.791,8.976,34.285     s-26.43,2.992-30.669,0.499S338.731,398.624,339.853,399.247z"/>
			<path style="fill:#1A1F36;" d="M335.116,387.528c0,0,22.839-2.841,24.345,0.171c1.506,3.012-2.143,9.663-3.649,11.922     c0,0-11.035,1.633-15.177,0.88C336.493,399.748,328.339,387.904,335.116,387.528z"/>
			<path style="fill:#FFFFFF;" d="M339.55,389.728c0,0,2.005-0.702,2.706,0.401s-1.403,1.905-2.506,1.203     S338.447,389.829,339.55,389.728z"/>
			<path style="fill:#FFFFFF;" d="M345.784,388.357c0,0,2.005-0.702,2.706,0.401c0.702,1.103-1.403,1.905-2.506,1.203     C344.881,389.259,344.681,388.457,345.784,388.357z"/>
			<path style="fill:#FFFFFF;" d="M342.542,392.721c0,0,2.005-0.702,2.706,0.401s-1.403,1.905-2.506,1.203     S341.439,392.821,342.542,392.721z"/>
			<path style="fill:#FFFFFF;" d="M349.399,392.97c0,0,2.005-0.702,2.706,0.401c0.702,1.103-1.403,1.904-2.506,1.203     C348.497,393.872,348.296,393.07,349.399,392.97z"/>
			<path style="fill:#FFFFFF;" d="M352.391,390.227c0,0,2.005-0.702,2.706,0.401s-1.403,1.905-2.506,1.203     C351.489,391.129,351.289,390.327,352.391,390.227z"/>
			<path style="fill:#241726;" d="M359.856,426.412c-0.467,0-0.898-0.298-1.046-0.767c-1.446-4.574-5.183-19.283-5.341-19.907     c-0.15-0.587,0.206-1.185,0.793-1.333c0.589-0.156,1.185,0.206,1.333,0.793c0.039,0.152,3.88,15.27,5.307,19.787     c0.182,0.576-0.137,1.193-0.716,1.376C360.077,426.395,359.966,426.412,359.856,426.412z"/>
		</g>
		<g>
			<path style="fill:#1A1F36;" d="M98.929,395.639c0,0,165.281-5.851,169.669,1.463c4.388,7.313,14.627,70.208,14.627,70.208     s-198.923,2.925-200.385-4.388C81.377,455.608,98.929,395.639,98.929,395.639z"/>
		</g>
		<path style="fill:#241726;" d="M189.414,435.503c-26.872,0.002-54.391-6.689-71.83-16.802    c-28.021-16.251-19.971-32.066-19.613-32.732c0.285-0.534,0.953-0.739,1.485-0.448c0.531,0.285,0.733,0.947,0.45,1.481l0,0    c-0.309,0.591-7.3,14.674,18.78,29.801c27.464,15.932,80.351,23.236,115.311,8.712c21.113-8.77,35.91-21.392,39.582-33.765    c1.371-4.622,0.983-8.692-1.125-11.773c-0.341-0.499-0.212-1.183,0.287-1.526c0.497-0.339,1.181-0.214,1.526,0.287    c2.458,3.591,2.959,8.435,1.416,13.638c-3.859,12.999-19.129,26.144-40.846,35.166    C221.489,433.086,205.567,435.503,189.414,435.503z"/>
		<g>
			<path style="fill:#E8B500;" d="M211.959,182.703c0,0,7.427,5.882,3.173,24.723s-20.977,37.156-16.115,42.626     s46.468-13,47.935-11.265c1.468,1.735,2.525-24.062,1.917-25.885c-0.608-1.823-22.797-14.593-29.483-29.788L211.959,182.703z"/>
			<g>
				<path style="fill:#E47947;" d="M293.655,232.908l-2.483-30.535c6.326-5.099,9.775-10.763,11.597-15.874      c0.635,0.271,1.346,0.47,2.151,0.578c12.398,1.665,20.179-15.038,16.077-27.95c-2.612-8.223-9.886-4.392-14.828-0.525      c2.242-18.799,3.83-52.735-13.659-54.186c0,0-51.053-17.876-68.301,7.042c-4.606,6.654-7.609,24.008-7.921,41.224      c-4.091-3.521-9.141-5.714-12.282,0.665c-5.985,12.153-0.789,29.832,11.718,30.039c1.398,0.023,2.562-0.262,3.547-0.764      c5.256,19.068,16.71,27.286,27.571,30.343c1.216,10.427,1.957,22.016-0.36,24.332c-4.388,4.388-42.783,23.037-42.783,23.037      s61.798,69.477,133.468-2.925C337.169,257.407,301.334,238.393,293.655,232.908z"/>
				<path style="fill:#241726;" d="M216.925,173.395c-0.429,0-0.838-0.253-1.013-0.675c-2.162-5.185-4.958-9.967-5.986-10.237      c-0.666,0.019-1.753,2.965-2.1,5.841c-0.071,0.604-0.615,1.056-1.219,0.958c-0.602-0.073-1.031-0.619-0.958-1.219      c0.216-1.806,1.17-7.698,4.281-7.769c0.011,0,0.021,0,0.032,0c2.738,0,6.171,7.248,7.977,11.583      c0.231,0.559-0.032,1.202-0.591,1.436C217.21,173.367,217.066,173.395,216.925,173.395z"/>
			</g>
			<path style="fill:#E47947;" d="M396.224,249.911c0,0,72.664-1.226,75.591,32.142c4.472,50.98-103.565,69.33-98.08,73.718     c5.485,4.388,30.716-13.164,29.619-7.679c-1.097,5.485-14.261,13.164-14.261,13.164s18.649-10.97,18.649-6.582     s-16.455,14.261-16.455,14.261s21.245-8.628,18.649-2.194c-8.41,20.843-47.902,14.992-54.484,10.604s-3.657-35.835,1.828-41.32     c5.485-5.485,62.529-37.664,62.529-39.492l-21.391-0.548C397.321,288.306,396.224,249.911,396.224,249.911z"/>
			<path style="fill:#241726;" d="M279.165,173.978c-0.36,0-0.698-0.12-0.979-0.351c-1.975-1.62-2.059-11.548-1.935-17.321     c0.013-0.606,0.566-1.082,1.121-1.073c0.606,0.013,1.086,0.514,1.073,1.121c-0.133,6.134,0.193,13.256,0.943,15.204     c1.609-1.431,5.393-8.078,8.275-14.006c0.264-0.544,0.921-0.773,1.466-0.508c0.544,0.266,0.771,0.921,0.506,1.468     c-2.685,5.524-7.565,14.874-10.104,15.429C279.407,173.965,279.285,173.978,279.165,173.978z"/>
			<path style="fill:#241726;" d="M239.512,172.084c-0.444,0-0.859-0.223-1.146-0.626c-1.558-2.183-5.716-15.064-6.186-16.528     c-0.184-0.576,0.133-1.193,0.711-1.38c0.572-0.18,1.193,0.133,1.38,0.711c1.534,4.784,3.979,11.938,5.305,14.837     c1.091-2.548,2.862-9.357,4.135-15.352c0.126-0.596,0.72-0.96,1.301-0.846c0.593,0.126,0.973,0.709,0.846,1.301     c-3.685,17.357-5.354,17.704-6.066,17.852C239.698,172.073,239.604,172.084,239.512,172.084z"/>
			<path style="fill:#241726;" d="M305.392,177.031c-0.195,0-0.39-0.051-0.568-0.159c-0.519-0.315-0.684-0.99-0.371-1.506     c2.443-4.032,6.865-10.769,9.65-10.254c3.066,0.531,3.126,6.503,3.072,8.32c-0.019,0.606-0.469,1.08-1.129,1.065     c-0.606-0.019-1.082-0.525-1.065-1.129c0.086-2.95-0.536-5.969-1.256-6.096c-1.005,0.118-4.484,4.429-7.396,9.23     C306.125,176.843,305.763,177.031,305.392,177.031z"/>
			<circle style="fill:#DF4F3E;" cx="288.337" cy="184.496" r="8.268"/>
			<circle style="fill:#DF4F3E;" cx="260.638" cy="195.192" r="8.268"/>
			<circle style="fill:#DF4F3E;" cx="233.916" cy="184.484" r="8.268"/>
			<path style="fill:#241726;" d="M262.907,181.186c-0.079,0-0.161-0.009-0.242-0.028c-1.843-0.414-7.118-1.543-9.003-1.438     c-0.576-0.039-0.923-0.199-1.232-0.591c-1.68-2.117,1.174-14.417,3.023-21.559c0.152-0.585,0.743-0.938,1.337-0.788     c0.587,0.152,0.941,0.752,0.788,1.337c-2.057,7.94-3.887,17.267-3.484,19.412c2.873,0.101,8.789,1.429,9.055,1.489     c0.591,0.133,0.962,0.72,0.827,1.311C263.862,180.841,263.41,181.186,262.907,181.186z"/>
			<path style="fill:#241726;" d="M259.159,199.736c-3.222,0-5.905-4.034-8.437-12.688c-0.171-0.583,0.163-1.191,0.743-1.361     c0.589-0.176,1.191,0.165,1.361,0.743c2.948,10.072,5.406,11.088,6.363,11.111c2.7-0.045,5.815-7.48,7.163-12.744     c0.15-0.585,0.743-0.941,1.335-0.791c0.587,0.15,0.941,0.748,0.791,1.335c-0.613,2.387-3.934,14.304-9.252,14.394     C259.204,199.736,259.181,199.736,259.159,199.736z"/>
			<path style="fill:#241726;" d="M259.882,216.393c-6.477,0-13.404-1.538-19.817-6.046c-0.495-0.349-0.613-1.033-0.266-1.53     c0.351-0.493,1.033-0.615,1.53-0.266c18.917,13.314,42.939-1.02,43.182-1.163c0.521-0.317,1.193-0.15,1.506,0.366     c0.315,0.516,0.152,1.191-0.364,1.506C285.479,209.365,273.718,216.393,259.882,216.393z"/>
			<path style="fill:#E8B500;" d="M240.45,97.977c0,0-3.291,9.873,16.455,27.425s45.545,30.692,48.287,34.532     c2.742,3.84,13.528-6.026,15.805-0.807c2.277,5.219-1.281,19.428-6.217,23.816c-4.937,4.388-11.265,2.636-12.224,3.355     c-3.427,2.57-11.984,16.777-11.984,16.777c-0.548,4.388,0.453,28.951,3.631,32.026c5.668,5.485,57.043,6.354,69.294,3.291     c2.925-0.731,10.239-14.261-4.571-42.234c-14.81-27.973,2.011-36.384-7.862-68.197c-9.873-31.813-48.085-62.895-85.932-56.861     s-57.044,27.425-61.432,52.107s4.937,34.555,11.519,32.361S234.417,110.044,240.45,97.977z"/>
			<path style="fill:#DF4F3E;" d="M395.676,243.512c-2.925-1.463-89.223-10.604-96.536-8.41c0,0-6.034,38.943-36.201,28.522     c-18.461-6.377-16.455-26.328-16.455-26.328s-33.062,6.36-50.941,14.376c-12.788,4.464-27.001,10.361-31.883,15.243     c0,0,8.227,57.044,13.712,61.432c2.565,2.052,9.926,0.266,17.038-2.217c4.35,27.154,9.349,52.109,13.678,50.485     c8.776-3.291,140.782,3.291,142.976,2.194c1.281-0.641,5.427-43.154,7.785-80.179c10.69,0.669,38.571,2.235,39.752,0.463     C400.064,296.899,398.601,244.975,395.676,243.512z"/>
			<path style="fill:#241726;" d="M270.166,272.957c-0.223,0-0.446-0.004-0.671-0.009c-23.243-0.568-24.644-25.477-24.655-25.73     c-0.028-0.604,0.439-1.116,1.043-1.144c0.583-0.073,1.121,0.439,1.146,1.043c0.045,0.945,1.333,23.121,22.516,23.637     c0.206,0.004,0.411,0.009,0.613,0.009c20.92,0,28.398-26.358,28.471-26.628c0.163-0.585,0.758-0.923,1.35-0.767     c0.583,0.161,0.928,0.765,0.767,1.35C300.668,245.002,292.727,272.957,270.166,272.957z"/>
			<path style="fill:#241726;" d="M342.471,331.638c-0.294,0-0.587-0.118-0.803-0.349c-0.411-0.444-0.388-1.138,0.056-1.551     c23.131-21.552,9.22-42.667,8.617-43.556c-0.341-0.499-0.212-1.183,0.289-1.523c0.497-0.343,1.181-0.212,1.523,0.287     c0.159,0.234,15.604,23.532-8.935,46.4C343.007,331.541,342.739,331.638,342.471,331.638z"/>
			<path style="fill:#241726;" d="M209.186,338.22c-0.165,0-0.332-0.036-0.491-0.116c-22.452-11.227-16.005-40.426-15.936-40.72     c0.137-0.594,0.739-0.956,1.316-0.823c0.589,0.137,0.958,0.724,0.823,1.316c-0.064,0.276-6.119,27.815,14.779,38.264     c0.542,0.272,0.761,0.93,0.491,1.472C209.974,337.997,209.587,338.22,209.186,338.22z"/>
			<path style="fill:#241726;" d="M310.224,143.693c-0.424,0-0.829-0.249-1.009-0.664c-3.458-8.067-16.247-16.061-29.748-18.593     c-27.671-5.187-29.733-29.047-29.752-29.289c-0.043-0.602,0.409-1.127,1.013-1.172c0.602-0.045,1.129,0.407,1.176,1.011     c0.069,0.913,1.993,22.424,27.965,27.294c14.158,2.655,27.641,11.204,31.363,19.883c0.238,0.557-0.019,1.202-0.576,1.442     C310.515,143.665,310.369,143.693,310.224,143.693z"/>
			<path style="fill:#241726;" d="M214.03,143.127c-0.429,0-0.838-0.253-1.013-0.675c-8.729-20.948,9.822-34.013,10.01-34.144     c0.499-0.341,1.181-0.216,1.523,0.283c0.345,0.497,0.219,1.181-0.281,1.526c-0.707,0.489-17.265,12.206-9.226,31.492     c0.231,0.559-0.032,1.202-0.591,1.436C214.315,143.099,214.172,143.127,214.03,143.127z"/>
			<path style="fill:#241726;" d="M328.33,160.668c-0.116,0-0.231-0.017-0.347-0.056c-0.574-0.193-0.885-0.814-0.694-1.388     c7.711-23.133-19.137-39.563-34.41-45.018c-16.029-5.723-28.888-26.735-29.428-27.626c-0.313-0.519-0.148-1.193,0.371-1.506     c0.518-0.309,1.193-0.148,1.506,0.371c0.129,0.212,13.001,21.237,28.288,26.697c15.973,5.704,44.002,23.031,35.755,47.777     C329.217,160.377,328.789,160.668,328.33,160.668z"/>
			<path style="fill:#241726;" d="M344.74,145.957c-0.011,0-0.024,0-0.036,0c-0.606-0.021-1.08-0.527-1.061-1.133     c0.581-17.396-13.042-36.818-31.01-44.219c-19.23-7.917-32.494-21.619-32.627-21.756c-0.418-0.437-0.403-1.131,0.034-1.551     c0.437-0.42,1.131-0.403,1.551,0.034c0.129,0.133,13.091,13.509,31.877,21.246c18.758,7.724,32.976,28.07,32.368,46.318     C345.816,145.49,345.33,145.957,344.74,145.957z"/>
			<path style="fill:#241726;" d="M356.623,231.399c-0.221,0-0.444-0.066-0.638-0.204c-0.493-0.354-0.606-1.039-0.255-1.532     c5.052-7.073-0.347-15.422-12.986-31.502c-4.684-5.963-6.676-11.566-5.922-16.656c0.844-5.699,4.855-8.566,5.024-8.684     c0.499-0.349,1.176-0.225,1.526,0.266c0.347,0.495,0.229,1.178-0.264,1.528c-0.034,0.026-3.435,2.492-4.122,7.255     c-0.645,4.461,1.202,9.485,5.485,14.938c12.155,15.467,19.29,25.392,13.046,34.133     C357.302,231.241,356.964,231.399,356.623,231.399z"/>
			<path style="fill:#241726;" d="M333.989,236.492c-0.379,0-0.75-0.199-0.953-0.553c-0.3-0.525-0.118-1.196,0.409-1.498     c2.682-1.532,3.595-4.461,3.889-6.648c0.821-6.132-1.982-14.383-6.383-18.784c-7.071-7.068-6.025-20.661-5.976-21.237     c0.049-0.604,0.636-1.031,1.183-1.001c0.604,0.049,1.052,0.581,1.003,1.183c-0.011,0.131-1.005,13.16,5.341,19.504     c4.832,4.832,7.908,13.892,7.006,20.627c-0.514,3.839-2.235,6.698-4.975,8.264C334.362,236.445,334.175,236.492,333.989,236.492z     "/>
			<path style="fill:#241726;" d="M313.617,230.834c-0.191,0-0.381-0.049-0.557-0.152c-10.139-5.965-6.895-28.447-6.751-29.4     c0.09-0.602,0.658-1.018,1.247-0.921c0.598,0.09,1.011,0.647,0.921,1.247c-0.032,0.219-3.173,21.968,5.697,27.185     c0.521,0.306,0.696,0.979,0.388,1.502C314.359,230.641,313.992,230.834,313.617,230.834z"/>
			<path style="fill:#241726;" d="M226.189,235.102c-0.347,0-0.69-0.165-0.902-0.474c-5.23-7.553,2.32-24.492,2.644-25.21     c0.253-0.553,0.898-0.788,1.453-0.549c0.551,0.251,0.797,0.9,0.548,1.453c-0.075,0.163-7.368,16.519-2.841,23.058     c0.345,0.497,0.221,1.181-0.279,1.526C226.624,235.039,226.406,235.102,226.189,235.102z"/>
			<g>
				<path style="fill:#E47947;" d="M164.999,274.614c-1.692,1.41-3.132,2.141-7.802,4.136c-1.479-6.88-5.474-12.866-9.077-18.052      c-7.496-10.787-27.242,0.731-27.242,0.731s-9.361,7.1-9.971,13.093c-12.163,19.227-40.447,69.786-15.808,90.025      c10.856,8.917,76.79-38.761,81.178-38.395C176.276,326.153,166.035,282.525,164.999,274.614z"/>
			</g>
			<path style="fill:#241726;" d="M111.553,349.19c-0.195,0-0.39-0.051-0.568-0.159c-0.519-0.315-0.683-0.99-0.371-1.506     c0.219-0.362,21.865-36.162,23.997-46.817c0.12-0.598,0.726-0.981,1.29-0.861c0.596,0.118,0.981,0.696,0.861,1.29     c-2.207,11.032-23.371,46.04-24.271,47.525C112.286,349.001,111.924,349.19,111.553,349.19z"/>
			<path style="fill:#241726;" d="M134.59,268.012c-0.244,0-0.489-0.079-0.692-0.246c-0.469-0.381-0.542-1.071-0.159-1.543     c0.133-0.163,3.321-4.022,8.339-4.437c3.304-0.27,6.556,0.99,9.693,3.758c0.454,0.401,0.497,1.095,0.096,1.549     c-0.401,0.452-1.093,0.497-1.549,0.096c-2.668-2.355-5.384-3.452-8.058-3.216c-4.099,0.339-6.792,3.602-6.82,3.634     C135.224,267.872,134.909,268.012,134.59,268.012z"/>
			<path style="fill:#241726;" d="M137.881,276.239c-0.315,0-0.63-0.137-0.846-0.401c-0.386-0.467-0.319-1.157,0.15-1.543     c3.501-2.888,11.649-6.689,17.408-0.446c0.411,0.446,0.384,1.138-0.062,1.549c-0.441,0.414-1.138,0.386-1.549-0.062     c-5.813-6.293-14.055,0.366-14.405,0.651C138.374,276.158,138.127,276.239,137.881,276.239z"/>
			<path style="fill:#241726;" d="M140.623,288.306c-0.332,0-0.662-0.152-0.878-0.439c-0.362-0.484-0.264-1.172,0.221-1.536     c0.568-0.424,13.997-10.376,20.082-4.285c0.429,0.428,0.429,1.123,0,1.551c-0.429,0.429-1.123,0.429-1.551,0     c-3.953-3.953-13.766,1.903-17.216,4.491C141.084,288.235,140.853,288.306,140.623,288.306z"/>
			<path style="fill:#241726;" d="M411.034,305.31c-0.21,0-0.422-0.06-0.608-0.184c-0.504-0.336-0.641-1.018-0.304-1.521     c3.01-4.519,25.019-14.612,27.517-15.748c0.553-0.246,1.202-0.009,1.453,0.544c0.251,0.553,0.006,1.202-0.544,1.453     c-9.588,4.358-24.582,11.941-26.6,14.968C411.735,305.138,411.387,305.31,411.034,305.31z"/>
			<path style="fill:#241726;" d="M378.124,365.278c-0.606,0-1.097-0.491-1.097-1.097c0-0.604,0.491-1.097,1.097-1.097     c0.122,0,12.339-0.105,18.148-7.617c0.373-0.482,1.063-0.566,1.538-0.197c0.48,0.371,0.568,1.058,0.197,1.538     C391.534,365.182,378.668,365.278,378.124,365.278z"/>
			<path style="fill:#241726;" d="M381.781,371.86c-0.606,0-1.097-0.491-1.097-1.097c0-0.604,0.491-1.097,1.097-1.097     c0.139,0,14.027-0.099,18.051-7.471c0.289-0.534,0.956-0.731,1.487-0.437c0.531,0.289,0.728,0.956,0.437,1.487     C397.111,371.762,382.405,371.86,381.781,371.86z"/>
			<g>
				<path style="fill:#241726;" d="M362.237,255.654c-0.462,0.079-0.94-0.146-1.163-0.585c-0.724-1.425-1.562-2.232-2.493-2.399      c-1.366-0.246-2.653,0.906-2.665,0.917c-0.441,0.41-1.139,0.384-1.55-0.062c-0.411-0.445-0.384-1.139,0.061-1.55      c0.085-0.077,2.087-1.902,4.54-1.464c1.644,0.295,3.01,1.494,4.062,3.565c0.275,0.54,0.06,1.201-0.482,1.475      C362.447,255.601,362.342,255.636,362.237,255.654z"/>
				<path style="fill:#241726;" d="M351.648,263.064c-0.462,0.079-0.94-0.146-1.163-0.585c-0.724-1.425-1.562-2.232-2.493-2.399      c-1.366-0.247-2.654,0.905-2.665,0.917c-0.443,0.408-1.139,0.384-1.55-0.062c-0.411-0.445-0.384-1.139,0.061-1.55      c0.085-0.078,2.092-1.902,4.54-1.464c1.644,0.295,3.01,1.494,4.062,3.565c0.275,0.54,0.06,1.201-0.482,1.475      C351.858,263.011,351.753,263.046,351.648,263.064z"/>
				<path style="fill:#241726;" d="M363.791,264.4c-0.462,0.079-0.94-0.146-1.163-0.585c-0.724-1.425-1.562-2.232-2.493-2.399      c-1.363-0.244-2.653,0.906-2.664,0.918c-0.441,0.41-1.139,0.384-1.55-0.062c-0.411-0.445-0.384-1.139,0.061-1.55      c0.085-0.076,2.098-1.904,4.54-1.465c1.644,0.295,3.01,1.494,4.062,3.565c0.275,0.54,0.06,1.201-0.482,1.475      C364.001,264.348,363.896,264.382,363.791,264.4z"/>
				<path style="fill:#241726;" d="M384.662,261.833c-0.462,0.079-0.94-0.146-1.163-0.585c-0.724-1.425-1.562-2.232-2.491-2.399      c-1.374-0.242-2.656,0.906-2.667,0.917c-0.443,0.409-1.138,0.385-1.55-0.062c-0.411-0.445-0.384-1.14,0.061-1.55      c0.085-0.078,2.096-1.904,4.542-1.464c1.644,0.296,3.01,1.495,4.06,3.566c0.275,0.541,0.058,1.201-0.482,1.475      C384.873,261.78,384.768,261.815,384.662,261.833z"/>
				<path style="fill:#241726;" d="M375.519,256.304c-0.462,0.079-0.94-0.146-1.163-0.585c-0.724-1.425-1.562-2.231-2.493-2.398      c-1.364-0.248-2.654,0.905-2.665,0.917c-0.443,0.409-1.139,0.384-1.55-0.062c-0.411-0.445-0.384-1.139,0.061-1.55      c0.085-0.078,2.1-1.906,4.54-1.464c1.644,0.295,3.01,1.493,4.062,3.564c0.275,0.54,0.06,1.201-0.48,1.474      C375.729,256.251,375.624,256.286,375.519,256.304z"/>
				<path style="fill:#241726;" d="M375.975,264.787c-0.467,0.08-0.947-0.15-1.169-0.594c-0.975-1.974-2.049-3.108-3.102-3.278      c-0.975-0.159-1.743,0.571-1.753,0.579c-0.425,0.427-1.119,0.435-1.551,0.006c-0.43-0.427-0.433-1.121-0.005-1.552      c0.061-0.063,1.546-1.545,3.66-1.198c1.809,0.294,3.397,1.798,4.719,4.47c0.267,0.543,0.045,1.202-0.498,1.47      C376.18,264.737,376.077,264.77,375.975,264.787z"/>
				<path style="fill:#241726;" d="M340.408,254.878c-0.268,0.046-0.556-0.007-0.799-0.172c-0.502-0.34-0.634-1.022-0.296-1.523      c0.073-0.108,1.784-2.607,4.59-3.053c1.604-0.24,3.185,0.256,4.694,1.476c0.472,0.381,0.546,1.072,0.164,1.544      c-0.38,0.469-1.072,0.543-1.541,0.164c-1.027-0.83-2.005-1.161-2.993-1.014c-1.824,0.331-3.081,2.094-3.095,2.111      C340.957,254.669,340.693,254.829,340.408,254.878z"/>
			</g>
			<g>
				<path style="fill:#241726;" d="M203.168,260.466c-0.444,0.152-0.951,0.006-1.241-0.392c-0.942-1.291-1.898-1.955-2.844-1.971      c-1.387-0.025-2.475,1.318-2.484,1.33c-0.37,0.475-1.063,0.561-1.54,0.186c-0.477-0.374-0.561-1.063-0.187-1.54      c0.071-0.09,1.757-2.21,4.249-2.169c1.67,0.029,3.21,0.995,4.579,2.872c0.358,0.489,0.25,1.176-0.241,1.533      C203.368,260.38,203.27,260.431,203.168,260.466z"/>
				<path style="fill:#241726;" d="M193.896,269.469c-0.444,0.152-0.951,0.006-1.241-0.392c-0.942-1.291-1.898-1.955-2.844-1.971      c-1.388-0.026-2.475,1.317-2.484,1.33c-0.372,0.474-1.063,0.561-1.54,0.186c-0.477-0.374-0.561-1.063-0.187-1.54      c0.071-0.09,1.762-2.212,4.249-2.169c1.67,0.029,3.21,0.995,4.579,2.872c0.358,0.489,0.25,1.176-0.241,1.533      C194.095,269.384,193.997,269.434,193.896,269.469z"/>
				<path style="fill:#241726;" d="M206.096,268.853c-0.444,0.152-0.951,0.006-1.241-0.392c-0.942-1.291-1.898-1.955-2.844-1.971      c-1.385-0.023-2.475,1.318-2.484,1.331c-0.37,0.475-1.063,0.561-1.54,0.186c-0.477-0.374-0.561-1.063-0.187-1.54      c0.071-0.089,1.768-2.214,4.249-2.17c1.67,0.029,3.21,0.995,4.579,2.872c0.358,0.489,0.25,1.176-0.241,1.533      C206.296,268.767,206.198,268.818,206.096,268.853z"/>
				<path style="fill:#241726;" d="M226.292,262.991c-0.444,0.152-0.951,0.006-1.241-0.392c-0.942-1.291-1.898-1.955-2.842-1.972      c-1.395-0.02-2.477,1.317-2.486,1.331c-0.372,0.475-1.062,0.562-1.54,0.186c-0.477-0.374-0.561-1.064-0.187-1.54      c0.071-0.09,1.765-2.214,4.251-2.17c1.67,0.03,3.21,0.996,4.577,2.873c0.358,0.49,0.248,1.176-0.241,1.533      C226.492,262.906,226.394,262.956,226.292,262.991z"/>
				<path style="fill:#241726;" d="M216.384,258.99c-0.444,0.152-0.951,0.006-1.241-0.392c-0.942-1.291-1.898-1.954-2.843-1.97      c-1.386-0.027-2.475,1.317-2.484,1.33c-0.372,0.475-1.063,0.561-1.54,0.186c-0.477-0.374-0.561-1.063-0.187-1.54      c0.071-0.09,1.769-2.216,4.249-2.169c1.67,0.029,3.209,0.994,4.578,2.871c0.358,0.489,0.25,1.176-0.239,1.532      C216.584,258.905,216.486,258.956,216.384,258.99z"/>
				<path style="fill:#241726;" d="M218.187,267.292c-0.448,0.153-0.959,0.003-1.249-0.4c-1.277-1.794-2.518-2.741-3.585-2.742      c-0.988-0.002-1.63,0.842-1.638,0.851c-0.351,0.489-1.035,0.608-1.53,0.253c-0.492-0.354-0.606-1.038-0.252-1.532      c0.05-0.072,1.28-1.772,3.422-1.766c1.832,0.002,3.64,1.233,5.371,3.661c0.35,0.494,0.236,1.179-0.258,1.531      C218.381,267.21,218.285,267.259,218.187,267.292z"/>
				<path style="fill:#241726;" d="M181.495,263.179c-0.257,0.088-0.55,0.082-0.816-0.042c-0.549-0.256-0.788-0.908-0.535-1.457      c0.055-0.118,1.346-2.858,4.045-3.746c1.546-0.493,3.185-0.255,4.869,0.709c0.526,0.301,0.71,0.971,0.408,1.498      c-0.301,0.524-0.972,0.707-1.496,0.407c-1.146-0.655-2.165-0.827-3.116-0.524c-1.748,0.617-2.707,2.558-2.719,2.578      C182.003,262.885,181.769,263.086,181.495,263.179z"/>
			</g>
			<path style="fill:#1A1F36;" d="M137.332,257.042c0,0-11.518,1.097-16.455,4.388c0,0-7.131-9.873-5.485-10.97     s17.004-7.679,18.101-5.485S137.332,257.042,137.332,257.042z"/>
			<path style="fill:#E17B8D;" d="M232.223,281.176c0,0,82.275-7.13,85.566-2.742c3.291,4.388,18.649,33.458,19.746,40.04     c1.097,6.582,0.548,59.786,0.548,59.786s-114.636,4.936-116.83,0.549c-2.194-4.388-7.679-47.171-5.485-52.656     C217.962,320.668,232.223,281.176,232.223,281.176z"/>
			<path style="fill:#FBFCFF;" d="M232.223,282.273c-0.332,0-0.662-0.152-0.878-0.439c-3.45-4.6,5.648-35.432,7.508-41.564     c0.176-0.581,0.791-0.906,1.367-0.733c0.581,0.176,0.908,0.788,0.733,1.367c-4.489,14.812-9.89,36.895-7.85,39.614     c0.362,0.484,0.264,1.172-0.221,1.536C232.684,282.202,232.452,282.273,232.223,282.273z"/>
			<path style="fill:#FBFCFF;" d="M319.985,280.627c-0.032,0-0.062-0.002-0.094-0.004c-0.602-0.049-1.052-0.581-1.001-1.185     c1.056-12.68-12.89-38.065-13.031-38.32c-0.294-0.531-0.101-1.198,0.429-1.491c0.533-0.289,1.198-0.103,1.491,0.429     c0.589,1.065,14.409,26.225,13.297,39.567C321.029,280.194,320.549,280.627,319.985,280.627z"/>
			<path style="fill:#241726;" d="M331.501,378.26c-0.583,0-1.067-0.456-1.095-1.043c-1.052-21.644-3.141-56.896-4.277-59.352     c-0.216-0.435-0.645-1.356-1.234-2.631c-12.695-27.369-17.188-31.714-18.735-31.871c-5.601-0.559-61.141,1.172-64.485,3.055     c-2.55,2.569-21.331,39.179-19.913,44.381c1.652,6.059,4.836,41.997,4.971,43.524c0.054,0.604-0.392,1.136-0.996,1.189     c-0.611,0.039-1.138-0.394-1.189-0.996c-0.032-0.373-3.302-37.268-4.902-43.139c-1.918-7.034,18.9-44.913,20.577-46.59     c2.88-2.88,62.257-4.004,66.156-3.606c3.777,0.377,9.909,10.284,20.507,33.129c0.576,1.247,0.994,2.149,1.208,2.575     c1.665,3.33,4.043,50.751,4.502,60.224c0.03,0.606-0.437,1.121-1.041,1.148C331.536,378.26,331.519,378.26,331.501,378.26z"/>
			<path style="fill:#B1739A;" d="M312.838,379.357c-11.261-22.105-33.926-9.647-44.147-2.406     c-42.047-6.595-154.579,1.126-154.579,1.126c-2.406-0.073-4.648-0.062-6.754,0.016c-9.258-6.905-33.837-22.061-45.719,1.263     c-6.027,11.83,13.655,25.203,30.167,29.235c16.492,17.286,53.834,35.331,94.709,34.574c46.183-0.855,77.584-17.462,91.924-33.74     C295.549,406.906,319.391,392.22,312.838,379.357z M71.512,382.648c3.923-11.411,13.766-6.825,20.545-1.918     c-7.683,2.96-10.243,8.108-8.749,14.229C76.154,391.044,70.191,386.494,71.512,382.648z M285.901,397.664     c2.66-7.006,1.566-13.098-3.581-16.661c-0.28-0.194-0.594-0.382-0.93-0.566c5.946-5.3,15.117-10.348,21.576,2.212     C305.306,387.2,295.366,393.182,285.901,397.664z"/>
			<path style="fill:#1A1F36;" d="M137.881,295.985c0,0,12.433-10.604,15.358-5.485c2.925,5.119,16.089,41.137,16.089,41.137     s20.477-1.463,23.403,5.119c2.925,6.582,20.477,40.955,17.552,43.149c-2.925,2.194-48.999,20.477-52.656,18.283     c-3.657-2.194-13.164-36.567-14.627-40.223c-1.463-3.657,10.604-12.616,11.336-19.198     C155.067,332.186,136.418,298.91,137.881,295.985z"/>
			<g>
				<path style="fill:#52AFA6;" d="M211.994,403.932c0,0,4.166-1.037,6.333,3.605s2.574,14.4,7.756,7.801      c5.182-6.599,1.378-10.202,1.378-10.202s6.004,5.33,6.455-0.47c0.452-5.8-3.355-6.875-3.355-6.875s5.413,0.422,3.071-6.958      c-2.343-7.379-6.928-3.457-6.928-3.457s7.379-2.343,0.66-5.978c-6.719-3.636-5.81,9.662-10.54,10.461      c-4.73,0.799-7.882-1.197-8.866,1.449C206.975,395.955,203.425,406.571,211.994,403.932z"/>
				<path style="fill:#241726;" d="M221.322,404.037c-0.24,0-0.482-0.077-0.683-0.238c-3.113-2.479-6.533-4.579-7.4-4.474      c-0.57,0.186-1.174-0.135-1.363-0.709c-0.186-0.576,0.148-1.2,0.724-1.386c2.07-0.683,6.775,2.755,9.406,4.851      c0.474,0.379,0.553,1.069,0.176,1.543C221.962,403.896,221.643,404.037,221.322,404.037z"/>
				<path style="fill:#241726;" d="M215.468,396.776c-0.581,0-1.131-0.077-1.639-0.251c-0.572-0.195-0.878-0.818-0.681-1.393      c0.195-0.572,0.816-0.881,1.393-0.681c2.173,0.741,6.906-1.682,9.382-3.383c0.497-0.349,1.185-0.212,1.526,0.283      c0.343,0.499,0.216,1.181-0.283,1.526C224.514,393.325,219.372,396.776,215.468,396.776z"/>
			</g>
			<g>
				<path style="fill:#52AFA6;" d="M188.964,418.299c0,0-1.962-3.818,2.062-6.989s13.429-5.799,5.82-9.335      s-10.247,0.992-10.247,0.992s3.816-7.064-1.934-6.177c-5.75,0.887-5.925,4.838-5.925,4.838s-0.828-5.366-7.476-1.398      s-1.781,7.535-1.781,7.535s-3.968-6.648-5.971,0.725c-2.002,7.373,10.735,3.446,12.594,7.869s0.637,7.947,3.438,8.299      C182.346,425.01,193.493,426.038,188.964,418.299z"/>
				<path style="fill:#241726;" d="M183.261,419.785c-0.379,0-0.752-0.197-0.96-0.542c-1.116-1.845,1.131-7.225,2.571-10.267      c0.261-0.551,0.917-0.776,1.461-0.523c0.546,0.259,0.782,0.913,0.523,1.461c-1.701,3.595-2.944,7.441-2.661,8.228      c0.313,0.518,0.139,1.176-0.379,1.489C183.642,419.736,183.451,419.785,183.261,419.785z"/>
				<path style="fill:#241726;" d="M180.246,419.196c-0.036,0-0.073-0.002-0.109-0.004c-0.604-0.06-1.043-0.598-0.986-1.2      c0.227-2.284-3.216-6.342-5.438-8.362c-0.448-0.407-0.482-1.101-0.075-1.549c0.411-0.448,1.103-0.48,1.549-0.075      c0.673,0.611,6.554,6.083,6.149,10.201C181.279,418.774,180.803,419.196,180.246,419.196z"/>
			</g>
			<g>
				<path style="fill:#52AFA6;" d="M150.881,400.456c0,0-4.293,0.002-5.276-5.026c-0.983-5.028,0.975-14.596-5.646-9.441      c-6.621,5.154-3.798,9.568-3.798,9.568s-4.541-6.621-6.378-1.101c-1.837,5.52,1.598,7.481,1.598,7.481s-5.152-1.715-4.658,6.012      c0.494,7.727,5.889,5.026,5.889,5.026s-7.727,0.494-2.082,5.643c5.644,5.149,7.968-7.976,12.752-7.61s7.36,3.063,8.954,0.732      C153.829,409.408,159.834,399.961,150.881,400.456z"/>
				<path style="fill:#241726;" d="M148.57,406.816c-2.164,0-5.834-4.354-7.85-6.978c-0.369-0.48-0.279-1.17,0.201-1.538      c0.478-0.366,1.168-0.281,1.538,0.201c2.423,3.154,5.275,6.016,6.102,6.124c0.587-0.056,1.11,0.416,1.153,1.02      c0.041,0.604-0.433,1.127-1.039,1.17C148.641,406.816,148.605,406.816,148.57,406.816z"/>
				<path style="fill:#241726;" d="M135.818,410.133c-0.444,0-0.861-0.272-1.026-0.711c-0.214-0.568,0.073-1.2,0.641-1.412      c0.848-0.321,8.403-3.053,11.883-0.808c0.508,0.328,0.656,1.007,0.326,1.517c-0.33,0.51-1.009,0.656-1.517,0.326      c-1.928-1.241-7.107-0.034-9.92,1.018C136.077,410.112,135.946,410.133,135.818,410.133z"/>
			</g>
			<path style="fill:#DF4F3E;" d="M130.126,444.252c0,0,2.845-17.43,14.382-22.892c11.537-5.462-0.307,9.336,6.385,13.06     s11.844-14.797,20.844-12.165c9,2.632,7.918,24.014,16.757,20.021c8.839-3.993,2.684-24.055,13.837-17.847     c11.154,6.208,4.231,9.485,12.096,12.08c7.865,2.595,5.19-19.689,13.998-11.222c8.808,8.467,17.309,26.27,9.252,29.51     C229.621,458.036,115.744,467.143,130.126,444.252z"/>
			<path style="fill:#E8B500;" d="M223.995,456.147c0,0-1.646-9.873-9.325-12.067c-2.689-0.768-9.324,13.164-14.261,8.776     c-4.936-4.388-2.194-10.97-7.679-11.518s-2.742,7.679-13.164,10.421c-10.421,2.743-14.809-11.518-20.294-10.97     c-5.485,0.548-6.582,15.906-1.097,19.197C163.66,463.278,204.798,466.02,223.995,456.147z"/>
		</g>
	</g>
</g>















</svg>
