<?xml version="1.0" encoding="UTF-8"?>
<!-- Generator: Adobe Illustrator 26.4.1, SVG Export Plug-In . SVG Version: 6.00 Build 0)  -->
<svg xmlns="http://www.w3.org/2000/svg" xmlns:xlink="http://www.w3.org/1999/xlink" version="1.1" id="Capa_1" x="0px" y="0px" viewBox="0 0 492.641 492.641" style="enable-background:new 0 0 492.641 492.641;" xml:space="preserve" width="512" height="512">
<g>
	<g>
		<path style="fill:#FFFFFF;" d="M23.91,114.664c0,0-2.004-16.913,14.176-11.238s10.683,21.064,4.556,15.694    s5.732-23.16,18.064-15.009s9.348,23.617,0.512,24.645s5.576-17.98,16.533-5.981c10.957,11.998-13.586,33.293-23.404,25.218    c-9.818-8.075-1.886-20.798,0.392-12.951c2.278,7.847-4.24,15.427-21.834,14.895s-9.23-27.502-3.182-19.541    s-4.28,16.723-16.572,7.276C0.858,128.225,15.27,109.217,23.91,114.664z"/>
		<path style="fill:#241726;" d="M34.63,151.09c-0.575,0-1.16-0.009-1.759-0.026c-5.768-0.175-9.789-3.183-11.152-8.294    c-3.03-0.423-6.212-1.866-9.255-4.204c-4.783-3.675-6.371-9.18-4.358-15.104c2.075-6.106,7.544-10.888,12.453-10.888    c0.742,0,1.457,0.103,2.142,0.309c0.01-2.338,0.419-6.305,2.806-8.99c2.698-3.036,7.105-3.582,12.952-1.531    c2.245,0.787,4.208,1.797,5.85,3.009c2.791-2.867,6.325-4.492,9.836-4.492c2.467,0,4.883,0.771,7.183,2.291    c5.329,3.522,8.523,8.875,8.717,14.501c3.116,0.134,6.059,1.629,8.538,4.343c3.384,3.705,3.975,8.63,1.665,13.867    c-3.527,8.001-13.128,15.019-20.547,15.02c0,0-0.001,0-0.002,0c-2.382,0-4.424-0.686-6.068-2.039    c-0.768-0.632-1.461-1.312-2.069-2.034C47.767,149.621,41.95,151.09,34.63,151.09z M24.107,142.889    c0.968,2.857,3.315,5.753,8.832,5.92c0.576,0.018,1.138,0.026,1.691,0.026c8.417,0,13.083-1.965,15.618-3.839    c-2.407-4.015-2.176-8.379-0.786-11.073c0.81-1.57,1.975-2.47,3.195-2.47c0.827,0,2.337,0.426,3.163,3.275    c1.141,3.931,0.208,7.746-2.559,10.621c0.526,0.627,1.129,1.221,1.801,1.773c1.232,1.013,2.791,1.526,4.638,1.526c0,0,0,0,0.001,0    c6.518-0.001,15.33-6.518,18.484-13.675c1.364-3.092,2.25-7.586-1.267-11.436c-2.09-2.289-4.429-3.504-6.959-3.613    c-0.601,5.391-4.032,9.42-8.612,9.953c-2.952,0.348-3.948-1.206-3.997-2.645c-0.107-3.19,4.539-8.489,10.442-9.427    c-0.15-4.915-2.979-9.626-7.709-12.754c-4.651-3.072-10.044-2.248-14.052,1.783c3.769,3.684,4.439,8.172,3.353,11.151    c-0.759,2.085-2.363,3.381-4.186,3.381h-0.001c-1.114,0-2.254-0.483-3.299-1.399c-3.381-2.964-2.201-8.651,0.942-12.876    c-1.435-1.037-3.156-1.91-5.129-2.602c-4.904-1.719-8.436-1.438-10.516,0.896c-2.824,3.171-2.174,9.089-2.167,9.148    c0.05,0.43-0.152,0.853-0.518,1.084c-0.365,0.231-0.832,0.233-1.202,0c-0.831-0.524-1.757-0.789-2.75-0.789    c-3.936,0-8.566,4.198-10.319,9.359c-1.683,4.952-0.372,9.541,3.597,12.591c2.481,1.906,5.031,3.146,7.456,3.633    c-0.438-4.35,0.939-8.58,2.711-10.751c0.995-1.218,2.146-1.861,3.333-1.861c0.834,0,2.08,0.331,3.282,1.913    c2.136,2.812,2.599,5.96,1.27,8.639C30.544,141.064,27.659,142.736,24.107,142.889z M52.657,133.707    c-0.211,0-0.722,0.34-1.192,1.249c-1.018,1.972-1.216,5.33,0.491,8.483c1.969-2.249,2.575-5.074,1.701-8.084    C53.308,134.155,52.859,133.707,52.657,133.707z M27.338,130.054c-0.48,0-1.042,0.367-1.586,1.032    c-1.512,1.851-2.654,5.814-2.16,9.561c2.911-0.007,5.257-1.238,6.278-3.297c0.935-1.883,0.554-4.17-1.045-6.274    C28.47,130.61,27.924,130.054,27.338,130.054z M67.662,120.122c-4.682,0.998-8.114,5.337-8.057,7.032    c0.008,0.205,0.018,0.515,0.959,0.515c0.162,0,0.337-0.011,0.525-0.033C64.476,127.242,67.051,124.228,67.662,120.122z     M44.564,108.549c-2.713,3.677-3.278,7.882-1.178,9.723c1.595,1.397,3.169,0.9,3.882-1.06    C48.091,114.957,47.524,111.507,44.564,108.549z"/>
	</g>
	<g>
		<path style="fill:#FFFFFF;" d="M321.473,50.041c0,0-2.004-16.913,14.176-11.238c16.18,5.675,10.683,21.064,4.556,15.694    s5.732-23.16,18.064-15.009s9.348,23.617,0.512,24.645c-8.836,1.029,5.576-17.98,16.533-5.981    c10.957,11.998-13.586,33.293-23.404,25.218c-9.818-8.075-1.886-20.798,0.392-12.951s-4.24,15.427-21.834,14.895    c-17.594-0.532-9.23-27.502-3.182-19.541s-4.28,16.723-16.572,7.276C298.421,63.603,312.833,44.595,321.473,50.041z"/>
		<path style="fill:#241726;" d="M332.189,86.468c-0.573,0-1.158-0.009-1.756-0.026c-5.768-0.175-9.789-3.183-11.154-8.295    c-3.03-0.424-6.211-1.866-9.254-4.204c-4.783-3.675-6.371-9.181-4.359-15.104c2.075-6.105,7.545-10.887,12.453-10.887    c0.742,0,1.458,0.103,2.143,0.309c0.01-2.339,0.419-6.305,2.806-8.991c2.697-3.038,7.101-3.585,12.952-1.53    c2.244,0.787,4.208,1.797,5.85,3.009c2.791-2.867,6.325-4.492,9.836-4.492c2.466,0,4.883,0.771,7.183,2.291    c5.329,3.522,8.523,8.875,8.717,14.5c3.116,0.134,6.059,1.629,8.538,4.343c3.384,3.705,3.975,8.631,1.665,13.869    c-3.528,8-13.129,15.018-20.547,15.019c0,0-0.001,0-0.002,0c-2.382,0-4.424-0.686-6.068-2.039    c-0.768-0.632-1.461-1.313-2.069-2.034C345.33,84.998,339.51,86.468,332.189,86.468z M321.67,78.266    c0.966,2.857,3.314,5.755,8.832,5.921c0.575,0.018,1.137,0.026,1.687,0.026c8.419,0,13.086-1.966,15.621-3.839    c-2.408-4.015-2.176-8.379-0.786-11.073c0.81-1.57,1.975-2.47,3.195-2.47c0.827,0,2.337,0.426,3.163,3.275    c1.141,3.931,0.208,7.746-2.559,10.621c0.526,0.626,1.129,1.221,1.801,1.773c1.232,1.013,2.791,1.526,4.637,1.526    c0.001,0,0.001,0,0.002,0c6.518-0.001,15.33-6.518,18.484-13.675c1.364-3.092,2.251-7.586-1.267-11.438    c-2.09-2.289-4.429-3.502-6.959-3.611c-0.601,5.391-4.032,9.419-8.612,9.952c-2.937,0.342-3.948-1.205-3.997-2.644    c-0.108-3.19,4.538-8.489,10.442-9.427c-0.15-4.916-2.979-9.627-7.709-12.754c-4.652-3.073-10.045-2.249-14.052,1.783    c3.769,3.684,4.439,8.172,3.353,11.151c-0.759,2.085-2.363,3.381-4.186,3.381h-0.001c-1.114,0-2.254-0.483-3.299-1.399    c-3.381-2.964-2.201-8.652,0.942-12.876c-1.435-1.037-3.156-1.91-5.129-2.602c-4.908-1.719-8.438-1.439-10.516,0.896    c-2.824,3.171-2.174,9.089-2.167,9.148c0.05,0.43-0.152,0.853-0.518,1.084c-0.365,0.231-0.832,0.233-1.202,0    c-0.831-0.524-1.757-0.789-2.751-0.789c-3.936,0-8.565,4.198-10.318,9.358c-1.683,4.952-0.372,9.541,3.597,12.591    c2.481,1.906,5.03,3.146,7.456,3.633c-0.438-4.35,0.939-8.579,2.711-10.751c0.994-1.217,2.146-1.861,3.333-1.861    c0.834,0,2.08,0.332,3.282,1.915c2.136,2.81,2.599,5.959,1.27,8.637C328.128,76.4,325.176,78.107,321.67,78.266z M350.22,69.085    c-0.211,0-0.723,0.34-1.192,1.25c-1.018,1.971-1.216,5.329,0.491,8.482c1.969-2.249,2.575-5.074,1.701-8.084    C350.871,69.533,350.422,69.085,350.22,69.085z M324.9,65.431c-0.48,0-1.043,0.368-1.587,1.034    c-1.511,1.851-2.653,5.814-2.159,9.56c2.911-0.007,5.257-1.238,6.278-3.297c0.935-1.882,0.554-4.168-1.045-6.272    C326.033,65.988,325.487,65.431,324.9,65.431z M365.225,55.499c-4.682,0.999-8.114,5.337-8.057,7.034    c0.007,0.205,0.018,0.514,0.958,0.514c0.162,0,0.338-0.011,0.526-0.033C362.038,62.62,364.614,59.606,365.225,55.499z     M342.125,43.927c-2.712,3.677-3.277,7.881-1.177,9.723c1.595,1.396,3.167,0.899,3.882-1.059    C345.653,50.335,345.086,46.885,342.125,43.927z"/>
	</g>
	<path style="fill:#241726;" d="M360.274,226.336c-0.51,0-0.957-0.295-1.198-0.79c-0.696-1.432-2.44-5.116-4.285-9.249   c-1.068,0.03-2.107,0.045-3.095,0.045c-7.585,0-8.7-0.868-9.148-1.682c-0.276-0.499-0.25-1.076,0.07-1.584   c0.861-1.368,4.971-4.99,7.73-7.347c-3.782-9.775-3.502-12.203-1.818-12.9c0.331-0.139,0.708-0.11,1.018,0.079   c0.045,0.026,4.299,2.625,9.288,5.865c8.504-6.688,9.622-6.688,10.106-6.688c0.612,0,1.278,0.627,1.294,1.238   c0.028,1.086-1.436,7.428-2.428,11.513c7.412,5.286,8.036,6.72,8.024,7.73c-0.005,0.51-0.251,0.964-0.674,1.249   c-1.274,0.856-6.069,1.473-10.164,1.856C362.016,226.336,361.245,226.336,360.274,226.336z M357.222,216.207   c1.2,2.67,2.328,5.09,3.112,6.743c0.456-1.149,1.176-3.248,2.262-7.073C360.806,216.016,358.989,216.129,357.222,216.207z    M345.053,213.633c0.845,0.197,2.702,0.453,6.643,0.453c0.681,0,1.387-0.008,2.11-0.022c-0.959-2.195-1.823-4.243-2.581-6.119   C347.89,210.814,345.945,212.663,345.053,213.633z M353.036,206.404c0.906,2.272,1.979,4.818,3.2,7.588   c2.286-0.088,4.678-0.234,7.003-0.428c0.687-2.517,1.379-5.203,2.014-7.773c-1.834-1.282-3.944-2.707-6.289-4.244   C356.994,203.114,354.969,204.775,353.036,206.404z M367.227,207.194c-0.511,2.044-1.052,4.14-1.594,6.15   c4.066-0.407,6.52-0.85,7.63-1.162C372.7,211.509,371.203,210.07,367.227,207.194z M349.606,195.589   c0.107,1.113,0.635,3.512,2.566,8.597c1.576-1.321,3.202-2.654,4.801-3.935C353.868,198.242,351.118,196.525,349.606,195.589z    M360.829,200.075c1.819,1.199,3.491,2.326,4.997,3.368c0.937-3.89,1.559-6.736,1.884-8.406   C366.482,195.826,364.298,197.365,360.829,200.075z"/>
	<path style="fill:#241726;" d="M20.565,434.354c-0.064,0-0.225-0.013-0.287-0.024c-0.354-0.061-0.659-0.287-0.819-0.61   c-0.023-0.047-2.236-4.515-4.726-9.916c-4.128,0.427-7.469,0.662-9.467,0.662c-1.769,0-2.685-0.13-3.103-0.865   c-0.2-0.352-0.186-0.92,0.021-1.269c0.557-0.935,5.178-5.516,8.197-8.442c-3.45-8.425-3.211-9.971-2.663-10.82   c0.276-0.427,0.728-0.681,1.236-0.697c0.001,0,0.001,0,0.001,0c1.694,0,6.462,2.271,9.585,3.854c7.41-6.703,8.38-6.703,8.965-6.703   c0.32,0,0.773,0.19,0.986,0.429c0.147,0.164,0.384,0.523,0.323,1.081c-0.175,1.574-0.663,5.614-1.31,10.109   c9.577,5.671,9.513,7.165,9.484,7.89c-0.024,0.572-0.363,1.069-0.907,1.329c-1.458,0.697-6.867,1.567-10.458,2.088   C23.47,433.42,21.944,434.354,20.565,434.354z M17.097,423.546c1.555,3.355,2.965,6.275,3.745,7.875   c0.503-0.999,1.336-3.311,2.417-8.641C21.221,423.056,19.134,423.316,17.097,423.546z M5.251,422.211c0.004,0,0.009,0,0.014,0   c1.803,0,4.777-0.201,8.478-0.572c-0.899-1.985-1.712-3.829-2.429-5.515C8.458,418.901,6.421,420.971,5.251,422.211z    M13.05,414.444c0.867,2.063,1.892,4.392,3.054,6.944c2.504-0.276,5.104-0.599,7.606-0.947c0.446-2.404,0.896-5.129,1.342-8.124   c-1.979-1.144-4.081-2.296-6.151-3.373C16.978,410.707,14.96,412.609,13.05,414.444z M27.146,413.554   c-0.36,2.367-0.722,4.559-1.082,6.551c4.36-0.648,6.992-1.173,8.262-1.519C33.495,417.751,31.405,416.121,27.146,413.554z    M9.686,404.766c0.118,0.87,0.618,2.885,2.444,7.439c1.523-1.457,3.099-2.941,4.63-4.352   C13.108,406.031,10.794,405.095,9.686,404.766z M20.681,407.332c1.587,0.837,3.183,1.711,4.72,2.588   c0.438-3.093,0.769-5.742,0.968-7.38C25.396,403.261,23.666,404.652,20.681,407.332z"/>
	<g>
		<path style="fill:#241726;" d="M106.996,184.393c-0.269,0-0.537-0.095-0.753-0.288c-0.463-0.416-0.502-1.128-0.086-1.592    c0.602-0.739,4.236-6.514,5.875-9.519c-2.483,0.887-7.018,2.774-11.126,4.59c-0.573,0.25-1.235-0.007-1.487-0.576    c-0.251-0.569,0.007-1.235,0.576-1.487c14.056-6.214,14.343-5.699,14.912-4.67c0.936,1.685-6.983,13.069-7.072,13.168    C107.613,184.266,107.305,184.393,106.996,184.393z"/>
		<path style="fill:#E17B8D;" d="M90.27,188.207c0,0-2.525-17.419,7.1-16.168c13.333,1.734,25.742,32.577,3.733,44.434    C79.095,228.33,66.607,210.8,66.607,210.8l11.999-5.524c0,0-10.725-6.269-11.266-13.124s7.737-2.444,7.737-2.444    s-11.45-13.678-4.701-15.56C77.124,172.266,90.27,188.207,90.27,188.207z"/>
		<path style="fill:#241726;" d="M99.881,184.04c-2.295,0-4.98-2.655-5.811-3.54c-0.426-0.455-0.403-1.167,0.051-1.593    c0.457-0.427,1.17-0.403,1.593,0.05c1.238,1.316,3.028,2.651,3.944,2.818c-0.181-0.921-1.282-3.052-2.558-4.889    c-0.356-0.511-0.229-1.213,0.283-1.569c0.513-0.357,1.212-0.23,1.569,0.283c1.342,1.931,3.497,5.438,2.856,7.222    c-0.201,0.561-0.631,0.96-1.21,1.123C100.366,184.009,100.126,184.04,99.881,184.04z"/>
		<path style="fill:#241726;" d="M82.348,204.409c-0.178,0-0.359-0.042-0.526-0.131c-0.79-0.418-7.728-4.21-8.163-8.423    c-0.143-1.394,0.539-2.065,0.959-2.341c1.238-0.815,3.382-0.285,5.252,0.467c-1.637-4.066-1.742-6.536-0.31-7.355    c0.609-0.343,2.467-1.407,12.141,8.439c0.437,0.445,0.43,1.158-0.013,1.594c-0.446,0.436-1.159,0.429-1.594-0.013    c-3.509-3.571-7.948-7.428-9.43-7.933c-0.008,0.855,1.043,4.105,2.502,7.129c0.214,0.442,0.116,0.973-0.242,1.31    c-0.357,0.336-0.888,0.404-1.322,0.164c-2.33-1.299-5.063-2.217-5.714-1.934c0.009,0.02,0,0.101,0.015,0.242    c0.236,2.285,4.403,5.299,6.974,6.662c0.55,0.292,0.761,0.974,0.469,1.523C83.143,204.191,82.752,204.409,82.348,204.409z"/>
		<path style="fill:#241726;" d="M89.893,214.11c-0.471,0-0.763-0.015-0.827-0.02c-0.621-0.039-1.093-0.572-1.056-1.193    c0.039-0.621,0.582-1.079,1.193-1.057c0.086,0.004,9.139,0.474,14.822-5.18c3.422-3.403,4.982-8.369,4.636-14.758    c-0.034-0.621,0.442-1.152,1.064-1.185c0.575-0.073,1.152,0.442,1.185,1.064c0.383,7.065-1.403,12.614-5.31,16.491    C100.194,213.642,92.433,214.11,89.893,214.11z"/>
	</g>
	<g>
		<path style="fill:#241726;" d="M363.079,133.952c-0.302,0-0.6-0.122-0.819-0.365c-0.089-0.099-8.013-11.479-7.073-13.17    c0.567-1.027,0.852-1.545,14.911,4.67c0.569,0.252,0.827,0.918,0.576,1.487c-0.253,0.57-0.912,0.83-1.487,0.576    c-4.108-1.816-8.643-3.702-11.126-4.589c1.639,3.005,5.276,8.784,5.888,9.533c0.387,0.473,0.337,1.183-0.128,1.582    C363.605,133.86,363.341,133.952,363.079,133.952z"/>
		<path style="fill:#E17B8D;" d="M379.823,137.773c0,0,2.525-17.419-7.1-16.168c-13.333,1.734-25.742,32.577-3.733,44.434    c22.008,11.857,34.497-5.673,34.497-5.673l-11.999-5.524c0,0,10.725-6.269,11.266-13.124s-7.737-2.444-7.737-2.444    s11.45-13.678,4.701-15.56C392.97,121.833,379.823,137.773,379.823,137.773z"/>
		<path style="fill:#241726;" d="M370.212,133.606c-0.244,0-0.484-0.031-0.717-0.096c-0.579-0.163-1.008-0.561-1.21-1.123    c-0.641-1.784,1.513-5.29,2.855-7.222c0.356-0.512,1.058-0.638,1.569-0.283c0.511,0.354,0.638,1.057,0.283,1.569    c-1.275,1.838-2.376,3.969-2.557,4.889c0.916-0.167,2.706-1.501,3.944-2.818c0.424-0.451,1.138-0.478,1.593-0.05    c0.453,0.426,0.477,1.138,0.051,1.593C375.192,130.951,372.507,133.606,370.212,133.606z"/>
		<path style="fill:#241726;" d="M387.746,153.976c-0.404,0-0.795-0.218-0.996-0.599c-0.292-0.55-0.083-1.232,0.467-1.524    c2.572-1.365,6.741-4.382,6.975-6.662c0.022-0.21-0.007-0.287-0.008-0.288c-0.514-0.266-3.32,0.66-5.691,1.98    c-0.429,0.239-0.965,0.173-1.322-0.164c-0.358-0.337-0.456-0.867-0.242-1.31c1.381-2.865,2.397-5.932,2.382-7.084    c-1.587,0.656-5.891,4.408-9.311,7.888c-0.437,0.442-1.148,0.448-1.594,0.013c-0.444-0.436-0.45-1.149-0.013-1.594    c9.676-9.847,11.532-8.785,12.141-8.439c1.433,0.819,1.327,3.288-0.309,7.355c1.871-0.752,4.017-1.279,5.251-0.467    c0.419,0.276,1.102,0.948,0.959,2.341c-0.435,4.212-7.373,8.004-8.163,8.423C388.104,153.934,387.924,153.976,387.746,153.976z"/>
		<path style="fill:#241726;" d="M380.2,163.676c-2.539,0-10.301-0.468-15.711-5.838c-3.906-3.877-5.693-9.425-5.31-16.491    c0.033-0.623,0.613-1.122,1.185-1.064c0.622,0.033,1.099,0.565,1.064,1.185c-0.346,6.389,1.214,11.354,4.636,14.758    c5.682,5.652,14.731,5.182,14.823,5.18c0.621-0.009,1.156,0.437,1.193,1.057c0.037,0.621-0.435,1.155-1.056,1.193    C380.963,163.661,380.671,163.676,380.2,163.676z"/>
	</g>
	<polygon style="fill:#DCB204;" points="23.754,176.171 37.411,168.36 34.168,182.858 43.976,192.219 32.023,195.857    25.451,208.321 19.628,196.86 4.614,195.617 16.032,184.945 11.189,171.77  "/>
	<polygon style="fill:#DCB204;" points="406.979,90.509 420.636,82.698 417.392,97.196 427.201,106.557 415.248,110.195    408.676,122.659 402.853,111.198 387.839,109.955 399.257,99.283 394.414,86.108  "/>
	<path style="fill:#241726;" d="M115.595,249.846l-0.026-0.02c-3.396-2.633-4.016-7.538-1.381-10.936   c2.622-3.382,7.515-4.011,10.908-1.403c1.672,1.296,2.723,3.137,2.984,5.203c0.26,2.063-0.298,4.108-1.573,5.752   C123.882,251.823,118.986,252.452,115.595,249.846z M123.741,239.289c-2.431-1.869-5.908-1.421-7.771,0.982   c-1.873,2.415-1.432,5.902,0.98,7.773l-0.668,0.908l0.687-0.894c2.41,1.853,5.889,1.406,7.755-0.997   c0.907-1.169,1.304-2.621,1.117-4.09C125.657,241.503,124.91,240.196,123.741,239.289z"/>
	<path style="fill:#241726;" d="M404.141,273.891l-0.026-0.02c-3.396-2.633-4.016-7.538-1.381-10.936   c2.622-3.382,7.515-4.011,10.908-1.403c1.672,1.296,2.723,3.137,2.983,5.203c0.26,2.063-0.298,4.108-1.573,5.752   C412.428,275.869,407.532,276.498,404.141,273.891z M412.286,263.334c-2.431-1.869-5.908-1.421-7.771,0.982   c-1.873,2.414-1.432,5.902,0.98,7.773l-0.668,0.908l0.687-0.894c2.41,1.853,5.889,1.406,7.755-0.997   c0.907-1.169,1.304-2.621,1.117-4.09C414.202,265.548,413.455,264.241,412.286,263.334z"/>
	<path style="fill:#241726;" d="M256.862,55.979l-0.026-0.02c-3.396-2.633-4.016-7.538-1.381-10.936   c2.622-3.382,7.515-4.011,10.908-1.403c1.672,1.296,2.723,3.137,2.984,5.203c0.26,2.063-0.298,4.108-1.573,5.752   C265.149,57.957,260.253,58.586,256.862,55.979z M265.008,45.422c-2.431-1.869-5.908-1.421-7.771,0.982   c-1.873,2.414-1.432,5.902,0.98,7.773l-0.668,0.908l0.687-0.894c2.41,1.853,5.889,1.406,7.755-0.997   c0.907-1.169,1.304-2.621,1.117-4.09C266.924,47.636,266.177,46.329,265.008,45.422z"/>
	<path style="fill:#241726;" d="M115.104,144.524c-0.839,0-1.633,0-3.722-8.796c-7.392-1.524-8.031-2.404-8.244-2.699   c-0.206-0.283-0.289-0.8-0.189-1.136c0.14-0.473,0.465-1.57,8.979-4.873c3.135-7.867,4.161-7.867,4.844-7.867   c0.361,0,0.857,0.262,1.069,0.555c0.535,0.739,1.004,2.642,1.711,5.69c0.222,0.955,0.49,2.108,0.646,2.615   c0.442,0.205,1.419,0.569,2.229,0.871c4.334,1.618,5.449,2.164,5.639,3.206c0.07,0.391-0.135,0.957-0.435,1.218   c-0.894,0.78-5.123,2.288-7.341,3.046c-3.692,8.111-4.459,8.142-5.136,8.168C115.138,144.524,115.12,144.524,115.104,144.524z    M106.018,132.097c1.476,0.447,4.168,1.095,6.518,1.565c0.434,0.087,0.776,0.419,0.876,0.85c0.57,2.448,1.322,5.237,1.868,6.832   c0.841-1.467,2.119-4.066,3.158-6.364c0.129-0.285,0.37-0.503,0.667-0.603c2.022-0.682,4.306-1.522,5.729-2.123   c-0.985-0.431-2.327-0.932-3.196-1.257c-2.477-0.925-2.942-1.124-3.257-1.558c-0.274-0.379-0.439-1.007-1.026-3.531   c-0.22-0.948-0.557-2.403-0.861-3.493c-0.757,1.399-1.821,3.782-2.652,5.892c-0.116,0.294-0.35,0.526-0.645,0.64   C110.569,129.956,107.585,131.247,106.018,132.097z"/>
	<path style="fill:#241726;" d="M430.701,153.541c-0.839,0-1.633,0-3.722-8.796c-7.393-1.523-8.031-2.404-8.244-2.699   c-0.206-0.284-0.289-0.8-0.189-1.136c0.14-0.473,0.464-1.57,8.979-4.873c3.135-7.867,4.161-7.867,4.844-7.867   c0.361,0,0.857,0.262,1.069,0.555c0.535,0.739,1.004,2.642,1.711,5.69c0.222,0.955,0.49,2.108,0.646,2.615   c0.443,0.205,1.419,0.569,2.229,0.871c4.334,1.618,5.449,2.164,5.639,3.206c0.07,0.391-0.135,0.957-0.435,1.218   c-0.894,0.78-5.123,2.288-7.341,3.046c-3.692,8.111-4.459,8.142-5.136,8.168C430.735,153.541,430.716,153.541,430.701,153.541z    M421.615,141.114c1.475,0.447,4.168,1.095,6.518,1.565c0.434,0.087,0.776,0.418,0.876,0.85c0.57,2.448,1.322,5.237,1.868,6.832   c0.841-1.467,2.119-4.066,3.158-6.364c0.129-0.285,0.37-0.503,0.667-0.603c2.022-0.682,4.306-1.522,5.729-2.123   c-0.985-0.431-2.327-0.932-3.196-1.257c-2.477-0.925-2.942-1.124-3.257-1.558c-0.274-0.379-0.439-1.007-1.026-3.531   c-0.22-0.948-0.557-2.403-0.861-3.493c-0.757,1.399-1.821,3.782-2.652,5.892c-0.116,0.294-0.35,0.526-0.645,0.64   C426.166,138.973,423.181,140.264,421.615,141.114z"/>
	<g>
		<g>
			<path style="fill:#52AFA6;" d="M118.611,52.378c-16.895,3.799-16.862,25.532-15.5,37.485l9.365-1.385     c0,0-2.995-26.922,10.553-26.32c13.548,0.602,17.493,22.372,17.493,22.372l11.591-1.116     C148.7,71.56,139.183,47.752,118.611,52.378z"/>
			<path style="fill:#B1739A;" d="M114.708,30.088c48.476-8.035,59.325,35.403,61.648,50.994l7.925-0.763     c0,0-12.183-67.432-67.022-62.048C62.42,23.655,71.704,94.507,71.704,94.507l8.702-1.287     C78.21,76.467,77.03,36.333,114.708,30.088z"/>
			<path style="fill:#E17B8D;" d="M114.708,30.088C77.03,36.333,78.21,76.467,80.406,93.22l11.463-1.695     c-2.225-17.536-2.017-52.124,34.096-52.135c23.667-0.007,34.831,28.686,38.892,42.798l11.499-1.107     C174.034,65.491,163.184,22.052,114.708,30.088z"/>
			<path style="fill:#E7B400;" d="M125.965,39.39c-36.113,0.011-36.321,34.599-34.096,52.135l11.242-1.662     c-1.362-11.954-1.395-33.686,15.5-37.485c20.572-4.626,30.089,19.182,33.503,31.037l12.744-1.227     C160.796,68.076,149.632,39.383,125.965,39.39z"/>
		</g>
		<path style="fill:#241726;" d="M80.405,94.348c-0.562,0-1.049-0.42-1.118-0.993c-0.162-1.356-3.795-33.42,12.523-52.563    c7.257-8.512,17.37-13.083,30.059-13.585c49.572-1.999,55.13,52.289,55.181,52.838c0.057,0.62-0.4,1.168-1.019,1.225    c-0.635,0.061-1.168-0.4-1.226-1.018c-0.012-0.132-1.314-13.412-8.504-26.251c-9.56-17.071-24.467-25.344-44.342-24.542    c-12.035,0.477-21.602,4.782-28.433,12.796c-15.685,18.4-12.039,50.51-12,50.832c0.074,0.619-0.367,1.179-0.985,1.254    C80.496,94.346,80.449,94.348,80.405,94.348z"/>
		<path style="fill:#241726;" d="M91.868,92.653c-0.554,0-1.037-0.408-1.115-0.972c-0.143-1.034-3.369-25.493,8.616-41.14    c5.254-6.859,12.654-10.934,21.997-12.116c31.551-4.02,44.455,42.998,44.581,43.474c0.16,0.602-0.198,1.218-0.8,1.378    c-0.599,0.167-1.218-0.197-1.379-0.799c-0.121-0.457-12.482-45.55-42.12-41.816c-8.722,1.103-15.615,4.887-20.489,11.249    c-11.419,14.908-8.207,39.216-8.174,39.46c0.086,0.618-0.345,1.187-0.961,1.271C91.972,92.65,91.919,92.653,91.868,92.653z"/>
		<path style="fill:#241726;" d="M103.11,90.99c-0.562,0-1.049-0.42-1.118-0.992c-0.102-0.855-2.425-21.068,6.419-32.275    c3.203-4.061,7.487-6.425,12.733-7.028c9.657-1.124,18.272,4.205,24.932,15.374c4.936,8.273,7.045,16.722,7.132,17.078    c0.149,0.604-0.22,1.214-0.824,1.363c-0.609,0.151-1.214-0.22-1.364-0.824c-0.083-0.334-8.417-33.201-29.618-30.751    c-4.625,0.533-8.4,2.612-11.218,6.182c-8.264,10.467-5.977,30.413-5.953,30.613c0.074,0.618-0.367,1.179-0.985,1.254    C103.2,90.987,103.155,90.99,103.11,90.99z"/>
	</g>
	<path style="fill:#241726;" d="M480.37,384.254l-0.007,0l-4.361-0.015l4.62-3.132c0.515-0.35,0.65-1.051,0.3-1.566   c-0.352-0.518-1.057-0.646-1.566-0.3l-6.232,4.225l0.138-7.281c0.013-0.623-0.483-1.136-1.106-1.148l-0.007,0   c-0.618-0.008-1.129,0.485-1.142,1.106l-0.122,6.426l-3.811-4.134c-0.423-0.455-1.134-0.488-1.593-0.065   c-0.457,0.421-0.486,1.136-0.065,1.593l3.921,4.253l-7.222-0.025c-0.623-0.001-1.129,0.5-1.131,1.123   c-0.002,0.619,0.494,1.123,1.112,1.131l0.011,0l6.588,0.023l-5.147,3.49c-0.515,0.35-0.65,1.051-0.3,1.566   c0.216,0.318,0.564,0.489,0.918,0.494c0.225,0.003,0.45-0.06,0.648-0.194l5.972-4.049l-0.139,7.335   c-0.013,0.623,0.483,1.136,1.106,1.148l0.007,0c0.618,0.008,1.129-0.485,1.142-1.106l0.131-6.928l4.063,4.407   c0.219,0.236,0.515,0.359,0.814,0.363c0.277,0.004,0.558-0.094,0.779-0.298c0.457-0.421,0.486-1.136,0.065-1.593l-4.254-4.614   l5.855,0.021c0.623,0.002,1.129-0.501,1.131-1.124C481.488,384.766,480.993,384.262,480.37,384.254z"/>
	<path style="fill:#241726;" d="M226.39,56.635l-0.007,0l-4.36-0.015l4.62-3.132c0.515-0.35,0.65-1.051,0.3-1.566   c-0.352-0.518-1.057-0.646-1.566-0.3l-6.232,4.225l0.138-7.281c0.013-0.623-0.483-1.136-1.106-1.148l-0.007,0   c-0.618-0.008-1.129,0.485-1.142,1.106l-0.122,6.426l-3.811-4.134c-0.423-0.455-1.134-0.488-1.593-0.065   c-0.457,0.421-0.486,1.136-0.065,1.593l3.921,4.253l-7.222-0.025c-0.623-0.002-1.129,0.5-1.131,1.123   c-0.002,0.619,0.494,1.123,1.112,1.131l0.011,0l6.588,0.023l-5.147,3.49c-0.515,0.35-0.65,1.05-0.3,1.566   c0.216,0.318,0.564,0.489,0.918,0.494c0.225,0.003,0.45-0.06,0.648-0.194l5.972-4.049l-0.139,7.335   c-0.013,0.623,0.483,1.136,1.106,1.148l0.007,0c0.618,0.008,1.129-0.485,1.142-1.106l0.131-6.928l4.063,4.407   c0.219,0.236,0.515,0.359,0.814,0.363c0.277,0.004,0.558-0.094,0.779-0.298c0.457-0.421,0.486-1.136,0.065-1.593l-4.254-4.614   l5.855,0.021c0.623,0.002,1.129-0.501,1.131-1.124C227.508,57.147,227.013,56.643,226.39,56.635z"/>
	<path style="fill:#241726;" d="M98.648,282.061l-0.007,0l-4.36-0.015l4.62-3.132c0.515-0.35,0.65-1.051,0.3-1.566   c-0.352-0.518-1.057-0.646-1.566-0.3l-6.232,4.225l0.138-7.281c0.013-0.623-0.483-1.136-1.106-1.148l-0.007,0   c-0.618-0.008-1.129,0.485-1.142,1.106l-0.122,6.426l-3.812-4.134c-0.423-0.455-1.134-0.488-1.593-0.065   c-0.457,0.421-0.486,1.136-0.065,1.593l3.921,4.253l-7.222-0.025c-0.623-0.001-1.129,0.5-1.131,1.123   c-0.002,0.619,0.494,1.123,1.112,1.131l0.011,0l6.588,0.023l-5.147,3.49c-0.515,0.35-0.65,1.051-0.3,1.566   c0.216,0.318,0.564,0.489,0.918,0.494c0.225,0.003,0.45-0.06,0.648-0.194l5.972-4.049l-0.139,7.335   c-0.013,0.623,0.483,1.136,1.106,1.148l0.007,0c0.618,0.008,1.129-0.485,1.142-1.106l0.131-6.928l4.063,4.407   c0.219,0.236,0.515,0.359,0.814,0.363c0.277,0.004,0.558-0.094,0.779-0.298c0.457-0.421,0.486-1.136,0.065-1.593l-4.254-4.614   l5.855,0.021c0.623,0.002,1.129-0.501,1.131-1.124C99.767,282.573,99.271,282.069,98.648,282.061z"/>
	<path style="fill:#FBFCFF;" d="M288.336,101.517c-0.296,0-0.592-0.116-0.813-0.347c-12.723-13.254-25.487-4.999-25.613-4.915   c-0.522,0.342-1.218,0.204-1.563-0.313c-0.346-0.518-0.206-1.217,0.313-1.563c0.143-0.096,14.473-9.369,28.49,5.229   c0.43,0.449,0.416,1.162-0.033,1.594C288.898,101.412,288.616,101.517,288.336,101.517z"/>
	<path style="fill:#FBFCFF;" d="M203.8,112.225c-0.24,0-0.483-0.077-0.688-0.236c-0.493-0.381-0.583-1.089-0.203-1.581   c9.952-12.882,22.536-8.878,22.664-8.833c0.589,0.196,0.907,0.832,0.712,1.422s-0.835,0.91-1.422,0.717   c-0.456-0.149-11.224-3.505-20.171,8.073C204.471,112.074,204.138,112.225,203.8,112.225z"/>
	<path style="fill:#241726;" d="M458.73,356.833c-1.04,0-2.081-0.065-3.092-0.194c-0.617-0.079-1.055-0.643-0.976-1.26   c0.079-0.618,0.641-1.037,1.26-0.976c1.395,0.177,2.842,0.221,4.285,0.129c0.598-0.025,1.157,0.43,1.196,1.053   c0.04,0.621-0.431,1.157-1.053,1.196C459.81,356.815,459.27,356.833,458.73,356.833z M464.731,356.098   c-0.507,0-0.968-0.345-1.094-0.86c-0.147-0.604,0.222-1.214,0.828-1.363c1.374-0.336,2.754-0.795,4.101-1.363   c0.573-0.24,1.234,0.025,1.476,0.6c0.242,0.573-0.026,1.235-0.6,1.476c-1.457,0.615-2.952,1.112-4.442,1.477   C464.91,356.088,464.82,356.098,464.731,356.098z M451.392,355.646c-0.119,0-0.24-0.019-0.36-0.059   c-0.328-0.11-0.654-0.227-0.98-0.351c-0.581-0.222-0.873-0.874-0.652-1.455c0.222-0.582,0.878-0.872,1.455-0.652   c0.297,0.113,0.597,0.221,0.896,0.323c0.59,0.198,0.907,0.838,0.708,1.428C452.301,355.349,451.863,355.646,451.392,355.646z    M473.014,352.624c-0.381,0-0.752-0.193-0.964-0.542c-0.324-0.532-0.154-1.225,0.378-1.549c1.224-0.744,2.42-1.588,3.557-2.509   c0.483-0.391,1.192-0.317,1.585,0.167c0.392,0.483,0.317,1.193-0.167,1.585c-1.214,0.983-2.494,1.885-3.804,2.682   C473.415,352.571,473.213,352.624,473.014,352.624z M480.007,346.976c-0.281,0-0.562-0.105-0.78-0.314   c-0.449-0.431-0.463-1.145-0.033-1.594c0.994-1.036,1.946-2.155,2.831-3.33c0.373-0.496,1.081-0.597,1.578-0.222   c0.497,0.375,0.597,1.082,0.222,1.578c-0.939,1.246-1.95,2.435-3.005,3.534C480.6,346.861,480.304,346.976,480.007,346.976z    M485.426,339.798c-0.195,0-0.392-0.051-0.571-0.156c-0.536-0.316-0.714-1.007-0.398-1.543c0.735-1.247,1.416-2.556,2.02-3.892   c0.256-0.567,0.92-0.82,1.493-0.561c0.567,0.258,0.818,0.925,0.561,1.493c-0.638,1.408-1.356,2.79-2.132,4.106   C486.188,339.6,485.813,339.798,485.426,339.798z M489.145,331.604c-0.118,0-0.238-0.019-0.357-0.058   c-0.59-0.196-0.909-0.834-0.712-1.425c0.458-1.374,0.854-2.798,1.179-4.232c0.138-0.608,0.74-0.985,1.348-0.851   c0.608,0.138,0.988,0.742,0.851,1.348c-0.341,1.507-0.758,3.004-1.241,4.448C490.056,331.305,489.617,331.604,489.145,331.604z    M491.141,322.826c-0.047,0-0.096-0.003-0.145-0.009c-0.618-0.08-1.053-0.645-0.974-1.263c0.186-1.441,0.309-2.918,0.367-4.39   c0.024-0.622,0.562-1.13,1.17-1.082c0.622,0.024,1.106,0.548,1.082,1.17c-0.059,1.539-0.188,3.083-0.382,4.59   C492.185,322.411,491.7,322.826,491.141,322.826z M491.497,313.831c-0.599,0-1.097-0.472-1.125-1.076   c-0.065-1.444-0.192-2.925-0.378-4.402c-0.078-0.617,0.36-1.181,0.977-1.259c0.636-0.076,1.182,0.36,1.259,0.977   c0.194,1.537,0.326,3.079,0.393,4.582c0.028,0.622-0.453,1.149-1.075,1.177C491.531,313.831,491.514,313.831,491.497,313.831z    M490.171,304.942c-0.477,0-0.919-0.304-1.073-0.782c-0.429-1.336-1.004-2.655-1.707-3.92c-0.303-0.545-0.107-1.231,0.437-1.533   c0.547-0.306,1.232-0.105,1.533,0.437c0.775,1.394,1.408,2.849,1.883,4.325c0.19,0.593-0.135,1.228-0.728,1.419   C490.402,304.924,490.286,304.942,490.171,304.942z M485.85,297.096c-0.329,0-0.655-0.143-0.877-0.418   c-0.878-1.085-1.881-2.146-2.981-3.154c-0.459-0.42-0.49-1.134-0.069-1.593c0.42-0.458,1.133-0.489,1.593-0.069   c1.181,1.082,2.261,2.226,3.21,3.398c0.392,0.483,0.317,1.193-0.167,1.585C486.35,297.014,486.099,297.096,485.85,297.096z    M446.795,295.647c-0.107,0-0.217-0.015-0.325-0.048c-1.675-0.504-2.981-1.799-3.779-3.744c-0.236-0.576,0.04-1.234,0.616-1.471   c0.573-0.236,1.233,0.039,1.471,0.616c0.545,1.331,1.311,2.13,2.341,2.44c0.597,0.179,0.935,0.808,0.754,1.403   C447.727,295.332,447.279,295.647,446.795,295.647z M451.186,295.179c-0.445,0-0.865-0.264-1.043-0.701   c-0.236-0.577,0.042-1.235,0.618-1.469c1.132-0.461,2.35-1.181,3.621-2.141c0.501-0.374,1.204-0.271,1.58,0.221   c0.374,0.498,0.275,1.204-0.221,1.58c-1.428,1.075-2.817,1.892-4.128,2.427C451.473,295.152,451.328,295.179,451.186,295.179z    M479.24,290.994c-0.226,0-0.453-0.067-0.652-0.208c-1.158-0.822-2.408-1.609-3.713-2.338c-0.544-0.304-0.739-0.991-0.435-1.533   c0.302-0.544,0.987-0.737,1.533-0.435c1.376,0.768,2.695,1.598,3.92,2.468c0.507,0.36,0.626,1.063,0.266,1.572   C479.94,290.829,479.594,290.994,479.24,290.994z M458.44,289.91c-0.286,0-0.573-0.109-0.793-0.326   c-0.442-0.438-0.447-1.151-0.009-1.594c0.982-0.992,1.961-2.098,2.911-3.287c0.389-0.485,1.099-0.565,1.584-0.177   c0.487,0.389,0.566,1.099,0.177,1.584c-1.001,1.251-2.033,2.417-3.07,3.465C459.021,289.798,458.731,289.91,458.44,289.91z    M442.921,288.154c-0.029,0-0.058-0.001-0.088-0.003c-0.621-0.048-1.085-0.59-1.037-1.211c0.142-1.838,1.112-3.405,2.804-4.528   c0.518-0.348,1.218-0.204,1.563,0.315c0.345,0.52,0.204,1.219-0.315,1.563c-1.125,0.747-1.715,1.671-1.804,2.824   C443.998,287.705,443.504,288.154,442.921,288.154z M471.387,286.585c-0.151,0-0.304-0.03-0.451-0.095   c-1.333-0.584-2.717-1.117-4.111-1.585c-0.591-0.198-0.909-0.837-0.711-1.427c0.199-0.591,0.84-0.905,1.427-0.711   c1.46,0.489,2.906,1.047,4.301,1.658c0.57,0.25,0.83,0.915,0.58,1.485C472.235,286.333,471.821,286.585,471.387,286.585z    M462.846,283.726c-0.086,0-0.173-0.01-0.26-0.03c-1.464-0.347-2.919-0.616-4.325-0.804c-0.617-0.083-1.051-0.649-0.969-1.266   c0.081-0.617,0.64-1.048,1.266-0.969c1.443,0.193,2.935,0.467,4.434,0.818c0.03-0.118,0.08-0.232,0.151-0.339   c0.806-1.216,1.573-2.489,2.281-3.782c0.297-0.546,0.983-0.748,1.53-0.447c0.546,0.298,0.746,0.984,0.447,1.53   c-0.737,1.347-1.538,2.675-2.378,3.943c-0.245,0.371-0.681,0.537-1.086,0.496C463.808,283.385,463.35,283.726,462.846,283.726z    M449.424,282.928c-0.533,0-1.007-0.38-1.107-0.922c-0.113-0.612,0.292-1.2,0.904-1.313c1.344-0.249,2.846-0.374,4.466-0.374   l0.244,0.001c0.622,0.009,1.119,0.521,1.111,1.144c-0.01,0.622-0.584,1.062-1.144,1.111c-0.007,0-0.014,0-0.022,0   c-1.683,0-3.041,0.113-4.245,0.336C449.561,282.922,449.492,282.928,449.424,282.928z M468.407,274.978   c-0.152,0-0.306-0.031-0.453-0.096c-0.57-0.252-0.828-0.917-0.577-1.486c0.6-1.358,1.137-2.74,1.599-4.108   c0.199-0.59,0.839-0.904,1.429-0.707c0.589,0.199,0.906,0.839,0.707,1.429c-0.483,1.431-1.046,2.876-1.672,4.295   C469.253,274.727,468.841,274.978,468.407,274.978z M471.276,266.438c-0.083,0-0.167-0.009-0.252-0.029   c-0.606-0.138-0.986-0.742-0.848-1.349c0.332-1.457,0.579-2.908,0.734-4.314c0.068-0.617,0.629-1.057,1.244-0.997   c0.619,0.068,1.065,0.625,0.997,1.244c-0.165,1.491-0.426,3.028-0.778,4.569C472.254,266.084,471.79,266.438,471.276,266.438z    M472.23,257.499c-0.609,0-1.111-0.487-1.126-1.1c-0.036-1.477-0.181-2.928-0.429-4.31c-0.11-0.613,0.297-1.199,0.91-1.309   c0.614-0.11,1.199,0.298,1.309,0.91c0.269,1.495,0.425,3.061,0.465,4.654c0.015,0.622-0.477,1.139-1.1,1.155   C472.25,257.499,472.24,257.499,472.23,257.499z M470.606,248.674c-0.458,0-0.888-0.281-1.057-0.735   c-0.492-1.326-1.114-2.633-1.848-3.882c-0.315-0.537-0.135-1.227,0.401-1.543c0.538-0.317,1.227-0.135,1.543,0.401   c0.801,1.364,1.479,2.79,2.018,4.241c0.217,0.583-0.081,1.232-0.665,1.449C470.869,248.652,470.736,248.674,470.606,248.674z    M417.709,241.977c-2.182,0-3.597-1.313-3.884-3.603c-0.077-0.618,0.36-1.181,0.979-1.258c0.617-0.076,1.181,0.361,1.258,0.979   c0.185,1.476,0.92,1.631,1.719,1.626c0.598,0,1.183,0.458,1.22,1.054c0.039,0.622-0.337,1.154-0.959,1.192L417.709,241.977z    M466.088,240.929c-0.325,0-0.647-0.14-0.87-0.409c-0.899-1.088-1.91-2.146-3.003-3.148c-0.46-0.419-0.491-1.133-0.07-1.592   c0.422-0.459,1.134-0.49,1.592-0.07c1.171,1.071,2.254,2.206,3.218,3.375c0.397,0.48,0.329,1.19-0.151,1.586   C466.594,240.844,466.34,240.929,466.088,240.929z M422.194,240.493c-0.395,0-0.779-0.208-0.985-0.578   c-0.304-0.544-0.109-1.231,0.435-1.533c1.125-0.629,2.324-1.451,3.564-2.444c0.488-0.387,1.198-0.309,1.584,0.175   c0.39,0.485,0.312,1.194-0.175,1.584c-1.336,1.071-2.641,1.964-3.875,2.653C422.568,240.447,422.38,240.493,422.194,240.493z    M429.267,234.929c-0.288,0-0.577-0.11-0.797-0.33c-0.44-0.44-0.44-1.155,0-1.594c1.019-1.018,2.02-2.113,2.975-3.257   c0.4-0.476,1.108-0.543,1.588-0.142c0.478,0.4,0.54,1.111,0.142,1.588c-0.999,1.194-2.046,2.34-3.112,3.405   C429.844,234.819,429.555,234.929,429.267,234.929z M415.481,234.915c-0.1,0-0.201-0.013-0.303-0.041   c-0.6-0.167-0.951-0.788-0.785-1.388c0.123-0.441,0.265-0.904,0.426-1.389c0.371-1.113,0.954-2.143,1.734-3.063   c0.401-0.474,1.111-0.533,1.588-0.132c0.474,0.403,0.534,1.114,0.131,1.589c-0.592,0.7-1.035,1.479-1.314,2.318   c-0.149,0.447-0.28,0.874-0.392,1.28C416.428,234.588,415.975,234.915,415.481,234.915z M459.468,234.834   c-0.227,0-0.456-0.068-0.654-0.209c-1.167-0.833-2.414-1.626-3.707-2.356c-0.542-0.307-0.733-0.994-0.427-1.537   c0.308-0.543,0.994-0.73,1.537-0.427c1.362,0.769,2.677,1.606,3.908,2.483c0.506,0.362,0.624,1.065,0.263,1.573   C460.167,234.67,459.82,234.834,459.468,234.834z M451.631,230.39c-0.153,0-0.308-0.031-0.457-0.097   c-1.332-0.593-2.712-1.135-4.105-1.61c-0.589-0.201-0.904-0.842-0.702-1.431c0.2-0.59,0.84-0.903,1.431-0.702   c1.455,0.498,2.899,1.064,4.292,1.683c0.569,0.253,0.824,0.92,0.572,1.488C452.475,230.141,452.064,230.39,451.631,230.39z    M420.985,228.193c-0.415,0-0.813-0.229-1.01-0.625c-0.277-0.558-0.05-1.234,0.507-1.511c1.316-0.654,2.833-1.177,4.507-1.553   c0.614-0.138,1.211,0.244,1.347,0.852c0.137,0.608-0.245,1.211-0.852,1.347c-1.499,0.337-2.845,0.799-3.999,1.373   C421.324,228.155,421.153,228.193,420.985,228.193z M435.052,228.016c-0.223,0-0.449-0.066-0.646-0.205   c-0.51-0.357-0.633-1.06-0.275-1.57c0.031-0.045,0.063-0.09,0.095-0.135c-0.032,0.001-0.055-0.001-0.081-0.002   c-1.508-0.084-2.975-0.081-4.374,0.008c-0.625,0.026-1.157-0.433-1.196-1.053c-0.04-0.621,0.431-1.157,1.053-1.196   c1.486-0.092,3.039-0.099,4.643-0.008c0.453,0.024,0.83,0.316,0.986,0.713c0.436-0.676,0.853-1.358,1.248-2.044   c0.312-0.54,0.998-0.722,1.541-0.412c0.538,0.313,0.723,1.002,0.412,1.541c-0.219,0.378-0.444,0.755-0.674,1.13   c0.241-0.327,0.644-0.509,1.079-0.445c1.495,0.231,3.016,0.537,4.52,0.909c0.604,0.15,0.973,0.761,0.823,1.365   c-0.149,0.603-0.766,0.964-1.365,0.823c-1.44-0.357-2.894-0.649-4.321-0.87c-0.615-0.095-1.037-0.67-0.942-1.286   c0.019-0.12,0.055-0.233,0.107-0.336c-0.54,0.876-1.112,1.744-1.707,2.591C435.757,227.849,435.408,228.016,435.052,228.016z    M439.556,220.213c-0.156,0-0.316-0.033-0.468-0.102c-0.567-0.26-0.815-0.928-0.556-1.494c0.623-1.36,1.17-2.733,1.626-4.083   c0.199-0.59,0.84-0.905,1.429-0.707c0.59,0.199,0.906,0.839,0.707,1.429c-0.481,1.422-1.057,2.868-1.712,4.298   C440.393,219.969,439.984,220.213,439.556,220.213z M442.417,211.676c-0.076,0-0.154-0.008-0.231-0.024   c-0.61-0.127-1.001-0.724-0.873-1.333c0.302-1.447,0.504-2.897,0.601-4.308c0.043-0.621,0.568-1.073,1.203-1.047   c0.621,0.043,1.09,0.581,1.047,1.203c-0.105,1.512-0.321,3.064-0.645,4.612C443.409,211.311,442.94,211.676,442.417,211.676z    M443.008,202.712c-0.579,0-1.071-0.444-1.122-1.03l-0.066-0.667c-0.135-1.236-0.345-2.451-0.62-3.611   c-0.144-0.605,0.23-1.213,0.835-1.357c0.609-0.139,1.214,0.229,1.357,0.835c0.297,1.25,0.523,2.558,0.668,3.889l0.07,0.718   c0.054,0.621-0.406,1.167-1.026,1.22C443.073,202.711,443.04,202.712,443.008,202.712z M440.904,193.998   c-0.439,0-0.856-0.258-1.038-0.688c-0.562-1.329-1.244-2.6-2.025-3.78c-0.343-0.518-0.201-1.217,0.317-1.562   c0.522-0.346,1.22-0.201,1.563,0.317c0.857,1.296,1.605,2.69,2.221,4.146c0.242,0.573-0.025,1.235-0.599,1.477   C441.2,193.969,441.051,193.998,440.904,193.998z M435.959,186.535c-0.294,0-0.588-0.114-0.809-0.342   c-0.977-1.007-2.074-1.956-3.258-2.819c-0.503-0.367-0.614-1.072-0.248-1.575c0.369-0.502,1.071-0.613,1.575-0.248   c1.288,0.939,2.482,1.972,3.549,3.072c0.434,0.447,0.423,1.16-0.024,1.594C436.525,186.429,436.242,186.535,435.959,186.535z    M428.722,181.222c-0.176,0-0.354-0.041-0.521-0.129c-1.246-0.651-2.59-1.246-3.993-1.768c-0.583-0.218-0.881-0.866-0.664-1.45   c0.218-0.583,0.871-0.879,1.45-0.664c1.493,0.556,2.922,1.189,4.251,1.884c0.553,0.287,0.765,0.969,0.477,1.52   C429.521,181.002,429.128,181.222,428.722,181.222z M420.296,178.053c-0.094,0-0.187-0.011-0.282-0.035   c-1.386-0.357-2.839-0.658-4.319-0.898c-0.614-0.1-1.031-0.679-0.932-1.293c0.1-0.615,0.667-1.035,1.293-0.932   c1.548,0.251,3.068,0.567,4.52,0.94c0.603,0.155,0.966,0.769,0.811,1.373C421.256,177.715,420.798,178.053,420.296,178.053z    M411.39,176.6c-0.029,0-0.057-0.001-0.087-0.003c-2.621-0.201-4.345-0.13-4.379-0.127c-0.643,0.054-1.148-0.453-1.177-1.073   c-0.029-0.622,0.451-1.149,1.072-1.179c-0.001-0.001,1.799-0.088,4.655,0.131c0.621,0.047,1.085,0.589,1.038,1.21   C412.468,176.15,411.973,176.6,411.39,176.6z"/>
	<path style="fill:#241726;" d="M26.521,387.786c-0.015,0-0.031,0-0.046-0.001c-1.61-0.064-3.178-0.26-4.657-0.581   c-0.608-0.133-0.994-0.733-0.862-1.342c0.133-0.608,0.724-0.996,1.342-0.862c1.352,0.295,2.787,0.473,4.267,0.533   c0.622,0.024,1.106,0.549,1.081,1.171C27.622,387.311,27.122,387.786,26.521,387.786z M31.02,387.633   c-0.571,0-1.061-0.433-1.121-1.013c-0.063-0.619,0.387-1.172,1.007-1.236c1.388-0.142,2.842-0.378,4.323-0.7   c0.612-0.136,1.209,0.254,1.342,0.862c0.132,0.609-0.254,1.209-0.862,1.342c-1.563,0.34-3.101,0.589-4.573,0.74   C31.097,387.631,31.058,387.633,31.02,387.633z M17.785,385.841c-0.152,0-0.308-0.031-0.457-0.097   c-1.44-0.64-2.818-1.438-4.096-2.37c-0.503-0.367-0.613-1.072-0.245-1.575c0.367-0.501,1.071-0.613,1.575-0.245   c1.148,0.839,2.387,1.555,3.682,2.13c0.569,0.253,0.824,0.919,0.572,1.488C18.629,385.591,18.217,385.841,17.785,385.841z    M10.553,380.585c-0.305,0-0.609-0.123-0.831-0.365c-1.023-1.116-1.983-2.369-2.857-3.724c-0.337-0.524-0.186-1.222,0.337-1.559   c0.525-0.335,1.221-0.183,1.559,0.337c0.805,1.249,1.687,2.401,2.624,3.422c0.42,0.459,0.39,1.172-0.069,1.593   C11.098,380.487,10.825,380.585,10.553,380.585z M5.65,373.063c-0.426,0-0.833-0.242-1.024-0.654   c-0.626-1.352-1.2-2.801-1.703-4.309c-0.197-0.59,0.121-1.228,0.712-1.425c0.591-0.198,1.229,0.122,1.425,0.712   c0.478,1.428,1.019,2.799,1.61,4.076c0.262,0.565,0.017,1.234-0.549,1.496C5.97,373.03,5.809,373.063,5.65,373.063z M2.764,364.531   c-0.511,0-0.974-0.35-1.096-0.87c-0.341-1.451-0.634-2.969-0.873-4.513c-0.095-0.615,0.327-1.191,0.942-1.286   c0.615-0.091,1.191,0.327,1.286,0.942c0.229,1.486,0.512,2.947,0.84,4.341c0.142,0.605-0.233,1.212-0.84,1.355   C2.937,364.521,2.85,364.531,2.764,364.531z M1.373,355.626c-0.579,0-1.071-0.444-1.122-1.03c-0.132-1.533-0.214-3.062-0.251-4.571   c-0.015-0.622,0.478-1.139,1.1-1.155c0.01,0,0.019,0,0.028,0c0.61,0,1.112,0.487,1.127,1.1c0.035,1.463,0.114,2.946,0.242,4.433   c0.054,0.621-0.406,1.167-1.026,1.22C1.438,355.624,1.405,355.626,1.373,355.626z M1.333,346.632c-0.063,0-0.125-0.006-0.189-0.015   c-0.614-0.105-1.027-0.687-0.923-1.3c0.26-1.53,0.734-3.064,1.409-4.562c0.256-0.565,0.923-0.816,1.491-0.565   c0.567,0.256,0.82,0.924,0.565,1.491c-0.597,1.323-1.015,2.673-1.242,4.012C2.35,346.243,1.873,346.632,1.333,346.632z    M4.927,338.46c-0.229,0-0.46-0.069-0.66-0.215c-0.504-0.364-0.616-1.07-0.251-1.574c0.875-1.209,1.899-2.405,3.042-3.555   c0.439-0.44,1.152-0.442,1.594-0.004s0.444,1.152,0.004,1.594c-1.06,1.067-2.008,2.174-2.816,3.289   C5.621,338.298,5.276,338.46,4.927,338.46z M11.238,332.053c-0.335,0-0.666-0.149-0.888-0.433c-0.384-0.49-0.297-1.199,0.193-1.582   c1.185-0.929,2.463-1.822,3.796-2.654c0.527-0.329,1.223-0.166,1.553,0.36c0.329,0.527,0.168,1.223-0.36,1.553   c-1.266,0.789-2.477,1.637-3.6,2.515C11.725,331.974,11.48,332.053,11.238,332.053z M33.607,330.993c-0.018,0-0.035,0-0.052-0.001   c-1.386-0.063-2.976-0.61-4.73-1.626c-0.538-0.313-0.722-1.002-0.409-1.541c0.313-0.537,0.998-0.725,1.541-0.409   c1.416,0.821,2.695,1.279,3.699,1.324c0.622,0.029,1.104,0.555,1.075,1.177C34.705,330.522,34.206,330.993,33.607,330.993z    M36.927,328.559c-0.102,0-0.205-0.013-0.308-0.043c-0.599-0.168-0.947-0.791-0.777-1.391c0.121-0.429,0.19-0.943,0.205-1.526   c0.001-0.657-0.198-1.082-0.627-1.405c-0.498-0.374-0.597-1.081-0.222-1.578c0.372-0.495,1.082-0.599,1.578-0.222   c0.998,0.752,1.527,1.837,1.527,3.138c-0.021,0.895-0.119,1.596-0.292,2.207C37.87,328.235,37.418,328.559,36.927,328.559z    M18.874,327.269c-0.415,0-0.813-0.229-1.01-0.625c-0.277-0.557-0.05-1.234,0.507-1.511c1.172-0.582,2.368-1.116,3.561-1.588   c-0.073-0.081-0.145-0.163-0.218-0.245c-0.413-0.467-0.369-1.179,0.098-1.591c0.468-0.411,1.18-0.369,1.591,0.098   c0.998,1.129,2.036,2.165,3.088,3.081c0.47,0.408,0.52,1.121,0.11,1.589c-0.409,0.472-1.121,0.52-1.589,0.11   c-0.471-0.409-0.94-0.842-1.403-1.294c-0.063,0.039-0.13,0.073-0.201,0.099c-1.348,0.509-2.704,1.101-4.031,1.76   C19.213,327.232,19.043,327.269,18.874,327.269z M27.315,324.124c-0.509,0-0.97-0.347-1.095-0.863   c-0.145-0.605,0.227-1.214,0.832-1.361c1.712-0.412,3.288-0.643,4.686-0.687c0.604-0.048,1.143,0.468,1.161,1.091   c0.02,0.622-0.468,1.143-1.091,1.161c-1.244,0.04-2.666,0.251-4.228,0.626C27.491,324.114,27.403,324.124,27.315,324.124z    M19.771,320.133c-0.356,0-0.706-0.167-0.925-0.481c-0.892-1.275-1.712-2.602-2.437-3.947c-0.296-0.547-0.091-1.231,0.457-1.527   c0.545-0.299,1.232-0.091,1.527,0.457c0.685,1.268,1.458,2.522,2.3,3.725c0.357,0.511,0.232,1.213-0.277,1.57   C20.219,320.067,19.995,320.133,19.771,320.133z M15.508,312.201c-0.451,0-0.878-0.273-1.051-0.72   c-0.573-1.482-1.035-2.983-1.371-4.463c-0.138-0.608,0.243-1.211,0.85-1.349c0.611-0.137,1.211,0.242,1.349,0.85   c0.312,1.374,0.741,2.769,1.275,4.149c0.225,0.581-0.064,1.234-0.644,1.458C15.781,312.177,15.644,312.201,15.508,312.201z    M13.561,303.438c-0.595,0-1.093-0.467-1.125-1.068c-0.022-0.415-0.032-0.83-0.032-1.246c0.001-1.18,0.088-2.35,0.258-3.477   c0.094-0.615,0.666-1.035,1.283-0.947c0.615,0.094,1.039,0.668,0.947,1.283c-0.154,1.017-0.232,2.074-0.233,3.141   c0,0.375,0.01,0.751,0.03,1.126c0.032,0.622-0.445,1.152-1.067,1.185C13.602,303.438,13.581,303.438,13.561,303.438z    M14.921,294.591c-0.133,0-0.267-0.023-0.4-0.073c-0.582-0.221-0.875-0.872-0.655-1.454c0.542-1.427,1.214-2.85,2-4.229   c0.307-0.542,0.994-0.732,1.538-0.422c0.542,0.309,0.73,0.997,0.422,1.538c-0.729,1.278-1.352,2.593-1.85,3.912   C15.803,294.314,15.375,294.591,14.921,294.591z M19.345,286.768c-0.239,0-0.48-0.076-0.685-0.233   c-0.494-0.379-0.588-1.086-0.208-1.58c0.917-1.195,1.939-2.375,3.039-3.506c0.435-0.446,1.148-0.458,1.594-0.022   c0.446,0.434,0.456,1.147,0.022,1.594c-1.038,1.068-2.003,2.181-2.867,3.305C20.019,286.616,19.684,286.768,19.345,286.768z    M52.528,282.299c-1.41-0.001-2.983-0.523-4.55-1.509c-0.526-0.332-0.685-1.028-0.353-1.555c0.332-0.526,1.027-0.68,1.555-0.353   c1.234,0.778,2.402,1.159,3.418,1.161c0.599,0,1.195,0.459,1.231,1.058c0.036,0.622-0.33,1.151-0.952,1.188L52.528,282.299z    M25.612,280.303c-0.324,0-0.644-0.138-0.866-0.405c-0.4-0.478-0.335-1.189,0.143-1.587c1.163-0.971,2.403-1.906,3.683-2.781   c0.517-0.351,1.217-0.219,1.566,0.294c0.352,0.514,0.22,1.215-0.294,1.566c-1.222,0.835-2.403,1.727-3.511,2.652   C26.121,280.217,25.866,280.303,25.612,280.303z M56.177,279.704c-0.14,0-0.282-0.026-0.42-0.081   c-0.577-0.231-0.857-0.888-0.625-1.466c0.312-0.777,0.47-1.761,0.469-2.923c0-0.211-0.007-0.427-0.017-0.649l-0.025-0.333   c-0.063-0.62,0.389-1.173,1.007-1.236c0.645-0.041,1.173,0.389,1.236,1.007c0.015,0.15,0.026,0.302,0.034,0.456   c0.012,0.261,0.019,0.512,0.019,0.755c0.001,1.452-0.211,2.719-0.632,3.766C57.047,279.436,56.624,279.704,56.177,279.704z    M45.18,278.023c-0.308,0-0.616-0.127-0.839-0.374c-0.997-1.112-1.938-2.387-2.795-3.79c-0.325-0.532-0.156-1.225,0.374-1.55   c0.532-0.324,1.224-0.157,1.55,0.374c0.785,1.287,1.642,2.45,2.548,3.46c0.416,0.463,0.378,1.176-0.086,1.592   C45.717,277.928,45.449,278.023,45.18,278.023z M33.044,275.215c-0.396,0-0.779-0.209-0.986-0.579   c-0.303-0.544-0.107-1.231,0.437-1.533c1.356-0.754,2.747-1.445,4.135-2.053c0.573-0.251,1.237,0.011,1.485,0.58   c0.25,0.57-0.01,1.235-0.58,1.485c-1.323,0.579-2.651,1.238-3.944,1.958C33.417,275.17,33.229,275.215,33.044,275.215z    M41.302,271.621c-0.479,0-0.924-0.307-1.075-0.788c-0.05-0.159-0.063-0.32-0.044-0.474c-0.331-0.081-0.622-0.313-0.767-0.652   c-0.594-1.387-1.119-2.857-1.561-4.37c-0.174-0.598,0.17-1.224,0.766-1.398c0.606-0.179,1.224,0.17,1.398,0.766   c0.416,1.427,0.909,2.81,1.468,4.114c0.058,0.134,0.087,0.273,0.091,0.411c1.345-0.398,2.662-0.704,3.921-0.913   c0.624-0.11,1.195,0.315,1.296,0.928c0.101,0.614-0.314,1.194-0.928,1.296c-1.346,0.222-2.768,0.568-4.226,1.028   C41.528,271.605,41.415,271.621,41.302,271.621z M54.456,271.527c-0.212,0-0.427-0.059-0.618-0.185   c-0.916-0.602-2.173-0.959-3.736-1.061c-0.621-0.041-1.092-0.578-1.051-1.199c0.041-0.622,0.589-1.084,1.199-1.051   c1.957,0.129,3.581,0.609,4.826,1.427c0.521,0.342,0.665,1.041,0.324,1.561C55.182,271.348,54.823,271.527,54.456,271.527z    M37.911,261.759c-0.536,0-1.012-0.383-1.108-0.929c-0.265-1.487-0.462-3.026-0.588-4.576c-0.05-0.62,0.413-1.163,1.034-1.214   c0.635-0.039,1.162,0.414,1.214,1.034c0.119,1.477,0.307,2.944,0.559,4.36c0.109,0.613-0.299,1.199-0.911,1.308   C38.043,261.753,37.976,261.759,37.911,261.759z M37.175,252.788c-0.003,0-0.006,0-0.009,0c-0.623-0.006-1.124-0.514-1.118-1.136   c0.013-1.636,0.133-3.2,0.356-4.649c0.094-0.615,0.668-1.042,1.285-0.943c0.615,0.095,1.038,0.669,0.943,1.285   c-0.206,1.344-0.317,2.799-0.329,4.326C38.296,252.289,37.793,252.788,37.175,252.788z M38.622,243.945   c-0.131,0-0.264-0.023-0.394-0.072c-0.583-0.217-0.879-0.866-0.662-1.45c0.583-1.566,1.345-2.992,2.262-4.234   c0.37-0.501,1.074-0.606,1.576-0.238c0.501,0.37,0.608,1.075,0.238,1.576c-0.793,1.074-1.453,2.314-1.965,3.684   C39.509,243.665,39.079,243.945,38.622,243.945z M43.938,236.844c-0.353,0-0.701-0.165-0.921-0.476   c-0.36-0.509-0.239-1.212,0.269-1.572c1.268-0.897,2.712-1.629,4.291-2.174c0.587-0.205,1.231,0.109,1.433,0.698   c0.203,0.589-0.109,1.231-0.698,1.433c-1.377,0.476-2.63,1.108-3.723,1.883C44.39,236.777,44.162,236.844,43.938,236.844z    M65.727,235.082c-0.112,0-0.227-0.017-0.339-0.052c-0.017-0.006-1.723-0.538-4.242-0.94c-0.615-0.098-1.034-0.676-0.936-1.29   c0.098-0.614,0.684-1.034,1.29-0.936c2.697,0.429,4.491,0.992,4.567,1.016c0.593,0.187,0.921,0.82,0.734,1.413   C66.651,234.775,66.206,235.082,65.727,235.082z M52.334,233.831c-0.562,0-1.049-0.42-1.118-0.993   c-0.074-0.619,0.368-1.179,0.985-1.254c1.49-0.177,3.123-0.232,4.676-0.178c0.623,0.021,1.11,0.543,1.088,1.165   c-0.022,0.623-0.539,1.157-1.165,1.088c-1.445-0.047-2.957-0.001-4.33,0.165C52.423,233.829,52.378,233.831,52.334,233.831z"/>
	<g>
		<path style="fill:#52AFA6;" d="M79.048,368.908c0,0,347.815-2.868,353.811,0c5.997,2.869,40.478,98.964,37.48,103.267    c-2.998,4.303-430.271,2.868-430.271-2.869C40.068,463.57,79.048,368.908,79.048,368.908z"/>
		<g>
			<path style="fill:#FFFFFF;" d="M334.743,436.992c0,0-1.025-15.884,0.384-16.396s32.665-12.425,35.226-9.223     c2.562,3.202,3.074,27.156,0.512,31.512C368.305,447.24,334.103,438.145,334.743,436.992z"/>
			<path style="fill:#1A1F36;" d="M322.702,441.86c0,0-2.919-23.466,0.176-25.013c3.095-1.547,9.928,2.202,12.25,3.749     c0,0,1.677,11.338,0.904,15.594C335.258,440.445,323.089,448.823,322.702,441.86z"/>
			<path style="fill:#FFFFFF;" d="M324.963,437.304c0,0-0.721-2.06,0.412-2.781c1.133-0.721,1.957,1.442,1.236,2.575     C325.89,438.231,325.066,438.437,324.963,437.304z"/>
			<path style="fill:#FFFFFF;" d="M323.554,430.899c0,0-0.721-2.06,0.412-2.781c1.133-0.721,1.957,1.442,1.236,2.575     C324.481,431.826,323.657,432.032,323.554,430.899z"/>
			<path style="fill:#FFFFFF;" d="M328.038,434.23c0,0-0.721-2.06,0.412-2.781c1.133-0.721,1.957,1.442,1.236,2.575     C328.965,435.157,328.141,435.363,328.038,434.23z"/>
			<path style="fill:#FFFFFF;" d="M328.294,427.184c0,0-0.721-2.06,0.412-2.781c1.133-0.721,1.957,1.442,1.236,2.575     C329.221,428.111,328.397,428.317,328.294,427.184z"/>
			<path style="fill:#FFFFFF;" d="M325.476,424.11c0,0-0.721-2.06,0.412-2.781c1.133-0.721,1.957,1.442,1.236,2.575     C326.403,425.037,325.579,425.243,325.476,424.11z"/>
			<path style="fill:#241726;" d="M341.134,423.039c-0.503,0-0.962-0.339-1.091-0.85c-0.154-0.603,0.211-1.216,0.815-1.369     c0.156-0.041,15.692-3.99,20.332-5.455c0.591-0.185,1.227,0.143,1.414,0.736c0.187,0.593-0.142,1.226-0.736,1.414     c-4.701,1.484-19.815,5.326-20.456,5.488C341.32,423.028,341.226,423.039,341.134,423.039z"/>
		</g>
		<path style="fill:#1A1F36;" d="M118.54,384.409c0,0,169.821-6.011,174.33,1.503c4.509,7.514,15.028,72.136,15.028,72.136    s-204.386,3.006-205.889-4.509C100.506,446.026,118.54,384.409,118.54,384.409z"/>
		<g>
			<path style="fill:#E38B72;" d="M268.611,228.695c-1.729-1.383-2.502-8.333-2.834-15.435c5.494-0.701,11.941-2.8,19.111-8.22     c4.85-3.666,7.947-11.562,9.748-21.308c0.973,0.46,2.111,0.721,3.463,0.7c12.852-0.197,18.212-18.355,12.077-30.85     c-3.461-7.048-9.199-3.929-13.545,0.13c-0.426-19.473-3.577-38.002-7.161-43.193c-17.69-25.623-70.168-7.319-70.168-7.319     c-17.971,1.47-16.381,36.34-14.101,55.657c-5.073-3.979-12.542-7.924-15.236,0.521c-4.23,13.261,3.744,30.433,16.485,28.737     c1.296-0.172,2.356-0.574,3.235-1.141c2.164,6.225,6.109,13.11,13.272,18.233c2.162,10.53,4.708,25.17,2.823,27.996     c-3.006,4.509-38.322,18.034-33.814,29.305c4.509,11.271,75.894,33.814,120.979-13.526     C321.301,240.209,272.368,231.701,268.611,228.695z"/>
			<path style="fill:#B1739A;" d="M379.633,278.476c-29.982-49.47-76.325-50.202-86.451-49.732     c-6.758-0.487-12.348-0.555-14.803-0.801c-7.514-0.751-4.593,27.072-22.543,31.56c-16.531,4.133-33.814-22.543-33.814-22.543     s-19.824,5.484-32.296,11.71c-0.003-0.014-0.015-0.063-0.015-0.063s-55.229,23.67-52.412,34.378     c2.818,10.708,18.222,42.643,21.603,51.66c1.736,4.63,11.943,2.024,21.997-2.367c1.384,21.976,2.558,36.1,2.558,36.1     l156.103,0.124c0,0-0.508-25.098-1.469-52.92c3.374,2.447,6.454,3.317,8.854,1.217     C355.964,308.909,384.964,287.271,379.633,278.476z"/>
			<path style="fill:#E7B400;" d="M201.283,367.938c0,0-4.024-36.646-1.77-40.403c2.254-3.757,19.88-45.113,22.885-45.865     c3.006-0.751,79.275-8.641,80.778-5.636c1.503,3.006,22.543,48.842,22.543,53.351s-2.353,38.64-2.353,38.64L201.283,367.938z"/>
			<path style="fill:#241726;" d="M232.931,174.69c-0.123,0-0.25-0.013-0.376-0.042c-2.608-0.572-7.614-10.186-10.365-15.866     c-0.271-0.559-0.036-1.234,0.523-1.506c0.561-0.265,1.236-0.037,1.507,0.523c2.959,6.107,6.849,12.955,8.494,14.411     c0.758-1.944,1.106-9.298,0.977-15.629c-0.012-0.623,0.482-1.137,1.104-1.15c0.624,0.003,1.137,0.483,1.15,1.104     c0.121,5.931,0.021,16.13-2.008,17.795C233.648,174.568,233.3,174.69,232.931,174.69z"/>
			<path style="fill:#241726;" d="M273.675,172.79c-0.096,0-0.193-0.01-0.291-0.031c-0.732-0.153-2.447-0.512-6.211-18.349     c-0.129-0.609,0.261-1.206,0.871-1.335c0.604-0.127,1.205,0.261,1.335,0.871c1.3,6.158,3.113,13.157,4.23,15.777     c1.375-3.01,3.946-10.507,5.469-15.237c0.192-0.592,0.829-0.916,1.419-0.728c0.592,0.192,0.918,0.827,0.728,1.419     c-0.484,1.501-4.77,14.731-6.373,16.973C274.557,172.564,274.131,172.79,273.675,172.79z"/>
			<path style="fill:#241726;" d="M205.98,177.794c-0.382,0-0.754-0.194-0.965-0.544c-2.986-4.938-6.557-9.373-7.642-9.49     c-0.687,0.124-1.33,3.225-1.244,6.256c0.017,0.622-0.473,1.14-1.095,1.158c-0.608,0.044-1.141-0.471-1.159-1.093     c-0.054-1.868,0.015-8.003,3.168-8.546c2.789-0.495,7.397,6.405,9.901,10.548c0.323,0.533,0.152,1.226-0.381,1.548     C206.38,177.741,206.178,177.794,205.98,177.794z"/>
			<path style="fill:#241726;" d="M296.879,174.166c-0.145,0-0.293-0.028-0.435-0.087c-0.575-0.241-0.845-0.9-0.605-1.475     c1.87-4.471,5.379-11.917,8.243-11.891c3.198,0.075,4.168,6.132,4.39,7.988c0.074,0.618-0.368,1.178-0.985,1.253     c-0.629,0.068-1.179-0.369-1.254-0.985c-0.362-3.012-1.453-5.983-2.204-6.001c-1.003,0.272-3.883,5.183-6.11,10.506     C297.738,173.906,297.32,174.166,296.879,174.166z"/>
			<circle style="fill:#DF4F3E;" cx="223.491" cy="185.485" r="8.495"/>
			<circle style="fill:#DF4F3E;" cx="279.408" cy="185.539" r="8.495"/>
			<circle style="fill:#DF4F3E;" cx="252.499" cy="196.517" r="8.495"/>
			<path style="fill:#241726;" d="M249.624,182.114c-0.516,0-0.981-0.357-1.099-0.881c-0.136-0.608,0.245-1.21,0.853-1.346     c0.272-0.062,6.351-1.418,9.303-1.517c0.416-2.205-1.451-11.789-3.553-19.949c-0.155-0.602,0.208-1.217,0.811-1.373     c0.595-0.15,1.217,0.209,1.373,0.81c1.891,7.342,4.807,19.982,3.079,22.156c-0.32,0.403-0.781,0.614-1.267,0.605     c-2.002-0.061-7.359,1.041-9.253,1.466C249.789,182.106,249.705,182.114,249.624,182.114z"/>
			<path style="fill:#241726;" d="M253.455,201.179c-0.024,0-0.048,0-0.073,0c-5.465-0.1-8.863-12.347-9.488-14.8     c-0.154-0.603,0.21-1.216,0.813-1.37c0.598-0.159,1.216,0.21,1.37,0.813c1.381,5.41,4.573,13.053,7.345,13.103     c1.02,0.059,3.509-1.058,6.553-11.409c0.175-0.595,0.794-0.943,1.399-0.763c0.597,0.175,0.939,0.801,0.763,1.399     C259.526,197.035,256.765,201.179,253.455,201.179z"/>
			<path style="fill:#241726;" d="M253.871,215.811c-13.468,0-27.073-6.047-27.803-6.378c-0.568-0.255-0.82-0.922-0.564-1.49     c0.255-0.567,0.92-0.819,1.49-0.565c0.221,0.101,22.368,9.938,37.359,4.543c0.588-0.217,1.231,0.092,1.442,0.678     c0.211,0.586-0.092,1.232-0.678,1.442C261.586,215.313,257.734,215.811,253.871,215.811z"/>
			<path style="fill:#1A1F36;" d="M128.847,361.696c0,0-72.136-4.509-75.142,3.006c-3.006,7.514-1.503,18.034-1.503,18.034     l79.651-4.509L128.847,361.696z"/>
			<path style="fill:#E17B8D;" d="M131.101,355.685c0,0,87.331-29.234,148.781,1.127c10.105,4.993-9.017,56.357-76.645,64.246     S114.458,361.109,131.101,355.685z"/>
			<g>
				<path style="fill:#FFFFFF;" d="M149.729,361.849c0,0,17.876-7.226,37.405,8.044c19.529,15.27,13.133,32.221-12.633,30.801      S123.396,372.831,149.729,361.849z"/>
				<path style="fill:#E7B400;" d="M167.72,369.456c0,0,7.705-1.178,11.051,8.336s-6.985,13.004-16.4,8.253      S156.303,368.849,167.72,369.456z"/>
			</g>
			<g>
				<path style="fill:#DF4F3E;" d="M193.33,365.12c0,0,7.947-6.812,11.353-6.244c3.406,0.568,3.973,5.96,9.65,9.366      c5.676,3.406,13.907,1.987,17.597,6.812s3.973,13.907,9.082,14.191c5.109,0.284-3.122,7.379-9.65,9.934      c-6.528,2.554-7.947-7.663-13.339-13.339C212.63,380.163,198.155,385.555,193.33,365.12z"/>
				<path style="fill:#241726;" d="M229.374,391.791c-0.565,0-1.052-0.424-1.118-0.998c-0.779-6.751-7.345-9.435-17.993-13.258      c-11.884-4.266-9.538-14.562-9.512-14.666c0.144-0.604,0.748-0.972,1.356-0.829c0.604,0.144,0.977,0.751,0.835,1.356      c-0.08,0.342-1.857,8.448,8.083,12.017c11.506,4.131,18.557,7.21,19.471,15.123c0.072,0.617-0.372,1.177-0.991,1.248      C229.461,391.788,229.417,391.791,229.374,391.791z"/>
			</g>
			<g>
				<path style="fill:#DF4F3E;" d="M215.752,352.632c0,0,7.947-6.812,11.353-6.244c3.406,0.568,3.973,5.96,9.65,9.366      c5.676,3.406,13.907,1.987,17.597,6.812c3.69,4.825,3.973,13.907,9.082,14.191s-3.122,7.379-9.65,9.934      s-7.947-7.663-13.339-13.339C235.051,367.675,220.576,373.067,215.752,352.632z"/>
				<path style="fill:#241726;" d="M250.376,378.451c-0.536,0-1.01-0.383-1.108-0.928c-1.235-6.881-2.526-7.434-6.804-9.266      c-2.077-0.889-4.92-2.107-8.59-4.459c-5.173-3.316-7.958-6.495-8.277-9.447c-0.226-2.081,0.868-3.242,0.994-3.367      c0.44-0.44,1.154-0.44,1.594,0c0.435,0.435,0.44,1.135,0.018,1.576c-0.043,0.05-0.494,0.598-0.354,1.633      c0.171,1.254,1.338,3.922,7.244,7.707c3.511,2.251,6.144,3.378,8.26,4.285c4.59,1.966,6.686,2.863,8.135,10.939      c0.11,0.613-0.297,1.199-0.91,1.309C250.51,378.446,250.443,378.451,250.376,378.451z"/>
			</g>
			<path style="fill:#E38B72;" d="M157.401,329.385c-12.023-30.433-18.41-42.831-18.41-42.831     c-71.894,48.377-74.44,61.138-74.731,63.776c-5.031,4.182-5.068,10.473-2.928,10.902c11.271,2.254,14.915,26.012,20.927,27.515     c6.011,1.503,6.011-4.509,6.011-4.509s1.503,3.757,5.26,3.006c3.757-0.751,6.011-3.757,6.011-6.011s3.006,4.509,9.769-0.751     c5.444-4.234,3.096-16.255,0.405-25.096C125.469,346.043,158.888,333.151,157.401,329.385z"/>
			<path style="fill:#1A1F36;" d="M341.331,274.653c-0.31-3.083-14.747-8.227-14.747-8.227l-39.382,56.522     c0,0-19.549-1.334-21.47,1.423c-1.921,2.757-23.564,26.177-20.497,31.181c3.067,5.004,35.317,23.379,39.36,21.69     c4.043-1.688,22.945-32.343,22.945-32.343l-9.835-15.863C297.705,329.037,341.641,277.736,341.331,274.653z M261.183,357.5     c-1.156,0.116-5.971-2.01-4.891-3.561c0,0,16.889-24.019,18.922-24.292c2.033-0.273,4.142,0.889,5.094,2.167     C281.261,333.093,262.339,357.384,261.183,357.5z M274.868,365.193c-1.156,0.116-5.971-2.01-4.891-3.561     c0,0,16.889-24.019,18.922-24.292c2.033-0.273,4.142,0.889,5.094,2.167C294.946,340.785,276.024,365.077,274.868,365.193z"/>
			<path style="fill:#FBFCFF;" d="M219.77,282.046c-0.364,0-0.722-0.176-0.939-0.502c-12.089-18.132-11.49-34.911-11.46-35.616     c0.028-0.622,0.536-1.067,1.176-1.076c0.621,0.028,1.103,0.554,1.077,1.176c-0.007,0.165-0.576,16.779,11.083,34.266     c0.346,0.518,0.206,1.217-0.313,1.563C220.202,281.984,219.985,282.046,219.77,282.046z"/>
			<path style="fill:#FBFCFF;" d="M298.667,274.156c-0.187,0-0.376-0.046-0.551-0.145c-0.543-0.305-0.735-0.992-0.429-1.534     c6.448-11.465-2.259-39.403-2.347-39.685c-0.188-0.593,0.141-1.226,0.735-1.413s1.228,0.142,1.413,0.735     c0.374,1.184,9.085,29.161,2.162,41.468C299.444,273.949,299.061,274.156,298.667,274.156z"/>
			<path style="fill:#FFFFFF;" d="M276.125,227.943c0,0,18.535,21.135,7.138,36.068c-10.896,14.277-24.797-4.133-28.178-1.127     c-7.587,6.744-19.913,18.41-25.924,14.653c-6.011-3.757-15.552-38.658-9.165-42.416c6.387-3.757,16.269,21.751,34.713,21.751     C265.605,256.873,272.368,226.065,276.125,227.943z"/>
			<path style="fill:#1A1F36;" d="M305.43,109.219c-7.514-19.537-49.969-32.687-77.021-24.797     c-20.114,5.867-29.395,15.775-34.553,26.733c-6.643-1.418-27.869-4.162-39.65,15.158c-14.089,23.106,5.072,40.577,5.072,59.174     s-15.216,24.233-9.017,29.305c4.146,3.392,13.068,2.477,19.375-2.364c-1.234,1.766-2.619,3.693-4.159,5.746     c-6.763,9.017,30.996,2.818,36.068-14.653c5.072-17.471-24.233-24.797-7.326-48.467c0.106-0.148,0.197-0.302,0.299-0.451     c3.899,4.974,8.418,7.829,10.221,9.468c4.133,3.757,43.207-15.028,46.588-51.097c0,0,8.641,0.376,23.294,13.901     c14.653,13.526,15.404,27.051,19.537,31.56C298.292,162.946,312.945,128.756,305.43,109.219z"/>
			<path style="fill:#FBFCFF;" d="M297.354,137.585c-0.063,0-0.127-0.005-0.19-0.017c-0.613-0.103-1.026-0.686-0.921-1.3     c1.159-6.811-0.032-12.709-3.539-17.531c-7.206-9.906-21.854-12.139-22-12.161c-0.616-0.089-1.043-0.662-0.953-1.277     c0.088-0.616,0.648-1.054,1.277-0.953c0.64,0.092,15.74,2.398,23.499,13.064c3.878,5.332,5.203,11.804,3.937,19.236     C298.37,137.197,297.893,137.585,297.354,137.585z"/>
			<path style="fill:#FBFCFF;" d="M211.128,149.42c-0.404,0-0.794-0.217-0.996-0.599c-0.293-0.549-0.084-1.232,0.467-1.523     c17.422-9.256,25.311-31.279,25.389-31.501c0.206-0.586,0.85-0.892,1.436-0.69c0.587,0.206,0.896,0.849,0.691,1.435     c-0.329,0.938-8.245,23.07-26.46,32.746C211.487,149.378,211.307,149.42,211.128,149.42z"/>
			<path style="fill:#FBFCFF;" d="M200.421,141.53c-0.037,0-0.075-0.002-0.113-0.006c-0.62-0.062-1.071-0.614-1.009-1.234     c1.17-11.699,25.974-26.709,27.029-27.342c0.535-0.319,1.227-0.147,1.547,0.386c0.32,0.534,0.147,1.226-0.386,1.547     c-0.249,0.15-24.888,15.053-25.946,25.633C201.483,141.096,200.993,141.53,200.421,141.53z"/>
			<path style="fill:#FBFCFF;" d="M176.185,165.2c-0.49,0-0.941-0.323-1.083-0.818c-2.608-9.127-2.272-16.215,0.997-21.067     c3.418-5.073,8.758-5.699,8.984-5.724c0.616-0.066,1.17,0.38,1.238,0.996c0.068,0.618-0.378,1.174-0.994,1.245     c-0.046,0.004-4.568,0.568-7.382,4.776c-2.857,4.275-3.085,10.72-0.675,19.155c0.171,0.598-0.176,1.222-0.775,1.394     C176.392,165.185,176.289,165.2,176.185,165.2z"/>
			<path style="fill:#FBFCFF;" d="M169.986,194.505c-0.178,0-0.359-0.042-0.527-0.131c-0.55-0.293-0.759-0.974-0.468-1.524     c8.37-15.773,3.047-22.837-2.101-29.668c-3.621-4.806-7.367-9.775-5.899-17.358c3.478-17.974,20.396-22.255,20.567-22.296     c0.595-0.15,1.211,0.223,1.358,0.83c0.147,0.604-0.225,1.213-0.828,1.36c-0.64,0.156-15.686,4.011-18.885,20.535     c-1.277,6.598,1.857,10.756,5.486,15.572c5.313,7.05,11.335,15.04,2.294,32.081C170.781,194.288,170.39,194.505,169.986,194.505z     "/>
			<path style="fill:#E38B72;" d="M408.651,329.422c-1.976-18.219-30.145-44.747-30.145-44.747s-7.807,7.961-14.898,16.515     c-9.346-4.499-17.854-8.352-22.822-10.564c-0.001-0.007-0.005-0.046-0.005-0.046s-22.577-12.291-27.837-10.037     c-5.26,2.254-24.797,27.051-20.288,32.311c4.258,4.967,21.57,1.734,29.813,4.521c0.323,0.31,0.764,0.51,1.371,0.551     c1.553,0.776,2.493,0.961,3.117,0.788c11.465,4.213,38.911,24.037,49.295,30.772C396.61,362.691,412.122,340.448,408.651,329.422     z"/>
			<path style="fill:#241726;" d="M394.85,316.799c-0.288,0-0.577-0.11-0.797-0.33c-2.644-2.644-22.602-11.298-30.069-14.409     c-0.575-0.239-0.846-0.899-0.607-1.474c0.24-0.575,0.905-0.843,1.474-0.607c2.789,1.162,27.356,11.456,30.796,14.896     c0.44,0.44,0.44,1.154,0,1.594C395.426,316.689,395.138,316.799,394.85,316.799z"/>
			<path style="fill:#241726;" d="M110.813,355.31c-0.462,0-0.895-0.286-1.06-0.745c-1.387-3.85-3.912-6.637-7.507-8.283     c-10.527-4.823-26.933,1.375-27.097,1.439c-0.578,0.219-1.232-0.068-1.456-0.648c-0.223-0.581,0.067-1.233,0.647-1.456     c0.707-0.27,17.447-6.598,28.84-1.387c4.17,1.908,7.094,5.128,8.693,9.572c0.211,0.586-0.092,1.232-0.678,1.442     C111.068,355.289,110.939,355.31,110.813,355.31z"/>
			<path style="fill:#241726;" d="M106.305,381.609c-0.09,0-0.183-0.011-0.274-0.034c-0.604-0.151-0.972-0.763-0.82-1.366     c1.139-4.56-4.253-14.977-6.427-18.606c-0.32-0.534-0.146-1.226,0.387-1.545c0.534-0.321,1.227-0.147,1.545,0.387     c0.339,0.565,8.277,13.921,6.68,20.31C107.269,381.268,106.81,381.609,106.305,381.609z"/>
			<path style="fill:#241726;" d="M99.54,382.361c-0.535,0-1.009-0.381-1.107-0.926c-1.423-7.828-9.847-16.616-9.932-16.704     c-0.433-0.448-0.42-1.161,0.026-1.594c0.449-0.431,1.162-0.419,1.594,0.026c0.365,0.379,8.983,9.364,10.528,17.869     c0.112,0.612-0.294,1.199-0.907,1.31C99.674,382.355,99.607,382.361,99.54,382.361z"/>
			<path style="fill:#241726;" d="M88.059,383.865c-0.472,0-0.911-0.298-1.069-0.771c-0.593-1.777-5.575-11.331-7.444-14.863     c-0.292-0.55-0.081-1.232,0.469-1.523c0.553-0.293,1.232-0.08,1.523,0.469c0.278,0.525,6.818,12.888,7.589,15.204     c0.197,0.591-0.122,1.228-0.712,1.425C88.296,383.847,88.176,383.865,88.059,383.865z"/>
			<path style="fill:#241726;" d="M197.607,342c-0.105,0-0.211-0.014-0.317-0.045c-23.508-6.903-19.286-25.063-15.893-39.657     c0.826-3.552,1.606-6.907,1.934-9.857c0.07-0.62,0.642-1.051,1.245-0.996c0.619,0.069,1.064,0.626,0.996,1.245     c-0.343,3.083-1.138,6.501-1.979,10.119c-3.344,14.381-7.133,30.68,14.331,36.982c0.598,0.176,0.94,0.802,0.765,1.399     C198.544,341.682,198.095,342,197.607,342z"/>
			<path style="fill:#241726;" d="M163.411,329.761c-0.567,0-1.056-0.426-1.119-1.003c-0.725-6.527-17.039-45.883-17.204-46.28     c-0.239-0.576,0.034-1.235,0.609-1.474c0.578-0.237,1.235,0.034,1.474,0.609c0.677,1.632,16.602,40.052,17.363,46.896     c0.068,0.619-0.378,1.176-0.996,1.245C163.495,329.759,163.453,329.761,163.411,329.761z"/>
			<path style="fill:#241726;" d="M361.037,293.693c-0.074,0-0.147-0.007-0.222-0.022c-0.61-0.122-1.006-0.715-0.884-1.326     c0.791-3.953,9.101-13.046,10.046-14.069c0.422-0.458,1.136-0.484,1.593-0.063s0.485,1.135,0.063,1.593     c-2.448,2.653-8.926,10.156-9.491,12.982C362.034,293.323,361.563,293.693,361.037,293.693z"/>
			<path style="fill:#241726;" d="M210.555,342.545c-0.558,0-1.042-0.414-1.116-0.982c-0.351-2.693-2.023-16.291-0.447-19.444     c1.502-3.005,16.529-33.433,16.529-33.433c0.167-0.34,0.494-0.572,0.87-0.62c69.109-8.734,70.164-6.974,70.613-6.225     c1.129,1.882,3.764,6.4,3.764,6.4l-1.946,1.136c-0.001-0.001-2.35-4.026-3.556-6.05c-4.365-0.675-43.426,3.802-67.992,6.899     c-2.026,4.103-14.882,30.132-16.265,32.9c-0.982,1.964-0.113,12.172,0.665,18.145c0.08,0.616-0.354,1.182-0.972,1.263     C210.652,342.541,210.603,342.545,210.555,342.545z"/>
			<path style="fill:#241726;" d="M313.321,363.575c-0.107,0-0.216-0.015-0.324-0.047c-0.597-0.179-0.935-0.808-0.756-1.403     c0.783-2.608-0.721-26.122-1.923-41.291c-0.048-0.621,0.414-1.163,1.035-1.213c0.634-0.046,1.162,0.414,1.213,1.035     c0.309,3.905,2.99,38.269,1.835,42.117C314.254,363.26,313.806,363.575,313.321,363.575z"/>
			<path style="fill:#241726;" d="M309.752,308.345c-0.336,0-0.668-0.15-0.89-0.435c-3.441-4.425-13.376-1.881-13.477-1.857     c-0.601,0.156-1.217-0.201-1.376-0.803c-0.159-0.602,0.201-1.217,0.802-1.376c0.468-0.121,11.479-2.943,15.829,2.652     c0.383,0.492,0.294,1.2-0.197,1.582C310.238,308.268,309.993,308.345,309.752,308.345z"/>
			<path style="fill:#241726;" d="M314.695,299.859c-0.183,0-0.368-0.044-0.538-0.138c-7.491-4.087-12.586-3.761-13.607-3.27     c-0.252,0.382-0.722,0.59-1.195,0.479c-0.606-0.14-0.985-0.745-0.845-1.352c0.116-0.5,0.482-0.893,1.092-1.167     c2.1-0.941,7.997-0.835,15.635,3.331c0.547,0.298,0.749,0.983,0.45,1.529C315.48,299.646,315.094,299.859,314.695,299.859z"/>
			<path style="fill:#241726;" d="M318.205,290.875c-0.259,0-0.517-0.088-0.73-0.267c-0.172-0.142-3.718-2.974-10.868-1.449     c-0.621,0.128-1.209-0.258-1.338-0.865c-0.131-0.609,0.256-1.209,0.865-1.338c8.339-1.79,12.626,1.782,12.805,1.937     c0.473,0.405,0.528,1.116,0.122,1.588C318.838,290.742,318.522,290.875,318.205,290.875z"/>
		</g>
		<path style="fill:#DF4F3E;" d="M222.023,437.59c0,0-31.56,4.133-48.467-0.751c-16.907-4.884-19.405-22.338-18.786-26.675    c0.376-2.63,20.664,6.387,21.04,7.138c0,0,0-11.271,9.017-14.277c9.017-3.006,1.503,9.393,10.144,10.896    s6.387-16.907,13.15-14.277s2.254,10.144,12.023,12.774c9.768,2.63,15.404-14.277,19.537-9.393    C243.814,407.909,241.184,435.711,222.023,437.59z"/>
		<path style="fill:#E7B400;" d="M216.399,438.955c0,0,16.213-1.853,15.392-20.527c-0.315-7.171-7.139,4.133-12.023,6.011    c-4.884,1.879-4.884-8.266-9.768-8.266s-2.254,8.641-6.763,11.647s-8.266-11.647-12.023-7.514    c-3.757,4.133-7.514,9.393-7.514,9.393s-12.163-8.478-13.15-6.011c-1.503,3.757,3.947,11.268,10.334,14.649    C187.272,441.719,199.492,440.834,216.399,438.955z"/>
		<g>
			<path style="fill:#E17B8D;" d="M429.603,366.581c-1.127-3.381-15.216-10.426-15.216-10.426l-2.915-39.112     c1.954-0.028,3.382-0.056,3.76-0.056c1.691,0,0.564-4.227-0.564-8.172c-1.127-3.945-23.952-2.536-23.952-2.536     s-1.972,8.453-0.564,9.862c0.309,0.309,1.641,0.519,3.498,0.665c-0.846,12.929,0.447,39.63,0.447,39.63     s-7.045,6.199-12.68,11.835c-4.647,4.647,2.536,77.772,2.536,77.772s44.803-0.564,49.312-0.564     C434.675,445.48,430.73,369.962,429.603,366.581z"/>
			<path style="fill:#FFFFFF;" d="M379.755,384.896c0,0,50.353-3.663,51.878-0.845c1.526,2.818,3.042,33.814,2.136,35.223     c-1.572,2.446-50.047,3.381-51.573,3.1C380.671,422.092,378.534,386.587,379.755,384.896z"/>
			<path style="fill:#241726;" d="M382.501,392.787c-0.581,0-1.074-0.446-1.123-1.036c-0.051-0.621,0.412-1.165,1.032-1.215     c4.269-0.347,41.848-3.356,46.789-1.932c0.598,0.173,0.943,0.798,0.77,1.396c-0.173,0.598-0.799,0.941-1.396,0.77     c-3.438-0.99-29.381,0.66-45.981,2.013C382.562,392.786,382.532,392.787,382.501,392.787z"/>
			<path style="fill:#241726;" d="M383.415,419.274c-0.589,0-1.084-0.457-1.124-1.052c-0.041-0.621,0.429-1.158,1.05-1.2     c14.634-0.972,43.181-3.04,46.479-3.91c0.592-0.155,1.219,0.199,1.377,0.802c0.159,0.602-0.2,1.219-0.802,1.377     c-4.328,1.141-45.168,3.865-46.904,3.98C383.466,419.273,383.441,419.274,383.415,419.274z"/>
			<path style="fill:#241726;" d="M405.652,316.987c-0.067,0-0.134-0.006-0.203-0.019c-2.944-0.535-9.83-0.266-9.898-0.264     c-0.632,0.042-1.147-0.46-1.171-1.081c-0.025-0.622,0.459-1.147,1.081-1.171c0.293-0.011,7.209-0.281,10.391,0.299     c0.613,0.111,1.019,0.698,0.907,1.31C406.661,316.606,406.187,316.987,405.652,316.987z"/>
			<path style="fill:#241726;" d="M411.004,310.506c-0.169,0-0.341-0.039-0.503-0.119c-1.25-0.626-9.298-0.715-16.36-0.446     c-0.58,0.05-1.146-0.459-1.169-1.083c-0.024-0.622,0.461-1.146,1.083-1.169c2.494-0.097,15.063-0.515,17.454,0.681     c0.557,0.278,0.783,0.955,0.504,1.512C411.815,310.278,411.418,310.506,411.004,310.506z"/>
			<path style="fill:#241726;" d="M389.588,443.789c-0.525,0-0.995-0.369-1.104-0.904c-0.123-0.61,0.272-1.204,0.882-1.329     c0.977-0.195,24.074-4.805,36.864-1.392c0.601,0.16,0.959,0.777,0.798,1.379c-0.161,0.602-0.775,0.961-1.379,0.798     c-12.276-3.272-35.6,1.378-35.836,1.425C389.738,443.783,389.662,443.789,389.588,443.789z"/>
			<path style="fill:#241726;" d="M408.469,348.829c-0.488,0-0.937-0.318-1.081-0.809c-1.432-4.866-1.994-17.758-2.018-18.304     c-0.026-0.622,0.456-1.148,1.078-1.174c0.636-0.043,1.149,0.456,1.174,1.078c0.005,0.132,0.573,13.161,1.927,17.764     c0.176,0.598-0.166,1.224-0.763,1.399C408.681,348.814,408.573,348.829,408.469,348.829z"/>
			<path style="fill:#241726;" d="M425.94,368.553c-0.373,0-0.737-0.185-0.952-0.522c-1.464-2.301-7.66-5.353-9.923-6.334     c-0.571-0.248-0.833-0.911-0.586-1.483c0.247-0.57,0.911-0.833,1.482-0.587c0.898,0.39,8.831,3.897,10.929,7.192     c0.335,0.525,0.179,1.222-0.346,1.556C426.356,368.496,426.147,368.553,425.94,368.553z"/>
			<path style="fill:#241726;" d="M394.663,408.003c-0.013,0-0.025,0-0.039-0.001c-0.622-0.02-1.109-0.542-1.089-1.163     c0.018-0.548,0.256-5.413,2.98-7.549c1.109-0.871,2.496-1.166,4.014-0.843c3.947,0.831,4.073,4.194,4.132,5.81     c0.002,0.053,0.004,0.108,0.007,0.165c0.743-0.702,1.279-1.935,1.764-3.049c0.767-1.762,1.491-3.427,2.919-3.916     c0.703-0.239,1.439-0.153,2.193,0.259c2.255,1.231,2.134,3.637,2.054,5.231c-0.026,0.52-0.075,1.487,0.083,1.668     c0.652,0.163,1.996-1.078,2.895-1.895c1.834-1.665,4.347-3.945,6.687-2.076c0.485,0.39,0.565,1.099,0.176,1.585     c-0.39,0.484-1.095,0.568-1.585,0.176c-0.775-0.626-2.051,0.429-3.762,1.983c-1.605,1.46-3.115,2.835-4.795,2.463     c-2.129-0.473-2.021-2.607-1.949-4.019c0.08-1.608,0.062-2.622-0.882-3.137c-0.099-0.054-0.277-0.143-0.383-0.106     c-0.488,0.167-1.147,1.682-1.584,2.685c-0.753,1.731-1.608,3.694-3.189,4.484c-0.285,0.146-1.159,0.583-1.976,0.1     c-0.85-0.504-0.888-1.528-0.925-2.517c-0.073-1.945-0.275-3.251-2.345-3.687c-0.868-0.184-1.575-0.048-2.158,0.411     c-1.62,1.271-2.078,4.654-2.119,5.85C395.768,407.523,395.267,408.003,394.663,408.003z"/>
		</g>
		<g>
			<path style="fill:#FFFFFF;" d="M328.672,367.327c0,0,15.884-1.025,16.396,0.384c0.512,1.409,12.425,32.665,9.223,35.226     s-27.156,3.074-31.512,0.512C318.424,400.888,327.519,366.687,328.672,367.327z"/>
			<path style="fill:#1A1F36;" d="M323.804,355.286c0,0,23.466-2.919,25.013,0.176s-2.202,9.928-3.749,12.25     c0,0-11.338,1.677-15.594,0.904C325.219,367.841,316.841,355.673,323.804,355.286z"/>
			<path style="fill:#FFFFFF;" d="M328.36,357.547c0,0,2.06-0.721,2.781,0.412c0.721,1.133-1.442,1.957-2.575,1.236     C327.433,358.474,327.227,357.65,328.36,357.547z"/>
			<path style="fill:#FFFFFF;" d="M334.765,356.138c0,0,2.06-0.721,2.781,0.412c0.721,1.133-1.442,1.957-2.575,1.236     C333.838,357.065,333.632,356.241,334.765,356.138z"/>
			<path style="fill:#FFFFFF;" d="M331.435,360.622c0,0,2.06-0.721,2.781,0.412c0.721,1.133-1.442,1.957-2.575,1.236     C330.508,361.548,330.302,360.725,331.435,360.622z"/>
			<path style="fill:#FFFFFF;" d="M338.48,360.878c0,0,2.06-0.721,2.781,0.412c0.721,1.133-1.442,1.957-2.575,1.236     C337.553,361.805,337.347,360.981,338.48,360.878z"/>
			<path style="fill:#FFFFFF;" d="M341.554,358.06c0,0,2.06-0.721,2.781,0.412c0.721,1.133-1.442,1.957-2.575,1.236     C340.627,358.987,340.421,358.163,341.554,358.06z"/>
			<path style="fill:#241726;" d="M349.224,395.239c-0.479,0-0.923-0.307-1.075-0.788c-1.484-4.702-5.325-19.814-5.487-20.455     c-0.154-0.603,0.211-1.216,0.815-1.369c0.602-0.157,1.216,0.209,1.369,0.815c0.041,0.156,3.989,15.691,5.454,20.331     c0.187,0.593-0.142,1.226-0.736,1.414C349.451,395.223,349.336,395.239,349.224,395.239z"/>
		</g>
	</g>
</g>















</svg>
