<?xml version="1.0" encoding="UTF-8"?>
<!-- Generator: Adobe Illustrator 26.4.1, SVG Export Plug-In . SVG Version: 6.00 Build 0)  -->
<svg xmlns="http://www.w3.org/2000/svg" xmlns:xlink="http://www.w3.org/1999/xlink" version="1.1" id="Capa_1" x="0px" y="0px" viewBox="0 0 496.012 496.012" style="enable-background:new 0 0 496.012 496.012;" xml:space="preserve" width="512" height="512">
<g>
	<g>
		<path style="fill:#FFFFFF;" d="M442.387,358.973c0,0-1.862-15.711,13.169-10.44c15.031,5.272,9.924,19.568,4.233,14.579    c-5.691-4.989,5.325-21.515,16.781-13.943c11.456,7.572,8.684,21.939,0.476,22.895c-8.208,0.956,5.179-16.703,15.359-5.556    s-12.621,30.928-21.742,23.427s-1.752-19.321,0.364-12.031s-3.939,14.332-20.283,13.837s-8.575-25.548-2.956-18.153    s-3.976,15.535-15.395,6.759S434.361,353.913,442.387,358.973z"/>
		<path style="fill:#241726;" d="M452.346,392.811c-0.534,0-1.078-0.008-1.634-0.025c-5.358-0.164-9.093-2.957-10.36-7.704    c-2.815-0.395-5.771-1.734-8.597-3.906c-4.443-3.415-5.918-8.528-4.049-14.031c1.928-5.671,7.009-10.115,11.569-10.115    c0.69,0,1.355,0.098,1.991,0.288c0.009-2.172,0.39-5.857,2.606-8.352c2.505-2.818,6.596-3.325,12.032-1.421    c2.086,0.732,3.909,1.669,5.435,2.796c2.593-2.665,5.875-4.174,9.136-4.174c2.291,0,4.537,0.716,6.674,2.129    c4.95,3.272,7.917,8.244,8.097,13.471c2.927,0.119,5.594,1.474,7.932,4.035c3.143,3.442,3.692,8.017,1.546,12.884    c-3.277,7.432-12.196,13.951-19.086,13.951c-2.215,0-4.113-0.638-5.641-1.896c-0.713-0.585-1.356-1.219-1.921-1.888    C464.551,391.447,459.146,392.811,452.346,392.811z M442.57,385.193c0.899,2.655,3.08,5.344,8.205,5.499    c8.703,0.274,13.57-1.687,16.08-3.542c-2.237-3.73-2.023-7.784-0.731-10.287c0.753-1.458,1.834-2.295,2.968-2.295    c0.768,0,2.171,0.397,2.939,3.041c1.06,3.652,0.193,7.197-2.376,9.867c0.488,0.583,1.048,1.135,1.672,1.648    c1.144,0.941,2.594,1.417,4.311,1.417c6.054,0,14.239-6.055,17.169-12.702c1.267-2.873,2.092-7.049-1.176-10.628    c-1.942-2.125-4.115-3.254-6.464-3.354c-0.558,5.008-3.746,8.751-8,9.246c-0.261,0.029-0.505,0.043-0.73,0.043    c-0.001,0-0.001,0-0.001,0c-2.136,0.002-2.941-1.29-2.982-2.499c-0.101-2.961,4.216-7.886,9.701-8.757    c-0.139-4.567-2.766-8.943-7.162-11.849c-4.317-2.855-9.33-2.09-13.054,1.656c3.502,3.423,4.124,7.591,3.115,10.36    c-1.138,3.121-4.395,4.082-6.954,1.841c-3.141-2.753-2.046-8.037,0.875-11.962c-1.333-0.963-2.932-1.773-4.765-2.417    c-4.558-1.601-7.838-1.335-9.769,0.832c-2.624,2.947-2.02,8.442-2.013,8.497c0.046,0.401-0.141,0.793-0.482,1.008    c-0.34,0.217-0.774,0.217-1.117,0c-0.772-0.487-1.632-0.734-2.555-0.734c-3.657,0-7.956,3.902-9.585,8.696    c-1.563,4.599-0.346,8.863,3.342,11.696c2.305,1.771,4.674,2.922,6.927,3.376c-0.407-4.041,0.872-7.97,2.518-9.988    c0.923-1.131,1.994-1.728,3.096-1.728c0.775,0,1.933,0.309,3.049,1.777c1.985,2.612,2.414,5.536,1.18,8.025    C448.57,383.459,445.828,385.046,442.57,385.193z M469.093,376.663c-0.196,0-0.671,0.315-1.107,1.162    c-0.946,1.832-1.13,4.951,0.457,7.88c1.828-2.088,2.391-4.714,1.579-7.509C469.697,377.081,469.28,376.663,469.093,376.663z     M445.572,373.271c-0.446,0-0.969,0.339-1.473,0.959c-1.405,1.72-2.465,5.401-2.006,8.88c2.705-0.006,4.885-1.149,5.833-3.061    c0.868-1.749,0.514-3.873-0.97-5.826C446.624,373.788,446.117,373.271,445.572,373.271z M483.031,364.043    c-4.35,0.931-7.538,4.959-7.484,6.534c0.006,0.19,0.015,0.477,0.888,0.477h0.001c0.151,0,0.315-0.01,0.489-0.031    C480.071,370.657,482.464,367.859,483.031,364.043z M461.573,353.293c-2.52,3.417-3.044,7.323-1.093,9.033    c1.478,1.299,2.944,0.834,3.606-0.984C464.85,359.246,464.325,356.041,461.573,353.293z"/>
	</g>
	<path style="fill:#241726;" d="M438.923,424.187l-0.024-0.019c-3.155-2.446-3.73-7.002-1.283-10.159   c2.436-3.142,6.981-3.726,10.133-1.303c1.553,1.204,2.529,2.914,2.772,4.834c0.242,1.917-0.277,3.816-1.461,5.344   C446.622,426.024,442.074,426.609,438.923,424.187z M446.49,414.38c-2.259-1.736-5.488-1.32-7.219,0.912   c-1.74,2.243-1.331,5.483,0.911,7.221l-0.62,0.844l0.638-0.83c2.239,1.721,5.471,1.306,7.204-0.926   c0.842-1.086,1.211-2.435,1.037-3.799C448.27,416.437,447.576,415.222,446.49,414.38z"/>
	<path style="fill:#241726;" d="M440.794,112.388l-0.024-0.019c-3.155-2.446-3.73-7.002-1.283-10.159   c2.436-3.142,6.981-3.726,10.133-1.303c1.553,1.204,2.529,2.914,2.772,4.834c0.242,1.917-0.277,3.816-1.461,5.344   C448.492,114.225,443.944,114.809,440.794,112.388z M448.361,102.581c-2.259-1.736-5.488-1.32-7.219,0.912   c-1.74,2.243-1.331,5.483,0.911,7.221l-0.62,0.844l0.638-0.83c2.239,1.721,5.471,1.306,7.204-0.926   c0.842-1.086,1.211-2.435,1.037-3.799C450.14,104.638,449.446,103.423,448.361,102.581z"/>
	<path style="fill:#241726;" d="M16.835,161.975l-0.024-0.019c-3.155-2.446-3.73-7.002-1.283-10.159   c2.436-3.142,6.981-3.726,10.133-1.303c1.553,1.204,2.529,2.914,2.772,4.834c0.242,1.917-0.277,3.816-1.461,5.344   C24.533,163.812,19.985,164.397,16.835,161.975z M24.402,152.168c-2.259-1.736-5.488-1.32-7.219,0.912   c-1.74,2.243-1.331,5.483,0.911,7.221l-0.62,0.844l0.638-0.83c2.239,1.721,5.471,1.306,7.204-0.926   c0.842-1.086,1.211-2.435,1.037-3.799C26.182,154.225,25.488,153.011,24.402,152.168z"/>
	<path style="fill:#241726;" d="M113.171,53.569l-0.024-0.019c-3.155-2.446-3.73-7.002-1.283-10.159   c2.436-3.142,6.981-3.726,10.133-1.303c1.553,1.204,2.529,2.914,2.772,4.834c0.242,1.917-0.277,3.816-1.461,5.344   C120.869,55.406,116.321,55.99,113.171,53.569z M120.738,43.762c-2.259-1.736-5.488-1.32-7.219,0.912   c-1.74,2.243-1.331,5.483,0.911,7.221l-0.62,0.844l0.638-0.83c2.239,1.721,5.471,1.306,7.204-0.926   c0.842-1.086,1.211-2.435,1.037-3.799C122.518,45.819,121.824,44.604,120.738,43.762z"/>
	<path style="fill:#241726;" d="M18.155,326.681h-0.006l-4.051-0.014l4.292-2.909c0.479-0.325,0.604-0.976,0.279-1.455   c-0.327-0.481-0.982-0.6-1.455-0.279l-5.789,3.925l0.128-6.764c0.012-0.579-0.448-1.055-1.027-1.067l-0.006,0   c-0.575-0.007-1.049,0.451-1.06,1.027l-0.113,5.969l-3.541-3.841c-0.393-0.422-1.053-0.453-1.48-0.06   c-0.424,0.391-0.451,1.056-0.06,1.48l3.643,3.951l-6.709-0.024c-0.579-0.001-1.049,0.465-1.051,1.044   c-0.001,0.575,0.459,1.043,1.034,1.05l0.01,0l6.12,0.022l-4.782,3.242c-0.479,0.325-0.604,0.976-0.279,1.455   c0.201,0.295,0.524,0.455,0.853,0.459c0.209,0.003,0.418-0.056,0.602-0.18l5.548-3.761l-0.129,6.814   c-0.012,0.579,0.449,1.055,1.027,1.067l0.006,0c0.575,0.007,1.049-0.451,1.061-1.027l0.122-6.436l3.774,4.094   c0.204,0.219,0.478,0.333,0.756,0.337c0.258,0.003,0.519-0.087,0.724-0.277c0.424-0.391,0.451-1.056,0.06-1.48l-3.952-4.287   l5.439,0.019c0.579,0.001,1.049-0.465,1.051-1.044C19.194,327.157,18.734,326.689,18.155,326.681z"/>
	<path style="fill:#241726;" d="M451.612,321.08l-0.006,0l-4.051-0.014l4.291-2.909c0.479-0.325,0.604-0.976,0.279-1.455   c-0.327-0.481-0.982-0.6-1.455-0.279l-5.789,3.925l0.128-6.764c0.012-0.579-0.449-1.055-1.027-1.067h-0.006   c-0.575-0.008-1.049,0.451-1.061,1.027l-0.113,5.969l-3.541-3.841c-0.393-0.422-1.054-0.453-1.48-0.06   c-0.424,0.391-0.451,1.056-0.06,1.48l3.643,3.951l-6.709-0.024c-0.579-0.001-1.049,0.465-1.051,1.044   c-0.001,0.575,0.459,1.043,1.034,1.05l0.01,0l6.12,0.021l-4.782,3.242c-0.479,0.325-0.604,0.976-0.279,1.455   c0.201,0.295,0.524,0.455,0.853,0.459c0.209,0.003,0.418-0.056,0.602-0.18l5.548-3.761l-0.129,6.814   c-0.012,0.579,0.448,1.055,1.027,1.067l0.006,0c0.575,0.007,1.049-0.451,1.061-1.027l0.122-6.436l3.774,4.094   c0.204,0.219,0.478,0.333,0.756,0.337c0.258,0.003,0.519-0.087,0.724-0.277c0.424-0.391,0.451-1.056,0.06-1.48l-3.952-4.287   l5.439,0.019c0.579,0.001,1.049-0.465,1.051-1.044C452.651,321.556,452.19,321.088,451.612,321.08z"/>
	<path style="fill:#241726;" d="M16.644,125.751c-0.473,0-0.889-0.274-1.113-0.734c-0.644-1.325-2.264-4.745-3.982-8.593   c-0.992,0.027-1.957,0.041-2.874,0.041c-7.047,0-8.083-0.806-8.499-1.56c-0.257-0.464-0.232-1,0.065-1.472   c0.801-1.27,4.619-4.636,7.181-6.824C3.911,97.525,4.17,95.271,5.735,94.623c0.308-0.129,0.66-0.104,0.946,0.074   c0.042,0.025,3.993,2.438,8.627,5.448c7.9-6.213,8.939-6.215,9.388-6.215c0.569,0,1.187,0.583,1.202,1.151   c0.026,1.008-1.334,6.9-2.256,10.696c6.886,4.91,7.465,6.242,7.454,7.18c-0.005,0.474-0.233,0.896-0.626,1.162   c-1.183,0.796-5.637,1.368-9.441,1.724C18.262,125.751,17.545,125.751,16.644,125.751z M13.808,116.341   c1.184,2.634,2.234,4.877,2.892,6.262c0.423-1.068,1.092-3.019,2.1-6.569C17.138,116.163,15.45,116.268,13.808,116.341z    M2.505,113.951c0.784,0.182,2.509,0.419,6.171,0.419c0.632,0,1.287-0.006,1.959-0.02c-0.891-2.037-1.693-3.941-2.397-5.683   C5.139,111.331,3.333,113.047,2.505,113.951z M9.92,107.235c0.842,2.111,1.839,4.475,2.972,7.047   c2.123-0.082,4.346-0.217,6.505-0.397c0.637-2.34,1.28-4.832,1.871-7.221c-1.704-1.19-3.664-2.513-5.844-3.943   C13.597,104.177,11.716,105.719,9.92,107.235z M23.103,107.967c-0.474,1.9-0.977,3.847-1.481,5.714   c3.777-0.378,6.057-0.789,7.089-1.08C28.188,111.977,26.797,110.64,23.103,107.967z M6.734,97.187   c0.099,1.035,0.59,3.264,2.384,7.986c1.463-1.227,2.975-2.466,4.459-3.657C10.693,99.654,8.138,98.059,6.734,97.187z    M17.159,101.355c1.69,1.113,3.243,2.16,4.642,3.129c0.871-3.616,1.448-6.258,1.751-7.81   C22.41,97.408,20.382,98.838,17.159,101.355z"/>
	<path style="fill:#241726;" d="M456.415,285.603c-0.473,0-0.889-0.274-1.113-0.734c-0.018-0.039-1.818-3.745-3.982-8.593   c-0.992,0.029-1.956,0.043-2.873,0.043c-7.048,0-8.083-0.806-8.5-1.562c-0.256-0.464-0.232-1,0.065-1.472   c0.801-1.27,4.619-4.634,7.181-6.824c-3.512-9.08-3.253-11.336-1.688-11.984c0.307-0.129,0.659-0.102,0.946,0.074   c0.042,0.025,3.993,2.438,8.627,5.448c7.902-6.213,8.939-6.215,9.389-6.215c0.568,0,1.186,0.583,1.201,1.151   c0.026,1.008-1.334,6.9-2.256,10.696c6.886,4.912,7.466,6.244,7.454,7.182c-0.005,0.474-0.233,0.896-0.626,1.162   c-1.183,0.796-5.638,1.368-9.442,1.724C458.032,285.603,457.315,285.603,456.415,285.603z M453.578,276.194   c1.188,2.644,2.235,4.88,2.892,6.264c0.423-1.07,1.091-3.018,2.1-6.571C456.907,276.018,455.22,276.12,453.578,276.194z    M442.274,273.803c0.785,0.184,2.509,0.421,6.172,0.421c0.633,0,1.288-0.008,1.959-0.02c-0.891-2.039-1.693-3.941-2.397-5.685   C444.909,271.185,443.102,272.901,442.274,273.803z M449.69,267.087c0.842,2.111,1.839,4.477,2.973,7.049   c2.123-0.082,4.345-0.219,6.504-0.399c0.638-2.338,1.281-4.832,1.871-7.221c-1.703-1.19-3.663-2.513-5.843-3.943   C453.366,264.032,451.485,265.574,449.69,267.087z M462.873,267.821c-0.474,1.898-0.978,3.845-1.481,5.714   c3.776-0.378,6.056-0.789,7.088-1.08C467.957,271.829,466.566,270.494,462.873,267.821z M446.504,257.04   c0.099,1.035,0.59,3.264,2.384,7.986c1.463-1.227,2.975-2.464,4.46-3.655C450.463,259.506,447.909,257.911,446.504,257.04z    M456.929,261.207c1.69,1.112,3.243,2.162,4.642,3.129c0.87-3.614,1.448-6.258,1.751-7.81   C462.181,257.26,460.152,258.69,456.929,261.207z"/>
	<path style="fill:#241726;" d="M319.489,64.519c-0.779,0-1.517,0-3.457-8.17c-6.868-1.415-7.46-2.235-7.659-2.509   c-0.191-0.264-0.269-0.742-0.176-1.055c0.131-0.44,0.433-1.458,8.341-4.526c2.912-7.307,3.865-7.307,4.5-7.307   c0.335,0,0.797,0.243,0.993,0.515c0.497,0.685,0.933,2.454,1.589,5.284c0.207,0.888,0.455,1.959,0.6,2.43   c0.411,0.19,1.319,0.53,2.073,0.81c4.025,1.503,5.06,2.01,5.236,2.978c0.065,0.362-0.126,0.89-0.404,1.131   c-0.83,0.726-4.759,2.127-6.819,2.83c-3.43,7.534-4.142,7.563-4.771,7.589C319.521,64.519,319.504,64.519,319.489,64.519z    M311.047,52.975c1.37,0.415,3.872,1.016,6.056,1.454c0.403,0.08,0.721,0.389,0.814,0.789c0.53,2.274,1.228,4.865,1.735,6.346   c0.781-1.362,1.968-3.777,2.934-5.912c0.12-0.264,0.344-0.468,0.62-0.56c1.877-0.634,3.999-1.413,5.321-1.973   c-0.914-0.399-2.16-0.863-2.966-1.164c-2.304-0.861-2.736-1.045-3.029-1.45c-0.254-0.35-0.407-0.935-0.952-3.278   c-0.204-0.881-0.517-2.233-0.8-3.246c-0.703,1.301-1.691,3.513-2.463,5.475c-0.107,0.272-0.325,0.489-0.599,0.593   C315.277,50.985,312.502,52.186,311.047,52.975z"/>
	<path style="fill:#241726;" d="M11.65,439.371c-0.779,0-1.517,0-3.457-8.17c-6.868-1.415-7.46-2.235-7.659-2.509   c-0.191-0.264-0.269-0.742-0.176-1.055c0.131-0.44,0.433-1.458,8.341-4.526c2.912-7.307,3.865-7.307,4.5-7.307   c0.335,0,0.797,0.243,0.993,0.515c0.497,0.685,0.933,2.454,1.589,5.284c0.207,0.888,0.455,1.959,0.6,2.43   c0.411,0.19,1.319,0.53,2.073,0.81c4.025,1.503,5.061,2.01,5.236,2.978c0.065,0.362-0.126,0.89-0.404,1.131   c-0.83,0.726-4.759,2.127-6.819,2.83c-3.43,7.534-4.142,7.563-4.771,7.589C11.682,439.371,11.665,439.371,11.65,439.371z    M3.208,427.827c1.37,0.415,3.872,1.016,6.056,1.454c0.403,0.08,0.721,0.389,0.814,0.789c0.53,2.274,1.228,4.865,1.735,6.346   c0.781-1.362,1.968-3.777,2.934-5.912c0.12-0.264,0.344-0.468,0.62-0.56c1.877-0.634,3.999-1.413,5.321-1.973   c-0.914-0.399-2.16-0.863-2.966-1.164c-2.304-0.861-2.736-1.045-3.029-1.45c-0.254-0.35-0.407-0.935-0.952-3.278   c-0.205-0.881-0.517-2.233-0.8-3.246c-0.704,1.301-1.691,3.513-2.463,5.475c-0.107,0.272-0.325,0.489-0.599,0.593   C7.437,425.837,4.663,427.037,3.208,427.827z"/>
	<path style="fill:#241726;" d="M261.284,73.908c-0.084,0-0.169-0.01-0.252-0.031c-0.331-0.082-0.602-0.321-0.725-0.64   c-0.837-2.168-8.095-21.348-5.143-27.06c0.475-0.92,1.211-1.53,2.125-1.761c3.158-0.8,6.06,0.464,8.057,3.407   c2.368-2.127,5.052-3.366,7.368-3.366c1.955,0,3.622,0.867,4.819,2.507c5.7,7.808-13.369,24.778-15.562,26.686   C261.779,73.818,261.533,73.908,261.284,73.908z M259.131,46.273c-0.427,0-0.874,0.057-1.328,0.172   c-0.208,0.053-0.515,0.182-0.779,0.693c-1.978,3.826,2.322,17.44,4.703,23.925c6.054-5.513,17.751-17.882,14.115-22.864   c-0.81-1.11-1.832-1.648-3.128-1.648c-1.891,0-4.264,1.194-6.318,3.156c1.304,2.859,1.58,6.047,0.609,7.657   c-0.441,0.73-1.124,1.133-1.923,1.135c-2.482-0.166-3.385-1.272-3.733-2.174c-0.816-2.104,0.669-4.877,2.49-6.972   C262.991,47.991,261.46,46.273,259.131,46.273z M264.838,51.433c-1.372,1.794-1.835,3.368-1.538,4.135   c0.189,0.487,0.781,0.767,1.761,0.834C265.605,55.607,265.613,53.585,264.838,51.433z"/>
	<path style="fill:#241726;" d="M123.938,224.045c-0.12,0-0.24-0.02-0.357-0.063c-2.733-0.99-26.638-9.937-24.138-19.277   c0.793-2.963,3.141-4.593,6.612-4.593c1.583,0,3.343,0.352,5.066,1.002c0.806-3.501,3.043-5.693,6.285-6.086   c6.951-0.871,7.576,21.279,7.579,27.97c0,0.342-0.166,0.661-0.446,0.857C124.361,223.979,124.15,224.045,123.938,224.045z    M106.054,202.205c-2.505,0-4.048,1.023-4.589,3.039c-1.595,5.961,13.781,13.281,21.415,16.238   c-0.155-12.007-2.074-24.385-5.088-24.385c-3.265,0.391-4.352,2.982-4.715,4.898c2.455,1.297,4.84,3.346,4.838,5.603   c-0.001,0.967-0.444,2.325-2.549,3.309c-0.303,0.141-0.618,0.213-0.936,0.213c-0.47,0-1.175-0.162-1.859-0.928   c-1.21-1.358-1.905-4.188-1.75-6.945C109.193,202.571,107.523,202.205,106.054,202.205z M112.897,204.295   c0.048,2.01,0.603,3.789,1.238,4.503c0.166,0.186,0.276,0.227,0.294,0.227c0.94-0.432,1.391-0.906,1.391-1.427   C115.822,206.774,114.823,205.473,112.897,204.295z"/>
	<polygon style="fill:#DFB500;" points="473.201,413.678 485.888,406.422 482.875,419.89 491.986,428.586 480.882,431.966    474.777,443.544 469.368,432.898 455.42,431.743 466.027,421.829 461.529,409.589  "/>
	<polygon style="fill:#DFB500;" points="19.619,367.008 32.306,359.753 29.293,373.221 38.405,381.917 27.301,385.297    21.196,396.875 15.786,386.228 1.839,385.074 12.446,375.159 7.947,362.92  "/>
	<g>
		<g>
			<path style="fill:#DFB500;" d="M425.794,57.134c0,0,21.746,2.017,15.462,15.551c-4.443,9.568-21.422-5.715-16.763-5.088     s3.897,13.057-5.49,11.357S412.38,54.478,425.794,57.134z"/>
			<path style="fill:#241726;" d="M423.35,75.16c-0.289,0-0.597-0.02-0.925-0.061c-2.187-0.274-3.694-1.184-4.481-2.704     c-1.643-3.176,0.768-7.761,0.871-7.953c0.273-0.511,0.909-0.697,1.415-0.432c0.51,0.272,0.703,0.906,0.433,1.417     c-0.559,1.053-1.804,4.184-0.857,6.008c0.457,0.879,1.399,1.399,2.88,1.585c2.189,0.284,2.729-0.804,2.948-1.636     c0.249-0.951,0.163-2.072-0.08-3.104c-1.669-1.135-3.253-2.779-3.062-4.055c0.096-0.642,0.583-1.108,1.271-1.219     c0.604-0.088,1.533,0.086,2.479,1.505c0.426,0.642,0.823,1.491,1.119,2.432c0.56,0.323,1.165,0.595,1.771,0.755     c1.726,0.454,2.406-0.264,2.631-0.501c0.397-0.417,0.539-0.816,0.463-1.295c-0.318-1.998-4.07-4.436-5.359-5.133     c-0.508-0.274-0.698-0.91-0.423-1.417c0.274-0.511,0.909-0.701,1.419-0.423c0.601,0.323,5.895,3.272,6.432,6.646     c0.178,1.121-0.173,2.18-1.014,3.066c-1.292,1.356-3.238,1.652-5.428,0.845c0.096,1.36-0.097,2.704-0.75,3.759     C426.54,74.152,425.444,75.158,423.35,75.16z"/>
		</g>
		<g>
			<path style="fill:#DFB500;" d="M425.298,53.696c0,0,16.487-14.323,3.488-21.651c-9.19-5.18-14.066,17.138-10.648,13.911     c3.418-3.227-4.451-12.879-11.084-6.022C400.42,46.79,415.952,63.678,425.298,53.696z"/>
			<path style="fill:#241726;" d="M415.829,51.94c-0.155,0-0.313-0.035-0.461-0.108c-0.197-0.096-4.829-2.413-5.348-5.953     c-0.247-1.693,0.447-3.311,2.063-4.81c1.998-1.853,3.756-1.687,4.881-1.223c1.145,0.477,2.087,1.456,2.802,2.616     c1.31-1.931,3.058-2.82,4.901-2.479c1.199,0.227,2.102,0.883,2.612,1.898c1.533,3.053-1.047,8.536-1.346,9.152     c-0.253,0.521-0.878,0.736-1.399,0.483c-0.52-0.252-0.737-0.877-0.485-1.399c0.954-1.967,2.167-5.687,1.358-7.297     c-0.218-0.432-0.566-0.673-1.131-0.779c-0.317-0.057-1.29-0.245-2.43,1.129c-0.4,0.483-0.732,1.055-0.999,1.644     c0.31,0.939,0.484,1.861,0.51,2.63c0.06,1.704-0.584,2.391-1.135,2.667c-0.623,0.309-1.29,0.217-1.742-0.249     c-0.902-0.926-0.572-3.192,0.126-5.09c-0.412-0.973-0.995-1.933-1.751-2.558c-0.664-0.55-1.73-1.106-3.349,0.391     c-1.095,1.018-1.558,1.99-1.414,2.974c0.299,2.043,3.133,3.853,4.2,4.378c0.519,0.254,0.732,0.881,0.478,1.401     C416.588,51.726,416.216,51.94,415.829,51.94z"/>
		</g>
		<path style="fill:#241726;" d="M449.187,60.755c-0.006,0-0.012,0-0.018,0c-0.579-0.01-1.039-0.487-1.029-1.065    c0.013-0.734-0.251-1.327-0.83-1.865c-2.883-2.671-11.916-2.456-15.156-2.151c-0.587,0.029-1.087-0.37-1.141-0.945    c-0.055-0.575,0.367-1.086,0.943-1.141c0.512-0.049,12.62-1.147,16.777,2.702c1.021,0.945,1.526,2.102,1.502,3.438    C450.224,60.298,449.757,60.755,449.187,60.755z"/>
		<path style="fill:#241726;" d="M431.266,52.051c-0.446,0-0.859-0.286-0.999-0.734c-0.173-0.552,0.135-1.139,0.687-1.313    c0.103-0.033,10.34-3.309,10.324-9.634c-0.001-0.579,0.466-1.047,1.045-1.049h0.002c0.577,0,1.046,0.466,1.047,1.045    c0.019,7.867-11.313,11.487-11.796,11.638C431.474,52.036,431.37,52.051,431.266,52.051z"/>
	</g>
	<g>
		<path style="fill:#FFFFFF;" d="M40.267,49.12c0,0-1.862-15.711,13.169-10.44s9.924,19.568,4.233,14.579    s5.325-21.515,16.781-13.943s8.684,21.939,0.476,22.895c-8.208,0.956,5.179-16.703,15.359-5.556S77.664,87.583,68.543,80.082    S66.79,60.761,68.907,68.05s-3.939,14.332-20.283,13.837c-16.344-0.495-8.575-25.548-2.956-18.153s-3.976,15.535-15.395,6.759    S32.241,44.06,40.267,49.12z"/>
		<path style="fill:#241726;" d="M50.219,82.96c-0.532,0-1.074-0.008-1.628-0.025c-5.358-0.164-9.094-2.957-10.36-7.706    c-2.815-0.395-5.77-1.734-8.596-3.906c-4.443-3.415-5.918-8.528-4.049-14.031c1.928-5.671,7.009-10.115,11.569-10.115    c0.689,0,1.354,0.098,1.99,0.288c0.009-2.172,0.391-5.857,2.607-8.352c2.505-2.818,6.596-3.327,12.032-1.421    c2.085,0.732,3.909,1.669,5.434,2.796c2.594-2.665,5.875-4.174,9.137-4.174c2.291,0,4.536,0.718,6.673,2.129    c4.951,3.272,7.917,8.244,8.098,13.471c2.928,0.119,5.594,1.474,7.932,4.035c3.143,3.442,3.692,8.019,1.546,12.884    c-3.277,7.432-12.196,13.951-19.087,13.953h-0.002c-2.213,0-4.11-0.638-5.637-1.896c-0.714-0.585-1.358-1.219-1.923-1.89    C62.429,81.594,57.022,82.96,50.219,82.96z M40.45,75.34c0.898,2.654,3.079,5.346,8.205,5.501    c0.533,0.016,1.053,0.025,1.564,0.025c7.823,0,12.16-1.826,14.516-3.567c-2.237-3.732-2.022-7.786-0.73-10.289    c0.753-1.458,1.834-2.293,2.968-2.293c0.768,0,2.171,0.395,2.939,3.039c1.06,3.652,0.193,7.197-2.377,9.869    c0.489,0.581,1.049,1.133,1.673,1.648c1.144,0.939,2.593,1.417,4.308,1.417c0,0,0.001,0,0.002,0    c6.054-0.002,14.239-6.057,17.17-12.704c1.267-2.873,2.091-7.049-1.176-10.628c-1.942-2.125-4.115-3.254-6.464-3.354    c-0.558,5.008-3.747,8.751-8.001,9.246c-0.261,0.029-0.505,0.043-0.73,0.043h-0.001c-2.136,0.002-2.941-1.29-2.982-2.499    c-0.1-2.961,4.216-7.886,9.701-8.757c-0.139-4.567-2.766-8.943-7.162-11.849c-4.318-2.855-9.331-2.092-13.053,1.657    c3.501,3.423,4.123,7.591,3.114,10.36c-0.706,1.937-2.195,3.141-3.889,3.141h-0.001c-1.035,0-2.094-0.45-3.065-1.301    c-3.141-2.755-2.045-8.037,0.875-11.962c-1.332-0.963-2.931-1.773-4.764-2.417c-4.562-1.601-7.843-1.337-9.774,0.836    c-2.63,2.961-2.015,8.438-2.009,8.493c0.047,0.401-0.14,0.793-0.481,1.008c-0.342,0.217-0.776,0.217-1.118,0    c-0.772-0.487-1.632-0.734-2.554-0.734c-3.657,0-7.956,3.902-9.585,8.696c-1.563,4.599-0.346,8.863,3.342,11.696    c2.305,1.771,4.673,2.922,6.927,3.376c-0.407-4.043,0.872-7.972,2.52-9.988c0.923-1.131,1.993-1.728,3.094-1.728    c0.775,0,1.934,0.309,3.049,1.777c1.985,2.612,2.414,5.536,1.18,8.025C46.449,73.606,43.708,75.193,40.45,75.34z M66.973,66.812    c-0.196,0-0.671,0.315-1.107,1.16c-0.946,1.832-1.131,4.951,0.456,7.88c1.829-2.088,2.392-4.714,1.58-7.509    C67.578,67.227,67.16,66.812,66.973,66.812z M43.451,63.417c-0.445,0-0.967,0.339-1.472,0.959c-1.404,1.72-2.465,5.401-2.006,8.88    c2.705-0.006,4.884-1.149,5.831-3.061c0.868-1.749,0.514-3.873-0.97-5.826C44.503,63.935,43.996,63.417,43.451,63.417z     M80.911,54.19c-4.351,0.931-7.538,4.959-7.485,6.536c0.006,0.188,0.016,0.474,0.888,0.474c0.001,0,0.001,0,0.001,0    c0.151,0,0.315-0.01,0.489-0.031C77.951,60.804,80.344,58.006,80.911,54.19z M59.454,43.439c-2.52,3.417-3.045,7.323-1.094,9.033    c1.482,1.301,2.944,0.836,3.606-0.984C62.73,49.392,62.204,46.188,59.454,43.439z"/>
	</g>
	<path style="fill:#241726;" d="M296.099,141.307c-0.718,0-1.474-0.07-2.248-0.205c-0.57-0.098-0.951-0.642-0.852-1.211   c0.099-0.571,0.638-0.963,1.212-0.851c1.38,0.241,2.666,0.227,3.726-0.037c0.561-0.139,1.129,0.202,1.269,0.765   c0.139,0.56-0.203,1.129-0.764,1.268C297.72,141.217,296.931,141.307,296.099,141.307z M290.035,139.886   c-0.139,0-0.281-0.029-0.417-0.088c-1.29-0.56-2.579-1.268-3.829-2.1c-0.482-0.319-0.612-0.969-0.292-1.452   c0.322-0.483,0.971-0.611,1.452-0.29c1.149,0.763,2.328,1.411,3.506,1.924c0.53,0.229,0.773,0.847,0.542,1.376   C290.825,139.651,290.44,139.886,290.035,139.886z M283.076,135.287c-0.254,0-0.506-0.09-0.708-0.276   c-1.069-0.98-2.069-2.045-2.97-3.168c-0.362-0.452-0.29-1.11,0.161-1.472c0.45-0.364,1.109-0.292,1.471,0.16   c0.836,1.041,1.763,2.029,2.754,2.939c0.426,0.391,0.455,1.053,0.064,1.479C283.642,135.172,283.359,135.287,283.076,135.287z    M277.857,128.779c-0.363,0-0.716-0.188-0.91-0.528c-0.727-1.268-1.347-2.597-1.844-3.947c-0.199-0.544,0.079-1.145,0.622-1.346   c0.545-0.196,1.145,0.08,1.344,0.622c0.456,1.241,1.027,2.462,1.696,3.632c0.287,0.501,0.113,1.141-0.389,1.427   C278.212,128.734,278.034,128.779,277.857,128.779z M274.989,120.951c-0.498,0-0.939-0.356-1.03-0.863   c-0.256-1.425-0.385-2.888-0.385-4.346c0-0.579,0.468-1.047,1.047-1.047c0.579,0,1.047,0.468,1.047,1.047   c0,1.333,0.119,2.673,0.353,3.978c0.102,0.569-0.277,1.113-0.846,1.215C275.113,120.945,275.05,120.951,274.989,120.951z    M274.979,112.621c-0.058,0-0.117-0.004-0.176-0.014c-0.571-0.096-0.954-0.638-0.858-1.209c0.236-1.391,0.592-2.808,1.058-4.211   c0.183-0.546,0.778-0.845,1.324-0.663c0.549,0.182,0.846,0.775,0.664,1.325c-0.433,1.299-0.763,2.612-0.981,3.9   C275.923,112.259,275.481,112.621,274.979,112.621z M321.333,111.638c-0.535,0-0.991-0.407-1.041-0.949   c-0.054-0.577,0.368-1.086,0.944-1.141c0.118-0.01,0.235-0.031,0.352-0.061c1.116-0.294,1.924-0.804,2.403-1.513   c0.323-0.481,0.973-0.605,1.453-0.284c0.48,0.323,0.606,0.973,0.283,1.454c-0.77,1.143-1.984,1.941-3.607,2.368   c-0.229,0.059-0.457,0.1-0.687,0.123C321.398,111.636,321.366,111.638,321.333,111.638z M317.613,110.032   c-0.266,0-0.532-0.1-0.735-0.303c-0.995-0.982-1.864-2.301-2.512-3.812c-0.228-0.532,0.018-1.147,0.549-1.376   c0.529-0.229,1.147,0.016,1.375,0.55c0.543,1.266,1.255,2.356,2.058,3.149c0.412,0.405,0.416,1.068,0.01,1.481   C318.153,109.928,317.883,110.032,317.613,110.032z M325.44,105.568c-0.49,0-0.928-0.346-1.027-0.845   c-0.216-1.094-0.69-2.295-1.41-3.569c-0.285-0.503-0.108-1.141,0.396-1.427c0.501-0.284,1.141-0.108,1.426,0.397   c0.831,1.468,1.383,2.879,1.643,4.194c0.111,0.566-0.258,1.119-0.825,1.229C325.575,105.562,325.506,105.568,325.44,105.568z    M277.582,104.693c-0.153,0-0.31-0.035-0.458-0.106c-0.519-0.254-0.735-0.879-0.483-1.399c0.608-1.25,1.317-2.511,2.104-3.753   c0.31-0.489,0.954-0.632,1.446-0.323c0.488,0.309,0.633,0.957,0.323,1.444c-0.746,1.178-1.416,2.37-1.99,3.548   C278.343,104.476,277.971,104.693,277.582,104.693z M314.229,102.523c-0.515,0-0.964-0.38-1.036-0.904   c-0.115-0.828-0.172-1.679-0.172-2.53c0-0.618,0.031-1.252,0.093-1.896c0.055-0.575,0.562-0.982,1.143-0.941   c0.576,0.057,0.997,0.569,0.941,1.145c-0.056,0.575-0.083,1.139-0.083,1.691c0,0.755,0.051,1.511,0.151,2.243   c0.079,0.573-0.321,1.102-0.895,1.18C314.324,102.519,314.276,102.523,314.229,102.523z M321.509,98.263   c-0.3,0-0.596-0.127-0.804-0.374c-0.84-1.002-1.786-1.978-2.813-2.9c-0.43-0.387-0.466-1.049-0.08-1.479   c0.389-0.432,1.051-0.464,1.479-0.08c1.1,0.988,2.116,2.035,3.02,3.113c0.371,0.444,0.313,1.104-0.13,1.474   C321.984,98.183,321.746,98.263,321.509,98.263z M282.04,97.619c-0.224,0-0.45-0.072-0.64-0.219   c-0.457-0.356-0.541-1.012-0.186-1.47l0.541-0.685c0.737-0.916,1.507-1.781,2.288-2.569c0.41-0.409,1.072-0.409,1.482-0.004   c0.41,0.407,0.412,1.07,0.005,1.481c-0.73,0.734-1.451,1.544-2.144,2.407l-0.517,0.654C282.662,97.48,282.353,97.619,282.04,97.619   z M361.006,94.696c-0.634,0-1.29-0.235-1.95-0.699c-0.472-0.333-0.586-0.988-0.253-1.46c0.332-0.47,0.986-0.585,1.459-0.254   c0.393,0.278,0.634,0.319,0.743,0.319c0.313,0,0.574-0.479,0.7-0.763c0.048-0.108,0.093-0.219,0.135-0.333   c0.198-0.542,0.802-0.822,1.344-0.624c0.543,0.198,0.822,0.8,0.624,1.344c-0.058,0.16-0.122,0.315-0.19,0.466   C362.84,94.437,361.647,94.696,361.006,94.696z M315.013,94.253c-0.106,0-0.215-0.016-0.322-0.051   c-0.55-0.178-0.852-0.767-0.674-1.319c0.076-0.235,0.156-0.47,0.241-0.704c-0.985-0.652-1.999-1.245-3.025-1.767   c-0.515-0.262-0.721-0.892-0.459-1.407c0.261-0.517,0.889-0.724,1.408-0.458c0.98,0.497,1.949,1.055,2.894,1.665   c0.215-0.454,0.444-0.902,0.689-1.346c0.28-0.507,0.917-0.685,1.423-0.409c0.506,0.28,0.689,0.916,0.409,1.423   c-0.653,1.18-1.188,2.407-1.589,3.648C315.866,93.97,315.455,94.253,315.013,94.253z M287.953,91.727   c-0.323,0-0.642-0.149-0.847-0.429c-0.342-0.468-0.238-1.123,0.228-1.464c1.207-0.879,2.47-1.636,3.757-2.245   c0.521-0.252,1.147-0.027,1.395,0.495c0.248,0.524,0.026,1.147-0.497,1.395c-1.168,0.556-2.318,1.245-3.419,2.049   C288.382,91.662,288.166,91.727,287.953,91.727z M357.022,90.968c-0.362,0-0.714-0.188-0.908-0.524   c-0.676-1.17-1.291-2.501-1.829-3.961c-0.199-0.542,0.078-1.145,0.621-1.344c0.54-0.205,1.143,0.076,1.345,0.62   c0.497,1.348,1.061,2.571,1.678,3.638c0.289,0.501,0.118,1.141-0.383,1.429C357.38,90.923,357.2,90.968,357.022,90.968z    M307.851,88.897c-0.11,0-0.223-0.016-0.333-0.055c-1.29-0.434-2.599-0.757-3.893-0.963c-0.571-0.092-0.959-0.63-0.868-1.2   c0.091-0.571,0.626-0.947,1.199-0.869c1.406,0.225,2.829,0.579,4.228,1.049c0.548,0.184,0.844,0.777,0.66,1.325   C308.697,88.621,308.289,88.897,307.851,88.897z M363.141,88.788c-0.503,0-0.947-0.364-1.032-0.875   c-0.195-1.176-0.627-2.389-1.282-3.603c-0.275-0.509-0.085-1.143,0.424-1.419c0.506-0.27,1.144-0.084,1.418,0.425   c0.766,1.417,1.272,2.849,1.505,4.254c0.095,0.571-0.291,1.11-0.861,1.205C363.256,88.784,363.198,88.788,363.141,88.788z    M295.476,88.179c-0.472,0-0.901-0.321-1.016-0.8c-0.136-0.562,0.209-1.129,0.771-1.266c1.417-0.344,2.884-0.54,4.357-0.587   c0.57,0,1.06,0.438,1.079,1.014c0.018,0.579-0.436,1.061-1.013,1.08c-1.329,0.041-2.651,0.219-3.93,0.53   C295.641,88.169,295.558,88.179,295.476,88.179z M319.013,86.948c-0.229,0-0.46-0.076-0.653-0.229   c-0.451-0.362-0.525-1.02-0.164-1.472c0.879-1.098,1.869-2.168,2.945-3.176c0.423-0.395,1.086-0.376,1.48,0.047   c0.397,0.421,0.375,1.084-0.046,1.479c-1.003,0.943-1.926,1.939-2.742,2.959C319.624,86.813,319.321,86.948,319.013,86.948z    M354.084,83.152c-0.479,0-0.911-0.329-1.021-0.816c-0.32-1.421-0.547-2.859-0.675-4.272c-0.052-0.577,0.373-1.086,0.949-1.137   c0.564-0.041,1.086,0.372,1.137,0.949c0.119,1.321,0.331,2.667,0.632,3.998c0.127,0.564-0.227,1.125-0.791,1.252   C354.237,83.144,354.16,83.152,354.084,83.152z M359.317,81.459c-0.284,0-0.569-0.117-0.775-0.344   c-0.875-0.965-1.871-1.853-2.958-2.638c-0.468-0.339-0.574-0.994-0.235-1.462c0.338-0.468,0.994-0.573,1.462-0.235   c1.205,0.871,2.309,1.857,3.281,2.929c0.389,0.427,0.357,1.09-0.072,1.479C359.82,81.369,359.569,81.459,359.317,81.459z    M325.078,81.207c-0.321,0-0.639-0.147-0.844-0.425c-0.344-0.466-0.244-1.121,0.221-1.464c0.854-0.63,1.763-1.247,2.732-1.853   c0.285-0.178,0.569-0.35,0.851-0.515c0.498-0.294,1.139-0.129,1.434,0.372c0.292,0.499,0.126,1.139-0.372,1.432   c-0.268,0.157-0.535,0.321-0.804,0.489c-0.92,0.575-1.786,1.164-2.597,1.761C325.511,81.142,325.293,81.207,325.078,81.207z    M332.289,76.978c-0.403,0-0.786-0.233-0.959-0.624c-0.233-0.53,0.006-1.147,0.536-1.38c1.348-0.595,2.717-1.092,4.07-1.477   c0.55-0.164,1.135,0.164,1.293,0.72c0.159,0.556-0.165,1.135-0.721,1.292c-1.259,0.36-2.537,0.824-3.798,1.378   C332.574,76.949,332.431,76.978,332.289,76.978z M352.586,76.565c-0.146,0-0.294-0.031-0.437-0.096   c-1.194-0.548-2.46-0.99-3.763-1.313c-0.561-0.139-0.904-0.706-0.765-1.268c0.138-0.562,0.707-0.9,1.268-0.765   c1.224,0.303,2.419,0.701,3.562,1.19c-0.1-0.172-0.153-0.376-0.14-0.589c0.089-1.499,0.303-2.955,0.635-4.325   c0.136-0.562,0.706-0.898,1.264-0.771c0.562,0.137,0.907,0.703,0.771,1.266c-0.303,1.25-0.498,2.579-0.58,3.953   c-0.033,0.55-0.483,0.975-1.023,0.986c0.26,0.301,0.335,0.738,0.158,1.123C353.362,76.338,352.982,76.565,352.586,76.565z    M340.32,74.72c-0.523,0-0.974-0.391-1.039-0.922c-0.069-0.575,0.342-1.096,0.915-1.164c1.474-0.178,2.953-0.223,4.362-0.147   c0.577,0.031,1.02,0.524,0.99,1.1c-0.032,0.579-0.548,1.043-1.102,0.99c-1.29-0.063-2.646-0.027-4,0.135   C340.404,74.718,340.361,74.72,340.32,74.72z M395.893,72.117c-0.033,0-0.065-0.002-0.098-0.006   c-0.575-0.053-0.997-0.56-0.946-1.135c0.002-0.025,0.027-0.313,0.027-0.793c0-0.697-0.05-1.802-0.291-3.094   c-0.105-0.569,0.27-1.117,0.838-1.221c0.566-0.11,1.115,0.27,1.221,0.836c0.27,1.45,0.326,2.691,0.326,3.479   c0,0.624-0.035,0.988-0.035,0.988C396.882,71.71,396.427,72.117,395.893,72.117z M355.372,66.761c-0.154,0-0.311-0.035-0.459-0.106   c-0.519-0.254-0.734-0.881-0.481-1.401c0.66-1.348,1.473-2.597,2.419-3.718c0.372-0.438,1.035-0.497,1.476-0.123   c0.442,0.372,0.497,1.035,0.124,1.477c-0.835,0.988-1.554,2.092-2.137,3.284C356.132,66.546,355.76,66.761,355.372,66.761z    M394.354,63.957c-0.394,0-0.771-0.223-0.949-0.603c-0.56-1.194-1.28-2.272-2.138-3.203c-0.392-0.425-0.365-1.088,0.06-1.479   c0.423-0.393,1.086-0.368,1.48,0.059c1.003,1.088,1.843,2.344,2.494,3.734c0.245,0.524,0.02,1.145-0.503,1.393   C394.654,63.926,394.502,63.957,394.354,63.957z M360.719,60.425c-0.325,0-0.645-0.151-0.85-0.434   c-0.338-0.47-0.233-1.125,0.236-1.462c1.154-0.834,2.442-1.564,3.824-2.172c0.532-0.231,1.146,0.008,1.38,0.538   c0.232,0.53-0.008,1.147-0.538,1.38c-1.249,0.548-2.406,1.205-3.442,1.951C361.145,60.362,360.931,60.425,360.719,60.425z    M388.76,57.916c-0.174,0-0.349-0.043-0.511-0.133c-1.084-0.609-2.305-1.092-3.629-1.434c-0.559-0.145-0.896-0.718-0.751-1.278   c0.144-0.558,0.719-0.898,1.276-0.751c1.498,0.389,2.887,0.939,4.128,1.634c0.504,0.284,0.684,0.922,0.401,1.425   C389.482,57.724,389.126,57.916,388.76,57.916z M368.308,57.022c-0.466,0-0.892-0.313-1.013-0.785   c-0.144-0.56,0.193-1.131,0.754-1.276c0.314-0.08,0.635-0.155,0.961-0.225c1.124-0.247,2.204-0.452,3.24-0.618   c0.581-0.086,1.108,0.301,1.198,0.871c0.091,0.571-0.299,1.106-0.869,1.198c-0.998,0.157-2.039,0.354-3.124,0.593   c-0.304,0.065-0.597,0.133-0.885,0.209C368.483,57.012,368.395,57.022,368.308,57.022z M380.759,55.732   c-0.025,0-0.049,0-0.074-0.002c-1.239-0.086-2.583-0.092-4.044,0c-0.587,0.035-1.076-0.401-1.111-0.98   c-0.037-0.577,0.402-1.074,0.979-1.11c1.561-0.1,2.998-0.094,4.322,0c0.577,0.041,1.012,0.54,0.972,1.117   C381.765,55.309,381.305,55.732,380.759,55.732z"/>
	<g>
		<g>
			<path style="fill:#B45036;" d="M290.119,232.309c-8.121-5.906-50.124-6.615-50.862-11.044     c-0.559-3.354-7.169-28.925-10.346-41.15c5.089-2.946,10.895-7.829,15.159-17.682c2.243-5.183,1.132-12.984-1.873-21.687     c0.997-0.074,2.037-0.384,3.12-1.019c10.299-6.042,6.321-23.174-4.357-30.467c-6.023-4.114-9.235,1.035-10.891,6.305     c-9.257-15.547-20.285-29.083-25.559-31.64c-26.028-12.617-60.073,26.199-60.073,26.199c-13.855,9.413,3.39,36.874,14.076,51.447     c-5.922-0.895-13.766-0.666-12.078,7.394c2.65,12.656,16.956,22.888,26.479,15.686c0.968-0.732,1.642-1.543,2.093-2.403     c2.584,2.271,5.732,4.445,9.425,6.078l13.065,33.25c-9.597,16.241-43.741-0.923-43.497,27.486     c0.15,17.459,54.099,32.11,91.095,25.828C259.095,272.512,298.24,238.215,290.119,232.309z"/>
			<path style="fill:#241726;" d="M239.115,132.121c-0.523,0-0.974-0.391-1.039-0.922c-0.535-4.468-1.087-12.148,1.221-13.385     c2.618-1.415,6.177,3.047,7.205,4.448c0.343,0.464,0.242,1.121-0.223,1.462c-0.467,0.348-1.121,0.243-1.464-0.223     c-1.672-2.266-3.915-4.17-4.528-3.843c-0.688,0.679-0.768,5.97-0.131,11.291c0.069,0.575-0.342,1.096-0.915,1.164     C239.198,132.119,239.156,132.121,239.115,132.121z"/>
			<path style="fill:#1A1F36;" d="M288.277,168.463c0,0,176.952-3.104,177.987,3.104c1.035,6.209,1.035,44.497,1.035,44.497     s-182.764,0.189-182.764-5.046C284.535,201.705,288.277,168.463,288.277,168.463z"/>
			<path style="fill:#241726;" d="M186.66,153.018c-2.89,0-10.61-5.021-15.138-8.15c-0.475-0.327-0.595-0.98-0.267-1.456     c0.327-0.477,0.979-0.597,1.457-0.266c5.186,3.581,11.466,7.338,13.462,7.761c-0.275-1.918-3.36-8.023-6.363-13.082     c-0.294-0.497-0.131-1.139,0.366-1.434c0.497-0.301,1.138-0.135,1.436,0.366c2.812,4.738,7.4,13.029,6.522,15.303     c-0.167,0.434-0.512,0.748-0.972,0.89C187.016,152.995,186.849,153.018,186.66,153.018z"/>
			<path style="fill:#241726;" d="M217.521,135.039c-0.952,0-3.49-1.241-13.038-12.058c-0.382-0.434-0.342-1.096,0.092-1.479     c0.434-0.382,1.095-0.337,1.479,0.092c3.869,4.385,8.538,9.211,10.639,10.816c-0.266-3.061-1.619-10.299-2.552-14.819     c-0.117-0.566,0.247-1.121,0.814-1.237c0.566-0.131,1.121,0.245,1.237,0.812c0.297,1.436,2.886,14.09,2.617,16.639     c-0.06,0.566-0.399,1.002-0.907,1.164C217.803,135.003,217.685,135.039,217.521,135.039z"/>
			<path style="fill:#241726;" d="M157.222,179.567c-0.355,0-0.7-0.18-0.897-0.505c-0.899-1.485-3.65-6.475-1.352-8.358     c2.031-1.654,8.912,1.791,12.834,3.996c0.504,0.282,0.683,0.92,0.4,1.425c-0.284,0.503-0.925,0.681-1.425,0.399     c-4.675-2.624-9.591-4.593-10.523-4.172c-0.49,0.407,0.427,3.26,1.858,5.626c0.3,0.495,0.141,1.139-0.354,1.438     C157.593,179.517,157.406,179.567,157.222,179.567z"/>
			<circle style="fill:#B1342F;" cx="182.62" cy="164.947" r="7.892"/>
			<circle style="fill:#B1342F;" cx="229.482" cy="139.67" r="7.892"/>
			<path style="fill:#241726;" d="M202.46,153.195c-0.285,0-0.57-0.117-0.776-0.344c-0.389-0.429-0.356-1.092,0.074-1.479     c0.192-0.176,4.486-4.055,6.825-5.487c-0.673-1.973-6.568-8.865-12.002-14.499c-0.402-0.415-0.39-1.078,0.027-1.479     c0.418-0.399,1.079-0.393,1.481,0.027c4.89,5.068,13.032,13.951,12.63,16.5c-0.074,0.47-0.339,0.851-0.746,1.07     c-1.646,0.879-5.473,4.211-6.809,5.421C202.962,153.105,202.71,153.195,202.46,153.195z"/>
			<path style="fill:#B45036;" d="M447.897,216.725c-2.716-1.552-5.943-1.428-9.079-0.554c-4.377-2.059-10.762-1.141-16.163,0.339     c3.481-1.564,5.273-3.048-0.223-3.119c-38.793-0.503-34.31,21.465-34.31,21.465c1.345,1.793,30.038,4.035,30.038,4.035     C432.132,217.747,458.141,222.579,447.897,216.725z"/>
			<path style="fill:#B45036;" d="M79.984,149.941c0.729-0.456,0.377-1.076-2.072-2.445c-11.867-6.632-18.498,12.216-18.498,12.216     s1.204-29.537-5.005-26.432c-0.693,0.346-1.282,0.924-1.806,1.632c-0.497-1.29-1.422-1.99-2.962-1.726     c-1.485,0.254-2.717,0.789-3.745,1.524c-0.723-0.215-1.765,0.027-3.236,0.919c-11.518,6.981-3.774,26.625-4.808,36.973     c-1.035,10.348-2.117,19.662-2.117,19.662c19.278-1.345,30.486,1.793,33.176-0.897c0,0,3.138-6.725,7.228-10.487     C89.343,168.738,84.898,152.562,79.984,149.941z M75.819,163.202c-4.921,2.296-5.886,2.157-5.886,2.157s-2.038-7.673,1.698-11.58     c1.778-1.859,4.387-2.596,6.285-3.122C77.492,153.512,79.991,161.255,75.819,163.202z"/>
			<path style="fill:#1A1F36;" d="M236.161,80.119c-1.312-1.531-2.69-2.572-4.065-3.24c3.207-6.373,3.322-15.239-6.895-21.526     c-8.748-5.383-16.003-3.48-20.559,0.223c-2.06-7.657-8.358-15.703-19.578-12.439c-8.196,2.384-12.557,5.909-14.847,9.254     c-4.314-4.505-11.183-7.595-18.659-3.67c-7.965,4.182-10.978,14.722-10.844,22.006c-4.602-1.62-11.18-1.057-17.509,7.191     c-7.177,9.352-4.423,17.672-1.069,21.671c-4.443,2.332-10.434,9.561-10.667,20.504c-0.316,14.834,11.306,26.92,17.595,27.439     c-1.839,1.866-3.659,4.842-3.659,8.869c0,9.902,16.137,20.171,23.105,10.269c6.968-9.902,8.802,2.2,16.135-3.715     c7.333-5.915-20.903-26.358-18.335-42.495c2.567-16.137,25.405-32.264,48.876-32.997c23.472-0.733,27.039,30.797,34.008,31.53     c6.968,0.733,1.694-7.306,6.828-10.24C241.155,105.82,244.962,90.388,236.161,80.119z"/>
			<path style="fill:#1A1F36;" d="M198.675,157.967c0,0,16.017-14.449,24.083-8.726s3.873,13.001,10.118,9.618     c6.244-3.382,6.052-20.044,10.475-12.76c4.423,7.285,11.305,39.967-21.216,50.634s-51.817-20.915-43.374-18.101     c8.586,2.862,13.62,3.076,21.854-1.041C204.256,175.771,188.528,166.292,198.675,157.967z"/>
			<path style="fill:#FBFCFF;" d="M215.038,167.584c-4.197,0-9.943-5.833-11.192-7.156c-0.397-0.419-0.377-1.082,0.043-1.479     c0.421-0.401,1.083-0.376,1.481,0.041c3.103,3.286,8.389,7.424,10.408,6.338c0.778-0.417,2.329-2.495-0.059-12.737     c-0.132-0.562,0.219-1.125,0.781-1.258c0.565-0.129,1.127,0.219,1.258,0.783c2.055,8.806,1.74,13.589-0.989,15.056     C216.238,167.46,215.654,167.584,215.038,167.584z"/>
			<path style="fill:#52AFA6;" d="M421.826,238.552c-1.047-5.235-19.018-3.5-35.771-4.547     c-16.753-1.047-11.636,68.491-21.868,62.927c-25.059-13.626-63.535-67.381-63.727-67.123c-6.048-8.666-45.604-10.327-53.55-8.839     c-7.321,1.371,7.982,23.493-10.004,32.437c-19.287,9.591-42.95-31.475-42.95-31.475s-23.609,1.739-37.542,9.032     c-16.799,7.365-51.007,41.462-68.38,45.323c-18.847,4.188-10.471-68.06-11.518-79.577c-1.047-11.518-48.165-3.141-48.165-3.141     c-8.377,2.094-35.6,141.355,45.024,141.355c34.055,0,58.926-9.16,76.331-19.735c2.441,26.93,6.626,48.828,7.086,51.496     c1.154,6.695,145.959,9.967,145.959,0.641c0-4.226-0.038-31.156-0.265-60.094c15.547,24.49,38.758,53.305,74.778,48.337     C437.993,347.19,422.873,243.787,421.826,238.552z"/>
			<path style="fill:#DF4F3E;" d="M163.424,331.78c0,0,10.471-48.165,19.894-48.165s90.572-8.377,94.76-2.094     c4.188,6.282,16.399,44.192,16.815,47.944c0.524,4.712,1.535,42.708-1.429,42.144c-6.257-1.19-125.853,2.054-126.9-5.276     S163.424,331.78,163.424,331.78z"/>
			<path style="fill:#241726;" d="M54.878,163.899c-0.346,0-0.683-0.17-0.882-0.483c-5.689-8.888-5.415-29.379-5.401-30.249     c0.009-0.571,0.476-1.029,1.047-1.029c0.005,0,0.011,0,0.017,0c0.578,0.01,1.039,0.487,1.03,1.063     c-0.003,0.207-0.278,20.729,5.07,29.085c0.312,0.487,0.17,1.135-0.317,1.446C55.266,163.846,55.071,163.899,54.878,163.899z"/>
			<path style="fill:#241726;" d="M46.152,163.552c-0.288,0-0.576-0.119-0.782-0.352c-8.766-9.861-0.827-24.655-0.485-25.281     c0.278-0.507,0.912-0.695,1.42-0.415c0.507,0.278,0.693,0.914,0.416,1.421c-0.076,0.139-7.569,14.129,0.213,22.884     c0.384,0.432,0.346,1.094-0.087,1.479C46.647,163.464,46.399,163.552,46.152,163.552z"/>
			<path style="fill:#241726;" d="M408.184,222.623c-0.5,0-0.943-0.36-1.031-0.869c-0.098-0.571,0.284-1.11,0.854-1.211     c8.551-1.474,16.21-3.808,16.723-5.094c0-0.579,0.464-1.016,1.043-1.016c0.578,0,1.042,0.501,1.042,1.08     c0,3.233-10.034,5.644-18.452,7.096C408.302,222.619,408.243,222.623,408.184,222.623z"/>
			<path style="fill:#241726;" d="M423.343,224.441c-0.307,0-0.61-0.133-0.817-0.391c-0.362-0.452-0.29-1.11,0.16-1.472     c0.393-0.315,9.702-7.696,17.86-6.516c0.573,0.084,0.968,0.616,0.884,1.188c-0.083,0.573-0.623,0.953-1.187,0.886     c-7.257-1.082-16.156,6.004-16.244,6.074C423.804,224.366,423.573,224.441,423.343,224.441z"/>
			<path style="fill:#241726;" d="M426.677,228.382c-0.329,0-0.654-0.155-0.858-0.446c-0.332-0.472-0.218-1.125,0.255-1.458     c0.471-0.331,11.654-8.09,19.821-7.156c0.575,0.067,0.987,0.587,0.92,1.162c-0.065,0.575-0.589,0.986-1.16,0.92     c-7.393-0.886-18.269,6.712-18.377,6.788C427.095,228.321,426.885,228.382,426.677,228.382z"/>
			<path style="fill:#FFFFFF;" d="M194.465,220.969c0,0-20.311,40.925,25.464,52.141c9.871,2.419,11.636-16.881,18.492-16.673     c10.004,0.303,18.634,10.544,20.311,3.941c4.85-19.098-2.122-37.893-16.976-43.047c-6.921-2.401,5.993,26.417-7.276,30.315     C217.145,252.739,197.8,220.666,194.465,220.969z"/>
			<path style="fill:#241726;" d="M173.893,367.904c-0.53,0-0.985-0.401-1.04-0.939c-0.107-1.031-2.623-25.297-2.095-30.578     c0.254-2.534,2.296-13.182,5.136-23.663c5.507-20.326,8.732-20.618,9.946-20.729c24.534-2.229,81.941-7.068,85.125-3.886     c2.282,2.282,8.604,16.677,14.882,31.224c1.522,3.526,2.723,6.309,3.115,7.092c1.617,3.235-0.499,33.874-0.94,39.983     c-0.042,0.577-0.54,1.018-1.12,0.969c-0.577-0.043-1.01-0.544-0.968-1.121c1.257-17.424,2.088-36.979,1.154-38.895     c-0.417-0.836-1.57-3.505-3.164-7.199c-3.977-9.213-12.25-28.383-14.44-30.574c-3.038-1.834-45.401,1.033-83.454,4.491     c-4.209,0.382-12.354,34.167-13.189,42.515c-0.507,5.07,2.068,29.903,2.093,30.152c0.06,0.575-0.357,1.09-0.933,1.149     C173.966,367.902,173.929,367.904,173.893,367.904z"/>
			<path style="fill:#241726;" d="M149.574,313.917c-0.444,0-0.855-0.284-0.997-0.728c-4.593-14.352-0.775-41.057-0.61-42.188     c0.083-0.573,0.607-0.957,1.187-0.886c0.572,0.084,0.968,0.616,0.884,1.188c-0.039,0.272-3.912,27.357,0.533,41.247     c0.177,0.55-0.127,1.139-0.678,1.317C149.787,313.901,149.68,313.917,149.574,313.917z"/>
			<path style="fill:#241726;" d="M33.568,200.77c-0.514,0-0.962-0.378-1.036-0.902c-0.081-0.573,0.319-1.102,0.892-1.182     c1.337-0.188,32.851-4.585,40.383-2.843c0.563,0.131,0.915,0.693,0.785,1.256s-0.692,0.916-1.256,0.785     c-7.157-1.657-39.297,2.83-39.622,2.875C33.665,200.766,33.616,200.77,33.568,200.77z"/>
			<path style="fill:#241726;" d="M412.442,247.056c-0.176,0-0.355-0.045-0.518-0.137c-7.68-4.389-27.314-4.998-27.511-5.004     c-0.579-0.016-1.034-0.499-1.017-1.078c0.016-0.577,0.527-1.004,1.077-1.016c0.827,0.025,20.357,0.632,28.491,5.278     c0.502,0.288,0.677,0.926,0.39,1.429C413.158,246.865,412.806,247.056,412.442,247.056z"/>
			<path style="fill:#241726;" d="M297.581,297.916c-0.106,0-0.214-0.016-0.32-0.051c-0.551-0.176-0.854-0.765-0.677-1.317     c4.992-15.53-2.232-44.848-2.305-45.143c-0.141-0.56,0.2-1.129,0.762-1.27c0.557-0.139,1.13,0.2,1.269,0.763     c0.307,1.225,7.443,30.191,2.268,46.292C298.434,297.634,298.023,297.916,297.581,297.916z"/>
			<path style="fill:#FBFCFF;" d="M133.756,120.969c-0.251,0-0.502-0.09-0.702-0.272c-0.119-0.106-11.783-10.917-2.213-23.062     c2.881-3.657,5.99-5.086,8.649-5.499c-0.272-0.716-0.506-1.446-0.697-2.178c-1.617-6.209-0.379-13.69,7.94-16.066     c4.26-1.217,8.238-0.928,11.605,0.102c-0.041-0.679-0.041-1.368,0.001-2.061c0.436-7.062,5.051-11.563,12.347-12.039     c7.875-0.515,13.64,3.734,16.973,8.636c2.913-4.896,8.644-8.424,16.204-6.152c4.352,1.305,7.396,3.655,9.045,6.982     c2.85,5.747,0.464,12.264,0.361,12.538c-0.204,0.54-0.813,0.808-1.347,0.611c-0.541-0.2-0.816-0.804-0.615-1.346     c0.021-0.059,2.167-5.963-0.282-10.886c-1.383-2.781-3.996-4.765-7.764-5.896c-7.765-2.321-12.426,2.45-14.338,6.25     c0.137,0.26,0.267,0.519,0.391,0.779c1.22,2.562,2.063,5.798,0.768,7.199c-0.263,0.28-1.004,0.89-2.253,0.407     c-2.172-0.834-2.785-3.869-1.528-7.552c0.084-0.245,0.175-0.491,0.272-0.734c-1.545-2.562-6.537-9.325-15.751-8.747     c-8.855,0.577-10.218,7.24-10.394,10.078c-0.056,0.918-0.021,1.841,0.092,2.736c3.272,1.413,5.777,3.473,7.131,5.266     c1.212,1.607,1.538,3.041,0.918,4.039c-0.385,0.62-1.268,1.282-3.247,0.9c-3.176-0.605-5.787-4.215-6.683-8.675     c-3.14-1.145-7.045-1.644-11.333-0.423c-8.644,2.47-7.152,10.978-6.488,13.526c0.237,0.908,0.533,1.769,0.871,2.571     c1.775,0.055,3.175,0.491,3.903,0.771c2.873,1.108,4.795,3.137,4.672,4.935c-0.037,0.534-0.335,1.83-2.308,2.293     c-2.819,0.673-5.693-2.121-7.581-5.853c-2.343,0.237-5.212,1.385-7.891,4.785c-8.349,10.598,1.55,19.827,1.977,20.215     c0.426,0.389,0.458,1.051,0.07,1.479C134.324,120.853,134.041,120.969,133.756,120.969z M142.805,94.204     c1.54,2.554,3.434,4.047,4.672,3.759c0.315-0.074,0.685-0.223,0.697-0.401c0.038-0.542-1.045-1.951-3.335-2.834     C144.413,94.563,143.706,94.334,142.805,94.204z M161.092,77.418c0.918,2.906,2.656,5.154,4.622,5.528     c0.849,0.164,1.107,0.012,1.111,0.012c0.012-0.153-0.292-1.217-1.812-2.726C164.117,79.34,162.777,78.311,161.092,77.418z      M187.919,73.456c-0.41,1.967-0.05,3.333,0.661,3.605c0.004,0.002,0.007,0.004,0.01,0.004     C188.72,76.598,188.629,75.291,187.919,73.456z"/>
			<path style="fill:#FBFCFF;" d="M216.823,191.473c-0.163,0-0.328-0.039-0.484-0.119c-0.512-0.268-0.711-0.9-0.444-1.413     c1.336-2.56,1.705-4.728,1.094-6.442c-0.659-1.849-2.25-2.55-2.317-2.579c-0.529-0.227-0.778-0.838-0.555-1.37     c0.223-0.53,0.83-0.787,1.36-0.562c0.1,0.041,2.479,1.047,3.468,3.763c0.836,2.293,0.435,5.039-1.193,8.16     C217.566,191.268,217.201,191.473,216.823,191.473z"/>
			<path style="fill:#FBFCFF;" d="M225.899,186.935c-0.256,0-0.511-0.092-0.713-0.28c-0.423-0.393-0.448-1.055-0.054-1.479     c0.932-1.004,1.358-2.09,1.303-3.319c-0.139-3.104-3.298-5.98-3.329-6.008c-0.429-0.387-0.465-1.047-0.08-1.479     c0.385-0.427,1.046-0.466,1.478-0.082c0.156,0.141,3.839,3.479,4.023,7.464c0.084,1.798-0.542,3.43-1.86,4.847     C226.461,186.822,226.18,186.935,225.899,186.935z"/>
			<path style="fill:#FBFCFF;" d="M236.371,183.096c-0.054,0-0.109-0.004-0.165-0.012c-0.571-0.09-0.961-0.628-0.87-1.198     c0.949-6.012-3.82-10.544-3.869-10.589c-0.422-0.395-0.445-1.057-0.051-1.479c0.395-0.419,1.058-0.446,1.481-0.051     c0.23,0.215,5.629,5.346,4.507,12.446C237.323,182.728,236.877,183.096,236.371,183.096z"/>
			<g>
				<g>
					<path style="fill:#FFFFFF;" d="M409.577,159.616l27.926-10.34c0,0-2.123-17.919,9.792-14.486s4.371,16.441,4.371,16.441       s16.948,2.687,10.174,11.97c-6.774,9.282-15.085-2.302-15.085-2.302s-29.104,15.125-30.75,16.75       C412.62,180.99,409.577,159.616,409.577,159.616z"/>
					<path style="fill:#241726;" d="M415.275,179.051c-3.297,0-5.482-10.487-6.734-19.287c-0.07-0.487,0.211-0.957,0.673-1.129       l27.174-10.062c-0.175-2.401-0.366-9.354,2.859-12.984c1.954-2.198,4.799-2.822,8.339-1.806       c3.45,0.994,5.743,2.849,6.812,5.509c1.645,4.09-0.125,8.919-1.173,11.18c2.852,0.642,9.179,2.493,10.844,6.526       c0.862,2.088,0.396,4.381-1.383,6.82c-1.953,2.675-4.242,4.033-6.805,4.033c-4.325,0-8.04-3.955-9.415-5.622       c-11.177,5.816-28.511,15.023-29.726,16.166C416.19,178.939,415.64,179.051,415.275,179.051z M410.736,160.304       c1.251,8.358,3.252,15.729,4.516,16.61c2.228-1.943,26.19-14.434,31.02-16.943c0.46-0.239,1.029-0.106,1.333,0.317       c0.039,0.055,3.988,5.471,8.275,5.471c1.857,0,3.577-1.068,5.114-3.174c1.339-1.834,1.712-3.399,1.14-4.783       c-1.39-3.37-8.147-5.137-10.633-5.534c-0.341-0.055-0.632-0.274-0.78-0.585c-0.148-0.311-0.134-0.675,0.039-0.973       c0.035-0.061,3.502-6.156,1.693-10.64c-0.818-2.029-2.65-3.466-5.448-4.272c-2.731-0.789-4.772-0.409-6.19,1.182       c-3.232,3.634-2.281,12.09-2.271,12.176c0.056,0.481-0.223,0.937-0.676,1.104L410.736,160.304z"/>
				</g>
				<g>
					<path style="fill:#FFFFFF;" d="M372.93,133.789l27.926-10.34c0,0-2.123-17.919,9.792-14.486       c11.915,3.434,0.933,15.497,0.933,15.497s19.688,3.282,12.914,12.565s-14.387-1.953-14.387-1.953s-29.104,15.125-30.75,16.75       C375.973,155.163,372.93,133.789,372.93,133.789z"/>
					<path style="fill:#241726;" d="M378.628,153.222c-3.297,0-5.482-10.487-6.734-19.287c-0.07-0.487,0.211-0.957,0.673-1.129       l27.174-10.062c-0.175-2.401-0.366-9.352,2.859-12.982c1.952-2.198,4.792-2.826,8.339-1.806       c3.337,0.961,5.375,2.673,6.058,5.088c1.104,3.9-1.801,8.481-3.508,10.735c3.514,0.798,11.243,3.029,13.067,7.495       c0.817,2,0.408,4.143-1.216,6.368c-1.987,2.722-4.271,4.102-6.79,4.102c-4.081,0.002-7.457-3.7-8.75-5.334       c-11.178,5.818-28.496,15.017-29.71,16.156C379.543,153.11,378.993,153.222,378.628,153.222z M374.089,134.475       c1.251,8.358,3.252,15.729,4.514,16.61c2.23-1.941,26.191-14.432,31.021-16.941c0.47-0.243,1.049-0.096,1.349,0.339       c0.036,0.053,3.565,5.17,7.577,5.168c1.812,0,3.528-1.09,5.098-3.243c1.182-1.62,1.499-3.041,0.968-4.342       c-1.566-3.841-10.066-6.047-13.209-6.573c-0.377-0.063-0.69-0.327-0.816-0.689c-0.126-0.362-0.044-0.765,0.214-1.047       c1.495-1.646,5.159-6.679,4.176-10.144c-0.474-1.671-2.03-2.898-4.624-3.644c-2.737-0.791-4.776-0.411-6.192,1.184       c-3.237,3.642-2.279,12.086-2.269,12.172c0.057,0.481-0.223,0.937-0.676,1.104L374.089,134.475z"/>
				</g>
				<path style="fill:#D98011;" d="M413.794,147.513c-4.739-2.502-9.735-2.415-14.622-0.829      c-5.907-9.456-12.313-21.435-30.493-25.823c-30.009-7.244-63.123,54.845-63.123,54.845      c-7.592,26.151,63.153,34.382,99.653,27.003c9.124-0.512,17.982-2.359,24.367-5.306      C452.782,186.693,434.357,158.373,413.794,147.513z"/>
				<path style="fill:#241726;" d="M381.564,205.085c-0.043,0-0.086-0.002-0.13-0.008c-0.728-0.09-17.879-2.333-23.324-12.499      c-2.424-4.526-2.129-9.869,0.877-15.882c11.46-22.919,39.469-30.829,39.75-30.907c0.552-0.149,1.132,0.174,1.286,0.732      c0.153,0.558-0.175,1.135-0.732,1.288c-0.272,0.074-27.396,7.753-38.431,29.823c-2.684,5.366-2.989,10.062-0.907,13.951      c4.93,9.213,21.571,11.395,21.739,11.416c0.574,0.072,0.981,0.595,0.909,1.168C382.536,204.696,382.085,205.085,381.564,205.085      z"/>
				<path style="fill:#241726;" d="M372.141,130.045c-0.319,0-0.633-0.145-0.839-0.419c-2.549-3.395-6.193-1.53-6.349-1.45      c-0.509,0.27-1.143,0.076-1.414-0.434c-0.271-0.509-0.082-1.139,0.426-1.413c1.845-0.99,6.099-1.843,9.012,2.041      c0.348,0.462,0.254,1.119-0.21,1.466C372.579,129.978,372.359,130.045,372.141,130.045z"/>
				<path style="fill:#241726;" d="M350.439,139.442c-0.181,0-0.365-0.047-0.532-0.147c-0.496-0.292-0.662-0.931-0.37-1.427      c1.059-1.808,4.256-4.751,8.761-2.941c0.537,0.215,0.798,0.824,0.583,1.36c-0.217,0.538-0.828,0.798-1.362,0.583      c-3.942-1.581-6.089,1.91-6.178,2.061C351.145,139.258,350.796,139.442,350.439,139.442z"/>
				<path style="fill:#241726;" d="M370.745,136.675c-0.319,0-0.633-0.145-0.838-0.419c-2.548-3.397-6.195-1.53-6.348-1.448      c-0.513,0.268-1.144,0.076-1.415-0.434c-0.271-0.509-0.082-1.139,0.425-1.413c1.845-0.992,6.101-1.847,9.013,2.039      c0.348,0.462,0.254,1.119-0.21,1.466C371.184,136.608,370.964,136.675,370.745,136.675z"/>
				<path style="fill:#241726;" d="M339.482,139.508c-0.139,0-0.281-0.029-0.417-0.088c-0.531-0.231-0.773-0.847-0.542-1.378      c0.837-1.918,3.66-5.209,8.346-3.965c0.559,0.149,0.891,0.724,0.741,1.282c-0.148,0.56-0.727,0.886-1.281,0.742      c-4.14-1.106-5.817,2.62-5.886,2.779C340.271,139.273,339.887,139.508,339.482,139.508z"/>
				<path style="fill:#241726;" d="M351,132.444c-0.216,0-0.433-0.067-0.62-0.204c-0.463-0.344-0.564-0.994-0.224-1.458      c1.237-1.689,4.713-4.288,9.012-2.043c0.512,0.268,0.711,0.902,0.442,1.413c-0.269,0.513-0.899,0.708-1.413,0.444      c-3.756-1.976-6.25,1.286-6.353,1.425C351.637,132.297,351.321,132.444,351,132.444z"/>
				<path style="fill:#241726;" d="M419.609,157.967c-0.319,0-0.633-0.145-0.838-0.419c-2.571-3.428-6.192-1.534-6.345-1.45      c-0.51,0.27-1.144,0.084-1.419-0.425c-0.274-0.509-0.083-1.145,0.425-1.419c1.845-0.99,6.102-1.845,9.014,2.039      c0.348,0.462,0.254,1.119-0.21,1.466C420.047,157.899,419.827,157.967,419.609,157.967z"/>
				<path style="fill:#241726;" d="M397.907,167.366c-0.18,0-0.362-0.047-0.529-0.143c-0.499-0.294-0.666-0.935-0.373-1.434      c1.06-1.808,4.256-4.742,8.76-2.939c0.537,0.215,0.798,0.824,0.583,1.36c-0.217,0.536-0.827,0.798-1.362,0.583      c-3.981-1.597-6.087,1.904-6.175,2.055C398.617,167.182,398.266,167.366,397.907,167.366z"/>
				<path style="fill:#241726;" d="M418.212,164.599c-0.319,0-0.633-0.145-0.838-0.419c-2.55-3.395-6.194-1.532-6.349-1.45      c-0.508,0.27-1.144,0.076-1.414-0.434c-0.271-0.509-0.082-1.139,0.426-1.413c1.845-0.99,6.099-1.843,9.012,2.041      c0.348,0.462,0.254,1.119-0.21,1.466C418.65,164.531,418.431,164.599,418.212,164.599z"/>
				<path style="fill:#241726;" d="M386.949,167.427c-0.141,0-0.283-0.029-0.42-0.09c-0.528-0.231-0.769-0.845-0.539-1.374      c0.836-1.918,3.662-5.219,8.347-3.963c0.558,0.151,0.89,0.724,0.74,1.282c-0.148,0.56-0.72,0.883-1.282,0.742      c-4.098-1.098-5.816,2.622-5.887,2.781C387.734,167.194,387.351,167.427,386.949,167.427z"/>
				<path style="fill:#241726;" d="M398.467,160.367c-0.215,0-0.43-0.065-0.618-0.202c-0.466-0.342-0.568-0.996-0.226-1.462      c1.235-1.691,4.71-4.284,9.012-2.041c0.512,0.268,0.711,0.902,0.442,1.413c-0.268,0.513-0.9,0.71-1.413,0.444      c-3.796-1.992-6.249,1.282-6.351,1.419C399.108,160.218,398.79,160.367,398.467,160.367z"/>
			</g>
			<path style="fill:#FBFCFF;" d="M183.319,284.662c-0.376,0-0.739-0.202-0.927-0.558c-13.309-25.218-2.975-60.468-2.869-60.822     c0.166-0.554,0.745-0.873,1.304-0.701c0.554,0.166,0.868,0.748,0.702,1.303c-0.103,0.346-10.19,34.793,2.716,59.243     c0.27,0.511,0.074,1.145-0.438,1.415C183.651,284.623,183.484,284.662,183.319,284.662z"/>
			<path style="fill:#FBFCFF;" d="M278.079,282.568c-0.038,0-0.076-0.002-0.113-0.006c-0.575-0.061-0.991-0.579-0.928-1.153     c3.236-29.979-16.2-58.339-16.397-58.624c-0.33-0.474-0.213-1.127,0.263-1.456c0.473-0.329,1.126-0.213,1.457,0.262     c0.201,0.288,20.079,29.296,16.759,60.043C279.061,282.169,278.607,282.568,278.079,282.568z"/>
			<path style="fill:#FBFCFF;" d="M149.813,340.507c-0.366,0-0.721-0.192-0.913-0.532c-0.284-0.505-0.106-1.143,0.398-1.427     l13.612-7.679c0.506-0.286,1.143-0.104,1.426,0.397c0.284,0.505,0.106,1.143-0.398,1.427l-13.612,7.679     C150.163,340.464,149.986,340.507,149.813,340.507z"/>
			<path style="fill:#FBFCFF;" d="M302.683,333.525c-0.206,0-0.413-0.059-0.595-0.186l-9.075-6.282     c-0.475-0.329-0.594-0.982-0.265-1.456c0.329-0.477,0.981-0.599,1.457-0.266l9.075,6.282c0.475,0.329,0.594,0.982,0.265,1.456     C303.342,333.367,303.015,333.525,302.683,333.525z"/>
			<g>
				<path style="fill:#241726;" d="M28.352,261.657c-0.233,0-0.468-0.078-0.663-0.239c-0.085-0.07-2.071-1.734-1.971-4.104      c0.066-1.591,1.025-3.039,2.848-4.301c0.475-0.333,1.127-0.213,1.457,0.266c0.329,0.474,0.211,1.127-0.265,1.456      c-1.25,0.865-1.905,1.759-1.947,2.657c-0.063,1.323,1.201,2.403,1.214,2.415c0.441,0.37,0.501,1.029,0.133,1.472      C28.951,261.529,28.652,261.657,28.352,261.657z"/>
				<path style="fill:#241726;" d="M36.727,270.717c-0.234,0-0.468-0.08-0.663-0.239c-0.085-0.07-2.072-1.736-1.972-4.107      c0.067-1.593,1.026-3.039,2.848-4.301c0.475-0.333,1.127-0.213,1.457,0.266c0.329,0.474,0.211,1.127-0.265,1.456      c-1.25,0.865-1.905,1.759-1.947,2.657c-0.062,1.323,1.202,2.405,1.215,2.417c0.441,0.37,0.501,1.029,0.133,1.472      C37.325,270.588,37.026,270.717,36.727,270.717z"/>
				<path style="fill:#241726;" d="M36.424,259.06c-0.234,0-0.468-0.08-0.663-0.239c-0.085-0.07-2.072-1.736-1.972-4.106      c0.067-1.593,1.026-3.039,2.848-4.301c0.475-0.331,1.127-0.213,1.457,0.266c0.329,0.474,0.211,1.127-0.265,1.456      c-1.25,0.865-1.905,1.759-1.947,2.657c-0.062,1.323,1.202,2.405,1.215,2.417c0.441,0.37,0.501,1.029,0.133,1.472      C37.022,258.931,36.724,259.06,36.424,259.06z"/>
				<path style="fill:#241726;" d="M31.302,239.652c-0.234,0-0.468-0.08-0.663-0.239c-0.085-0.07-2.072-1.736-1.971-4.106      c0.066-1.593,1.025-3.039,2.847-4.301c0.475-0.333,1.127-0.211,1.457,0.266c0.329,0.474,0.211,1.127-0.265,1.456      c-1.25,0.865-1.904,1.759-1.947,2.657c-0.062,1.325,1.202,2.405,1.215,2.417c0.441,0.37,0.501,1.031,0.132,1.472      C31.901,239.524,31.602,239.652,31.302,239.652z"/>
				<path style="fill:#241726;" d="M27.256,249.013c-0.234,0-0.47-0.078-0.665-0.239c-0.085-0.07-2.072-1.736-1.972-4.106      c0.067-1.591,1.026-3.039,2.848-4.299c0.475-0.331,1.127-0.213,1.457,0.266c0.329,0.474,0.211,1.127-0.266,1.456      c-1.254,0.867-1.908,1.765-1.947,2.665c-0.055,1.319,1.199,2.393,1.212,2.403c0.447,0.368,0.51,1.029,0.142,1.474      C27.858,248.882,27.559,249.013,27.256,249.013z"/>
				<path style="fill:#241726;" d="M34.051,247.389c-0.217,0-0.437-0.067-0.624-0.209c-0.069-0.051-1.659-1.274-1.606-3.309      c0.044-1.746,1.262-3.442,3.62-5.037c0.482-0.327,1.131-0.198,1.454,0.28c0.324,0.479,0.198,1.131-0.28,1.454      c-1.73,1.17-2.664,2.325-2.701,3.34c-0.034,0.953,0.774,1.599,0.782,1.605c0.451,0.356,0.536,1.01,0.186,1.466      C34.675,247.248,34.365,247.389,34.051,247.389z"/>
				<path style="fill:#241726;" d="M31.243,275.664c-0.155,0-0.314-0.035-0.462-0.108c-0.111-0.055-2.727-1.37-3.479-3.945      c-0.435-1.487-0.169-3.045,0.79-4.632c0.297-0.495,0.939-0.654,1.438-0.354c0.495,0.299,0.653,0.943,0.354,1.438      c-0.651,1.078-0.839,2.047-0.572,2.961c0.489,1.673,2.376,2.644,2.395,2.654c0.518,0.256,0.732,0.883,0.475,1.403      C32.001,275.449,31.63,275.664,31.243,275.664z"/>
			</g>
			<g>
				<path style="fill:#241726;" d="M411.548,291.055c-0.433,0-0.838-0.27-0.989-0.701c-0.19-0.546,0.098-1.143,0.644-1.333      c1.435-0.501,2.304-1.188,2.584-2.041c0.413-1.26-0.517-2.638-0.527-2.652c-0.326-0.474-0.209-1.127,0.265-1.456      c0.474-0.323,1.122-0.213,1.452,0.258c0.063,0.09,1.534,2.225,0.807,4.483c-0.489,1.515-1.799,2.655-3.892,3.385      C411.779,291.037,411.662,291.055,411.548,291.055z"/>
				<path style="fill:#241726;" d="M405.891,280.094c-0.433,0-0.838-0.27-0.989-0.701c-0.19-0.546,0.098-1.143,0.644-1.333      c1.44-0.503,2.31-1.192,2.587-2.051c0.405-1.258-0.517-2.628-0.528-2.64c-0.331-0.474-0.217-1.127,0.257-1.458      c0.473-0.333,1.126-0.217,1.459,0.256c0.062,0.09,1.533,2.225,0.805,4.485c-0.489,1.515-1.798,2.657-3.891,3.385      C406.122,280.075,406.006,280.094,405.891,280.094z"/>
				<path style="fill:#241726;" d="M403.076,291.409c-0.433,0-0.838-0.27-0.989-0.701c-0.19-0.546,0.098-1.143,0.644-1.333      c1.435-0.501,2.304-1.188,2.584-2.041c0.413-1.26-0.517-2.638-0.527-2.652c-0.326-0.474-0.209-1.127,0.265-1.456      c0.474-0.325,1.124-0.215,1.452,0.258c0.063,0.09,1.534,2.225,0.807,4.483c-0.489,1.515-1.799,2.655-3.892,3.385      C403.307,291.391,403.191,291.409,403.076,291.409z"/>
				<path style="fill:#241726;" d="M402.84,311.481c-0.433,0-0.838-0.27-0.989-0.701c-0.19-0.546,0.098-1.143,0.644-1.333      c1.435-0.501,2.304-1.188,2.584-2.041c0.414-1.262-0.517-2.64-0.527-2.654c-0.326-0.477-0.209-1.127,0.265-1.456      c0.477-0.329,1.124-0.215,1.452,0.258c0.063,0.09,1.535,2.225,0.806,4.485c-0.489,1.515-1.798,2.657-3.891,3.385      C403.071,311.463,402.955,311.481,402.84,311.481z"/>
				<path style="fill:#241726;" d="M409.237,303.536c-0.433,0-0.839-0.27-0.989-0.701c-0.19-0.546,0.098-1.143,0.644-1.333      c1.435-0.501,2.304-1.188,2.584-2.041c0.413-1.26-0.517-2.638-0.527-2.652c-0.326-0.474-0.209-1.127,0.265-1.456      c0.473-0.323,1.123-0.215,1.452,0.258c0.063,0.09,1.534,2.225,0.807,4.483c-0.489,1.515-1.799,2.654-3.892,3.385      C409.468,303.518,409.352,303.536,409.237,303.536z"/>
				<path style="fill:#241726;" d="M401.154,302.886c-0.438,0-0.845-0.276-0.992-0.712c-0.185-0.548,0.109-1.143,0.658-1.327      c1.992-0.673,3.202-1.542,3.498-2.517c0.273-0.898-0.318-1.722-0.324-1.73c-0.353-0.458-0.266-1.117,0.192-1.468      c0.46-0.352,1.117-0.262,1.468,0.192c0.052,0.067,1.259,1.669,0.667,3.616c-0.509,1.673-2.134,2.982-4.832,3.892      C401.378,302.867,401.264,302.886,401.154,302.886z"/>
				<path style="fill:#241726;" d="M415.353,277.948c-0.278,0-0.555-0.11-0.761-0.327c-0.398-0.421-0.378-1.084,0.042-1.481      c0.912-0.863,1.35-1.742,1.341-2.689c-0.019-1.755-1.59-3.196-1.605-3.211c-0.427-0.387-0.463-1.049-0.078-1.479      c0.382-0.427,1.045-0.466,1.473-0.082c0.093,0.082,2.264,2.049,2.303,4.73c0.022,1.548-0.649,2.98-1.996,4.252      C415.869,277.854,415.611,277.948,415.353,277.948z"/>
			</g>
		</g>
		<path style="fill:#1A1F36;" d="M66.283,366.495c0,0,323.11-2.665,328.68,0c5.571,2.665,37.603,91.935,34.818,95.932    c-2.785,3.997-399.709,2.665-399.709-2.665S66.283,366.495,66.283,366.495z"/>
		<g>
			<path style="fill:#FFFFFF;" d="M171.147,383.283c0,0,88.209-22.691,119.626,0s32.625,72.85-72.501,65.684     C113.147,441.801,143.355,391.643,171.147,383.283z"/>
			<path style="fill:#241726;" d="M237.58,444.427c-5.28,0-10.927-0.198-16.781-0.589c-53.659-3.581-63.385-19.651-64.406-28.911     c-1.387-12.577,11.035-24.958,23.508-28.629c0.379-0.096,34.354-8.563,64.722-8.563c17.982,0,31.246,2.931,39.423,8.712     c12.996,9.188,19.09,22.377,15.524,33.598C296.676,429.15,284.775,444.427,237.58,444.427z M244.623,379.829     c-30.111,0-63.834,8.403-64.171,8.489c-11.38,3.35-23.231,15.015-21.977,26.377c0.95,8.61,10.328,23.573,62.463,27.052     c5.808,0.389,11.407,0.585,16.642,0.585c45.862,0,57.273-14.36,59.994-22.921c3.233-10.176-2.688-22.737-14.737-31.255     C275.021,382.631,262.163,379.829,244.623,379.829z"/>
		</g>
		<g>
			<path style="fill:#DF4F3E;" d="M72.358,376.433c0,0,4.512-18.176,29.642-16.082c25.13,2.094,39.435,36.348,10.117,47.866     S60.84,400.516,72.358,376.433z"/>
			<path style="fill:#52AFA6;" d="M78.034,365.396c0,0-8.514-7.253-6.622-9.46c1.892-2.207,7.253-7.883,7.884-4.415     c0.631,3.469,2.523,9.145,2.523,9.145s13.244-6.622,20.182-0.315c6.937,6.307-10.406,0-8.514,3.469     c1.892,3.469,11.668,8.83,7.884,11.668c-3.784,2.838-16.713-4.099-16.713-4.099s1.261,13.244-0.946,13.56     s-7.253-8.514-7.253-8.514s-6.307,14.821-7.568,8.514C67.628,378.64,73.304,366.973,78.034,365.396z"/>
			<path style="fill:#241726;" d="M123.759,385.995c-0.008,0-0.016,0-0.025,0c-0.579-0.014-1.036-0.493-1.023-1.072     c0.291-12.252-15.767-16.579-15.93-16.62c-0.559-0.147-0.895-0.718-0.75-1.278c0.146-0.558,0.719-0.896,1.276-0.751     c0.178,0.047,17.828,4.783,17.498,18.698C124.791,385.543,124.326,385.995,123.759,385.995z"/>
		</g>
		<g>
			<path style="fill:#D98011;" d="M111.07,445.126c0,0-3.665-10.994,6.021-13.612s23.297,9.162,19.633,18.586     S113.688,459.523,111.07,445.126z"/>
			<path style="fill:#241726;" d="M130.704,441.723c-0.327,0-0.648-0.151-0.853-0.438c-3.543-4.961-8.372-5.057-8.576-5.059     c-0.577-0.004-1.043-0.474-1.041-1.051c0.002-0.577,0.468-1.043,1.045-1.043c0.246,0,6.084,0.067,10.275,5.935     c0.336,0.472,0.227,1.125-0.243,1.462C131.127,441.66,130.914,441.723,130.704,441.723z"/>
		</g>
		<g>
			<path style="fill:#D98011;" d="M143.2,452.596c0,0-9.557-6.556-3.413-14.487s24.106-6.753,26.87,2.973     C169.421,450.808,153.975,462.497,143.2,452.596z"/>
			<path style="fill:#241726;" d="M145.339,439.551c-0.317,0-0.63-0.143-0.835-0.415c-0.35-0.46-0.259-1.117,0.202-1.466     c0.197-0.149,4.894-3.614,11.775-1.47c0.552,0.174,0.86,0.761,0.687,1.313c-0.172,0.552-0.766,0.857-1.311,0.687     c-5.867-1.836-9.848,1.11-9.888,1.139C145.781,439.482,145.559,439.551,145.339,439.551z"/>
		</g>
		<g>
			<path style="fill:#DF4F3E;" d="M272.692,393.82c0,0,11.169-12.565,24.781-2.094c13.612,10.471,6.282,30.016-9.773,28.969     C271.645,419.648,266.061,402.196,272.692,393.82z"/>
			<path style="fill:#241726;" d="M291.636,417.716c-2.097,0-4.283-0.562-6.498-1.669c-6.274-3.139-9.975-8.35-9.898-13.943     c0.048-3.554,1.752-6.63,4.34-7.837c0.113-0.063,4.163-2.231,8.985-2.231c4.702,0,8.568,2.106,11.181,6.094     c2.951,4.507,3.383,9.902,1.124,14.08C299.007,415.657,295.555,417.716,291.636,417.716z M288.564,394.13     c-4.297,0-8.005,1.986-8.042,2.006c-1.922,0.898-3.151,3.239-3.188,5.996c-0.065,4.769,3.202,9.272,8.741,12.041     c5.381,2.689,10.6,1.395,12.953-2.959c1.892-3.501,1.495-8.074-1.035-11.935C295.754,395.863,292.583,394.13,288.564,394.13z"/>
			<path style="fill:#241726;" d="M291.165,402.981c-0.534,0-0.99-0.405-1.041-0.947c-0.053-0.556-0.222-0.937-0.516-1.168     c-0.477-0.372-1.204-0.292-1.212-0.292c-0.579,0.098-1.104-0.307-1.191-0.879c-0.086-0.573,0.309-1.104,0.88-1.19     c0.166-0.025,1.629-0.213,2.812,0.712c0.524,0.409,1.176,1.196,1.311,2.618c0.055,0.577-0.367,1.088-0.943,1.143     C291.232,402.979,291.198,402.981,291.165,402.981z"/>
			<path style="fill:#241726;" d="M286.777,409.231c-0.175,0-0.352-0.043-0.514-0.135c-1.408-0.796-2.209-1.749-2.378-2.83     c-0.199-1.272,0.573-2.151,0.662-2.248c0.392-0.427,1.056-0.452,1.48-0.059c0.419,0.387,0.45,1.037,0.074,1.462     c-0.02,0.027-0.195,0.254-0.143,0.536c0.074,0.397,0.561,0.877,1.337,1.315c0.503,0.284,0.681,0.924,0.397,1.427     C287.496,409.039,287.142,409.231,286.777,409.231z"/>
			<path style="fill:#241726;" d="M292.896,410.562c-0.303,0-0.602-0.131-0.809-0.38c-0.368-0.448-0.305-1.106,0.142-1.474     c1.1-0.906,1.154-1.542,1.012-1.773c-0.361-0.452-0.272-1.09,0.179-1.45c0.453-0.364,1.127-0.268,1.488,0.184     c0.592,0.738,1.071,2.663-1.348,4.655C293.366,410.485,293.131,410.562,292.896,410.562z"/>
		</g>
		<g>
			<path style="fill:#DF4F3E;" d="M252.004,437.432c0,0-1.095-16.775,15.919-19.107c17.014-2.331,25.775,16.616,13.75,27.306     C269.649,456.322,253.307,448.036,252.004,437.432z"/>
			<path style="fill:#241726;" d="M269.825,445.378c-4.725,0-8.955-1.998-11.316-5.346c-1.626-2.305-2.13-4.992-1.349-7.186     c0.015-0.059,3.575-11.943,13.947-11.943c0.96,0,1.959,0.102,2.97,0.307c6.274,1.264,10.907,6.023,11.266,11.571     c0.334,5.16-2.947,9.424-8.778,11.411C274.252,444.979,271.984,445.378,269.825,445.378z M271.107,422.996     c-8.816,0-11.925,10.387-11.954,10.491c-0.574,1.616-0.167,3.587,1.066,5.336c1.97,2.794,5.561,4.46,9.606,4.46     c1.928,0,3.969-0.362,6.066-1.076c4.881-1.663,7.633-5.135,7.364-9.293c-0.299-4.605-4.242-8.575-9.59-9.653     C272.788,423.086,271.928,422.996,271.107,422.996z"/>
			<path style="fill:#241726;" d="M266.999,431.426c-0.218,0-0.436-0.067-0.623-0.207c-0.46-0.344-0.561-0.988-0.223-1.452     c0.097-0.133,0.993-1.307,2.483-1.499c0.66-0.082,1.678,0.006,2.783,0.906c0.448,0.366,0.515,1.025,0.15,1.474     c-0.366,0.446-1.026,0.511-1.473,0.149c-0.427-0.35-0.809-0.495-1.182-0.454c-0.512,0.061-0.95,0.501-1.076,0.667     C267.632,431.283,267.317,431.426,266.999,431.426z"/>
			<path style="fill:#241726;" d="M270.664,438.778c-0.765,0-1.414-0.19-1.941-0.569c-1.045-0.753-1.129-1.918-1.135-2.049     c-0.027-0.579,0.419-1.068,0.997-1.094c0.606-0.068,1.055,0.407,1.094,0.973c0.004,0.037,0.044,0.319,0.281,0.481     c0.334,0.225,1.017,0.213,1.876-0.027c0.559-0.164,1.136,0.166,1.293,0.72c0.158,0.556-0.165,1.135-0.721,1.292     C271.774,438.688,271.191,438.778,270.664,438.778z"/>
			<path style="fill:#241726;" d="M277.368,435.128c-0.032,0-0.063-0.002-0.095-0.004c-0.576-0.051-1.001-0.56-0.949-1.137     c0.128-1.419-0.286-1.904-0.551-1.967c-0.575-0.059-0.965-0.571-0.905-1.145c0.061-0.575,0.587-1,1.178-0.928     c0.941,0.098,2.645,1.11,2.364,4.229C278.361,434.719,277.904,435.128,277.368,435.128z"/>
		</g>
		<g>
			<path style="fill:#52AFA6;" d="M166.897,413.133c0,0-4.097-0.042-4.985-4.851c-0.888-4.809,1.078-13.921-5.293-9.068     s-3.722,9.094-3.722,9.094s-4.267-6.365-6.076-1.116c-1.81,5.25,1.449,7.156,1.449,7.156s-4.9-1.689-4.507,5.691     c0.393,7.38,5.57,4.857,5.57,4.857s-7.38,0.393-2.045,5.364c5.335,4.971,7.686-7.531,12.248-7.134s6.994,2.998,8.538,0.789     C169.619,421.707,175.447,412.752,166.897,413.133z"/>
			<path style="fill:#241726;" d="M167.266,418.636c-0.057,0-0.115-0.004-0.173-0.014c-4.636-0.771-7.174-5.898-7.279-6.115     c-0.253-0.519-0.036-1.145,0.484-1.399c0.523-0.252,1.147-0.037,1.399,0.483c0.021,0.043,2.18,4.372,5.74,4.965     c0.571,0.094,0.956,0.634,0.861,1.205C168.213,418.272,167.769,418.636,167.266,418.636z"/>
			<path style="fill:#241726;" d="M164.355,420.575c-0.229,0-0.46-0.076-0.653-0.229c-2.842-2.276-6.367-0.094-6.403-0.07     c-0.488,0.307-1.135,0.164-1.445-0.325s-0.165-1.135,0.324-1.446c0.195-0.125,4.832-2.992,8.833,0.204     c0.451,0.362,0.525,1.02,0.164,1.472C164.967,420.44,164.663,420.575,164.355,420.575z"/>
		</g>
		<g>
			<path style="fill:#52AFA6;" d="M170.491,390.94c0,0-3.665-1.832-2.356-6.544c1.309-4.712,7.068-12.041-0.785-10.471     c-7.853,1.571-7.33,6.544-7.33,6.544s-1.047-7.591-4.974-3.665s-1.832,7.068-1.832,7.068s-3.665-3.665-6.544,3.141     c-2.879,6.806,2.879,6.806,2.879,6.806s-6.806-2.879-4.188,3.927c2.618,6.806,10.209-3.403,14.135-1.047     c3.927,2.356,4.974,5.759,7.329,4.45S178.344,394.343,170.491,390.94z"/>
			<path style="fill:#241726;" d="M166.304,395.509c-0.138,0-0.277-0.027-0.411-0.082c-1.898-0.791-3.203-6.203-3.811-9.356     c-0.11-0.569,0.262-1.117,0.829-1.227c0.565-0.106,1.117,0.262,1.226,0.83c0.721,3.728,1.933,7.389,2.594,7.835     c0.534,0.223,0.769,0.828,0.547,1.362C167.112,395.271,166.716,395.509,166.304,395.509z"/>
			<path style="fill:#241726;" d="M163.665,396.752c-0.358,0-0.707-0.184-0.903-0.515c-1.117-1.888-6.053-3.068-8.903-3.368     c-0.576-0.059-0.993-0.575-0.932-1.151c0.06-0.575,0.577-0.998,1.15-0.931c0.862,0.09,8.477,0.984,10.488,4.387     c0.293,0.497,0.129,1.139-0.369,1.434C164.029,396.705,163.846,396.752,163.665,396.752z"/>
		</g>
		<g>
			<path style="fill:#52AFA6;" d="M191.776,412.919c0,0-2.299-3.392,1.148-6.86c3.447-3.468,12.057-7.042,4.44-9.515     c-7.617-2.474-9.595,2.12-9.595,2.12s2.802-7.132-2.544-5.63c-5.346,1.502-5.057,5.267-5.057,5.267s-1.402-4.989-7.244-0.464     c-5.842,4.526-0.82,7.344-0.82,7.344s-4.526-5.842-5.574,1.374s10.568,2.029,12.839,6.005c2.271,3.976,1.519,7.456,4.214,7.468     C186.278,420.04,196.958,419.73,191.776,412.919z"/>
			<path style="fill:#241726;" d="M186.416,414.992c-0.319,0-0.636-0.143-0.846-0.411c-1.268-1.618,0.242-6.976,1.255-10.023     c0.183-0.55,0.777-0.851,1.324-0.665c0.548,0.182,0.846,0.775,0.664,1.323c-1.196,3.603-1.932,7.391-1.574,8.103     c0.357,0.454,0.267,1.098-0.189,1.454C186.863,414.92,186.639,414.992,186.416,414.992z"/>
			<path style="fill:#241726;" d="M183.49,414.781c-0.568,0-1.034-0.454-1.047-1.025c-0.048-2.194-3.777-5.638-6.116-7.295     c-0.471-0.335-0.584-0.988-0.249-1.46c0.333-0.472,0.986-0.581,1.46-0.249c0.707,0.501,6.911,5.006,6.999,8.959     c0.012,0.577-0.446,1.057-1.024,1.07C183.505,414.781,183.497,414.781,183.49,414.781z"/>
		</g>
		<g>
			<path style="fill:#D98011;" d="M394.826,365.549c-1.047-3.141-14.135-9.685-14.135-9.685l-2.708-36.333     c1.815-0.026,3.142-0.052,3.493-0.052c1.571,0,0.524-3.927-0.524-7.591c-1.047-3.665-22.25-2.356-22.25-2.356     s-1.832,7.853-0.524,9.162c0.287,0.287,1.525,0.482,3.249,0.618c-0.786,12.011,0.416,36.815,0.416,36.815     s-6.544,5.759-11.78,10.994c-4.317,4.317,2.356,72.248,2.356,72.248s41.621-0.524,45.809-0.524     C399.538,438.844,395.874,368.69,394.826,365.549z"/>
			<path style="fill:#FFFFFF;" d="M348.519,382.563c0,0,46.776-3.403,48.193-0.785s2.826,31.412,1.984,32.721     c-1.46,2.272-46.493,3.141-47.91,2.879C349.37,417.117,347.385,384.134,348.519,382.563z"/>
			<path style="fill:#241726;" d="M351.069,389.893c-0.54,0-0.998-0.415-1.043-0.961c-0.047-0.577,0.382-1.082,0.959-1.129     c3.965-0.323,38.878-3.125,43.467-1.796c0.555,0.16,0.876,0.74,0.716,1.297c-0.161,0.554-0.739,0.879-1.297,0.716     c-3.191-0.924-27.295,0.614-42.716,1.869C351.127,389.891,351.098,389.893,351.069,389.893z"/>
			<path style="fill:#241726;" d="M351.92,414.499c-0.547,0-1.007-0.423-1.044-0.978c-0.038-0.577,0.399-1.076,0.975-1.115     c13.595-0.902,40.114-2.824,43.177-3.632c0.552-0.153,1.131,0.186,1.279,0.744c0.147,0.56-0.186,1.133-0.745,1.28     c-4.021,1.061-41.96,3.589-43.572,3.697C351.967,414.499,351.944,414.499,351.92,414.499z"/>
			<path style="fill:#241726;" d="M372.577,319.477c-0.062,0-0.125-0.006-0.188-0.016c-2.735-0.497-9.131-0.249-9.195-0.245     c-0.582-0.008-1.065-0.427-1.088-1.006c-0.023-0.577,0.426-1.063,1.004-1.088c0.271-0.008,6.696-0.26,9.653,0.278     c0.57,0.104,0.947,0.648,0.843,1.219C373.515,319.124,373.074,319.477,372.577,319.477z"/>
			<path style="fill:#241726;" d="M377.549,313.457c-0.157,0-0.317-0.035-0.467-0.11c-1.162-0.581-8.637-0.667-15.198-0.413     c-0.509-0.006-1.063-0.427-1.086-1.006s0.428-1.065,1.006-1.088c2.318-0.088,13.993-0.477,16.214,0.634     c0.517,0.26,0.727,0.888,0.468,1.405C378.302,313.244,377.933,313.457,377.549,313.457z"/>
			<path style="fill:#241726;" d="M357.654,437.273c-0.488,0-0.924-0.344-1.026-0.838c-0.115-0.569,0.253-1.121,0.819-1.235     c0.908-0.184,22.364-4.46,34.246-1.294c0.558,0.149,0.891,0.724,0.741,1.282c-0.149,0.56-0.72,0.896-1.281,0.742     c-11.404-3.045-33.072,1.278-33.291,1.323C357.793,437.267,357.723,437.273,357.654,437.273z"/>
			<path style="fill:#241726;" d="M375.194,349.057c-0.453,0-0.87-0.294-1.004-0.753c-1.33-4.52-1.853-16.495-1.874-17.003     c-0.025-0.579,0.423-1.068,1.001-1.092c0.601,0.01,1.066,0.425,1.091,1.002c0.005,0.123,0.533,12.227,1.79,16.504     c0.164,0.554-0.154,1.135-0.709,1.299C375.391,349.043,375.291,349.057,375.194,349.057z"/>
			<path style="fill:#241726;" d="M391.424,367.381c-0.347,0-0.685-0.172-0.884-0.485c-1.36-2.137-7.116-4.972-9.218-5.884     c-0.531-0.231-0.774-0.847-0.544-1.378c0.229-0.53,0.846-0.775,1.376-0.544c0.834,0.362,8.204,3.62,10.153,6.681     c0.311,0.489,0.167,1.135-0.321,1.446C391.811,367.328,391.617,367.381,391.424,367.381z"/>
			<path style="fill:#241726;" d="M362.368,404.028c-0.012,0-0.024,0-0.036,0c-0.578-0.02-1.031-0.503-1.011-1.082     c0.016-0.509,0.238-5.029,2.768-7.013c1.03-0.808,2.317-1.082,3.729-0.783c3.667,0.771,3.783,3.896,3.839,5.397     c0.002,0.049,0.004,0.1,0.006,0.153c0.69-0.652,1.188-1.798,1.639-2.832c0.713-1.636,1.386-3.184,2.712-3.638     c0.652-0.223,1.336-0.141,2.037,0.241c2.095,1.141,1.983,3.378,1.908,4.857c-0.025,0.483-0.07,1.382,0.077,1.55     c0.594,0.143,1.855-1.002,2.689-1.761c1.705-1.548,4.035-3.665,6.212-1.928c0.451,0.362,0.525,1.021,0.164,1.472     c-0.362,0.45-1.019,0.526-1.472,0.164c-0.72-0.583-1.905,0.399-3.495,1.843c-1.49,1.356-2.9,2.638-4.454,2.288     c-1.978-0.44-1.877-2.421-1.811-3.732c0.075-1.495,0.057-2.438-0.819-2.916c-0.093-0.049-0.26-0.133-0.356-0.096     c-0.453,0.155-1.065,1.562-1.471,2.493c-0.699,1.607-1.494,3.432-2.962,4.166c-0.266,0.133-1.078,0.544-1.835,0.092     c-0.789-0.468-0.825-1.417-0.859-2.338c-0.067-1.806-0.256-3.021-2.178-3.425c-0.807-0.174-1.463-0.045-2.005,0.382     c-1.505,1.18-1.931,4.323-1.968,5.434C363.395,403.583,362.93,404.028,362.368,404.028z"/>
		</g>
		<path style="fill:#B1739A;" d="M302.839,381.673c0,0,2.732-7.805,14.83-5.854c12.098,1.951,5.073,12.878,19.513,17.561    c14.439,4.683,16.781,17.171-0.39,23.415C319.62,423.04,301.278,393.381,302.839,381.673z"/>
		<g>
			<path style="fill:#D98011;" d="M330.228,451.853c0,0,23.692-2.91,12.857-19.61c-7.061-10.883-52.418,4.688-50.895,9.335     S300.937,456.201,330.228,451.853z"/>
			<path style="fill:#241726;" d="M335.365,449.036c-0.05,0-0.1-0.004-0.152-0.01c-0.572-0.084-0.968-0.616-0.884-1.188     c1.365-9.377-2.087-14.033-2.122-14.078c-0.35-0.46-0.265-1.117,0.192-1.468c0.456-0.348,1.11-0.268,1.463,0.184     c0.166,0.215,4.042,5.334,2.538,15.665C336.324,448.662,335.877,449.036,335.365,449.036z"/>
			<path style="fill:#241726;" d="M324.737,448.114c-0.126,0-0.253-0.022-0.376-0.07c-0.54-0.209-0.809-0.814-0.6-1.354     c1.136-2.947-0.043-10.123-0.593-12.641c-0.124-0.564,0.234-1.123,0.799-1.245c0.57-0.123,1.123,0.233,1.246,0.8     c0.087,0.395,2.094,9.708,0.501,13.839C325.554,447.858,325.157,448.114,324.737,448.114z"/>
			<path style="fill:#241726;" d="M315.871,447.517c-0.211,0-0.422-0.063-0.606-0.194c-0.471-0.335-0.581-0.99-0.245-1.46     c1.71-2.399-0.272-7.399-1.179-9.125c-0.27-0.511-0.073-1.143,0.439-1.413c0.511-0.268,1.146-0.076,1.414,0.44     c0.157,0.299,3.831,7.387,1.032,11.313C316.52,447.363,316.198,447.517,315.871,447.517z"/>
			<path style="fill:#52AFA6;" d="M344.166,434.134c0,0,2.028,3.106,6.557-4.513s7.509-9.671,8.123-3.834     c0.613,5.837-2.609,8.494-2.609,8.494s8.982-8.488,12.45-4.726c3.468,3.762-8.045,9.051-8.045,9.051s6.228-1.322,7.638,5.833     c1.411,7.155-9.971-2.361-9.971-2.361s3.563,6.772,0.615,9.349c-2.948,2.578-9.088-14.185-13.222-10.116     C344.59,442.407,344.166,434.134,344.166,434.134z"/>
			<path style="fill:#241726;" d="M305.003,447.202c-0.253,0-0.506-0.09-0.707-0.274c-0.427-0.391-0.456-1.053-0.065-1.481     c2.688-2.937-0.716-8.698-0.751-8.755c-0.297-0.495-0.137-1.139,0.359-1.438c0.493-0.297,1.136-0.139,1.436,0.358     c0.175,0.29,4.245,7.158,0.5,11.25C305.569,447.087,305.286,447.202,305.003,447.202z"/>
			<path style="fill:#241726;" d="M347.637,437.512c-0.491,0-0.928-0.346-1.027-0.845c-0.111-0.569,0.259-1.119,0.826-1.229     c4.917-0.965,5.618-3.074,5.623-3.094c0.129-0.564,0.693-0.918,1.257-0.783c0.562,0.131,0.913,0.693,0.782,1.258     c-0.081,0.348-0.971,3.44-7.259,4.673C347.772,437.506,347.703,437.512,347.637,437.512z"/>
			<path style="fill:#241726;" d="M358.977,440.907c-0.142,0-0.286-0.029-0.424-0.09c-0.04-0.02-4.132-1.804-7.846-0.517     c-0.543,0.186-1.143-0.102-1.331-0.648c-0.189-0.546,0.101-1.143,0.648-1.331c4.508-1.554,9.186,0.495,9.383,0.585     c0.528,0.235,0.763,0.853,0.529,1.38C359.761,440.676,359.377,440.907,358.977,440.907z"/>
		</g>
		<g>
			<path style="fill:#DFB500;" d="M121.366,405.424c-0.873-0.524-62.824,0.873-62.824,0.873s-6.744,24.989,19.337,31.499     c-0.532,4.557-1.043,10.246-0.315,10.558c1.222,0.524,21.989,0.524,22.512,0.524c0.356,0,0.388-5.804,0.044-10.345     C126.138,433.476,122.123,405.878,121.366,405.424z"/>
			<path style="fill:#B1739A;" d="M65.348,410.311c0,0,51.132-4.188,52.179,0.349c1.047,4.537-9.773,11.169-25.479,13.088     C76.342,425.668,58.542,412.056,65.348,410.311z"/>
			<path style="fill:#241726;" d="M90.294,442.099c-5.394,0-10.202-1.9-10.504-2.023c-0.536-0.217-0.796-0.826-0.58-1.362     c0.216-0.538,0.824-0.798,1.362-0.581c0.105,0.045,10.423,4.109,17.039,0.078c0.493-0.301,1.138-0.147,1.439,0.348     c0.302,0.495,0.145,1.139-0.349,1.44C96.114,441.576,93.124,442.099,90.294,442.099z"/>
			<path style="fill:#FFFFFF;" d="M92.192,419.522c-3.002,0-5.374-1.636-7.989-3.438c-0.926-0.638-1.913-1.319-3.008-1.988     c-4.732-2.892-7.911,1.699-8.044,1.896c-0.323,0.481-0.972,0.607-1.452,0.284c-0.479-0.321-0.608-0.967-0.288-1.448     c1.501-2.252,5.704-5.675,10.877-2.52c1.13,0.691,2.148,1.393,3.105,2.051c3.856,2.661,6.183,4.262,10.702,2.004     c2.099-1.049,3.173-2.29,4.035-3.288c2.05-2.372,3.46-3.102,8.33-0.137c0.494,0.301,0.651,0.945,0.351,1.438     c-0.3,0.495-0.946,0.652-1.439,0.35c-3.869-2.35-4.246-1.912-5.658-0.28c-0.932,1.078-2.209,2.554-4.682,3.792     C95.211,419.148,93.629,419.522,92.192,419.522z"/>
		</g>
	</g>
</g>















</svg>
