<?xml version="1.0" encoding="UTF-8"?>
<!-- Generator: Adobe Illustrator 26.4.1, SVG Export Plug-In . SVG Version: 6.00 Build 0)  -->
<svg xmlns="http://www.w3.org/2000/svg" xmlns:xlink="http://www.w3.org/1999/xlink" version="1.1" id="Capa_1" x="0px" y="0px" viewBox="0 0 470.394 470.394" style="enable-background:new 0 0 470.394 470.394;" xml:space="preserve" width="512" height="512">
<g>
	<g>
		<path style="fill:#FFFFFF;" d="M328.356,141.78c0,0-1.943-16.396,13.743-10.895c15.686,5.502,10.357,20.421,4.417,15.214    c-5.94-5.207,5.557-22.453,17.512-14.551c11.955,7.902,9.063,22.895,0.496,23.893c-8.566,0.997,5.405-17.431,16.028-5.799    c10.623,11.632-13.171,32.276-22.69,24.448c-9.519-7.828-1.829-20.163,0.38-12.556c2.209,7.607-4.111,14.956-21.167,14.44    c-17.056-0.516-8.949-26.662-3.085-18.944s-4.149,16.212-16.066,7.054S319.98,136.5,328.356,141.78z"/>
		<path style="fill:#241726;" d="M338.749,177.094c-0.557,0-1.125-0.009-1.705-0.026c-5.592-0.17-9.49-3.086-10.812-8.041    c-2.938-0.41-6.023-1.809-8.972-4.075c-4.637-3.563-6.176-8.9-4.225-14.643c2.011-5.919,7.314-10.556,12.073-10.556    c0.719,0,1.413,0.1,2.077,0.3c0.01-2.267,0.407-6.112,2.72-8.715c2.615-2.943,6.887-3.472,12.557-1.484    c2.176,0.763,4.08,1.743,5.672,2.917c2.706-2.78,6.132-4.355,9.536-4.355c2.391,0,4.734,0.747,6.964,2.221    c5.166,3.415,8.263,8.604,8.45,14.058c3.021,0.13,5.874,1.579,8.277,4.211c3.28,3.592,3.853,8.367,1.615,13.444    c-3.42,7.756-12.727,14.561-19.92,14.562c-2.31,0-4.291-0.666-5.885-1.977c-0.745-0.613-1.416-1.272-2.006-1.972    C351.485,175.67,345.845,177.094,338.749,177.094z M328.548,169.144c0.938,2.77,3.214,5.578,8.562,5.739    c0.558,0.017,1.103,0.026,1.639,0.026c8.16,0,12.684-1.905,15.141-3.722c-2.335-3.893-2.111-8.124-0.762-10.735    c0.784-1.522,1.914-2.395,3.098-2.395c0.801,0,2.265,0.413,3.067,3.174c1.107,3.812,0.202,7.51-2.481,10.298    c0.51,0.608,1.095,1.183,1.746,1.719c1.194,0.982,2.707,1.48,4.498,1.48c6.319-0.001,14.862-6.32,17.92-13.258    c1.322-2.997,2.182-7.354-1.228-11.088c-2.026-2.22-4.294-3.397-6.746-3.502c-0.583,5.227-3.909,9.132-8.349,9.649    c-2.85,0.331-3.828-1.17-3.875-2.563c-0.105-3.092,4.4-8.229,10.124-9.14c-0.145-4.765-2.888-9.332-7.474-12.364    c-4.509-2.979-9.738-2.179-13.623,1.729c3.654,3.572,4.303,7.922,3.25,10.81c-0.736,2.022-2.292,3.279-4.059,3.279    c0,0,0,0-0.001,0c-1.08,0-2.185-0.468-3.198-1.356c-3.278-2.874-2.134-8.386,0.913-12.483c-1.39-1.005-3.058-1.851-4.972-2.523    c-4.754-1.665-8.179-1.394-10.195,0.869c-2.738,3.074-2.108,8.811-2.101,8.869c0.048,0.417-0.147,0.827-0.503,1.051    c-0.354,0.225-0.807,0.225-1.165,0c-0.806-0.508-1.703-0.765-2.666-0.765c-3.816,0-8.304,4.07-10.004,9.074    c-1.632,4.801-0.361,9.25,3.487,12.207c2.405,1.848,4.878,3.05,7.229,3.523c-0.425-4.217,0.91-8.318,2.628-10.423    c0.965-1.18,2.081-1.803,3.231-1.803c0.809,0,2.017,0.321,3.182,1.855c2.071,2.726,2.519,5.778,1.231,8.376    C334.788,167.375,331.991,168.996,328.548,169.144z M356.226,160.242c-0.206,0-0.701,0.329-1.157,1.211    c-0.986,1.912-1.179,5.167,0.477,8.224c1.909-2.18,2.496-4.919,1.649-7.837C356.857,160.676,356.421,160.242,356.226,160.242z     M331.68,156.7c-0.465,0-1.011,0.355-1.538,1.001c-1.466,1.795-2.573,5.636-2.094,9.269c2.822-0.006,5.096-1.2,6.087-3.196    c0.906-1.826,0.537-4.042-1.013-6.082C332.778,157.239,332.248,156.7,331.68,156.7z M370.772,147.072    c-4.539,0.969-7.866,5.174-7.81,6.819c0.006,0.198,0.017,0.498,0.928,0.498c0.157,0,0.328-0.011,0.51-0.032    C367.683,153.974,370.18,151.053,370.772,147.072z M348.379,135.853c-2.629,3.565-3.178,7.641-1.142,9.426    c1.546,1.354,3.071,0.874,3.765-1.028C351.799,142.063,351.249,138.72,348.379,135.853z"/>
	</g>
	<g>
		<path style="fill:#FFFFFF;" d="M25.843,272.828c0,0-1.943-16.396,13.743-10.895s10.357,20.421,4.417,15.214    c-5.94-5.207,5.557-22.453,17.512-14.551c11.955,7.902,9.063,22.895,0.496,23.893c-8.566,0.997,5.405-17.431,16.028-5.799    s-13.171,32.276-22.69,24.448s-1.829-20.163,0.38-12.556s-4.111,14.956-21.167,14.44c-17.056-0.516-8.949-26.662-3.085-18.944    c5.864,7.718-4.149,16.212-16.066,7.054C3.496,285.976,17.467,267.548,25.843,272.828z"/>
		<path style="fill:#241726;" d="M36.233,308.142c-0.556,0-1.123-0.009-1.702-0.026c-5.592-0.17-9.49-3.086-10.813-8.042    c-2.938-0.411-6.022-1.809-8.971-4.075c-4.637-3.563-6.176-8.9-4.226-14.643c2.011-5.918,7.315-10.555,12.073-10.555    c0.719,0,1.414,0.1,2.078,0.3c0.01-2.268,0.407-6.112,2.72-8.716c2.615-2.944,6.885-3.473,12.557-1.483    c2.176,0.763,4.08,1.743,5.671,2.917c2.707-2.78,6.133-4.355,9.536-4.355c2.391,0,4.735,0.747,6.965,2.221    c5.166,3.415,8.263,8.603,8.45,14.057c3.021,0.13,5.874,1.579,8.277,4.211c3.28,3.592,3.853,8.367,1.615,13.445    c-3.42,7.756-12.728,14.56-19.92,14.561c0,0-0.001,0-0.002,0c-2.309,0-4.289-0.665-5.883-1.976    c-0.745-0.613-1.416-1.273-2.006-1.972C48.972,306.718,43.33,308.142,36.233,308.142z M26.035,300.191    c0.937,2.77,3.213,5.579,8.562,5.74c9.079,0.264,14.161-1.762,16.78-3.696c-2.335-3.893-2.11-8.123-0.762-10.735    c0.785-1.522,1.914-2.395,3.098-2.395c0.801,0,2.265,0.413,3.067,3.175c1.107,3.811,0.202,7.509-2.481,10.296    c0.51,0.607,1.095,1.183,1.746,1.719c1.194,0.982,2.706,1.479,4.496,1.479c0.001,0,0.001,0,0.002,0    c6.319-0.001,14.861-6.319,17.92-13.258c1.322-2.997,2.182-7.354-1.228-11.088c-2.026-2.22-4.295-3.396-6.746-3.501    c-0.583,5.227-3.909,9.131-8.349,9.648c-2.847,0.332-3.828-1.166-3.875-2.562c-0.105-3.091,4.4-8.229,10.124-9.14    c-0.145-4.766-2.887-9.333-7.474-12.364c-4.506-2.978-9.737-2.179-13.623,1.728c3.654,3.573,4.303,7.923,3.25,10.812    c-0.736,2.021-2.291,3.278-4.058,3.278h-0.001c-1.08,0-2.185-0.468-3.198-1.356c-3.278-2.874-2.135-8.387,0.912-12.483    c-1.39-1.005-3.058-1.851-4.972-2.523c-4.758-1.668-8.18-1.394-10.195,0.869c-2.738,3.074-2.108,8.811-2.101,8.869    c0.048,0.417-0.147,0.827-0.503,1.051c-0.354,0.225-0.809,0.225-1.165,0c-0.806-0.508-1.703-0.765-2.667-0.765    c-3.816,0-8.303,4.07-10.003,9.072c-1.632,4.801-0.361,9.25,3.487,12.207c2.405,1.848,4.877,3.05,7.229,3.522    c-0.425-4.217,0.91-8.317,2.628-10.422c0.964-1.18,2.081-1.804,3.231-1.804c0.809,0,2.017,0.322,3.182,1.857    c2.071,2.724,2.519,5.777,1.231,8.374C32.295,298.381,29.433,300.036,26.035,300.191z M53.713,291.29    c-0.205,0-0.701,0.33-1.156,1.212c-0.987,1.911-1.179,5.166,0.476,8.223c1.909-2.18,2.496-4.919,1.649-7.837    C54.344,291.725,53.908,291.29,53.713,291.29z M29.167,287.748c-0.465,0-1.012,0.356-1.539,1.002    c-1.465,1.795-2.572,5.636-2.093,9.268c2.822-0.006,5.096-1.2,6.087-3.196c0.906-1.825,0.537-4.041-1.013-6.08    C30.265,288.288,29.735,287.748,29.167,287.748z M68.259,278.12c-4.539,0.969-7.866,5.174-7.81,6.818    c0.006,0.198,0.017,0.498,0.928,0.498c0.157,0,0.328-0.011,0.51-0.032C65.17,285.022,67.667,282.101,68.259,278.12z M45.866,266.9    c-2.629,3.566-3.177,7.642-1.141,9.427c1.545,1.353,3.069,0.872,3.764-1.027C49.286,273.112,48.736,269.768,45.866,266.9z"/>
	</g>
	<path style="fill:#241726;" d="M21.618,383.828l-0.006,0l-4.227-0.015l4.478-3.036c0.5-0.339,0.63-1.018,0.291-1.518   c-0.341-0.502-1.025-0.626-1.518-0.291l-6.042,4.096l0.134-7.059c0.012-0.604-0.468-1.101-1.072-1.113H13.65   c-0.6-0.008-1.095,0.47-1.107,1.072l-0.118,6.229l-3.695-4.008c-0.41-0.441-1.1-0.473-1.544-0.063   c-0.443,0.408-0.471,1.102-0.063,1.544l3.802,4.124l-7.001-0.025c-0.604-0.001-1.095,0.485-1.096,1.089   c-0.001,0.6,0.479,1.088,1.078,1.096l0.011,0l6.386,0.022l-4.99,3.383c-0.5,0.339-0.63,1.018-0.291,1.518   c0.209,0.308,0.547,0.475,0.89,0.479c0.218,0.003,0.436-0.058,0.628-0.188l5.79-3.925l-0.135,7.111   c-0.012,0.604,0.468,1.101,1.072,1.113l0.006,0c0.6,0.008,1.095-0.47,1.107-1.072l0.127-6.716l3.939,4.272   c0.213,0.229,0.499,0.348,0.789,0.352c0.269,0.003,0.541-0.091,0.755-0.289c0.443-0.408,0.471-1.102,0.063-1.544l-4.124-4.473   l5.676,0.02c0.604,0.001,1.095-0.485,1.096-1.089C22.702,384.324,22.222,383.836,21.618,383.828z"/>
	<path style="fill:#241726;" d="M249.544,36.895l-0.006,0l-4.227-0.015l4.478-3.036c0.5-0.339,0.63-1.018,0.291-1.518   c-0.341-0.502-1.025-0.626-1.518-0.291l-6.042,4.096l0.134-7.059c0.012-0.604-0.468-1.101-1.072-1.113h-0.006   c-0.6-0.008-1.095,0.47-1.107,1.072l-0.118,6.229l-3.695-4.008c-0.41-0.441-1.1-0.473-1.544-0.063   c-0.443,0.408-0.471,1.102-0.063,1.544l3.802,4.124l-7.001-0.025c-0.604-0.001-1.095,0.485-1.096,1.089   c-0.001,0.6,0.479,1.088,1.078,1.096l0.011,0l6.386,0.022l-4.99,3.383c-0.5,0.339-0.63,1.018-0.291,1.518   c0.209,0.308,0.547,0.475,0.89,0.479c0.218,0.003,0.436-0.058,0.628-0.188l5.79-3.925l-0.135,7.111   c-0.012,0.604,0.468,1.101,1.072,1.113l0.006,0c0.6,0.008,1.095-0.47,1.107-1.072l0.127-6.716l3.939,4.272   c0.213,0.229,0.499,0.348,0.789,0.352c0.269,0.003,0.541-0.091,0.755-0.289c0.443-0.408,0.471-1.102,0.063-1.544l-4.124-4.473   l5.676,0.02c0.604,0.001,1.095-0.485,1.096-1.089C250.628,37.392,250.148,36.903,249.544,36.895z"/>
	<path style="fill:#241726;" d="M452.024,306.938l-0.006,0l-4.227-0.015l4.478-3.036c0.5-0.339,0.63-1.018,0.291-1.518   c-0.341-0.502-1.025-0.626-1.518-0.291L445,306.173l0.134-7.059c0.012-0.604-0.468-1.101-1.072-1.113h-0.006   c-0.6-0.008-1.095,0.47-1.107,1.072l-0.118,6.229l-3.695-4.008c-0.41-0.441-1.099-0.473-1.544-0.063   c-0.443,0.408-0.471,1.102-0.063,1.544l3.802,4.124l-7.001-0.025c-0.604-0.001-1.095,0.485-1.096,1.089   c-0.001,0.6,0.479,1.088,1.078,1.096l0.011,0l6.386,0.022l-4.99,3.383c-0.5,0.339-0.63,1.018-0.291,1.518   c0.209,0.308,0.547,0.475,0.89,0.479c0.218,0.003,0.436-0.058,0.628-0.188l5.79-3.925l-0.135,7.111   c-0.012,0.604,0.468,1.101,1.072,1.113l0.006,0c0.6,0.008,1.095-0.47,1.107-1.072l0.127-6.716l3.939,4.272   c0.213,0.229,0.499,0.348,0.789,0.352c0.269,0.003,0.541-0.091,0.755-0.289c0.443-0.408,0.471-1.102,0.063-1.544l-4.124-4.473   l5.676,0.02c0.604,0.001,1.095-0.485,1.096-1.089C453.108,307.434,452.628,306.946,452.024,306.938z"/>
	<path style="fill:#241726;" d="M28.764,357.918c-0.545,0-1.021-0.287-1.304-0.789c-0.772-1.363-1.975-6.536-2.719-9.974   c-10.083-1.263-12.028-2.617-11.85-4.375c0.035-0.348,0.235-0.657,0.536-0.833c0.044-0.026,4.217-2.464,9.275-5.234   c-1.881-10.775-1.3-11.468-0.912-11.93c0.318-0.379,1.053-0.527,1.496-0.305c0.94,0.475,5.68,4.638,8.713,7.362   c6.406-3.153,8.368-3.527,9.288-3.527c1.195,0,1.692,0.743,1.755,1.378c0.146,1.481-1.53,5.858-3.085,9.53   c7.595,7.307,7.316,8.001,6.994,8.804c-0.2,0.497-0.741,0.799-1.284,0.784c-1.542-0.064-5.49-0.267-9.864-0.591   C30.932,357.917,29.527,357.917,28.764,357.918L28.764,357.918z M27.037,347.425c0.918,4.173,1.603,6.683,2.021,7.888   c0.752-0.859,2.19-2.989,4.388-7.28C31.132,347.844,28.986,347.64,27.037,347.425z M36.844,346.102   c2.829,0.202,5.412,0.351,7.185,0.441c-0.773-0.917-2.233-2.495-4.998-5.179C38.328,342.955,37.589,344.557,36.844,346.102z    M26.552,345.172c2.355,0.27,5.022,0.523,7.948,0.754c0.974-1.991,1.949-4.101,2.851-6.174c-1.833-1.744-3.808-3.567-5.711-5.292   c-1.936,0.976-4.12,2.122-6.511,3.419C25.563,340.284,26.051,342.776,26.552,345.172z M15.743,343.131   c1,0.419,3.292,1.07,8.52,1.759c-0.403-1.95-0.795-3.951-1.154-5.907C19.967,340.71,17.238,342.27,15.743,343.131z M33.746,333.42   c1.51,1.375,3.051,2.8,4.519,4.186c1.513-3.642,2.262-5.936,2.509-7.034C39.86,330.759,37.918,331.401,33.746,333.42z    M23.606,327.435c0.101,1.446,0.412,4.01,1.124,8.175c1.859-1.002,3.589-1.912,5.17-2.718   C27.022,330.316,24.883,328.483,23.606,327.435z"/>
	<path style="fill:#241726;" d="M432.607,379.814c-0.297,0-0.705-0.166-0.911-0.379c-0.206-0.213-0.368-0.693-0.357-0.988   c0.052-1.537,0.227-5.481,0.523-9.869c-9.675-4.778-9.724-6.227-9.749-6.931c-0.018-0.555,0.272-1.06,0.779-1.351   c1.358-0.781,6.523-2.02,9.956-2.788c1.298-10.952,2.755-11.885,4.139-11.885c0.385,0,0.795,0.205,0.991,0.537   c0.026,0.044,2.493,4.2,5.298,9.238c3.175-0.574,8.061-1.387,10.281-1.387c0.714,0,1.509,0.053,1.909,0.699   c0.198,0.321,0.217,0.85,0.048,1.19c-0.47,0.943-4.599,5.712-7.302,8.763c3.954,7.891,3.837,9.403,3.369,10.263   c-0.236,0.433-0.653,0.712-1.144,0.764c-0.038,0.004-0.214,0.013-0.253,0.013c0,0,0,0-0.001,0c-1.69,0-6.283-1.782-9.297-3.032   C434.105,379.814,433.207,379.814,432.607,379.814z M433.984,369.605c-0.194,3.007-0.321,5.587-0.392,7.187   c0.912-0.778,2.481-2.251,5.144-5.034C437.14,371.067,435.533,370.339,433.984,369.605z M450.184,373.519v1.091l0.023-1.093   C450.2,373.517,450.192,373.518,450.184,373.519z M442.489,370.967c3.49,1.422,5.885,2.214,7.065,2.463   c-0.178-0.831-0.809-2.742-2.91-7.011C445.28,367.939,443.865,369.49,442.489,370.967z M434.144,367.259   c1.998,0.96,4.114,1.921,6.193,2.809c1.73-1.845,3.542-3.832,5.252-5.746c-0.989-1.93-2.151-4.107-3.464-6.489   c-2.4,0.451-4.889,0.955-7.282,1.474C434.589,361.664,434.354,364.332,434.144,367.259z M424.718,361.882   c0.864,0.746,3.005,2.168,7.311,4.337c0.174-2.315,0.363-4.462,0.564-6.413C428.425,360.753,425.919,361.454,424.718,361.882z    M444.392,357.418c1.015,1.852,1.936,3.576,2.753,5.152c2.556-2.894,4.374-5.044,5.412-6.33   C450.829,356.371,447.975,356.782,444.392,357.418z M436.81,348.484c-0.414,1.002-1.049,3.298-1.701,8.53   c1.947-0.417,3.946-0.822,5.899-1.194C439.258,352.69,437.681,349.971,436.81,348.484z"/>
	<polygon style="fill:#DDB300;" points="302.924,40.262 316.164,32.69 313.02,46.745 322.529,55.82 310.941,59.347 304.57,71.43    298.924,60.32 284.369,59.115 295.438,48.768 290.743,35.995  "/>
	<g>
		<g>
			<path style="fill:#FFFFFF;" d="M67.967,140.386c0,0,68.242-9.625,74.904,5.32c6.662,14.945-1.428,46.811,3.93,54.975     s13.16,15.571,0.968,16.159c-12.193,0.588-73.16,4.205-79.21-1.933S51.519,149.25,67.967,140.386z"/>
			<path style="fill:#241726;" d="M99.962,219.526c-25.444,0-30.552-2.198-32.182-3.851c-4.718-4.788-12.006-38.292-8.766-59.842     c1.288-8.566,4.125-14.087,8.434-16.409c0.114-0.062,0.238-0.102,0.366-0.121c0.217-0.031,21.933-3.06,41.871-3.06     c20.297,0,31.478,2.949,34.183,9.018c3.645,8.178,3.01,21.128,2.449,32.552c-0.473,9.637-0.92,18.739,1.397,22.269     c0.877,1.336,1.819,2.652,2.729,3.919c3.16,4.409,5.888,8.218,4.533,11.021c-0.865,1.791-3.139,2.715-7.156,2.909l-3.277,0.165     C135.501,218.56,116.686,219.526,99.962,219.526z M68.319,141.44c-3.578,2.039-5.981,6.988-7.143,14.719     c-3.186,21.194,4.392,54.156,8.161,57.982c1.178,1.195,6.723,3.2,30.626,3.2c16.668,0,35.446-0.964,44.469-1.426l3.285-0.166     c3.794-0.182,4.973-1.013,5.294-1.677c0.79-1.634-1.819-5.275-4.343-8.796c-0.925-1.292-1.886-2.633-2.779-3.993     c-2.707-4.125-2.264-13.139-1.752-23.575c0.548-11.181,1.171-23.854-2.262-31.555c-1.571-3.524-8.43-7.723-32.188-7.723     C90.919,138.428,70.542,141.137,68.319,141.44z"/>
		</g>
		<path style="fill:#E17B8D;" d="M106.789,199.954c0,0,28.67-38.306,14.147-44.314c-14.523-6.008-19.677,15.221-19.677,15.221    s-10.706-19.962-22.768-7.407C66.429,176.009,103.867,202.608,106.789,199.954z"/>
	</g>
	<path style="fill:#241726;" d="M380.444,209.341l-0.025-0.02c-3.292-2.552-3.893-7.308-1.339-10.602   c2.542-3.279,7.285-3.889,10.575-1.36c1.621,1.257,2.64,3.041,2.892,5.044c0.252,2-0.289,3.983-1.525,5.576   C388.478,211.258,383.731,211.868,380.444,209.341z M388.34,199.106c-2.357-1.812-5.728-1.377-7.534,0.952   c-1.815,2.341-1.389,5.722,0.95,7.536l-0.647,0.881l0.666-0.866c2.337,1.796,5.709,1.363,7.518-0.966   c0.879-1.133,1.264-2.541,1.083-3.965C390.198,201.253,389.474,199.985,388.34,199.106z"/>
	<path style="fill:#241726;" d="M267.056,25.01l-0.025-0.02c-3.292-2.552-3.893-7.308-1.339-10.602   c2.542-3.279,7.285-3.889,10.575-1.36c1.621,1.257,2.64,3.041,2.892,5.044c0.252,2-0.289,3.983-1.525,5.576   C275.09,26.927,270.344,27.537,267.056,25.01z M274.953,14.775c-2.357-1.812-5.728-1.377-7.534,0.952   c-1.815,2.341-1.389,5.722,0.95,7.536l-0.647,0.881l0.666-0.866c2.337,1.796,5.709,1.363,7.518-0.966   c0.879-1.133,1.264-2.541,1.083-3.965C276.81,16.922,276.086,15.654,274.953,14.775z"/>
	<path style="fill:#241726;" d="M62.58,332.676l-0.025-0.02c-3.292-2.552-3.893-7.308-1.339-10.602   c2.542-3.279,7.285-3.889,10.575-1.36c1.621,1.257,2.64,3.041,2.892,5.044c0.252,2-0.289,3.983-1.525,5.576   C70.614,334.593,65.868,335.203,62.58,332.676z M70.477,322.442c-2.357-1.812-5.728-1.377-7.534,0.952   c-1.815,2.341-1.389,5.721,0.95,7.536l-0.647,0.881l0.666-0.866c2.337,1.796,5.709,1.363,7.518-0.966   c0.879-1.133,1.264-2.541,1.083-3.965C72.334,324.588,71.61,323.321,70.477,322.442z"/>
	<path style="fill:#241726;" d="M110.909,120.467l-0.025-0.02c-3.292-2.552-3.893-7.308-1.339-10.602   c2.542-3.279,7.285-3.889,10.575-1.36c1.621,1.257,2.64,3.041,2.892,5.044c0.252,2-0.289,3.983-1.525,5.576   C118.943,122.384,114.196,122.994,110.909,120.467z M118.805,110.233c-2.357-1.812-5.728-1.377-7.534,0.952   c-1.815,2.341-1.389,5.722,0.95,7.536l-0.647,0.881l0.666-0.866c2.337,1.796,5.709,1.363,7.518-0.966   c0.879-1.133,1.264-2.541,1.083-3.965C120.663,112.379,119.939,111.112,118.805,110.233z"/>
	<path style="fill:#241726;" d="M457.814,409.118c-0.813,0-1.584,0-3.607-8.527c-7.168-1.478-7.787-2.331-7.994-2.617   c-0.2-0.274-0.281-0.776-0.184-1.101c0.136-0.459,0.45-1.522,8.704-4.724c3.039-7.627,4.034-7.627,4.696-7.627   c0.35,0,0.831,0.254,1.036,0.538c0.519,0.716,0.973,2.561,1.658,5.516c0.216,0.926,0.475,2.043,0.626,2.535   c0.429,0.198,1.375,0.552,2.161,0.845c4.202,1.568,5.283,2.097,5.468,3.107c0.068,0.379-0.131,0.927-0.422,1.181   c-0.866,0.757-4.967,2.219-7.118,2.953c-3.578,7.863-4.322,7.893-4.979,7.919C457.847,409.118,457.829,409.118,457.814,409.118z    M449.005,397.071c1.431,0.432,4.041,1.062,6.32,1.517c0.42,0.084,0.752,0.407,0.849,0.824c0.553,2.373,1.281,5.078,1.81,6.623   c0.815-1.421,2.054-3.942,3.061-6.17c0.125-0.276,0.359-0.488,0.647-0.585c1.96-0.662,4.176-1.476,5.555-2.058   c-0.955-0.418-2.257-0.904-3.1-1.219c-2.401-0.896-2.852-1.09-3.158-1.51c-0.266-0.367-0.426-0.976-0.995-3.423   c-0.213-0.919-0.54-2.329-0.834-3.386c-0.734,1.356-1.765,3.667-2.571,5.712c-0.112,0.285-0.339,0.51-0.625,0.62   C453.419,394.995,450.525,396.247,449.005,397.071z"/>
	<path style="fill:#241726;" d="M137.286,41.968c-0.813,0-1.584,0-3.608-8.527c-7.167-1.478-7.786-2.331-7.993-2.617   c-0.2-0.274-0.281-0.776-0.184-1.101c0.136-0.459,0.45-1.522,8.704-4.724c3.039-7.627,4.034-7.627,4.696-7.627   c0.35,0,0.831,0.254,1.036,0.538c0.519,0.716,0.973,2.561,1.658,5.516c0.216,0.926,0.475,2.043,0.626,2.535   c0.429,0.198,1.375,0.552,2.161,0.844c4.201,1.569,5.282,2.098,5.467,3.108c0.068,0.379-0.131,0.927-0.422,1.181   c-0.866,0.757-4.966,2.219-7.116,2.953c-3.579,7.863-4.323,7.893-4.979,7.919C137.319,41.968,137.301,41.968,137.286,41.968z    M128.477,29.921c1.431,0.433,4.041,1.062,6.319,1.517c0.42,0.084,0.752,0.407,0.849,0.824c0.553,2.373,1.282,5.077,1.811,6.623   c0.815-1.422,2.054-3.942,3.062-6.17c0.125-0.276,0.359-0.488,0.647-0.585c1.96-0.662,4.174-1.476,5.554-2.058   c-0.955-0.418-2.256-0.904-3.099-1.219c-2.401-0.896-2.852-1.09-3.158-1.51c-0.266-0.367-0.426-0.976-0.995-3.423   c-0.213-0.919-0.54-2.329-0.834-3.386c-0.734,1.356-1.765,3.667-2.571,5.712c-0.112,0.285-0.339,0.51-0.625,0.62   C132.89,27.845,129.997,29.097,128.477,29.921z"/>
	<path style="fill:#241726;" d="M107.586,259.496c-0.26,0-0.516-0.094-0.717-0.269c-2.289-1.992-22.187-19.7-16.239-27.849   c1.25-1.712,2.988-2.617,5.028-2.617c2.417,0,5.219,1.295,7.691,3.515c2.085-3.071,5.119-4.385,8.407-3.557   c0.954,0.242,1.721,0.878,2.218,1.839c3.081,5.961-4.495,25.976-5.369,28.239c-0.128,0.332-0.411,0.582-0.757,0.667   C107.762,259.486,107.673,259.496,107.586,259.496z M95.658,230.947c-1.351,0-2.419,0.562-3.263,1.72   c-3.795,5.199,8.411,18.107,14.729,23.86c2.484-6.769,6.971-20.975,4.908-24.966c-0.275-0.532-0.597-0.668-0.813-0.722   c-0.475-0.121-0.941-0.181-1.387-0.181c-2.429,0-4.025,1.793-4.91,3.214c1.901,2.186,3.45,5.079,2.598,7.277   c-0.364,0.94-1.306,2.096-3.725,2.261c-1.011-0.033-1.718-0.414-2.178-1.177c-1.013-1.679-0.726-5.007,0.636-7.993   C100.107,232.195,97.631,230.947,95.658,230.947z M103.876,236.041c-0.813,2.243-0.828,4.335-0.389,5.062   c1.181,0.059,1.798-0.237,1.995-0.745C105.793,239.557,105.31,237.914,103.876,236.041z"/>
	<g>
		<g>
			<path style="fill:#FFFFFF;" d="M356.415,82.896c0,0-13.191-6.891-17.12,1.695c-3.928,8.586,18.223,9.99,14.194,4.682     c-1.739-2.291-11.592,8.119-6.982,13.188C351.116,107.529,369.105,90.19,356.415,82.896z"/>
			<path style="fill:#241726;" d="M348.761,104.467L348.761,104.467c-1.247,0-2.306-0.44-3.063-1.271     c-2.555-2.81-1.544-6.757,0.526-9.983c-3.039-0.52-6.396-1.825-7.811-4.208c-0.864-1.456-0.903-3.139-0.111-4.869     c1.481-3.238,4.365-4.949,8.341-4.949c4.975,0,10.063,2.628,10.277,2.739c4.207,2.417,5.852,6.174,4.67,10.601     C360.042,98.33,353.447,104.467,348.761,104.467z M348.703,93.474c-1.919,2.573-3.331,6.114-1.387,8.252     c0.339,0.375,0.813,0.556,1.445,0.556c3.404,0.001,9.326-5.101,10.719-10.319c0.928-3.478-0.286-6.209-3.609-8.12     c-0.009-0.003-4.798-2.47-9.227-2.47c-3.145,0-5.223,1.202-6.355,3.673c-0.493,1.079-0.492,2.009,0.003,2.844     c0.975,1.642,3.98,2.975,7.422,3.324c1.46-1.698,3.45-3.358,5.062-3.358c0.651,0,1.213,0.269,1.584,0.757     c0.997,1.314,0.73,2.347,0.482,2.845c-0.876,1.765-3.815,2.029-5.488,2.029C349.141,93.485,348.923,93.481,348.703,93.474z      M352.618,89.933c-0.251,0.067-0.972,0.499-1.862,1.29c1.373-0.162,2.031-0.541,2.129-0.737     C352.901,90.453,352.868,90.262,352.618,89.933z"/>
		</g>
		<g>
			<path style="fill:#FFFFFF;" d="M362.236,76.224c0,0,0.922-14.854,10.302-13.778c9.38,1.076-0.87,20.763-3.331,14.57     c-1.062-2.673,12.943-5.725,14.898,0.842C386.062,84.424,361.919,90.857,362.236,76.224z"/>
			<path style="fill:#241726;" d="M371.932,86.182c-3.551,0-6.432-1.025-8.33-2.965c-1.695-1.731-2.522-4.091-2.459-7.016     c0.041-0.675,1.133-16.031,11.52-14.839c1.89,0.217,3.31,1.119,4.109,2.612c1.308,2.444,0.689,5.993-0.438,8.864     c4.632-0.128,7.897,1.619,8.817,4.708c0.37,1.243,0.091,2.538-0.809,3.744C382.266,84.079,376.929,86.182,371.932,86.182z      M371.585,63.484c-7.377,0-8.251,12.68-8.258,12.808c-0.048,2.27,0.569,4.101,1.836,5.396c1.867,1.908,4.711,2.308,6.769,2.308     c4.229,0,9.012-1.8,10.66-4.012c0.484-0.65,0.637-1.243,0.467-1.815c-0.848-2.845-4.69-3.151-6.302-3.151     c-0.496,0-0.993,0.026-1.48,0.073c-0.877,1.581-2.65,4.22-4.709,4.221c0,0,0,0-0.001,0c-0.606,0-1.72-0.247-2.375-1.892     c-0.222-0.559-0.166-1.17,0.155-1.719c0.818-1.396,3.282-2.251,5.508-2.625c1.48-3.127,1.893-6.388,0.992-8.07     c-0.459-0.856-1.254-1.338-2.433-1.474C372.128,63.5,371.853,63.484,371.585,63.484z M372.284,75.696     c-1.267,0.414-1.955,0.9-2.056,1.118c0.134,0.149,0.283,0.313,0.339,0.313C370.883,77.127,371.532,76.664,372.284,75.696z"/>
		</g>
		<path style="fill:#E8B500;" d="M364.084,91.251c0,0-3.579,7.779,1.689,12.716c5.268,4.938,12.802,7.571,15.397,3.042    s2.527-12.961-3.77-16.801S364.867,88.828,364.084,91.251z"/>
		<g>
			<path style="fill:#FFFFFF;" d="M363.022,98.669c0,0,10.96-7.442,11.78-9.704"/>
			<path style="fill:#241726;" d="M363.024,99.762c-0.35,0-0.694-0.168-0.905-0.479c-0.339-0.499-0.209-1.178,0.29-1.517     c5.13-3.484,10.935-7.981,11.366-9.173c0.206-0.568,0.832-0.858,1.4-0.655c0.568,0.206,0.86,0.832,0.655,1.4     c-0.873,2.407-9.554,8.443-12.194,10.236C363.448,99.701,363.235,99.762,363.024,99.762z"/>
		</g>
		<g>
			<path style="fill:#FFFFFF;" d="M366.403,104.237c0,0,12.528-9.074,13.545-11.96"/>
			<path style="fill:#241726;" d="M366.404,105.33c-0.338,0-0.672-0.157-0.886-0.451c-0.354-0.489-0.245-1.173,0.243-1.526     c5.088-3.686,12.533-9.671,13.156-11.439c0.201-0.568,0.826-0.865,1.395-0.667c0.569,0.201,0.868,0.825,0.667,1.395     c-1.078,3.052-11.798,10.932-13.935,12.481C366.85,105.263,366.626,105.33,366.404,105.33z"/>
		</g>
		<g>
			<path style="fill:#FFFFFF;" d="M356.817,79.307c0,0-4.696-7.458-13.699-5.21"/>
			<path style="fill:#241726;" d="M356.818,80.399c-0.362,0-0.716-0.179-0.924-0.507c-0.176-0.277-4.407-6.752-12.512-4.735     c-0.589,0.147-1.178-0.209-1.324-0.795c-0.147-0.586,0.209-1.178,0.795-1.324c9.654-2.422,14.837,5.605,14.889,5.687     c0.32,0.51,0.168,1.182-0.341,1.505C357.22,80.343,357.018,80.399,356.818,80.399z"/>
		</g>
		<g>
			<path style="fill:#FFFFFF;" d="M371.734,106.834c0,0,9.661-5.902,10.702-9.441"/>
			<path style="fill:#241726;" d="M371.735,107.927c-0.368,0-0.728-0.186-0.934-0.523c-0.315-0.515-0.152-1.188,0.363-1.502     c3.596-2.197,9.552-6.535,10.224-8.816c0.171-0.577,0.776-0.912,1.356-0.74c0.579,0.17,0.91,0.778,0.74,1.356     c-1.128,3.833-10.155,9.438-11.18,10.065C372.126,107.875,371.93,107.927,371.735,107.927z"/>
		</g>
		<g>
			<path style="fill:#FFFFFF;" d="M357.212,63.344c0,0-4.974,6.639,2.011,14.915"/>
			<path style="fill:#241726;" d="M359.224,79.352c-0.312,0-0.62-0.132-0.837-0.387c-7.459-8.838-2.104-16.202-2.049-16.275     c0.362-0.481,1.047-0.582,1.529-0.219c0.481,0.361,0.581,1.043,0.222,1.526c-0.185,0.251-4.335,6.091,1.968,13.557     c0.389,0.462,0.332,1.151-0.129,1.541C359.722,79.267,359.472,79.352,359.224,79.352z"/>
		</g>
	</g>
	<g>
		<g>
			<path style="fill:#FFFFFF;" d="M100.428,53.527c0,0,4.256-14.261-4.92-16.485s-6.343,19.79-1.897,14.825     c1.918-2.143-10.175-9.836-14.275-4.347S95.681,67.372,100.428,53.527z"/>
			<path style="fill:#241726;" d="M92.764,60.468c-0.001,0,0,0-0.001,0c-5.744,0-12.319-4.554-14.359-8.625     c-0.948-1.891-0.927-3.658,0.058-4.977c1.912-2.563,5.73-3.031,9.897-1.381c-0.07-2.863,0.47-6.066,2.188-8.008     c1.301-1.468,3.134-2.003,5.219-1.497c2.326,0.563,4.085,1.859,5.23,3.851c3.033,5.278,0.586,13.654,0.48,14.008     C100.006,58.129,96.916,60.468,92.764,60.468z M83.648,46.675c-1.538,0-2.693,0.504-3.437,1.499     c-0.594,0.796-0.249,1.902,0.146,2.689c1.719,3.431,7.513,7.42,12.405,7.42c3.239,0,5.47-1.719,6.632-5.11     c0.01-0.035,2.27-7.795-0.297-12.256c-0.845-1.47-2.104-2.39-3.847-2.813c-1.3-0.314-2.293-0.052-3.068,0.823     c-1.431,1.616-1.816,4.902-1.575,7.64c1.96,1.118,3.978,2.77,4.264,4.362c0.113,0.626-0.046,1.219-0.447,1.667     c-0.651,0.727-1.362,1.095-2.112,1.095c-1.812,0-3.19-2.127-3.737-5.725C86.865,47.141,85.094,46.675,83.648,46.675z      M91.17,49.551c0.449,1.409,0.987,1.955,1.143,1.955c0.041,0,0.214-0.067,0.483-0.367C92.728,51.021,92.23,50.366,91.17,49.551z"/>
		</g>
		<g>
			<path style="fill:#FFFFFF;" d="M108.085,57.973c0,0,14.758-1.92,15.486,7.494s-20.55,3.095-14.938-0.499     c2.422-1.551,8.082,11.618,2.007,14.786S93.658,60.444,108.085,57.973z"/>
			<path style="fill:#241726;" d="M109.39,81.152c-4.488,0-8.966-7.433-9.483-13.52c-0.498-5.867,2.415-9.78,7.994-10.735     c0.097-0.014,1.374-0.177,3.202-0.177c8.311,0,13.125,3.076,13.557,8.663c0.127,1.641-0.3,3.004-1.269,4.05     c-1.246,1.347-3.331,2.057-6.031,2.058c-0.001,0-0.001,0-0.002,0c-1.052,0-2.157-0.108-3.263-0.315     c0.829,3.741,0.416,7.792-2.949,9.547C110.599,81.008,110.009,81.152,109.39,81.152z M111.103,58.905     c-1.676,0-2.865,0.15-2.877,0.153c-5.577,0.956-6.422,5.09-6.141,8.39c0.535,6.291,5.499,12.677,8.049,11.338     c2.562-1.336,2.458-5.148,1.544-8.224c-1.76-0.573-4.757-1.845-5.059-3.929c-0.082-0.572-0.007-1.667,1.425-2.583     c0.305-0.196,0.657-0.3,1.018-0.3c1.812,0,3.41,2.597,4.323,5.032c1.333,0.339,2.724,0.524,3.975,0.524     c2.046-0.001,3.619-0.482,4.428-1.357c0.545-0.59,0.773-1.373,0.694-2.397C122.034,59.768,115.161,58.905,111.103,58.905z      M109.026,65.932c-0.155,0.181-0.25,0.35-0.244,0.386c0.039,0.271,0.588,0.837,1.732,1.418     C109.867,66.572,109.26,65.988,109.026,65.932z"/>
		</g>
		<path style="fill:#E8B500;" d="M93.684,62.645c0,0-8.317-2.035-12.163,4.077c-3.846,6.111-4.998,14.008-0.058,15.695    s13.205,0.016,15.778-6.897C99.813,68.607,96.212,62.952,93.684,62.645z"/>
		<g>
			<path style="fill:#FFFFFF;" d="M86.199,63.013c0,0,9.39,9.345,11.767,9.719"/>
			<path style="fill:#241726;" d="M97.967,73.825c-0.057,0-0.113-0.004-0.171-0.013c-2.53-0.399-10.106-7.774-12.368-10.024     c-0.428-0.426-0.43-1.117-0.004-1.545c0.427-0.426,1.118-0.43,1.545-0.004c4.396,4.374,9.915,9.218,11.166,9.414     c0.597,0.095,1.004,0.654,0.91,1.25C98.96,73.441,98.495,73.825,97.967,73.825z"/>
		</g>
		<g>
			<path style="fill:#FFFFFF;" d="M81.376,67.391c0,0,11.291,10.574,14.318,11.023"/>
			<path style="fill:#241726;" d="M95.695,79.508c-0.053,0-0.107-0.004-0.161-0.012c-3.203-0.475-12.978-9.501-14.905-11.307     c-0.441-0.412-0.463-1.103-0.05-1.544c0.41-0.442,1.102-0.463,1.544-0.05c4.585,4.293,11.877,10.464,13.731,10.739     c0.598,0.089,1.009,0.645,0.921,1.241C96.694,79.118,96.227,79.508,95.695,79.508z"/>
		</g>
		<g>
			<path style="fill:#FFFFFF;" d="M104.028,53.239c0,0,6.429-6.028,2.51-14.44"/>
			<path style="fill:#241726;" d="M104.03,54.333c-0.291,0-0.58-0.116-0.796-0.345c-0.413-0.438-0.393-1.129,0.045-1.543     c0.238-0.226,5.794-5.618,2.268-13.183c-0.255-0.547-0.018-1.197,0.528-1.452c0.546-0.254,1.197-0.019,1.452,0.528     c4.207,9.024-2.682,15.633-2.752,15.699C104.565,54.234,104.297,54.333,104.03,54.333z"/>
		</g>
		<g>
			<path style="fill:#FFFFFF;" d="M79.84,73.119c0,0,7.631,8.362,11.304,8.711"/>
			<path style="fill:#241726;" d="M91.145,82.922c-0.034,0-0.069-0.001-0.105-0.005c-3.976-0.378-11.197-8.174-12.007-9.062     c-0.408-0.445-0.376-1.136,0.07-1.543c0.444-0.407,1.134-0.377,1.543,0.07c2.843,3.113,8.234,8.134,10.601,8.36     c0.601,0.057,1.041,0.59,0.984,1.191C92.178,82.499,91.702,82.922,91.145,82.922z"/>
		</g>
		<g>
			<path style="fill:#FFFFFF;" d="M119.774,50.591c0,0-7.464-3.621-14.26,4.811"/>
			<path style="fill:#241726;" d="M105.512,56.494c-0.24,0-0.482-0.079-0.685-0.242c-0.47-0.379-0.543-1.066-0.164-1.537     c7.256-9.003,15.505-5.15,15.588-5.108c0.543,0.263,0.769,0.917,0.506,1.46c-0.263,0.542-0.912,0.775-1.458,0.507     c-0.303-0.143-6.813-3.082-12.935,4.514C106.148,56.356,105.831,56.494,105.512,56.494z"/>
		</g>
	</g>
	<path style="fill:#241726;" d="M26.252,237.568c-0.028,0-0.055-0.001-0.083-0.003c-1.475-0.111-2.981-0.34-4.481-0.683   c-0.588-0.133-0.956-0.719-0.822-1.308c0.133-0.588,0.719-0.961,1.308-0.822c1.393,0.318,2.792,0.53,4.158,0.634   c0.602,0.045,1.053,0.57,1.007,1.172C27.298,237.132,26.819,237.568,26.252,237.568z M30.616,237.52   c-0.551,0-1.024-0.414-1.085-0.974c-0.065-0.6,0.368-1.14,0.968-1.205c1.521-0.166,2.854-0.509,3.858-0.99   c0.545-0.265,1.196-0.033,1.458,0.512c0.261,0.543,0.032,1.196-0.512,1.458c-1.24,0.597-2.777,0.998-4.566,1.193   C30.695,237.518,30.655,237.52,30.616,237.52z M17.752,235.641c-0.13,0-0.264-0.023-0.392-0.073c-1.429-0.55-2.809-1.199-4.1-1.931   c-0.525-0.298-0.71-0.965-0.412-1.49c0.299-0.526,0.966-0.707,1.49-0.412c1.197,0.68,2.478,1.283,3.805,1.793   c0.563,0.217,0.845,0.848,0.629,1.412C18.605,235.374,18.19,235.641,17.752,235.641z M10.185,231.327   c-0.24,0-0.483-0.079-0.685-0.242c-1.196-0.965-2.3-2.03-3.281-3.164c-0.395-0.456-0.346-1.146,0.111-1.541   c0.454-0.394,1.147-0.347,1.541,0.111c0.897,1.036,1.907,2.009,3.002,2.893c0.47,0.379,0.543,1.067,0.164,1.537   C10.821,231.188,10.504,231.327,10.185,231.327z M4.509,224.751c-0.376,0-0.742-0.194-0.945-0.542   c-0.757-1.298-1.403-2.688-1.924-4.134c-0.204-0.569,0.091-1.194,0.658-1.399c0.569-0.206,1.193,0.091,1.399,0.658   c0.475,1.321,1.065,2.591,1.755,3.773c0.303,0.522,0.127,1.191-0.394,1.495C4.886,224.703,4.696,224.751,4.509,224.751z    M1.546,216.584c-0.519,0-0.98-0.37-1.075-0.9c-0.259-1.443-0.418-2.956-0.471-4.495c-0.021-0.603,0.451-1.109,1.054-1.129   c0.577-0.034,1.109,0.451,1.129,1.054c0.05,1.434,0.197,2.842,0.439,4.183c0.107,0.593-0.288,1.162-0.882,1.269   C1.675,216.579,1.61,216.584,1.546,216.584z M1.214,207.879c-0.032,0-0.064-0.001-0.096-0.004   c-0.601-0.052-1.046-0.582-0.993-1.183c0.125-1.438,0.332-2.93,0.615-4.434c0.111-0.593,0.688-0.98,1.275-0.872   c0.593,0.111,0.984,0.682,0.872,1.275c-0.269,1.433-0.465,2.853-0.585,4.22C2.252,207.45,1.775,207.879,1.214,207.879z    M2.811,199.3c-0.099,0-0.198-0.013-0.298-0.042c-0.582-0.163-0.919-0.767-0.754-1.348c0.412-1.461,0.894-2.889,1.433-4.244   c0.223-0.562,0.86-0.833,1.419-0.613c0.561,0.223,0.834,0.859,0.613,1.419c-0.512,1.286-0.97,2.642-1.363,4.03   C3.726,198.986,3.287,199.3,2.811,199.3z M6.045,191.201c-0.175,0-0.352-0.042-0.518-0.131c-0.531-0.286-0.73-0.949-0.443-1.48   c0.723-1.342,1.525-2.629,2.382-3.823c0.351-0.492,1.033-0.605,1.525-0.251c0.49,0.352,0.603,1.034,0.251,1.525   c-0.802,1.118-1.554,2.325-2.235,3.587C6.81,190.993,6.433,191.201,6.045,191.201z M36.07,184.496   c-0.841-0.001-1.81-0.238-2.881-0.704c-0.554-0.24-0.808-0.885-0.567-1.437c0.24-0.555,0.881-0.809,1.437-0.567   c0.785,0.341,1.481,0.522,2.013,0.523c0.582,0,0.79-0.222,0.858-0.295c0.416-0.439,1.106-0.459,1.545-0.047   c0.44,0.414,0.46,1.106,0.047,1.545C37.917,184.157,37.07,184.496,36.07,184.496z M11.139,184.137c-0.272,0-0.544-0.1-0.756-0.303   c-0.436-0.417-0.451-1.109-0.034-1.545c1.051-1.098,2.185-2.118,3.369-3.029c0.479-0.369,1.165-0.28,1.532,0.198   c0.368,0.478,0.28,1.164-0.198,1.532c-1.097,0.845-2.148,1.791-3.123,2.81C11.714,184.024,11.426,184.137,11.139,184.137z    M29.889,181.619c-0.227,0-0.457-0.07-0.653-0.218c-1.114-0.832-2.27-1.811-3.433-2.909c-0.439-0.414-0.459-1.106-0.045-1.545   c0.415-0.44,1.106-0.458,1.545-0.045c1.102,1.041,2.193,1.966,3.241,2.749c0.483,0.361,0.583,1.046,0.221,1.529   C30.551,181.468,30.222,181.619,29.889,181.619z M38.078,179.721c-0.412,0-0.806-0.233-0.991-0.631   c-0.434-0.931-1.351-1.725-2.651-2.3c-0.552-0.244-0.801-0.89-0.558-1.442c0.245-0.551,0.889-0.8,1.442-0.558   c1.791,0.792,3.086,1.958,3.748,3.375c0.255,0.546,0.019,1.196-0.528,1.452C38.39,179.688,38.233,179.721,38.078,179.721z    M18.045,178.836c-0.387,0-0.763-0.207-0.961-0.571c-0.288-0.53-0.092-1.194,0.439-1.482c1.343-0.729,2.745-1.343,4.167-1.828   c0.239-0.081,0.487-0.074,0.706,0c-0.878-0.998-1.734-2.039-2.548-3.101c-0.367-0.479-0.276-1.165,0.203-1.532   c0.481-0.366,1.166-0.274,1.532,0.203c0.872,1.138,1.793,2.249,2.737,3.307c0.401,0.45,0.363,1.141-0.088,1.543   c-0.334,0.3-0.807,0.356-1.19,0.175c0.012,0.029,0.023,0.058,0.033,0.088c0.195,0.571-0.111,1.192-0.682,1.386   c-1.305,0.445-2.594,1.011-3.828,1.681C18.4,178.794,18.221,178.836,18.045,178.836z M26.282,176.051   c-0.535,0-1.002-0.393-1.08-0.937c-0.086-0.597,0.328-1.151,0.925-1.237c1.07-0.156,2.042-0.295,3.153-0.23   c0.493,0,0.979,0.019,1.449,0.057c0.602,0.048,1.051,0.575,1.003,1.176c-0.048,0.601-0.571,1.04-1.176,1.003   c-0.428-0.034-0.882-0.074-1.317-0.05c-0.905,0-1.847,0.069-2.801,0.207C26.387,176.048,26.334,176.051,26.282,176.051z    M18.189,168.712c-0.357,0-0.707-0.175-0.918-0.497c-0.831-1.278-1.597-2.573-2.276-3.846c-0.285-0.532-0.083-1.194,0.449-1.478   c0.53-0.284,1.195-0.084,1.478,0.449c0.651,1.218,1.384,2.458,2.182,3.684c0.329,0.506,0.185,1.182-0.321,1.512   C18.6,168.655,18.393,168.712,18.189,168.712z M14.098,160.992c-0.431,0-0.84-0.257-1.012-0.681   c-0.592-1.453-1.071-2.896-1.427-4.289c-0.149-0.585,0.204-1.179,0.789-1.329c0.584-0.154,1.178,0.204,1.329,0.789   c0.331,1.297,0.779,2.643,1.333,4.005c0.228,0.559-0.041,1.196-0.6,1.424C14.376,160.967,14.236,160.992,14.098,160.992z    M12.018,152.538c-0.572,0-1.053-0.445-1.09-1.024c-0.026-0.412-0.038-0.822-0.038-1.227c0-0.976,0.078-1.938,0.23-2.858   c0.032-0.189,0.067-0.376,0.108-0.561c0.126-0.591,0.707-0.972,1.297-0.84c0.59,0.126,0.967,0.706,0.84,1.297l-0.089,0.464   c-0.133,0.8-0.201,1.641-0.201,2.498c0,0.361,0.011,0.723,0.034,1.091c0.038,0.602-0.419,1.12-1.022,1.159   C12.064,152.537,12.042,152.538,12.018,152.538z M49.529,145.719c-0.166,0-0.34-0.007-0.515-0.021c-0.602-0.05-1.049-0.577-1-1.179   c0.05-0.601,0.57-1.043,1.179-1c0.123,0.011,0.235,0.011,0.366,0.015c1.066,0,1.951-0.396,2.637-1.176   c0.399-0.455,1.092-0.497,1.542-0.099c0.454,0.399,0.497,1.09,0.099,1.542C52.725,145.066,51.152,145.726,49.529,145.719z    M45.047,144.194c-0.198,0-0.399-0.053-0.579-0.166c-1.207-0.757-2.407-1.745-3.569-2.936c-0.422-0.432-0.413-1.124,0.019-1.545   c0.432-0.419,1.124-0.413,1.545,0.019c1.041,1.067,2.106,1.945,3.166,2.609c0.511,0.321,0.666,0.996,0.346,1.507   C45.766,144.013,45.411,144.194,45.047,144.194z M13.984,144.19c-0.203,0-0.409-0.057-0.592-0.175   c-0.507-0.328-0.652-1.004-0.324-1.511c0.796-1.231,1.819-2.412,3.042-3.509c0.449-0.403,1.14-0.368,1.543,0.083   c0.403,0.449,0.366,1.14-0.083,1.543c-1.079,0.968-1.976,2.001-2.667,3.069C14.694,144.014,14.343,144.19,13.984,144.19z    M54.711,140.205c-0.044,0-0.089-0.002-0.133-0.009c-0.6-0.073-1.025-0.618-0.952-1.216c0.026-0.209,0.037-0.413,0.038-0.613   c0-0.985-0.321-1.832-0.983-2.587c-0.398-0.454-0.352-1.144,0.101-1.542c0.452-0.397,1.144-0.353,1.542,0.101   c1.012,1.154,1.525,2.511,1.525,4.033c-0.001,0.286-0.019,0.575-0.055,0.872C55.727,139.799,55.255,140.205,54.711,140.205z    M20.355,138.312c-0.368,0-0.728-0.186-0.934-0.523c-0.315-0.515-0.152-1.188,0.363-1.502c1.228-0.75,2.577-1.449,4.01-2.079   c0.555-0.243,1.197,0.007,1.44,0.56c0.243,0.553-0.007,1.197-0.56,1.44c-1.343,0.591-2.606,1.245-3.75,1.944   C20.745,138.261,20.549,138.312,20.355,138.312z M38.908,138.048c-0.345,0-0.684-0.162-0.896-0.466   c-0.842-1.204-1.625-2.504-2.328-3.869c-0.233-0.451-0.121-0.99,0.241-1.314c-0.076-0.128-0.126-0.272-0.144-0.429   c-0.07-0.6,0.359-1.142,0.958-1.212c1.527-0.178,3.033-0.279,4.476-0.296c0.585-0.09,1.098,0.475,1.106,1.08   c0.007,0.603-0.476,1.098-1.08,1.106c-1.145,0.014-2.334,0.082-3.543,0.204c0.64,1.226,1.348,2.396,2.104,3.478   c0.346,0.495,0.225,1.176-0.269,1.522C39.343,137.984,39.125,138.048,38.908,138.048z M28.327,134.765   c-0.464,0-0.894-0.298-1.041-0.763c-0.182-0.576,0.137-1.19,0.712-1.371c1.402-0.444,2.859-0.828,4.329-1.142   c0.587-0.133,1.171,0.249,1.297,0.84c0.127,0.59-0.25,1.171-0.84,1.297c-1.402,0.3-2.79,0.667-4.126,1.088   C28.547,134.749,28.436,134.765,28.327,134.765z M49.844,133.853c-0.125,0-0.251-0.021-0.375-0.066   c-1.147-0.418-2.497-0.727-4.013-0.918c-0.599-0.076-1.023-0.622-0.948-1.221c0.075-0.598,0.606-1.014,1.221-0.948   c1.677,0.211,3.188,0.559,4.489,1.033c0.567,0.207,0.859,0.833,0.652,1.401C50.709,133.577,50.29,133.853,49.844,133.853z    M34.895,130.304c-0.444,0-0.861-0.272-1.024-0.714c-0.516-1.394-0.957-2.841-1.31-4.3c-0.142-0.587,0.218-1.177,0.805-1.319   c0.585-0.144,1.177,0.218,1.319,0.805c0.334,1.378,0.75,2.742,1.236,4.057c0.21,0.566-0.079,1.194-0.646,1.403   C35.149,130.282,35.021,130.304,34.895,130.304z M32.839,121.828c-0.544,0-1.015-0.405-1.083-0.958   c-0.182-1.476-0.283-2.985-0.297-4.482c-0.005-0.604,0.479-1.098,1.082-1.103c0.004,0,0.007,0,0.011,0   c0.599,0,1.087,0.482,1.093,1.082c0.013,1.416,0.108,2.841,0.28,4.234c0.075,0.599-0.351,1.145-0.95,1.219   C32.928,121.826,32.883,121.828,32.839,121.828z M32.76,113.105c-0.037,0-0.076-0.002-0.114-0.006   c-0.6-0.062-1.036-0.599-0.974-1.199c0.154-1.477,0.393-2.968,0.71-4.433c0.128-0.589,0.71-0.96,1.3-0.837   c0.589,0.128,0.964,0.71,0.837,1.3c-0.301,1.386-0.526,2.798-0.672,4.196C33.787,112.687,33.312,113.105,32.76,113.105z    M34.599,104.577c-0.113,0-0.228-0.017-0.343-0.055c-0.573-0.189-0.885-0.807-0.695-1.38c0.28-0.849,0.59-1.704,0.934-2.562   c0.222-0.554,0.449-1.092,0.681-1.613c0.248-0.548,0.892-0.799,1.443-0.555c0.552,0.245,0.799,0.891,0.555,1.443   c-0.221,0.496-0.438,1.008-0.649,1.538c-0.327,0.816-0.622,1.628-0.889,2.435C35.485,104.286,35.058,104.577,34.599,104.577z    M38.164,96.616c-0.19,0-0.381-0.049-0.556-0.153c-0.52-0.307-0.69-0.979-0.383-1.497c0.808-1.364,1.683-2.614,2.598-3.718   c0.386-0.462,1.074-0.528,1.539-0.143c0.464,0.385,0.528,1.075,0.143,1.539c-0.843,1.016-1.651,2.172-2.4,3.436   C38.902,96.425,38.538,96.616,38.164,96.616z M71.933,93.337c-0.244,0-0.49-0.082-0.694-0.249c-0.013-0.011-1.342-1.098-3.48-2.38   c-0.519-0.309-0.686-0.981-0.376-1.498c0.311-0.519,0.983-0.685,1.498-0.376c2.289,1.371,3.688,2.518,3.747,2.566   c0.465,0.383,0.532,1.071,0.149,1.537C72.561,93.201,72.249,93.337,71.933,93.337z M43.776,89.98c-0.323,0-0.643-0.143-0.859-0.416   c-0.373-0.475-0.292-1.162,0.181-1.534c1.245-0.981,2.582-1.784,3.975-2.387c0.559-0.238,1.197,0.017,1.437,0.569   c0.239,0.554-0.015,1.197-0.569,1.437c-1.22,0.527-2.394,1.234-3.49,2.097C44.251,89.903,44.012,89.98,43.776,89.98z    M64.445,88.835c-0.149,0-0.302-0.031-0.447-0.096c-1.333-0.6-2.662-1.091-3.953-1.461c-0.581-0.165-0.916-0.77-0.749-1.351   c0.165-0.58,0.778-0.917,1.351-0.749c1.39,0.398,2.819,0.925,4.247,1.568c0.551,0.248,0.796,0.894,0.548,1.445   C65.26,88.595,64.862,88.835,64.445,88.835z M51.701,86.565c-0.537,0-1.005-0.395-1.081-0.941c-0.083-0.599,0.333-1.15,0.931-1.234   c1.497-0.209,3.082-0.229,4.614-0.082c0.601,0.057,1.041,0.59,0.984,1.191c-0.057,0.6-0.575,1.062-1.191,0.984   c-1.364-0.131-2.779-0.114-4.104,0.071C51.802,86.562,51.751,86.565,51.701,86.565z"/>
	<path style="fill:#241726;" d="M416.094,254.314c-0.016,0-0.031,0-0.046-0.001c-1.509-0.062-3.016-0.216-4.48-0.457   c-0.595-0.097-0.999-0.659-0.901-1.255c0.097-0.595,0.658-1.011,1.255-0.901c1.377,0.225,2.795,0.37,4.215,0.429   c0.603,0.025,1.072,0.534,1.047,1.136C417.16,253.854,416.676,254.314,416.094,254.314z M420.461,254.24   c-0.566,0-1.045-0.435-1.088-1.008c-0.046-0.602,0.404-1.128,1.005-1.174c1.427-0.11,2.84-0.303,4.2-0.574   c0.591-0.124,1.166,0.266,1.285,0.858c0.118,0.591-0.266,1.167-0.858,1.285c-1.445,0.288-2.945,0.494-4.458,0.61   C420.518,254.239,420.489,254.24,420.461,254.24z M407.492,252.876c-0.107,0-0.216-0.016-0.322-0.049   c-1.495-0.461-2.916-1.027-4.224-1.68c-0.54-0.27-0.759-0.926-0.489-1.466c0.269-0.539,0.926-0.759,1.466-0.489   c1.201,0.6,2.51,1.12,3.891,1.547c0.577,0.177,0.9,0.79,0.721,1.366C408.391,252.575,407.959,252.876,407.492,252.876z    M429.012,252.52c-0.455,0-0.878-0.285-1.034-0.74c-0.195-0.571,0.11-1.192,0.681-1.387c1.365-0.466,2.665-1.021,3.863-1.649   c0.536-0.282,1.194-0.071,1.475,0.461c0.28,0.535,0.074,1.195-0.461,1.475c-1.297,0.679-2.7,1.278-4.17,1.781   C429.249,252.5,429.129,252.52,429.012,252.52z M399.74,248.939c-0.237,0-0.476-0.077-0.677-0.236   c-1.261-0.998-2.354-2.114-3.248-3.318c-0.36-0.486-0.259-1.17,0.226-1.529c0.482-0.362,1.168-0.26,1.528,0.226   c0.78,1.05,1.738,2.027,2.849,2.907c0.474,0.375,0.554,1.062,0.179,1.534C400.383,248.798,400.064,248.939,399.74,248.939z    M436.7,248.445c-0.324,0-0.645-0.143-0.86-0.417c-0.374-0.475-0.29-1.162,0.184-1.534c1.114-0.875,2.106-1.843,2.948-2.877   c0.383-0.465,1.07-0.538,1.538-0.157c0.467,0.382,0.538,1.07,0.157,1.538c-0.944,1.158-2.052,2.24-3.292,3.214   C437.174,248.37,436.936,248.445,436.7,248.445z M394.662,241.981c-0.455,0-0.878-0.285-1.034-0.738   c-0.496-1.449-0.775-2.996-0.827-4.598c-0.02-0.604,0.452-1.109,1.055-1.128c0.594-0.062,1.108,0.452,1.128,1.055   c0.046,1.385,0.285,2.718,0.712,3.962c0.195,0.571-0.109,1.192-0.68,1.388C394.899,241.962,394.779,241.981,394.662,241.981z    M442.136,241.712c-0.154,0-0.309-0.032-0.458-0.101c-0.548-0.254-0.786-0.903-0.533-1.45c0.566-1.222,0.982-2.527,1.236-3.88   l1.077,0.189l1.09,0.013c-0.015,0.083-0.03,0.166-0.046,0.249l0.015,0.004l-0.015-0.004c-0.306,1.626-0.762,3.029-1.373,4.347   C442.944,241.477,442.549,241.712,442.136,241.712z M443.863,232.123h-1.093c-0.001-1.403-0.123-2.788-0.363-4.158   c-0.104-0.594,0.295-1.16,0.889-1.265c0.588-0.1,1.161,0.293,1.265,0.889c0.26,1.493,0.394,3.004,0.395,4.49L443.863,232.123z    M442.387,224.648c-0.453,0-0.877-0.284-1.033-0.736c-0.446-1.294-1.003-2.599-1.654-3.877c-0.274-0.538-0.061-1.195,0.477-1.469   c0.538-0.279,1.195-0.061,1.469,0.477c0.698,1.368,1.294,2.766,1.773,4.156c0.196,0.571-0.107,1.193-0.677,1.389   C442.625,224.629,442.505,224.648,442.387,224.648z M438.447,216.872c-0.35,0-0.694-0.168-0.905-0.478   c-0.784-1.156-1.653-2.289-2.581-3.371c-0.393-0.458-0.34-1.148,0.117-1.541c0.46-0.393,1.15-0.339,1.541,0.117   c0.982,1.144,1.901,2.343,2.731,3.565c0.339,0.499,0.209,1.179-0.289,1.518C438.872,216.811,438.659,216.872,438.447,216.872z    M432.768,210.245c-0.269,0-0.538-0.098-0.749-0.297c-1.036-0.975-2.13-1.896-3.25-2.737c-0.483-0.362-0.582-1.047-0.219-1.529   s1.048-0.578,1.529-0.219c1.187,0.889,2.343,1.863,3.438,2.893c0.44,0.414,0.46,1.106,0.047,1.545   C433.349,210.13,433.058,210.245,432.768,210.245z M413.7,209.384c-0.036,0-0.073-0.002-0.11-0.005   c-3.257-0.325-3.609-2.471-3.609-3.38c0-0.202,0.015-0.415,0.048-0.637c0.086-0.598,0.638-1.021,1.239-0.923   c0.598,0.087,1.011,0.642,0.923,1.239c-0.016,0.113-0.025,0.22-0.025,0.321c0,0.338,0,1.04,1.641,1.205   c0.601,0.06,1.038,0.595,0.979,1.196C414.73,208.964,414.255,209.384,413.7,209.384z M418.023,208.888   c-0.486,0-0.929-0.327-1.056-0.818c-0.152-0.585,0.2-1.18,0.783-1.332c1.241-0.322,2.577-0.789,3.97-1.389   c0.552-0.239,1.196,0.018,1.436,0.572c0.238,0.554-0.018,1.197-0.572,1.436c-1.495,0.643-2.937,1.147-4.285,1.496   C418.207,208.877,418.114,208.888,418.023,208.888z M426.065,205.491c-0.38,0-0.749-0.198-0.951-0.552   c-0.032-0.055-0.058-0.113-0.079-0.171c-1.222-0.686-2.429-1.251-3.589-1.679c-0.567-0.209-0.856-0.838-0.648-1.403   c0.21-0.567,0.844-0.857,1.403-0.648c1.336,0.493,2.72,1.147,4.115,1.943c0.001,0,0.002,0.001,0.003,0.001   c0.956-0.573,1.894-1.186,2.797-1.829c0.494-0.348,1.174-0.235,1.524,0.256c0.35,0.491,0.236,1.174-0.256,1.524   c-1.211,0.863-2.483,1.675-3.78,2.414C426.434,205.446,426.248,205.491,426.065,205.491z M413.373,203.024   c-0.362,0-0.716-0.179-0.924-0.508c-0.323-0.509-0.172-1.184,0.338-1.508c1.102-0.7,2.42-1.043,4.049-1.052   c0.268,0,0.542,0.011,0.824,0.031c0.602,0.043,1.055,0.566,1.012,1.167c-0.043,0.601-0.545,1.063-1.167,1.012   c-0.23-0.016-0.389-0.034-0.675-0.025c-1.16,0-2.126,0.24-2.871,0.713C413.775,202.97,413.573,203.024,413.373,203.024z    M433.173,200.416c-0.301,0-0.601-0.124-0.817-0.367c-0.4-0.451-0.36-1.142,0.092-1.543c1.087-0.966,2.097-1.974,3-2.997   c0.401-0.45,1.092-0.493,1.543-0.096c0.452,0.4,0.495,1.091,0.096,1.543c-0.963,1.09-2.034,2.161-3.187,3.185   C433.69,200.326,433.431,200.416,433.173,200.416z M438.919,193.857c-0.205,0-0.412-0.058-0.595-0.177   c-0.506-0.33-0.649-1.007-0.319-1.512c0.784-1.204,1.447-2.438,1.969-3.673c0.235-0.555,0.878-0.816,1.432-0.58   c0.556,0.235,0.815,0.876,0.581,1.432c-0.572,1.353-1.295,2.704-2.15,4.014C439.625,193.682,439.275,193.857,438.919,193.857z    M442.248,185.845c-0.067,0-0.134-0.006-0.203-0.019c-0.593-0.111-0.984-0.683-0.872-1.275c0.201-1.07,0.303-2.157,0.303-3.229   c0-0.287-0.007-0.574-0.021-0.863c-0.029-0.603,0.435-1.115,1.038-1.145c0.592-0.031,1.115,0.435,1.145,1.038   c0.016,0.325,0.023,0.648,0.023,0.97c0,1.208-0.115,2.43-0.341,3.632C443.223,185.479,442.764,185.845,442.248,185.845z    M441.827,177.196c-0.478,0-0.917-0.316-1.051-0.799c-0.369-1.321-0.864-2.634-1.474-3.902c-0.261-0.543-0.032-1.196,0.512-1.458   c0.545-0.267,1.196-0.032,1.458,0.512c0.665,1.383,1.206,2.816,1.608,4.261c0.162,0.582-0.177,1.183-0.759,1.346   C442.023,177.183,441.925,177.196,441.827,177.196z M438.087,169.35c-0.346,0-0.686-0.163-0.898-0.47   c-0.78-1.123-1.671-2.226-2.647-3.277c-0.41-0.443-0.384-1.134,0.058-1.545c0.444-0.412,1.132-0.385,1.545,0.058   c1.046,1.127,2.001,2.311,2.84,3.518c0.345,0.495,0.222,1.176-0.274,1.521C438.519,169.287,438.301,169.35,438.087,169.35z    M403.312,164.868c-0.002,0-0.004,0-0.005,0c-0.788,0-1.511-0.22-2.149-0.653c-0.498-0.339-0.629-1.019-0.289-1.518   c0.34-0.496,1.019-0.627,1.518-0.289c0.272,0.186,0.573,0.275,0.921,0.275c0.001,0,0.002,0,0.003,0   c0.559,0,1.249-0.239,1.994-0.691c0.518-0.307,1.188-0.147,1.501,0.368c0.313,0.516,0.148,1.188-0.368,1.501   C405.335,164.529,404.284,164.868,403.312,164.868z M432.173,162.943c-0.248,0-0.496-0.084-0.701-0.255   c-1.067-0.895-2.212-1.752-3.403-2.547c-0.502-0.336-0.637-1.014-0.302-1.516c0.335-0.502,1.011-0.638,1.516-0.302   c1.256,0.84,2.465,1.745,3.593,2.69c0.462,0.388,0.523,1.078,0.136,1.54C432.795,162.811,432.485,162.943,432.173,162.943z    M409.149,161.146c-0.257,0-0.515-0.091-0.723-0.274c-0.452-0.399-0.495-1.09-0.095-1.542c0.861-0.975,1.711-2.108,2.523-3.366   c0.328-0.508,1.005-0.652,1.51-0.325c0.507,0.327,0.653,1.003,0.325,1.51c-0.871,1.35-1.786,2.571-2.721,3.628   C409.752,161.021,409.451,161.146,409.149,161.146z M399.797,160.623c-0.512,0-0.97-0.362-1.071-0.884l-0.052-0.274   c-0.095-0.525-0.14-1.016-0.14-1.48c0-1.224,0.308-2.322,0.917-3.263c0.328-0.506,1.002-0.651,1.511-0.324   c0.507,0.328,0.652,1.004,0.324,1.511c-0.376,0.582-0.567,1.281-0.567,2.077c0,0.343,0.034,0.703,0.104,1.084l0.048,0.252   c0.115,0.592-0.271,1.166-0.863,1.282C399.937,160.617,399.866,160.623,399.797,160.623z M424.921,158.089   c-0.172,0-0.347-0.041-0.51-0.127c-1.254-0.663-2.554-1.271-3.863-1.806c-0.558-0.228-0.826-0.866-0.598-1.426   c0.228-0.557,0.866-0.827,1.426-0.598c1.374,0.562,2.739,1.2,4.057,1.897c0.534,0.282,0.737,0.943,0.455,1.477   C425.692,157.877,425.313,158.089,424.921,158.089z M416.836,154.79c-0.101,0-0.204-0.014-0.306-0.044   c-1.404-0.411-2.795-0.73-4.132-0.951c-0.595-0.098-0.999-0.659-0.901-1.255c0.097-0.597,0.657-1.009,1.255-0.901   c0.152,0.025,0.304,0.05,0.457,0.078c0.522-1.099,0.998-2.227,1.415-3.362c0.209-0.567,0.841-0.855,1.403-0.648   c0.567,0.208,0.856,0.837,0.648,1.403c-0.381,1.034-0.807,2.064-1.271,3.072c0.576,0.14,1.157,0.296,1.738,0.465   c0.579,0.17,0.912,0.776,0.743,1.355C417.746,154.481,417.31,154.79,416.836,154.79z M403.906,154.004   c-0.468,0-0.902-0.303-1.045-0.774c-0.176-0.577,0.148-1.188,0.726-1.364c1.333-0.408,2.892-0.615,4.637-0.617h0.001   c0.603,0,1.092,0.489,1.093,1.092c0.001,0.603-0.488,1.093-1.092,1.094c-1.528,0.002-2.875,0.177-4.001,0.521   C404.119,153.989,404.012,154.004,403.906,154.004z M416.929,145.644c-0.085,0-0.172-0.01-0.258-0.031   c-0.587-0.142-0.947-0.733-0.805-1.319c0.343-1.415,0.587-2.814,0.726-4.158c0.062-0.601,0.607-1.028,1.199-0.975   c0.601,0.063,1.037,0.6,0.975,1.199c-0.149,1.443-0.411,2.939-0.777,4.449C417.869,145.309,417.422,145.644,416.929,145.644z    M417.767,136.975c-0.569,0-1.049-0.441-1.09-1.017c-0.099-1.434-0.344-2.796-0.727-4.046c-0.177-0.577,0.147-1.188,0.725-1.365   c0.58-0.18,1.189,0.147,1.365,0.725c0.432,1.41,0.707,2.936,0.818,4.535c0.042,0.602-0.413,1.124-1.015,1.166   C417.818,136.974,417.792,136.975,417.767,136.975z M415.176,128.724c-0.368,0-0.727-0.186-0.934-0.523   c-0.743-1.214-1.585-2.321-2.5-3.289c-0.415-0.438-0.397-1.129,0.042-1.544c0.44-0.415,1.13-0.398,1.544,0.042   c1.021,1.078,1.956,2.306,2.78,3.652c0.315,0.514,0.153,1.187-0.363,1.502C415.568,128.673,415.37,128.724,415.176,128.724z    M409.186,122.464c-0.203,0-0.409-0.057-0.591-0.175c-1.135-0.732-2.375-1.336-3.688-1.794c-0.569-0.2-0.87-0.823-0.671-1.393   c0.2-0.569,0.823-0.866,1.393-0.671c1.475,0.515,2.872,1.195,4.151,2.022c0.508,0.328,0.653,1.003,0.325,1.51   C409.896,122.288,409.545,122.464,409.186,122.464z M388.092,121.019c-0.44,0-0.855-0.267-1.021-0.702   c-0.216-0.562,0.065-1.194,0.629-1.411c0.071-0.028,1.783-0.679,4.414-1.175c0.596-0.104,1.166,0.28,1.276,0.871   c0.112,0.593-0.279,1.165-0.871,1.276c-2.422,0.457-4.021,1.062-4.037,1.068C388.353,120.995,388.222,121.019,388.092,121.019z    M401.019,119.566c-0.046,0-0.094-0.003-0.141-0.009c-1.337-0.175-2.801-0.224-4.177-0.168c-0.572,0.062-1.112-0.442-1.138-1.046   c-0.026-0.603,0.443-1.113,1.046-1.138c1.501-0.061,3.09-0.003,4.548,0.182c0.599,0.078,1.021,0.625,0.944,1.224   C402.03,119.165,401.56,119.566,401.019,119.566z"/>
	<g>
		<path style="fill:#1A1F36;" d="M63.722,356.387c0,0,337.193-2.781,343.006,0s39.242,95.942,36.335,100.113    s-417.131,2.781-417.131-2.781C25.933,448.157,63.722,356.387,63.722,356.387z"/>
		<g>
			<path style="fill:#DF4F3E;" d="M57.762,388.815c0,0,4.709-18.969,30.934-16.783s41.154,37.933,10.558,49.952     S45.742,413.948,57.762,388.815z"/>
			<path style="fill:#52AFA6;" d="M63.686,377.297c0,0-8.885-7.569-6.911-9.873c1.975-2.304,7.569-8.227,8.227-4.607     c0.658,3.62,2.633,9.543,2.633,9.543s13.822-6.911,21.061-0.329c7.24,6.582-10.86,0-8.885,3.62     c1.975,3.62,12.176,9.214,8.227,12.176c-3.949,2.962-17.441-4.278-17.441-4.278s1.316,13.822-0.987,14.151     c-2.304,0.329-7.569-8.885-7.569-8.885s-6.582,15.467-7.898,8.885C52.826,391.119,58.749,378.943,63.686,377.297z"/>
			<path style="fill:#241726;" d="M111.403,398.793c-0.009,0-0.017,0-0.026,0c-0.604-0.015-1.081-0.515-1.067-1.118     c0.306-12.807-16.453-17.302-16.622-17.346c-0.584-0.152-0.935-0.748-0.783-1.332c0.15-0.585,0.745-0.94,1.332-0.783     c0.186,0.048,18.605,4.993,18.259,19.512C112.48,398.321,111.995,398.793,111.403,398.793z"/>
		</g>
		<g>
			<path style="fill:#D98011;" d="M348.602,403.721c0,0,30.064-3.693,16.314-24.884c-8.96-13.809-66.515,5.949-64.582,11.845     C302.267,396.579,311.434,409.239,348.602,403.721z"/>
			<path style="fill:#241726;" d="M355.121,399.911c-0.052,0-0.106-0.003-0.159-0.012c-0.597-0.086-1.011-0.641-0.923-1.239     c1.749-12.013-2.692-17.984-2.738-18.043c-0.365-0.478-0.277-1.163,0.2-1.531c0.475-0.367,1.159-0.285,1.528,0.192     c0.208,0.267,5.068,6.688,3.172,19.698C356.122,399.519,355.654,399.911,355.121,399.911z"/>
			<path style="fill:#241726;" d="M341.635,398.741c-0.131,0-0.264-0.023-0.393-0.074c-0.563-0.217-0.844-0.849-0.626-1.412     c1.463-3.795-0.041-12.962-0.743-16.174c-0.129-0.59,0.244-1.172,0.833-1.301c0.598-0.132,1.172,0.243,1.301,0.833     c0.109,0.498,2.644,12.249,0.647,17.427C342.487,398.475,342.073,398.741,341.635,398.741z"/>
			<path style="fill:#241726;" d="M330.384,397.984c-0.22,0-0.441-0.066-0.633-0.203c-0.492-0.35-0.606-1.033-0.256-1.524     c2.239-3.142-0.308-9.602-1.479-11.827c-0.282-0.535-0.076-1.195,0.458-1.476c0.534-0.282,1.195-0.076,1.476,0.458     c0.197,0.376,4.794,9.245,1.325,14.112C331.062,397.825,330.726,397.984,330.384,397.984z"/>
			<path style="fill:#52AFA6;" d="M366.289,381.237c0,0,2.574,3.942,8.32-5.727s9.529-12.271,10.307-4.865     s-3.311,10.778-3.311,10.778s11.397-10.771,15.798-5.997s-10.209,11.485-10.209,11.485s7.903-1.677,9.693,7.402     c1.79,9.079-12.652-2.996-12.652-2.996s4.521,8.593,0.781,11.864c-3.74,3.271-11.532-18-16.777-12.837     C366.826,391.735,366.289,381.237,366.289,381.237z"/>
			<path style="fill:#241726;" d="M316.594,397.583c-0.264,0-0.528-0.095-0.737-0.287c-0.446-0.407-0.476-1.098-0.068-1.543     c3.531-3.859-0.878-11.316-0.923-11.39c-0.311-0.518-0.144-1.189,0.372-1.499c0.52-0.307,1.189-0.144,1.499,0.371     c0.219,0.363,5.296,8.931,0.663,13.993C317.184,397.464,316.89,397.583,316.594,397.583z"/>
			<path style="fill:#241726;" d="M370.693,385.289c-0.512,0-0.969-0.361-1.071-0.883c-0.116-0.592,0.27-1.166,0.862-1.283     c6.429-1.262,7.317-4.102,7.326-4.13c0.163-0.571,0.757-0.917,1.329-0.77c0.573,0.149,0.927,0.714,0.794,1.29     c-0.099,0.428-1.194,4.217-9.028,5.755C370.834,385.283,370.762,385.289,370.693,385.289z"/>
			<path style="fill:#241726;" d="M385.083,389.597c-0.148,0-0.299-0.031-0.443-0.095c-0.053-0.022-5.325-2.321-10.128-0.663     c-0.575,0.192-1.193-0.107-1.39-0.675c-0.197-0.571,0.106-1.193,0.675-1.39c5.63-1.947,11.487,0.623,11.735,0.733     c0.55,0.246,0.796,0.892,0.55,1.443C385.901,389.356,385.501,389.597,385.083,389.597z"/>
		</g>
		<g>
			<path style="fill:#D98011;" d="M338.355,441.8c0,0-30.064-3.693-16.314-24.884c8.96-13.809,66.515,5.949,64.582,11.845     C384.69,434.657,375.523,447.317,338.355,441.8z"/>
			<path style="fill:#241726;" d="M331.835,437.989c-0.535,0-1.001-0.392-1.08-0.935c-1.895-13.01,2.965-19.43,3.174-19.697     c0.369-0.477,1.055-0.566,1.533-0.191c0.475,0.37,0.561,1.054,0.193,1.53c-0.058,0.076-4.485,6.046-2.738,18.041     c0.087,0.598-0.327,1.152-0.923,1.239C331.941,437.986,331.888,437.989,331.835,437.989z"/>
			<path style="fill:#241726;" d="M345.322,436.819c-0.439,0-0.853-0.266-1.019-0.7c-1.997-5.178,0.538-16.927,0.647-17.426     c0.128-0.589,0.702-0.961,1.301-0.833c0.589,0.128,0.963,0.711,0.833,1.301c-0.025,0.115-2.502,11.605-0.743,16.173     c0.218,0.562-0.063,1.195-0.626,1.412C345.585,436.796,345.453,436.819,345.322,436.819z"/>
			<path style="fill:#241726;" d="M356.572,436.063c-0.341,0-0.678-0.159-0.891-0.459c-3.468-4.868,1.128-13.736,1.325-14.111     c0.282-0.532,0.942-0.738,1.475-0.458c0.535,0.281,0.74,0.941,0.46,1.475c-1.168,2.227-3.712,8.694-1.48,11.827     c0.35,0.491,0.236,1.174-0.256,1.524C357.013,435.997,356.791,436.063,356.572,436.063z"/>
			<path style="fill:#52AFA6;" d="M320.668,419.315c0,0-2.574,3.942-8.32-5.727c-5.747-9.668-9.529-12.271-10.307-4.865     s3.311,10.778,3.311,10.778s-11.397-10.771-15.798-5.997c-4.401,4.774,10.209,11.485,10.209,11.485s-7.903-1.677-9.693,7.402     c-1.79,9.079,12.652-2.996,12.652-2.996s-4.521,8.593-0.781,11.864c3.74,3.271,11.532-18,16.777-12.837     C320.13,429.814,320.668,419.315,320.668,419.315z"/>
			<path style="fill:#241726;" d="M370.363,435.663c-0.296,0-0.59-0.12-0.806-0.355c-4.634-5.063,0.444-13.631,0.663-13.994     c0.313-0.516,0.984-0.68,1.499-0.371c0.516,0.311,0.683,0.983,0.372,1.499c-0.045,0.075-4.455,7.532-0.923,11.391     c0.408,0.445,0.378,1.136-0.068,1.543C370.891,435.568,370.627,435.663,370.363,435.663z"/>
			<path style="fill:#241726;" d="M316.263,423.367c-0.069,0-0.141-0.006-0.211-0.02c-7.834-1.538-8.928-5.327-9.028-5.755     c-0.135-0.588,0.23-1.175,0.818-1.311c0.57-0.133,1.159,0.22,1.305,0.794c0.032,0.1,0.98,2.882,7.325,4.128     c0.592,0.116,0.979,0.69,0.862,1.283C317.232,423.007,316.776,423.367,316.263,423.367z"/>
			<path style="fill:#241726;" d="M301.873,427.675c-0.418,0-0.818-0.241-0.999-0.648c-0.246-0.551,0-1.196,0.55-1.443     c0.248-0.111,6.098-2.681,11.735-0.733c0.57,0.197,0.873,0.82,0.675,1.39c-0.198,0.57-0.823,0.868-1.39,0.675     c-4.8-1.659-10.074,0.639-10.128,0.663C302.172,427.644,302.022,427.675,301.873,427.675z"/>
		</g>
		<g>
			<path style="fill:#E8B500;" d="M201.687,395.096c0,0,47.257-10.908,48.251-6.139c0.995,4.769,1.104,13.997,1.104,13.997     l-44.803,8.64L201.687,395.096z"/>
			<path style="fill:#FFFFFF;" d="M212.935,391.755c0,0-87.011,11.47-85.753,15.54c1.259,4.07,11.233,21.018,27.141,25.429     c15.908,4.411,65.34-1.681,66.397-4.478C221.776,425.45,212.935,391.755,212.935,391.755z"/>
			<path style="fill:#241726;" d="M151.462,422.687c-2.833,0-4.828-2.213-6.422-3.982c-2.308-2.56-3.361-3.396-5.251-2.014     c-0.488,0.355-1.172,0.249-1.527-0.238c-0.355-0.487-0.25-1.171,0.238-1.527c3.659-2.675,6.155,0.09,8.163,2.316     c2.633,2.924,4.437,4.575,8.132,1.919c3.229-2.324,3.567-3.394,3.895-4.43c0.55-1.737,1.247-3.073,5.763-5.698     c1.998-1.162,3.673-1.523,5.127-1.116c2.147,0.607,3.263,2.683,4.444,4.88c1.349,2.509,2.744,5.103,5.747,5.724     c4.578,0.944,5.48-0.045,8.162-2.981c1.441-1.576,3.413-3.735,6.61-6.206c2.965-2.295,5.878-3.144,8.661-2.515     c4.542,1.022,6.923,5.625,7.023,5.821c0.273,0.537,0.059,1.193-0.478,1.466c-0.538,0.274-1.194,0.061-1.469-0.476     c-0.02-0.038-2.034-3.895-5.568-4.682c-2.109-0.472-4.407,0.241-6.832,2.115c-3.047,2.356-4.868,4.349-6.332,5.952     c-2.854,3.122-4.427,4.842-10.217,3.647c-4.004-0.827-5.793-4.155-7.231-6.829c-0.998-1.856-1.859-3.457-3.114-3.812     c-0.855-0.243-1.977,0.054-3.434,0.902c-4.124,2.398-4.427,3.357-4.778,4.468c-0.502,1.585-1.165,3-4.703,5.545     C154.318,422.195,152.798,422.687,151.462,422.687z"/>
		</g>
		<g>
			<path style="fill:#B45036;" d="M278.092,230.654c3.048-11.344-21.854-12.384-25.497-15.298     c-1.456-1.165-3.029-5.593-4.392-10.486c4.514-1.054,9.574-3.191,15.073-7.347c4.702-3.554,7.704-11.209,9.45-20.658     c0.944,0.446,2.047,0.699,3.357,0.679c12.459-0.191,17.656-17.795,11.708-29.908c-3.355-6.833-8.918-3.809-13.132,0.126     c-0.413-18.878-3.468-36.841-6.943-41.874c-17.15-24.841-68.025-7.095-68.025-7.095c-17.422,1.425-15.881,35.23-13.67,53.958     c-4.918-3.858-12.159-7.682-14.77,0.505c-4.101,12.856,3.63,29.504,15.981,27.86c1.256-0.167,2.284-0.557,3.136-1.106     c2.447,7.037,7.238,14.949,16.592,19.998c3.889,8.891,7.921,19.47,6.297,21.906c-2.914,4.371-29.867,15.298-25.497,26.225     C192.132,259.064,264.979,279.462,278.092,230.654z"/>
			<path style="fill:#E17B8D;" d="M373.522,261.978c-20.999-22.615-39.004-29.704-49.622-33.631c0.022-0.909,0.05-1.608,0.085-2.064     c0.729-9.47-60.463-13.841-64.47-10.199c-1.525,1.386-2.914,25.861-18.212,29.503s-32.781-20.761-32.781-20.761     c-1.998,0-5.558,1.223-9.766,3.138c-17.573,5.273-56.825,21.23-78.744,52.955c0,0,42.252,48.079,48.079,48.808     c2.734,0.342,9.957-5.409,16.856-11.611c4.746,18.842,8.78,39.559,8.78,39.559s130.324,0.441,131.052-2.473     c0.32-1.279,0.012-27.942-0.298-53.386c4.991,3.834,14.095,10.427,17.715,10.427     C347.297,312.243,378.479,267.316,373.522,261.978z"/>
			<path style="fill:#52AFA6;" d="M201.966,265.256c0,0,83.046-9.834,87.417-5.464c4.371,4.371,25.507,96.954,25.507,96.954     s-109.538,5.629-112.816-0.927C198.795,349.264,201.966,265.256,201.966,265.256z"/>
			<path style="fill:#241726;" d="M212.905,168.099c-0.12,0-0.241-0.013-0.365-0.041c-2.527-0.554-7.38-9.874-10.048-15.38     c-0.263-0.542-0.035-1.196,0.507-1.46c0.543-0.258,1.198-0.036,1.461,0.507c2.867,5.919,6.638,12.558,8.233,13.968     c0.737-1.884,1.075-9.013,0.949-15.15c-0.012-0.603,0.467-1.102,1.07-1.115c0.625,0.047,1.102,0.467,1.115,1.07     c0.117,5.751,0.021,15.637-1.947,17.252C213.601,167.981,213.264,168.099,212.905,168.099z"/>
			<path style="fill:#241726;" d="M252.405,166.257c-0.093,0-0.187-0.01-0.282-0.029c-0.71-0.149-2.371-0.496-6.021-17.789     c-0.125-0.59,0.253-1.17,0.844-1.294c0.589-0.122,1.17,0.252,1.294,0.844c1.26,5.973,3.019,12.758,4.101,15.296     c1.324-2.885,3.768-10.009,5.302-14.773c0.186-0.573,0.802-0.884,1.375-0.705c0.574,0.186,0.89,0.801,0.705,1.375     c-0.47,1.456-4.625,14.281-6.18,16.455C253.26,166.038,252.847,166.257,252.405,166.257z"/>
			<path style="fill:#241726;" d="M186.778,171.109c-0.37,0-0.731-0.188-0.936-0.527c-2.895-4.788-6.358-9.087-7.41-9.202     c-0.655,0.118-1.289,3.182-1.206,6.065c0.017,0.604-0.458,1.107-1.061,1.125c-0.656-0.029-1.108-0.458-1.125-1.061     c-0.052-1.811,0.015-7.758,3.071-8.286c2.668-0.497,7.171,6.207,9.6,10.227c0.313,0.516,0.147,1.189-0.369,1.5     C187.166,171.058,186.97,171.109,186.778,171.109z"/>
			<path style="fill:#241726;" d="M274.901,167.592c-0.141,0-0.284-0.027-0.422-0.084c-0.557-0.233-0.82-0.873-0.587-1.43     c1.803-4.313,5.229-11.528,7.955-11.528c0.013,0,0.023,0,0.036,0c3.1,0.073,4.041,5.945,4.256,7.744     c0.072,0.599-0.356,1.142-0.955,1.214c-0.611,0.058-1.143-0.356-1.215-0.955c-0.35-2.92-1.409-5.801-2.136-5.818     c-0.973,0.263-3.766,5.025-5.923,10.185C275.735,167.34,275.328,167.592,274.901,167.592z"/>
			<circle style="fill:#B1342F;" cx="203.754" cy="178.565" r="8.236"/>
			<circle style="fill:#B1342F;" cx="257.963" cy="178.617" r="8.236"/>
			<circle style="fill:#B1342F;" cx="231.876" cy="189.261" r="8.236"/>
			<path style="fill:#241726;" d="M229.089,175.298c-0.5,0-0.951-0.345-1.065-0.854c-0.132-0.589,0.238-1.173,0.827-1.305     c0.264-0.06,6.157-1.376,9.019-1.472c0.403-2.138-1.406-11.43-3.446-19.339c-0.15-0.585,0.202-1.18,0.785-1.332     c0.586-0.146,1.181,0.202,1.332,0.785c1.833,7.118,4.661,19.373,2.986,21.481c-0.311,0.389-0.769,0.587-1.228,0.586     c-2.002-0.089-7.137,1.012-8.97,1.422C229.249,175.289,229.168,175.298,229.089,175.298z"/>
			<path style="fill:#241726;" d="M232.803,193.78c-0.023,0-0.047-0.001-0.07-0.001c-5.298-0.096-8.592-11.969-9.198-14.347     c-0.149-0.585,0.204-1.179,0.789-1.329c0.585-0.154,1.179,0.204,1.329,0.789c1.339,5.245,4.434,12.654,7.121,12.702     c0.007,0.001,0.015,0.001,0.022,0.001c0.943,0,3.402-1.104,6.33-11.06c0.171-0.577,0.772-0.912,1.356-0.74     c0.578,0.17,0.91,0.777,0.74,1.356C238.688,189.762,236.012,193.78,232.803,193.78z"/>
			<path style="fill:#241726;" d="M235.436,207.627c-14.211,0-30.138-8.917-30.947-9.374c-0.525-0.298-0.71-0.965-0.412-1.49     c0.3-0.523,0.964-0.71,1.49-0.412c0.23,0.13,23.326,13.054,37.803,7.842c0.57-0.212,1.193,0.091,1.398,0.657     c0.205,0.568-0.09,1.194-0.657,1.398C241.405,207.223,238.459,207.627,235.436,207.627z"/>
			<path style="fill:#D98011;" d="M273.861,148.893c-0.917,1.359-1.637-39.037-20.167-45.654s-19.264,13.257-26.356,12.094     c-7.091-1.163-9.176-10.361-19.219-6.267c-25.848,10.535-14.567,44.671-20.789,44.366c-6.222-0.305-6.425-4.969-14.364-3.535     s-6.865-45.914,12.546-63.145c23.688-21.028,53.061-23.065,75.273-8.785c19.953,12.828,34.678,45.214,21.85,65.167     C282.635,143.134,276.086,145.596,273.861,148.893z"/>
			<path style="fill:#D98011;" d="M213.584,72.919c0,0,6.008-32.521-18.033-36.338s-47.822,5.668-47.687,26.401     c0.135,20.732,7.498,36.925-3.23,34.576c-10.727-2.349,2.71,18.124,11.992,10.807c0,0,3.817,2.394-9.282,7.317     c-13.099,4.923,4.596,15.865,14.951,14.07c10.355-1.795,16.306-42.955,26.661-44.75     C199.311,83.206,213.584,72.919,213.584,72.919z"/>
			<path style="fill:#241726;" d="M163.302,73.132c-0.36,0-0.713-0.177-0.921-0.504c-2.488-3.883-1.228-11.701,2.87-17.798     c4.46-6.636,11.131-9.681,18.303-8.359c16.766,3.098,21.548,22.328,21.743,23.145c0.14,0.587-0.222,1.176-0.808,1.316     c-0.583,0.149-1.177-0.22-1.318-0.807c-0.045-0.187-4.658-18.669-20.015-21.505c-8.578-1.581-13.77,3.973-16.092,7.429     c-3.894,5.791-4.614,12.639-2.845,15.4c0.325,0.508,0.178,1.183-0.331,1.509C163.708,73.076,163.504,73.132,163.302,73.132z"/>
			<path style="fill:#241726;" d="M164.227,109.063c-0.319,0-0.634-0.138-0.849-0.404c-0.381-0.468-0.308-1.157,0.16-1.537     c3.467-2.811,3.647-7.857,3.855-13.699c0.273-7.642,0.583-16.304,8.125-23.142c4.052-3.675,7.971-5.093,11.654-4.21     c6.421,1.538,9.53,9.52,9.659,9.858c0.214,0.563-0.068,1.194-0.631,1.41c-0.564,0.214-1.195-0.066-1.411-0.63     c-0.028-0.073-2.837-7.251-8.133-8.514c-2.944-0.705-6.188,0.548-9.67,3.706c-6.859,6.218-7.152,14.391-7.409,21.6     c-0.218,6.11-0.425,11.882-4.663,15.318C164.712,108.983,164.468,109.063,164.227,109.063z"/>
			<path style="fill:#241726;" d="M242.029,90.759c-0.455,0-0.879-0.286-1.034-0.741c-4.098-12.033-22.855-11.735-23.037-11.716     c-0.592,0.023-1.104-0.462-1.119-1.066c-0.014-0.604,0.463-1.104,1.066-1.119c0.844-0.018,20.548-0.339,25.158,13.197     c0.195,0.571-0.111,1.192-0.682,1.386C242.265,90.741,242.146,90.759,242.029,90.759z"/>
			<path style="fill:#241726;" d="M223.623,103.146c-0.601,0-1.088-0.484-1.093-1.085c-0.074-11.341-10.532-17.589-10.638-17.651     c-0.521-0.305-0.696-0.974-0.392-1.495c0.306-0.522,0.975-0.698,1.495-0.392c0.475,0.279,11.638,6.952,11.72,19.523     c0.004,0.604-0.482,1.096-1.085,1.1C223.627,103.146,223.625,103.146,223.623,103.146z"/>
			<path style="fill:#241726;" d="M203.23,102.242c-0.112,0-0.226-0.017-0.338-0.053c-0.574-0.188-0.888-0.805-0.701-1.378     c2.895-8.877,0.285-15.786,0.257-15.854c-0.218-0.562,0.061-1.196,0.623-1.415c0.561-0.214,1.195,0.061,1.415,0.623     c0.12,0.311,2.916,7.712-0.217,17.322C204.119,101.95,203.69,102.242,203.23,102.242z"/>
			<path style="fill:#241726;" d="M180.713,120.185c-0.44,0-0.854-0.267-1.02-0.702c-5.454-14.258,13.683-35.24,14.501-36.126     c0.41-0.442,1.101-0.47,1.544-0.063c0.444,0.409,0.472,1.1,0.063,1.544c-0.191,0.207-19.037,20.868-14.068,33.863     c0.216,0.563-0.066,1.195-0.63,1.411C180.975,120.162,180.843,120.185,180.713,120.185z"/>
			<path style="fill:#241726;" d="M266.42,95.263c-0.448,0-0.869-0.279-1.029-0.725c-0.239-0.664-6.11-16.274-30.131-18.601     c-0.601-0.058-1.04-0.592-0.982-1.193c0.058-0.6,0.577-1.027,1.193-0.982c25.467,2.466,31.724,19.327,31.978,20.043     c0.202,0.568-0.095,1.191-0.663,1.393C266.666,95.243,266.542,95.263,266.42,95.263z"/>
			<path style="fill:#E8B500;" d="M219.45,284.925c0,0,100.529,24.04,104.9,34.42s-23.493,59.006-72.665,51.904     C202.513,364.147,205.791,278.369,219.45,284.925z"/>
			<path style="fill:#1A1F36;" d="M285.617,266.969c0,0,7.751,3.875,9.965,4.614c2.215,0.738,32.046-56.392,32.046-57.684     s-16.546-10.033-18.576-8.742S285.617,266.969,285.617,266.969z"/>
			<path style="fill:#B45036;" d="M331.03,226.201c0,0-13.717-5.709-22.4-7.157c-8.682-1.447-25.212-3.272-25.44,3.596     c-0.228,6.869,3.377,7.028,3.377,7.028s-7.73,3.696-5.926,7.541c1.804,3.846,6.192,3.642,6.192,3.642s-6.378,1.511-8.013,6.556     c-1.636,5.045,4.007,6.921,12.02,7.285c5.867,0.267,23.489,6.802,25.302,8.021c1.814,1.219,49.151,67.209,61.75,70.29     c20.689,5.058,35.15-15.838,32.781-30.596C408.305,287.65,331.03,226.201,331.03,226.201z"/>
			<path style="fill:#B45036;" d="M214.715,337.011c0,0,23.311-15.298,32.781-13.113s-16.755,11.656-16.755,11.656     s26.225-7.285,28.41-2.185c2.185,5.099-21.854,10.199-21.854,10.199s22.583-5.828,26.225,0s-18.212,9.47-18.212,9.47     s21.854-2.914,21.854,2.914s-22.447,8.977-48.079,14.569c-40.066,8.742-120.927-14.569-131.854-18.212     s36.424-67.748,39.338-64.106c2.914,3.642,32.053,34.238,32.053,34.238l-6.556,5.099L214.715,337.011z"/>
			<path style="fill:#241726;" d="M175.376,335.19c-0.186,0-0.375-0.047-0.546-0.147c-13.422-7.77-35.654-7.866-35.877-7.866     c-0.604,0-1.093-0.49-1.093-1.093c0-0.604,0.49-1.093,1.093-1.093c0.934,0,23.037,0.093,36.972,8.16     c0.522,0.302,0.701,0.971,0.398,1.493C176.12,334.995,175.754,335.19,175.376,335.19z"/>
			<path style="fill:#DF4F3E;" d="M231.829,295.06c0,0,81.594,19.369,77.223,29.203c-4.371,9.834-32.323,6.655-48.079,0     C226.893,309.868,221.995,292.874,231.829,295.06z"/>
			<path style="fill:#FBFCFF;" d="M201.967,266.349c-0.341,0-0.677-0.159-0.89-0.458c-5.681-7.954,0.642-36.8,0.915-38.024     c0.131-0.588,0.723-0.95,1.304-0.83c0.589,0.131,0.96,0.715,0.83,1.304c-1.794,8.075-5.519,30.332-1.271,36.28     c0.351,0.491,0.237,1.174-0.254,1.524C202.409,266.283,202.187,266.349,201.967,266.349z"/>
			<path style="fill:#FBFCFF;" d="M277.364,258.7c-0.053,0-0.108-0.004-0.163-0.012c-0.597-0.09-1.008-0.647-0.919-1.243     c3.163-21.086-13.389-38.978-13.556-39.156c-0.413-0.44-0.392-1.131,0.048-1.544c0.439-0.413,1.133-0.394,1.544,0.048     c0.714,0.759,17.445,18.852,14.126,40.977C278.363,258.312,277.897,258.7,277.364,258.7z"/>
			<path style="fill:#241726;" d="M286.569,230.761c-0.328,0-0.651-0.146-0.865-0.425c-0.369-0.478-0.282-1.164,0.196-1.532     c4.451-3.436,12.469-1.841,12.808-1.77c0.591,0.122,0.971,0.699,0.85,1.289c-0.121,0.59-0.695,0.971-1.289,0.852     c-0.076-0.016-7.38-1.465-11.034,1.358C287.038,230.687,286.802,230.761,286.569,230.761z"/>
			<path style="fill:#241726;" d="M286.834,241.946c-0.297,0-0.592-0.121-0.809-0.357c-0.406-0.446-0.372-1.138,0.074-1.544     c4.436-4.031,13.111-1.08,13.477-0.952c0.57,0.198,0.871,0.821,0.673,1.39c-0.197,0.57-0.821,0.875-1.39,0.673     c-0.077-0.027-7.819-2.656-11.29,0.506C287.36,241.852,287.096,241.946,286.834,241.946z"/>
			<path style="fill:#241726;" d="M242.063,254.387c-18.288,0-33.332-17.84-34.017-18.665c-0.385-0.464-0.321-1.152,0.143-1.538     c0.463-0.388,1.152-0.322,1.539,0.141c0.174,0.21,17.683,20.939,36.845,17.473c18.748-3.409,14.952-26.178,14.781-27.146     c-0.106-0.594,0.291-1.161,0.886-1.266c0.588-0.111,1.162,0.29,1.266,0.886c0.046,0.258,4.319,25.881-16.542,29.675     C245.31,254.248,243.673,254.387,242.063,254.387z"/>
			<path style="fill:#241726;" d="M186.303,312.972c-0.514,0-0.972-0.364-1.072-0.887c-3.267-17.068-1.13-44.097-1.109-44.368     c0.05-0.601,0.583-1.046,1.178-1.001c0.601,0.049,1.049,0.576,1.001,1.178c-0.022,0.268-2.135,27.005,1.077,43.779     c0.113,0.593-0.275,1.165-0.868,1.279C186.441,312.965,186.372,312.972,186.303,312.972z"/>
			<path style="fill:#241726;" d="M168.822,320.985c-0.417,0-0.815-0.239-0.998-0.645c-3.155-7.012-34.053-36.877-34.365-37.178     c-0.434-0.419-0.447-1.111-0.028-1.545c0.42-0.433,1.112-0.445,1.545-0.028c1.285,1.241,31.515,30.462,34.841,37.854     c0.248,0.551,0.002,1.197-0.548,1.445C169.124,320.954,168.972,320.985,168.822,320.985z"/>
			<path style="fill:#241726;" d="M325.444,301.316c-0.023,0-0.048-0.001-0.072-0.002c-0.602-0.039-1.059-0.559-1.02-1.161     c0.704-10.911-7.489-31.367-7.572-31.573c-0.225-0.559,0.045-1.196,0.605-1.422c0.556-0.224,1.196,0.046,1.422,0.605     c0.346,0.857,8.462,21.123,7.726,32.532C326.496,300.872,326.014,301.316,325.444,301.316z"/>
			<path style="fill:#241726;" d="M207.066,337.011c-0.604,0-1.093-0.489-1.093-1.093c0-65.054,2.355-65.39,3.487-65.552     c0.51-0.073,68.729-7.296,70.817-7.296c0.604,0,1.093,0.489,1.093,1.093c0,0.604-0.489,1.093-1.093,1.093     c-1.522,0.041-63.519,6.432-70.059,7.217c-1.497,4.362-2.059,40.855-2.059,63.445     C208.159,336.523,207.67,337.011,207.066,337.011z"/>
			<path style="fill:#241726;" d="M230.014,341.017c-0.376,0-0.742-0.194-0.945-0.542c-0.303-0.522-0.127-1.191,0.394-1.495     c0.364-0.211,8.942-5.199,12.72-5.954c0.589-0.123,1.168,0.264,1.286,0.857c0.118,0.592-0.266,1.167-0.857,1.286     c-3.424,0.685-11.962,5.65-12.048,5.7C230.391,340.969,230.201,341.017,230.014,341.017z"/>
			<path style="fill:#241726;" d="M234.384,349.031c-0.252,0-0.505-0.086-0.711-0.264c-0.459-0.393-0.512-1.082-0.118-1.54     c4.568-5.331,16.162-7.556,16.653-7.648c0.604-0.111,1.165,0.28,1.275,0.872c0.112,0.593-0.279,1.164-0.872,1.275     c-0.113,0.021-11.33,2.177-15.397,6.922C234.997,348.902,234.691,349.031,234.384,349.031z"/>
			<path style="fill:#241726;" d="M238.756,356.315c-0.387,0-0.762-0.206-0.96-0.57c-0.289-0.529-0.094-1.193,0.436-1.482     c0.339-0.186,8.386-4.525,14.499-3.767c0.599,0.075,1.023,0.621,0.949,1.22c-0.075,0.599-0.619,1.018-1.22,0.949     c-5.419-0.674-13.105,3.476-13.182,3.517C239.112,356.273,238.933,356.315,238.756,356.315z"/>
			<path style="fill:#FBFCFF;" d="M298.501,274.519c-0.111-0.592-0.679-0.976-1.275-0.874c-0.593,0.111-0.984,0.682-0.874,1.275     c0.041,0.212,3.886,21.433-3.684,31.82c-2.277,3.127-4.325,4.641-5.884,4.358c-1.543-0.269-2.611-2.279-3.072-3.487     c6.134-5.069,11.67-16.431,10.526-36.437c-0.034-0.604-0.593-1.066-1.152-1.029c-0.603,0.034-1.064,0.551-1.029,1.152     c1.492,26.111-8.458,36.636-15.509,37.339c-2.569,0.256-4.419-0.929-4.718-3.023c-2.324-16.269,15.776-36.051,15.96-36.248     c0.41-0.444,0.382-1.134-0.061-1.544c-0.444-0.413-1.134-0.385-1.543,0.059c-0.736,0.795-17.105,18.712-16.712,35.312     c-0.253-0.309-0.66-0.472-1.085-0.377c-0.03,0.009-3.21,0.71-5.196-1.295c-2.017-2.035-2.319-6.3-0.873-12.334     c4.011-16.747,19.638-19.015,20.302-19.103c0.598-0.079,1.018-0.629,0.94-1.226c-0.08-0.598-0.635-1.03-1.224-0.94     c-0.178,0.022-17.775,2.524-22.143,20.759c-1.658,6.922-1.166,11.767,1.464,14.401c1.693,1.696,3.853,2.052,5.372,2.052     c1.047,0,1.788-0.17,1.861-0.187c0.291-0.069,0.525-0.249,0.671-0.484c0.038,0.488,0.034,0.981,0.103,1.465     c0.433,3.031,2.873,4.934,6.19,4.934c0.297,0,0.6-0.015,0.908-0.046c1.621-0.162,3.38-0.792,5.138-1.885     c0.663,1.506,2.066,3.895,4.497,4.325c0.249,0.044,0.499,0.065,0.752,0.065c2.275,0,4.722-1.775,7.283-5.289     C302.554,296.886,298.67,275.427,298.501,274.519z"/>
			<path style="fill:#FBFCFF;" d="M281.066,319.555c-25.686,0-28.435-14.133-28.546-14.775c-0.102-0.594,0.297-1.16,0.891-1.262     c0.593-0.1,1.158,0.295,1.261,0.887c0.117,0.63,3.067,14.828,31.9,12.759c0.597-0.049,1.126,0.408,1.168,1.011     c0.044,0.602-0.409,1.126-1.011,1.168C284.729,319.486,282.841,319.555,281.066,319.555z"/>
			<path style="fill:#FBFCFF;" d="M257.147,318.799c-0.19,0-0.382-0.049-0.556-0.153c-7.738-4.591-11.963-8.883-12.56-12.758     c-0.349-2.269,0.707-3.526,0.829-3.662c0.403-0.45,1.092-0.488,1.543-0.085c0.444,0.397,0.487,1.075,0.101,1.524     c-0.043,0.057-0.529,0.719-0.295,2.007c0.328,1.791,2.256,5.614,11.495,11.095c0.52,0.308,0.69,0.979,0.383,1.497     C257.883,318.608,257.521,318.799,257.147,318.799z"/>
			<path style="fill:#FBFCFF;" d="M286.523,325.88c-2.869,0-6.337-0.382-10.506-1.374c-0.587-0.14-0.95-0.729-0.81-1.316     c0.141-0.588,0.732-0.943,1.316-0.81c16.111,3.834,20.674-1.979,20.718-2.038c0.357-0.48,1.037-0.587,1.522-0.236     c0.484,0.352,0.6,1.021,0.254,1.51C298.858,321.839,295.856,325.88,286.523,325.88z"/>
		</g>
	</g>
</g>















</svg>
