<?xml version="1.0" encoding="UTF-8"?>
<!-- Generator: Adobe Illustrator 26.4.1, SVG Export Plug-In . SVG Version: 6.00 Build 0)  -->
<svg xmlns="http://www.w3.org/2000/svg" xmlns:xlink="http://www.w3.org/1999/xlink" version="1.1" id="Capa_1" x="0px" y="0px" viewBox="0 0 492.571 492.571" style="enable-background:new 0 0 492.571 492.571;" xml:space="preserve" width="512" height="512">
<g>
	<g>
		<path style="fill:#FFFFFF;" d="M222.579,23.208c0,0-1.893-15.981,13.395-10.619s10.095,19.904,4.305,14.829    s5.417-21.884,17.069-14.182s8.833,22.316,0.484,23.288c-8.349,0.972,5.268-16.989,15.622-5.652s-12.838,31.459-22.115,23.829    s-1.782-19.652,0.37-12.238c2.153,7.415-4.007,14.578-20.631,14.074s-8.722-25.987-3.007-18.465    c5.715,7.522-4.044,15.801-15.659,6.876S214.415,18.062,222.579,23.208z"/>
		<path style="fill:#241726;" d="M232.703,57.629c-0.541,0-1.092-0.008-1.656-0.025c-5.45-0.166-9.25-3.008-10.539-7.838    c-2.863-0.401-5.869-1.764-8.744-3.973c-4.519-3.474-6.02-8.674-4.118-14.272c1.961-5.768,7.129-10.288,11.766-10.288    c0.702,0,1.378,0.1,2.025,0.293c0.009-2.209,0.396-5.958,2.651-8.495c2.55-2.866,6.714-3.382,12.239-1.446    c2.122,0.745,3.976,1.697,5.527,2.844c2.639-2.71,5.977-4.245,9.294-4.245c2.331,0,4.615,0.727,6.789,2.164    c5.035,3.328,8.053,8.385,8.236,13.702c2.978,0.121,5.69,1.5,8.068,4.104c3.197,3.501,3.756,8.154,1.574,13.105    c-3.333,7.559-12.406,14.191-19.415,14.193c0,0-0.001,0-0.002,0c-2.251,0-4.18-0.649-5.734-1.928    c-0.726-0.595-1.381-1.24-1.956-1.922C245.121,56.241,239.622,57.629,232.703,57.629z M222.765,49.878    c0.914,2.7,3.133,5.438,8.347,5.596c0.542,0.017,1.071,0.025,1.591,0.025c7.958,0,12.368-1.858,14.764-3.628    c-2.275-3.796-2.056-7.919-0.743-10.465c0.766-1.481,1.866-2.332,3.019-2.332c0.781,0,2.208,0.401,2.989,3.093    c1.079,3.715,0.197,7.32-2.418,10.037c0.497,0.593,1.067,1.152,1.702,1.677c1.164,0.955,2.638,1.442,4.382,1.442    c0.001,0,0.001,0,0.002,0c6.159-0.002,14.484-6.161,17.466-12.922c1.289-2.923,2.127-7.17-1.197-10.811    c-1.975-2.161-4.185-3.31-6.575-3.411c-0.568,5.094-3.81,8.901-8.138,9.404c-0.265,0.029-0.514,0.044-0.743,0.044    c-0.001,0-0.001,0-0.002,0c-2.172,0.002-2.99-1.313-3.032-2.542c-0.103-3.012,4.288-8.021,9.867-8.907    c-0.141-4.645-2.813-9.097-7.285-12.052c-4.393-2.904-9.493-2.128-13.278,1.685c3.561,3.482,4.194,7.722,3.168,10.538    c-0.719,1.97-2.234,3.195-3.956,3.195c0,0,0,0-0.001,0c-1.053,0-2.13-0.458-3.117-1.323c-3.195-2.802-2.08-8.175,0.89-12.167    c-1.355-0.98-2.981-1.804-4.846-2.459c-4.634-1.627-7.972-1.358-9.937,0.847c-2.669,2.998-2.054,8.587-2.048,8.643    c0.047,0.408-0.144,0.807-0.49,1.026c-0.345,0.22-0.786,0.223-1.136,0c-0.785-0.495-1.66-0.747-2.599-0.747    c-3.719,0-8.093,3.969-9.75,8.845c-1.59,4.678-0.352,9.015,3.399,11.896c2.344,1.801,4.753,2.973,7.046,3.434    c-0.413-4.11,0.888-8.108,2.563-10.16c0.939-1.15,2.028-1.758,3.148-1.758c0.788,0,1.966,0.314,3.102,1.808    c2.019,2.656,2.456,5.631,1.2,8.163C228.868,48.114,226.078,49.728,222.765,49.878z M249.743,41.204    c-0.2,0-0.682,0.32-1.126,1.179c-0.962,1.864-1.15,5.036,0.464,8.017c1.861-2.126,2.433-4.795,1.607-7.638    C250.358,41.626,249.934,41.204,249.743,41.204z M225.818,37.751c-0.452,0-0.985,0.345-1.499,0.976    c-1.428,1.749-2.507,5.494-2.041,9.032c2.751-0.006,4.968-1.169,5.933-3.114c0.883-1.779,0.523-3.94-0.987-5.926    C226.889,38.277,226.373,37.751,225.818,37.751z M263.921,28.365c-4.425,0.946-7.667,5.044-7.612,6.646    c0.006,0.193,0.017,0.485,0.903,0.485c0.001,0,0.001,0,0.001,0c0.154,0,0.32-0.01,0.497-0.031    C260.91,35.092,263.344,32.247,263.921,28.365z M242.095,17.43c-2.564,3.476-3.097,7.449-1.113,9.188    c1.508,1.321,2.993,0.851,3.668-1.001C245.428,23.485,244.893,20.225,242.095,17.43z"/>
	</g>
	<g>
		<path style="fill:#FFFFFF;" d="M19.21,242.199c0,0-1.893-15.981,13.395-10.619s10.095,19.904,4.305,14.829    c-5.789-5.075,5.417-21.884,17.069-14.182c11.652,7.702,8.833,22.316,0.484,23.288s5.268-16.989,15.622-5.652    c10.354,11.338-12.838,31.459-22.115,23.829c-9.278-7.63-1.782-19.652,0.37-12.238c2.153,7.415-4.007,14.578-20.631,14.074    c-16.625-0.503-8.722-25.987-3.007-18.465c5.715,7.522-4.044,15.801-15.659,6.876C-2.572,255.014,11.046,237.052,19.21,242.199z"/>
		<path style="fill:#241726;" d="M29.34,276.618c-0.543,0-1.096-0.008-1.662-0.025c-5.45-0.166-9.249-3.008-10.539-7.836    c-2.863-0.401-5.869-1.764-8.744-3.973c-4.519-3.474-6.021-8.674-4.119-14.272c1.961-5.768,7.13-10.288,11.767-10.288    c0.701,0,1.378,0.098,2.025,0.293c0.009-2.209,0.396-5.958,2.651-8.495c2.549-2.866,6.711-3.382,12.239-1.446    c2.122,0.745,3.976,1.697,5.528,2.844c2.637-2.71,5.975-4.246,9.293-4.246c2.331,0,4.615,0.728,6.789,2.165    c5.035,3.328,8.053,8.385,8.236,13.702c2.944,0.127,5.726,1.539,8.068,4.104c3.197,3.501,3.756,8.154,1.574,13.103    c-3.332,7.559-12.405,14.191-19.415,14.193c0,0-0.001,0-0.002,0c-2.251,0-4.18-0.649-5.734-1.928    c-0.726-0.595-1.38-1.24-1.955-1.92C41.754,275.231,36.256,276.618,29.34,276.618z M19.396,268.869    c0.913,2.7,3.132,5.435,8.346,5.594c8.845,0.268,13.803-1.716,16.356-3.603c-2.276-3.794-2.057-7.917-0.744-10.463    c0.765-1.483,1.866-2.334,3.019-2.334c0.781,0,2.208,0.404,2.989,3.093c1.079,3.715,0.197,7.32-2.417,10.037    c0.496,0.593,1.066,1.154,1.701,1.677c1.164,0.955,2.638,1.442,4.382,1.442c0.001,0,0.001,0,0.002,0    c6.159-0.002,14.485-6.161,17.466-12.922c1.289-2.923,2.126-7.168-1.197-10.809c-1.975-2.161-4.185-3.31-6.575-3.411    c-0.568,5.094-3.81,8.901-8.138,9.404c-2.785,0.304-3.731-1.14-3.777-2.5c-0.101-3.014,4.289-8.021,9.867-8.907    c-0.141-4.645-2.813-9.097-7.285-12.05c-4.391-2.906-9.492-2.128-13.278,1.685c3.562,3.482,4.195,7.722,3.168,10.538    c-1.156,3.174-4.472,4.152-7.074,1.872c-3.194-2.8-2.08-8.175,0.89-12.167c-1.356-0.98-2.982-1.803-4.847-2.459    c-4.639-1.627-7.974-1.356-9.937,0.847c-2.669,2.998-2.054,8.587-2.048,8.643c0.047,0.408-0.144,0.807-0.49,1.026    c-0.345,0.22-0.788,0.223-1.136,0c-0.786-0.495-1.66-0.747-2.599-0.747c-3.719,0-8.093,3.967-9.751,8.843    c-1.589,4.68-0.351,9.015,3.4,11.899c2.344,1.801,4.753,2.973,7.046,3.434c-0.414-4.11,0.887-8.108,2.562-10.16    c0.939-1.15,2.028-1.758,3.149-1.758c0.788,0,1.966,0.312,3.102,1.808c2.019,2.656,2.456,5.631,1.2,8.163    C25.499,267.105,22.709,268.72,19.396,268.869z M46.374,260.193c-0.2,0-0.682,0.32-1.126,1.182    c-0.962,1.864-1.149,5.036,0.465,8.015c1.86-2.124,2.432-4.795,1.606-7.638C46.989,260.617,46.564,260.193,46.374,260.193z     M22.449,256.742c-0.453,0-0.986,0.345-1.5,0.976c-1.428,1.749-2.507,5.494-2.04,9.032c2.751-0.006,4.968-1.169,5.933-3.114    c0.883-1.779,0.523-3.94-0.987-5.926C23.519,257.266,23.003,256.742,22.449,256.742z M60.553,247.356    c-4.425,0.944-7.667,5.042-7.613,6.646c0.007,0.193,0.017,0.485,0.906,0.485c0.153,0,0.318-0.01,0.496-0.031    C57.542,254.084,59.975,251.236,60.553,247.356z M38.726,236.421c-2.563,3.476-3.096,7.449-1.113,9.188    c1.504,1.321,2.994,0.851,3.668-1.001C42.06,242.476,41.524,239.217,38.726,236.421z"/>
	</g>
	<path style="fill:#241726;" d="M296.185,50.476l-0.025-0.019c-3.209-2.488-3.794-7.123-1.305-10.333   c2.478-3.196,7.101-3.79,10.307-1.326c1.58,1.225,2.573,2.964,2.819,4.917c0.246,1.95-0.282,3.882-1.486,5.435   C304.016,52.345,299.39,52.939,296.185,50.476z M303.882,40.501c-2.297-1.766-5.583-1.342-7.343,0.928   c-1.77,2.281-1.353,5.577,0.926,7.345l-0.631,0.858l0.649-0.844c2.278,1.751,5.564,1.328,7.328-0.942   c0.857-1.104,1.232-2.477,1.055-3.864C305.693,42.593,304.987,41.358,303.882,40.501z"/>
	<path style="fill:#241726;" d="M451.827,356.569l-0.025-0.019c-3.209-2.488-3.794-7.123-1.305-10.333   c2.478-3.196,7.101-3.79,10.307-1.326c1.58,1.225,2.573,2.964,2.819,4.917c0.246,1.95-0.282,3.882-1.486,5.435   C459.658,358.437,455.032,359.032,451.827,356.569z M459.524,346.593c-2.297-1.766-5.583-1.342-7.343,0.928   c-1.77,2.281-1.353,5.577,0.926,7.345l-0.631,0.858l0.649-0.844c2.278,1.751,5.564,1.328,7.328-0.942   c0.857-1.104,1.232-2.477,1.055-3.864C461.335,348.686,460.629,347.45,459.524,346.593z"/>
	<path style="fill:#241726;" d="M21.412,409.985l-0.025-0.019c-3.209-2.488-3.794-7.123-1.305-10.333   c2.478-3.196,7.101-3.79,10.307-1.326c1.58,1.225,2.573,2.964,2.819,4.917c0.246,1.95-0.282,3.882-1.486,5.435   C29.243,411.853,24.617,412.448,21.412,409.985z M29.109,400.009c-2.297-1.766-5.583-1.342-7.343,0.928   c-1.77,2.281-1.353,5.577,0.926,7.345l-0.631,0.858l0.649-0.844c2.278,1.751,5.564,1.328,7.328-0.942   c0.857-1.104,1.232-2.477,1.055-3.864C30.92,402.102,30.214,400.866,29.109,400.009z"/>
	<path style="fill:#241726;" d="M371.265,83.82l-0.006,0l-4.12-0.014l4.365-2.959c0.487-0.331,0.614-0.993,0.284-1.48   c-0.333-0.489-0.999-0.61-1.48-0.284l-5.889,3.992l0.13-6.88c0.012-0.589-0.456-1.073-1.045-1.085h-0.006   c-0.584-0.008-1.067,0.458-1.079,1.045l-0.115,6.072l-3.602-3.907c-0.4-0.43-1.072-0.461-1.505-0.061   c-0.432,0.398-0.459,1.074-0.061,1.505l3.705,4.019l-6.824-0.024c-0.589-0.001-1.067,0.473-1.069,1.062   c-0.001,0.585,0.467,1.061,1.051,1.069l0.01,0l6.225,0.022l-4.864,3.297c-0.487,0.331-0.614,0.993-0.283,1.48   c0.204,0.3,0.533,0.463,0.868,0.467c0.212,0.003,0.425-0.057,0.612-0.183l5.643-3.826l-0.131,6.931   c-0.012,0.589,0.456,1.073,1.045,1.085l0.006,0c0.585,0.008,1.067-0.458,1.079-1.045l0.124-6.546l3.839,4.164   c0.207,0.223,0.487,0.339,0.769,0.343c0.262,0.003,0.528-0.089,0.736-0.282c0.432-0.398,0.459-1.074,0.061-1.505l-4.02-4.36   l5.533,0.02c0.589,0.001,1.067-0.473,1.069-1.062C372.322,84.304,371.854,83.828,371.265,83.82z"/>
	<path style="fill:#241726;" d="M18.316,367.844l-0.006,0l-4.12-0.014l4.365-2.959c0.487-0.331,0.614-0.993,0.284-1.48   c-0.333-0.489-0.999-0.61-1.48-0.284l-5.889,3.992l0.13-6.88c0.012-0.589-0.456-1.073-1.045-1.085h-0.006   c-0.584-0.008-1.067,0.458-1.079,1.045l-0.115,6.072l-3.602-3.907c-0.4-0.43-1.072-0.461-1.505-0.061   c-0.432,0.398-0.459,1.074-0.061,1.505l3.705,4.019l-6.824-0.024c-0.589-0.001-1.067,0.473-1.069,1.062   c-0.001,0.585,0.467,1.061,1.051,1.069l0.01,0l6.225,0.022l-4.864,3.297c-0.487,0.331-0.614,0.993-0.283,1.48   c0.204,0.3,0.533,0.463,0.868,0.467c0.212,0.003,0.425-0.057,0.612-0.183l5.643-3.826l-0.131,6.931   c-0.012,0.589,0.456,1.073,1.045,1.085l0.006,0c0.585,0.008,1.067-0.458,1.079-1.045l0.124-6.546l3.839,4.164   c0.207,0.223,0.486,0.339,0.769,0.343c0.262,0.003,0.528-0.089,0.736-0.282c0.432-0.398,0.459-1.074,0.061-1.505l-4.02-4.36   l5.533,0.02c0.589,0.001,1.067-0.473,1.069-1.062C19.373,368.328,18.905,367.851,18.316,367.844z"/>
	<path style="fill:#241726;" d="M447.842,406.39l-0.006,0l-4.12-0.014l4.365-2.959c0.487-0.331,0.614-0.993,0.284-1.48   c-0.333-0.489-0.999-0.61-1.48-0.284l-5.889,3.992l0.13-6.88c0.012-0.589-0.456-1.073-1.045-1.085h-0.006   c-0.584-0.008-1.067,0.458-1.079,1.045l-0.115,6.072l-3.602-3.907c-0.4-0.43-1.072-0.461-1.505-0.061   c-0.432,0.398-0.459,1.074-0.061,1.505l3.705,4.019l-6.824-0.024c-0.589-0.001-1.067,0.473-1.069,1.062   c-0.001,0.585,0.467,1.061,1.051,1.069l0.01,0l6.225,0.022l-4.864,3.297c-0.487,0.331-0.614,0.993-0.283,1.48   c0.204,0.3,0.533,0.463,0.868,0.467c0.212,0.003,0.425-0.057,0.612-0.183l5.643-3.826l-0.131,6.931   c-0.012,0.589,0.456,1.073,1.045,1.085l0.006,0c0.585,0.008,1.067-0.458,1.079-1.045l0.124-6.546l3.839,4.164   c0.207,0.223,0.486,0.339,0.769,0.343c0.262,0.003,0.528-0.089,0.736-0.282c0.432-0.398,0.459-1.074,0.061-1.505l-4.02-4.36   l5.533,0.02c0.589,0.001,1.067-0.473,1.069-1.062C448.899,406.874,448.43,406.398,447.842,406.39z"/>
	<path style="fill:#241726;" d="M241.546,120.527c-0.482,0-0.905-0.279-1.132-0.747c-0.655-1.348-2.303-4.826-4.049-8.739   c-1.009,0.027-1.991,0.042-2.925,0.042c-7.167,0-8.221-0.82-8.644-1.587c-0.261-0.472-0.236-1.017,0.067-1.498   c0.814-1.292,4.698-4.716,7.305-6.942c-3.573-9.238-3.31-11.532-1.718-12.192c0.314-0.131,0.67-0.104,0.962,0.075   c0.043,0.025,4.063,2.482,8.777,5.542c8.035-6.32,9.091-6.32,9.548-6.32c0.578,0,1.208,0.593,1.223,1.171   c0.026,1.026-1.357,7.018-2.294,10.879c7.004,4.994,7.594,6.349,7.582,7.303c-0.005,0.483-0.237,0.911-0.637,1.182   c-1.203,0.809-5.735,1.392-9.604,1.754C243.192,120.527,242.463,120.527,241.546,120.527z M238.661,110.958   c1.204,2.679,2.272,4.959,2.94,6.369c0.431-1.088,1.111-3.07,2.136-6.681C242.048,110.777,240.332,110.883,238.661,110.958z    M227.163,108.526c0.799,0.185,2.553,0.426,6.277,0.426c0.644,0,1.311-0.006,1.994-0.021c-0.906-2.072-1.722-4.008-2.438-5.781   C229.844,105.862,228.006,107.607,227.163,108.526z M234.706,101.695c0.856,2.145,1.87,4.551,3.024,7.168   c2.16-0.083,4.42-0.22,6.617-0.404c0.649-2.38,1.303-4.918,1.903-7.345c-1.733-1.213-3.726-2.559-5.942-4.011   C238.447,98.585,236.532,100.154,234.706,101.695z M248.116,102.44c-0.483,1.932-0.994,3.913-1.506,5.812   c3.842-0.385,6.16-0.803,7.211-1.098C253.288,106.519,251.874,105.158,248.116,102.44z M231.465,91.473   c0.101,1.053,0.6,3.32,2.424,8.125c1.489-1.248,3.027-2.509,4.538-3.719C235.493,93.982,232.894,92.359,231.465,91.473z    M242.07,95.712c1.719,1.134,3.299,2.199,4.722,3.183c0.886-3.676,1.473-6.363,1.781-7.942   C247.412,91.7,245.349,93.154,242.07,95.712z"/>
	<path style="fill:#241726;" d="M38.211,344.533c-0.144,0-0.482-0.073-0.613-0.129c-1.407-0.595-5.409-3.877-8.027-6.091   c-6.82,4-9.018,4.474-10.079,4.474c-0.966,0-1.445-0.443-1.676-0.815c-0.179-0.291-0.209-0.647-0.081-0.963   c0.019-0.046,1.794-4.408,4.056-9.552c-8.165-7.491-7.952-8.237-7.748-8.961c0.11-0.389,0.534-0.766,0.931-0.84   c0.716-0.133,5.373,0.071,11.106,0.512c3.941-8,5.191-8.678,6.213-8.678c0.396,0,0.767,0.162,1.042,0.456   c0.993,1.057,2.298,5.435,3.278,9.198c10.245,1.138,10.429,1.849,10.641,2.671c0.103,0.397,0.017,0.957-0.533,1.346   c-0.147,0.102-3.505,2.467-7.973,5.402c1.89,9.831,0.972,10.95,0.576,11.433c-0.286,0.347-0.681,0.539-1.114,0.539   C38.211,344.533,38.211,344.533,38.211,344.533z M31.505,337.159c3.188,2.677,5.209,4.212,6.248,4.893   c0.071-1.109-0.084-3.609-0.935-8.231C34.918,335.05,33.139,336.167,31.505,337.159z M23.454,332.97   c-1.396,3.191-2.576,6.01-3.22,7.566c1.056-0.281,3.232-1.15,7.621-3.688C26.383,335.58,24.892,334.266,23.454,332.97z    M24.359,330.917c1.764,1.598,3.621,3.235,5.433,4.789c1.979-1.19,4.19-2.579,6.589-4.14c-0.431-2.12-0.931-4.327-1.465-6.465   c-2.451-0.256-5.061-0.493-7.556-0.695C26.443,326.309,25.437,328.493,24.359,330.917z M37.171,325.35   c0.403,1.645,0.782,3.322,1.125,4.959c2.306-1.525,4.391-2.943,5.814-3.927C42.969,326.132,40.902,325.781,37.171,325.35z    M16.977,323.75c0.938,1.057,2.702,2.854,5.726,5.65c0.841-1.878,1.638-3.609,2.381-5.171   C21.78,323.981,18.799,323.807,16.977,323.75z M28.368,322.35c1.984,0.164,4.021,0.352,5.978,0.551   c-0.998-3.732-1.785-5.953-2.246-6.941C31.56,316.588,30.446,318.205,28.368,322.35z"/>
	<path style="fill:#241726;" d="M74.845,188.02c-0.793,0-1.543,0-3.515-8.312c-6.986-1.439-7.588-2.269-7.791-2.548   c-0.194-0.268-0.274-0.757-0.179-1.075c0.133-0.447,0.44-1.483,8.484-4.603c2.962-7.432,3.932-7.432,4.577-7.432   c0.341,0,0.81,0.248,1.01,0.524c0.505,0.697,0.949,2.496,1.616,5.375c0.21,0.903,0.463,1.991,0.611,2.471   c0.417,0.191,1.335,0.535,2.098,0.82c4.101,1.529,5.157,2.045,5.337,3.031c0.068,0.368-0.126,0.905-0.409,1.15   c-0.846,0.741-4.843,2.165-6.938,2.881c-3.487,7.665-4.212,7.692-4.853,7.719C74.878,188.02,74.86,188.02,74.845,188.02z    M66.259,176.277c1.395,0.42,3.939,1.034,6.16,1.479c0.41,0.081,0.733,0.395,0.828,0.803c0.539,2.313,1.248,4.949,1.764,6.455   c0.795-1.385,2.002-3.842,2.984-6.014c0.122-0.268,0.349-0.476,0.63-0.57c1.911-0.645,4.07-1.439,5.416-2.007   c-0.933-0.408-2.206-0.882-3.031-1.19c-2.332-0.87-2.771-1.059-3.068-1.467c-0.26-0.358-0.416-0.953-0.97-3.337   c-0.208-0.897-0.526-2.272-0.813-3.301c-0.716,1.323-1.72,3.574-2.506,5.569c-0.109,0.277-0.331,0.497-0.609,0.603   C70.56,174.253,67.74,175.474,66.259,176.277z"/>
	<g>
		<path style="fill:#D98011;" d="M386.937,149.537c0,0,1.353-9.504-8.22-20.862c-9.573-11.357-31.605-4.348-31.605-4.348    s-1.224,15.938,7.889,26.335c9.112,10.397,28.994,3.828,28.994,3.828s-4.775,14.686,4.648,20.801c0,0,7.867-14.396,2.245-19.969    c0,0,7.834,1.562,17.08-9.952C407.968,145.369,400.466,138.334,386.937,149.537z"/>
		<path style="fill:#241726;" d="M360.124,147.546c-0.363,0-0.717-0.185-0.916-0.52c-0.301-0.505-0.135-1.159,0.37-1.46    c10.139-6.041,8.154-17.817,8.065-18.316c-0.103-0.578,0.281-1.132,0.859-1.236c0.582-0.106,1.132,0.277,1.237,0.855    c0.025,0.137,2.356,13.719-9.071,20.527C360.498,147.498,360.309,147.546,360.124,147.546z"/>
		<path style="fill:#241726;" d="M358.311,132.843c-0.577,0-1.098-0.243-1.471-0.691c-1.581-1.901-0.315-6.265-0.046-7.12    c0.178-0.562,0.78-0.872,1.335-0.695c0.562,0.177,0.873,0.774,0.697,1.335c-0.609,1.941-0.896,4.46-0.349,5.117    c0.362-0.098,1.957-1.61,3.115-3.189c0.348-0.47,1.016-0.578,1.488-0.229c0.474,0.347,0.577,1.013,0.23,1.487    c-0.673,0.919-3.016,3.923-4.935,3.984C358.354,132.843,358.333,132.843,358.311,132.843z"/>
		<path style="fill:#241726;" d="M352.746,134.805c-0.016,0-0.031,0-0.047,0c-4.62-0.202-6.017-2.902-6.109-4.3    c-0.038-0.587,0.406-1.094,0.992-1.134c0.586-0.04,1.084,0.395,1.132,0.974c0.027,0.235,0.36,2.17,4.077,2.33    c0.588,0.027,1.044,0.524,1.018,1.111C353.784,134.358,353.313,134.805,352.746,134.805z"/>
		<path style="fill:#241726;" d="M372.856,155.193c-2.852,0-6.269-2.373-6.746-2.715c-0.478-0.341-0.589-1.007-0.246-1.485    c0.343-0.474,1.007-0.587,1.486-0.248c1.9,1.358,5.259,2.956,6.429,2.078c0.113-0.085,0.192-0.189,0.215-0.416    c0.122-1.238-1.577-3.753-2.823-5.142c-0.328-0.368-0.362-0.911-0.083-1.317c0.279-0.401,0.795-0.566,1.258-0.389    c3.25,1.248,6.331,1.591,6.711,1.038c0.073-0.668-2.224-2.804-4.736-4.37c-0.449-0.279-0.624-0.847-0.411-1.331    s0.742-0.747,1.26-0.597c1.458,0.406,5.561,1.071,7.026-0.678c0.177-0.21,0.166-0.327,0.137-0.435    c-0.296-1.142-3.319-2.773-5.268-3.515c-0.55-0.21-0.826-0.826-0.617-1.375c0.209-0.549,0.824-0.82,1.374-0.618    c0.978,0.372,5.892,2.361,6.572,4.972c0.216,0.83,0.021,1.639-0.566,2.34c-1.232,1.469-3.219,1.893-5.039,1.914    c1.114,0.996,2.117,2.155,2.337,3.222c0.128,0.616,0.019,1.198-0.317,1.683c-1.048,1.523-3.75,1.29-6.04,0.738    c0.785,1.279,1.469,2.798,1.344,4.071c-0.078,0.788-0.443,1.448-1.056,1.908C374.421,155.003,373.661,155.193,372.856,155.193z"/>
	</g>
	<path style="fill:#FBFCFF;" d="M156.197,368.179c-0.014,0-0.027,0-0.041,0c-22.783-0.855-57.583-1.943-60.104-1.439   c-0.577,0.121-1.138-0.258-1.253-0.834c-0.115-0.578,0.258-1.138,0.835-1.254c3.572-0.711,54.776,1.182,60.601,1.398   c0.589,0.023,1.046,0.518,1.024,1.105C157.24,367.727,156.767,368.179,156.197,368.179z"/>
	<path style="fill:#241726;" d="M35.141,206.968c-0.844,0-1.688-0.044-2.531-0.129c-0.586-0.058-1.012-0.58-0.954-1.165   c0.059-0.585,0.596-1.013,1.166-0.953c1.352,0.135,2.714,0.15,4.067,0.05c0.598-0.031,1.099,0.397,1.142,0.984   c0.045,0.587-0.395,1.096-0.982,1.142C36.414,206.945,35.779,206.968,35.141,206.968z M41.163,206.194   c-0.472,0-0.904-0.316-1.029-0.795c-0.15-0.57,0.19-1.152,0.759-1.3c1.302-0.341,2.588-0.805,3.821-1.379   c0.538-0.254,1.166-0.015,1.416,0.516c0.248,0.535,0.017,1.167-0.517,1.415c-1.349,0.628-2.755,1.136-4.179,1.508   C41.344,206.184,41.253,206.194,41.163,206.194z M28.534,206.065c-0.094,0-0.188-0.012-0.282-0.037   c-1.403-0.385-2.802-0.89-4.159-1.508c-0.535-0.243-0.772-0.874-0.528-1.41c0.242-0.535,0.87-0.772,1.41-0.528   c1.254,0.57,2.546,1.038,3.839,1.392c0.568,0.156,0.902,0.741,0.747,1.308C29.43,205.755,29.002,206.065,28.534,206.065z    M20.8,202.573c-0.198,0-0.398-0.054-0.577-0.171c-1.214-0.784-2.398-1.675-3.521-2.642c-0.445-0.385-0.495-1.057-0.11-1.504   c0.384-0.445,1.057-0.493,1.502-0.11c1.048,0.905,2.154,1.735,3.286,2.467c0.494,0.32,0.635,0.98,0.316,1.473   C21.491,202.402,21.149,202.573,20.8,202.573z M14.362,197.031c-0.292,0-0.583-0.121-0.794-0.356   c-0.965-1.078-1.879-2.236-2.72-3.439c-0.337-0.483-0.219-1.146,0.262-1.483c0.485-0.333,1.148-0.216,1.483,0.264   c0.793,1.134,1.655,2.222,2.562,3.239c0.392,0.439,0.355,1.111-0.084,1.504C14.869,196.942,14.615,197.031,14.362,197.031z    M9.487,190.071c-0.378,0-0.744-0.202-0.936-0.555c-0.686-1.261-1.32-2.586-1.884-3.944c-0.226-0.543,0.032-1.165,0.575-1.392   c0.546-0.221,1.167,0.033,1.393,0.576c0.535,1.288,1.136,2.546,1.786,3.74c0.282,0.518,0.09,1.163-0.425,1.446   C9.833,190.029,9.658,190.071,9.487,190.071z M6.208,182.224c-0.456,0-0.877-0.293-1.018-0.751   c-0.418-1.36-0.784-2.777-1.088-4.216c-0.122-0.576,0.246-1.14,0.822-1.263c0.579-0.117,1.14,0.245,1.263,0.822   c0.29,1.377,0.641,2.733,1.04,4.029c0.173,0.564-0.142,1.159-0.705,1.331C6.417,182.21,6.311,182.224,6.208,182.224z    M4.437,173.904c-0.528,0-0.986-0.391-1.056-0.93c-0.073-0.57-0.136-1.146-0.191-1.729c-0.081-0.84-0.12-1.658-0.12-2.455   c0-0.006,0-0.208,0-0.214c0.009-0.587,0.439-0.98,1.082-1.048c0.588,0.008,1.058,0.493,1.048,1.082l-1.065-0.017l1.065,0.181   c0,0.747,0.036,1.498,0.109,2.269c0.053,0.56,0.114,1.111,0.185,1.66c0.075,0.582-0.338,1.117-0.922,1.192   C4.527,173.902,4.482,173.904,4.437,173.904z M4.592,165.435c-0.074,0-0.15-0.008-0.226-0.025c-0.575-0.123-0.94-0.691-0.816-1.265   c0.319-1.481,0.804-2.91,1.441-4.252c0.253-0.53,0.887-0.757,1.419-0.503c0.531,0.252,0.758,0.886,0.505,1.419   c-0.566,1.192-0.997,2.465-1.282,3.786C5.524,165.094,5.083,165.435,4.592,165.435z M8.205,157.816   c-0.233,0-0.468-0.077-0.665-0.233c-0.46-0.368-0.534-1.038-0.165-1.498c0.91-1.136,1.967-2.205,3.139-3.174   c0.453-0.374,1.124-0.316,1.5,0.141c0.374,0.451,0.312,1.123-0.141,1.498c-1.061,0.88-2.015,1.843-2.835,2.866   C8.827,157.678,8.517,157.816,8.205,157.816z M44.921,157.581c-1.285,0-2.723-0.433-4.275-1.29   c-0.516-0.283-0.703-0.93-0.419-1.446c0.285-0.514,0.933-0.705,1.447-0.418c1.216,0.67,2.339,1.023,3.249,1.023   c0.036,0.01,0.056-0.002,0.082-0.002c0.563,0,1.121,0.426,1.161,0.988c0.041,0.587-0.303,1.092-0.889,1.134   C45.161,157.579,45.066,157.612,44.921,157.581z M48.309,155.066c-0.116,0-0.234-0.019-0.351-0.058   c-0.555-0.193-0.849-0.801-0.655-1.356c0.104-0.3,0.157-0.589,0.156-0.859c0-0.668-0.303-1.288-0.927-1.893   c-0.421-0.41-0.432-1.084-0.021-1.506c0.408-0.422,1.084-0.431,1.506-0.021c1.028,0.998,1.572,2.18,1.572,3.418   c0.001,0.508-0.09,1.034-0.275,1.56C49.162,154.791,48.75,155.066,48.309,155.066z M37.722,153.918   c-0.255,0-0.511-0.092-0.715-0.275c-1.054-0.953-2.074-2.036-3.034-3.22c-0.37-0.456-0.3-1.127,0.157-1.498   c0.46-0.372,1.128-0.3,1.499,0.158c0.89,1.098,1.835,2.101,2.807,2.979c0.436,0.395,0.47,1.067,0.076,1.504   C38.302,153.799,38.012,153.918,37.722,153.918z M14.697,152.378c-0.368,0-0.726-0.191-0.924-0.533   c-0.294-0.51-0.12-1.161,0.39-1.456c1.222-0.703,2.557-1.35,3.966-1.92c0.546-0.216,1.166,0.044,1.386,0.589   s-0.043,1.167-0.588,1.387c-1.319,0.533-2.564,1.134-3.7,1.791C15.06,152.332,14.878,152.378,14.697,152.378z M22.569,149.169   c-0.468,0-0.898-0.312-1.027-0.784c-0.155-0.568,0.18-1.154,0.748-1.308c1.385-0.377,2.822-0.691,4.268-0.93   c0.58-0.104,1.128,0.297,1.224,0.876c0.097,0.58-0.296,1.13-0.877,1.225c-1.375,0.229-2.741,0.526-4.056,0.884   C22.756,149.156,22.661,149.169,22.569,149.169z M43.598,149.114c-0.119,0-0.239-0.019-0.358-0.062   c-1.146-0.408-2.472-0.732-3.941-0.965c-0.581-0.094-0.978-0.639-0.885-1.219c0.092-0.58,0.642-0.963,1.218-0.886   c1.599,0.254,3.054,0.612,4.324,1.065c0.554,0.198,0.842,0.807,0.646,1.36C44.446,148.842,44.036,149.114,43.598,149.114z    M30.964,147.771c-0.555,0-1.023-0.431-1.062-0.994c-0.036-0.541,0.338-1.015,0.857-1.115c-0.497-0.894-0.953-1.81-1.361-2.733   c-0.237-0.539,0.006-1.167,0.544-1.404c0.545-0.237,1.168,0.006,1.405,0.543c0.523,1.186,1.132,2.357,1.809,3.482   c0.266-0.002,0.526-0.004,0.792-0.004c0.441,0,0.881,0.008,1.316,0.023c0.588,0.021,1.047,0.516,1.027,1.102   c-0.021,0.589-0.577,1.036-1.101,1.028c-0.457-0.017-0.912-0.029-1.386-0.023c-0.908,0-1.831,0.031-2.765,0.094   C31.012,147.771,30.988,147.771,30.964,147.771z M28.921,139.56c-0.463,0-0.889-0.304-1.023-0.772   c-0.409-1.431-0.709-2.887-0.893-4.327c-0.074-0.585,0.338-1.117,0.922-1.192c0.591-0.079,1.118,0.339,1.192,0.922   c0.17,1.333,0.449,2.683,0.829,4.011c0.161,0.566-0.166,1.157-0.732,1.317C29.116,139.548,29.018,139.56,28.921,139.56z    M27.867,131.144c-0.014,0-0.027,0-0.041,0c-0.588-0.023-1.046-0.516-1.024-1.105c0.055-1.485,0.239-2.968,0.548-4.406   c0.123-0.576,0.684-0.928,1.265-0.82c0.575,0.125,0.941,0.691,0.818,1.265c-0.282,1.319-0.451,2.677-0.502,4.04   C28.909,130.692,28.437,131.144,27.867,131.144z M29.644,122.852c-0.134,0-0.269-0.025-0.401-0.079   c-0.545-0.22-0.807-0.842-0.586-1.387c0.548-1.346,1.221-2.675,1.999-3.948c0.308-0.501,0.964-0.659,1.464-0.354   c0.502,0.308,0.66,0.963,0.354,1.464c-0.719,1.175-1.34,2.401-1.843,3.64C30.463,122.603,30.065,122.852,29.644,122.852z    M34.046,115.603c-0.24,0-0.482-0.081-0.68-0.248c-0.452-0.374-0.514-1.046-0.137-1.5c0.894-1.073,1.888-2.126,2.953-3.129   l0.793,0.718l0.69,0.813c-1.024,0.965-1.958,1.953-2.798,2.962C34.654,115.472,34.352,115.603,34.046,115.603z M63.042,112.639   c-0.286-0.002-0.557-0.023-0.823-0.06c-0.582-0.083-0.988-0.622-0.906-1.204c0.082-0.58,0.625-0.976,1.203-0.905   c0.381,0.054,0.773,0.052,1.201-0.017c0.727-0.121,1.255-0.42,1.573-0.89c0.328-0.489,0.988-0.616,1.478-0.289   c0.488,0.329,0.617,0.99,0.288,1.479c-0.648,0.963-1.682,1.585-2.991,1.801C63.716,112.612,63.375,112.639,63.042,112.639z    M58.889,110.34c-0.322,0-0.641-0.146-0.85-0.422c-0.825-1.086-1.507-2.477-2.029-4.131c-0.177-0.562,0.135-1.159,0.696-1.335   c0.563-0.175,1.16,0.135,1.337,0.695c0.447,1.421,1.018,2.594,1.694,3.486c0.356,0.468,0.263,1.136-0.205,1.491   C59.34,110.269,59.113,110.34,58.889,110.34z M40.171,109.695c-0.309,0-0.616-0.133-0.826-0.391   c-0.372-0.456-0.305-1.127,0.151-1.5c1.169-0.955,2.338-1.833,3.475-2.611c0.488-0.335,1.148-0.208,1.481,0.277   c0.332,0.485,0.208,1.148-0.277,1.479c-1.088,0.745-2.209,1.589-3.331,2.507C40.646,109.616,40.407,109.695,40.171,109.695z    M66.178,107.147c-0.401,0-0.785-0.227-0.966-0.616c-0.488-1.044-1.321-1.991-2.411-2.735c-0.486-0.333-0.611-0.996-0.278-1.481   c0.332-0.485,0.994-0.607,1.48-0.279c1.404,0.961,2.49,2.205,3.139,3.597c0.249,0.533,0.018,1.167-0.515,1.415   C66.482,107.116,66.329,107.147,66.178,107.147z M47.212,104.928c-0.382,0-0.751-0.206-0.942-0.568   c-0.276-0.52-0.077-1.163,0.443-1.439c1.373-0.726,2.734-1.323,4.048-1.774c0.559-0.191,1.162,0.104,1.353,0.659   c0.191,0.557-0.104,1.163-0.66,1.354c-1.21,0.416-2.469,0.969-3.744,1.645C47.55,104.888,47.38,104.928,47.212,104.928z    M59.487,102.381c-0.067,0-0.135-0.006-0.204-0.019c-0.793-0.154-1.637-0.237-2.486-0.212c-0.146,0.11-0.32,0.185-0.514,0.208   c-0.242,0.037-0.478-0.023-0.674-0.141c-0.081,0.008-0.162,0.017-0.244,0.027c-0.589,0.05-1.112-0.356-1.177-0.938   c-0.06-0.53,0.278-1.013,0.776-1.148c-0.081-0.976-0.122-1.987-0.122-3.022c0-0.589,0.476-1.109,1.065-1.109   c0.589,0,1.065,0.435,1.065,1.023v0.085c0,0.99,0.04,1.955,0.118,2.883c0.891,0.006,1.765,0.092,2.599,0.252   c0.577,0.112,0.955,0.672,0.842,1.248C60.433,102.028,59.988,102.381,59.487,102.381z M56.141,93.861   c-0.036,0-0.073-0.002-0.11-0.006c-0.586-0.06-1.011-0.582-0.951-1.167c0.147-1.417,0.364-2.864,0.647-4.31   c0.113-0.576,0.671-0.959,1.25-0.838c0.577,0.112,0.954,0.672,0.84,1.25c-0.271,1.379-0.479,2.765-0.618,4.115   C57.142,93.453,56.68,93.861,56.141,93.861z M57.771,85.513c-0.098,0-0.197-0.012-0.294-0.042c-0.566-0.162-0.892-0.751-0.73-1.317   c0.398-1.392,0.861-2.779,1.376-4.129c0.211-0.551,0.831-0.822,1.375-0.614c0.55,0.21,0.825,0.824,0.616,1.375   c-0.494,1.292-0.937,2.623-1.32,3.954C58.661,85.21,58.234,85.513,57.771,85.513z M60.808,77.559c-0.156,0-0.315-0.035-0.465-0.108   c-0.529-0.258-0.749-0.894-0.492-1.423l0.248-0.501c0.594-1.188,1.241-2.305,1.924-3.326c0.328-0.487,0.989-0.622,1.478-0.291   c0.489,0.327,0.619,0.988,0.292,1.477c-0.633,0.946-1.236,1.987-1.789,3.093l-0.237,0.481   C61.582,77.338,61.204,77.559,60.808,77.559z M65.569,70.542c-0.267,0-0.535-0.1-0.742-0.302c-0.422-0.41-0.433-1.084-0.023-1.506   c1.066-1.098,2.225-2.064,3.443-2.866c0.488-0.329,1.151-0.191,1.475,0.302c0.325,0.491,0.189,1.15-0.302,1.475   c-1.089,0.72-2.128,1.585-3.087,2.575C66.124,70.434,65.847,70.542,65.569,70.542z M72.629,65.912   c-0.435,0-0.844-0.268-1.001-0.701c-0.202-0.553,0.084-1.165,0.637-1.365c1.391-0.505,2.862-0.853,4.376-1.032   c0.586-0.094,1.114,0.345,1.184,0.932c0.07,0.582-0.348,1.113-0.932,1.182c-1.351,0.16-2.663,0.47-3.899,0.919   C72.872,65.891,72.75,65.912,72.629,65.912z M85.192,65.706c-0.121,0-0.242-0.021-0.362-0.064   c-0.015-0.004-1.572-0.557-3.903-0.763c-0.586-0.052-1.019-0.568-0.967-1.154c0.052-0.585,0.555-1.009,1.154-0.967   c2.63,0.233,4.37,0.857,4.443,0.884c0.552,0.2,0.836,0.811,0.637,1.363C86.037,65.436,85.628,65.706,85.192,65.706z"/>
	<path style="fill:#241726;" d="M469.634,306.156c-0.409,0-0.799-0.237-0.975-0.634c-0.238-0.537,0.005-1.167,0.543-1.404   c1.242-0.549,2.49-1.182,3.71-1.878c0.51-0.293,1.162-0.114,1.453,0.395c0.292,0.51,0.114,1.161-0.396,1.452   c-1.282,0.734-2.596,1.4-3.906,1.978C469.925,306.127,469.778,306.156,469.634,306.156z M477.035,301.93   c-0.332,0-0.659-0.154-0.867-0.445c-0.342-0.478-0.232-1.144,0.246-1.485c1.14-0.815,2.231-1.687,3.242-2.59   c0.438-0.391,1.113-0.354,1.504,0.085c0.392,0.439,0.354,1.113-0.085,1.504c-1.068,0.953-2.219,1.872-3.421,2.731   C477.465,301.865,477.249,301.93,477.035,301.93z M483.374,296.255c-0.252,0-0.504-0.089-0.707-0.268   c-0.44-0.391-0.479-1.063-0.089-1.504c0.922-1.038,1.774-2.132,2.536-3.249c0.332-0.487,0.994-0.612,1.479-0.281   c0.487,0.331,0.613,0.992,0.281,1.479c-0.811,1.194-1.721,2.359-2.702,3.466C483.961,296.134,483.667,296.255,483.374,296.255z    M488.148,289.232c-0.159,0-0.321-0.035-0.474-0.112c-0.526-0.262-0.741-0.901-0.478-1.427c0.614-1.231,1.146-2.509,1.585-3.796   c0.188-0.555,0.792-0.849,1.351-0.666c0.556,0.189,0.855,0.795,0.665,1.352c-0.468,1.377-1.038,2.744-1.693,4.058   C488.916,289.016,488.539,289.232,488.148,289.232z M490.883,281.197c-0.069,0-0.138-0.006-0.208-0.021   c-0.577-0.114-0.952-0.674-0.837-1.252c0.261-1.317,0.444-2.69,0.544-4.083c0.042-0.587,0.553-1.034,1.138-0.986   c0.587,0.042,1.029,0.551,0.986,1.14c-0.105,1.479-0.301,2.941-0.579,4.345C491.827,280.845,491.382,281.197,490.883,281.197z    M491.505,272.728c-0.569,0-1.041-0.449-1.063-1.023c-0.031-0.805-0.088-1.629-0.173-2.469c-0.055-0.557-0.124-1.109-0.205-1.656   c-0.086-0.582,0.316-1.123,0.898-1.211c0.59-0.067,1.124,0.318,1.21,0.899c0.085,0.58,0.158,1.165,0.217,1.756   c0.088,0.886,0.148,1.751,0.181,2.598c0.023,0.589-0.435,1.084-1.022,1.107C491.533,272.728,491.52,272.728,491.505,272.728z    M490.248,264.322c-0.469,0-0.899-0.312-1.027-0.786c-0.357-1.315-0.797-2.636-1.308-3.923c-0.218-0.545,0.049-1.165,0.595-1.383   c0.55-0.212,1.167,0.05,1.383,0.597c0.543,1.362,1.009,2.76,1.385,4.152c0.154,0.568-0.182,1.152-0.75,1.306   C490.434,264.31,490.34,264.322,490.248,264.322z M487.111,256.422c-0.382,0-0.75-0.206-0.941-0.566   c-0.638-1.2-1.356-2.396-2.136-3.553c-0.329-0.487-0.2-1.15,0.288-1.479c0.485-0.329,1.148-0.2,1.478,0.289   c0.822,1.219,1.579,2.477,2.251,3.744c0.277,0.52,0.079,1.163-0.441,1.439C487.45,256.382,487.279,256.422,487.111,256.422z    M482.364,249.364c-0.307,0-0.611-0.131-0.821-0.385c-0.877-1.059-1.821-2.091-2.805-3.068c-0.418-0.414-0.42-1.088-0.006-1.506   c0.415-0.418,1.091-0.416,1.506-0.004c1.034,1.026,2.024,2.107,2.944,3.218c0.375,0.453,0.313,1.125-0.139,1.5   C482.844,249.283,482.603,249.364,482.364,249.364z M455.394,247.831c-0.455,0-0.875-0.291-1.017-0.749   c-0.175-0.562,0.139-1.159,0.701-1.333c1.084-0.337,2.26-0.938,3.498-1.787c0.486-0.333,1.149-0.208,1.48,0.275   c0.333,0.487,0.21,1.148-0.276,1.481c-1.412,0.969-2.782,1.664-4.07,2.066C455.605,247.816,455.498,247.831,455.394,247.831z    M451.295,247.569c-0.215,0-0.432-0.064-0.62-0.2c-0.876-0.628-1.929-1.947-1.975-4.653c-0.009-0.589,0.459-1.073,1.047-1.084   c0.005,0,0.011,0,0.018,0c0.58,0,1.055,0.466,1.065,1.046c0.017,1.007,0.219,2.338,1.087,2.96c0.478,0.343,0.588,1.009,0.244,1.487   C451.953,247.415,451.627,247.569,451.295,247.569z M476.327,243.363c-0.238,0-0.477-0.079-0.676-0.243   c-1.071-0.88-2.192-1.716-3.333-2.482c-0.489-0.327-0.619-0.988-0.291-1.477c0.327-0.487,0.989-0.62,1.477-0.291   c1.199,0.803,2.377,1.681,3.502,2.606c0.453,0.372,0.519,1.044,0.146,1.498C476.94,243.229,476.635,243.363,476.327,243.363z    M462.456,243.186c-0.277,0-0.553-0.106-0.761-0.32c-0.412-0.42-0.404-1.094,0.017-1.506c0.958-0.936,1.88-1.97,2.742-3.072   c0.36-0.462,1.028-0.551,1.495-0.183c0.464,0.362,0.546,1.03,0.184,1.494c-0.919,1.177-1.905,2.282-2.931,3.285   C462.994,243.084,462.724,243.186,462.456,243.186z M450.371,239.56c-0.113,0-0.229-0.019-0.342-0.056   c-0.556-0.189-0.855-0.793-0.667-1.35c0.563-1.66,1.603-2.943,3.093-3.813c0.509-0.297,1.162-0.123,1.456,0.383   c0.296,0.508,0.126,1.161-0.383,1.456c-1.033,0.603-1.756,1.498-2.149,2.656C451.229,239.281,450.815,239.56,450.371,239.56z    M469.256,238.63c-0.168,0-0.339-0.04-0.498-0.125c-1.248-0.661-2.512-1.238-3.757-1.716c-0.55-0.21-0.825-0.826-0.614-1.375   c0.211-0.549,0.831-0.824,1.375-0.614c0.302,0.114,0.604,0.237,0.907,0.362c0.025-0.094,0.063-0.187,0.116-0.277   c0.71-1.188,1.35-2.421,1.901-3.665c0.238-0.537,0.868-0.782,1.405-0.543c0.538,0.237,0.78,0.867,0.542,1.404   c-0.586,1.325-1.266,2.636-2.02,3.898c-0.01,0.017-0.02,0.031-0.031,0.048c0.392,0.191,0.783,0.389,1.173,0.597   c0.519,0.275,0.718,0.919,0.442,1.439C470.007,238.424,469.638,238.63,469.256,238.63z M461.304,235.641   c-0.072,0-0.145-0.006-0.217-0.023c-1.217-0.252-2.365-0.381-3.415-0.381l-0.557,0.015c-0.566,0.029-1.084-0.431-1.109-1.019   c-0.025-0.589,0.432-1.086,1.019-1.111l0.637-0.015c1.204,0,2.499,0.144,3.858,0.426c0.576,0.119,0.946,0.682,0.827,1.258   C462.242,235.296,461.799,235.641,461.304,235.641z M471.137,228.722c-0.101,0-0.203-0.015-0.305-0.044   c-0.564-0.168-0.884-0.761-0.716-1.325c0.394-1.325,0.703-2.675,0.915-4.015c0.09-0.58,0.639-0.974,1.218-0.886   c0.581,0.094,0.978,0.639,0.885,1.219c-0.227,1.433-0.555,2.877-0.978,4.289C472.02,228.425,471.596,228.722,471.137,228.722z    M472.459,220.331c-0.005,0-0.011,0-0.018,0c-0.588-0.01-1.057-0.495-1.047-1.082l0.005-0.555   c-0.001-1.184-0.074-2.378-0.216-3.549c-0.072-0.585,0.344-1.115,0.928-1.186c0.586-0.092,1.114,0.343,1.186,0.928   c0.154,1.254,0.232,2.536,0.233,3.807l-0.005,0.589C473.515,219.865,473.04,220.331,472.459,220.331z M471.429,211.902   c-0.471,0-0.903-0.316-1.029-0.793c-0.362-1.371-0.792-2.694-1.276-3.932c-0.214-0.549,0.056-1.167,0.604-1.381   c0.544-0.214,1.165,0.056,1.38,0.603c0.514,1.315,0.968,2.715,1.351,4.164c0.15,0.57-0.189,1.152-0.758,1.302   C471.611,211.892,471.519,211.902,471.429,211.902z M438.773,207.75c-0.04,0-0.08-0.002-0.121-0.006   c-2.052-0.233-3.458-1.585-3.761-3.617c-0.086-0.58,0.315-1.123,0.897-1.209c0.591-0.092,1.124,0.312,1.211,0.897   c0.163,1.094,0.782,1.687,1.893,1.812c0.585,0.067,1.005,0.595,0.938,1.179C439.769,207.349,439.308,207.75,438.773,207.75z    M442.879,206.841c-0.393,0-0.771-0.218-0.956-0.595c-0.261-0.526-0.044-1.165,0.484-1.425c1.109-0.547,2.19-1.311,3.216-2.267   c0.427-0.399,1.105-0.377,1.505,0.05c0.401,0.431,0.379,1.105-0.051,1.506c-1.177,1.1-2.432,1.982-3.728,2.621   C443.198,206.806,443.038,206.841,442.879,206.841z M468.301,204.008c-0.371,0-0.732-0.193-0.928-0.541   c-0.692-1.221-1.462-2.353-2.291-3.364c-0.373-0.456-0.306-1.127,0.149-1.5c0.453-0.374,1.125-0.308,1.499,0.15   c0.906,1.105,1.746,2.338,2.497,3.665c0.29,0.512,0.11,1.161-0.401,1.452C468.659,203.964,468.479,204.008,468.301,204.008z    M449.095,201.152c-0.204,0-0.411-0.058-0.593-0.181c-0.489-0.329-0.618-0.99-0.29-1.479c0.736-1.094,1.375-2.294,1.898-3.563   c0.224-0.545,0.849-0.809,1.391-0.578c0.544,0.223,0.803,0.847,0.579,1.39c-0.578,1.402-1.284,2.727-2.1,3.942   C449.774,200.987,449.438,201.152,449.095,201.152z M436.714,200.908c-0.156,0-0.314-0.033-0.464-0.106   c-0.529-0.258-0.75-0.894-0.493-1.423c0.643-1.329,1.598-2.565,2.837-3.678c0.436-0.395,1.11-0.36,1.504,0.081   c0.393,0.439,0.357,1.111-0.081,1.504c-1.033,0.928-1.821,1.943-2.344,3.02C437.49,200.688,437.109,200.908,436.714,200.908z    M462.896,197.489c-0.234,0-0.471-0.077-0.668-0.237c-1.054-0.849-2.19-1.575-3.379-2.155c-0.528-0.258-0.748-0.897-0.49-1.425   c0.258-0.526,0.902-0.745,1.424-0.489c1.332,0.651,2.605,1.462,3.783,2.413c0.458,0.368,0.529,1.038,0.16,1.498   C463.516,197.353,463.207,197.489,462.896,197.489z M442.844,195.211c-0.394,0-0.774-0.221-0.958-0.599   c-0.258-0.528-0.038-1.165,0.49-1.423c1.324-0.647,2.752-1.146,4.245-1.485c0.57-0.139,1.143,0.229,1.274,0.801   c0.131,0.574-0.228,1.144-0.802,1.275c-1.333,0.304-2.605,0.749-3.783,1.323C443.159,195.175,443,195.211,442.844,195.211z    M455.308,193.794c-0.078,0-0.157-0.008-0.236-0.027c-1.282-0.289-2.609-0.437-3.939-0.437c-0.589,0-1.092-0.478-1.092-1.067   c0-0.628,0.58-1.15,1.217-1.055c0.069-0.006,0.145-0.006,0.216,0c0.186-1.042,0.31-2.12,0.367-3.212   c0.031-0.587,0.54-1.096,1.12-1.007c0.588,0.031,1.038,0.533,1.008,1.119c-0.059,1.1-0.179,2.186-0.358,3.243   c0.643,0.081,1.291,0.193,1.93,0.339c0.574,0.129,0.934,0.699,0.804,1.273C456.234,193.459,455.795,193.794,455.308,193.794z    M452.831,184.866c-0.548,0-1.014-0.42-1.06-0.976c-0.112-1.333-0.313-2.708-0.596-4.09c-0.119-0.576,0.253-1.14,0.829-1.259   c0.579-0.119,1.14,0.254,1.257,0.83c0.301,1.464,0.513,2.925,0.631,4.339c0.05,0.587-0.386,1.102-0.971,1.15   C452.891,184.864,452.861,184.866,452.831,184.866z M451.151,176.527c-0.455,0-0.876-0.293-1.017-0.749   c-0.287-0.924-0.614-1.868-0.981-2.833c-0.14-0.37-0.283-0.732-0.427-1.09c-0.22-0.545,0.042-1.165,0.587-1.385   c0.54-0.223,1.165,0.042,1.387,0.587c0.151,0.37,0.3,0.749,0.445,1.134c0.383,1.005,0.724,1.991,1.023,2.956   c0.175,0.562-0.139,1.159-0.701,1.333C451.362,176.512,451.255,176.527,451.151,176.527z M447.949,168.647   c-0.387,0-0.76-0.212-0.949-0.58c-0.656-1.279-1.356-2.484-2.081-3.576c-0.325-0.491-0.19-1.152,0.3-1.477   c0.49-0.322,1.151-0.193,1.477,0.3c0.768,1.159,1.508,2.432,2.2,3.784c0.268,0.522,0.061,1.165-0.462,1.433   C448.277,168.61,448.112,168.647,447.949,168.647z M443.219,161.589c-0.292,0-0.585-0.121-0.795-0.356   c-0.931-1.044-1.925-1.978-2.956-2.777c-0.464-0.362-0.549-1.03-0.188-1.496c0.36-0.462,1.029-0.547,1.495-0.189   c1.132,0.88,2.222,1.903,3.239,3.043c0.392,0.439,0.354,1.113-0.086,1.504C443.724,161.5,443.471,161.589,443.219,161.589z    M416.069,158.011c-0.356,0-0.703-0.179-0.906-0.501c-0.31-0.499-0.159-1.154,0.339-1.467c0.064-0.04,1.597-0.99,4.056-1.899   c0.551-0.208,1.165,0.077,1.368,0.628c0.205,0.553-0.077,1.165-0.629,1.369c-2.24,0.828-3.653,1.699-3.666,1.71   C416.455,157.959,416.261,158.011,416.069,158.011z M436.509,156.441c-0.154,0-0.31-0.033-0.458-0.104   c-1.204-0.574-2.479-1.009-3.788-1.294c-0.574-0.123-0.939-0.691-0.815-1.265c0.125-0.576,0.694-0.938,1.267-0.815   c1.47,0.318,2.901,0.807,4.254,1.452c0.53,0.254,0.756,0.888,0.502,1.421C437.289,156.218,436.907,156.441,436.509,156.441z    M424.025,155.055c-0.5,0-0.946-0.354-1.044-0.863c-0.112-0.578,0.265-1.136,0.844-1.248c1.492-0.287,2.983-0.437,4.431-0.443   c0.001,0,0.003,0,0.004,0c0.587,0,1.063,0.474,1.065,1.061c0.002,0.589-0.472,1.067-1.061,1.069   c-1.315,0.006-2.673,0.141-4.036,0.406C424.16,155.049,424.091,155.055,424.025,155.055z"/>
	<path style="fill:#241726;" d="M170.779,383.597c-0.524,0-0.981-0.387-1.054-0.919l-2.146-15.555   c-0.081-0.582,0.327-1.121,0.909-1.2c0.585-0.081,1.121,0.327,1.2,0.909l2.146,15.555c0.081,0.582-0.327,1.121-0.909,1.2   C170.876,383.593,170.827,383.597,170.779,383.597z"/>
	<g>
		<path style="fill:#D98011;" d="M105.289,47.356c0,0-1.353-9.504,8.22-20.862s31.605-4.348,31.605-4.348s1.224,15.938-7.889,26.335    s-28.994,3.828-28.994,3.828s4.775,14.686-4.648,20.801c0,0-7.867-14.396-2.245-19.969c0,0-7.834,1.562-17.08-9.952    C84.258,43.189,91.76,36.154,105.289,47.356z"/>
		<path style="fill:#241726;" d="M132.102,45.364c-0.185,0-0.373-0.048-0.544-0.15c-11.426-6.806-9.096-20.388-9.071-20.525    c0.105-0.578,0.665-0.965,1.237-0.855c0.578,0.104,0.962,0.657,0.859,1.236c-0.089,0.499-2.074,12.275,8.065,18.314    c0.505,0.302,0.671,0.955,0.37,1.46C132.818,45.179,132.465,45.364,132.102,45.364z"/>
		<path style="fill:#241726;" d="M133.915,30.664c-0.022,0-0.043,0-0.064,0c-1.919-0.06-4.262-3.064-4.935-3.984    c-0.347-0.474-0.244-1.14,0.23-1.487c0.471-0.349,1.139-0.243,1.488,0.229c1.158,1.579,2.753,3.091,3.284,3.112    c0.43-0.643,0.014-3.357-0.518-5.04c-0.177-0.562,0.135-1.159,0.696-1.335c0.557-0.175,1.16,0.135,1.337,0.695    c0.269,0.855,1.535,5.219-0.046,7.118C135.013,30.42,134.492,30.664,133.915,30.664z"/>
		<path style="fill:#241726;" d="M139.48,32.625c-0.567,0-1.038-0.447-1.063-1.019c-0.026-0.587,0.431-1.084,1.018-1.111    c3.889-0.168,4.074-2.29,4.075-2.311c0.04-0.587,0.554-1.055,1.134-0.992c0.587,0.04,1.031,0.547,0.992,1.134    c-0.093,1.398-1.489,4.098-6.109,4.3C139.511,32.625,139.496,32.625,139.48,32.625z"/>
		<path style="fill:#241726;" d="M119.37,53.013c-0.805,0-1.565-0.189-2.201-0.668c-0.613-0.46-0.979-1.119-1.056-1.908    c-0.126-1.275,0.557-2.794,1.344-4.073c-2.288,0.549-4.99,0.786-6.041-0.736c-0.336-0.485-0.445-1.067-0.317-1.683    c0.22-1.067,1.223-2.224,2.337-3.222c-1.82-0.021-3.807-0.445-5.038-1.914c-0.588-0.701-0.783-1.512-0.566-2.342    c0.681-2.611,5.594-4.597,6.571-4.97c0.552-0.204,1.165,0.069,1.374,0.618c0.209,0.549-0.068,1.165-0.617,1.375    c-1.948,0.741-4.971,2.371-5.268,3.513c-0.028,0.11-0.038,0.227,0.138,0.437c1.461,1.747,5.664,1.055,7.024,0.678    c0.505-0.144,1.046,0.11,1.261,0.597c0.213,0.483,0.038,1.053-0.411,1.331c-2.751,1.718-4.8,3.773-4.727,4.395    c0.415,0.593,3.74,0.075,6.701-1.065c0.458-0.179,0.98-0.017,1.258,0.389c0.28,0.406,0.245,0.949-0.082,1.315    c-1.245,1.394-2.944,3.913-2.822,5.148c0.022,0.225,0.102,0.329,0.215,0.414c1.17,0.88,4.53-0.72,6.43-2.078    c0.476-0.339,1.142-0.229,1.485,0.248c0.342,0.478,0.232,1.144-0.246,1.485C125.64,50.639,122.222,53.013,119.37,53.013z"/>
	</g>
	<g>
		<path style="fill:#E17B8D;" d="M59.113,382.445c0,0,328.656-2.711,334.322,0s38.249,93.513,35.415,97.578    c-2.833,4.066-406.57,2.711-406.57-2.711C22.281,471.892,59.113,382.445,59.113,382.445z"/>
		<g>
			<path style="fill:#DF4F3E;" d="M115.943,407.657c0,0,4.59-18.488,30.151-16.358c25.561,2.13,40.112,36.972,10.291,48.688     S104.228,432.153,115.943,407.657z"/>
			<path style="fill:#52AFA6;" d="M121.717,396.431c0,0-8.66-7.377-6.736-9.623s7.377-8.019,8.019-4.491     c0.642,3.528,2.566,9.302,2.566,9.302s13.472-6.736,20.528-0.321c7.057,6.415-10.585,0-8.66,3.528     c1.925,3.528,11.868,8.981,8.019,11.868s-17-4.17-17-4.17s1.283,13.472-0.962,13.792c-2.245,0.321-7.377-8.66-7.377-8.66     s-6.415,15.075-7.698,8.66C111.132,409.903,116.905,398.035,121.717,396.431z"/>
			<path style="fill:#241726;" d="M168.226,417.383c-0.008,0-0.017,0-0.025,0c-0.589-0.015-1.054-0.501-1.04-1.09     c0.297-12.483-16.037-16.864-16.202-16.905c-0.569-0.148-0.911-0.73-0.763-1.3c0.147-0.568,0.729-0.913,1.298-0.763     c0.181,0.048,18.134,4.868,17.798,19.019C169.276,416.923,168.803,417.383,168.226,417.383z"/>
		</g>
		<g>
			<path style="fill:#FFFFFF;" d="M119.025,434.818c0,0,15.009-0.968,15.493,0.363s11.741,30.865,8.715,33.286     s-25.66,2.905-29.776,0.484C109.342,466.531,117.936,434.213,119.025,434.818z"/>
			<path style="fill:#1A1F36;" d="M114.426,423.441c0,0,22.173-2.758,23.636,0.166c1.462,2.924-2.081,9.382-3.543,11.575     c0,0-10.714,1.585-14.735,0.854C115.762,435.304,107.846,423.806,114.426,423.441z"/>
			<path style="fill:#FFFFFF;" d="M118.73,425.577c0,0,1.946-0.681,2.628,0.389c0.681,1.07-1.362,1.849-2.433,1.168     C117.855,426.453,117.66,425.674,118.73,425.577z"/>
			<path style="fill:#FFFFFF;" d="M124.782,424.246c0,0,1.946-0.681,2.628,0.389s-1.362,1.849-2.433,1.168     C123.907,425.121,123.712,424.343,124.782,424.246z"/>
			<path style="fill:#FFFFFF;" d="M121.635,428.482c0,0,1.946-0.681,2.628,0.389c0.681,1.07-1.362,1.849-2.433,1.168     C120.76,429.358,120.565,428.579,121.635,428.482z"/>
			<path style="fill:#FFFFFF;" d="M128.293,428.724c0,0,1.946-0.681,2.628,0.389c0.681,1.07-1.362,1.849-2.433,1.168     C127.417,429.6,127.222,428.821,128.293,428.724z"/>
			<path style="fill:#FFFFFF;" d="M131.198,426.061c0,0,1.946-0.681,2.628,0.389c0.681,1.07-1.362,1.849-2.433,1.168     C130.322,426.937,130.127,426.159,131.198,426.061z"/>
			<path style="fill:#241726;" d="M138.445,461.193c-0.452,0-0.872-0.289-1.015-0.745c-1.404-4.441-5.034-18.724-5.188-19.329     c-0.145-0.57,0.201-1.15,0.771-1.294c0.568-0.148,1.148,0.198,1.294,0.77c0.038,0.148,3.769,14.827,5.154,19.212     c0.178,0.56-0.133,1.159-0.695,1.335C138.66,461.176,138.551,461.193,138.445,461.193z"/>
		</g>
		<g>
			<path style="fill:#FFFFFF;" d="M182.012,435.472c0,0,0.968,15.009-0.363,15.493s-30.865,11.741-33.286,8.715     c-2.421-3.026-2.905-25.66-0.484-29.776S182.618,434.382,182.012,435.472z"/>
			<path style="fill:#1A1F36;" d="M193.39,430.872c0,0,2.758,22.173-0.166,23.636s-9.382-2.081-11.575-3.543     c0,0-1.585-10.714-0.854-14.735C181.526,432.209,193.025,424.292,193.39,430.872z"/>
			<path style="fill:#FFFFFF;" d="M191.254,435.177c0,0,0.681,1.946-0.389,2.628c-1.07,0.681-1.849-1.362-1.168-2.433     C190.378,434.301,191.156,434.106,191.254,435.177z"/>
			<path style="fill:#FFFFFF;" d="M192.585,441.229c0,0,0.681,1.946-0.389,2.628c-1.07,0.681-1.849-1.362-1.168-2.433     C191.709,440.353,192.488,440.158,192.585,441.229z"/>
			<path style="fill:#FFFFFF;" d="M188.349,438.082c0,0,0.681,1.946-0.389,2.628s-1.849-1.362-1.168-2.433     C187.473,437.206,188.251,437.011,188.349,438.082z"/>
			<path style="fill:#FFFFFF;" d="M188.107,444.739c0,0,0.681,1.946-0.389,2.628c-1.07,0.681-1.849-1.362-1.168-2.433     C187.231,443.863,188.009,443.669,188.107,444.739z"/>
			<path style="fill:#FFFFFF;" d="M190.769,447.644c0,0,0.681,1.946-0.389,2.628c-1.07,0.681-1.849-1.362-1.168-2.433     C189.894,446.768,190.672,446.574,190.769,447.644z"/>
			<path style="fill:#241726;" d="M156.703,455.957c-0.452,0-0.873-0.289-1.015-0.745c-0.178-0.56,0.133-1.159,0.695-1.335     c4.442-1.404,18.723-5.034,19.328-5.188c0.561-0.15,1.149,0.198,1.294,0.77c0.146,0.57-0.2,1.15-0.77,1.294     c-0.148,0.037-14.825,3.769-19.211,5.155C156.917,455.941,156.809,455.957,156.703,455.957z"/>
		</g>
		<g>
			<path style="fill:#1A1F36;" d="M214.418,398.356c0,0,160.467-5.68,164.727,1.42c4.26,7.1,14.201,68.163,14.201,68.163     s-193.128,2.84-194.548-4.26C197.378,456.578,214.418,398.356,214.418,398.356z"/>
			<path style="fill:#FBFCFF;" d="M338.876,450.794c-2.613,0-5.352-0.131-8.141-0.391c-24.818-2.309-29.499-12.824-30.08-18.888     c-0.91-9.5,7.373-20.167,18.088-23.294c0.296-0.127,9.884-4.006,21.221-4.006c11.375,0,20.222,3.85,26.295,11.441     c6.097,7.622,7.777,15.31,4.731,21.648C366.931,445.75,354.925,450.794,338.876,450.794z M339.964,406.345     c-10.922,0-20.423,3.846-20.518,3.886c-9.905,2.894-17.49,12.531-16.67,21.08c0.518,5.408,4.866,14.805,28.157,16.97     c2.723,0.254,5.396,0.383,7.943,0.383c15.21,0,26.498-4.593,30.195-12.283c2.672-5.558,1.083-12.446-4.475-19.393     C358.947,409.925,350.66,406.345,339.964,406.345z"/>
			<path style="fill:#FBFCFF;" d="M253.673,450.794c-2.613,0-5.352-0.131-8.141-0.391c-24.818-2.309-29.499-12.824-30.08-18.888     c-0.91-9.5,7.373-20.167,18.088-23.294c0.296-0.127,9.884-4.006,21.221-4.006c11.375,0,20.222,3.85,26.295,11.441     c6.097,7.622,7.777,15.31,4.731,21.648C281.727,445.75,269.721,450.794,253.673,450.794z M254.761,406.345     c-10.922,0-20.423,3.846-20.518,3.886c-9.905,2.894-17.49,12.531-16.67,21.08c0.518,5.408,4.866,14.805,28.157,16.97     c2.723,0.254,5.396,0.383,7.943,0.383c15.21,0,26.498-4.593,30.195-12.283c2.672-5.558,1.083-12.446-4.475-19.393     C273.743,409.925,265.456,406.345,254.761,406.345z"/>
			<g>
				<path style="fill:#DF4F3E;" d="M312.85,415.827c0,0-1.179,17.1,28.008,16.51c25.377-0.513,22.701-26.239,16.805-40.096      c-5.896-13.857-13.857,2.064-13.857,2.064s-0.295-18.869-8.55-22.407c-4.486-1.922-8.845,22.112-8.845,22.112      s-2.948-6.191-7.076-3.538C315.209,393.125,310.492,407.572,312.85,415.827z"/>
				<path style="fill:#E9B600;" d="M336.141,426.441c0,0-5.896,0.295-8.845-7.96s3.243-18.869,5.896-18.574      c2.653,0.295,5.307,9.14,5.307,9.14s-0.295-10.614,4.422-6.486C347.64,406.687,352.652,427.325,336.141,426.441z"/>
			</g>
		</g>
		<g>
			<path style="fill:#E38B72;" d="M184.42,191.31c0,0-9.011,23.278,0.751,39.799s38.887,5.664,25.653,31.354     c-12.533,24.328-90.827-7.262-82.567-13.27s13.648-9.964,14.399-14.47c0.751-4.506-2.54-45.665-2.54-45.665L184.42,191.31z"/>
			<path style="fill:#52AFA6;" d="M264.121,208.778c-5.325-7.455-74.553,26.626-74.553,26.626     c-1.624,0.165,9.585,21.301,1.065,27.691c-8.52,6.39-53.252-25.561-53.252-25.561s-21.689,5.761-35.39,13.849     c-13.937,7.528-26.884,22.624-20.782,38.894c2.02,5.387,5.226,11.795,9.044,18.287c-3.354,33.212-7.426,73.145,6.656,73.816     c22.366,1.065,157.627,0,157.627,0s-0.967-56.551-5.832-95.414c17.941-8.525,37.831-20.771,40.978-27.066     C295.007,249.249,269.446,216.233,264.121,208.778z"/>
			<path style="fill:#DF4F3E;" d="M360.685,227.948c0,0,28.401-4.97,42.602-22.721s26.271,19.171,17.041,24.141     C411.097,234.339,345.064,237.889,360.685,227.948z"/>
			<path style="fill:#E38B72;" d="M117.517,114.72c0,0,43.821-28.944,65.971-9.579c9.455,8.267,30.911,71.201,17.738,87.643     c-11.586,14.462-23.716,13.732-29.442,15.171c-41.609,10.459-49.635-27.868-49.635-27.868S95.172,122.366,117.517,114.72z"/>
			<path style="fill:#241726;" d="M149.003,170.54c-2.552,0-9.316-7.586-13.135-12.125c-0.379-0.451-0.32-1.123,0.13-1.502     c0.449-0.383,1.12-0.32,1.501,0.129c4.126,4.907,9.279,10.276,11.124,11.227c0.244-1.955-1.144-8.772-2.731-14.54     c-0.156-0.568,0.177-1.154,0.744-1.311c0.566-0.152,1.153,0.177,1.309,0.745c1.488,5.404,3.764,14.769,2.291,16.766     c-0.28,0.379-0.703,0.597-1.192,0.612C149.03,170.54,149.017,170.54,149.003,170.54z"/>
			<path style="fill:#241726;" d="M185.9,159.338c-0.768,0-2.606-0.618-9.842-15.368c-0.259-0.528-0.042-1.167,0.487-1.427     c0.528-0.256,1.165-0.04,1.425,0.487c2.62,5.342,5.905,11.331,7.535,13.471c0.561-3.077,1.177-10.54,1.475-15.225     c0.037-0.589,0.54-1.048,1.131-0.996c0.587,0.037,1.033,0.543,0.995,1.13c-0.095,1.487-0.952,14.603-1.899,17.026     c-0.211,0.541-0.66,0.878-1.202,0.901C185.972,159.336,185.937,159.338,185.9,159.338z"/>
			<g>
				<path style="fill:#E38B72;" d="M123.16,171.978c0,0-18.681-12.12-19.478,1.008c-0.797,13.128,10.492,27.007,21.768,22.497      S123.16,171.978,123.16,171.978z"/>
				<path style="fill:#241726;" d="M111.699,186.32c-0.464,0-0.89-0.306-1.023-0.774c-0.483-1.697-1.843-7.333,0.917-8.564      c2.435-1.075,8.26,4.15,11.518,7.366c0.419,0.412,0.423,1.086,0.01,1.506c-0.415,0.418-1.089,0.422-1.506,0.008      c-3.881-3.83-8.123-7.023-9.204-6.919c-0.599,0.275-0.468,3.264,0.313,6.02c0.16,0.566-0.167,1.154-0.733,1.315      C111.893,186.308,111.795,186.32,111.699,186.32z"/>
			</g>
			<g>
				<path style="fill:#E38B72;" d="M196.265,150.668c0,0,7.664-20.908,16.183-10.887c8.519,10.021,7.822,27.898-3.903,31.06      S196.265,150.668,196.265,150.668z"/>
				<path style="fill:#241726;" d="M204.785,161.753c-0.052,0-0.105-0.004-0.158-0.012c-0.581-0.085-0.983-0.628-0.897-1.209      c0.675-4.529,2.195-12.211,4.791-12.803c2.935-0.661,5.242,4.647,5.874,6.295c0.211,0.549-0.063,1.165-0.612,1.377      c-0.549,0.208-1.166-0.064-1.377-0.612c-1.03-2.673-2.732-5.115-3.41-4.984c-0.857,0.483-2.355,5.65-3.159,11.039      C205.758,161.375,205.304,161.753,204.785,161.753z"/>
			</g>
			<path style="fill:#DEB400;" d="M210.01,123.347c5.614-17.778-14.035-16.375-14.035-16.375c8.421-7.953,8.889-21.053,4.678-22.924     c-3.08-1.369-8.4,3.76-11.042,6.619c6.796-10.135-3.926-35.482-10.946-26.269c-7.485,9.825-18.246,12.632-18.246,12.632     c13.1-8.421-5.614-21.521-13.567-8.889c-7.953,12.632-34.62,11.696-43.977,26.199c-9.357,14.503-21.053,29.942-9.825,55.673     c8.224,18.848,17.951,22.379,24.473,22.545c4.302,7.454,8.655,22.101,19.858,33.024c14.201,13.846,55.027,9.585,67.808-12.781     c10.063-17.611,2.081-43.134-1.769-53.196C204.947,137.564,206.905,133.181,210.01,123.347z M199.153,185.347     c-5.572,3.149-9.23-8.698-13.846-14.378s-21.301,0.533-30.176,8.343c-8.875,7.81,12.425,23.431-0.355,23.431     c-9.272,0-23.583-20.36-30.745-31.542c1.76-3.906-8.568-21.91-8.993-33.818c-0.468-13.1,11.228-29.474,42.574-32.749     c18.028-1.883,28.618,10.776,34.816,21.788c-0.006-0.001-0.014-0.005-0.02-0.007     C189.212,125.704,211.401,178.424,199.153,185.347z"/>
			<path style="fill:#241726;" d="M173.469,190.1c-4.84,0-10.235-9.454-11.317-11.447c-0.281-0.516-0.089-1.163,0.427-1.444     c0.515-0.279,1.164-0.087,1.445,0.426c2.52,4.637,7.21,10.883,9.768,10.299c0.88-0.206,2.968-1.785,3.354-11.969     c0.022-0.587,0.495-1.042,1.105-1.026c0.588,0.023,1.046,0.518,1.023,1.105c-0.334,8.807-1.921,13.244-4.997,13.964     C174.011,190.071,173.741,190.1,173.469,190.1z"/>
			<path style="fill:#241726;" d="M166.151,173.45c-0.389,0-0.763-0.214-0.951-0.585c-0.266-0.524-0.056-1.165,0.468-1.431     c0.236-0.119,5.49-2.773,8.17-3.549c-0.13-2.118-4.065-10.461-7.884-17.446c-0.282-0.518-0.092-1.165,0.424-1.446     c0.517-0.285,1.164-0.094,1.445,0.422c3.437,6.286,9.041,17.19,7.963,19.581c-0.2,0.443-0.563,0.743-1.02,0.847     c-1.85,0.422-6.499,2.665-8.134,3.493C166.477,173.413,166.312,173.45,166.151,173.45z"/>
			<path style="fill:#E9B600;" d="M340.094,237.889c0,0,7.81-40.472,33.371-34.081c25.561,6.39,22.721,15.621,44.022,23.431     C438.788,235.049,351.454,244.989,340.094,237.889z"/>
			<path style="fill:#E38B72;" d="M264.121,208.778c0,0,7.455-4.793,10.65-11.715c10.03-21.731-4.26-111.83,18.106-123.545     c22.366-11.715,4.26,6.39,4.26,11.715c0,5.325,20.236-22.366,27.691-19.171c7.455,3.195-9.585,17.041-9.585,17.041     s11.715-22.366,17.041-13.846c5.325,8.52-8.52,20.236-8.52,20.236s6.39-17.041,13.846-11.715     c7.455,5.325-18.106,10.65-22.366,36.211c-4.26,25.561,12.841,82.28-3.195,112.895c-5.858,11.183-23.431,21.833-23.431,21.833     L264.121,208.778z"/>
			<path style="fill:#1A1F36;" d="M393.418,257.08c-34.452,1.215-62.093,16.145-63.201,33.733l-60.771,5.653     c0,0,1.42,20.591,3.55,22.011c2.096,1.397,61.917-11.637,63.813-12.051c10.693,10.897,33.187,17.909,58.95,17     c35.564-1.254,63.871-17.124,63.225-35.445C458.337,269.661,428.983,255.826,393.418,257.08z"/>
			<path style="fill:#B1739A;" d="M172.527,278.006c0,0,56.447-8.52,61.773-4.26c5.325,4.26,17.041,101.179,10.65,106.504     c-6.39,5.325-71.358,3.195-80.943,3.195C154.421,383.445,168.267,280.136,172.527,278.006z"/>
			<path style="fill:#E38B72;" d="M300.332,291.851c-9.585-9.585-31.241-1.42-31.241-1.42     c-26.271,5.148-77.582,36.739-86.979,32.839c-9.396-3.9-16.508-14.378-16.508-14.378l-30.886,29.289     c2.608,2.441,12.248,25.029,36.931,25.841c32.234,1.061,83.754-30.233,101.854-43.35c3.449,3.443,6.954,6.682,12.629,8.101     c5.565,1.391,7.56,0.829,8.041-0.247c0.962,0.375,2.441,0.535,4.739,0.247c8.52-1.065,5.68-8.165,5.68-8.165     s4.26,4.26,7.455-2.13S309.917,301.437,300.332,291.851z"/>
			<path style="fill:#FBFCFF;" d="M230.748,275.166c-0.494,0-0.938-0.345-1.042-0.849c-4.122-19.926-31.934-38.907-32.214-39.097     c-0.488-0.329-0.616-0.99-0.287-1.477c0.33-0.489,0.991-0.62,1.479-0.287c1.174,0.793,28.81,19.651,33.109,40.428     c0.119,0.576-0.252,1.14-0.828,1.259C230.893,275.16,230.82,275.166,230.748,275.166z"/>
			<path style="fill:#FBFCFF;" d="M172.526,279.071c-0.142,0-0.287-0.029-0.425-0.089c-17.101-7.482-38.801-36.191-39.717-37.408     c-0.353-0.472-0.258-1.138,0.212-1.491c0.471-0.356,1.138-0.256,1.491,0.21c0.22,0.295,22.279,29.48,38.866,36.738     c0.54,0.235,0.785,0.863,0.549,1.402C173.328,278.831,172.937,279.071,172.526,279.071z"/>
			<path style="fill:#241726;" d="M131.346,344.748c-0.015,0-0.028,0-0.042,0c-18.796-0.724-44.5-39.995-45.585-41.666     c-0.32-0.493-0.18-1.152,0.313-1.473c0.496-0.32,1.152-0.181,1.474,0.312c0.26,0.401,26.181,40.016,43.879,40.696     c0.588,0.023,1.046,0.518,1.023,1.107C132.387,344.298,131.915,344.748,131.346,344.748z"/>
			<path style="fill:#241726;" d="M125.932,335.134c-0.321,0-0.639-0.144-0.849-0.42c-0.356-0.468-0.265-1.136,0.202-1.491     c14.683-11.187,32.82-29.168,33.001-29.347c0.416-0.414,1.09-0.416,1.506,0.004c0.415,0.418,0.413,1.092-0.004,1.506     c-0.183,0.181-18.417,18.26-33.211,29.53C126.383,335.064,126.156,335.134,125.932,335.134z"/>
			<path style="fill:#241726;" d="M175.366,329.837c-0.203,0-0.408-0.058-0.59-0.179c-0.489-0.327-0.622-0.988-0.295-1.477     c2.952-4.429,16.087-9.124,17.575-9.644c0.557-0.198,1.163,0.098,1.356,0.653c0.194,0.555-0.098,1.163-0.653,1.356     c-3.857,1.35-14.341,5.566-16.506,8.816C176.048,329.671,175.71,329.837,175.366,329.837z"/>
			<path style="fill:#241726;" d="M247.789,280.845c-0.481,0-0.916-0.327-1.034-0.813c-5.546-22.876-18.793-37.732-18.926-37.88     c-0.394-0.435-0.36-1.109,0.076-1.504c0.436-0.391,1.11-0.358,1.504,0.075c0.137,0.152,13.737,15.383,19.416,38.805     c0.138,0.572-0.212,1.148-0.784,1.288C247.957,280.835,247.872,280.845,247.789,280.845z"/>
			<path style="fill:#241726;" d="M112.174,116.828c-0.396,0-0.776-0.223-0.96-0.603c-0.172-0.358-4.173-8.841-0.879-17.095     c2.023-5.067,6.337-8.882,12.822-11.343c0.548-0.2,1.165,0.069,1.373,0.618c0.209,0.551-0.068,1.165-0.618,1.375     c-5.897,2.236-9.798,5.643-11.593,10.124c-2.952,7.372,0.777,15.318,0.814,15.397c0.254,0.53,0.03,1.167-0.499,1.421     C112.486,116.795,112.329,116.828,112.174,116.828z"/>
			<path style="fill:#241726;" d="M133.475,109.729c-0.422,0-0.823-0.254-0.989-0.67c-0.097-0.241-2.332-5.976,0.603-11.345     c2.17-3.969,6.532-6.609,12.966-7.846c17.385-3.343,19.755-9.86,19.777-9.927c0.185-0.549,0.779-0.857,1.334-0.684     c0.554,0.175,0.868,0.755,0.701,1.313c-0.095,0.316-2.533,7.759-21.411,11.391c-5.779,1.111-9.648,3.391-11.498,6.775     c-2.459,4.499-0.514,9.483-0.494,9.533c0.218,0.545-0.048,1.165-0.594,1.383C133.741,109.704,133.607,109.729,133.475,109.729z"/>
			<path style="fill:#241726;" d="M163.297,101.918c-0.411,0-0.802-0.239-0.977-0.639c-0.236-0.539,0.009-1.167,0.549-1.402     c10.717-4.689,13.564-16.194,13.591-16.311c0.135-0.572,0.702-0.924,1.282-0.79c0.571,0.135,0.926,0.707,0.792,1.279     c-0.122,0.514-3.097,12.649-14.812,17.773C163.584,101.888,163.44,101.918,163.297,101.918z"/>
			<path style="fill:#241726;" d="M183.488,106.207c-0.327,0-0.649-0.15-0.858-0.433c-0.349-0.474-0.249-1.14,0.225-1.489     c6.488-4.786,10.792-10.409,10.835-10.467c0.355-0.466,1.021-0.56,1.493-0.204c0.468,0.356,0.561,1.023,0.205,1.491     c-0.182,0.239-4.521,5.918-11.267,10.894C183.929,106.138,183.708,106.207,183.488,106.207z"/>
			<path style="fill:#241726;" d="M96.555,148.07c-0.069,0-0.139-0.006-0.21-0.021c-0.576-0.114-0.951-0.676-0.835-1.252     c2.275-11.376,15.116-11.507,15.244-11.507c0.588,0,1.063,0.476,1.064,1.063c0.001,0.589-0.475,1.065-1.063,1.067     c-0.457,0.002-11.227,0.144-13.157,9.793C97.497,147.721,97.052,148.07,96.555,148.07z"/>
			<path style="fill:#241726;" d="M102.945,159.43c-0.044,0-0.088-0.002-0.133-0.008c-0.583-0.073-0.997-0.605-0.925-1.188     c0.777-6.222,9.505-9.927,9.877-10.083c0.548-0.216,1.165,0.031,1.393,0.574c0.226,0.543-0.03,1.165-0.572,1.392     c-0.08,0.033-7.96,3.387-8.584,8.379C103.933,159.037,103.475,159.43,102.945,159.43z"/>
			<path style="fill:#241726;" d="M206.608,118.249c-0.272,0-0.545-0.104-0.753-0.312c-4.959-4.957-10.434-0.803-10.663-0.622     c-0.465,0.366-1.134,0.279-1.495-0.187c-0.361-0.464-0.278-1.132,0.186-1.494c2.467-1.92,8.459-4.223,13.477,0.797     c0.416,0.416,0.416,1.09,0,1.506C207.153,118.145,206.881,118.249,206.608,118.249z"/>
			<path style="fill:#241726;" d="M205.188,130.32c-0.289,0-0.578-0.117-0.788-0.349c-2.313-2.544-4.373-3.761-5.953-3.499     c-1.496,0.239-2.22,1.781-2.226,1.795c-0.238,0.539-0.868,0.782-1.406,0.541c-0.538-0.239-0.779-0.87-0.541-1.406     c0.048-0.106,1.188-2.606,3.835-3.033c2.364-0.383,5.007,1.023,7.868,4.171c0.395,0.435,0.363,1.109-0.072,1.504     C205.701,130.229,205.444,130.32,205.188,130.32z"/>
			<path style="fill:#241726;" d="M177.498,211.263c-0.344,0-0.682-0.166-0.887-0.474c-0.327-0.489-0.195-1.15,0.295-1.477     c2.774-1.849-0.405-8.458-1.737-10.628c-0.308-0.501-0.152-1.157,0.349-1.464c0.499-0.306,1.157-0.152,1.464,0.349     c0.637,1.034,6.076,10.199,1.105,13.515C177.907,211.205,177.701,211.263,177.498,211.263z"/>
			<path style="fill:#241726;" d="M184.597,207.713c-0.245,0-0.492-0.085-0.693-0.256c-0.447-0.383-0.499-1.057-0.115-1.502     c3.661-4.273-0.006-9.269-0.044-9.319c-0.354-0.47-0.258-1.138,0.213-1.491c0.469-0.356,1.137-0.258,1.49,0.214     c1.651,2.201,3.766,7.539-0.044,11.982C185.195,207.586,184.896,207.713,184.597,207.713z"/>
			<path style="fill:#241726;" d="M195.247,202.032c-0.273,0-0.545-0.104-0.753-0.312c-0.416-0.416-0.416-1.09,0-1.506     c1.514-1.514,2.191-2.948,2.013-4.262c-0.274-2.012-2.467-3.272-2.49-3.285c-0.511-0.289-0.693-0.938-0.407-1.45     c0.286-0.51,0.932-0.693,1.445-0.412c0.128,0.073,3.132,1.772,3.56,4.838c0.282,2.016-0.598,4.06-2.615,6.076     C195.792,201.928,195.52,202.032,195.247,202.032z"/>
			<path style="fill:#241726;" d="M298.201,102.629c-0.223,0-0.446-0.069-0.638-0.212c-0.471-0.354-0.567-1.021-0.213-1.491     c1.968-2.625,2.758-5.038,2.35-7.177c-0.505-2.646-2.737-4.042-2.76-4.054c-0.499-0.306-0.66-0.961-0.357-1.462     c0.305-0.501,0.955-0.659,1.457-0.362c0.124,0.075,3.044,1.862,3.745,5.442c0.541,2.762-0.378,5.754-2.731,8.891     C298.845,102.481,298.525,102.629,298.201,102.629z"/>
			<path style="fill:#241726;" d="M318.084,94.109c-0.391,0-0.767-0.216-0.954-0.589c-3.315-6.629-11.374-9.379-11.455-9.407     c-0.557-0.187-0.859-0.79-0.673-1.348c0.185-0.557,0.784-0.863,1.347-0.674c0.365,0.123,8.981,3.064,12.687,10.476     c0.263,0.526,0.05,1.165-0.476,1.429C318.407,94.073,318.244,94.109,318.084,94.109z"/>
			<path style="fill:#241726;" d="M315.244,84.168c-0.05,0-0.101-0.004-0.152-0.01c-0.582-0.083-0.987-0.624-0.904-1.204     c0.756-5.29,8.528-12.408,8.858-12.71c0.436-0.393,1.109-0.364,1.504,0.073c0.396,0.435,0.364,1.107-0.071,1.504     c-2.094,1.905-7.645,7.674-8.182,11.433C316.221,83.785,315.766,84.168,315.244,84.168z"/>
			<path style="fill:#241726;" d="M319.503,87.007c-0.111,0-0.225-0.017-0.337-0.054c-0.557-0.187-0.859-0.79-0.673-1.348     c0.767-2.301,8.097-8.493,9.558-9.71c0.455-0.379,1.124-0.314,1.501,0.135c0.376,0.451,0.315,1.123-0.136,1.5     c-4.074,3.395-8.518,7.597-8.903,8.749C320.364,86.724,319.949,87.007,319.503,87.007z"/>
			<path style="fill:#241726;" d="M296.073,211.263c-0.313,0-0.622-0.137-0.833-0.399c-2.163-2.706-12.152-6.303-15.819-7.462     c-0.562-0.177-0.873-0.776-0.695-1.335c0.177-0.562,0.78-0.87,1.335-0.695c1.412,0.445,13.884,4.464,16.842,8.16     c0.367,0.46,0.292,1.13-0.166,1.498C296.541,211.187,296.306,211.263,296.073,211.263z"/>
			<path style="fill:#241726;" d="M308.141,318.477c-0.497,0-0.942-0.349-1.043-0.857c-1.327-6.634-13.685-16.311-13.81-16.408     c-0.464-0.36-0.548-1.03-0.186-1.494c0.362-0.462,1.03-0.549,1.495-0.187c0.535,0.416,13.11,10.27,14.59,17.673     c0.115,0.576-0.259,1.138-0.835,1.252C308.28,318.471,308.21,318.477,308.141,318.477z"/>
			<path style="fill:#241726;" d="M298.911,324.867c-0.505,0-0.954-0.36-1.046-0.874c-1.346-7.399-10.97-17.091-11.066-17.188     c-0.416-0.416-0.416-1.09,0-1.506c0.416-0.416,1.09-0.416,1.506,0c0.415,0.416,10.192,10.266,11.655,18.312     c0.106,0.58-0.278,1.134-0.857,1.24C299.038,324.861,298.975,324.867,298.911,324.867z"/>
			<path style="fill:#241726;" d="M289.681,325.577c-0.488,0-0.929-0.337-1.039-0.834c-1.322-5.949-10.882-13.517-10.979-13.592     c-0.462-0.364-0.543-1.034-0.179-1.496c0.364-0.464,1.032-0.543,1.496-0.181c0.418,0.329,10.257,8.121,11.743,14.807     c0.127,0.574-0.235,1.142-0.809,1.271C289.834,325.569,289.758,325.577,289.681,325.577z"/>
			<path style="fill:#241726;" d="M276.19,322.028c-0.16,0-0.322-0.035-0.475-0.112c-5.832-2.918-12.852-11.99-13.149-12.375     c-0.358-0.466-0.271-1.134,0.196-1.494c0.466-0.356,1.135-0.27,1.494,0.196c0.069,0.089,7.018,9.07,12.412,11.767     c0.526,0.264,0.74,0.903,0.476,1.429C276.956,321.812,276.581,322.028,276.19,322.028z"/>
			<path style="fill:#FBFCFF;" d="M391.137,314.049c-14.983,0-27.504-2.515-35.254-7.079c-8.886-5.234-12.772-11.819-10.94-18.538     c3.113-11.42,21.879-20.367,42.721-20.367c-0.079,0,7.532-1.136,17.221-1.136c15.265,0,34.932,2.758,41.942,15.901     c2.511,4.71,2.523,9.201,0.036,13.346C439.825,307.91,413.501,314.049,391.137,314.049z M404.886,269.059     c-9.522,0-16.987,1.113-17.061,1.123c-20.089,0.012-37.953,8.269-40.825,18.809c-1.579,5.791,1.867,11.372,9.966,16.144     c7.319,4.31,19.774,6.783,34.172,6.783c21.765,0,47.268-5.785,53.9-16.839c2.076-3.459,2.046-7.243-0.089-11.247     C438.436,271.622,419.568,269.059,404.886,269.059z"/>
			<path style="fill:#241726;" d="M190.709,269.163c-11.287,0-27.505-6.155-36.822-16.801c-0.387-0.443-0.342-1.115,0.101-1.502     c0.441-0.389,1.114-0.345,1.503,0.1c11.392,13.018,32.536,18.141,41.233,15.243c1.289-0.428,2.188-1.269,2.749-2.569     c2.812-6.509-3.846-21.035-3.914-21.18c-0.248-0.533-0.015-1.167,0.519-1.415c0.536-0.243,1.167-0.012,1.413,0.52     c0.292,0.63,7.125,15.537,3.938,22.919c-0.804,1.862-2.16,3.122-4.031,3.746C195.502,268.855,193.227,269.163,190.709,269.163z"/>
			<path style="fill:#241726;" d="M233.533,299.924c-0.538,0-1-0.406-1.058-0.951c-0.016-0.15-1.61-14.902-3.138-18.466     c-2.113-1.587-26.863,1.157-49.742,4.824l-4.604,11.772c-0.213,0.547-0.833,0.818-1.38,0.603     c-0.548-0.214-0.819-0.832-0.604-1.381l4.827-12.337c0.137-0.349,0.45-0.603,0.823-0.661c23.13-3.732,51.038-7.393,52.639-3.659     c1.654,3.857,3.232,18.459,3.298,19.077c0.062,0.587-0.361,1.111-0.945,1.173C233.609,299.922,233.57,299.924,233.533,299.924z"/>
			<path style="fill:#241726;" d="M238.361,378.232c-0.589,0-1.065-0.476-1.065-1.065v-33.253c0-0.589,0.476-1.065,1.065-1.065     s1.065,0.476,1.065,1.065v33.253C239.426,377.756,238.949,378.232,238.361,378.232z"/>
			<path style="fill:#241726;" d="M164.383,301.526c-0.409,0-0.798-0.235-0.975-0.632c-4.161-9.365-33.276-38.541-33.57-38.835     c-0.416-0.416-0.416-1.09,0-1.506c0.416-0.416,1.09-0.416,1.506,0c1.211,1.211,29.689,29.753,34.011,39.475     c0.238,0.537-0.003,1.167-0.541,1.406C164.674,301.497,164.526,301.526,164.383,301.526z"/>
			<g>
				<path style="fill:#241726;" d="M284.431,164.21c-0.225,0-0.45-0.071-0.643-0.218c-0.088-0.067-2.172-1.685-2.161-4.098      c0.006-1.62,0.925-3.129,2.729-4.481c0.468-0.354,1.137-0.256,1.49,0.214c0.354,0.47,0.258,1.138-0.213,1.491      c-1.237,0.926-1.868,1.86-1.876,2.775c-0.012,1.348,1.314,2.396,1.327,2.409c0.463,0.36,0.549,1.028,0.191,1.491      C285.066,164.067,284.75,164.21,284.431,164.21z"/>
				<path style="fill:#241726;" d="M293.294,173.097c-0.225,0-0.451-0.071-0.645-0.218c-0.088-0.067-2.172-1.685-2.161-4.098      c0.006-1.62,0.925-3.129,2.729-4.481c0.471-0.354,1.138-0.256,1.49,0.214c0.354,0.47,0.258,1.138-0.213,1.491      c-1.242,0.93-1.873,1.868-1.877,2.785c-0.005,1.344,1.31,2.384,1.324,2.394c0.468,0.356,0.557,1.026,0.201,1.491      C293.932,172.953,293.615,173.097,293.294,173.097z"/>
				<path style="fill:#241726;" d="M292.536,161.26c-0.225,0-0.45-0.071-0.643-0.218c-0.088-0.069-2.173-1.685-2.161-4.1      c0.006-1.62,0.925-3.129,2.729-4.481c0.471-0.354,1.138-0.256,1.49,0.214c0.354,0.47,0.258,1.138-0.213,1.491      c-1.237,0.926-1.868,1.86-1.876,2.775c-0.014,1.348,1.314,2.401,1.327,2.411c0.463,0.36,0.549,1.028,0.191,1.491      C293.17,161.117,292.854,161.26,292.536,161.26z"/>
				<path style="fill:#241726;" d="M286.584,141.73c-0.225,0-0.45-0.071-0.643-0.218c-0.088-0.069-2.173-1.685-2.162-4.1      c0.007-1.62,0.926-3.129,2.729-4.481c0.469-0.356,1.137-0.258,1.49,0.214c0.354,0.47,0.258,1.138-0.213,1.491      c-1.236,0.926-1.867,1.86-1.876,2.773c-0.012,1.35,1.315,2.403,1.328,2.413c0.463,0.36,0.549,1.028,0.191,1.491      C287.219,141.586,286.902,141.73,286.584,141.73z"/>
				<path style="fill:#241726;" d="M282.831,151.401c-0.225,0-0.452-0.071-0.645-0.218c-0.089-0.069-2.172-1.685-2.161-4.1      c0.007-1.62,0.926-3.126,2.729-4.479c0.472-0.354,1.139-0.254,1.491,0.214c0.353,0.47,0.257,1.138-0.214,1.491      c-1.241,0.93-1.872,1.866-1.876,2.783c-0.006,1.344,1.31,2.386,1.323,2.396c0.468,0.358,0.557,1.026,0.201,1.494      C283.468,151.257,283.152,151.401,282.831,151.401z"/>
				<path style="fill:#241726;" d="M289.681,149.491c-0.21,0-0.422-0.062-0.607-0.191c-0.071-0.05-1.735-1.231-1.76-3.301      c-0.022-1.779,1.151-3.547,3.486-5.259c0.471-0.349,1.139-0.248,1.488,0.229c0.347,0.474,0.244,1.142-0.23,1.489      c-1.723,1.263-2.628,2.48-2.616,3.515c0.012,0.955,0.839,1.573,0.848,1.579c0.483,0.335,0.602,1.001,0.265,1.483      C290.348,149.331,290.018,149.491,289.681,149.491z"/>
				<path style="fill:#241726;" d="M287.908,178.334c-0.146,0-0.292-0.029-0.434-0.094c-0.114-0.05-2.825-1.288-3.688-3.873      c-0.499-1.496-0.288-3.089,0.625-4.739c0.286-0.516,0.936-0.695,1.448-0.416c0.515,0.285,0.701,0.934,0.416,1.448      c-0.62,1.117-0.774,2.105-0.472,3.02c0.559,1.695,2.524,2.609,2.544,2.617c0.535,0.243,0.773,0.874,0.53,1.408      C288.7,178.102,288.313,178.334,287.908,178.334z"/>
			</g>
			<g>
				<path style="fill:#241726;" d="M213.008,321.997c-0.093,0-0.187-0.012-0.281-0.037c-0.568-0.154-0.903-0.741-0.748-1.306      c0.029-0.108,0.743-2.648,2.982-3.547c1.506-0.605,3.248-0.318,5.179,0.842c0.504,0.304,0.667,0.959,0.363,1.462      c-0.305,0.505-0.959,0.661-1.461,0.364c-1.329-0.801-2.438-1.032-3.287-0.691c-1.246,0.499-1.716,2.111-1.72,2.126      C213.905,321.685,213.476,321.997,213.008,321.997z"/>
				<path style="fill:#241726;" d="M208.109,333.548c-0.094,0-0.189-0.012-0.284-0.04c-0.565-0.156-0.898-0.738-0.744-1.304      c0.029-0.106,0.744-2.646,2.983-3.545c1.503-0.605,3.248-0.32,5.179,0.842c0.504,0.304,0.667,0.959,0.363,1.462      c-0.305,0.505-0.962,0.661-1.461,0.364c-1.323-0.797-2.425-1.032-3.276-0.695c-1.254,0.495-1.729,2.12-1.733,2.136      C209.002,333.24,208.574,333.548,208.109,333.548z"/>
				<path style="fill:#241726;" d="M218.791,328.393c-0.094,0-0.189-0.012-0.284-0.04c-0.565-0.156-0.898-0.738-0.744-1.304      c0.029-0.106,0.744-2.646,2.984-3.545c1.501-0.605,3.245-0.322,5.178,0.84c0.503,0.304,0.667,0.959,0.363,1.462      c-0.303,0.505-0.961,0.661-1.461,0.364c-1.321-0.797-2.421-1.023-3.276-0.695c-1.254,0.497-1.729,2.122-1.733,2.138      C219.684,328.086,219.256,328.393,218.791,328.393z"/>
				<path style="fill:#241726;" d="M234.646,315.53c-0.093,0-0.187-0.012-0.281-0.037c-0.568-0.154-0.903-0.741-0.748-1.306      c0.029-0.108,0.743-2.648,2.983-3.547c1.506-0.605,3.247-0.32,5.179,0.84c0.503,0.304,0.667,0.959,0.364,1.462      c-0.305,0.505-0.96,0.661-1.462,0.364c-1.328-0.801-2.437-1.034-3.287-0.691c-1.247,0.501-1.717,2.113-1.721,2.128      C235.543,315.218,235.114,315.53,234.646,315.53z"/>
				<path style="fill:#241726;" d="M224.273,315.69c-0.093,0-0.187-0.012-0.281-0.037c-0.568-0.154-0.903-0.741-0.748-1.306      c0.029-0.108,0.743-2.648,2.982-3.547c1.504-0.603,3.248-0.318,5.179,0.842c0.504,0.304,0.667,0.959,0.363,1.462      c-0.305,0.505-0.96,0.661-1.461,0.364c-1.329-0.801-2.435-1.032-3.287-0.691c-1.246,0.499-1.716,2.111-1.72,2.126      C225.17,315.378,224.741,315.69,224.273,315.69z"/>
				<path style="fill:#241726;" d="M228.619,321.31c-0.081,0-0.162-0.008-0.244-0.029c-0.568-0.133-0.923-0.695-0.795-1.265      c0.019-0.083,0.488-2.07,2.395-2.873c1.637-0.689,3.719-0.268,6.184,1.25c0.501,0.308,0.656,0.965,0.348,1.467      c-0.309,0.499-0.966,0.651-1.465,0.347c-1.809-1.115-3.269-1.498-4.225-1.107c-0.898,0.366-1.16,1.385-1.162,1.396      C229.536,320.982,229.099,321.31,228.619,321.31z"/>
				<path style="fill:#241726;" d="M201.23,330.534c-0.012,0-0.025,0-0.037,0c-0.589-0.021-1.048-0.514-1.028-1.102      c0.004-0.125,0.13-3.102,2.202-4.876c1.197-1.026,2.75-1.437,4.625-1.204c0.583,0.071,1,0.601,0.93,1.184      c-0.071,0.585-0.592,1.017-1.186,0.93c-1.267-0.144-2.248,0.079-2.984,0.709c-1.347,1.152-1.458,3.31-1.459,3.332      C202.273,330.08,201.801,330.534,201.23,330.534z"/>
			</g>
			<circle style="fill:#DF4F3E;" cx="142.607" cy="181" r="7.867"/>
			<circle style="fill:#DF4F3E;" cx="192.763" cy="166.176" r="7.867"/>
		</g>
		<g>
			<path style="fill:#B1739A;" d="M103.654,381.226c-1.065-3.195-14.378-9.852-14.378-9.852l-2.755-36.957     c1.847-0.027,3.196-0.053,3.553-0.053c1.598,0,0.533-3.994-0.533-7.722c-1.065-3.728-22.632-2.396-22.632-2.396     s-1.864,7.988-0.533,9.319c0.292,0.292,1.551,0.49,3.305,0.628c-0.799,12.217,0.423,37.447,0.423,37.447     s-6.657,5.858-11.982,11.183c-4.391,4.391,2.396,73.488,2.396,73.488s42.335-0.533,46.596-0.533     C108.447,455.779,104.719,384.421,103.654,381.226z"/>
			<path style="fill:#FFFFFF;" d="M56.552,398.533c0,0,47.579-3.461,49.021-0.799c1.442,2.663,2.874,31.951,2.019,33.283     c-1.485,2.311-47.291,3.195-48.732,2.929C57.417,433.68,55.398,400.131,56.552,398.533z"/>
			<path style="fill:#241726;" d="M59.146,405.988c-0.549,0-1.015-0.422-1.061-0.978c-0.048-0.587,0.389-1.1,0.976-1.148     c4.034-0.329,39.546-3.176,44.212-1.826c0.565,0.162,0.891,0.753,0.728,1.319c-0.163,0.564-0.755,0.892-1.319,0.728     c-3.245-0.936-27.763,0.626-43.448,1.901C59.205,405.986,59.175,405.988,59.146,405.988z"/>
			<path style="fill:#241726;" d="M60.011,431.016c-0.556,0-1.024-0.431-1.062-0.994c-0.038-0.587,0.406-1.094,0.992-1.134     c13.828-0.917,40.802-2.873,43.919-3.694c0.56-0.156,1.151,0.189,1.301,0.757c0.15,0.57-0.189,1.152-0.758,1.302     c-4.09,1.08-42.68,3.651-44.32,3.761C60.059,431.016,60.035,431.016,60.011,431.016z"/>
			<path style="fill:#241726;" d="M81.022,334.363c-0.063,0-0.127-0.006-0.191-0.017c-2.782-0.505-9.289-0.254-9.352-0.25     c-0.614-0.01-1.084-0.435-1.107-1.023c-0.024-0.587,0.434-1.082,1.021-1.107c0.277-0.008,6.809-0.262,9.818,0.283     c0.579,0.106,0.963,0.659,0.857,1.24C81.976,334.004,81.528,334.363,81.022,334.363z"/>
			<path style="fill:#241726;" d="M86.079,328.239c-0.16,0-0.322-0.035-0.475-0.112c-1.18-0.591-8.785-0.68-15.459-0.42     c-0.54,0.025-1.082-0.435-1.105-1.023s0.436-1.084,1.023-1.107c2.356-0.089,14.235-0.485,16.493,0.645     c0.526,0.264,0.74,0.903,0.476,1.429C86.846,328.023,86.47,328.239,86.079,328.239z"/>
			<path style="fill:#241726;" d="M65.843,454.181c-0.496,0-0.94-0.349-1.043-0.853c-0.116-0.578,0.257-1.14,0.833-1.256     c0.925-0.187,22.751-4.535,34.833-1.317c0.568,0.152,0.906,0.736,0.754,1.304c-0.151,0.57-0.735,0.911-1.303,0.755     c-11.599-3.097-33.64,1.3-33.862,1.346C65.985,454.175,65.913,454.181,65.843,454.181z"/>
			<path style="fill:#241726;" d="M83.684,364.451c-0.461,0-0.885-0.3-1.021-0.766c-1.353-4.597-1.885-16.779-1.906-17.294     c-0.025-0.589,0.431-1.086,1.018-1.111c0.612,0.006,1.085,0.433,1.11,1.019c0.005,0.125,0.542,12.437,1.821,16.787     c0.166,0.564-0.157,1.155-0.721,1.321C83.885,364.436,83.783,364.451,83.684,364.451z"/>
			<path style="fill:#241726;" d="M100.193,383.089c-0.353,0-0.697-0.175-0.9-0.493c-1.383-2.174-7.238-5.057-9.376-5.985     c-0.54-0.235-0.787-0.861-0.553-1.402c0.233-0.539,0.859-0.793,1.4-0.553c0.849,0.368,8.345,3.682,10.327,6.796     c0.316,0.497,0.17,1.154-0.327,1.471C100.586,383.035,100.389,383.089,100.193,383.089z"/>
			<path style="fill:#241726;" d="M70.638,420.366c-0.012,0-0.024,0-0.036,0c-0.588-0.021-1.048-0.512-1.029-1.1     c0.017-0.518,0.242-5.115,2.815-7.133c1.046-0.822,2.359-1.098,3.793-0.797c3.73,0.784,3.848,3.963,3.904,5.49     c0.002,0.05,0.004,0.102,0.006,0.156c0.702-0.664,1.209-1.828,1.667-2.881c0.725-1.664,1.409-3.239,2.758-3.701     c0.664-0.225,1.359-0.146,2.072,0.245c2.131,1.161,2.017,3.436,1.941,4.94c-0.025,0.491-0.071,1.406,0.078,1.577     c0.607,0.15,1.887-1.019,2.735-1.791c1.733-1.575,4.106-3.73,6.318-1.962c0.459,0.368,0.534,1.038,0.166,1.498     c-0.368,0.46-1.035,0.533-1.498,0.166c-0.733-0.595-1.938,0.404-3.555,1.874c-1.515,1.379-2.951,2.681-4.531,2.328     c-2.012-0.447-1.91-2.463-1.842-3.796c0.076-1.521,0.058-2.48-0.833-2.966c-0.095-0.05-0.264-0.133-0.362-0.098     c-0.461,0.158-1.084,1.589-1.497,2.536c-0.711,1.635-1.52,3.491-3.013,4.237c-0.271,0.135-1.095,0.551-1.867,0.094     c-0.803-0.476-0.839-1.442-0.874-2.378c-0.069-1.837-0.26-3.072-2.215-3.484c-0.822-0.175-1.486-0.046-2.04,0.389     c-1.531,1.2-1.964,4.397-2.002,5.527C71.682,419.912,71.209,420.366,70.638,420.366z"/>
		</g>
	</g>
	<path style="fill:#241726;" d="M296.169,359.625l-0.025-0.019c-3.209-2.488-3.794-7.123-1.305-10.333   c2.478-3.196,7.101-3.79,10.307-1.326c1.58,1.225,2.573,2.964,2.819,4.917c0.246,1.95-0.282,3.882-1.486,5.435   C303.999,361.493,299.373,362.088,296.169,359.625z M303.866,349.65c-2.297-1.766-5.583-1.342-7.343,0.928   c-1.77,2.281-1.353,5.577,0.926,7.345l-0.631,0.858l0.649-0.844c2.278,1.751,5.564,1.328,7.328-0.942   c0.857-1.104,1.232-2.477,1.055-3.864C305.676,351.742,304.97,350.506,303.866,349.65z"/>
	<path style="fill:#241726;" d="M371.465,359.325c-0.793,0-1.543,0-3.515-8.31c-6.987-1.439-7.589-2.274-7.791-2.552   c-0.194-0.266-0.272-0.755-0.179-1.071c0.132-0.447,0.439-1.483,8.485-4.605c2.962-7.432,3.931-7.432,4.576-7.432   c0.342,0,0.81,0.248,1.011,0.524c0.505,0.697,0.948,2.498,1.617,5.379c0.209,0.901,0.462,1.989,0.608,2.467   c0.418,0.193,1.341,0.537,2.105,0.824c4.096,1.529,5.15,2.045,5.33,3.029c0.067,0.37-0.128,0.905-0.41,1.152   c-0.846,0.738-4.843,2.163-6.938,2.879c-3.487,7.663-4.212,7.69-4.853,7.717C371.498,359.325,371.48,359.325,371.465,359.325z    M362.88,347.583c1.395,0.422,3.939,1.036,6.159,1.479c0.41,0.081,0.733,0.395,0.828,0.803c0.539,2.313,1.248,4.949,1.764,6.457   c0.795-1.387,2.002-3.842,2.984-6.014c0.122-0.268,0.349-0.476,0.63-0.57c1.911-0.645,4.071-1.439,5.416-2.007   c-0.931-0.408-2.201-0.88-3.023-1.188c-2.339-0.874-2.779-1.061-3.077-1.473c-0.259-0.358-0.415-0.951-0.967-3.33   c-0.208-0.897-0.528-2.274-0.815-3.305c-0.715,1.323-1.72,3.574-2.505,5.569c-0.109,0.277-0.331,0.495-0.609,0.603   C367.181,345.561,364.361,346.78,362.88,347.583z"/>
	<polygon style="fill:#DEB400;" points="419.815,353.015 432.72,345.635 429.655,359.334 438.923,368.18 427.629,371.617    421.419,383.394 415.917,372.565 401.73,371.39 412.519,361.306 407.943,348.856  "/>
</g>















</svg>
