<?xml version="1.0" encoding="UTF-8"?>
<!-- Generator: Adobe Illustrator 26.4.1, SVG Export Plug-In . SVG Version: 6.00 Build 0)  -->
<svg xmlns="http://www.w3.org/2000/svg" xmlns:xlink="http://www.w3.org/1999/xlink" version="1.1" id="Capa_1" x="0px" y="0px" viewBox="0 0 486.933 486.933" style="enable-background:new 0 0 486.933 486.933;" xml:space="preserve" width="512" height="512">
<g>
	<g>
		<path style="fill:#FFFFFF;" d="M407.317,147.294c0,0-1.968-16.608,13.921-11.035c15.889,5.573,10.491,20.685,4.474,15.411    c-6.016-5.274,5.629-22.743,17.739-14.739c12.11,8.004,9.18,23.191,0.503,24.202s5.475-17.656,16.235-5.874    c10.76,11.782-13.341,32.694-22.983,24.764s-1.852-20.424,0.385-12.718c2.237,7.706-4.164,15.15-21.441,14.627    s-9.064-27.007-3.125-19.189c5.939,7.818-4.203,16.422-16.274,7.145C384.68,160.612,398.833,141.946,407.317,147.294z"/>
		<path style="fill:#241726;" d="M417.837,183.066c-0.56,0-1.133-0.009-1.719-0.026c-5.666-0.173-9.616-3.126-10.954-8.146    c-2.977-0.417-6.101-1.833-9.088-4.129c-4.695-3.608-6.256-9.015-4.28-14.83c2.039-5.997,7.411-10.694,12.231-10.694    c0.729,0,1.431,0.104,2.103,0.305c0.009-2.296,0.411-6.191,2.754-8.829c2.65-2.979,6.974-3.517,12.718-1.502    c2.205,0.774,4.133,1.766,5.746,2.955c2.741-2.815,6.211-4.412,9.659-4.412c2.423,0,4.797,0.759,7.054,2.25    c5.234,3.459,8.371,8.714,8.561,14.24c3.094,0.125,5.913,1.559,8.383,4.265c3.323,3.638,3.904,8.474,1.637,13.619    c-3.465,7.856-12.893,14.748-20.176,14.75c-0.002,0-0.002,0-0.002,0c-2.339,0-4.345-0.674-5.96-2.004    c-0.754-0.618-1.435-1.288-2.032-1.997C430.745,181.624,425.03,183.066,417.837,183.066z M407.51,175.011    c0.949,2.806,3.256,5.651,8.673,5.815c9.24,0.281,14.346-1.783,16.998-3.744c-2.365-3.945-2.136-8.23-0.772-10.876    c0.796-1.541,1.939-2.423,3.139-2.423c0.811,0,2.294,0.417,3.107,3.212c1.12,3.861,0.203,7.607-2.514,10.433    c0.517,0.616,1.109,1.198,1.768,1.742c1.208,0.992,2.741,1.498,4.555,1.498l0,0c6.401-0.002,15.055-6.403,18.153-13.429    c1.338-3.037,2.209-7.452-1.245-11.235c-2.054-2.246-4.35-3.439-6.833-3.545c-0.59,5.294-3.96,9.25-8.457,9.774    c-0.275,0.03-0.534,0.045-0.772,0.045h-0.002c-2.257,0.002-3.107-1.364-3.152-2.642c-0.106-3.13,4.458-8.336,10.256-9.257    c-0.147-4.827-2.923-9.454-7.568-12.525c-1.892-1.25-3.852-1.883-5.835-1.883c-2.804,0-5.66,1.314-7.966,3.634    c3.701,3.619,4.358,8.025,3.292,10.952c-0.746,2.047-2.322,3.321-4.11,3.321c-0.002,0-0.002,0-0.002,0    c-1.094,0-2.214-0.476-3.241-1.375c-3.318-2.912-2.162-8.496,0.927-12.644c-1.409-1.018-3.1-1.874-5.037-2.555    c-4.819-1.688-8.284-1.412-10.327,0.88c-2.774,3.113-2.136,8.924-2.127,8.982c0.048,0.424-0.149,0.839-0.51,1.066    c-0.365,0.229-0.824,0.229-1.18,0c-0.817-0.515-1.725-0.776-2.7-0.776c-3.865,0-8.412,4.125-10.135,9.192    c-1.652,4.862-0.365,9.369,3.532,12.363c2.436,1.872,4.942,3.089,7.322,3.569c-0.428-4.274,0.923-8.427,2.663-10.558    c0.977-1.195,2.108-1.827,3.273-1.827c0.819,0,2.043,0.326,3.223,1.879c2.097,2.761,2.551,5.852,1.247,8.483    C413.853,173.178,410.954,174.855,407.51,175.011z M435.549,165.996c-0.21,0-0.711,0.333-1.172,1.226    c-0.999,1.937-1.195,5.234,0.482,8.329c1.933-2.207,2.527-4.983,1.669-7.938C436.187,166.435,435.746,165.996,435.549,165.996z     M410.684,162.408c-0.471,0-1.025,0.359-1.556,1.014c-1.485,1.818-2.607,5.709-2.121,9.387c2.858-0.006,5.162-1.215,6.163-3.236    c0.919-1.848,0.543-4.094-1.027-6.159C411.795,162.955,411.259,162.408,410.684,162.408z M450.282,152.654    c-4.598,0.984-7.968,5.242-7.912,6.909c0.007,0.199,0.017,0.502,0.938,0.502c0,0,0,0,0.002,0c0.158,0,0.331-0.011,0.517-0.032    C447.151,159.645,449.681,156.687,450.282,152.654z M427.598,141.291c-2.663,3.61-3.217,7.739-1.154,9.547    c1.559,1.373,3.109,0.884,3.811-1.04C431.063,147.582,430.505,144.194,427.598,141.291z"/>
	</g>
	<g>
		<path style="fill:#FFFFFF;" d="M208.524,13.536c0,0-1.968-16.608,13.921-11.035s10.491,20.685,4.474,15.411    s5.629-22.743,17.739-14.739c12.11,8.004,9.18,23.191,0.503,24.202s5.475-17.656,16.235-5.874    c10.76,11.782-13.341,32.694-22.983,24.764c-9.642-7.93-1.852-20.424,0.385-12.718c2.237,7.706-4.164,15.15-21.441,14.627    s-9.064-27.007-3.125-19.189s-4.203,16.422-16.274,7.145S200.04,8.187,208.524,13.536z"/>
		<path style="fill:#241726;" d="M219.051,49.306c-0.562,0-1.137-0.009-1.725-0.026c-5.664-0.173-9.614-3.126-10.954-8.144    c-2.975-0.417-6.101-1.833-9.088-4.129c-4.698-3.61-6.256-9.015-4.28-14.832c2.039-5.997,7.411-10.694,12.231-10.694    c0.729,0,1.431,0.104,2.103,0.305c0.009-2.296,0.413-6.191,2.754-8.827c2.65-2.983,6.974-3.515,12.718-1.502    c2.205,0.772,4.133,1.764,5.746,2.955C231.297,1.595,234.767,0,238.215,0c2.423,0,4.797,0.757,7.054,2.25    c5.234,3.459,8.37,8.714,8.561,14.24c3.059,0.132,5.949,1.6,8.383,4.265c3.323,3.636,3.904,8.474,1.636,13.617    c-3.463,7.856-12.893,14.748-20.176,14.75c-0.002,0-0.002,0-0.002,0c-2.339,0-4.345-0.674-5.96-2.004    c-0.754-0.618-1.435-1.288-2.032-1.998C231.953,47.864,226.239,49.306,219.051,49.306z M208.717,41.254    c0.951,2.806,3.256,5.649,8.673,5.813c9.229,0.292,14.346-1.783,16.998-3.744c-2.365-3.943-2.138-8.228-0.772-10.874    c0.796-1.541,1.939-2.426,3.139-2.426c0.811,0,2.294,0.419,3.107,3.215c1.12,3.861,0.203,7.607-2.514,10.431    c0.517,0.616,1.109,1.2,1.768,1.742c1.208,0.992,2.741,1.498,4.555,1.498l0,0c6.403-0.002,15.055-6.403,18.153-13.429    c1.338-3.037,2.209-7.45-1.245-11.233c-2.054-2.246-4.35-3.439-6.833-3.545c-0.59,5.292-3.96,9.248-8.457,9.774    c-2.88,0.32-3.876-1.183-3.924-2.598c-0.106-3.132,4.458-8.336,10.253-9.257c-0.147-4.827-2.923-9.454-7.568-12.523    c-4.572-3.02-9.864-2.209-13.801,1.751c3.701,3.617,4.358,8.022,3.292,10.95c-0.746,2.047-2.322,3.321-4.11,3.321    c-0.002,0-0.002,0-0.002,0c-1.094,0-2.214-0.476-3.241-1.375c-3.318-2.91-2.16-8.494,0.927-12.642    c-1.41-1.018-3.1-1.874-5.037-2.555c-4.825-1.691-8.293-1.412-10.331,0.884c-2.78,3.128-2.132,8.917-2.125,8.976    c0.052,0.424-0.147,0.839-0.508,1.066c-0.359,0.229-0.821,0.229-1.18,0c-0.817-0.515-1.725-0.776-2.7-0.776    c-3.865,0-8.412,4.125-10.135,9.194c-1.654,4.862-0.365,9.369,3.532,12.363c2.436,1.872,4.942,3.089,7.322,3.569    c-0.43-4.272,0.923-8.427,2.663-10.558c0.975-1.195,2.108-1.827,3.271-1.827c0.819,0,2.045,0.324,3.225,1.879    c2.097,2.761,2.551,5.852,1.247,8.483C215.06,39.42,212.161,41.098,208.717,41.254z M236.756,32.237    c-0.21,0-0.711,0.333-1.172,1.228c-1.001,1.937-1.195,5.234,0.482,8.329c1.933-2.209,2.527-4.983,1.669-7.938    C237.394,32.678,236.953,32.237,236.756,32.237z M211.889,28.65c-0.469,0-1.023,0.359-1.557,1.012    c-1.485,1.82-2.605,5.711-2.119,9.389c2.858-0.006,5.162-1.215,6.163-3.236c0.919-1.848,0.543-4.094-1.027-6.159    C213.002,29.195,212.466,28.65,211.889,28.65z M251.489,18.896c-4.598,0.981-7.968,5.24-7.912,6.907    c0.006,0.201,0.017,0.504,0.94,0.504c0.16,0,0.331-0.011,0.517-0.032C248.358,25.888,250.888,22.928,251.489,18.896z     M228.807,7.532c-2.666,3.612-3.219,7.739-1.159,9.547c1.567,1.373,3.111,0.884,3.813-1.04    C232.27,13.823,231.713,10.437,228.807,7.532z"/>
	</g>
	<g>
		<path style="fill:#FFFFFF;" d="M16.744,342.832c0,0-1.968-16.608,13.921-11.035c15.889,5.573,10.491,20.685,4.474,15.411    s5.629-22.743,17.739-14.739c12.11,8.004,9.18,23.191,0.503,24.202s5.475-17.656,16.235-5.874s-13.341,32.694-22.983,24.764    s-1.852-20.424,0.385-12.718s-4.164,15.15-21.441,14.627c-17.277-0.523-9.064-27.007-3.125-19.189    c5.939,7.818-4.203,16.422-16.274,7.145C-5.892,356.15,8.26,337.483,16.744,342.832z"/>
		<path style="fill:#241726;" d="M27.271,378.603c-0.562,0-1.137-0.009-1.725-0.026c-5.664-0.173-9.614-3.126-10.954-8.144    c-2.975-0.417-6.101-1.833-9.088-4.129c-4.695-3.61-6.256-9.017-4.278-14.832c2.039-5.997,7.408-10.694,12.229-10.694    c0.729,0,1.431,0.104,2.103,0.305c0.009-2.296,0.413-6.191,2.754-8.829c2.65-2.981,6.976-3.517,12.718-1.502    c2.205,0.774,4.133,1.766,5.746,2.955c2.743-2.815,6.213-4.41,9.661-4.41c2.421,0,4.795,0.757,7.052,2.248    c5.234,3.459,8.371,8.716,8.561,14.24c3.059,0.132,5.949,1.6,8.383,4.267c3.323,3.636,3.904,8.474,1.636,13.617    c-3.463,7.856-12.893,14.748-20.176,14.75c-0.002,0-0.002,0-0.002,0c-2.339,0-4.345-0.674-5.96-2.004    c-0.754-0.618-1.435-1.288-2.032-1.998C40.172,377.161,34.459,378.603,27.271,378.603z M16.937,370.55    c0.951,2.806,3.256,5.649,8.673,5.813c9.24,0.296,14.348-1.784,16.998-3.744c-2.365-3.943-2.138-8.228-0.772-10.874    c0.796-1.541,1.939-2.426,3.137-2.426c0.813,0,2.296,0.417,3.109,3.215c1.12,3.861,0.203,7.607-2.514,10.431    c0.517,0.616,1.109,1.2,1.768,1.742c1.208,0.992,2.741,1.498,4.555,1.498l0,0c6.403-0.002,15.055-6.403,18.153-13.429    c1.338-3.037,2.209-7.45-1.245-11.233c-2.054-2.248-4.35-3.439-6.833-3.548c-0.59,5.294-3.96,9.25-8.457,9.776    c-2.884,0.311-3.876-1.185-3.924-2.598c-0.106-3.132,4.458-8.336,10.253-9.257c-0.147-4.827-2.923-9.454-7.568-12.525    c-4.566-3.02-9.869-2.205-13.799,1.751c3.701,3.619,4.358,8.025,3.29,10.952c-0.746,2.047-2.322,3.321-4.11,3.321    c-0.002,0-0.002,0-0.002,0c-1.094,0-2.214-0.476-3.241-1.375c-3.321-2.91-2.162-8.494,0.927-12.642    c-1.409-1.02-3.1-1.876-5.037-2.557c-4.821-1.688-8.284-1.412-10.327,0.88c-2.774,3.115-2.136,8.924-2.127,8.982    c0.048,0.424-0.149,0.839-0.51,1.066c-0.363,0.231-0.821,0.227-1.18,0c-0.817-0.515-1.725-0.776-2.7-0.776    c-3.865,0-8.412,4.125-10.135,9.192c-1.652,4.864-0.365,9.369,3.532,12.366c2.436,1.872,4.942,3.089,7.322,3.569    c-0.428-4.274,0.923-8.429,2.663-10.56c0.977-1.195,2.108-1.827,3.273-1.827c0.819,0,2.043,0.326,3.223,1.879    c2.097,2.761,2.551,5.854,1.247,8.485C23.28,368.717,20.381,370.393,16.937,370.55z M44.974,361.533    c-0.208,0-0.709,0.333-1.17,1.226c-1.001,1.937-1.195,5.234,0.482,8.332c1.933-2.209,2.527-4.983,1.669-7.938    C45.614,361.972,45.173,361.533,44.974,361.533z M20.111,357.945c-0.471,0-1.025,0.359-1.559,1.014    c-1.483,1.818-2.605,5.709-2.119,9.389c2.858-0.006,5.16-1.215,6.163-3.236c0.919-1.85,0.545-4.094-1.027-6.161    C21.222,358.492,20.686,357.945,20.111,357.945z M59.709,348.193c-4.598,0.979-7.968,5.24-7.912,6.907    c0.006,0.201,0.017,0.504,0.94,0.504c0.16,0,0.331-0.011,0.517-0.032C56.578,355.184,59.108,352.225,59.709,348.193z     M37.027,336.828c-2.666,3.61-3.219,7.739-1.159,9.547c1.567,1.373,3.111,0.882,3.813-1.04    C40.49,343.119,39.933,339.734,37.027,336.828z"/>
	</g>
	<path style="fill:#241726;" d="M182.947,74.001l-0.026-0.02c-3.335-2.585-3.943-7.402-1.357-10.739   c2.575-3.321,7.38-3.939,10.712-1.378c1.642,1.273,2.674,3.081,2.93,5.11c0.256,2.026-0.293,4.034-1.544,5.649   C191.085,75.943,186.277,76.561,182.947,74.001z M190.946,63.634c-2.388-1.835-5.802-1.395-7.631,0.964   c-1.839,2.371-1.407,5.796,0.963,7.633l-0.656,0.892l0.675-0.878c2.367,1.819,5.783,1.38,7.616-0.979   c0.891-1.148,1.281-2.574,1.097-4.016C192.827,65.809,192.093,64.525,190.946,63.634z"/>
	<path style="fill:#241726;" d="M473.677,459.182l-0.026-0.02c-3.335-2.585-3.943-7.402-1.357-10.739   c2.575-3.321,7.38-3.939,10.712-1.378c1.642,1.273,2.674,3.081,2.93,5.11c0.256,2.026-0.293,4.034-1.544,5.649   C481.815,461.124,477.008,461.742,473.677,459.182z M481.676,448.816c-2.388-1.835-5.802-1.395-7.631,0.964   c-1.839,2.371-1.407,5.796,0.963,7.633l-0.656,0.892l0.675-0.878c2.367,1.819,5.783,1.38,7.616-0.979   c0.891-1.148,1.281-2.574,1.097-4.016C483.558,450.99,482.824,449.706,481.676,448.816z"/>
	<path style="fill:#241726;" d="M98.827,295.37l-0.026-0.02c-3.335-2.585-3.943-7.402-1.357-10.739   c2.575-3.321,7.38-3.939,10.712-1.378c1.642,1.273,2.674,3.081,2.93,5.11c0.256,2.026-0.293,4.034-1.544,5.649   C106.964,297.312,102.157,297.93,98.827,295.37z M106.825,285.003c-2.388-1.835-5.802-1.395-7.631,0.964   c-1.839,2.371-1.407,5.796,0.963,7.633l-0.656,0.892l0.675-0.878c2.367,1.819,5.783,1.38,7.616-0.979   c0.891-1.148,1.281-2.574,1.097-4.016C108.707,287.177,107.973,285.893,106.825,285.003z"/>
	<path style="fill:#241726;" d="M371.054,134.665c-0.824,0-1.604,0-3.653-8.636c-7.261-1.496-7.865-2.328-8.098-2.65   c-0.201-0.277-0.283-0.785-0.186-1.115c0.138-0.465,0.458-1.541,8.818-4.784c3.078-7.726,4.086-7.726,4.756-7.726   c0.355,0,0.841,0.255,1.048,0.543c0.527,0.726,0.986,2.594,1.682,5.586c0.218,0.938,0.48,2.071,0.633,2.57   c0.435,0.201,1.394,0.558,2.188,0.856c4.257,1.589,5.353,2.125,5.539,3.148c0.069,0.385-0.132,0.94-0.426,1.198   c-0.878,0.767-5.031,2.248-7.207,2.992c-3.628,7.966-4.382,7.994-5.048,8.02C371.086,134.665,371.067,134.665,371.054,134.665z    M362.132,122.464c1.448,0.437,4.092,1.074,6.399,1.535c0.426,0.084,0.763,0.411,0.863,0.834c0.56,2.404,1.297,5.145,1.833,6.71   c0.826-1.44,2.082-3.993,3.1-6.25c0.128-0.279,0.365-0.495,0.655-0.592c1.987-0.67,4.231-1.496,5.627-2.086   c-0.966-0.424-2.285-0.914-3.141-1.234c-2.432-0.908-2.888-1.105-3.197-1.531c-0.268-0.37-0.43-0.986-1.007-3.468   c-0.216-0.932-0.547-2.359-0.845-3.429c-0.744,1.375-1.788,3.716-2.605,5.789c-0.112,0.288-0.342,0.517-0.631,0.627   C366.6,120.361,363.669,121.63,362.132,122.464z"/>
	<path style="fill:#241726;" d="M170.345,224.689c-0.824,0-1.604,0-3.653-8.636c-7.259-1.496-7.886-2.361-8.096-2.65   c-0.203-0.279-0.285-0.787-0.188-1.115c0.138-0.465,0.458-1.541,8.82-4.786c3.078-7.724,4.086-7.724,4.756-7.724   c0.355,0,0.841,0.257,1.051,0.545c0.525,0.724,0.984,2.594,1.678,5.586c0.218,0.938,0.482,2.071,0.636,2.568   c0.432,0.201,1.392,0.558,2.188,0.856c4.254,1.589,5.35,2.125,5.539,3.148c0.069,0.383-0.132,0.94-0.426,1.195   c-0.88,0.77-5.033,2.25-7.21,2.994c-3.625,7.964-4.38,7.992-5.046,8.02C170.38,224.689,170.361,224.689,170.345,224.689z    M161.424,212.486c1.448,0.439,4.092,1.077,6.399,1.537c0.426,0.084,0.763,0.411,0.863,0.834c0.56,2.404,1.297,5.145,1.833,6.71   c0.826-1.44,2.082-3.993,3.1-6.25c0.128-0.279,0.365-0.495,0.655-0.592c1.987-0.67,4.231-1.496,5.629-2.086   c-0.968-0.422-2.287-0.914-3.141-1.234c-2.432-0.908-2.89-1.103-3.199-1.531c-0.268-0.37-0.43-0.988-1.005-3.468   c-0.216-0.93-0.547-2.359-0.845-3.429c-0.744,1.375-1.788,3.714-2.605,5.787c-0.112,0.288-0.342,0.515-0.631,0.627   C165.894,210.385,162.963,211.651,161.424,212.486z"/>
	<g>
		<g>
			<path style="fill:#52AFA6;" d="M386.263,47.888c-16.796-2.659-24.646,17.186-27.738,28.589l9.049,2.132     c0,0,7.028-25.655,19.174-20.193c12.146,5.462,7.853,26.76,7.853,26.76l10.983,3.185     C406.767,76.304,406.715,51.126,386.263,47.888z"/>
			<path style="fill:#B1739A;" d="M391.159,25.024c45.516,9.935,40.928,54.927,37.395,69.997l7.509,2.177     c0,0,13.332-65.957-38.667-80.927C345.397,1.301,328.18,69.328,328.18,69.328l8.408,1.981     C340.659,55.223,358.582,17.913,391.159,25.024z"/>
			<path style="fill:#E17B8D;" d="M390.784,26.131c-36.65-7.962-50.125,29.092-54.196,45.177l11.076,2.609     c4.328-16.811,19.767-46.351,50.02-35.216c21.81,8.027,21.386,38.809,19.975,53.16l10.895,3.159     C432.087,79.951,437.937,36.375,390.784,26.131z"/>
			<path style="fill:#E9B600;" d="M397.684,38.702c-31.981-11.53-45.692,18.405-50.02,35.216l10.862,2.559     c3.092-11.403,10.941-31.248,27.738-28.589c20.452,3.238,20.504,28.416,19.321,40.473l12.075,3.501     C419.07,77.511,419.547,46.585,397.684,38.702z"/>
		</g>
		<path style="fill:#241726;" d="M428.501,95.121c-0.104,0-0.208-0.015-0.311-0.045c-0.588-0.173-0.923-0.787-0.75-1.373    c0.037-0.125,3.664-12.718,1.758-27.042c-2.536-19.045-13.157-31.99-31.569-38.476c-11.155-3.93-21.443-3.468-30.581,1.364    c-20.974,11.092-29.308,41.736-29.39,42.043c-0.156,0.588-0.757,0.951-1.353,0.787c-0.59-0.158-0.943-0.763-0.787-1.353    c0.344-1.297,8.654-31.876,30.488-43.428c9.711-5.139,20.598-5.642,32.358-1.5c45.938,16.181,31.353,67.712,31.199,68.231    C429.422,94.81,428.979,95.121,428.501,95.121z"/>
		<path style="fill:#241726;" d="M417.66,92.968c-0.045,0-0.089-0.002-0.132-0.009c-0.607-0.071-1.042-0.623-0.968-1.228    c0.054-0.46,5.13-46.107-23.276-53.433c-8.358-2.153-16.021-1.202-22.777,2.836c-15.829,9.462-21.711,32.812-21.769,33.047    c-0.145,0.592-0.735,0.962-1.338,0.811c-0.595-0.145-0.958-0.744-0.811-1.338c0.244-0.994,6.17-24.487,22.781-34.42    c7.283-4.354,15.515-5.385,24.467-3.081c30.276,7.808,24.977,55.359,24.919,55.839C418.689,92.555,418.211,92.968,417.66,92.968z"/>
		<path style="fill:#241726;" d="M405.586,89.468c-0.052,0-0.102-0.004-0.153-0.011c-0.605-0.082-1.029-0.642-0.945-1.247    c0.045-0.333,4.345-33.346-15.878-38.804c-4.417-1.191-8.613-0.662-12.48,1.574c-11.336,6.557-16.484,25.587-16.533,25.78    c-0.158,0.588-0.752,0.949-1.353,0.787c-0.59-0.156-0.943-0.761-0.787-1.353c0.216-0.817,5.426-20.105,17.56-27.126    c4.395-2.547,9.16-3.154,14.168-1.796c9.209,2.484,15.15,10.463,17.18,23.071c1.505,9.341,0.365,17.815,0.316,18.172    C406.605,89.066,406.129,89.468,405.586,89.468z"/>
	</g>
	<g>
		<g>
			<path style="fill:#FFFFFF;" d="M78.383,44.729c0,0,69.124-9.75,75.873,5.389s-1.446,47.416,3.981,55.687     s13.33,15.772,0.98,16.368c-12.35,0.596-74.107,4.26-80.234-1.958C72.855,113.997,61.722,53.708,78.383,44.729z"/>
			<path style="fill:#241726;" d="M110.799,124.894c-25.78,0-30.955-2.229-32.606-3.904c-4.778-4.849-12.16-38.787-8.879-60.615     c1.306-8.675,4.179-14.268,8.543-16.62c0.115-0.061,0.24-0.104,0.37-0.121c0.221-0.03,22.221-3.1,42.417-3.1     c20.559,0,31.882,2.988,34.623,9.134c3.692,8.282,3.048,21.4,2.48,32.972c-0.478,9.763-0.932,18.983,1.416,22.558     c0.889,1.353,1.842,2.685,2.763,3.967c3.202,4.468,5.967,8.327,4.594,11.168c-0.878,1.814-3.182,2.75-7.249,2.944l-3.297,0.166     C146.812,123.915,127.751,124.894,110.799,124.894z M78.739,45.798c-3.625,2.065-6.06,7.078-7.236,14.906     c-3.23,21.469,4.447,54.858,8.267,58.734c1.193,1.211,6.81,3.243,31.028,3.243c16.897,0,35.918-0.977,45.061-1.446l3.303-0.166     c3.844-0.186,5.037-1.027,5.363-1.699c0.8-1.656-1.844-5.346-4.401-8.913c-0.936-1.308-1.909-2.666-2.813-4.043     c-2.743-4.179-2.294-13.31-1.775-23.881c0.556-11.326,1.185-24.162-2.294-31.964c-1.589-3.567-8.537-7.819-32.6-7.819     C101.63,42.747,80.992,45.491,78.739,45.798z"/>
		</g>
		<path style="fill:#E17B8D;" d="M117.707,105.068c0,0,29.041-38.801,14.33-44.887s-19.932,15.417-19.932,15.417    s-10.845-20.22-23.062-7.503S114.747,107.756,117.707,105.068z"/>
	</g>
	<g>
		<g>
			<path style="fill:#E17B8D;" d="M126.83,169.587c0,0,18.087-14.347,23.174,0.584c3.597,10.555-20.541,11.285-16.523,8.361     c4.017-2.924,12.517,7.128,4.103,12.687C129.17,196.779,114.641,177.359,126.83,169.587z"/>
			<path style="fill:#241726;" d="M133.528,187.24c-0.523,0-1.04-0.086-1.546-0.259c-3.578-1.228-5.082-6.49-5.145-6.712     c-0.164-0.588,0.179-1.198,0.767-1.364c0.588-0.162,1.198,0.179,1.364,0.767c0.342,1.213,1.68,4.514,3.736,5.216     c0.992,0.339,2.088,0.048,3.359-0.893c1.872-1.388,1.5-2.609,1.057-3.407c-0.506-0.906-1.39-1.699-2.33-2.311     c-2.101,0.35-4.514,0.253-5.303-0.86c-0.396-0.56-0.365-1.273,0.08-1.859c0.396-0.521,1.232-1.059,2.998-0.662     c0.791,0.179,1.714,0.538,2.627,1.04c0.666-0.162,1.325-0.396,1.907-0.718c1.647-0.914,1.643-1.961,1.643-2.304     c-0.002-0.607-0.184-1.016-0.592-1.327c-1.695-1.293-6.349-0.417-7.845-0.006c-0.584,0.156-1.198-0.184-1.36-0.776     c-0.162-0.588,0.186-1.198,0.776-1.36c0.696-0.188,6.9-1.805,9.769,0.38c0.956,0.726,1.461,1.794,1.466,3.085     c0.004,1.98-1.267,3.623-3.53,4.609c1.068,0.968,1.902,2.138,2.175,3.422c0.266,1.256,0.097,3.115-2.218,4.832     C136.064,186.75,134.773,187.24,133.528,187.24z"/>
		</g>
		<g>
			<path style="fill:#E17B8D;" d="M123.939,167.323c0,0,2.131-22.988-13.154-19.088c-10.805,2.757,1.775,23.369,2.028,18.407     c0.253-4.962-12.81-6.587-12.868,3.498C99.888,180.223,124.092,181.777,123.939,167.323z"/>
			<path style="fill:#241726;" d="M110.913,173.764c-1.494,0-3.117-0.285-4.356-1.252c-1.427-1.111-2.077-2.854-1.939-5.182     c0.173-2.877,1.639-4.034,2.836-4.499c1.221-0.471,2.659-0.413,4.051-0.048c-0.411-2.432,0.27-4.397,1.933-5.476     c1.081-0.698,2.248-0.86,3.383-0.458c3.401,1.213,5.435,7.287,5.657,7.977c0.186,0.582-0.134,1.204-0.716,1.39     c-0.582,0.188-1.208-0.132-1.392-0.713c-0.709-2.201-2.501-5.93-4.293-6.568c-0.484-0.173-0.925-0.099-1.433,0.229     c-0.29,0.188-1.165,0.757-1.031,2.635c0.048,0.664,0.212,1.345,0.439,1.989c0.921,0.491,1.725,1.068,2.309,1.634     c1.291,1.258,1.301,2.255,1.081,2.869c-0.246,0.696-0.802,1.193-1.511,1.083c-1.366-0.048-2.769-2.021-3.623-3.98     c-1.027-0.443-2.17-0.737-3.206-0.677c-0.91,0.065-2.134,0.419-2.274,2.745c-0.093,1.574,0.262,2.655,1.09,3.301     c1.71,1.336,5.208,0.651,6.408,0.279c0.582-0.182,1.204,0.141,1.388,0.724c0.184,0.582-0.138,1.202-0.722,1.386     C114.861,173.195,113.019,173.764,110.913,173.764z"/>
		</g>
		<path style="fill:#241726;" d="M129.784,164.206c-0.257,0-0.515-0.089-0.724-0.27c-0.463-0.4-0.512-1.098-0.112-1.561    c0.893-1.033,8.904-10.098,14.789-10.193c1.435-0.017,2.7,0.491,3.658,1.531c0.415,0.45,0.387,1.15-0.063,1.563    c-0.447,0.417-1.146,0.391-1.563-0.063c-0.527-0.571-1.061-0.813-1.998-0.817c-4.148,0.065-10.898,6.827-13.15,9.428    C130.402,164.077,130.093,164.206,129.784,164.206z"/>
		<path style="fill:#241726;" d="M126.532,162.012c-0.182,0-0.365-0.045-0.536-0.138c-0.534-0.296-0.729-0.968-0.432-1.505    c0.056-0.099,5.48-10.083,0.847-14.903c-0.424-0.441-0.411-1.141,0.03-1.565c0.445-0.424,1.144-0.409,1.565,0.03    c5.763,5.999-0.246,17.044-0.506,17.511C127.297,161.807,126.921,162.012,126.532,162.012z"/>
	</g>
	<g>
		<g>
			<path style="fill:#E17B8D;" d="M454.691,364.689c0,0-14.148,18.243-22.646,4.954c-6.008-9.395,17.261-15.854,14.056-12.057     s-13.855-3.94-7.008-11.345C445.94,338.838,464.677,354.238,454.691,364.689z"/>
			<path style="fill:#241726;" d="M444.417,367.859c-0.744,0-1.451-0.112-2.078-0.385c-1.1-0.478-1.846-1.392-2.157-2.646     c-0.478-1.922,0.365-3.822,2.326-5.318c-1.265-0.685-2.354-1.621-2.923-2.802c-0.558-1.159-0.839-3.005,1.003-5.225     c1.485-1.79,3.154-2.618,4.953-2.458c3.766,0.337,6.483,5.091,6.598,5.294c0.3,0.532,0.112,1.206-0.419,1.507     c-0.538,0.296-1.208,0.11-1.509-0.419c-0.62-1.098-2.707-3.986-4.871-4.177c-1.033-0.108-2.041,0.452-3.048,1.667     c-1.487,1.794-0.834,2.89-0.216,3.558c0.707,0.763,1.755,1.321,2.812,1.691c1.956-0.841,4.326-1.323,5.355-0.426     c0.519,0.45,0.657,1.15,0.365,1.825c-0.259,0.597-0.947,1.319-2.75,1.355c-0.839,0.002-1.799-0.112-2.804-0.385     c-0.605,0.316-1.191,0.7-1.678,1.152c-1.381,1.28-1.128,2.294-1.046,2.629c0.147,0.59,0.422,0.943,0.888,1.148     c1.751,0.757,5.601-0.739,7.623-1.861c0.536-0.298,1.211-0.106,1.505,0.428c0.298,0.534,0.106,1.208-0.428,1.505     C451.406,365.801,447.603,367.859,444.417,367.859z"/>
		</g>
		<g>
			<path style="fill:#E17B8D;" d="M458.038,366.2c0,0,3.407,22.833,17.323,15.405c9.837-5.252-7.292-22.273-6.355-17.394     c0.937,4.88,14.01,3.345,11.664-6.463C478.323,347.941,454.446,352.198,458.038,366.2z"/>
			<path style="fill:#241726;" d="M467.838,374.697c-0.13,0-0.259-0.006-0.391-0.022c-3.593-0.367-7.015-5.781-7.393-6.397     c-0.32-0.521-0.158-1.202,0.363-1.522c0.512-0.313,1.2-0.158,1.522,0.363c1.213,1.967,3.842,5.162,5.733,5.355     c0.502,0.039,0.921-0.123,1.338-0.566c0.236-0.251,0.953-1.012,0.374-2.806c-0.203-0.631-0.525-1.252-0.901-1.825     c-1.01-0.257-1.928-0.625-2.629-1.038c-1.556-0.912-1.803-1.879-1.736-2.527c0.074-0.733,0.538-1.273,1.211-1.414     c1.353-0.292,3.174,1.308,4.468,3.005c1.1,0.184,2.285,0.205,3.273-0.108c0.867-0.281,1.972-0.917,1.552-3.21     c-0.283-1.552-0.884-2.516-1.842-2.947c-1.974-0.888-5.212,0.605-6.293,1.258c-0.514,0.316-1.2,0.149-1.52-0.374     c-0.316-0.521-0.149-1.202,0.372-1.518c0.197-0.121,4.894-2.944,8.345-1.388c1.649,0.741,2.698,2.279,3.117,4.57     c0.517,2.836-0.629,4.311-1.682,5.046c-1.074,0.752-2.46,1.023-3.924,1.014c0.979,2.266,0.785,4.334-0.573,5.779     C469.835,374.262,468.88,374.697,467.838,374.697z"/>
		</g>
		<path style="fill:#241726;" d="M441.077,385.802c-0.917,0-1.777-0.266-2.577-0.793c-0.508-0.337-0.649-1.025-0.311-1.535    c0.339-0.508,1.029-0.649,1.535-0.311c0.651,0.432,1.327,0.532,2.134,0.318c4.019-1.055,8.961-9.229,10.526-12.29    c0.281-0.547,0.947-0.759,1.489-0.482c0.545,0.279,0.761,0.945,0.482,1.49c-0.249,0.486-6.146,11.905-11.935,13.423    C441.961,385.741,441.511,385.802,441.077,385.802z"/>
		<path style="fill:#241726;" d="M460.252,390.058c-0.203,0-0.409-0.056-0.592-0.171c-7.028-4.453-3.82-16.613-3.679-17.128    c0.16-0.588,0.765-0.932,1.358-0.778c0.59,0.16,0.938,0.767,0.778,1.358c-0.03,0.11-2.921,11.099,2.728,14.676    c0.517,0.329,0.67,1.012,0.344,1.528C460.976,389.877,460.617,390.058,460.252,390.058z"/>
	</g>
	<path style="fill:#241726;" d="M147.755,240.976l-0.006,0l-4.282-0.015l4.536-3.075c0.506-0.344,0.638-1.032,0.295-1.538   c-0.346-0.508-1.038-0.634-1.538-0.295l-6.12,4.149l0.136-7.15c0.012-0.612-0.474-1.115-1.086-1.128h-0.006   c-0.607-0.008-1.109,0.476-1.121,1.086l-0.12,6.31l-3.743-4.06c-0.416-0.447-1.114-0.479-1.564-0.064   c-0.449,0.414-0.477,1.116-0.064,1.564l3.851,4.177l-7.092-0.025c-0.612-0.001-1.109,0.491-1.11,1.103   c-0.001,0.607,0.485,1.102,1.092,1.11l0.011,0l6.469,0.023l-5.055,3.427c-0.506,0.344-0.638,1.032-0.295,1.538   c0.212,0.312,0.554,0.481,0.902,0.485c0.221,0.003,0.442-0.059,0.636-0.191l5.865-3.976l-0.137,7.203   c-0.012,0.612,0.474,1.115,1.086,1.128l0.006,0c0.607,0.008,1.109-0.476,1.121-1.086l0.129-6.803l3.989,4.327   c0.215,0.232,0.506,0.353,0.8,0.356c0.272,0.004,0.548-0.092,0.765-0.293c0.449-0.414,0.477-1.116,0.064-1.564l-4.177-4.531   l5.75,0.02c0.612,0.001,1.109-0.491,1.11-1.103C148.854,241.478,148.367,240.984,147.755,240.976z"/>
	<path style="fill:#241726;" d="M313.294,26.882l-0.006,0l-4.282-0.015l4.536-3.075c0.506-0.344,0.638-1.032,0.295-1.538   c-0.346-0.508-1.038-0.634-1.538-0.295l-6.12,4.149l0.136-7.15c0.012-0.612-0.474-1.115-1.086-1.128l-0.006,0   c-0.607-0.008-1.109,0.476-1.121,1.086l-0.12,6.31l-3.743-4.06c-0.416-0.446-1.114-0.479-1.564-0.064   c-0.449,0.414-0.477,1.116-0.064,1.564l3.851,4.177l-7.092-0.025c-0.612-0.001-1.109,0.491-1.111,1.103   c-0.001,0.607,0.485,1.103,1.092,1.11l0.011,0l6.469,0.023l-5.055,3.427c-0.506,0.344-0.638,1.032-0.295,1.538   c0.212,0.312,0.554,0.481,0.902,0.485c0.22,0.003,0.442-0.059,0.636-0.191l5.865-3.976l-0.137,7.203   c-0.012,0.612,0.474,1.115,1.086,1.128l0.007,0c0.607,0.008,1.109-0.476,1.121-1.086l0.129-6.803l3.989,4.327   c0.215,0.232,0.506,0.353,0.8,0.356c0.272,0.004,0.548-0.092,0.765-0.293c0.449-0.413,0.477-1.116,0.064-1.564l-4.177-4.531   l5.75,0.02c0.612,0.001,1.109-0.492,1.111-1.103C314.392,27.385,313.906,26.89,313.294,26.882z"/>
	<path style="fill:#241726;" d="M415.228,234.377l-0.006,0l-4.282-0.015l4.536-3.075c0.506-0.344,0.638-1.032,0.295-1.538   c-0.346-0.508-1.038-0.634-1.538-0.295l-6.12,4.149l0.136-7.15c0.012-0.612-0.474-1.115-1.086-1.128l-0.007,0   c-0.607-0.008-1.109,0.476-1.121,1.086l-0.12,6.31l-3.743-4.06c-0.416-0.446-1.114-0.479-1.564-0.064   c-0.449,0.414-0.477,1.116-0.064,1.564l3.851,4.177l-7.092-0.025c-0.612-0.001-1.109,0.491-1.11,1.103   c-0.001,0.607,0.485,1.103,1.092,1.11l0.011,0l6.469,0.023l-5.055,3.427c-0.506,0.344-0.638,1.032-0.295,1.538   c0.212,0.312,0.554,0.481,0.902,0.485c0.221,0.003,0.442-0.059,0.636-0.191l5.865-3.976l-0.137,7.203   c-0.012,0.612,0.474,1.115,1.086,1.128l0.007,0c0.607,0.008,1.109-0.476,1.121-1.086l0.129-6.803l3.989,4.327   c0.215,0.232,0.506,0.353,0.8,0.356c0.272,0.004,0.548-0.092,0.765-0.293c0.449-0.413,0.477-1.116,0.064-1.564l-4.177-4.531   l5.75,0.02c0.612,0.001,1.109-0.492,1.111-1.103C416.326,234.88,415.84,234.385,415.228,234.377z"/>
	<path style="fill:#241726;" d="M69.458,180.876c-0.264,0-0.523-0.095-0.726-0.272c-2.317-2.017-22.474-19.956-16.451-28.209   c1.267-1.734,3.029-2.65,5.095-2.65c2.449,0,5.288,1.312,7.791,3.56c2.114-3.113,5.193-4.443,8.515-3.602   c0.966,0.244,1.742,0.889,2.246,1.861c3.119,6.038-4.553,26.311-5.437,28.603c-0.132,0.337-0.417,0.59-0.767,0.677   C69.636,180.865,69.547,180.876,69.458,180.876z M57.376,151.957c-1.368,0-2.451,0.571-3.305,1.742   c-3.844,5.266,8.52,18.341,14.919,24.169c2.519-6.855,7.063-21.246,4.972-25.289c-0.279-0.54-0.603-0.677-0.824-0.733   c-0.48-0.121-0.951-0.182-1.405-0.182c-2.46,0-4.077,1.814-4.974,3.254c1.926,2.216,3.496,5.145,2.633,7.37   c-0.37,0.953-1.325,2.123-3.775,2.292c-0.956-0.061-1.74-0.422-2.205-1.191c-1.027-1.701-0.735-5.072,0.644-8.096   C61.883,153.222,59.376,151.957,57.376,151.957z M65.701,157.118c-0.824,2.272-0.839,4.391-0.396,5.128   c1.211,0.045,1.822-0.242,2.021-0.757C67.64,160.678,67.152,159.014,65.701,157.118z"/>
	<path style="fill:#241726;" d="M466.884,437.664c-0.089,0-0.177-0.011-0.266-0.032c-0.35-0.086-0.636-0.339-0.767-0.677   c-0.884-2.292-8.556-22.563-5.435-28.603c0.502-0.973,1.28-1.617,2.246-1.861c3.325-0.843,6.403,0.489,8.515,3.602   c2.503-2.248,5.342-3.56,7.789-3.56c2.067,0,3.829,0.917,5.095,2.65c6.025,8.254-14.132,26.192-16.451,28.209   C467.407,437.568,467.148,437.664,466.884,437.664z M464.612,408.453c-0.454,0-0.925,0.061-1.405,0.182   c-0.22,0.056-0.545,0.192-0.826,0.733c-2.088,4.045,2.456,18.434,4.972,25.289c6.399-5.828,18.764-18.903,14.919-24.169   c-0.854-1.172-1.935-1.742-3.305-1.742c-1.997,0-4.505,1.263-6.678,3.336c1.377,3.022,1.669,6.395,0.644,8.094   c-0.467,0.774-1.189,1.198-2.034,1.2c-2.622-0.175-3.578-1.345-3.945-2.296c-0.863-2.227,0.707-5.158,2.631-7.372   C468.689,410.267,467.072,408.453,464.612,408.453z M470.642,413.905c-1.451,1.896-1.939,3.56-1.626,4.373   c0.201,0.512,0.826,0.809,1.861,0.88C471.452,418.318,471.461,416.182,470.642,413.905z"/>
	<path style="fill:#241726;" d="M460.059,340.72c-0.199,0-0.396-0.052-0.569-0.156c-0.279-0.166-0.478-0.445-0.532-0.765   c-0.089-0.534,0.238-1.059,0.75-1.234c0.134-0.045,1.109-0.378,2.601-0.994c0.569-0.238,1.213,0.035,1.444,0.601   c0.233,0.564-0.035,1.211-0.601,1.444c-1.565,0.646-2.588,0.997-2.728,1.044C460.306,340.7,460.183,340.72,460.059,340.72z    M466.778,337.866c-0.406,0-0.8-0.227-0.992-0.616c-0.27-0.549-0.045-1.213,0.502-1.483c1.332-0.657,2.622-1.351,3.835-2.065   c0.519-0.303,1.202-0.136,1.515,0.396c0.309,0.527,0.132,1.204-0.396,1.515c-1.258,0.737-2.594,1.457-3.973,2.138   C467.111,337.829,466.945,337.866,466.778,337.866z M474.407,333.363c-0.346,0-0.687-0.162-0.904-0.467   c-0.352-0.499-0.236-1.189,0.264-1.544c1.221-0.865,2.356-1.764,3.377-2.672c0.456-0.409,1.157-0.365,1.563,0.089   c0.406,0.458,0.368,1.157-0.089,1.563c-1.083,0.964-2.283,1.915-3.571,2.828C474.853,333.296,474.63,333.363,474.407,333.363z    M480.973,327.446c-0.251,0-0.502-0.084-0.709-0.257c-0.469-0.391-0.532-1.09-0.141-1.559c0.943-1.128,1.738-2.294,2.367-3.463   c0.29-0.538,0.964-0.739,1.498-0.452c0.538,0.29,0.741,0.96,0.452,1.498c-0.698,1.304-1.58,2.594-2.618,3.835   C481.604,327.31,481.288,327.446,480.973,327.446z M485.043,319.685c-0.082,0-0.166-0.009-0.251-0.028   c-0.597-0.138-0.966-0.735-0.828-1.329c0.244-1.046,0.368-2.116,0.368-3.184c0-0.294-0.011-0.588-0.028-0.886   c-0.037-0.61,0.428-1.135,1.038-1.172c0.653-0.054,1.137,0.428,1.172,1.038c0.022,0.342,0.032,0.683,0.032,1.02   c0,1.237-0.143,2.477-0.424,3.686C486.003,319.339,485.547,319.685,485.043,319.685z M484.546,310.969   c-0.463,0-0.895-0.292-1.051-0.757c-0.417-1.252-1.003-2.538-1.738-3.824c-0.305-0.53-0.121-1.206,0.411-1.509   c0.521-0.303,1.204-0.125,1.509,0.411c0.809,1.412,1.455,2.832,1.92,4.222c0.192,0.579-0.121,1.206-0.7,1.401   C484.78,310.952,484.663,310.969,484.546,310.969z M480.242,303.277c-0.335,0-0.666-0.151-0.884-0.439   c-0.899-1.193-1.799-2.356-2.694-3.474c-0.383-0.476-0.307-1.174,0.171-1.554c0.473-0.383,1.172-0.307,1.554,0.171   c0.908,1.131,1.82,2.311,2.737,3.522c0.368,0.489,0.27,1.182-0.216,1.552C480.709,303.204,480.476,303.277,480.242,303.277z    M456.661,297.728c-1.572,0-2.586-0.947-2.586-2.41c0-0.028,0.009-0.223,0.011-0.251c0.045-0.612,0.64-1.103,1.187-1.018   c0.61,0.045,1.066,0.577,1.018,1.187c0,0,0.017,0.238,0.019,0.253c-0.004-0.015,0.121,0.026,0.35,0.026   c0.279,0,0.785-0.058,1.6-0.337c0.579-0.188,1.206,0.112,1.405,0.692c0.197,0.577-0.112,1.206-0.692,1.405   C458.09,297.574,457.312,297.728,456.661,297.728z M474.68,296.39c-0.307,0-0.612-0.125-0.83-0.374   c-1.044-1.182-2.049-2.237-2.992-3.137c-0.441-0.422-0.458-1.122-0.035-1.565c0.422-0.439,1.12-0.458,1.565-0.035   c0.986,0.94,2.036,2.041,3.122,3.271c0.404,0.458,0.361,1.159-0.097,1.563C475.203,296.299,474.941,296.39,474.68,296.39z    M462.591,295.38c-0.372,0-0.737-0.188-0.945-0.532c-0.318-0.521-0.153-1.202,0.37-1.52c1.146-0.698,2.339-1.524,3.545-2.451   c0.482-0.37,1.176-0.281,1.552,0.203c0.372,0.484,0.281,1.178-0.203,1.552c-1.269,0.975-2.527,1.846-3.744,2.586   C462.987,295.328,462.788,295.38,462.591,295.38z M456.929,292.226c-0.203,0-0.409-0.056-0.592-0.173   c-0.517-0.326-0.67-1.01-0.342-1.526c1.016-1.604,2.168-2.787,3.424-3.517c0.525-0.307,1.204-0.132,1.513,0.402   c0.307,0.527,0.128,1.206-0.402,1.513c-0.945,0.549-1.842,1.487-2.668,2.787C457.653,292.044,457.295,292.226,456.929,292.226z    M468.222,290.36c-0.216,0-0.435-0.063-0.627-0.195c-1.297-0.891-2.508-1.47-3.595-1.719c-0.597-0.136-0.969-0.729-0.832-1.325   c0.134-0.592,0.722-0.977,1.325-0.832c1.342,0.307,2.728,0.949,4.228,1.965c0.045-0.061,0.095-0.119,0.153-0.173   c1.055-0.966,2.09-1.995,3.076-3.061c0.417-0.45,1.115-0.476,1.565-0.061c0.448,0.415,0.476,1.115,0.061,1.565   c-1.027,1.109-2.106,2.181-3.206,3.191c-0.346,0.32-0.841,0.374-1.243,0.173C468.914,290.196,468.57,290.36,468.222,290.36z    M475.631,283.503c-0.238,0-0.478-0.076-0.679-0.233c-0.484-0.374-0.571-1.07-0.195-1.552c0.895-1.152,1.732-2.341,2.486-3.535   c0.331-0.519,1.018-0.662,1.528-0.344c0.517,0.329,0.67,1.012,0.344,1.528c-0.793,1.252-1.671,2.499-2.611,3.707   C476.286,283.356,475.96,283.503,475.631,283.503z M480.342,276.015c-0.164,0-0.329-0.037-0.484-0.112   c-0.549-0.266-0.778-0.93-0.51-1.479c0.638-1.31,1.18-2.64,1.613-3.956c0.188-0.579,0.815-0.904,1.397-0.705   c0.582,0.19,0.897,0.815,0.705,1.397c-0.463,1.409-1.042,2.834-1.725,4.233C481.146,275.786,480.75,276.015,480.342,276.015z    M483.063,267.629c-0.058,0-0.119-0.004-0.177-0.013c-0.603-0.097-1.014-0.666-0.919-1.269c0.195-1.213,0.294-2.432,0.294-3.621   c0.002-0.199,0-0.387-0.006-0.575c-0.019-0.61,0.46-1.122,1.072-1.141c0.562,0.013,1.122,0.463,1.141,1.072   c0.006,0.218,0.009,0.437,0.006,0.655c0,1.297-0.108,2.633-0.32,3.96C484.066,267.242,483.597,267.629,483.063,267.629z    M482.804,258.835c-0.506,0-0.962-0.346-1.079-0.86c-0.29-1.26-0.705-2.518-1.234-3.738l-0.108-0.253   c-0.244-0.562,0.011-1.213,0.571-1.457c0.562-0.24,1.213,0.011,1.457,0.571l0.115,0.266c0.579,1.336,1.038,2.724,1.358,4.118   c0.136,0.595-0.236,1.189-0.832,1.325C482.968,258.826,482.884,258.835,482.804,258.835z M479.336,250.735   c-0.37,0-0.731-0.186-0.94-0.523c-0.761-1.228-1.604-2.382-2.508-3.431c-0.398-0.463-0.346-1.161,0.117-1.561   c0.465-0.396,1.163-0.348,1.561,0.117c0.977,1.135,1.889,2.382,2.711,3.708c0.322,0.521,0.162,1.202-0.357,1.524   C479.738,250.681,479.537,250.735,479.336,250.735z M445.361,249.582c-0.162,0-0.326-0.035-0.482-0.11   c-0.791-0.383-1.485-1.038-2.067-1.948c-0.517-0.811-0.813-1.658-0.886-2.518c-0.052-0.61,0.4-1.144,1.01-1.195   c0.547-0.043,1.146,0.398,1.195,1.01c0.043,0.499,0.227,1.01,0.549,1.515c0.355,0.558,0.748,0.943,1.163,1.144   c0.549,0.266,0.78,0.927,0.514,1.479C446.168,249.353,445.772,249.582,445.361,249.582z M449.469,248.733   c-0.337,0-0.672-0.153-0.888-0.447c-0.365-0.491-0.262-1.185,0.229-1.548c0.91-0.677,1.844-1.678,2.774-2.977   c0.355-0.502,1.051-0.612,1.544-0.255c0.497,0.355,0.612,1.046,0.255,1.544c-1.061,1.485-2.158,2.653-3.254,3.465   C449.931,248.661,449.698,248.733,449.469,248.733z M473.573,244.068c-0.249,0-0.497-0.082-0.703-0.251   c-1.096-0.899-2.268-1.703-3.487-2.391c-0.534-0.3-0.722-0.975-0.422-1.507c0.3-0.536,0.981-0.72,1.507-0.422   c1.332,0.75,2.611,1.628,3.807,2.607c0.471,0.389,0.54,1.085,0.153,1.559C474.208,243.929,473.893,244.068,473.573,244.068z    M444.801,242.133c-0.294,0-0.588-0.117-0.806-0.348c-0.419-0.445-0.398-1.146,0.048-1.565c1.053-0.99,2.428-1.84,4.092-2.521   c0.569-0.231,1.211,0.039,1.444,0.605c0.231,0.566-0.039,1.213-0.605,1.444c-1.392,0.569-2.57,1.288-3.413,2.084   C445.346,242.033,445.074,242.133,444.801,242.133z M454.748,241.709c-0.166,0-0.335-0.037-0.495-0.117   c-0.547-0.275-0.767-0.938-0.495-1.485c0.279-0.556,0.545-1.128,0.8-1.716c-0.53,0.056-1.051,0.13-1.563,0.218   c-0.575,0.117-1.176-0.296-1.28-0.899c-0.106-0.601,0.296-1.174,0.899-1.28c0.93-0.164,1.887-0.277,2.86-0.335   c0.231-0.536,0.841-0.8,1.394-0.601c0.301,0.108,0.525,0.335,0.642,0.607c0.443,0.149,0.776,0.562,0.776,1.048   c0,0.679-0.614,1.103-1.271,1.107c-0.396,0.981-0.824,1.933-1.278,2.841C455.543,241.484,455.152,241.709,454.748,241.709z    M465.901,239.746c-0.123,0-0.246-0.019-0.37-0.063c-1.314-0.465-2.694-0.824-4.097-1.061c-0.603-0.104-1.007-0.674-0.906-1.278   c0.104-0.603,0.694-1.007,1.278-0.906c1.528,0.262,3.029,0.651,4.464,1.157c0.575,0.205,0.878,0.837,0.674,1.414   C466.783,239.463,466.357,239.746,465.901,239.746z M457.787,233.408c-0.089,0-0.179-0.011-0.27-0.035   c-0.592-0.149-0.953-0.75-0.802-1.342c0.35-1.39,0.633-2.815,0.841-4.233c0.091-0.605,0.666-1.01,1.256-0.936   c0.605,0.091,1.025,0.653,0.936,1.256c-0.22,1.494-0.519,2.992-0.888,4.453C458.734,233.073,458.282,233.408,457.787,233.408z    M459.065,224.659c-0.013,0-0.028,0-0.041,0c-0.612-0.024-1.087-0.538-1.066-1.148c0.019-0.502,0.03-1.001,0.03-1.505   c0.002-0.932-0.035-1.866-0.106-2.797c-0.05-0.61,0.406-1.141,1.016-1.189c0.616-0.035,1.141,0.406,1.189,1.016   c0.08,0.992,0.117,1.982,0.115,2.972c0,0.527-0.011,1.057-0.03,1.585C460.148,224.19,459.657,224.659,459.065,224.659z    M458.354,215.85c-0.51,0-0.968-0.357-1.081-0.876c-0.3-1.412-0.7-2.787-1.189-4.088c-0.216-0.573,0.074-1.211,0.646-1.425   c0.566-0.218,1.211,0.076,1.425,0.646c0.527,1.403,0.96,2.886,1.284,4.404c0.128,0.599-0.255,1.187-0.852,1.314   C458.509,215.841,458.432,215.85,458.354,215.85z M455.234,207.602c-0.38,0-0.752-0.197-0.958-0.551   c-0.729-1.256-1.554-2.393-2.456-3.381c-0.413-0.452-0.38-1.15,0.071-1.563s1.152-0.378,1.563,0.071   c1.007,1.103,1.928,2.369,2.737,3.762c0.307,0.53,0.125,1.206-0.402,1.513C455.615,207.555,455.425,207.602,455.234,207.602z    M419.718,203.408c-0.387,0-0.761-0.201-0.964-0.562c-0.303-0.532-0.115-1.206,0.417-1.507c0.065-0.039,1.624-0.917,4.129-1.959   c0.562-0.229,1.211,0.032,1.446,0.599c0.233,0.564-0.032,1.211-0.599,1.446c-2.369,0.984-3.872,1.831-3.887,1.84   C420.09,203.363,419.902,203.408,419.718,203.408z M449.281,201.167c-0.208,0-0.417-0.058-0.603-0.179   c-1.141-0.744-2.395-1.342-3.725-1.786c-0.582-0.192-0.895-0.819-0.703-1.399c0.192-0.579,0.817-0.901,1.399-0.703   c1.513,0.502,2.938,1.187,4.235,2.032c0.512,0.333,0.657,1.02,0.324,1.531C449.996,200.989,449.642,201.167,449.281,201.167z    M427.888,199.993c-0.471,0-0.908-0.303-1.057-0.776c-0.182-0.584,0.143-1.204,0.726-1.388c1.492-0.467,2.973-0.85,4.399-1.137   c0.588-0.125,1.182,0.266,1.304,0.867c0.121,0.599-0.266,1.183-0.867,1.304c-1.351,0.272-2.756,0.636-4.174,1.081   C428.108,199.978,427.996,199.993,427.888,199.993z M440.979,198.343c-0.039,0-0.078-0.002-0.117-0.006   c-1.407-0.145-2.832-0.147-4.231-0.054c-0.616,0.05-1.137-0.419-1.18-1.029c-0.041-0.61,0.419-1.137,1.029-1.18   c1.526-0.104,3.074-0.097,4.611,0.063c0.607,0.063,1.048,0.605,0.986,1.215C442.019,197.92,441.539,198.343,440.979,198.343z"/>
	<path style="fill:#241726;" d="M56.36,315.729c-1.018,0-2.032-0.082-3.016-0.242c-0.603-0.097-1.014-0.666-0.914-1.269   c0.099-0.605,0.674-1.02,1.269-0.914c1.338,0.216,2.735,0.266,4.144,0.151c0.599-0.052,1.144,0.404,1.193,1.012   c0.05,0.61-0.402,1.144-1.012,1.193C57.467,315.705,56.911,315.729,56.36,315.729z M62.27,314.83c-0.476,0-0.917-0.309-1.059-0.789   c-0.177-0.586,0.156-1.202,0.741-1.377c1.304-0.391,2.622-0.923,3.922-1.576c0.534-0.275,1.208-0.058,1.485,0.491   c0.275,0.545,0.056,1.211-0.491,1.485c-1.412,0.713-2.854,1.291-4.28,1.719C62.482,314.815,62.376,314.83,62.27,314.83z    M49.3,314.233c-0.153,0-0.309-0.032-0.458-0.099c-1.416-0.644-2.758-1.483-3.986-2.49c-0.471-0.389-0.54-1.085-0.153-1.559   c0.391-0.471,1.087-0.54,1.559-0.153c1.079,0.886,2.257,1.624,3.498,2.188c0.556,0.253,0.802,0.91,0.549,1.466   C50.121,313.993,49.719,314.233,49.3,314.233z M42.499,308.705c-0.333,0-0.662-0.149-0.88-0.435   c-0.904-1.187-1.723-2.51-2.434-3.932c-0.272-0.547-0.052-1.213,0.495-1.485c0.553-0.277,1.213-0.05,1.485,0.495   c0.649,1.299,1.394,2.503,2.214,3.578c0.372,0.486,0.277,1.18-0.208,1.552C42.97,308.632,42.734,308.705,42.499,308.705z    M38.51,300.858c-0.467,0-0.901-0.298-1.053-0.765c-0.45-1.39-0.832-2.875-1.135-4.412c-0.119-0.599,0.27-1.182,0.871-1.299   c0.588-0.128,1.18,0.27,1.299,0.871c0.288,1.451,0.646,2.849,1.07,4.157c0.188,0.582-0.13,1.206-0.711,1.394   C38.737,300.841,38.622,300.858,38.51,300.858z M36.765,292.194c-0.56,0-1.042-0.426-1.098-0.997   c-0.145-1.438-0.233-2.953-0.264-4.505c-0.011-0.612,0.473-1.115,1.085-1.128c0.588,0.082,1.115,0.476,1.128,1.085   c0.028,1.494,0.115,2.949,0.251,4.328c0.063,0.607-0.383,1.15-0.99,1.211C36.841,292.191,36.802,292.194,36.765,292.194z    M36.72,283.363c-0.052,0-0.104-0.004-0.156-0.011c-0.605-0.084-1.027-0.644-0.943-1.25c0.225-1.602,0.618-3.124,1.172-4.522   c0.225-0.569,0.869-0.852,1.435-0.623c0.569,0.225,0.847,0.867,0.623,1.435c-0.489,1.237-0.837,2.588-1.038,4.017   C37.736,282.963,37.263,283.363,36.72,283.363z M69.322,277.805c-0.917,0-1.876-0.153-2.849-0.458   c-0.584-0.184-0.908-0.804-0.726-1.388c0.184-0.584,0.809-0.906,1.388-0.726c1.338,0.419,2.592,0.473,3.725,0.147   c0.582-0.175,1.2,0.171,1.368,0.759c0.169,0.586-0.171,1.2-0.759,1.368C70.781,277.705,70.059,277.805,69.322,277.805z    M62.912,275.334c-0.231,0-0.463-0.071-0.662-0.22c-1.18-0.88-2.32-1.954-3.392-3.193c-0.398-0.463-0.348-1.163,0.115-1.563   c0.463-0.393,1.161-0.35,1.563,0.115c0.964,1.12,1.987,2.084,3.037,2.869c0.491,0.365,0.59,1.059,0.225,1.548   C63.583,275.18,63.25,275.334,62.912,275.334z M39.995,275.262c-0.238,0-0.478-0.076-0.679-0.233   c-0.482-0.374-0.571-1.07-0.195-1.552c0.953-1.228,2.088-2.333,3.379-3.286c0.489-0.357,1.183-0.257,1.548,0.233   c0.363,0.491,0.259,1.185-0.233,1.548c-1.126,0.832-2.116,1.796-2.947,2.862C40.65,275.115,40.324,275.262,39.995,275.262z    M74.571,274.927c-0.136,0-0.272-0.024-0.406-0.078c-0.569-0.225-0.847-0.867-0.623-1.435c0.05-0.125,0.071-0.24,0.071-0.355   c0-0.571-0.56-1.28-1.535-1.95c-0.504-0.348-0.631-1.036-0.285-1.539c0.35-0.508,1.042-0.629,1.539-0.285   c2.062,1.418,2.495,2.832,2.495,3.766c0.004,0.389-0.074,0.787-0.227,1.176C75.429,274.661,75.012,274.927,74.571,274.927z    M46.999,270.005c-0.428,0-0.837-0.251-1.016-0.67c-0.242-0.562,0.017-1.213,0.579-1.453c1.358-0.584,2.836-1.061,4.397-1.42   c0.616-0.143,1.191,0.236,1.327,0.83c0.136,0.597-0.236,1.191-0.83,1.327c-1.433,0.329-2.784,0.765-4.021,1.295   C47.293,269.977,47.146,270.005,46.999,270.005z M68.708,269.426c-0.115,0-0.233-0.017-0.348-0.056   c-1.271-0.422-2.663-0.761-4.133-1.01c-0.603-0.102-1.01-0.672-0.908-1.275c0.102-0.603,0.692-1.007,1.275-0.908   c1.582,0.268,3.083,0.636,4.462,1.092c0.582,0.192,0.895,0.819,0.703,1.399C69.605,269.132,69.173,269.426,68.708,269.426z    M57.108,268.716c-0.374,0-0.739-0.19-0.947-0.534c-0.048-0.078-0.093-0.153-0.138-0.231c-0.117,0.009-0.233,0.017-0.35,0.026   c-0.597,0.041-1.144-0.404-1.191-1.014c-0.032-0.404,0.156-0.776,0.465-0.994c-0.303-0.612-0.59-1.239-0.858-1.879   c-0.238-0.564,0.028-1.213,0.592-1.448c0.569-0.233,1.213,0.028,1.448,0.592c0.352,0.839,0.737,1.654,1.154,2.439   c0.93-0.026,1.861-0.019,2.776,0.019c0.61,0.028,1.083,0.545,1.057,1.157c-0.028,0.607-0.495,1.111-1.157,1.055   c-0.584-0.024-1.174-0.032-1.775-0.035c-0.067,0.277-0.24,0.53-0.504,0.687C57.501,268.665,57.305,268.716,57.108,268.716z    M53.686,260.577c-0.491,0-0.938-0.329-1.07-0.824c-0.387-1.468-0.681-2.977-0.876-4.486c-0.078-0.605,0.35-1.161,0.958-1.239   c0.584-0.08,1.161,0.348,1.239,0.958c0.182,1.414,0.456,2.828,0.819,4.2c0.156,0.592-0.197,1.198-0.787,1.353   C53.874,260.566,53.779,260.577,53.686,260.577z M52.562,251.822c0,0-0.002,0-0.004,0c-0.61-0.002-1.105-0.499-1.103-1.111   c0.004-1.509,0.108-3.042,0.305-4.555c0.08-0.605,0.638-1.029,1.243-0.953c0.605,0.08,1.031,0.636,0.953,1.243   c-0.186,1.418-0.283,2.856-0.288,4.274C53.666,251.329,53.171,251.822,52.562,251.822z M53.699,243.064   c-0.091,0-0.184-0.011-0.277-0.035c-0.592-0.153-0.947-0.757-0.796-1.349c0.376-1.457,0.845-2.916,1.392-4.334   c0.221-0.573,0.863-0.854,1.431-0.636c0.571,0.221,0.854,0.863,0.636,1.431c-0.519,1.34-0.96,2.717-1.314,4.092   C54.641,242.734,54.192,243.064,53.699,243.064z M98.589,238.538c-0.521,0-1.055-0.091-1.582-0.27   c-0.579-0.197-0.889-0.826-0.692-1.405s0.826-0.884,1.405-0.692c1.051,0.357,1.965,0.095,2.804-0.843   c0.409-0.452,1.111-0.493,1.563-0.084c0.454,0.406,0.493,1.107,0.084,1.563C101.157,237.939,99.918,238.538,98.589,238.538z    M93.895,235.667c-0.316,0-0.629-0.134-0.85-0.396c-0.906-1.083-1.758-2.402-2.536-3.915c-0.279-0.545-0.063-1.213,0.48-1.492   c0.547-0.272,1.213-0.063,1.492,0.48c0.7,1.368,1.461,2.549,2.263,3.504c0.391,0.469,0.329,1.167-0.138,1.561   C94.399,235.582,94.146,235.667,93.895,235.667z M56.866,234.815c-0.173,0-0.346-0.039-0.51-0.123   c-0.543-0.281-0.754-0.949-0.473-1.494l0.29-0.547c0.638-1.189,1.336-2.322,2.077-3.368c0.357-0.499,1.048-0.61,1.544-0.264   c0.499,0.355,0.616,1.044,0.264,1.544c-0.69,0.973-1.34,2.026-1.935,3.135l-0.272,0.521   C57.653,234.597,57.266,234.815,56.866,234.815z M103.116,233.198c-0.017,0-0.037,0-0.056-0.002   c-0.61-0.03-1.079-0.549-1.048-1.161l0.004-0.201c0-1.04-0.387-2.132-1.15-3.247c-0.344-0.504-0.214-1.193,0.29-1.539   c0.502-0.339,1.191-0.214,1.539,0.29c1.018,1.489,1.535,3.003,1.535,4.497l-0.009,0.313   C104.192,232.738,103.701,233.198,103.116,233.198z M89.773,227.88c-0.458,0-0.889-0.288-1.046-0.746   c-0.482-1.399-0.899-2.871-1.237-4.378c-0.132-0.597,0.242-1.189,0.839-1.323c0.603-0.123,1.187,0.244,1.323,0.839   c0.318,1.427,0.711,2.819,1.167,4.14c0.199,0.577-0.108,1.208-0.685,1.407C90.015,227.861,89.892,227.88,89.773,227.88z    M62,227.646c-0.283,0-0.564-0.108-0.78-0.322c-0.432-0.43-0.435-1.131-0.004-1.565c1.092-1.098,2.281-2.097,3.539-2.97   c0.502-0.344,1.191-0.223,1.541,0.279c0.348,0.502,0.223,1.191-0.279,1.541c-1.148,0.796-2.235,1.708-3.232,2.711   C62.569,227.538,62.286,227.646,62,227.646z M98.701,225.911c-0.238,0-0.476-0.076-0.677-0.231   c-1.044-0.806-2.248-1.554-3.578-2.227c-0.545-0.275-0.763-0.94-0.489-1.487c0.275-0.547,0.943-0.761,1.487-0.489   c1.455,0.735,2.778,1.559,3.932,2.451c0.484,0.374,0.573,1.068,0.199,1.552C99.358,225.764,99.032,225.911,98.701,225.911z    M69.227,222.625c-0.419,0-0.821-0.24-1.007-0.649c-0.253-0.556-0.006-1.213,0.549-1.466c1.381-0.627,2.845-1.144,4.35-1.537   c0.594-0.156,1.198,0.203,1.351,0.793c0.153,0.592-0.203,1.195-0.793,1.351c-1.384,0.359-2.726,0.832-3.991,1.407   C69.536,222.592,69.381,222.625,69.227,222.625z M90.856,221.887c-0.115,0-0.231-0.017-0.346-0.056   c-1.332-0.437-2.726-0.793-4.144-1.059c-0.601-0.112-0.997-0.69-0.884-1.291c0.112-0.603,0.7-0.997,1.291-0.884   c0.011,0.002,0.024,0.004,0.035,0.006c-0.043-0.099-0.074-0.205-0.086-0.318c-0.182-1.496-0.296-3.014-0.339-4.514   c-0.017-0.612,0.465-1.122,1.074-1.139c0.61-0.026,1.122,0.465,1.139,1.074c0.041,1.433,0.149,2.884,0.322,4.311   c0.045,0.374-0.099,0.726-0.361,0.96c0.899,0.216,1.786,0.469,2.646,0.752c0.582,0.19,0.897,0.815,0.705,1.397   C91.753,221.593,91.321,221.887,90.856,221.887z M77.751,220.387c-0.562,0-1.044-0.428-1.1-0.999   c-0.058-0.61,0.387-1.15,0.994-1.211c1.046-0.102,2.088-0.149,3.141-0.145c0.48,0,0.962,0.013,1.44,0.037   c0.612,0.028,1.083,0.547,1.053,1.157c-0.028,0.612-0.532,1.152-1.157,1.053c-0.48-0.019-0.947-0.019-1.444-0.032   c-0.938,0-1.881,0.043-2.817,0.136C77.825,220.385,77.788,220.387,77.751,220.387z M87.564,210.421c-0.022,0-0.045,0-0.067-0.002   c-0.612-0.037-1.074-0.562-1.038-1.172c0.093-1.505,0.253-3.02,0.48-4.501c0.091-0.607,0.668-1.012,1.26-0.927   c0.605,0.091,1.02,0.657,0.927,1.26c-0.216,1.416-0.37,2.864-0.458,4.302C88.631,209.969,88.145,210.421,87.564,210.421z    M89.034,201.714c-0.115,0-0.231-0.017-0.346-0.056c-0.579-0.19-0.897-0.815-0.705-1.397c0.508-1.55,1.154-2.981,1.922-4.248   c0.316-0.523,0.999-0.687,1.52-0.374c0.523,0.316,0.69,0.997,0.374,1.52c-0.679,1.124-1.256,2.4-1.714,3.794   C89.933,201.417,89.498,201.714,89.034,201.714z M93.634,194.279c-0.3,0-0.601-0.121-0.819-0.363   c-0.411-0.452-0.378-1.152,0.076-1.563c1.161-1.055,2.488-1.939,3.941-2.627c0.556-0.253,1.215-0.026,1.474,0.527   c0.262,0.553,0.024,1.213-0.527,1.474c-1.256,0.592-2.4,1.355-3.401,2.263C94.166,194.184,93.9,194.279,93.634,194.279z    M114.647,191.369c-0.117,0-0.233-0.017-0.348-0.056c-0.017-0.006-1.688-0.553-4.136-0.917c-0.605-0.089-1.023-0.651-0.932-1.256   c0.089-0.603,0.662-1.018,1.256-0.932c2.653,0.391,4.434,0.979,4.51,1.003c0.579,0.192,0.893,0.819,0.7,1.399   C115.542,191.075,115.109,191.369,114.647,191.369z M101.507,190.483c-0.519,0-0.981-0.368-1.085-0.897   c-0.115-0.601,0.277-1.18,0.878-1.297c1.453-0.279,3.005-0.424,4.611-0.426h0.002c0.61,0,1.107,0.495,1.107,1.105   c0,0.612-0.493,1.109-1.105,1.109c-1.468,0.002-2.88,0.132-4.196,0.387C101.648,190.476,101.578,190.483,101.507,190.483z"/>
	<g>
		<path style="fill:#52AFA6;" d="M71.085,383.068c0,0,341.554-2.817,347.443,0s39.75,97.183,36.805,101.408    c-2.944,4.225-422.526,2.817-422.526-2.817C32.808,476.026,71.085,383.068,71.085,383.068z"/>
		<g>
			<path style="fill:#D98011;" d="M88.435,409.974c0,0-10.102-6.93-3.608-15.314c6.494-8.385,25.482-7.138,28.404,3.143     C116.154,408.084,99.825,420.44,88.435,409.974z"/>
			<path style="fill:#241726;" d="M90.698,396.183c-0.335,0-0.668-0.151-0.886-0.441c-0.365-0.489-0.27-1.178,0.216-1.546     c0.208-0.158,5.165-3.822,12.448-1.554c0.584,0.184,0.908,0.804,0.726,1.388c-0.184,0.582-0.798,0.912-1.388,0.726     c-6.148-1.922-10.282,1.079-10.454,1.206C91.161,396.111,90.929,396.183,90.698,396.183z"/>
		</g>
		<g>
			<path style="fill:#D98011;" d="M130.877,407.121c0,0-10.102-6.93-3.608-15.314c6.494-8.385,25.482-7.138,28.404,3.143     C158.595,405.231,142.267,417.587,130.877,407.121z"/>
			<path style="fill:#241726;" d="M133.139,393.329c-0.337,0-0.668-0.154-0.886-0.441c-0.365-0.489-0.27-1.178,0.216-1.546     c0.21-0.158,5.178-3.82,12.45-1.554c0.582,0.182,0.908,0.804,0.726,1.388c-0.184,0.582-0.796,0.91-1.388,0.726     c-6.152-1.92-10.284,1.077-10.457,1.208C133.601,393.258,133.37,393.329,133.139,393.329z"/>
		</g>
		<g>
			<path style="fill:#D98011;" d="M334.536,473.531c0,0-10.102-6.93-3.608-15.314c6.494-8.385,25.482-7.138,28.404,3.143     C362.255,471.641,345.926,483.997,334.536,473.531z"/>
			<path style="fill:#241726;" d="M336.798,459.74c-0.337,0-0.668-0.153-0.886-0.441c-0.365-0.489-0.27-1.178,0.216-1.546     c0.21-0.158,5.177-3.822,12.45-1.554c0.582,0.182,0.908,0.804,0.726,1.388c-0.184,0.584-0.798,0.912-1.388,0.726     c-6.15-1.92-10.284,1.077-10.457,1.208C337.26,459.668,337.029,459.74,336.798,459.74z"/>
		</g>
		<g>
			<path style="fill:#D98011;" d="M115.774,437.561c0,0-12.248-0.259-11.412-10.832c0.836-10.573,17.401-19.938,25.48-12.94     S131.037,440.072,115.774,437.561z"/>
			<path style="fill:#241726;" d="M109.499,424.967c-0.125,0-0.251-0.022-0.376-0.067c-0.573-0.205-0.871-0.837-0.666-1.409     c0.086-0.246,2.229-6.034,9.562-8.12c0.592-0.177,1.2,0.175,1.366,0.761c0.169,0.588-0.173,1.2-0.761,1.366     c-6.198,1.764-8.009,6.539-8.085,6.741C110.375,424.688,109.951,424.967,109.499,424.967z"/>
		</g>
		<g>
			<path style="fill:#E9B600;" d="M68.202,456.605c0,0-11.622,4.427-14.942,0.553c-3.321-3.874,4.981-30.438,8.855-29.331     s12.729,12.729,15.496,13.282c2.767,0.553,1.66-17.156,14.389-12.729c12.729,4.427,69.178,33.205,63.643,38.74     c-5.534,5.534-83.567,9.962-87.441,6.641C64.328,470.441,68.202,456.605,68.202,456.605z"/>
			<path style="fill:#241726;" d="M63.219,449.411c-0.575,0-1.059-0.445-1.103-1.027c-0.043-0.612,0.415-1.141,1.025-1.185     c2.717-0.195,6.747-0.683,8.353-1.241c-0.949-1.336-4.557-4.367-7.815-6.719c-0.495-0.357-0.607-1.051-0.249-1.546     c0.359-0.493,1.051-0.61,1.546-0.249c4.101,2.962,8.982,6.907,8.946,8.872c-0.009,0.512-0.257,0.966-0.679,1.247     c-1.812,1.208-8.6,1.747-9.944,1.844C63.274,449.411,63.248,449.411,63.219,449.411z"/>
			<path style="fill:#241726;" d="M79.273,448.302c-0.346,0-0.687-0.162-0.904-0.467c-0.352-0.497-0.238-1.185,0.257-1.539     c0.175-0.121,4.317-3.018,10.805-1.848c0.601,0.11,0.999,0.685,0.891,1.288c-0.11,0.603-0.705,0.979-1.288,0.891     c-5.513-1.01-9.088,1.448-9.123,1.474C79.716,448.237,79.494,448.302,79.273,448.302z"/>
			<path style="fill:#241726;" d="M85.358,462.693c-0.106,0-0.212-0.015-0.318-0.048c-4.737-1.42-5.614-5.374-6.196-7.99     c-0.175-0.789-0.342-1.537-0.564-1.982c-0.281-0.562-0.221-1.154,0.162-1.585c0.48-0.543,1.485-1.671,15.589,3.368     c0.575,0.205,0.876,0.839,0.67,1.414c-0.205,0.577-0.837,0.873-1.414,0.67c-4.743-1.693-10.316-3.394-12.61-3.729     c0.121,0.43,0.223,0.891,0.329,1.364c0.551,2.486,1.178,5.303,4.669,6.351c0.586,0.175,0.919,0.791,0.742,1.377     C86.275,462.384,85.834,462.693,85.358,462.693z"/>
		</g>
		<path style="fill:#FBFCFF;" d="M183.236,478.934c-1.174,0-2.127-0.281-2.882-0.843c-1.771-1.321-2.002-3.837-2.246-6.503    c-0.221-2.38-0.469-5.076-1.816-7.194c-3.251-5.104-14.506,0.339-14.62,0.396c-0.549,0.277-1.211,0.052-1.485-0.495    c-0.272-0.547-0.052-1.211,0.495-1.485c0.536-0.266,13.12-6.455,17.478,0.396c1.634,2.57,1.909,5.552,2.151,8.18    c0.208,2.255,0.387,4.2,1.366,4.931c0.597,0.445,1.632,0.525,3.081,0.233c3.081-0.616,4.994-2.702,7.019-4.909    c2.934-3.197,6.248-6.816,13.388-5.041c6.137,1.535,7.123,4.393,7.843,6.479c0.623,1.807,0.999,2.897,5.171,2.897    c3.245,0,5.696-2.127,8.068-4.185c2.432-2.108,4.944-4.278,8.252-4.04c2.908,0.22,5.904,2.255,9.428,6.401    c0.396,0.467,0.339,1.165-0.125,1.561c-0.469,0.398-1.165,0.342-1.561-0.125c-3.074-3.617-5.662-5.459-7.908-5.629    c-2.387-0.171-4.354,1.528-6.635,3.504c-2.553,2.216-5.446,4.728-9.518,4.728c-5.337,0-6.377-1.82-7.264-4.391    c-0.646-1.872-1.314-3.807-6.287-5.05c-5.85-1.461-8.338,1.25-11.222,4.388c-2.177,2.374-4.427,4.827-8.217,5.584    C184.481,478.863,183.831,478.934,183.236,478.934z"/>
		<g>
			<path style="fill:#B45036;" d="M328.798,247.609c12.243-8.533-33.877-6.536-40.334-17.051     c-0.904-1.473-0.955-21.896-0.906-33.882c4.345-3.165,7.458-6.62,9.678-9.909c12.115,3.457,22.328-12.047,20.144-25.529     c-1.098-6.777-6.2-6.498-11.007-4.543c3.71-19.451,6.914-50.469-9.345-54.271c0,0-48.317-25.382-69.211-3.059     c-5.58,5.961-11.141,22.839-13.994,39.976c-3.563-4.119-8.28-7.054-12.357-1.151c-7.769,11.246-5.194,29.659,7.26,31.713     c1.392,0.23,2.596,0.117,3.653-0.239c2.997,24.432,17.854,33.775,30.241,36.828c1.041,10.241,1.948,20.703,1.572,22.959     c-0.78,4.682-46.296,14.473-38.147,21.716C216.717,260.655,309.229,261.248,328.798,247.609z"/>
			<path style="fill:#B1739A;" d="M295.754,231.12c0.427-4.991,1.196-14.474,1.196-18.205c0-5.165-56.818,2.952-56.818,2.952     c-2.952,0.738,0.738,13.282-2.952,16.972c-2.778,2.778-21.447,3.465-32.395,6.784c-0.138,0.008-0.264-0.017-0.407,0.005     c-22.918,3.595-140.604,97.254-75.669,130.459c20.142,10.3,47.824,6.564,73.026-1.332c1.032,8.796,2.067,14.18,2.978,13.877     c4.427-1.476,116.587,5.903,126.18,2.214c4.204-1.617,5.148-26.625,4.634-54.891c49.655,41.726,93.66,22.506,92.769-10.782     C426.168,239.747,305.178,231.632,295.754,231.12z"/>
			<path style="fill:#241726;" d="M273.682,169.903c-0.46,0-0.873-0.179-1.176-0.512c-1.729-1.913-0.348-11.832,0.629-17.575     c0.104-0.603,0.694-0.999,1.278-0.906c0.603,0.104,1.007,0.674,0.906,1.278c-1.04,6.103-1.764,13.258-1.306,15.314     c1.818-1.193,6.576-7.268,10.327-12.759c0.346-0.506,1.033-0.629,1.539-0.29c0.504,0.346,0.633,1.033,0.29,1.539     c-3.496,5.117-9.75,13.727-12.366,13.907C273.762,169.9,273.721,169.903,273.682,169.903z"/>
			<path style="fill:#241726;" d="M234.337,162.148c-0.527,0-0.992-0.296-1.254-0.806c-1.232-2.41-3.478-15.881-3.729-17.409     c-0.099-0.603,0.309-1.172,0.912-1.271c0.592-0.108,1.172,0.309,1.271,0.912c0.826,5,2.209,12.504,3.102,15.593     c1.466-2.38,4.241-8.917,6.397-14.713c0.214-0.571,0.847-0.863,1.425-0.651c0.573,0.214,0.863,0.85,0.651,1.425     c-6.241,16.776-7.958,16.877-8.693,16.918C234.391,162.148,234.365,162.148,234.337,162.148z"/>
			<path style="fill:#241726;" d="M299.321,176.816c-0.249,0-0.499-0.084-0.707-0.255c-0.469-0.389-0.536-1.087-0.145-1.559     c3.035-3.662,8.528-9.694,11.144-8.809c2.983,0.986,2.162,6.955,1.84,8.76c-0.108,0.603-0.677,0.994-1.284,0.895     c-0.601-0.108-1.003-0.681-0.895-1.284c0.521-2.931,0.346-6.038-0.355-6.269c-0.004,0-0.009,0-0.013,0     c-1.04,0-5.132,3.777-8.734,8.122C299.954,176.68,299.639,176.816,299.321,176.816z"/>
			<path style="fill:#241726;" d="M211.56,160.12c-0.495,0-0.947-0.333-1.072-0.834c-1.392-5.493-3.478-10.681-4.464-11.101     c-0.011-0.002-0.022-0.002-0.03-0.002c-0.694,0-2.153,2.691-2.929,5.521c-0.162,0.59-0.761,0.94-1.36,0.776     c-0.59-0.162-0.936-0.77-0.776-1.36c0.484-1.771,2.322-7.499,5.422-7.121c2.745,0.346,5.115,8.133,6.282,12.742     c0.151,0.592-0.208,1.195-0.8,1.345C211.742,160.11,211.649,160.12,211.56,160.12z"/>
			<circle style="fill:#B1342F;" cx="281.035" cy="181.737" r="8.342"/>
			<circle style="fill:#B1342F;" cx="251.2" cy="187.089" r="8.342"/>
			<circle style="fill:#B1342F;" cx="226.718" cy="173.687" r="8.342"/>
			<path style="fill:#241726;" d="M256.305,174.689c-0.134,0-0.268-0.024-0.4-0.074c-1.777-0.687-6.818-2.523-8.773-2.767     c-0.484-0.061-0.891-0.333-1.144-0.772c-1.364-2.361,3.299-14.216,6.2-21.073c0.24-0.564,0.886-0.819,1.453-0.588     c0.562,0.24,0.826,0.889,0.588,1.453c-3.225,7.62-6.427,16.659-6.343,18.86c2.851,0.523,8.561,2.724,8.818,2.821     c0.569,0.221,0.854,0.863,0.633,1.433C257.168,174.421,256.748,174.689,256.305,174.689z"/>
			<path style="fill:#241726;" d="M250.2,192.677c-0.158,0-0.313-0.011-0.471-0.03c-3.256-0.426-5.357-4.849-6.615-13.922     c-0.084-0.605,0.339-1.163,0.945-1.247c0.584-0.08,1.163,0.335,1.247,0.945c1.455,10.491,3.779,11.907,4.711,12.03     c2.614,0.344,6.907-6.606,9.032-11.661c0.236-0.562,0.891-0.83,1.448-0.592c0.564,0.238,0.83,0.886,0.592,1.448     C260.155,181.872,255.348,192.677,250.2,192.677z"/>
			<path style="fill:#241726;" d="M254.022,208.29c-8.109,0-18.045-1.457-24.456-7.478c-0.447-0.417-0.469-1.118-0.05-1.563     c0.415-0.45,1.122-0.467,1.563-0.05c11.313,10.621,35.802,5.703,36.048,5.653c0.601-0.141,1.185,0.259,1.308,0.858     c0.125,0.599-0.259,1.185-0.858,1.308C267.082,207.122,261.284,208.29,254.022,208.29z"/>
			<path style="fill:#E17B8D;" d="M366.312,264.568c-9.593-8.855-4.427-9.593-10.331-12.544     c-4.684-2.342-12.616,17.605-15.693,25.948c-5.465-3.203-11.055-5.01-13.084-6.025c-4.427-2.214-56.08,56.818-56.08,56.818     s0.443,9.445,6.641,10.33c5.165,0.738,75.265-26.564,75.265-42.798c0-3.049-0.756-5.733-2.011-8.097     c10.488-1.565,25.939-7.817,28.576-12.564C383.284,268.995,375.905,273.423,366.312,264.568z"/>
			<path style="fill:#B45036;" d="M258.735,295.5c0,0,47.633-11.684,60.127,14.923c7.104,15.127-12.476-1.88-12.476-1.88     s7.205,4.808,4.542,13.74s-12.219-6.766-12.219-6.766s13.396,12.211,9.557,15.698s-17.234-8.724-17.234-8.724     s14.071,10.481,8.084,13.128c-5.988,2.648-20.025-13.099-34.988-14.954C264.127,320.665,257.387,296.399,258.735,295.5z"/>
			<path style="fill:#B45036;" d="M362.623,285.967c0,0-20.661-28.04-26.564-26.564c-5.903,1.476-2.952,6.641-2.952,6.641     s0-5.165-5.165-2.214c-5.165,2.952-2.952,5.903-2.952,5.903s-2.952-1.476-8.117,5.165c-5.165,6.641,20.661,33.205,27.302,35.419     C350.816,312.531,367.788,296.297,362.623,285.967z"/>
			<path style="fill:#241726;" d="M266.697,346.844c-0.582,0-1.068-0.452-1.105-1.038c-0.798-12.677-4.161-46.658-10.05-51.6     c-0.61-0.512-1.02-0.471-1.161-0.452c-47.196,5.283-95.275,22.327-97.004,26.017c-0.002,0.61-0.484,1.027-1.094,1.027     c0,0-0.002,0-0.004,0c-0.61-0.002-1.092-0.575-1.09-1.187c0.022-6.302,56.261-23.28,98.946-28.058     c0.981-0.097,1.941,0.21,2.83,0.956c7.685,6.449,10.537,48.396,10.837,53.159c0.039,0.61-0.426,1.135-1.035,1.174     C266.742,346.844,266.719,346.844,266.697,346.844z"/>
			<path style="fill:#E9B600;" d="M208.423,296.248c0,0,18.424-31.456,19.323-33.703s75.045-4.943,78.19-2.696     c3.146,2.247,8.538,18.424,8.538,18.424s-6.741,11.234-8.987,12.133C303.24,291.305,236.284,288.609,208.423,296.248z"/>
			<path style="fill:#241726;" d="M260.331,221.6c-7.735,0-13.349-0.592-13.831-0.644c-0.607-0.067-1.046-0.612-0.979-1.219     c0.067-0.61,0.649-1.042,1.219-0.981c0.246,0.026,24.703,2.598,42.685-3.1c0.592-0.182,1.206,0.138,1.39,0.72     c0.186,0.584-0.138,1.206-0.72,1.39C280.347,220.854,269.006,221.6,260.331,221.6z"/>
			<path style="fill:#241726;" d="M250.52,316.399c-0.54-7.716-0.34-13.358-0.322-13.842c0.024-0.611,0.537-1.086,1.148-1.062     c0.613,0.024,1.085,0.574,1.064,1.148c-0.009,0.248-0.869,24.824,6.07,42.365c0.222,0.578-0.054,1.213-0.621,1.437     c-0.569,0.226-1.213-0.054-1.437-0.621C252.66,336.315,251.125,325.053,250.52,316.399z"/>
			<path style="fill:#241726;" d="M204.379,302.748c-0.348,0-0.692-0.164-0.906-0.471c-9.696-13.853-0.058-34.396,0.357-35.266     c0.264-0.551,0.921-0.783,1.477-0.521c0.551,0.264,0.785,0.925,0.521,1.477c-0.095,0.201-9.492,20.252-0.543,33.039     c0.352,0.502,0.229,1.191-0.27,1.541C204.82,302.683,204.599,302.748,204.379,302.748z"/>
			<path style="fill:#241726;" d="M372.033,297.597c0.221,0.269,0.313,0.638,0.213,0.999c-4.519,16.294-26.5,21.929-27.435,22.161     c-0.593,0.147-1.19-0.213-1.341-0.808c-0.147-0.593,0.215-1.194,0.808-1.341c0.216-0.055,21.664-5.561,25.835-20.601     c0.163-0.591,0.773-0.935,1.361-0.772C371.702,297.298,371.892,297.426,372.033,297.597z"/>
			<path style="fill:#FBFCFF;" d="M229.992,260.506c-0.435,0-0.847-0.257-1.023-0.685c-3.282-7.966,3.742-25.271,4.043-26.004     c0.236-0.566,0.889-0.832,1.444-0.605c0.566,0.233,0.837,0.88,0.605,1.444c-0.071,0.171-6.983,17.193-4.047,24.322     c0.233,0.564-0.037,1.213-0.601,1.444C230.275,260.48,230.132,260.506,229.992,260.506z"/>
			<path style="fill:#FBFCFF;" d="M305.936,260.956c-0.173,0-0.348-0.041-0.512-0.125c-0.543-0.283-0.752-0.951-0.469-1.494     c5.093-9.761-1.766-26.305-1.835-26.469c-0.238-0.564,0.028-1.213,0.59-1.451c0.569-0.236,1.213,0.03,1.451,0.59     c0.3,0.718,7.328,17.679,1.758,28.354C306.721,260.739,306.334,260.956,305.936,260.956z"/>
			<path style="fill:#241726;" d="M411.088,306.343c-0.283,0-0.566-0.108-0.783-0.324c-7.778-7.78-42.27-16.248-42.618-16.335     c-0.595-0.143-0.958-0.742-0.813-1.336c0.145-0.592,0.739-0.958,1.336-0.813c1.444,0.35,35.447,8.703,43.66,16.918     c0.432,0.432,0.432,1.133,0,1.565C411.655,306.235,411.371,306.343,411.088,306.343z"/>
			<path style="fill:#241726;" d="M308.961,313.088c-0.37,0-0.733-0.188-0.943-0.527c-3.323-5.402-13.168-8.022-13.267-8.048     c-0.592-0.153-0.947-0.759-0.791-1.349c0.153-0.59,0.752-0.958,1.349-0.791c0.441,0.115,10.809,2.877,14.594,9.03     c0.32,0.521,0.158,1.202-0.363,1.522C309.361,313.036,309.16,313.088,308.961,313.088z"/>
			<path style="fill:#241726;" d="M306.368,326.715c-0.37,0-0.731-0.186-0.94-0.525c-5.558-8.976-18.6-13.418-18.732-13.462     c-0.579-0.195-0.893-0.821-0.7-1.401c0.197-0.582,0.826-0.888,1.401-0.7c0.566,0.19,13.931,4.732,19.912,14.4     c0.322,0.519,0.162,1.202-0.359,1.522C306.77,326.66,306.566,326.715,306.368,326.715z"/>
			<path style="fill:#241726;" d="M299.177,330.759c-0.357,0-0.707-0.173-0.921-0.493c-3.398-5.095-15.197-11.252-15.316-11.313     c-0.543-0.283-0.754-0.951-0.473-1.494c0.283-0.543,0.951-0.752,1.494-0.473c0.506,0.264,12.428,6.488,16.138,12.052     c0.339,0.508,0.201,1.195-0.307,1.535C299.603,330.699,299.389,330.759,299.177,330.759z"/>
			<path style="fill:#241726;" d="M334.247,290.616c-0.251,0-0.502-0.084-0.709-0.257c-5.541-4.618-10.446-16.555-10.651-17.061     c-0.231-0.566,0.041-1.211,0.607-1.442c0.56-0.231,1.211,0.039,1.442,0.607c0.05,0.119,4.903,11.931,10.02,16.196     c0.469,0.391,0.532,1.09,0.141,1.559C334.878,290.479,334.562,290.616,334.247,290.616z"/>
			<path style="fill:#241726;" d="M339.009,282.647c-0.201,0-0.404-0.054-0.586-0.169c-5.802-3.619-10.826-15.409-11.038-15.909     c-0.238-0.562,0.026-1.213,0.59-1.451c0.56-0.233,1.213,0.024,1.451,0.59c0.048,0.117,4.961,11.643,10.169,14.893     c0.519,0.322,0.677,1.005,0.352,1.524C339.738,282.463,339.377,282.647,339.009,282.647z"/>
			<path style="fill:#241726;" d="M345.032,276.685c-0.177,0-0.355-0.041-0.521-0.13c-6.9-3.682-12.731-12.128-12.977-12.487     c-0.344-0.504-0.214-1.193,0.29-1.537c0.502-0.346,1.191-0.218,1.537,0.288c0.058,0.082,5.776,8.36,12.193,11.782     c0.538,0.288,0.744,0.958,0.456,1.498C345.81,276.473,345.428,276.685,345.032,276.685z"/>
			<path style="fill:#241726;" d="M378.121,349.795c-0.071,0-0.143-0.007-0.214-0.019c-30.302-5.915-44.341-22.915-44.922-23.635     c-0.385-0.476-0.311-1.172,0.164-1.556c0.476-0.383,1.172-0.311,1.556,0.164c0.138,0.171,14.162,17.104,43.625,22.852     c0.601,0.119,0.992,0.7,0.876,1.299C379.102,349.427,378.639,349.795,378.121,349.795z"/>
			<path style="fill:#1A1F36;" d="M359.988,211.639c3.266-5.083,5.364-12.898,2.635-19.569c-1.885-4.609-5.357-6.832-8.793-7.554     c0.884-2.36,1.64-5.334,2.152-9.049c2.214-16.049-9.962-11.622-14.389-16.049c-9.783-9.783,29.331-76.926-76.55-83.392     c-34.379-2.1-63.242,25.917-61.036,48.494c2.206,22.577,16.722,21.739,25.083-1.672c0,0,8.361,10.033,18.394,4.181     s11.706-15.886,11.706-15.886s-2.14,18.116,12.118,21.158c10.408,2.22,14.637-1.091,14.637-1.091s-2.676,12.884,3.344,21.739     c10.796,15.878,23.068-0.644,24.045,3.752c7.326,32.968-16.129,30.061-16.129,30.061c-0.667,1.885-9.848,10.29-9.848,10.29     l-0.095,14.165c0,0,6.183,0.224,7.843,1.331c1.66,1.107,0.046,18.543,0.046,18.543c6.687,0.532,53.636,9.681,53.636,9.681     C367.073,236.199,367.994,219.18,359.988,211.639z"/>
			<path style="fill:#E9B600;" d="M203.975,131.378c0,0,31.744-36.506,63.576-29.432c37.625,8.361,50.204,66.58,51.839,63.544     c17.558-32.608,5.853-61.036,11.706-72.742s-29.9-32.292-59.234-29.626C216.678,68.139,193.457,100.71,203.975,131.378z"/>
			<path style="fill:#241726;" d="M323.749,88.104c-0.073-0.111-2.958-4.405-8.156-9.293c1.319-1.47,2.404-2.081,3.104-2.145     c0.61-0.056,1.057-0.594,1.003-1.202c-0.056-0.61-0.646-1.038-1.202-1.003c-1.65,0.15-3.203,1.16-4.657,2.764     c-8.589-7.51-22.341-15.506-39.625-11.666c-0.597,0.134-0.973,0.724-0.841,1.321s0.724,0.975,1.321,0.841     c7.679-1.71,14.628-0.935,20.698,1.097c-5.095,2.605-8.996,6.011-11.948,9.624c-6.945-2.109-14.96-3.381-24.115-3.231     c2.111-2.156,4.364-4.018,6.714-5.24c0.543-0.281,0.754-0.949,0.471-1.492c-0.281-0.545-0.953-0.752-1.492-0.471     c-3.176,1.651-6.154,4.303-8.838,7.309c-4.095,0.21-8.388,0.677-12.923,1.505c-0.601,0.11-0.999,0.687-0.891,1.288     c0.11,0.603,0.692,0.986,1.288,0.891c3.677-0.671,7.186-1.1,10.553-1.35c-2.599,3.245-4.84,6.686-6.6,9.678     c-9.263,1.305-16.159,3.908-21.147,6.638c0.771-4.287,2.883-9.743,8.313-14.268c0.469-0.391,0.532-1.09,0.141-1.559     c-0.393-0.469-1.092-0.534-1.559-0.141c-6.791,5.66-8.847,12.544-9.371,17.418c-5.965,3.77-8.463,7.372-8.686,7.706     c-0.339,0.508-0.201,1.193,0.305,1.533c0.508,0.333,1.193,0.205,1.535-0.303c0.048-0.07,2.013-2.856,6.686-6.059     c0,1.886,0.198,3.128,0.228,3.289c0.095,0.536,0.562,0.912,1.087,0.912c0.065,0,0.132-0.006,0.197-0.017     c0.601-0.108,1.003-0.683,0.895-1.284c-0.008-0.046-0.291-1.768-0.123-4.356c4.575-2.723,11.101-5.497,20.068-7.008     c-1.672,3.034-2.665,5.196-2.787,5.465c-0.253,0.558-0.006,1.213,0.549,1.466c0.149,0.067,0.305,0.099,0.458,0.099     c0.419,0,0.821-0.24,1.007-0.649c0.035-0.076,1.35-2.938,3.569-6.797c5.315-0.697,11.406-0.957,18.367-0.538     c3.304,0.199,6.384,0.711,9.275,1.454c-1.855,4.867-2.318,8.5-2.327,8.588c-0.067,0.607,0.37,1.157,0.977,1.224     c0.043,0.004,0.084,0.006,0.125,0.006c0.556,0,1.035-0.419,1.098-0.984c0.009-0.084,0.453-3.573,2.245-8.227     c10.324,3.184,17.959,9.511,23.482,16.315c-1.164,5.12-1.878,9.145-2.09,10.387c-0.102,0.603,0.303,1.174,0.906,1.278     c0.063,0.011,0.125,0.015,0.188,0.015c0.53,0,0.997-0.38,1.09-0.921c0.522-3.063,1.065-5.907,1.622-8.553     c8.323,11.258,11.184,22.957,11.234,23.178c0.121,0.51,0.575,0.854,1.079,0.854c0.082,0,0.166-0.009,0.253-0.03     c0.594-0.138,0.964-0.733,0.826-1.327c-0.056-0.239-3.274-13.383-12.777-25.492c1.08-4.764,2.203-8.803,3.329-12.237     c6.93,6.162,10.186,11.695,10.226,11.766c0.205,0.355,0.577,0.553,0.962,0.553c0.186,0,0.376-0.048,0.549-0.149     c0.53-0.305,0.713-0.979,0.409-1.509c-0.088-0.153-3.698-6.219-11.405-12.844c1.97-5.553,3.915-9.273,5.608-11.68     c4.886,4.631,7.599,8.672,7.669,8.777c0.212,0.324,0.566,0.499,0.925,0.499c0.21,0,0.419-0.058,0.607-0.182     C323.942,89.302,324.084,88.617,323.749,88.104z M267.48,86.669c-6.372-0.384-12.027-0.221-17.051,0.314     c1.878-3.063,4.201-6.449,6.822-9.501c9.544-0.386,17.797,0.791,24.785,2.795c-1.965,2.714-3.453,5.449-4.56,7.977     C274.37,87.439,271.047,86.884,267.48,86.669z M302.851,104.569c-5.622-6.559-13.203-12.546-23.254-15.687     c1.12-2.515,2.624-5.238,4.649-7.916c6.761,2.185,12.277,5.092,16.56,7.958c1.952,1.305,3.711,2.646,5.318,3.976     C304.837,96.818,303.743,100.878,302.851,104.569z M306.856,90.757c-5.303-4.261-12.295-8.581-21.137-11.592     c3.016-3.507,6.961-6.796,12.203-9.168c0.088-0.04,0.154-0.104,0.226-0.162c5.726,2.368,10.55,5.792,14.33,9.114     C310.354,81.955,308.472,86.177,306.856,90.757z"/>
			<path style="fill:#FBFCFF;" d="M339.258,222.715c-0.534,0-1.003-0.387-1.092-0.932c-0.095-0.603,0.316-1.172,0.919-1.269     c3.543-0.566,5.699-2.039,6.408-4.375c1.213-3.993-1.887-9.549-5.575-12.973c-6.89-6.397-6.98-11.103-4.54-19.891     c2.073-7.465-3.9-10.8-4.155-10.939c-0.536-0.29-0.739-0.96-0.45-1.498c0.288-0.538,0.951-0.744,1.494-0.454     c0.078,0.041,7.8,4.28,5.242,13.483c-2.363,8.513-2.134,12.061,3.913,17.677c4.064,3.772,7.735,10.15,6.189,15.236     c-0.67,2.212-2.635,5.033-8.176,5.921C339.377,222.711,339.316,222.715,339.258,222.715z"/>
			<path style="fill:#FBFCFF;" d="M309.678,226.942c-0.415,0-0.811-0.233-1.001-0.631c-0.262-0.553-0.028-1.213,0.523-1.474     c0.084-0.041,8.338-4.056,8.762-11.276c0.188-3.174-1.39-3.826-3.779-4.816c-2.501-1.038-5.614-2.328-5.614-7.329     c0-4.27,2.67-6.379,5.026-8.241c2.858-2.257,5.327-4.207,3.928-9.806c-0.147-0.592,0.214-1.193,0.806-1.342     c0.597-0.147,1.195,0.212,1.342,0.806c1.745,6.985-1.682,9.691-4.704,12.08c-2.246,1.773-4.185,3.305-4.185,6.503     c0,3.522,1.874,4.3,4.248,5.283c2.415,1.001,5.422,2.246,5.141,6.991c-0.502,8.539-9.633,12.962-10.022,13.146     C309.996,226.907,309.836,226.942,309.678,226.942z"/>
			<path style="fill:#FBFCFF;" d="M238.304,124.005c-0.141,0-0.281-0.002-0.424-0.006c-0.61-0.022-1.087-0.534-1.068-1.146     c0.022-0.61,0.569-1.031,1.146-1.068c2.242,0.086,3.919-0.562,5.195-1.952c3.422-3.727,2.531-11.488,2.523-11.566     c-0.074-0.607,0.359-1.159,0.964-1.232c0.594-0.086,1.159,0.355,1.232,0.964c0.043,0.359,1.025,8.844-3.085,13.325     C243.157,123.104,240.976,124.005,238.304,124.005z"/>
			<path style="fill:#FBFCFF;" d="M274.445,127.689c-0.173,0-0.348-0.039-0.51-0.125c-9.964-5.182-5.744-17.463-5.701-17.586     c0.205-0.575,0.834-0.876,1.412-0.672c0.577,0.203,0.878,0.834,0.677,1.412c-0.151,0.43-3.615,10.595,4.633,14.884     c0.543,0.281,0.754,0.949,0.471,1.492C275.23,127.473,274.843,127.689,274.445,127.689z"/>
			<path style="fill:#FBFCFF;" d="M299.163,152.407c-0.16,0-0.322-0.035-0.476-0.108c-8.336-3.967-6.963-23.847-6.9-24.692     c0.045-0.61,0.588-1.064,1.187-1.023c0.61,0.045,1.066,0.577,1.023,1.187c-0.393,5.331-0.147,19.774,5.642,22.53     c0.551,0.262,0.787,0.923,0.523,1.474C299.974,152.174,299.576,152.407,299.163,152.407z"/>
			<path style="fill:#FBFCFF;" d="M215.413,131.01c-0.376,0-0.746-0.195-0.951-0.543c-0.313-0.525-0.138-1.204,0.387-1.515     c5.943-3.524,6.574-5.426,6.626-5.926c0.024-0.238-0.061-0.333-0.086-0.359c-0.508-0.337-0.62-1.005-0.281-1.515     c0.339-0.504,1.048-0.629,1.561-0.288c0.491,0.326,1.051,1.087,1.023,2.155c-0.058,2.231-2.581,4.795-7.713,7.834     C215.8,130.96,215.605,131.01,215.413,131.01z"/>
			<path style="fill:#241726;" d="M224.001,291.755c-0.158,0-0.318-0.035-0.471-0.106c-0.553-0.259-0.791-0.919-0.53-1.472     c3.349-7.136,11.52-23.788,15.044-24.292c0.577-0.08,61.374-3.785,63.972-0.54c1.974,2.469,5.484,14.629,5.878,16.006     c0.169,0.588-0.171,1.202-0.759,1.368c-0.597,0.177-1.202-0.173-1.368-0.759c-1.412-4.935-4.086-13.269-5.396-15.12     c-4.254-1.792-58.572,0.744-62.016,1.237c-1.838,0.599-8.37,12.428-13.353,23.043     C224.814,291.519,224.416,291.755,224.001,291.755z"/>
		</g>
		<g>
			<path style="fill:#1A1F36;" d="M365.574,431.061c0.436,14.665-52.776,30.544-114.72,30.544s-109.6-15.873-109.6-30.544     s50.216-26.564,112.16-26.564S364.836,406.244,365.574,431.061z"/>
			<path style="fill:#FBFCFF;" d="M243.151,454.283c-34.79,0-75.795-6.122-84.189-15.807c-1.34-1.546-1.885-3.171-1.624-4.832     c1.922-12.171,23.607-14.718,24.528-14.821c0.62-0.074,1.154,0.372,1.224,0.977c0.067,0.607-0.37,1.154-0.977,1.224     c-0.21,0.024-20.928,2.456-22.587,12.966c-0.158,0.999,0.203,1.993,1.109,3.035c7.411,8.55,47.858,15.584,86.58,15.016     c41.022-0.588,88.329-7.979,96.481-19.333c1.215-1.693,1.524-3.392,0.945-5.197c-5.072-15.773-25.066-12.102-25.92-11.938     c-0.59,0.112-1.18-0.279-1.295-0.878c-0.117-0.599,0.275-1.18,0.873-1.297c0.225-0.043,22.777-4.211,28.447,13.433     c0.8,2.486,0.378,4.896-1.252,7.166c-5.474,7.623-24.255,12.335-39.046,14.947c-17.485,3.085-39.064,5.022-59.203,5.309     C245.892,454.275,244.526,454.283,243.151,454.283z"/>
			<g>
				<g>
					<path style="fill:#FFFFFF;" d="M240.87,364.65c0,0-8.855-3.689-5.903-9.593c2.952-5.903,5.165-10.331,8.855-16.234       c3.689-5.903,20.661,2.952,22.137,16.234C267.434,368.34,243.084,373.505,240.87,364.65z"/>
					<path style="fill:#241726;" d="M242.58,361.756c-0.37,0-0.731-0.186-0.94-0.525c-0.322-0.519-0.162-1.2,0.359-1.522       c5.843-3.619,8.937-7.162,8.946-10.245c0.009-2.797-2.596-4.462-2.622-4.479c-0.517-0.324-0.677-1.005-0.355-1.524       c0.32-0.517,1.001-0.677,1.518-0.359c0.151,0.093,3.669,2.302,3.673,6.338c0.006,3.954-3.357,8.042-9.996,12.149       C242.982,361.702,242.779,361.756,242.58,361.756z"/>
					<path style="fill:#241726;" d="M249.301,365.71c-0.396,0-0.78-0.214-0.979-0.59c-0.285-0.54-0.078-1.211,0.463-1.496       c7.082-3.733,10.798-7.501,10.751-10.893c-0.056-3.937-5.134-6.481-5.186-6.505c-0.549-0.27-0.776-0.932-0.506-1.481       c0.264-0.545,0.925-0.774,1.477-0.508c0.259,0.125,6.345,3.154,6.429,8.45c0.067,4.345-3.945,8.684-11.931,12.895       C249.653,365.669,249.476,365.71,249.301,365.71z"/>
				</g>
				<g>
					<path style="fill:#FFFFFF;" d="M282.192,363.175c0,0-8.855-3.689-5.903-9.593c2.952-5.903,5.165-10.331,8.855-16.234       s20.661,2.952,22.137,16.234C308.756,366.864,284.406,372.029,282.192,363.175z"/>
					<path style="fill:#241726;" d="M283.901,360.28c-0.37,0-0.731-0.186-0.94-0.525c-0.322-0.519-0.162-1.202,0.359-1.522       c5.856-3.625,8.95-7.175,8.948-10.264c-0.004-2.815-2.592-4.443-2.618-4.458c-0.521-0.32-0.683-1.003-0.363-1.522       c0.322-0.525,1.01-0.683,1.522-0.363c0.151,0.093,3.666,2.305,3.673,6.341c0.004,3.952-3.359,8.04-9.998,12.147       C284.303,360.226,284.1,360.28,283.901,360.28z"/>
					<path style="fill:#241726;" d="M290.622,364.234c-0.396,0-0.78-0.214-0.979-0.59c-0.285-0.54-0.078-1.211,0.463-1.496       c7.086-3.736,10.805-7.506,10.753-10.9c-0.063-3.954-5.134-6.472-5.184-6.498c-0.551-0.268-0.778-0.93-0.51-1.479       c0.27-0.551,0.938-0.772,1.479-0.51c0.259,0.125,6.345,3.156,6.429,8.453c0.067,4.345-3.947,8.682-11.933,12.893       C290.974,364.192,290.797,364.234,290.622,364.234z"/>
				</g>
				<g>
					<path style="fill:#FFFFFF;" d="M199.543,365.494c0,0-8.855-3.689-5.903-9.593c2.952-5.903,5.165-10.331,8.855-16.234       c3.689-5.903,20.661,2.952,22.137,16.234C226.107,369.183,201.757,374.349,199.543,365.494z"/>
					<path style="fill:#241726;" d="M201.253,362.599c-0.37,0-0.731-0.186-0.94-0.525c-0.322-0.519-0.162-1.2,0.359-1.522       c5.843-3.619,8.937-7.162,8.946-10.245c0.009-2.797-2.596-4.462-2.622-4.479c-0.517-0.324-0.677-1.005-0.355-1.524       c0.322-0.519,1.005-0.674,1.518-0.359c0.151,0.093,3.669,2.302,3.673,6.338c0.006,3.954-3.357,8.042-9.996,12.149       C201.655,362.545,201.452,362.599,201.253,362.599z"/>
					<path style="fill:#241726;" d="M207.974,366.553c-0.396,0-0.78-0.214-0.979-0.59c-0.285-0.54-0.078-1.211,0.463-1.496       c7.082-3.733,10.798-7.501,10.751-10.893c-0.056-3.937-5.134-6.481-5.186-6.505c-0.549-0.27-0.776-0.932-0.506-1.481       c0.266-0.547,0.925-0.776,1.477-0.508c0.259,0.125,6.345,3.154,6.429,8.451c0.067,4.345-3.945,8.684-11.931,12.895       C208.326,366.512,208.149,366.553,207.974,366.553z"/>
				</g>
				<path style="fill:#E17B8D;" d="M186.611,365.011c0,0,123.288-11.823,125.671-2.782s4.169,73.026-0.596,75.113      c-4.765,2.086-108.398,10.432-118.524,3.477C183.037,433.864,184.228,365.011,186.611,365.011z"/>
				<path style="fill:#FFFFFF;" d="M185.505,387.388c0,0,127.507-4.881,128.52-3.146c3.146,5.392,0.449,31.456-0.899,31.905      s-125.374,8.538-126.722,4.943C185.056,417.496,182.809,388.287,185.505,387.388z"/>
				<path style="fill:#241726;" d="M292.656,412.907c-1.165,0-2.132-0.257-2.947-0.774c-2.162-1.366-2.583-4.155-3.031-7.106      c-0.633-4.174-1.288-8.489-6.624-9.823c-6.196-1.559-8.857,2.482-11.937,7.153c-2.57,3.898-5.229,7.93-10.215,8.154      c-2.48,0.121-4.012-0.244-4.968-1.159c-1.133-1.081-1.133-2.603-1.133-4.216c0-2.674,0-5.705-4.458-8.747      c-4.819-3.277-10.016,1.68-15.528,6.929c-4.522,4.306-9.22,8.807-14.006,8.541c-2.073-0.093-3.506-0.696-4.386-1.842      c-1.528-1.991-0.873-4.979-0.179-8.144c0.772-3.515,1.569-7.151-0.629-9.181c-0.594-0.549-1.36-0.778-2.279-0.729      c-5.19,0.32-13.885,9.324-16.797,12.765c-0.393,0.465-1.096,0.523-1.561,0.13c-0.467-0.396-0.525-1.094-0.13-1.561      c0.452-0.534,11.164-13.101,18.352-13.544c1.535-0.093,2.867,0.346,3.915,1.312c3.132,2.89,2.155,7.348,1.293,11.28      c-0.582,2.648-1.131,5.147-0.229,6.323c0.452,0.588,1.371,0.917,2.73,0.979c3.891,0.067,8.193-3.947,12.381-7.936      c5.906-5.627,12.022-11.432,18.3-7.153c5.426,3.699,5.426,7.839,5.426,10.576c0,1.358,0.022,2.209,0.447,2.616      c0.32,0.305,1.144,0.64,3.34,0.549c3.857-0.177,6.096-3.571,8.466-7.164c3.096-4.693,6.622-10.009,14.322-8.083      c6.766,1.693,7.603,7.207,8.275,11.639c0.387,2.544,0.72,4.741,2.026,5.569c0.949,0.599,2.575,0.558,4.84-0.117      c12.482-3.746,11.803-14.478,11.797-14.586c-0.048-0.61,0.409-1.141,1.018-1.187c0.549-0.093,1.139,0.404,1.187,1.018      c0.011,0.125,0.804,12.623-13.366,16.873C294.945,412.693,293.717,412.907,292.656,412.907z"/>
			</g>
		</g>
		<g>
			<path style="fill:#E9B600;" d="M417.227,390.656c-1.107-3.321-14.942-10.238-14.942-10.238l-2.863-38.408     c1.919-0.028,3.321-0.055,3.693-0.055c1.66,0,0.553-4.151-0.553-8.025c-1.107-3.874-23.52-2.49-23.52-2.49     s-1.937,8.301-0.553,9.685c0.303,0.303,1.612,0.509,3.435,0.653c-0.831,12.697,0.439,38.917,0.439,38.917     s-6.918,6.088-12.452,11.622c-4.564,4.564,2.49,76.372,2.49,76.372s43.997-0.553,48.424-0.553     C422.208,468.135,418.334,393.976,417.227,390.656z"/>
			<path style="fill:#FFFFFF;" d="M368.276,408.642c0,0,49.446-3.597,50.945-0.83c1.498,2.767,2.987,33.205,2.098,34.589     c-1.544,2.402-49.147,3.321-50.645,3.044C369.175,445.168,367.078,410.302,368.276,408.642z"/>
			<path style="fill:#241726;" d="M370.972,416.389c-0.569,0-1.053-0.439-1.1-1.016c-0.05-0.61,0.404-1.144,1.012-1.193     c4.192-0.342,41.1-3.297,45.947-1.898c0.588,0.169,0.925,0.783,0.757,1.371c-0.171,0.586-0.789,0.927-1.371,0.757     c-3.77-1.09-33.875,1.057-45.151,1.976C371.032,416.387,371.002,416.389,370.972,416.389z"/>
			<path style="fill:#241726;" d="M371.871,442.4c-0.577,0-1.064-0.448-1.103-1.033c-0.041-0.61,0.422-1.137,1.031-1.178     c14.37-0.953,42.404-2.985,45.64-3.839c0.594-0.162,1.195,0.197,1.353,0.787c0.156,0.592-0.197,1.198-0.787,1.353     c-4.25,1.122-44.354,3.794-46.059,3.909C371.921,442.4,371.897,442.4,371.871,442.4z"/>
			<path style="fill:#241726;" d="M393.709,341.954c-0.067,0-0.134-0.007-0.201-0.017c-2.888-0.525-9.65-0.264-9.719-0.259     c-0.599,0-1.124-0.452-1.15-1.064c-0.024-0.61,0.452-1.124,1.064-1.15c0.285-0.009,7.073-0.275,10.204,0.294     c0.601,0.11,0.999,0.685,0.891,1.288C394.7,341.58,394.233,341.954,393.709,341.954z"/>
			<path style="fill:#241726;" d="M398.965,335.59c-0.166,0-0.335-0.037-0.495-0.117c-1.226-0.614-9.129-0.705-16.064-0.437     c-0.659,0.002-1.126-0.454-1.15-1.064c-0.022-0.612,0.454-1.126,1.064-1.15c2.451-0.093,14.789-0.506,17.141,0.67     c0.547,0.275,0.767,0.938,0.495,1.485C399.76,335.365,399.369,335.59,398.965,335.59z"/>
			<path style="fill:#241726;" d="M377.933,466.474c-0.514,0-0.977-0.363-1.083-0.886c-0.121-0.601,0.266-1.185,0.865-1.306     c0.962-0.195,23.644-4.713,36.202-1.368c0.59,0.158,0.943,0.765,0.785,1.355c-0.158,0.59-0.759,0.947-1.355,0.785     c-12.056-3.221-34.963,1.351-35.19,1.399C378.08,466.467,378.006,466.474,377.933,466.474z"/>
			<path style="fill:#241726;" d="M396.474,373.222c-0.48,0-0.921-0.311-1.061-0.796c-1.405-4.778-1.959-17.437-1.982-17.973     c-0.026-0.612,0.45-1.128,1.059-1.154c0.69-0.037,1.126,0.45,1.154,1.059c0.004,0.13,0.562,12.925,1.892,17.446     c0.173,0.586-0.162,1.2-0.75,1.373C396.682,373.207,396.578,373.222,396.474,373.222z"/>
			<path style="fill:#241726;" d="M413.63,392.592c-0.365,0-0.722-0.182-0.934-0.512c-1.438-2.259-7.521-5.255-9.745-6.219     c-0.56-0.244-0.817-0.895-0.575-1.457s0.888-0.824,1.457-0.575c0.88,0.383,8.671,3.826,10.731,7.063     c0.329,0.517,0.175,1.2-0.339,1.528C414.041,392.536,413.836,392.592,413.63,392.592z"/>
			<path style="fill:#241726;" d="M382.916,431.332c-0.011,0-0.024,0-0.037,0c-0.612-0.022-1.09-0.532-1.07-1.144     c0.019-0.538,0.253-5.316,2.927-7.413c1.092-0.854,2.458-1.135,3.941-0.828c3.876,0.815,3.999,4.118,4.06,5.705     c0.002,0.052,0.004,0.106,0.007,0.162c0.729-0.69,1.256-1.9,1.732-2.994c0.752-1.729,1.466-3.366,2.867-3.846     c0.69-0.236,1.412-0.151,2.153,0.255c2.216,1.206,2.095,3.571,2.017,5.134c-0.026,0.51-0.074,1.461,0.082,1.639     c0.599,0.141,1.959-1.059,2.843-1.861c1.801-1.636,4.267-3.874,6.565-2.039c0.478,0.383,0.553,1.079,0.173,1.557     c-0.383,0.478-1.077,0.551-1.556,0.173c-0.765-0.612-2.013,0.419-3.695,1.948c-1.576,1.433-3.074,2.791-4.708,2.419     c-2.09-0.465-1.985-2.56-1.915-3.945c0.08-1.58,0.063-2.577-0.865-3.083c-0.097-0.052-0.281-0.136-0.376-0.102     c-0.48,0.164-1.126,1.652-1.554,2.635c-0.741,1.699-1.58,3.628-3.132,4.404c-0.283,0.138-1.141,0.573-1.939,0.097     c-0.837-0.495-0.873-1.498-0.91-2.471c-0.071-1.909-0.268-3.193-2.3-3.621c-0.847-0.182-1.544-0.048-2.121,0.404     c-1.591,1.247-2.041,4.57-2.08,5.744C384.001,430.86,383.51,431.332,382.916,431.332z"/>
		</g>
	</g>
</g>















</svg>
