<?xml version="1.0" encoding="UTF-8"?>
<!-- Generator: Adobe Illustrator 26.4.1, SVG Export Plug-In . SVG Version: 6.00 Build 0)  -->
<svg xmlns="http://www.w3.org/2000/svg" xmlns:xlink="http://www.w3.org/1999/xlink" version="1.1" id="Capa_1" x="0px" y="0px" viewBox="0 0 467.692 467.692" style="enable-background:new 0 0 467.692 467.692;" xml:space="preserve" width="512" height="512">
<g>
	<g>
		<path style="fill:#FFFFFF;" d="M377.362,159.827c0,0-1.908-16.101,13.496-10.699s10.17,20.053,4.338,14.941    c-5.833-5.113,5.457-22.049,17.197-14.289c11.74,7.76,8.899,22.483,0.487,23.463c-8.412,0.98,5.308-17.117,15.74-5.694    c10.432,11.423-12.934,31.695-22.281,24.008c-9.347-7.688-1.796-19.8,0.373-12.33s-4.037,14.687-20.786,14.18    c-16.749-0.507-8.788-26.182-3.029-18.603s-4.074,15.92-15.777,6.927S369.136,154.641,377.362,159.827z"/>
		<path style="fill:#241726;" d="M387.567,194.505c-0.545,0-1.102-0.008-1.672-0.025c-5.491-0.168-9.32-3.031-10.619-7.895    c-2.884-0.404-5.914-1.777-8.811-4.003c-4.554-3.5-6.065-8.739-4.15-14.379c1.976-5.812,7.184-10.366,11.856-10.366    c0.706,0,1.389,0.099,2.041,0.296c0.008-2.226,0.398-6.002,2.67-8.559c2.569-2.89,6.763-3.41,12.33-1.457    c2.138,0.75,4.007,1.71,5.571,2.865c2.657-2.731,6.021-4.278,9.364-4.278c2.349,0,4.651,0.734,6.839,2.182    c5.074,3.353,8.115,8.448,8.299,13.805c2.966,0.128,5.768,1.551,8.127,4.135c3.221,3.525,3.785,8.216,1.587,13.201    c-3.357,7.616-12.499,14.297-19.56,14.3c-0.002,0-0.002,0-0.002,0c-2.268,0-4.213-0.654-5.778-1.943    c-0.731-0.599-1.392-1.249-1.97-1.934C400.075,193.107,394.538,194.505,387.567,194.505z M377.549,186.698    c0.922,2.72,3.156,5.476,8.408,5.636c8.951,0.279,13.91-1.729,16.479-3.63c-2.293-3.823-2.073-7.977-0.748-10.542    c0.771-1.494,1.88-2.351,3.043-2.351c0.786,0,2.224,0.407,3.012,3.116c1.086,3.743,0.197,7.375-2.437,10.112    c0.501,0.597,1.075,1.163,1.714,1.689c1.172,0.962,2.657,1.452,4.416,1.452l0,0c6.208-0.002,14.595-6.208,17.598-13.019    c1.297-2.945,2.142-7.222-1.207-10.89c-1.991-2.178-4.217-3.334-6.625-3.437c-0.572,5.133-3.839,8.968-8.199,9.475    c-2.792,0.3-3.758-1.146-3.804-2.519c-0.103-3.037,4.322-8.081,9.94-8.974c-0.143-4.68-2.833-9.165-7.337-12.141    c-4.433-2.93-9.567-2.142-13.38,1.698c3.59,3.508,4.227,7.78,3.192,10.617c-1.163,3.198-4.508,4.185-7.126,1.886    c-3.219-2.821-2.096-8.236,0.897-12.258c-1.366-0.987-3.005-1.817-4.883-2.477c-4.672-1.637-8.033-1.369-10.012,0.853    c-2.689,3.02-2.071,8.651-2.062,8.708c0.046,0.411-0.145,0.813-0.495,1.033c-0.354,0.222-0.798,0.222-1.144,0    c-0.792-0.499-1.672-0.752-2.62-0.752c-3.747,0-8.153,3.997-9.823,8.911c-1.603,4.713-0.354,9.083,3.425,11.986    c2.362,1.815,4.791,2.995,7.098,3.46c-0.417-4.141,0.895-8.169,2.582-10.236c0.945-1.159,2.043-1.771,3.171-1.771    c0.794,0,1.983,0.314,3.127,1.821c2.033,2.676,2.473,5.673,1.209,8.224C383.698,184.921,380.888,186.547,377.549,186.698z     M404.731,177.956c-0.203,0-0.69,0.323-1.136,1.19c-0.97,1.878-1.159,5.074,0.467,8.075c1.874-2.14,2.45-4.831,1.618-7.696    C405.35,178.384,404.922,177.956,404.731,177.956z M380.624,174.479c-0.455,0-0.991,0.348-1.509,0.981    c-1.44,1.765-2.525,5.537-2.054,9.102c2.771-0.006,5.005-1.178,5.975-3.137c0.891-1.792,0.526-3.969-0.996-5.971    C381.703,175.007,381.183,174.479,380.624,174.479z M419.014,165.023c-4.458,0.951-7.725,5.08-7.671,6.696    c0.006,0.195,0.017,0.488,0.912,0.488c0.155,0,0.321-0.01,0.501-0.031C415.98,171.801,418.432,168.932,419.014,165.023z     M397.025,154.005c-2.584,3.502-3.121,7.505-1.121,9.257c1.511,1.331,3.014,0.857,3.695-1.008    C400.383,160.106,399.842,156.822,397.025,154.005z"/>
	</g>
	<g>
		<path style="fill:#FFFFFF;" d="M24.876,247.147c0,0-1.908-16.101,13.496-10.699c15.404,5.403,10.17,20.054,4.338,14.941    s5.457-22.049,17.197-14.289c11.74,7.76,8.899,22.483,0.487,23.463s5.308-17.117,15.74-5.694S63.2,286.564,53.853,278.877    c-9.347-7.688-1.796-19.8,0.373-12.33s-4.037,14.687-20.786,14.18c-16.749-0.507-8.788-26.182-3.029-18.603    c5.758,7.579-4.074,15.92-15.777,6.927S16.651,241.962,24.876,247.147z"/>
		<path style="fill:#241726;" d="M35.08,281.826c-0.545,0-1.102-0.008-1.672-0.025c-5.491-0.168-9.32-3.031-10.617-7.897    c-2.886-0.402-5.914-1.775-8.811-4.001c-4.554-3.5-6.065-8.739-4.15-14.379c1.976-5.814,7.184-10.368,11.856-10.368    c0.706,0,1.387,0.101,2.039,0.296c0.01-2.226,0.4-6.002,2.672-8.559c2.569-2.89,6.763-3.408,12.33-1.457    c2.138,0.75,4.007,1.712,5.571,2.865c2.657-2.729,6.021-4.275,9.364-4.275c2.347,0,4.648,0.734,6.836,2.18    c5.074,3.353,8.115,8.45,8.301,13.805c2.966,0.128,5.768,1.551,8.127,4.137c3.221,3.527,3.783,8.216,1.584,13.201    c-3.357,7.616-12.497,14.297-19.558,14.3c-0.002,0-0.002,0-0.002,0c-2.268,0-4.213-0.654-5.778-1.943    c-0.731-0.599-1.392-1.249-1.972-1.936C47.59,280.426,42.048,281.826,35.08,281.826z M25.064,274.019    c0.92,2.72,3.154,5.476,8.406,5.636c8.945,0.287,13.91-1.729,16.481-3.63c-2.293-3.825-2.073-7.979-0.748-10.544    c0.771-1.492,1.88-2.349,3.041-2.349c0.788,0,2.226,0.405,3.014,3.116c1.086,3.743,0.195,7.373-2.437,10.11    c0.501,0.597,1.075,1.163,1.714,1.691c1.172,0.962,2.657,1.452,4.416,1.452l0,0c6.206-0.002,14.593-6.208,17.596-13.019    c1.299-2.945,2.144-7.222-1.205-10.89c-1.991-2.18-4.217-3.334-6.625-3.439c-0.572,5.133-3.837,8.968-8.199,9.477    c-2.792,0.306-3.758-1.148-3.804-2.519c-0.103-3.037,4.319-8.081,9.94-8.974c-0.143-4.68-2.836-9.165-7.339-12.143    c-4.424-2.926-9.561-2.138-13.377,1.698c3.588,3.508,4.227,7.78,3.192,10.617c-0.723,1.985-2.251,3.219-3.984,3.219    c-0.002,0-0.002,0-0.002,0c-1.06,0-2.146-0.461-3.142-1.333c-3.217-2.821-2.096-8.234,0.899-12.258    c-1.366-0.987-3.005-1.817-4.883-2.477c-4.676-1.637-8.039-1.366-10.016,0.859c-2.697,3.033-2.069,8.645-2.062,8.702    c0.05,0.411-0.143,0.813-0.493,1.033c-0.348,0.222-0.796,0.222-1.144,0c-0.79-0.499-1.672-0.752-2.618-0.752    c-3.747,0-8.153,3.999-9.823,8.911c-1.603,4.716-0.354,9.083,3.425,11.988c2.362,1.815,4.789,2.995,7.098,3.458    c-0.417-4.141,0.895-8.167,2.582-10.236c0.945-1.159,2.043-1.771,3.173-1.771c0.794,0,1.981,0.316,3.125,1.821    c2.033,2.678,2.473,5.675,1.207,8.226C31.192,272.281,28.445,273.872,25.064,274.019z M52.244,265.277    c-0.201,0-0.687,0.323-1.134,1.188c-0.97,1.878-1.159,5.074,0.467,8.075c1.874-2.14,2.45-4.831,1.618-7.694    C52.865,265.703,52.437,265.277,52.244,265.277z M28.141,261.798c-0.457,0-0.993,0.348-1.511,0.983    c-1.44,1.763-2.528,5.535-2.056,9.102c2.771-0.006,5.005-1.178,5.977-3.137c0.889-1.794,0.526-3.969-0.996-5.973    C29.218,262.329,28.698,261.798,28.141,261.798z M66.529,252.344c-4.458,0.949-7.725,5.08-7.671,6.696    c0.006,0.195,0.017,0.488,0.912,0.488c0.155,0,0.321-0.01,0.501-0.031C63.495,259.122,65.947,256.253,66.529,252.344z     M44.54,241.327c-2.584,3.5-3.121,7.503-1.123,9.255c1.517,1.331,3.016,0.857,3.697-1.008    C47.898,247.425,47.357,244.143,44.54,241.327z"/>
	</g>
	<path style="fill:#241726;" d="M196.447,205.115l-0.025-0.019c-3.233-2.507-3.823-7.176-1.315-10.411   c2.496-3.22,7.154-3.819,10.384-1.336c1.592,1.234,2.592,2.986,2.84,4.954c0.248,1.964-0.284,3.911-1.497,5.476   C204.337,206.998,199.676,207.597,196.447,205.115z M204.202,195.065c-2.315-1.779-5.625-1.352-7.398,0.935   c-1.783,2.299-1.364,5.619,0.933,7.4l-0.636,0.865l0.654-0.851c2.295,1.764,5.606,1.338,7.383-0.949   c0.863-1.113,1.241-2.495,1.063-3.893C206.026,197.173,205.315,195.928,204.202,195.065z"/>
	<path style="fill:#241726;" d="M18.322,372.51l-0.025-0.019c-3.233-2.507-3.823-7.176-1.315-10.411   c2.496-3.22,7.154-3.819,10.384-1.336c1.592,1.234,2.592,2.986,2.84,4.954c0.248,1.964-0.284,3.911-1.497,5.476   C26.211,374.393,21.55,374.992,18.322,372.51z M26.077,362.46c-2.315-1.779-5.625-1.352-7.398,0.935   c-1.783,2.299-1.364,5.619,0.933,7.4l-0.636,0.865l0.654-0.851c2.295,1.764,5.606,1.338,7.383-0.949   c0.863-1.113,1.241-2.495,1.063-3.893C27.901,364.568,27.189,363.323,26.077,362.46z"/>
	<path style="fill:#241726;" d="M447.54,406.848l-0.025-0.019c-3.233-2.507-3.823-7.176-1.315-10.411   c2.496-3.22,7.154-3.819,10.384-1.336c1.592,1.234,2.592,2.986,2.84,4.954c0.248,1.964-0.284,3.911-1.497,5.476   C455.429,408.73,450.768,409.33,447.54,406.848z M455.295,396.798c-2.315-1.779-5.625-1.352-7.398,0.935   c-1.783,2.299-1.364,5.619,0.933,7.4l-0.636,0.865l0.654-0.851c2.295,1.764,5.606,1.338,7.383-0.949   c0.863-1.113,1.241-2.495,1.063-3.893C457.119,398.905,456.407,397.661,455.295,396.798z"/>
	<path style="fill:#241726;" d="M87.696,115.343l-0.006,0l-4.151-0.015l4.398-2.982c0.491-0.333,0.619-1,0.286-1.491   c-0.335-0.493-1.007-0.615-1.491-0.286l-5.933,4.022l0.132-6.932c0.012-0.593-0.46-1.081-1.053-1.093l-0.006,0   c-0.589-0.008-1.075,0.462-1.087,1.053l-0.116,6.117l-3.629-3.936c-0.403-0.433-1.08-0.465-1.517-0.062   c-0.435,0.401-0.463,1.082-0.062,1.517l3.733,4.049l-6.875-0.024c-0.593-0.001-1.075,0.476-1.077,1.07   c-0.001,0.589,0.47,1.069,1.059,1.076l0.01,0l6.272,0.022l-4.9,3.322c-0.491,0.333-0.619,1-0.286,1.491   c0.206,0.302,0.537,0.466,0.874,0.471c0.214,0.003,0.428-0.057,0.617-0.185l5.686-3.855l-0.132,6.983   c-0.012,0.593,0.46,1.081,1.053,1.093l0.006,0c0.589,0.008,1.075-0.462,1.087-1.053l0.125-6.595l3.868,4.195   c0.209,0.225,0.49,0.342,0.775,0.345c0.264,0.004,0.531-0.089,0.742-0.284c0.435-0.401,0.463-1.082,0.062-1.517l-4.05-4.393   l5.574,0.02c0.593,0.001,1.075-0.476,1.077-1.07C88.761,115.831,88.289,115.351,87.696,115.343z"/>
	<path style="fill:#241726;" d="M445.525,369.273l-0.006,0l-4.151-0.015l4.398-2.982c0.491-0.333,0.619-1,0.286-1.491   c-0.335-0.493-1.007-0.615-1.491-0.286l-5.933,4.022l0.132-6.932c0.012-0.593-0.46-1.081-1.053-1.093l-0.006,0   c-0.589-0.008-1.075,0.462-1.087,1.053l-0.116,6.117l-3.629-3.936c-0.403-0.433-1.08-0.465-1.517-0.062   c-0.435,0.401-0.463,1.082-0.062,1.517l3.733,4.049l-6.875-0.024c-0.593-0.001-1.075,0.476-1.077,1.07   c-0.001,0.589,0.47,1.069,1.059,1.076l0.01,0l6.272,0.022l-4.9,3.322c-0.491,0.333-0.619,1-0.286,1.491   c0.206,0.302,0.537,0.466,0.874,0.47c0.214,0.003,0.428-0.057,0.617-0.185l5.686-3.855l-0.132,6.983   c-0.012,0.593,0.46,1.081,1.053,1.093l0.006,0c0.589,0.008,1.075-0.462,1.087-1.053l0.125-6.595l3.868,4.195   c0.209,0.225,0.49,0.342,0.775,0.345c0.264,0.004,0.531-0.089,0.742-0.284c0.435-0.401,0.463-1.082,0.062-1.517l-4.05-4.393   l5.574,0.02c0.593,0.001,1.075-0.476,1.077-1.07C446.59,369.76,446.119,369.28,445.525,369.273z"/>
	<path style="fill:#241726;" d="M18.453,416.487l-0.006,0l-4.151-0.015l4.398-2.982c0.491-0.333,0.619-1,0.286-1.491   c-0.335-0.493-1.007-0.615-1.491-0.286l-5.933,4.022l0.132-6.932c0.012-0.593-0.46-1.081-1.053-1.093h-0.006   c-0.589-0.008-1.075,0.462-1.087,1.053l-0.116,6.117l-3.629-3.936c-0.403-0.433-1.08-0.465-1.517-0.062   c-0.435,0.401-0.463,1.082-0.062,1.517l3.733,4.049l-6.875-0.024c-0.593-0.001-1.075,0.476-1.077,1.07   c-0.001,0.589,0.47,1.069,1.059,1.076l0.01,0l6.272,0.022l-4.9,3.322c-0.491,0.333-0.619,1-0.286,1.491   c0.206,0.302,0.537,0.466,0.874,0.47c0.214,0.003,0.428-0.057,0.617-0.185l5.686-3.855l-0.132,6.983   c-0.012,0.593,0.46,1.081,1.053,1.093l0.006,0c0.589,0.008,1.075-0.462,1.087-1.053l0.125-6.595l3.868,4.195   c0.209,0.225,0.49,0.342,0.775,0.345c0.264,0.003,0.531-0.089,0.742-0.284c0.435-0.401,0.463-1.082,0.062-1.517l-4.05-4.393   l5.574,0.02c0.593,0.001,1.075-0.476,1.077-1.07C19.518,416.974,19.047,416.494,18.453,416.487z"/>
	<path style="fill:#241726;" d="M441.142,153.945c-0.484,0-0.91-0.281-1.14-0.752c-0.019-0.04-1.863-3.839-4.078-8.807   c-1.016,0.029-2.006,0.044-2.947,0.044c-7.222,0-8.283-0.826-8.71-1.601c-0.262-0.476-0.239-1.025,0.067-1.509   c0.819-1.301,4.732-4.749,7.358-6.994c-3.598-9.307-3.332-11.617-1.729-12.281c0.319-0.134,0.675-0.105,0.97,0.075   c0.042,0.025,4.091,2.498,8.84,5.583c8.1-6.369,9.163-6.369,9.622-6.369c0.583,0,1.218,0.597,1.232,1.18   c0.027,1.033-1.369,7.071-2.312,10.963c7.054,5.032,7.648,6.396,7.637,7.358c-0.004,0.486-0.239,0.918-0.641,1.19   c-1.211,0.815-5.776,1.402-9.674,1.767C442.799,153.945,442.066,153.945,441.142,153.945z M438.237,144.302   c1.216,2.708,2.289,5.001,2.961,6.417c0.434-1.094,1.119-3.091,2.152-6.732C441.649,144.122,439.92,144.227,438.237,144.302z    M426.651,141.852c0.805,0.187,2.572,0.432,6.325,0.432c0.65,0,1.32-0.008,2.008-0.021c-0.914-2.09-1.735-4.039-2.456-5.826   C429.351,139.169,427.5,140.928,426.651,141.852z M434.251,134.969c0.863,2.163,1.884,4.588,3.047,7.224   c2.175-0.084,4.454-0.224,6.667-0.409c0.654-2.395,1.312-4.952,1.918-7.398c-1.746-1.222-3.756-2.578-5.988-4.043   C438.019,131.838,436.091,133.419,434.251,134.969z M447.762,135.722c-0.486,1.947-1.002,3.94-1.517,5.856   c3.869-0.39,6.206-0.809,7.262-1.107C452.972,139.83,451.545,138.461,447.762,135.722z M430.985,124.673   c0.103,1.06,0.606,3.345,2.444,8.184c1.498-1.255,3.047-2.525,4.571-3.745C435.045,127.2,432.425,125.566,430.985,124.673z    M441.67,128.944c1.733,1.142,3.324,2.215,4.757,3.207c0.893-3.703,1.484-6.413,1.794-8.004   C447.052,124.899,444.973,126.364,441.67,128.944z"/>
	<path style="fill:#241726;" d="M208.538,36.828c-0.798,0-1.555,0-3.54-8.373c-7.04-1.45-7.648-2.289-7.851-2.569   c-0.197-0.27-0.277-0.763-0.18-1.084c0.134-0.451,0.444-1.494,8.549-4.638c2.984-7.488,3.961-7.488,4.611-7.488   c0.344,0,0.815,0.249,1.019,0.528c0.509,0.702,0.954,2.515,1.626,5.416c0.212,0.91,0.465,2.006,0.614,2.49   c0.421,0.195,1.352,0.541,2.123,0.83c4.127,1.538,5.189,2.06,5.369,3.051c0.067,0.373-0.13,0.912-0.415,1.159   c-0.849,0.744-4.877,2.18-6.987,2.901c-3.515,7.723-4.246,7.75-4.892,7.777C208.572,36.828,208.553,36.828,208.538,36.828z    M199.887,24.997c1.404,0.425,3.969,1.042,6.208,1.49c0.413,0.082,0.74,0.398,0.836,0.809c0.541,2.331,1.255,4.986,1.775,6.503   c0.801-1.396,2.018-3.871,3.005-6.059c0.124-0.27,0.354-0.48,0.635-0.574c1.926-0.65,4.101-1.448,5.455-2.022   c-0.937-0.409-2.215-0.887-3.043-1.195c-2.356-0.88-2.8-1.069-3.1-1.482c-0.262-0.36-0.419-0.96-0.977-3.364   c-0.21-0.901-0.53-2.287-0.819-3.324c-0.721,1.333-1.733,3.601-2.525,5.61c-0.109,0.279-0.331,0.501-0.612,0.608   C204.221,22.958,201.379,24.188,199.887,24.997z"/>
	<path style="fill:#241726;" d="M13.244,212.807c-0.798,0-1.555,0-3.54-8.373c-7.04-1.45-7.648-2.289-7.851-2.569   c-0.197-0.27-0.277-0.763-0.18-1.084c0.134-0.451,0.444-1.494,8.549-4.638c2.984-7.488,3.961-7.488,4.611-7.488   c0.344,0,0.815,0.249,1.019,0.528c0.509,0.702,0.954,2.515,1.626,5.416c0.212,0.91,0.465,2.006,0.614,2.49   c0.421,0.195,1.352,0.541,2.123,0.83c4.127,1.538,5.189,2.06,5.369,3.051c0.067,0.373-0.13,0.912-0.415,1.159   c-0.849,0.744-4.877,2.18-6.987,2.901c-3.515,7.723-4.246,7.75-4.892,7.777C13.277,212.807,13.259,212.807,13.244,212.807z    M4.592,200.976c1.404,0.425,3.969,1.042,6.208,1.49c0.413,0.082,0.74,0.398,0.836,0.809c0.541,2.331,1.255,4.986,1.775,6.503   c0.801-1.396,2.018-3.871,3.005-6.059c0.124-0.27,0.354-0.48,0.635-0.574c1.926-0.65,4.101-1.448,5.455-2.022   c-0.937-0.409-2.215-0.887-3.043-1.195c-2.356-0.88-2.8-1.069-3.1-1.482c-0.262-0.36-0.419-0.96-0.977-3.364   c-0.21-0.901-0.53-2.287-0.819-3.324c-0.721,1.333-1.733,3.601-2.525,5.61c-0.109,0.279-0.331,0.501-0.612,0.608   C8.927,198.937,6.085,200.167,4.592,200.976z"/>
	<path style="fill:#241726;" d="M455.339,272.898c-0.798,0-1.555,0-3.54-8.373c-7.04-1.45-7.648-2.289-7.851-2.569   c-0.197-0.27-0.277-0.763-0.18-1.084c0.134-0.451,0.444-1.494,8.549-4.638c2.984-7.488,3.961-7.488,4.611-7.488   c0.344,0,0.815,0.249,1.019,0.528c0.509,0.702,0.954,2.515,1.626,5.416c0.212,0.91,0.465,2.006,0.614,2.49   c0.421,0.195,1.352,0.541,2.123,0.83c4.127,1.538,5.189,2.06,5.369,3.051c0.067,0.373-0.13,0.912-0.415,1.159   c-0.849,0.744-4.877,2.18-6.987,2.901c-3.515,7.723-4.246,7.75-4.892,7.777C455.372,272.898,455.353,272.898,455.339,272.898z    M446.687,261.067c1.404,0.425,3.969,1.042,6.208,1.49c0.413,0.082,0.74,0.398,0.836,0.809c0.541,2.331,1.255,4.986,1.775,6.503   c0.801-1.396,2.018-3.871,3.005-6.059c0.124-0.27,0.354-0.48,0.635-0.574c1.926-0.65,4.101-1.448,5.455-2.022   c-0.937-0.409-2.215-0.887-3.043-1.195c-2.356-0.88-2.8-1.069-3.1-1.482c-0.262-0.36-0.419-0.96-0.977-3.364   c-0.21-0.901-0.53-2.286-0.819-3.324c-0.721,1.333-1.733,3.601-2.525,5.61c-0.109,0.279-0.331,0.501-0.612,0.608   C451.021,259.028,448.179,260.258,446.687,261.067z"/>
	<g>
		<g>
			<path style="fill:#52AFA6;" d="M135.104,42.157c-16.003,3.964-15.523,24.648-13.98,35.998l8.885-1.511     c0,0-3.406-25.562,9.502-25.268c12.907,0.293,17.111,20.933,17.111,20.933l11.01-1.301     C164.138,59.794,154.589,37.33,135.104,42.157z"/>
			<path style="fill:#B1739A;" d="M130.93,21.022c45.973-8.647,57.195,32.473,59.727,47.264l7.527-0.889     c0,0-12.986-63.93-65.07-57.675c-52.084,6.255-41.786,73.501-41.786,73.501l8.256-1.404     C97.148,65.918,95.197,27.743,130.93,21.022z"/>
			<path style="fill:#E17B8D;" d="M130.93,21.022c-35.733,6.721-33.782,44.896-31.347,60.796l10.875-1.85     c-2.479-16.645-2.994-49.57,31.378-50.325c22.526-0.495,33.744,26.585,37.9,39.933l10.922-1.29     C188.125,53.495,176.903,12.374,130.93,21.022z"/>
			<path style="fill:#EAB700;" d="M141.836,29.644c-34.372,0.755-33.857,33.68-31.378,50.325l10.665-1.814     c-1.542-11.349-2.022-32.034,13.98-35.998c19.485-4.827,29.034,17.637,32.528,28.85l12.104-1.43     C175.579,56.229,164.361,29.149,141.836,29.644z"/>
		</g>
		<path style="fill:#241726;" d="M99.58,82.891c-0.526,0-0.985-0.386-1.06-0.922c-0.182-1.287-4.301-31.728,10.835-50.286    c6.732-8.253,16.263-12.812,28.333-13.551c47.199-2.924,53.55,48.635,53.608,49.155c0.067,0.589-0.356,1.119-0.945,1.188    c-0.589,0.052-1.121-0.356-1.188-0.945c-0.015-0.126-1.528-12.738-8.635-24.81c-9.452-16.052-23.835-23.622-42.71-22.446    c-11.445,0.702-20.461,4.996-26.799,12.765c-14.549,17.837-10.418,48.323-10.374,48.629c0.084,0.587-0.325,1.13-0.912,1.213    C99.683,82.887,99.63,82.891,99.58,82.891z"/>
		<path style="fill:#241726;" d="M110.455,81.043c-0.518,0-0.972-0.375-1.058-0.903c-0.157-0.981-3.731-24.194,7.356-39.334    c4.858-6.635,11.818-10.668,20.685-11.984c29.964-4.493,43.198,40.009,43.328,40.457c0.163,0.568-0.163,1.163-0.734,1.329    c-0.566,0.166-1.165-0.166-1.329-0.734c-0.126-0.432-12.826-43.119-40.952-38.931c-8.274,1.23-14.756,4.971-19.262,11.124    c-10.559,14.409-7.01,37.5-6.973,37.733c0.092,0.585-0.306,1.136-0.891,1.228C110.57,81.038,110.512,81.043,110.455,81.043z"/>
		<path style="fill:#241726;" d="M121.121,79.228c-0.524,0-0.983-0.386-1.06-0.922c-0.115-0.811-2.741-20.002,5.445-30.852    c2.966-3.93,6.996-6.269,11.973-6.95c9.175-1.266,17.479,3.626,24.049,14.119c4.866,7.771,7.048,15.769,7.138,16.106    c0.155,0.572-0.184,1.161-0.757,1.314c-0.576,0.153-1.161-0.187-1.314-0.757c-0.084-0.314-8.742-31.418-28.823-28.658    c-4.393,0.601-7.941,2.66-10.55,6.113c-7.65,10.133-5.063,29.071-5.036,29.261c0.084,0.587-0.325,1.13-0.912,1.213    C121.223,79.223,121.171,79.228,121.121,79.228z"/>
	</g>
	<g>
		<path style="fill:#241726;" d="M441.726,89.394c-1.981,0-3.448-0.046-3.49-0.052c-0.585-0.09-0.987-0.637-0.897-1.224    s0.627-0.979,1.224-0.897c0.899,0.094,7.398-0.019,10.647-0.277c-2.001-1.515-5.866-4.148-9.454-6.474    c-0.497-0.323-0.637-0.987-0.316-1.486c0.327-0.497,0.993-0.631,1.486-0.316c12.273,7.964,12.011,8.461,11.489,9.452    C451.843,89.206,445.736,89.394,441.726,89.394z"/>
		<path style="fill:#B1739A;" d="M425.75,77.527c0,0,12.566-11.086,16.582-2.764c5.564,11.528-12.551,37.482-33.463,26.121    C387.957,89.523,395.42,70.44,395.42,70.44l10.652,6.684c0,0-0.591-11.812,4.589-15.814c5.18-4.002,5.977,4.892,5.977,4.892    s4.935-16.249,9.95-11.851S425.75,77.527,425.75,77.527z"/>
		<path style="fill:#241726;" d="M435.642,83.964c-0.407,0-0.79-0.147-1.115-0.428c-1.802-1.572-0.958-5.753-0.656-6.996    c0.14-0.574,0.717-0.931,1.297-0.788c0.574,0.138,0.928,0.719,0.79,1.295c-0.404,1.672-0.536,3.793-0.193,4.611    c0.639-0.625,1.765-2.611,2.563-4.586c0.224-0.549,0.849-0.813,1.398-0.593c0.549,0.222,0.815,0.849,0.593,1.398    c-0.84,2.075-2.511,5.619-4.267,6.038C435.915,83.949,435.776,83.964,435.642,83.964z"/>
		<path style="fill:#241726;" d="M419.985,83.084c-0.078,0-0.153-0.008-0.231-0.025c-0.578-0.126-0.947-0.698-0.819-1.276    c1.016-4.657,1.777-10.204,1.408-11.646c-0.687,0.438-2.729,2.968-4.378,5.707c-0.243,0.4-0.721,0.591-1.172,0.49    c-0.455-0.109-0.786-0.501-0.819-0.968c-0.178-2.532-0.87-5.195-1.434-5.56c-0.013,0.017-0.082,0.052-0.184,0.136    c-1.7,1.379-1.93,6.271-1.677,9.029c0.054,0.591-0.381,1.113-0.97,1.167c-0.578,0.036-1.113-0.379-1.167-0.97    c-0.078-0.847-0.671-8.35,2.46-10.892c1.037-0.836,1.924-0.643,2.366-0.455c1.291,0.56,1.989,2.544,2.362,4.426    c2.389-3.42,4.301-4.783,5.701-4.078c0.595,0.306,2.404,1.232-0.4,14.071C420.921,82.742,420.477,83.084,419.985,83.084z"/>
		<path style="fill:#241726;" d="M421.066,100.548c-1.117,0-2.224-0.117-3.32-0.35c-8.41-1.796-13.057-9.806-13.25-10.148    c-0.293-0.513-0.113-1.167,0.4-1.461c0.518-0.298,1.169-0.111,1.465,0.398c0.042,0.075,4.384,7.53,11.848,9.115    c4.487,0.943,9.263-0.39,14.176-3.995c0.474-0.348,1.146-0.249,1.501,0.231c0.35,0.478,0.247,1.151-0.231,1.501    C429.386,98.972,425.165,100.548,421.066,100.548z"/>
	</g>
	<g>
		<path style="fill:#241726;" d="M11.773,135.181c-0.197,0-0.396-0.057-0.574-0.172c-0.107-0.069-10.19-8.599-9.741-10.372    c0.268-1.081,0.415-1.628,14.861,0.627c0.585,0.092,0.985,0.641,0.895,1.226c-0.094,0.587-0.658,0.972-1.226,0.895    c-4.223-0.66-8.859-1.276-11.361-1.482c2.247,2.358,7.013,6.778,7.761,7.319c0.474,0.342,0.599,1.006,0.27,1.488    C12.447,135.013,12.112,135.181,11.773,135.181z"/>
		<path style="fill:#B1739A;" d="M28.384,134.538c0,0-1.965-16.641-10.508-13.122c-11.835,4.876-15.657,36.295,7.501,41.783    s30.329-13.706,30.329-13.706l-12.394-2.128c0,0,8.32-8.405,7.132-14.842c-1.189-6.437-7.717-0.343-7.717-0.343    s7.164-15.397,0.494-15.467S28.384,134.538,28.384,134.538z"/>
		<path style="fill:#241726;" d="M17.867,133.159c-0.01,0-0.021,0-0.031,0c-0.572-0.008-1.065-0.268-1.387-0.736    c-1.027-1.482,0.09-5.237,0.849-7.342c0.201-0.56,0.819-0.843,1.373-0.648c0.557,0.201,0.847,0.815,0.648,1.373    c-0.721,2.004-1.209,4.236-1.151,5.126c0.803-0.381,2.119-2.048,2.934-3.563c0.281-0.524,0.935-0.717,1.452-0.438    c0.522,0.281,0.719,0.931,0.438,1.452C22.39,129.508,20.246,133.159,17.867,133.159z"/>
		<path style="fill:#241726;" d="M39.378,147.525c-0.287,0-0.574-0.115-0.786-0.342c-0.402-0.434-0.379-1.113,0.054-1.517    c2.031-1.888,5.122-5.69,4.776-7.842c-0.031-0.199-0.078-0.262-0.078-0.262c-0.583-0.184-2.894,1.423-4.749,3.221    c-0.331,0.323-0.84,0.396-1.255,0.174c-0.411-0.222-0.633-0.685-0.545-1.146c0.566-2.974,0.746-6.044,0.449-7.101    c-1.299,0.996-4.332,5.504-6.621,9.544c-0.296,0.52-0.958,0.694-1.463,0.407c-0.516-0.293-0.698-0.947-0.407-1.463    c6.478-11.435,8.429-10.915,9.092-10.749c1.517,0.4,2.029,2.697,1.524,6.841c1.538-1.155,3.385-2.165,4.716-1.723    c0.453,0.151,1.247,0.602,1.459,1.918c0.635,3.98-4.812,9.175-5.434,9.754C39.902,147.431,39.64,147.525,39.378,147.525z"/>
		<path style="fill:#241726;" d="M28.671,159.102c-2.896,0-6.294-0.53-9.452-2.339c-4.546-2.603-7.555-7.266-8.941-13.859    c-0.122-0.578,0.249-1.148,0.83-1.27c0.574-0.128,1.148,0.247,1.27,0.83c1.255,5.967,3.915,10.152,7.907,12.439    c6.637,3.802,14.815,1.136,14.893,1.107c0.562-0.184,1.172,0.115,1.36,0.677c0.187,0.564-0.115,1.172-0.677,1.36    C35.646,158.117,32.624,159.102,28.671,159.102z"/>
	</g>
	<polygon style="fill:#DFB500;" points="22.689,310.95 35.691,303.514 32.603,317.316 41.94,326.228 30.561,329.692 24.305,341.557    18.761,330.646 4.467,329.463 15.338,319.303 10.727,306.76  "/>
	<polygon style="fill:#DFB500;" points="419.715,216.522 432.717,209.086 429.629,222.888 438.967,231.8 427.588,235.264    421.331,247.129 415.788,236.218 401.494,235.035 412.364,224.875 407.754,212.332  "/>
	<g>
		<g>
			<path style="fill:#FFFFFF;" d="M119.271,101.16c0,0,67.014-9.452,73.556,5.224c6.542,14.676-1.402,45.968,3.859,53.986     c5.261,8.018,12.923,15.29,0.95,15.868s-71.844,4.13-77.784-1.898S103.119,109.864,119.271,101.16z"/>
			<path style="fill:#241726;" d="M150.688,178.876c-24.984,0-29.999-2.159-31.6-3.783c-4.632-4.701-11.791-37.603-8.607-58.764     c1.264-8.413,4.051-13.834,8.283-16.115c0.111-0.059,0.233-0.101,0.358-0.117c0.214-0.029,21.538-3.005,41.117-3.005     c19.933,0,30.913,2.896,33.57,8.857c3.578,8.029,2.955,20.744,2.404,31.963c-0.465,9.465-0.903,18.403,1.371,21.87     c0.861,1.312,1.788,2.605,2.681,3.85c3.102,4.33,5.782,8.071,4.451,10.823c-0.851,1.758-3.085,2.666-7.027,2.854l-3.196,0.161     C185.608,177.927,167.125,178.876,150.688,178.876z M119.618,102.195c-3.515,2.001-5.875,6.862-7.017,14.453     c-3.129,20.813,4.313,53.183,8.016,56.941c1.155,1.174,6.6,3.142,30.07,3.142c16.381,0,34.828-0.947,43.693-1.402l3.202-0.161     c3.726-0.18,4.883-0.995,5.2-1.647c0.775-1.603-1.788-5.181-4.265-8.637c-0.91-1.27-1.853-2.586-2.729-3.923     c-2.657-4.051-2.224-12.902-1.721-23.152c0.539-10.98,1.151-23.423-2.222-30.986c-1.542-3.458-8.278-7.583-31.609-7.583     C141.806,99.238,121.8,101.898,119.618,102.195z"/>
		</g>
		<path style="fill:#E17B8D;" d="M155.963,165.379c0,0,28.154-37.616,13.893-43.516c-14.261-5.9-19.323,14.947-19.323,14.947    s-10.513-19.603-22.358-7.273C116.33,141.865,153.094,167.985,155.963,165.379z"/>
	</g>
	<path style="fill:#FFFFFF;" d="M219.945,285.089c0,0-5.356,1.488-2.381,6.249C220.54,296.099,225.599,284.197,219.945,285.089z"/>
	<g>
		<g>
			<path style="fill:#E38B72;" d="M341.901,226.663c1.94-10.106-38.392-7.494-39.148-12.034c-0.429-2.575,0.452-17.033,1.295-29.065     c6.081-3.157,10.362-7.788,13.322-12.278c0.678,0.728,1.563,1.347,2.719,1.809c11.361,4.544,22.735-9.439,21.932-22.667     c-0.512-8.424-8.327-6.529-13.938-4.043c6.621-17.294,16.241-49.103,0-54.661c0,0-44.15-29.161-66.466-9.651     c-4.521,3.953-11.762,20.316-16.708,38.187c-3.062-4.761-7.629-8.982-12.47-3.286c-8.583,10.096-7.881,28.107,3.933,31.294     c1.243,0.335,2.354,0.36,3.36,0.163c-0.617,9.416,0.395,17.426,4.014,21.943c7.124,8.893,14.445,12.074,20.386,13.541     c0.862,7.734,0.459,17.169-4.211,25.072c-9.835,16.644-34.32-1.505-46.425,24.974     C201.388,262.442,335.105,262.074,341.901,226.663z"/>
			<path style="fill:#EAB700;" d="M434.864,314.103c-6.95-19.941-27.488-52.163-46.107-69.914     c-15.007-14.307-30.705-20.698-39.44-23.362c-8.573-4.518-35.558-4.15-38.933-5.275c-3.557-1.186-1.494-16.97-2.976-19.045     c-1.482-2.075-49.099-1.19-49.099-1.19c-1.482,0.593,1.488,17.557-1.488,16.069c-2.818-1.409-35.76,4.103-44.355,11.808     c0,0,5.677-6.904-71.582,82.158c-19.888,22.927-44.483-7.316-47.214,3.219c-7.511,28.972,24.68,71.894,60.091,68.675     c20.724-1.884,41.807-23.24,58.319-40.637c1.744,23.057,3.872,40.551,5.502,41.06c4.742,1.482,125.873-1.936,136.839-5.789     c3.611-1.269,5.162-17.419,5.377-38.701c10.482,6.85,20.98,11.914,30.675,13.799     C425.931,353.875,445.214,336.148,434.864,314.103z"/>
			<path style="fill:#FBFCFF;" d="M239.604,273.698c-0.44,0-0.853-0.272-1.01-0.71c-7.545-21.019,3.789-58.638,4.275-60.231     c0.174-0.564,0.767-0.882,1.341-0.713c0.566,0.174,0.884,0.773,0.713,1.341c-0.117,0.381-11.613,38.531-4.309,58.877     c0.199,0.557-0.09,1.172-0.648,1.373C239.847,273.677,239.723,273.698,239.604,273.698z"/>
			<path style="fill:#B1739A;" d="M296.475,277.454c0,0-61.514-8.052-66.436-2.685c-4.922,5.367-4.873,87.948-4.873,87.948     s102.964,2.19,104.573-1.029s5.902-47.214,4.292-48.287C332.422,312.328,296.475,277.454,296.475,277.454z"/>
			<path style="fill:#FBFCFF;" d="M314.181,227.557c-0.275,0-0.549-0.105-0.759-0.314c-0.419-0.419-0.419-1.098,0-1.517     c2.255-2.257,1.352-6.943,0.813-8.559c-0.187-0.562,0.117-1.169,0.679-1.358c0.566-0.187,1.169,0.119,1.358,0.679     c0.096,0.289,2.314,7.109-1.333,10.756C314.73,227.453,314.455,227.557,314.181,227.557z"/>
			<path style="fill:#241726;" d="M299.185,156.564c-0.013,0-0.025,0-0.04,0c-0.493-0.015-0.92-0.235-1.201-0.616     c-1.484-2.012,0.809-11.447,2.307-16.892c0.159-0.57,0.742-0.899,1.32-0.75c0.57,0.157,0.908,0.748,0.75,1.32     c-1.593,5.786-2.987,12.617-2.741,14.645c1.867-0.975,7.046-6.373,11.196-11.307c0.379-0.455,1.058-0.513,1.513-0.13     c0.453,0.381,0.511,1.058,0.13,1.513C308.572,148.921,301.757,156.564,299.185,156.564z"/>
			<path style="fill:#241726;" d="M262.012,145.279c-0.038,0-0.073-0.002-0.105-0.004c-0.547-0.023-1-0.36-1.211-0.905     c-0.956-2.444-1.819-15.656-1.913-17.154c-0.038-0.591,0.411-1.1,1.004-1.138c0.604-0.057,1.102,0.411,1.138,1.004     c0.312,4.902,0.92,12.273,1.484,15.339c1.643-2.154,4.952-8.19,7.593-13.572c0.262-0.53,0.905-0.744,1.438-0.49     c0.53,0.262,0.75,0.905,0.49,1.438C264.636,144.654,262.786,145.279,262.012,145.279z"/>
			<path style="fill:#241726;" d="M333.942,165.863c-0.096,0-0.195-0.013-0.293-0.042c-0.57-0.161-0.901-0.754-0.74-1.325     c0.788-2.777,0.92-5.789,0.268-6.08c-1.008-0.21-5.315,3.129-9.224,6.985c-0.421,0.417-1.1,0.413-1.517-0.008     c-0.417-0.423-0.413-1.102,0.008-1.517c3.28-3.238,9.136-8.509,11.604-7.421c2.783,1.241,1.413,6.918,0.924,8.628     C334.839,165.555,334.409,165.863,333.942,165.863z"/>
			<path style="fill:#241726;" d="M240.157,141.114c-0.522,0-0.979-0.381-1.058-0.914c-0.811-5.434-2.322-10.64-3.232-11.143     c-0.719-0.09-2.377,2.402-3.389,5.04c-0.212,0.551-0.826,0.828-1.387,0.616c-0.553-0.212-0.828-0.834-0.616-1.387     c0.637-1.66,3.003-7.015,5.919-6.344c2.616,0.597,4.148,8.339,4.827,12.902c0.088,0.585-0.316,1.132-0.901,1.218     C240.264,141.11,240.21,141.114,240.157,141.114z"/>
			<circle style="fill:#DF4F3E;" cx="304.976" cy="168.684" r="8.088"/>
			<circle style="fill:#DF4F3E;" cx="253.361" cy="155.661" r="8.088"/>
			<circle style="fill:#DF4F3E;" cx="275.627" cy="172.084" r="8.088"/>
			<path style="fill:#241726;" d="M281.91,159.496c-0.163,0-0.329-0.038-0.484-0.115c-1.649-0.834-6.333-3.093-8.197-3.519     c-0.461-0.105-0.826-0.409-1.027-0.853c-1.086-2.412,4.56-13.394,8.023-19.728c0.283-0.52,0.937-0.71,1.457-0.425     c0.52,0.283,0.71,0.937,0.425,1.457c-3.848,7.038-7.811,15.446-7.943,17.577c2.701,0.782,7.993,3.456,8.23,3.575     c0.53,0.268,0.742,0.914,0.474,1.442C282.679,159.281,282.299,159.496,281.91,159.496z"/>
			<path style="fill:#241726;" d="M274.537,176.271c-0.272,0-0.545-0.031-0.815-0.094c-3.098-0.725-4.697-5.195-5.034-14.069     c-0.021-0.591,0.44-1.09,1.033-1.113c0.585,0.015,1.09,0.442,1.113,1.033c0.388,10.261,2.492,11.852,3.378,12.059     c2.559,0.61,7.304-5.703,9.84-10.372c0.283-0.522,0.941-0.71,1.454-0.432c0.522,0.283,0.715,0.935,0.432,1.454     C284.848,166.744,279.411,176.271,274.537,176.271z"/>
			<path style="fill:#241726;" d="M280.428,190.487c-7.27,0-17.414-1.517-26.761-8.218c-0.482-0.346-0.593-1.014-0.247-1.496     c0.346-0.486,1.016-0.593,1.496-0.247c15.928,11.418,34.849,6.893,35.042,6.845c0.576-0.149,1.157,0.21,1.299,0.784     c0.142,0.574-0.207,1.157-0.784,1.299C290.117,189.542,286.166,190.487,280.428,190.487z"/>
			<path style="fill:#DF4F3E;" d="M265.715,83.233c0,0-6.438,2.146,10.73,27.899s13.459-30.308,16.453-22.892     c0.821,2.034-6.406,18.454,19.315,40.06c17.884,15.023,11.446-25.038,11.446-25.038s6.438,33.622,3.577,44.353     c-2.861,10.73,39.345-6.438,32.191-49.36c-4.313-25.878-50.075-65.098-87.99-41.491c-32.283,20.1-44.816,45.086-29.793,62.97     C256.667,137.618,253.554,88.956,265.715,83.233z"/>
			<path style="fill:#E38B72;" d="M235.252,222.252c-1.305,1.305,0.412,2.057,3.424,2.474c-3.704,0.741-6.975,2.112-8.826,4.518     c-1.847,2.401,0.247,3.27,3.852,3.368c-2.796,0.769-5.193,1.749-6.615,2.993c-5.723,5.008,9.3,2.146,21.461,2.861     c12.161,0.715-13.29,14.25-5.723,27.184c2.605,4.453,2.51-19.454,20.59-15.897c3.579,0.704-19.978,16.723-14.523,18.968     c11.799,4.857,11.817-12.371,26.124-13.802c14.307-1.431,14.015,4.88,16.772-0.174c6.908-12.665,15.162-21.135,15.162-21.135     C265.139,202.369,239.544,217.96,235.252,222.252z"/>
			<path style="fill:#241726;" d="M234.618,233.495c-0.392,0-0.769-0.214-0.958-0.587c-0.268-0.528-0.059-1.174,0.467-1.442     c0.553-0.285,13.667-6.843,26.715-1.679c0.551,0.218,0.822,0.84,0.604,1.392c-0.216,0.551-0.838,0.826-1.392,0.604     c-12.128-4.795-24.825,1.532-24.952,1.595C234.947,233.457,234.782,233.495,234.618,233.495z"/>
			<path style="fill:#241726;" d="M264.173,227.138c-0.331,0-0.66-0.153-0.87-0.444c-5.69-7.857-24.035-1.897-24.219-1.834     c-0.566,0.191-1.172-0.119-1.356-0.681c-0.187-0.562,0.117-1.169,0.681-1.356c0.815-0.27,20.021-6.518,26.633,2.613     c0.348,0.48,0.239,1.151-0.241,1.498C264.613,227.071,264.393,227.138,264.173,227.138z"/>
			<path style="fill:#241726;" d="M281.222,96.704c-0.446,0-0.863-0.281-1.016-0.727c-4.55-13.35,3.565-31.003,3.913-31.749     c0.254-0.539,0.891-0.767,1.425-0.518c0.539,0.251,0.769,0.889,0.52,1.425c-0.082,0.176-8.096,17.624-3.825,30.15     c0.191,0.56-0.109,1.169-0.671,1.362C281.453,96.686,281.337,96.704,281.222,96.704z"/>
			<path style="fill:#241726;" d="M308.895,115.154c-0.316,0-0.631-0.14-0.843-0.409c-7.845-9.959-10.816-44.634-10.938-46.103     c-0.05-0.591,0.39-1.111,0.979-1.159c0.566-0.05,1.111,0.388,1.159,0.979c0.029,0.354,3.037,35.499,10.485,44.955     c0.367,0.465,0.287,1.14-0.178,1.507C309.362,115.078,309.128,115.154,308.895,115.154z"/>
			<path style="fill:#241726;" d="M317.23,104.44c-0.069,0-0.138-0.006-0.207-0.019c-0.581-0.113-0.962-0.677-0.849-1.26     c4.036-20.748-7.163-37.712-7.277-37.879c-0.331-0.493-0.199-1.159,0.291-1.49c0.49-0.329,1.157-0.203,1.49,0.291     c0.484,0.721,11.806,17.877,7.604,39.489C318.182,104.084,317.733,104.44,317.23,104.44z"/>
			<path style="fill:#241726;" d="M333.594,121.699c-0.21,0-0.419-0.061-0.604-0.187c-0.49-0.333-0.616-1-0.283-1.49     c9.123-13.398,0.247-43.123,0.157-43.421c-0.172-0.568,0.149-1.167,0.715-1.339c0.576-0.174,1.167,0.149,1.339,0.715     c0.384,1.26,9.263,31.007-0.438,45.252C334.273,121.535,333.936,121.699,333.594,121.699z"/>
			<path style="fill:#241726;" d="M249.976,102.059c-0.593,0-1.073-0.48-1.073-1.073c0-13.059,8.545-22.635,8.909-23.037     c0.398-0.434,1.075-0.472,1.513-0.073c0.44,0.396,0.474,1.075,0.078,1.515c-0.084,0.092-8.354,9.385-8.354,21.595     C251.049,101.579,250.569,102.059,249.976,102.059z"/>
			<path style="fill:#241726;" d="M338.653,133.305c-0.26,0-0.52-0.094-0.727-0.283c-0.436-0.4-0.463-1.079-0.063-1.517     c16.144-17.559,6.855-31.699,6.451-32.292c-0.333-0.49-0.207-1.157,0.283-1.49c0.486-0.34,1.153-0.21,1.488,0.277     c0.109,0.159,10.697,16.1-6.642,34.96C339.232,133.188,338.942,133.305,338.653,133.305z"/>
			<path style="fill:#241726;" d="M411.262,298.458c-0.457,0-0.88-0.293-1.025-0.752c-4.554-14.52-69.207-77.125-89.469-71.89     c-20.036,5.154-31.28,37.372-31.391,37.697c-0.191,0.557-0.798,0.861-1.362,0.666c-0.56-0.191-0.859-0.801-0.666-1.362     c0.469-1.371,11.739-33.642,32.885-39.08c21.172-5.397,86.921,56.972,92.053,73.328c0.176,0.566-0.138,1.167-0.704,1.345     C411.476,298.443,411.369,298.458,411.262,298.458z"/>
			<path style="fill:#241726;" d="M358.989,334.357c-0.193,0-0.388-0.052-0.564-0.159c-23.963-14.792-68.342-65.355-68.786-65.864     c-0.392-0.446-0.346-1.123,0.101-1.513c0.442-0.39,1.123-0.348,1.513,0.101c0.444,0.507,44.609,50.827,68.3,65.449     c0.505,0.312,0.66,0.972,0.35,1.478C359.699,334.177,359.347,334.357,358.989,334.357z"/>
			<path style="fill:#241726;" d="M299.376,264.238c-0.071,0-0.145-0.006-0.216-0.021c-0.581-0.119-0.956-0.685-0.838-1.266     c3.012-14.754,24.129-34.272,25.026-35.096c0.436-0.396,1.113-0.371,1.515,0.065c0.4,0.436,0.373,1.115-0.065,1.515     c-0.214,0.197-21.501,19.872-24.372,33.943C300.321,263.888,299.875,264.238,299.376,264.238z"/>
			<path style="fill:#241726;" d="M293.969,204.94c-10.781,0-28.476-4.766-29.393-5.015c-0.572-0.155-0.91-0.744-0.754-1.316     c0.155-0.57,0.738-0.903,1.316-0.754c7.513,2.041,28.285,6.778,34.103,4.217c0.545-0.231,1.176,0.008,1.415,0.551     s-0.008,1.176-0.551,1.415C298.642,204.678,296.494,204.94,293.969,204.94z"/>
			<path style="fill:#241726;" d="M207.721,278.818c-0.407,0-0.794-0.233-0.975-0.625c-5.26-11.456,12.457-35.756,13.216-36.785     c0.352-0.48,1.027-0.583,1.498-0.228c0.478,0.35,0.581,1.023,0.228,1.498c-0.176,0.243-17.728,24.307-12.994,34.618     c0.247,0.539,0.013,1.176-0.526,1.423C208.023,278.787,207.872,278.818,207.721,278.818z"/>
			<path style="fill:#1A1F36;" d="M232.897,275.844c-35.691,0-65.353,13.67-71.507,31.692c-20.025-1.007-82.615-3.772-82.615,1.036     c0,5.723,1.431,15.738,1.431,15.738l82.708,0.617c8.582,16.254,36.653,28.176,69.983,28.176c40.15,0,72.699-17.295,72.699-38.63     C305.596,293.139,273.048,275.844,232.897,275.844z"/>
			<path style="fill:#DF4F3E;" d="M223.79,289.35c0,0-38.196,7.776-36.766,25.66s39.345,3.577,70.106,9.3     S275.866,276.852,223.79,289.35z"/>
			<path style="fill:#241726;" d="M204.152,316.61c-0.159,0-0.319-0.036-0.472-0.109c-0.532-0.26-0.752-0.903-0.493-1.436     c0.262-0.539,6.629-13.254,23.211-19.283c0.56-0.203,1.174,0.084,1.375,0.641c0.203,0.557-0.084,1.174-0.641,1.375     c-15.777,5.738-21.956,18.085-22.016,18.21C204.929,316.387,204.548,316.61,204.152,316.61z"/>
			<path style="fill:#241726;" d="M223.494,315.717c-0.128,0-0.256-0.023-0.381-0.071c-0.555-0.21-0.832-0.83-0.62-1.383     c2.463-6.468,18.428-18.422,19.107-18.929c0.474-0.35,1.146-0.258,1.501,0.22c0.354,0.476,0.258,1.146-0.218,1.501     c-0.161,0.122-16.142,12.084-18.386,17.971C224.334,315.455,223.925,315.717,223.494,315.717z"/>
			<path style="fill:#241726;" d="M238.074,318.693c-0.283,0-0.564-0.111-0.775-0.331c-0.409-0.428-0.394-1.107,0.034-1.517     c7.138-6.841,20.226-19.631,20.226-19.631l1.501,1.534c0,0-13.097,12.799-20.243,19.648     C238.609,318.594,238.34,318.693,238.074,318.693z"/>
			<path style="fill:#FFFFFF;" d="M232.722,275.842c0,0-5.356,1.488-2.381,6.249C233.317,286.852,238.376,274.95,232.722,275.842z"/>
			<path style="fill:#FFFFFF;" d="M244.918,283.399c0,0-5.356,1.488-2.381,6.249C245.513,294.409,250.572,282.506,244.918,283.399z"/>
			<path style="fill:#FFFFFF;" d="M233.61,289.053c0,0-5.356,1.488-2.381,6.249C234.205,300.063,239.264,288.16,233.61,289.053z"/>
			<g>
				<path style="fill:#241726;" d="M371.928,271.693c-0.086,0-0.176-0.01-0.264-0.034c-0.574-0.145-0.922-0.729-0.775-1.304      c0.384-1.509,0.287-2.641-0.283-3.362c-0.84-1.063-2.492-1.052-2.565-1.05c-0.006,0-0.013,0-0.017,0      c-0.583,0-1.063-0.465-1.075-1.05c-0.015-0.591,0.451-1.079,1.04-1.096c0.122-0.002,2.766-0.057,4.286,1.846      c1.021,1.274,1.253,3.039,0.694,5.24C372.844,271.37,372.408,271.693,371.928,271.693z"/>
				<path style="fill:#241726;" d="M359.36,270.328c-0.086,0-0.176-0.01-0.264-0.034c-0.574-0.145-0.922-0.729-0.775-1.304      c0.386-1.515,0.287-2.649-0.291-3.372c-0.851-1.063-2.534-1.037-2.551-1.042c-0.664-0.004-1.086-0.453-1.102-1.044      c-0.015-0.593,0.453-1.086,1.044-1.102c0.111-0.004,2.762-0.059,4.286,1.848c1.021,1.274,1.253,3.039,0.694,5.239      C360.275,270.005,359.84,270.328,359.36,270.328z"/>
				<path style="fill:#241726;" d="M367.439,279.133c-0.086,0-0.176-0.01-0.264-0.034c-0.574-0.145-0.922-0.729-0.775-1.304      c0.384-1.515,0.287-2.649-0.291-3.37c-0.834-1.048-2.542-1.023-2.553-1.042c-0.643,0.023-1.086-0.453-1.102-1.044      c-0.015-0.593,0.451-1.086,1.044-1.102c0.119-0.002,2.769-0.057,4.288,1.846c1.021,1.276,1.253,3.039,0.694,5.24      C368.355,278.81,367.919,279.133,367.439,279.133z"/>
				<path style="fill:#241726;" d="M384.459,290.687c-0.086,0-0.176-0.01-0.264-0.034c-0.574-0.145-0.922-0.729-0.775-1.304      c0.384-1.511,0.287-2.643-0.283-3.364c-0.84-1.063-2.513-1.065-2.565-1.05c-0.006,0-0.013,0-0.017,0      c-0.583,0-1.063-0.465-1.075-1.05c-0.015-0.589,0.451-1.079,1.039-1.096c0.122-0.006,2.766-0.057,4.286,1.846      c1.021,1.276,1.253,3.039,0.694,5.242C385.375,290.364,384.939,290.687,384.459,290.687z"/>
				<path style="fill:#241726;" d="M381.286,280.728c-0.086,0-0.176-0.01-0.264-0.034c-0.574-0.147-0.922-0.729-0.775-1.304      c0.386-1.515,0.287-2.651-0.289-3.372c-0.838-1.046-2.532-1.012-2.553-1.042c-0.654,0.05-1.086-0.453-1.102-1.044      c-0.015-0.593,0.451-1.086,1.044-1.102c0.124-0.002,2.766-0.057,4.288,1.846c1.019,1.276,1.253,3.039,0.692,5.242      C382.202,280.405,381.766,280.728,381.286,280.728z"/>
				<path style="fill:#241726;" d="M376.159,287.266c-0.09,0-0.182-0.01-0.275-0.036c-0.574-0.153-0.914-0.74-0.763-1.312      c0.549-2.069,0.493-3.59-0.161-4.397c-0.614-0.759-1.683-0.708-1.685-0.717c-0.589,0-1.094-0.419-1.13-1.008      c-0.036-0.587,0.402-1.092,0.989-1.134c0.082-0.002,2.14-0.128,3.469,1.475c1.14,1.381,1.341,3.51,0.593,6.329      C377.069,286.95,376.635,287.266,376.159,287.266z"/>
				<path style="fill:#241726;" d="M362.874,261.029c-0.511,0-0.964-0.367-1.054-0.889c-0.222-1.268-0.725-2.14-1.543-2.668      c-1.507-0.975-3.63-0.451-3.649-0.442c-0.576,0.132-1.159-0.199-1.308-0.769c-0.149-0.572,0.193-1.157,0.763-1.308      c0.124-0.031,3.03-0.773,5.342,0.706c1.337,0.857,2.182,2.24,2.507,4.112c0.103,0.585-0.289,1.14-0.872,1.241      C362.998,261.025,362.937,261.029,362.874,261.029z"/>
			</g>
			<path style="fill:#FBFCFF;" d="M353.789,344.234c-7.614,0-19.828-1.781-20.449-1.872c-0.587-0.088-0.993-0.633-0.908-1.218     c0.088-0.587,0.643-0.975,1.218-0.907c0.184,0.027,18.137,2.655,23.796,1.616c0.574-0.088,1.142,0.279,1.249,0.863     c0.105,0.585-0.281,1.142-0.863,1.249C356.788,344.155,355.39,344.234,353.789,344.234z"/>
			<path style="fill:#E38B72;" d="M101.718,296.232c0,0,20.388-10.73,34.516-0.537c8.855,6.389,9.121,24.322,1.967,30.045     c-7.154,5.723-9.121-6.438-9.121-6.438s7.154,10.015,0,9.3c-7.154-0.715-8.584-5.008-8.584-5.008s11.446,4.292-3.577,5.723     s-16.202-23.965-25.932-23.965C89.378,305.353,101.718,296.232,101.718,296.232z"/>
			<path style="fill:#241726;" d="M119.423,328.424c-0.593,0-1.073-0.48-1.073-1.073c0-7.04-9.32-18.521-9.414-18.636     c-0.375-0.459-0.308-1.134,0.151-1.509c0.459-0.375,1.134-0.31,1.509,0.151c0.404,0.495,9.901,12.189,9.901,19.994     C120.496,327.944,120.016,328.424,119.423,328.424z"/>
			<path style="fill:#241726;" d="M129.619,324.668c-0.048,0-0.096-0.002-0.145-0.008c-0.587-0.08-1-0.618-0.922-1.207     c0.993-7.436-9.249-17.774-9.351-17.877c-0.419-0.419-0.419-1.098,0-1.517s1.098-0.419,1.517,0     c0.453,0.453,11.093,11.202,9.963,19.679C130.608,324.276,130.147,324.668,129.619,324.668z"/>
			<path style="fill:#241726;" d="M136.055,324.131c-0.09,0-0.184-0.01-0.277-0.036c-0.572-0.153-0.914-0.742-0.761-1.314     c2.01-7.534-6.25-22.115-6.333-22.262c-0.293-0.513-0.115-1.169,0.4-1.465c0.509-0.289,1.167-0.117,1.465,0.4     c0.358,0.629,8.777,15.503,6.543,23.879C136.965,323.815,136.531,324.131,136.055,324.131z"/>
		</g>
		<path style="fill:#52AFA6;" d="M67.256,363.462c0,0,327.835-2.731,333.544,0c5.709,2.731,38.536,94.215,35.682,98.312    s-409.624,2.731-409.624-2.731S67.256,363.462,67.256,363.462z"/>
		<g>
			<path style="fill:#DF4F3E;" d="M82.787,368.549c0,0,4.624-18.627,30.377-16.481s40.414,37.25,10.368,49.053     S70.983,393.229,82.787,368.549z"/>
			<path style="fill:#52AFA6;" d="M88.604,357.238c0,0-8.725-7.433-6.786-9.695c1.939-2.262,7.433-8.079,8.079-4.524     c0.646,3.555,2.585,9.372,2.585,9.372s13.573-6.786,20.682-0.323c7.11,6.463-10.664,0-8.725,3.555     c1.939,3.555,11.957,9.049,8.079,11.957c-3.878,2.908-17.128-4.201-17.128-4.201s1.293,13.573-0.969,13.896     s-7.433-8.725-7.433-8.725s-6.463,15.189-7.756,8.725S83.756,358.854,88.604,357.238z"/>
			<path style="fill:#241726;" d="M135.463,378.348c-0.008,0-0.017,0-0.025,0c-0.593-0.015-1.063-0.505-1.048-1.098     c0.3-12.554-16.159-16.991-16.324-17.033c-0.572-0.151-0.916-0.736-0.767-1.31c0.149-0.57,0.719-0.916,1.308-0.769     c0.182,0.048,18.269,4.904,17.929,19.162C136.521,377.885,136.043,378.348,135.463,378.348z"/>
		</g>
		<g>
			<path style="fill:#1A1F36;" d="M144.103,382.97c0,0,198.871-5.008,203.879,0c5.008,5.008,6.796,61.879,7.511,64.025     s-228.916,6.438-229.632,2.146C125.146,444.849,144.103,382.97,144.103,382.97z"/>
			<path style="fill:#FBFCFF;" d="M204.414,434.471c-2.632,0-5.392-0.132-8.201-0.394c-25.007-2.326-29.723-12.923-30.307-19.03     c-0.916-9.571,7.43-20.319,18.225-23.467c0.298-0.128,9.957-4.036,21.381-4.036c11.46,0,20.373,3.877,26.491,11.525     c6.143,7.679,7.836,15.425,4.766,21.811C232.68,429.388,220.583,434.471,204.414,434.471z M205.512,389.69     c-10.986,0-20.579,3.875-20.675,3.915c-9.978,2.915-17.619,12.623-16.796,21.237c0.522,5.449,4.902,14.916,28.369,17.097     c2.745,0.256,5.436,0.386,8.004,0.386c15.324,0,26.696-4.628,30.42-12.376c2.693-5.6,1.092-12.539-4.508-19.539     C224.636,393.297,216.286,389.69,205.512,389.69z"/>
			<path style="fill:#FBFCFF;" d="M300.258,434.471c-2.632,0-5.392-0.132-8.201-0.394c-25.007-2.326-29.723-12.923-30.307-19.03     c-0.916-9.571,7.43-20.319,18.225-23.467c0.298-0.128,9.957-4.036,21.381-4.036c11.46,0,20.373,3.877,26.491,11.525     c6.143,7.679,7.836,15.425,4.766,21.811C328.524,429.388,316.427,434.471,300.258,434.471z M301.357,389.69     c-10.986,0-20.579,3.875-20.675,3.915c-9.978,2.915-17.619,12.623-16.796,21.237c0.522,5.449,4.902,14.916,28.369,17.097     c2.745,0.256,5.436,0.386,8.004,0.386c15.324,0,26.696-4.628,30.42-12.376c2.693-5.6,1.092-12.539-4.508-19.539     C320.481,393.297,312.131,389.69,301.357,389.69z"/>
			<g>
				<path style="fill:#DF4F3E;" d="M178.192,403.304c0,0-1.188,17.228,28.219,16.634c25.568-0.517,22.872-26.436,16.931-40.397      s-13.961,2.079-13.961,2.079s-0.297-19.01-8.614-22.575c-4.519-1.937-8.911,22.278-8.911,22.278s-2.97-6.238-7.129-3.564      C180.569,380.432,175.816,394.987,178.192,403.304z"/>
				<path style="fill:#EAB700;" d="M201.659,413.997c0,0-5.941,0.297-8.911-8.02c-2.97-8.317,3.267-19.01,5.941-18.713      c2.673,0.297,5.347,9.208,5.347,9.208s-0.297-10.693,4.456-6.535S218.293,414.888,201.659,413.997z"/>
			</g>
		</g>
		<g>
			<path style="fill:#FFFFFF;" d="M362.576,364.747c0,0,15.122-0.976,15.609,0.366c0.488,1.341,11.829,31.097,8.78,33.536     c-3.049,2.439-25.853,2.927-30,0.488C352.82,396.697,361.478,364.137,362.576,364.747z"/>
			<path style="fill:#1A1F36;" d="M357.942,353.283c0,0,22.34-2.779,23.813,0.167c1.473,2.946-2.096,9.452-3.57,11.662     c0,0-10.794,1.597-14.845,0.86S351.312,353.652,357.942,353.283z"/>
			<path style="fill:#FFFFFF;" d="M362.279,355.436c0,0,1.961-0.686,2.647,0.392c0.686,1.079-1.373,1.863-2.451,1.177     S361.2,355.534,362.279,355.436z"/>
			<path style="fill:#FFFFFF;" d="M368.376,354.094c0,0,1.961-0.686,2.647,0.392c0.686,1.079-1.373,1.863-2.451,1.177     S367.298,354.193,368.376,354.094z"/>
			<path style="fill:#FFFFFF;" d="M365.206,358.363c0,0,1.961-0.686,2.647,0.392s-1.373,1.863-2.451,1.177     S364.127,358.461,365.206,358.363z"/>
			<path style="fill:#FFFFFF;" d="M371.913,358.607c0,0,1.961-0.686,2.647,0.392c0.686,1.079-1.373,1.863-2.451,1.177     S370.834,358.705,371.913,358.607z"/>
			<path style="fill:#FFFFFF;" d="M374.84,355.924c0,0,1.961-0.686,2.647,0.392c0.686,1.079-1.373,1.863-2.451,1.177     S373.761,356.022,374.84,355.924z"/>
			<path style="fill:#241726;" d="M382.141,391.32c-0.457,0-0.878-0.293-1.023-0.75c-1.413-4.477-5.07-18.864-5.225-19.474     c-0.147-0.574,0.201-1.159,0.775-1.304c0.581-0.155,1.157,0.201,1.304,0.775c0.038,0.149,3.798,14.937,5.191,19.357     c0.178,0.566-0.134,1.167-0.7,1.345C382.357,391.304,382.248,391.32,382.141,391.32z"/>
		</g>
		<g>
			<path style="fill:#FFFFFF;" d="M376.758,430.82c0,0-0.976-15.122,0.366-15.609c1.341-0.488,31.097-11.829,33.536-8.78     s2.927,25.853,0.488,30S376.148,431.918,376.758,430.82z"/>
			<path style="fill:#1A1F36;" d="M365.295,435.454c0,0-2.779-22.34,0.167-23.813s9.452,2.096,11.662,3.57     c0,0,1.597,10.794,0.86,14.845C377.247,434.108,365.663,442.084,365.295,435.454z"/>
			<path style="fill:#FFFFFF;" d="M367.447,431.117c0,0-0.686-1.961,0.392-2.647s1.863,1.373,1.177,2.451     S367.545,432.196,367.447,431.117z"/>
			<path style="fill:#FFFFFF;" d="M366.106,425.02c0,0-0.686-1.961,0.392-2.647c1.079-0.686,1.863,1.373,1.177,2.451     C366.988,425.902,366.204,426.098,366.106,425.02z"/>
			<path style="fill:#FFFFFF;" d="M370.374,428.19c0,0-0.686-1.961,0.392-2.647c1.079-0.686,1.863,1.373,1.177,2.451     S370.472,429.269,370.374,428.19z"/>
			<path style="fill:#FFFFFF;" d="M370.618,421.483c0,0-0.686-1.961,0.392-2.647s1.863,1.373,1.177,2.451     S370.716,422.562,370.618,421.483z"/>
			<path style="fill:#FFFFFF;" d="M367.935,418.556c0,0-0.686-1.961,0.392-2.647s1.863,1.373,1.177,2.451     C368.817,419.439,368.033,419.635,367.935,418.556z"/>
			<path style="fill:#241726;" d="M382.843,417.537c-0.48,0-0.916-0.323-1.04-0.809c-0.147-0.574,0.201-1.159,0.775-1.304     c0.149-0.038,14.937-3.798,19.357-5.193c0.57-0.176,1.167,0.134,1.345,0.7c0.178,0.564-0.134,1.167-0.7,1.345     c-4.477,1.415-18.864,5.072-19.474,5.227C383.019,417.526,382.929,417.537,382.843,417.537z"/>
		</g>
		<g>
			<path style="fill:#E17B8D;" d="M99.035,375.369c-1.073-3.219-14.486-9.926-14.486-9.926l-2.775-37.235     c1.86-0.027,3.22-0.054,3.58-0.054c1.61,0,0.537-4.024-0.537-7.78c-1.073-3.756-22.802-2.414-22.802-2.414     s-1.878,8.048-0.537,9.389c0.294,0.294,1.562,0.494,3.33,0.633c-0.805,12.309,0.426,37.728,0.426,37.728     s-6.707,5.902-12.072,11.267c-4.424,4.424,2.414,74.04,2.414,74.04s42.654-0.537,46.946-0.537     C103.864,450.482,100.108,378.588,99.035,375.369z"/>
			<path style="fill:#FFFFFF;" d="M51.579,392.806c0,0,47.936-3.487,49.389-0.805c1.453,2.683,2.896,32.191,2.034,33.533     c-1.496,2.329-47.646,3.219-49.098,2.951C52.451,428.217,50.417,394.416,51.579,392.806z"/>
			<path style="fill:#241726;" d="M54.191,400.318c-0.551,0-1.023-0.425-1.067-0.985c-0.048-0.591,0.392-1.109,0.981-1.157     c4.066-0.331,39.843-3.196,44.546-1.84c0.57,0.163,0.897,0.759,0.734,1.329c-0.166,0.568-0.765,0.903-1.329,0.734     c-3.269-0.947-27.973,0.631-43.775,1.916C54.25,400.315,54.221,400.318,54.191,400.318z"/>
			<path style="fill:#241726;" d="M55.063,425.534c-0.56,0-1.031-0.434-1.069-1.002c-0.04-0.591,0.409-1.102,1-1.142     c13.933-0.924,41.109-2.894,44.246-3.722c0.581-0.157,1.161,0.193,1.312,0.763c0.151,0.574-0.191,1.161-0.763,1.312     c-4.118,1.088-42.999,3.678-44.653,3.789C55.111,425.534,55.088,425.534,55.063,425.534z"/>
			<path style="fill:#241726;" d="M76.235,328.155c-0.065,0-0.13-0.006-0.195-0.017c-2.8-0.509-9.356-0.256-9.423-0.251     c-0.562,0.017-1.092-0.438-1.115-1.031c-0.023-0.591,0.438-1.09,1.031-1.115c0.277-0.008,6.857-0.266,9.892,0.285     c0.583,0.107,0.968,0.664,0.863,1.249C77.195,327.793,76.742,328.155,76.235,328.155z"/>
			<path style="fill:#241726;" d="M81.33,321.985c-0.161,0-0.325-0.036-0.48-0.113c-1.188-0.595-8.851-0.685-15.574-0.423     c-0.652,0.008-1.092-0.44-1.115-1.031c-0.021-0.593,0.44-1.092,1.031-1.115c2.375-0.092,14.339-0.49,16.618,0.65     c0.53,0.266,0.744,0.91,0.48,1.44C82.101,321.767,81.722,321.985,81.33,321.985z"/>
			<path style="fill:#241726;" d="M60.94,448.873c-0.499,0-0.947-0.352-1.05-0.859c-0.117-0.583,0.258-1.148,0.838-1.266     c0.933-0.189,22.922-4.571,35.096-1.327c0.572,0.153,0.914,0.742,0.761,1.314c-0.151,0.57-0.731,0.918-1.314,0.761     c-11.688-3.123-33.895,1.31-34.115,1.356C61.082,448.867,61.011,448.873,60.94,448.873z"/>
			<path style="fill:#241726;" d="M78.915,358.469c-0.465,0-0.893-0.302-1.029-0.771c-1.362-4.632-1.899-16.905-1.922-17.424     c-0.025-0.593,0.436-1.094,1.027-1.119c0.641-0.008,1.094,0.436,1.119,1.027c0.004,0.126,0.545,12.531,1.834,16.913     c0.168,0.568-0.157,1.163-0.727,1.331C79.117,358.454,79.016,358.469,78.915,358.469z"/>
			<path style="fill:#241726;" d="M95.548,377.247c-0.354,0-0.7-0.176-0.905-0.497c-1.394-2.19-7.291-5.095-9.448-6.03     c-0.543-0.237-0.792-0.868-0.557-1.413c0.237-0.543,0.861-0.796,1.413-0.557c0.853,0.371,8.406,3.71,10.404,6.847     c0.319,0.501,0.17,1.163-0.329,1.482C95.946,377.193,95.747,377.247,95.548,377.247z"/>
			<path style="fill:#241726;" d="M65.771,414.804c-0.01,0-0.023,0-0.036,0c-0.593-0.021-1.056-0.516-1.037-1.109     c0.019-0.522,0.245-5.154,2.838-7.186c1.058-0.826,2.383-1.104,3.821-0.803c3.758,0.79,3.877,3.992,3.936,5.531     c0.002,0.05,0.004,0.103,0.006,0.157c0.706-0.669,1.218-1.842,1.679-2.903c0.729-1.677,1.421-3.263,2.779-3.728     c0.666-0.226,1.369-0.147,2.087,0.247c2.148,1.169,2.031,3.462,1.955,4.978c-0.025,0.495-0.071,1.417,0.08,1.589     c0.576,0.149,1.899-1.027,2.756-1.804c1.746-1.587,4.139-3.756,6.365-1.976c0.463,0.371,0.537,1.046,0.168,1.509     c-0.371,0.465-1.044,0.534-1.509,0.168c-0.738-0.597-1.951,0.407-3.582,1.888c-1.528,1.389-2.978,2.697-4.565,2.345     c-2.027-0.451-1.924-2.481-1.857-3.825c0.078-1.532,0.061-2.498-0.838-2.989c-0.094-0.05-0.272-0.134-0.365-0.099     c-0.465,0.159-1.092,1.601-1.507,2.555c-0.719,1.647-1.532,3.517-3.037,4.269c-0.277,0.136-1.109,0.553-1.88,0.094     c-0.811-0.48-0.847-1.452-0.882-2.395c-0.069-1.851-0.26-3.095-2.23-3.51c-0.824-0.176-1.496-0.046-2.056,0.392     c-1.543,1.209-1.978,4.43-2.016,5.569C66.823,414.347,66.347,414.804,65.771,414.804z"/>
		</g>
	</g>
	<path style="fill:#241726;" d="M385.431,69.851c-0.218,0-0.436-0.065-0.625-0.201c-0.482-0.344-0.593-1.014-0.247-1.496   c0.822-1.146,1.582-2.333,2.259-3.523c0.296-0.513,0.951-0.687,1.465-0.4c0.513,0.293,0.694,0.949,0.4,1.465   c-0.715,1.253-1.515,2.5-2.381,3.707C386.094,69.696,385.765,69.851,385.431,69.851z M389.663,62.388   c-0.138,0-0.281-0.027-0.417-0.084c-0.545-0.231-0.803-0.859-0.572-1.406c0.555-1.316,1.002-2.632,1.327-3.909   c0.145-0.574,0.719-0.931,1.304-0.775c0.574,0.147,0.922,0.729,0.775,1.304c-0.352,1.381-0.832,2.798-1.427,4.215   C390.48,62.141,390.082,62.388,389.663,62.388z M356.444,54.296c-0.239,0-0.484-0.013-0.727-0.044   c-1.924-0.243-2.886-1.142-3.355-1.855c-0.325-0.495-0.189-1.159,0.308-1.486c0.488-0.325,1.155-0.191,1.486,0.308   c0.321,0.486,0.937,0.79,1.83,0.903c0.333,0.04,0.652,0.036,0.964-0.01c0.572-0.069,1.132,0.319,1.218,0.907   c0.084,0.587-0.321,1.132-0.907,1.218C356.993,54.275,356.721,54.296,356.444,54.296z M391.708,54.093   c-0.021,0-0.044,0-0.067-0.002c-0.591-0.038-1.042-0.547-1.004-1.138c0.021-0.348,0.031-0.698,0.031-1.048   c-0.002-1.014-0.09-2.016-0.26-2.972c-0.105-0.585,0.285-1.14,0.868-1.245c0.585-0.096,1.142,0.283,1.245,0.868   c0.193,1.079,0.291,2.205,0.293,3.347c0,0.398-0.01,0.79-0.036,1.184C392.743,53.655,392.272,54.093,391.708,54.093z    M360.688,52.07c-0.249,0-0.499-0.086-0.702-0.26c-0.448-0.388-0.497-1.067-0.111-1.515c0.75-0.868,1.423-2.008,1.997-3.389   c0.228-0.549,0.863-0.798,1.404-0.578c0.547,0.228,0.805,0.857,0.578,1.404c-0.664,1.591-1.457,2.926-2.354,3.967   C361.288,51.945,360.988,52.07,360.688,52.07z M353.225,48.738c-0.119,0-0.241-0.019-0.36-0.063   c-0.557-0.199-0.849-0.813-0.65-1.371c0.457-1.283,1.193-2.634,2.188-4.022c0.348-0.486,1.019-0.593,1.496-0.247   c0.482,0.346,0.593,1.014,0.247,1.496c-0.866,1.207-1.526,2.416-1.911,3.494C354.078,48.466,353.665,48.738,353.225,48.738z    M390.187,45.735c-0.405,0-0.794-0.231-0.975-0.625c-0.549-1.193-1.257-2.349-2.108-3.439c-0.365-0.467-0.281-1.142,0.187-1.507   c0.469-0.367,1.14-0.281,1.507,0.187c0.952,1.222,1.748,2.521,2.364,3.863c0.247,0.539,0.013,1.176-0.526,1.423   C390.491,45.703,390.338,45.735,390.187,45.735z M364.121,44.293c-0.075,0-0.153-0.008-0.228-0.025   c-0.581-0.126-0.947-0.698-0.819-1.276c0.283-1.293,0.486-2.672,0.606-4.101c0.048-0.593,0.62-1.021,1.157-0.981   c0.591,0.048,1.031,0.568,0.981,1.157c-0.126,1.524-0.344,2.999-0.648,4.382C365.06,43.951,364.616,44.293,364.121,44.293z    M304.435,42.623c-0.015,0-0.029,0-0.046,0c-1.136-0.05-2.331-0.539-3.55-1.452c-0.333-0.251-0.637-0.52-0.912-0.807   c-0.409-0.428-0.394-1.107,0.034-1.517c0.43-0.411,1.109-0.394,1.517,0.034c0.195,0.203,0.411,0.396,0.648,0.572   c0.868,0.652,1.66,0.995,2.356,1.025c0.591,0.027,1.052,0.526,1.027,1.119C305.483,42.172,305.007,42.623,304.435,42.623z    M358.077,41.732c-0.279,0-0.555-0.107-0.765-0.321c-0.417-0.423-0.409-1.102,0.013-1.519c1.058-1.037,2.205-2.001,3.41-2.867   c0.48-0.346,1.151-0.237,1.499,0.245c0.346,0.482,0.235,1.153-0.245,1.498c-1.117,0.801-2.18,1.695-3.158,2.657   C358.62,41.629,358.347,41.732,358.077,41.732z M242.823,41.384L242.823,41.384c-0.593,0-1.073-0.48-1.073-1.073   c0-0.071,0.004-1.779,0.333-4.439c0.071-0.589,0.608-1.016,1.197-0.933c0.589,0.073,1.006,0.608,0.933,1.197   c-0.31,2.515-0.316,4.158-0.316,4.175C243.896,40.904,243.416,41.384,242.823,41.384z M307.736,40.303   c-0.159,0-0.319-0.036-0.472-0.109c-0.532-0.26-0.752-0.903-0.492-1.436c0.472-0.964,0.761-2.257,0.836-3.741   c0.029-0.591,0.451-1.096,1.125-1.016c0.591,0.029,1.048,0.534,1.016,1.125c-0.09,1.771-0.453,3.351-1.05,4.575   C308.514,40.08,308.132,40.303,307.736,40.303z M384.997,38.978c-0.254,0-0.509-0.09-0.713-0.272   c-0.163-0.145-0.331-0.287-0.503-0.43c-0.891-0.744-1.828-1.385-2.789-1.911c-0.52-0.285-0.71-0.937-0.425-1.457   c0.285-0.522,0.943-0.708,1.457-0.425c1.084,0.593,2.136,1.314,3.129,2.144c0.189,0.157,0.377,0.316,0.557,0.478   c0.444,0.394,0.482,1.071,0.088,1.513C385.586,38.856,385.293,38.978,384.997,38.978z M299.016,36.836   c-0.545,0-1.01-0.413-1.065-0.966c-0.031-0.312-0.046-0.631-0.044-0.956c0-1.134,0.189-2.377,0.557-3.682   c0.161-0.568,0.746-0.903,1.327-0.74c0.57,0.163,0.901,0.757,0.74,1.327c-0.316,1.115-0.478,2.159-0.478,3.104   c-0.002,0.254,0.008,0.497,0.031,0.734c0.059,0.591-0.371,1.117-0.96,1.174C299.087,36.834,299.051,36.836,299.016,36.836z    M365.031,36.746c-0.394,0-0.773-0.218-0.96-0.595c-0.13-0.26-0.145-0.549-0.061-0.807c-0.136-0.172-0.218-0.388-0.226-0.625   c-0.044-1.392-0.163-2.792-0.356-4.158c-0.084-0.587,0.325-1.13,0.912-1.213c0.599-0.078,1.13,0.327,1.213,0.912   c0.178,1.26,0.298,2.546,0.354,3.829c0.941-0.4,1.89-0.734,2.838-0.993c0.57-0.161,1.163,0.178,1.318,0.748   c0.159,0.57-0.176,1.161-0.748,1.318c-1.27,0.352-2.551,0.847-3.806,1.471C365.356,36.71,365.192,36.746,365.031,36.746z    M377.515,34.952c-0.082,0-0.163-0.008-0.247-0.029c-1.107-0.262-2.255-0.394-3.416-0.394l-0.56,0.01   c-0.547-0.025-1.088-0.449-1.107-1.04c-0.019-0.591,0.446-1.088,1.04-1.107l0.627-0.01c1.327,0,2.643,0.153,3.911,0.453   c0.576,0.136,0.933,0.715,0.796,1.291C378.442,34.619,378.002,34.952,377.515,34.952z M243.858,32.833   c-0.073,0-0.147-0.006-0.222-0.023c-0.581-0.122-0.951-0.69-0.83-1.27c0.3-1.431,0.664-2.863,1.088-4.257   c0.172-0.57,0.773-0.889,1.337-0.717c0.568,0.172,0.889,0.771,0.717,1.337c-0.404,1.335-0.754,2.706-1.042,4.076   C244.802,32.485,244.355,32.833,243.858,32.833z M308.398,31.869c-0.511,0-0.966-0.369-1.056-0.891   c-0.226-1.322-0.576-2.66-1.039-3.974c-0.197-0.557,0.096-1.172,0.656-1.369c0.562-0.199,1.174,0.096,1.369,0.656   c0.503,1.427,0.884,2.882,1.132,4.322c0.099,0.585-0.293,1.14-0.876,1.241C308.52,31.865,308.459,31.869,308.398,31.869z    M301.113,28.629c-0.168,0-0.337-0.038-0.495-0.122c-0.526-0.272-0.731-0.92-0.457-1.446c0.646-1.245,1.423-2.519,2.312-3.783   c0.342-0.486,1.014-0.601,1.494-0.262c0.486,0.34,0.604,1.01,0.262,1.494c-0.832,1.186-1.561,2.379-2.165,3.54   C301.874,28.417,301.501,28.629,301.113,28.629z M363.654,27.277c-0.478,0-0.914-0.321-1.039-0.803   c-0.354-1.369-0.786-2.701-1.281-3.961c-0.218-0.551,0.052-1.174,0.606-1.39c0.549-0.226,1.174,0.054,1.39,0.606   c0.528,1.339,0.987,2.754,1.364,4.204c0.149,0.574-0.197,1.159-0.769,1.31C363.834,27.267,363.742,27.277,363.654,27.277z    M246.378,24.626c-0.138,0-0.279-0.027-0.415-0.084c-0.547-0.228-0.803-0.857-0.574-1.404c0.581-1.385,1.232-2.72,1.939-3.969   c0.296-0.52,0.954-0.698,1.463-0.407c0.516,0.293,0.698,0.947,0.407,1.463c-0.666,1.176-1.283,2.435-1.83,3.743   C247.195,24.379,246.797,24.626,246.378,24.626z M305.58,23.796c-0.381,0-0.752-0.205-0.945-0.566   c-0.645-1.203-1.392-2.377-2.217-3.485c-0.354-0.476-0.254-1.148,0.22-1.503c0.474-0.352,1.144-0.258,1.503,0.22   c0.344,0.465,0.677,0.939,0.996,1.421c0.017-0.025,0.038-0.048,0.057-0.073c0.956-1.098,1.976-2.169,3.033-3.179   c0.428-0.411,1.107-0.394,1.517,0.034c0.409,0.428,0.394,1.109-0.034,1.517c-1.01,0.966-1.983,1.987-2.894,3.037   c-0.174,0.197-0.402,0.319-0.643,0.356c0.122,0.212,0.239,0.428,0.354,0.641c0.281,0.522,0.084,1.174-0.438,1.452   C305.925,23.756,305.751,23.796,305.58,23.796z M360.502,19.313c-0.375,0-0.74-0.197-0.937-0.549   c-0.683-1.222-1.45-2.381-2.274-3.443c-0.365-0.467-0.279-1.142,0.189-1.505c0.463-0.365,1.138-0.283,1.505,0.189   c0.891,1.146,1.716,2.395,2.454,3.712c0.289,0.518,0.105,1.172-0.413,1.461C360.86,19.269,360.68,19.313,360.502,19.313z    M250.619,17.186c-0.228,0-0.457-0.071-0.652-0.22c-0.472-0.36-0.562-1.033-0.201-1.505c0.918-1.201,1.916-2.318,2.968-3.32   c0.43-0.411,1.109-0.396,1.515,0.036c0.411,0.428,0.394,1.107-0.036,1.515c-0.968,0.926-1.892,1.96-2.741,3.072   C251.261,17.041,250.942,17.186,250.619,17.186z M300.476,16.932c-0.275,0-0.551-0.105-0.761-0.316   c-0.962-0.966-2.012-1.88-3.119-2.718c-0.472-0.356-0.566-1.029-0.207-1.503c0.356-0.474,1.029-0.566,1.503-0.207   c1.186,0.897,2.312,1.878,3.345,2.915c0.417,0.419,0.417,1.098-0.004,1.517C301.023,16.828,300.751,16.932,300.476,16.932z    M312.181,15.637c-0.312,0-0.62-0.136-0.834-0.396c-0.373-0.461-0.302-1.136,0.157-1.511c1.113-0.901,2.293-1.781,3.508-2.616   c0.492-0.335,1.159-0.21,1.492,0.277c0.335,0.49,0.212,1.157-0.277,1.492c-1.169,0.803-2.303,1.649-3.37,2.515   C312.659,15.56,312.42,15.637,312.181,15.637z M355.243,12.571c-0.262,0-0.522-0.094-0.729-0.285c-1-0.926-2.087-1.775-3.236-2.523   c-0.495-0.323-0.635-0.989-0.312-1.486c0.323-0.495,0.989-0.633,1.486-0.312c1.249,0.815,2.433,1.74,3.521,2.745   c0.434,0.404,0.461,1.084,0.059,1.517C355.82,12.456,355.531,12.571,355.243,12.571z M293.661,11.766   c-0.18,0-0.363-0.044-0.528-0.138c-1.184-0.671-2.442-1.283-3.739-1.819c-0.547-0.226-0.807-0.853-0.581-1.402   c0.226-0.547,0.855-0.809,1.402-0.581c1.377,0.57,2.714,1.22,3.974,1.932c0.516,0.293,0.698,0.947,0.407,1.463   C294.396,11.571,294.034,11.766,293.661,11.766z M256.808,11.303c-0.344,0-0.681-0.166-0.889-0.474   c-0.333-0.49-0.203-1.157,0.287-1.488c1.224-0.826,2.536-1.555,3.9-2.169c0.536-0.247,1.176-0.004,1.419,0.539   c0.243,0.541,0.002,1.176-0.539,1.419c-1.253,0.564-2.458,1.232-3.578,1.989C257.225,11.244,257.016,11.303,256.808,11.303z    M319.271,10.811c-0.375,0-0.74-0.197-0.935-0.547c-0.291-0.518-0.107-1.172,0.409-1.461c1.293-0.727,2.616-1.39,3.93-1.97   c0.537-0.243,1.176,0.004,1.415,0.547c0.241,0.541-0.004,1.176-0.547,1.415c-1.251,0.553-2.513,1.186-3.745,1.878   C319.63,10.767,319.449,10.811,319.271,10.811z M285.758,8.48c-0.099,0-0.199-0.013-0.298-0.042   c-1.306-0.377-2.674-0.7-4.072-0.956c-0.583-0.109-0.968-0.669-0.861-1.251c0.109-0.583,0.656-0.958,1.251-0.861   c1.467,0.27,2.907,0.61,4.277,1.006c0.57,0.166,0.897,0.761,0.734,1.329C286.652,8.174,286.223,8.48,285.758,8.48z M348.093,7.91   c-0.143,0-0.287-0.027-0.428-0.088c-0.696-0.302-1.419-0.581-2.169-0.83c-0.572-0.191-1.146-0.36-1.723-0.507   c-0.574-0.147-0.922-0.729-0.775-1.304c0.145-0.572,0.721-0.926,1.304-0.775c0.627,0.159,1.251,0.342,1.874,0.549   c0.809,0.27,1.591,0.57,2.345,0.897c0.543,0.237,0.792,0.868,0.557,1.413C348.902,7.669,348.508,7.91,348.093,7.91z M264.577,7.793   c-0.474,0-0.907-0.316-1.035-0.794c-0.155-0.572,0.184-1.161,0.757-1.314c1.385-0.373,2.846-0.656,4.345-0.843   c0.576-0.092,1.123,0.344,1.197,0.933c0.073,0.587-0.344,1.123-0.933,1.197c-1.398,0.174-2.762,0.438-4.051,0.784   C264.762,7.78,264.67,7.793,264.577,7.793z M327.118,7.355c-0.453,0-0.874-0.289-1.021-0.744c-0.182-0.564,0.128-1.169,0.692-1.35   c1.417-0.457,2.854-0.83,4.273-1.111c0.57-0.117,1.144,0.264,1.26,0.845c0.115,0.581-0.262,1.144-0.845,1.26   c-1.337,0.266-2.693,0.618-4.03,1.048C327.338,7.338,327.227,7.355,327.118,7.355z M277.337,6.912   c-0.034,0-0.069-0.002-0.103-0.004c-1.371-0.13-2.714-0.195-3.997-0.195c-0.593,0-1.167-0.48-1.167-1.073s0.386-1.073,0.979-1.073   h0.189c1.348,0,2.76,0.069,4.198,0.203c0.591,0.057,1.023,0.578,0.968,1.169C278.351,6.495,277.884,6.912,277.337,6.912z    M339.816,5.793c-0.034,0-0.065-0.002-0.096-0.004c-1.375-0.124-2.75-0.136-4.133-0.059c-0.618,0.075-1.096-0.419-1.132-1.01   c-0.034-0.591,0.417-1.098,1.01-1.132c1.484-0.086,2.966-0.067,4.443,0.063c0.591,0.052,1.027,0.574,0.975,1.163   C340.833,5.374,340.365,5.793,339.816,5.793z"/>
	<path style="fill:#241726;" d="M154.657,254.614c-0.002,0-0.004,0-0.004,0c-1.454-0.006-2.951-0.136-4.443-0.384   c-0.585-0.096-0.979-0.65-0.882-1.234c0.096-0.583,0.637-0.989,1.234-0.882c1.379,0.228,2.76,0.348,4.099,0.354   c0.593,0.002,1.071,0.486,1.069,1.077C155.728,254.136,155.248,254.614,154.657,254.614z M158.924,254.266   c-0.511,0-0.966-0.369-1.056-0.891c-0.099-0.585,0.293-1.14,0.876-1.241c1.341-0.231,2.67-0.585,3.948-1.056   c0.56-0.197,1.172,0.08,1.379,0.637c0.203,0.557-0.082,1.174-0.637,1.379c-1.402,0.513-2.857,0.903-4.326,1.157   C159.046,254.262,158.985,254.266,158.924,254.266z M146.23,253.206c-0.119,0-0.241-0.021-0.36-0.063   c-1.39-0.497-2.754-1.142-4.06-1.918c-0.509-0.304-0.677-0.962-0.373-1.471c0.304-0.513,0.966-0.675,1.471-0.373   c1.186,0.706,2.425,1.291,3.682,1.742c0.56,0.199,0.849,0.813,0.65,1.371C147.083,252.933,146.67,253.206,146.23,253.206z    M166.932,251.319c-0.367,0-0.725-0.189-0.924-0.528c-0.302-0.511-0.132-1.167,0.379-1.469c1.163-0.685,2.286-1.488,3.343-2.383   c0.451-0.384,1.132-0.329,1.511,0.124c0.384,0.451,0.329,1.128-0.124,1.511c-1.146,0.977-2.372,1.848-3.64,2.597   C167.305,251.271,167.119,251.319,166.932,251.319z M138.878,248.871c-0.247,0-0.497-0.086-0.698-0.258   c-1.1-0.945-2.161-1.999-3.152-3.133c-0.392-0.446-0.346-1.123,0.101-1.513c0.444-0.388,1.121-0.348,1.513,0.101   c0.926,1.058,1.913,2.039,2.934,2.915c0.451,0.388,0.503,1.065,0.117,1.513C139.48,248.744,139.18,248.871,138.878,248.871z    M173.455,245.797c-0.247,0-0.493-0.084-0.696-0.256c-0.451-0.384-0.505-1.06-0.122-1.513c0.882-1.037,1.7-2.161,2.425-3.337   c0.314-0.505,0.975-0.656,1.478-0.35c0.505,0.312,0.66,0.972,0.35,1.478c-0.784,1.268-1.664,2.479-2.618,3.601   C174.06,245.669,173.758,245.797,173.455,245.797z M133.224,242.442c-0.344,0-0.681-0.166-0.889-0.472   c-0.809-1.199-1.568-2.475-2.255-3.795c-0.275-0.524-0.069-1.174,0.457-1.446c0.52-0.268,1.172-0.073,1.446,0.457   c0.65,1.247,1.366,2.452,2.129,3.582c0.333,0.493,0.203,1.159-0.287,1.49C133.641,242.383,133.431,242.442,133.224,242.442z    M177.956,238.52c-0.14,0-0.285-0.027-0.423-0.086c-0.543-0.235-0.796-0.866-0.564-1.41c0.543-1.266,0.991-2.58,1.333-3.902   c0.149-0.574,0.729-0.922,1.308-0.771c0.574,0.149,0.918,0.734,0.771,1.308c-0.369,1.427-0.853,2.844-1.438,4.213   C178.769,238.277,178.371,238.52,177.956,238.52z M105.597,235.36l-0.742-0.006c-0.593-0.01-1.065-0.499-1.054-1.092   c0.01-0.593,0.48-1.016,1.092-1.054l0.704,0.006c1.142,0,2.305-0.061,3.458-0.178c0.541-0.075,1.115,0.367,1.176,0.958   c0.061,0.589-0.367,1.115-0.958,1.176C108.049,235.295,106.813,235.36,105.597,235.36z M100.603,234.979   c-0.057,0-0.113-0.004-0.168-0.013c-0.788-0.124-1.576-0.279-2.36-0.463c-0.679-0.157-1.343-0.344-1.985-0.557   c-0.564-0.187-0.868-0.794-0.681-1.356c0.184-0.562,0.794-0.874,1.356-0.681c0.583,0.193,1.18,0.363,1.798,0.505   c0.736,0.174,1.469,0.316,2.203,0.432c0.587,0.092,0.987,0.641,0.895,1.226C101.577,234.601,101.12,234.979,100.603,234.979z    M129.252,234.849c-0.428,0-0.832-0.258-0.998-0.681c-0.545-1.379-1.012-2.787-1.392-4.185c-0.155-0.572,0.182-1.161,0.754-1.316   c0.581-0.155,1.161,0.182,1.316,0.754c0.358,1.32,0.803,2.653,1.316,3.963c0.218,0.551-0.052,1.174-0.606,1.39   C129.516,234.826,129.382,234.849,129.252,234.849z M113.4,234.501c-0.495,0-0.939-0.344-1.048-0.845   c-0.126-0.581,0.241-1.151,0.819-1.276c1.348-0.293,2.704-0.662,4.032-1.098c0.562-0.191,1.172,0.122,1.354,0.683   c0.187,0.564-0.122,1.169-0.683,1.354c-1.4,0.461-2.827,0.849-4.246,1.157C113.551,234.492,113.473,234.501,113.4,234.501z    M92.523,232.248c-0.184,0-0.369-0.046-0.539-0.145c-1.295-0.75-2.521-1.639-3.642-2.643c-0.442-0.396-0.48-1.075-0.086-1.515   c0.4-0.442,1.081-0.476,1.515-0.086c1.014,0.907,2.121,1.71,3.29,2.387c0.511,0.298,0.687,0.954,0.39,1.467   C93.253,232.055,92.892,232.248,92.523,232.248z M121.55,231.843c-0.413,0-0.807-0.241-0.983-0.643   c-0.237-0.543,0.01-1.176,0.553-1.413c1.278-0.557,2.542-1.184,3.76-1.859c0.513-0.285,1.169-0.099,1.459,0.419   c0.287,0.518,0.101,1.172-0.419,1.459c-1.276,0.708-2.601,1.362-3.94,1.947C121.839,231.814,121.695,231.843,121.55,231.843z    M180.079,230.236c-0.034,0-0.065-0.002-0.099-0.004c-0.591-0.054-1.025-0.576-0.972-1.165c0.063-0.685,0.092-1.366,0.092-2.046   c0-0.687-0.031-1.369-0.096-2.045c-0.054-0.589,0.377-1.113,0.968-1.169c0.549-0.036,1.115,0.377,1.169,0.968   c0.069,0.744,0.105,1.492,0.105,2.247c0,0.742-0.034,1.49-0.101,2.238C181.096,229.817,180.626,230.236,180.079,230.236z    M129.045,227.677c-0.34,0-0.675-0.161-0.882-0.463c-0.337-0.488-0.214-1.157,0.272-1.492c1.178-0.813,2.289-1.672,3.301-2.553   c0.449-0.392,1.125-0.34,1.513,0.105c0.39,0.446,0.342,1.123-0.105,1.513c-1.071,0.935-2.247,1.842-3.489,2.699   C129.468,227.616,129.256,227.677,129.045,227.677z M86.152,226.583c-0.323,0-0.641-0.145-0.853-0.421   c-0.882-1.157-1.689-2.423-2.4-3.766c-0.277-0.524-0.075-1.174,0.449-1.45c0.52-0.275,1.174-0.078,1.45,0.449   c0.654,1.237,1.396,2.404,2.207,3.464c0.36,0.472,0.27,1.144-0.201,1.505C86.609,226.511,86.381,226.583,86.152,226.583z    M127.022,226.574c-0.524,0-0.983-0.386-1.06-0.922c-0.197-1.373-0.296-2.704-0.296-3.951l0.006-0.509   c0.015-0.593,0.551-1.025,1.1-1.046c0.593,0.017,1.06,0.509,1.046,1.1l-0.006,0.455c0,1.146,0.092,2.375,0.275,3.649   c0.084,0.587-0.325,1.13-0.912,1.213C127.125,226.57,127.073,226.574,127.022,226.574z M135.464,222.003   c-0.243,0-0.488-0.082-0.69-0.251c-0.455-0.379-0.513-1.056-0.132-1.511c0.981-1.172,1.714-2.322,2.117-3.322   c0.22-0.551,0.853-0.813,1.396-0.595c0.551,0.222,0.817,0.847,0.595,1.396c-0.493,1.226-1.322,2.538-2.465,3.9   C136.074,221.874,135.77,222.003,135.464,222.003z M179.216,221.754c-0.453,0-0.874-0.289-1.021-0.744   c-0.421-1.304-0.991-2.528-1.691-3.638c-0.316-0.501-0.166-1.163,0.335-1.48c0.497-0.316,1.163-0.17,1.48,0.335   c0.796,1.262,1.442,2.649,1.918,4.125c0.182,0.564-0.126,1.167-0.692,1.35C179.436,221.737,179.325,221.754,179.216,221.754z    M82.13,219.036c-0.442,0-0.855-0.275-1.012-0.715c-0.484-1.369-0.889-2.802-1.199-4.263c-0.124-0.581,0.247-1.151,0.826-1.274   c0.572-0.105,1.151,0.245,1.274,0.826c0.291,1.371,0.669,2.714,1.123,3.995c0.197,0.557-0.094,1.172-0.654,1.371   C82.371,219.017,82.25,219.036,82.13,219.036z M127.347,218.057c-0.101,0-0.203-0.015-0.306-0.044   c-0.568-0.17-0.891-0.767-0.723-1.335c0.526-1.767,1.356-3.16,2.465-4.148c0.44-0.392,1.121-0.354,1.515,0.09   c0.394,0.442,0.352,1.121-0.09,1.515c-0.807,0.717-1.423,1.777-1.832,3.154C128.238,217.755,127.81,218.057,127.347,218.057z    M174.664,214.591c-0.258,0-0.518-0.092-0.723-0.281c-0.564-0.513-1.176-0.991-1.817-1.419c-0.495-0.327-0.629-0.993-0.3-1.486   c0.327-0.497,0.998-0.625,1.486-0.3c0.734,0.486,1.434,1.031,2.077,1.62c0.438,0.398,0.469,1.077,0.069,1.515   C175.244,214.473,174.955,214.591,174.664,214.591z M137.424,214.366c-0.281,0-0.56-0.109-0.771-0.327   c-0.495-0.511-1.419-0.847-2.672-0.975c-0.193-0.019-0.375-0.029-0.553-0.034c-0.593-0.013-1.065-0.503-1.052-1.094   c0.013-0.595,0.469-1.098,1.094-1.052c0.237,0.004,0.482,0.019,0.731,0.046c1.784,0.178,3.129,0.723,3.995,1.616   c0.411,0.425,0.4,1.104-0.025,1.517C137.962,214.266,137.692,214.366,137.424,214.366z M80.336,210.663   c-0.551,0-1.019-0.421-1.067-0.981c-0.015-0.178-0.029-0.354-0.042-0.53c-0.947,0.166-1.911,0.293-2.88,0.386   c-0.545,0.044-1.115-0.377-1.169-0.968c-0.054-0.589,0.377-1.113,0.968-1.169c1.008-0.094,2.012-0.233,2.995-0.413   c-0.002-0.099-0.002-0.199-0.002-0.298c0.002-0.486,0.013-0.962,0.031-1.431c0.025-0.591,0.518-1.037,1.117-1.029   c0.593,0.025,1.052,0.526,1.029,1.117c-0.019,0.444-0.029,0.895-0.031,1.348c0,0.134,0,0.268,0.002,0.402   c0.122,0.134,0.21,0.3,0.249,0.488c0.071,0.325-0.013,0.646-0.201,0.889c0.019,0.34,0.042,0.683,0.071,1.025   c0.05,0.591-0.388,1.111-0.977,1.161C80.399,210.661,80.368,210.663,80.336,210.663z M71.96,209.701c-0.006,0-0.015,0-0.023,0   c-1.463-0.031-2.942-0.147-4.399-0.346c-0.587-0.08-0.998-0.62-0.918-1.207c0.08-0.587,0.635-1.019,1.207-0.918   c1.377,0.187,2.775,0.296,4.156,0.325c0.591,0.013,1.063,0.503,1.05,1.096C73.02,209.236,72.542,209.701,71.96,209.701z    M63.474,208.54c-0.088,0-0.178-0.01-0.266-0.034c-1.308-0.335-2.618-0.748-3.894-1.228l-0.304-0.115   c-0.555-0.207-0.836-0.826-0.627-1.381c0.207-0.555,0.828-0.845,1.381-0.627l0.314,0.119c1.193,0.446,2.429,0.836,3.661,1.153   c0.574,0.149,0.92,0.734,0.773,1.306C64.387,208.219,63.952,208.54,63.474,208.54z M84.618,207.727   c-0.442,0-0.857-0.275-1.012-0.717c-0.197-0.557,0.096-1.172,0.656-1.369c1.348-0.476,2.624-1.029,3.791-1.647   c0.518-0.272,1.172-0.078,1.45,0.449c0.277,0.524,0.075,1.172-0.448,1.45c-1.26,0.666-2.632,1.262-4.081,1.773   C84.857,207.708,84.735,207.727,84.618,207.727z M55.478,205.474c-0.17,0-0.342-0.04-0.501-0.124   c-1.375-0.725-2.645-1.524-3.775-2.368c-0.474-0.356-0.57-1.029-0.216-1.503c0.358-0.474,1.031-0.57,1.503-0.216   c1.04,0.78,2.213,1.515,3.489,2.188c0.524,0.277,0.725,0.926,0.449,1.45C56.235,205.266,55.862,205.474,55.478,205.474z    M92.134,203.663c-0.308,0-0.614-0.132-0.826-0.39c-0.379-0.455-0.314-1.132,0.143-1.509c1.136-0.943,2.01-1.947,2.525-2.907   c0.279-0.524,0.935-0.721,1.452-0.438c0.522,0.279,0.719,0.931,0.438,1.452c-0.654,1.22-1.679,2.412-3.049,3.544   C92.618,203.581,92.375,203.663,92.134,203.663z M80.737,202.116c-0.069,0-0.14-0.006-0.21-0.021   c-0.583-0.113-0.96-0.679-0.845-1.26c0.312-1.58,0.748-3.035,1.297-4.319c0.233-0.547,0.868-0.798,1.408-0.566   c0.545,0.233,0.799,0.863,0.566,1.408c-0.49,1.148-0.884,2.458-1.167,3.892C81.686,201.762,81.238,202.116,80.737,202.116z    M48.694,200.297c-0.298,0-0.595-0.124-0.809-0.367c-1.023-1.172-1.876-2.442-2.54-3.777c-0.262-0.532-0.046-1.176,0.484-1.44   c0.526-0.26,1.174-0.048,1.44,0.484c0.581,1.172,1.333,2.289,2.234,3.32c0.39,0.446,0.344,1.125-0.103,1.515   C49.197,200.209,48.946,200.297,48.694,200.297z M95.244,196.32c-0.404,0-0.794-0.231-0.975-0.625   c-0.409-0.887-1.287-1.67-2.611-2.333c-0.53-0.266-0.744-0.91-0.48-1.44c0.268-0.528,0.912-0.744,1.44-0.48   c1.771,0.887,2.982,2.014,3.601,3.355c0.247,0.539,0.013,1.176-0.526,1.423C95.548,196.288,95.395,196.32,95.244,196.32z    M84.266,194.417c-0.272,0-0.545-0.103-0.754-0.308c-0.421-0.417-0.425-1.096-0.01-1.519c1.289-1.304,2.773-2.046,4.412-2.203   c0.595-0.034,1.113,0.375,1.172,0.966c0.057,0.591-0.377,1.115-0.966,1.172c-1.125,0.107-2.165,0.637-3.087,1.574   C84.819,194.31,84.543,194.417,84.266,194.417z M44.941,192.696c-0.503,0-0.951-0.356-1.052-0.87   c-0.216-1.123-0.327-2.299-0.327-3.492c0.002-0.356,0.01-0.702,0.029-1.042c0.031-0.591,0.555-1.071,1.128-1.014   c0.591,0.029,1.046,0.534,1.014,1.128c-0.015,0.306-0.023,0.618-0.025,0.935c0,1.05,0.096,2.087,0.289,3.079   c0.111,0.581-0.268,1.144-0.851,1.257C45.077,192.69,45.01,192.696,44.941,192.696z M45.328,184.189c-0.088,0-0.18-0.01-0.27-0.036   c-0.574-0.149-0.918-0.734-0.767-1.308c0.66-2.544,1.54-4.194,1.578-4.263c0.283-0.52,0.933-0.713,1.452-0.436   c0.522,0.281,0.717,0.931,0.438,1.452c-0.008,0.015-0.801,1.511-1.394,3.787C46.242,183.868,45.806,184.189,45.328,184.189z"/>
</g>















</svg>
