<?xml version="1.0" encoding="UTF-8"?>
<!-- Generator: Adobe Illustrator 26.4.1, SVG Export Plug-In . SVG Version: 6.00 Build 0)  -->
<svg xmlns="http://www.w3.org/2000/svg" xmlns:xlink="http://www.w3.org/1999/xlink" version="1.1" id="Capa_1" x="0px" y="0px" viewBox="0 0 498.421 498.421" style="enable-background:new 0 0 498.421 498.421;" xml:space="preserve" width="512" height="512">
<g>
	<g>
		<path style="fill:#FFFFFF;" d="M438.316,100.123c0,0-1.909-16.113,13.506-10.706c15.415,5.406,10.178,20.068,4.341,14.951    c-5.837-5.117,5.461-22.064,17.209-14.299c11.748,7.765,8.906,22.499,0.488,23.479s5.312-17.129,15.751-5.698    c10.439,11.431-12.943,31.718-22.297,24.025s-1.797-19.814,0.373-12.339s-4.04,14.698-20.801,14.19s-8.794-26.201-3.032-18.617    c5.762,7.584-4.077,15.931-15.788,6.932S430.085,94.934,438.316,100.123z"/>
		<path style="fill:#241726;" d="M448.528,134.826c-0.545,0-1.103-0.008-1.674-0.025c-5.495-0.167-9.327-3.033-10.627-7.9    c-2.886-0.404-5.919-1.779-8.817-4.006c-4.555-3.501-6.07-8.747-4.151-14.389c1.978-5.817,7.187-10.373,11.864-10.373    c0.707,0,1.388,0.099,2.041,0.295c0.008-2.227,0.398-6.007,2.672-8.565c2.571-2.89,6.764-3.413,12.338-1.458    c2.139,0.75,4.01,1.712,5.575,2.867c2.659-2.732,6.025-4.28,9.371-4.28c2.351,0,4.654,0.734,6.843,2.182    c5.078,3.357,8.121,8.455,8.305,13.815c2.968,0.128,5.772,1.552,8.133,4.139c3.224,3.529,3.788,8.22,1.588,13.21    c-3.36,7.623-12.508,14.309-19.574,14.31c-0.002,0-0.002,0-0.002,0c-2.269,0-4.216-0.653-5.782-1.942    c-0.732-0.602-1.393-1.25-1.971-1.938C461.045,133.427,455.502,134.826,448.528,134.826z M438.503,127.014    c0.923,2.722,3.159,5.481,8.414,5.64c8.962,0.275,13.92-1.729,16.491-3.633c-2.294-3.825-2.074-7.983-0.749-10.549    c0.772-1.495,1.881-2.353,3.043-2.353c0.789,0,2.227,0.406,3.016,3.119c1.086,3.746,0.197,7.38-2.439,10.119    c0.501,0.598,1.076,1.163,1.716,1.689c1.172,0.965,2.659,1.453,4.419,1.453l0,0c6.212-0.001,14.605-6.21,17.611-13.028    c1.298-2.946,2.143-7.227-1.208-10.895c-1.992-2.181-4.22-3.338-6.63-3.442c-0.573,5.136-3.842,8.974-8.205,9.482    c-2.794,0.329-3.76-1.147-3.807-2.52c-0.103-3.038,4.325-8.087,9.947-8.981c-0.143-4.682-2.838-9.17-7.343-12.151    c-1.835-1.211-3.737-1.826-5.661-1.826c-2.72,0-5.491,1.273-7.728,3.524c3.591,3.51,4.228,7.785,3.194,10.624    c-0.724,1.986-2.252,3.221-3.989,3.221l0,0c-1.061,0-2.148-0.46-3.144-1.333c-3.219-2.824-2.097-8.241,0.9-12.266    c-1.367-0.988-3.008-1.82-4.887-2.48c-4.681-1.64-8.045-1.371-10.023,0.859c-2.697,3.036-2.068,8.652-2.062,8.708    c0.05,0.411-0.143,0.814-0.493,1.035c-0.348,0.22-0.797,0.22-1.145,0c-0.793-0.499-1.674-0.752-2.62-0.752    c-3.75,0-8.161,4-9.83,8.917c-1.604,4.718-0.357,9.09,3.425,11.995c2.364,1.816,4.794,2.997,7.103,3.462    c-0.415-4.144,0.896-8.174,2.584-10.243c0.948-1.16,2.045-1.772,3.175-1.772c0.795,0,1.982,0.316,3.127,1.824    c2.034,2.678,2.475,5.677,1.21,8.23C444.656,125.235,441.844,126.861,438.503,127.014z M465.703,118.266    c-0.201,0-0.688,0.323-1.135,1.19c-0.971,1.879-1.16,5.078,0.468,8.082c1.875-2.142,2.452-4.834,1.619-7.701    C466.324,118.693,465.896,118.266,465.703,118.266z M441.582,114.785c-0.457,0-0.994,0.349-1.512,0.983    c-1.441,1.765-2.527,5.54-2.055,9.11c2.773-0.007,5.006-1.18,5.979-3.141c0.891-1.794,0.526-3.972-0.996-5.976    C442.66,115.315,442.14,114.785,441.582,114.785z M479.998,105.323c-4.461,0.951-7.728,5.085-7.674,6.7    c0.006,0.196,0.015,0.491,0.91,0.491c0.155,0,0.321-0.01,0.501-0.031C476.961,112.106,479.415,109.235,479.998,105.323z     M457.991,94.298c-2.584,3.504-3.121,7.509-1.122,9.263c1.518,1.331,3.016,0.857,3.7-1.01    C461.353,100.402,460.812,97.117,457.991,94.298z"/>
	</g>
	<g>
		<path style="fill:#FFFFFF;" d="M35.715,335.311c0,0-1.909-16.113,13.506-10.706s10.178,20.068,4.341,14.951    c-5.837-5.117,5.461-22.064,17.209-14.299s8.906,22.499,0.488,23.479s5.312-17.129,15.751-5.698    c10.439,11.431-12.943,31.718-22.297,24.025c-9.354-7.693-1.797-19.814,0.373-12.339c2.17,7.476-4.04,14.698-20.801,14.19    s-8.794-26.201-3.032-18.617c5.762,7.584-4.077,15.931-15.788,6.932S27.484,330.122,35.715,335.311z"/>
		<path style="fill:#241726;" d="M45.927,370.013c-0.545,0-1.103-0.008-1.674-0.025c-5.495-0.167-9.327-3.033-10.627-7.9    c-2.886-0.404-5.919-1.779-8.817-4.006c-4.555-3.501-6.07-8.747-4.151-14.389c1.978-5.817,7.187-10.373,11.864-10.373    c0.707,0,1.388,0.099,2.041,0.295c0.01-2.227,0.401-6.007,2.674-8.565c2.571-2.891,6.762-3.414,12.336-1.457    c2.139,0.75,4.01,1.712,5.575,2.867c2.659-2.733,6.025-4.281,9.371-4.281c2.351,0,4.654,0.735,6.843,2.183    c5.078,3.356,8.121,8.454,8.305,13.814c2.968,0.128,5.772,1.552,8.133,4.139c3.224,3.529,3.788,8.221,1.588,13.212    c-3.36,7.622-12.508,14.308-19.574,14.309c-0.002,0-0.002,0-0.002,0c-2.269,0-4.216-0.653-5.782-1.942    c-0.732-0.602-1.393-1.251-1.971-1.938C58.444,368.613,52.901,370.013,45.927,370.013z M35.902,362.201    c0.923,2.722,3.159,5.481,8.414,5.64c8.955,0.279,13.92-1.729,16.491-3.631c-2.294-3.827-2.074-7.984-0.749-10.55    c0.772-1.495,1.881-2.353,3.043-2.353c0.789,0,2.227,0.406,3.016,3.119c1.086,3.746,0.197,7.38-2.439,10.119    c0.501,0.598,1.076,1.164,1.716,1.69c1.172,0.965,2.659,1.453,4.419,1.453l0,0c6.212-0.001,14.605-6.21,17.611-13.028    c1.298-2.946,2.143-7.227-1.208-10.896c-1.992-2.181-4.22-3.338-6.63-3.442c-0.573,5.136-3.842,8.974-8.205,9.482    c-2.796,0.34-3.76-1.147-3.807-2.518c-0.103-3.039,4.323-8.087,9.947-8.982c-0.143-4.683-2.836-9.171-7.343-12.151    c-4.436-2.931-9.572-2.142-13.389,1.699c3.591,3.51,4.228,7.785,3.194,10.623c-0.724,1.987-2.252,3.221-3.987,3.221    c-0.002,0-0.002,0-0.002,0c-1.061,0.001-2.148-0.46-3.144-1.333c-3.219-2.823-2.095-8.24,0.9-12.266    c-1.367-0.988-3.008-1.819-4.887-2.479c-4.679-1.639-8.039-1.371-10.017,0.853c-2.691,3.021-2.074,8.659-2.066,8.715    c0.046,0.41-0.145,0.813-0.495,1.033c-0.354,0.222-0.801,0.218-1.145,0c-0.793-0.499-1.674-0.752-2.62-0.752    c-3.75,0-8.161,4-9.83,8.917c-1.604,4.718-0.357,9.09,3.425,11.995c2.364,1.816,4.794,2.997,7.104,3.462    c-0.415-4.144,0.896-8.174,2.584-10.243c0.948-1.16,2.045-1.772,3.175-1.772c0.795,0,1.982,0.316,3.127,1.824    c2.034,2.678,2.475,5.677,1.21,8.23C42.055,360.422,39.243,362.049,35.902,362.201z M63.102,353.453    c-0.201,0-0.688,0.324-1.135,1.19c-0.971,1.879-1.16,5.078,0.468,8.082c1.875-2.142,2.452-4.834,1.619-7.701    C63.722,353.88,63.295,353.453,63.102,353.453z M38.981,349.973c-0.457,0-0.994,0.349-1.512,0.984    c-1.441,1.764-2.527,5.539-2.055,9.108c2.773-0.007,5.006-1.18,5.979-3.141c0.891-1.794,0.526-3.972-0.996-5.976    C40.059,350.502,39.539,349.973,38.981,349.973z M77.397,340.511c-4.461,0.953-7.731,5.086-7.676,6.702    c0.008,0.194,0.017,0.489,0.912,0.489c0.155,0,0.321-0.01,0.501-0.031C74.36,347.294,76.814,344.422,77.397,340.511z     M55.392,329.486c-2.586,3.504-3.123,7.508-1.124,9.262c1.518,1.333,3.02,0.858,3.7-1.009    C58.752,335.59,58.211,332.304,55.392,329.486z"/>
	</g>
	<path style="fill:#241726;" d="M331.732,51.664l-0.025-0.019c-3.236-2.508-3.826-7.181-1.316-10.418   c2.498-3.222,7.159-3.821,10.392-1.337c1.593,1.235,2.594,2.989,2.842,4.957c0.248,1.966-0.284,3.914-1.498,5.48   C339.627,53.548,334.963,54.148,331.732,51.664z M339.493,41.607c-2.316-1.781-5.629-1.353-7.404,0.935   c-1.784,2.3-1.365,5.623,0.934,7.405l-0.636,0.865l0.654-0.851c2.296,1.765,5.61,1.339,7.388-0.95   c0.864-1.114,1.242-2.497,1.064-3.896C341.318,43.716,340.606,42.471,339.493,41.607z"/>
	<path style="fill:#241726;" d="M479.255,428.113l-0.025-0.019c-3.236-2.508-3.826-7.181-1.316-10.418   c2.498-3.222,7.159-3.821,10.392-1.337c1.593,1.235,2.594,2.989,2.842,4.957c0.248,1.966-0.284,3.914-1.498,5.48   C487.15,429.997,482.486,430.597,479.255,428.113z M487.015,418.056c-2.316-1.781-5.629-1.353-7.404,0.935   c-1.784,2.3-1.365,5.623,0.934,7.405l-0.636,0.865l0.654-0.851c2.296,1.765,5.61,1.339,7.388-0.95   c0.864-1.114,1.242-2.497,1.064-3.896C488.841,420.165,488.129,418.92,487.015,418.056z"/>
	<path style="fill:#241726;" d="M393.35,213.351l-0.025-0.019c-3.236-2.508-3.826-7.181-1.316-10.418   c2.498-3.222,7.159-3.821,10.392-1.337c1.593,1.235,2.594,2.989,2.842,4.957c0.248,1.966-0.284,3.914-1.498,5.48   C401.245,215.235,396.581,215.835,393.35,213.351z M401.111,203.294c-2.316-1.781-5.629-1.353-7.404,0.935   c-1.784,2.3-1.365,5.623,0.934,7.405l-0.636,0.865l0.654-0.851c2.296,1.765,5.61,1.339,7.388-0.95   c0.864-1.114,1.242-2.497,1.064-3.896C402.936,205.403,402.224,204.158,401.111,203.294z"/>
	<path style="fill:#241726;" d="M84.24,166.89l-0.025-0.019c-3.236-2.508-3.826-7.181-1.316-10.418   c2.498-3.222,7.159-3.821,10.392-1.337c1.593,1.235,2.594,2.989,2.842,4.957c0.248,1.966-0.284,3.914-1.498,5.48   C92.135,168.774,87.471,169.374,84.24,166.89z M92,156.833c-2.316-1.781-5.629-1.353-7.404,0.935   c-1.784,2.3-1.365,5.623,0.934,7.405l-0.636,0.865l0.654-0.851c2.296,1.765,5.61,1.339,7.388-0.95   c0.864-1.114,1.242-2.497,1.064-3.896C93.825,158.942,93.114,157.697,92,156.833z"/>
	<g>
		<path style="fill:#241726;" d="M208.033,57.317l-0.006,0l-4.154-0.015l4.401-2.984c0.491-0.333,0.619-1.001,0.286-1.492    c-0.335-0.493-1.007-0.615-1.492-0.286l-5.937,4.025l0.132-6.937c0.012-0.593-0.46-1.082-1.053-1.094h-0.006    c-0.589-0.008-1.076,0.462-1.088,1.053l-0.116,6.122l-3.631-3.939c-0.403-0.433-1.081-0.465-1.518-0.062    c-0.435,0.401-0.463,1.083-0.062,1.518l3.736,4.052l-6.88-0.024c-0.594-0.001-1.076,0.477-1.077,1.07    c-0.001,0.589,0.471,1.07,1.06,1.077l0.01,0l6.276,0.022l-4.904,3.324c-0.491,0.333-0.619,1.001-0.286,1.492    c0.206,0.303,0.537,0.466,0.875,0.471c0.214,0.003,0.429-0.057,0.617-0.185l5.69-3.857l-0.133,6.988    c-0.012,0.593,0.46,1.082,1.053,1.094l0.006,0c0.589,0.008,1.076-0.462,1.088-1.053l0.125-6.6l3.87,4.198    c0.209,0.225,0.49,0.342,0.776,0.346c0.264,0.003,0.532-0.09,0.742-0.284c0.435-0.401,0.463-1.083,0.062-1.518l-4.053-4.396    l5.578,0.02c0.594,0.001,1.076-0.477,1.077-1.07C209.099,57.805,208.627,57.325,208.033,57.317z"/>
		<path style="fill:#241726;" d="M480.781,330.065l-0.006,0l-4.154-0.015l4.401-2.984c0.491-0.333,0.619-1.001,0.286-1.492    c-0.335-0.493-1.007-0.615-1.492-0.286l-5.937,4.025l0.132-6.936c0.012-0.593-0.46-1.082-1.053-1.094h-0.006    c-0.589-0.008-1.076,0.462-1.088,1.053l-0.116,6.122l-3.631-3.939c-0.403-0.433-1.08-0.465-1.518-0.062    c-0.435,0.401-0.463,1.083-0.062,1.518l3.736,4.052l-6.88-0.024c-0.594-0.001-1.076,0.477-1.077,1.07    c-0.001,0.589,0.471,1.07,1.06,1.077l0.01,0l6.276,0.022l-4.904,3.324c-0.491,0.333-0.619,1.001-0.286,1.492    c0.206,0.303,0.537,0.466,0.875,0.471c0.214,0.003,0.429-0.057,0.617-0.185l5.69-3.857l-0.133,6.988    c-0.012,0.593,0.46,1.082,1.053,1.094l0.006,0c0.589,0.008,1.076-0.462,1.088-1.053l0.125-6.6l3.87,4.198    c0.209,0.225,0.491,0.342,0.776,0.346c0.264,0.003,0.532-0.09,0.742-0.284c0.435-0.401,0.463-1.083,0.062-1.518l-4.053-4.396    l5.578,0.02c0.594,0.001,1.076-0.477,1.077-1.07C481.846,330.553,481.374,330.072,480.781,330.065z"/>
		<path style="fill:#241726;" d="M53.405,431.003l-0.006,0l-4.154-0.015l4.401-2.984c0.491-0.333,0.619-1.001,0.286-1.492    c-0.335-0.493-1.007-0.615-1.492-0.286l-5.937,4.025l0.132-6.936c0.012-0.593-0.46-1.082-1.053-1.094h-0.006    c-0.589-0.008-1.076,0.462-1.088,1.053l-0.116,6.122l-3.631-3.939c-0.403-0.433-1.08-0.465-1.518-0.062    c-0.435,0.401-0.463,1.083-0.062,1.518l3.736,4.052l-6.88-0.024c-0.594-0.001-1.076,0.477-1.077,1.07    c-0.001,0.589,0.471,1.07,1.06,1.077l0.01,0l6.276,0.022l-4.904,3.324c-0.491,0.333-0.619,1.001-0.286,1.492    c0.206,0.303,0.537,0.466,0.875,0.471c0.214,0.003,0.429-0.057,0.617-0.185l5.69-3.857l-0.133,6.988    c-0.012,0.593,0.46,1.082,1.053,1.094l0.006,0c0.589,0.008,1.076-0.462,1.088-1.053l0.125-6.6l3.87,4.198    c0.209,0.225,0.491,0.342,0.776,0.346c0.264,0.003,0.532-0.09,0.742-0.284c0.435-0.401,0.463-1.083,0.062-1.518l-4.053-4.396    l5.578,0.02c0.594,0.001,1.076-0.477,1.077-1.07C54.47,431.491,53.998,431.01,53.405,431.003z"/>
	</g>
	<path style="fill:#241726;" d="M49.78,191.731c-0.484,0-0.91-0.282-1.141-0.754c-0.019-0.039-1.864-3.841-4.081-8.811   c-1.017,0.028-2.007,0.043-2.949,0.043c-7.227,0-8.288-0.826-8.716-1.601c-0.262-0.476-0.239-1.026,0.067-1.51   c0.82-1.302,4.736-4.753,7.364-6.999c-3.601-9.313-3.335-11.626-1.73-12.291c0.317-0.132,0.675-0.105,0.971,0.076   c0.042,0.025,4.096,2.501,8.848,5.588c8.102-6.373,9.167-6.373,9.627-6.373c0.583,0,1.219,0.598,1.233,1.18   c0.027,1.034-1.37,7.076-2.313,10.969c7.059,5.036,7.653,6.403,7.643,7.366c-0.004,0.484-0.239,0.919-0.642,1.19   c-1.212,0.816-5.78,1.403-9.681,1.768C51.439,191.731,50.705,191.731,49.78,191.731z M46.873,182.082   c1.216,2.71,2.29,5.003,2.963,6.422c0.434-1.096,1.12-3.096,2.154-6.736C50.287,181.901,48.557,182.006,46.873,182.082z    M35.279,179.63c0.805,0.188,2.573,0.431,6.33,0.431c0.648,0,1.321-0.007,2.009-0.021c-0.914-2.09-1.737-4.041-2.458-5.829   C37.98,176.945,36.129,178.704,35.279,179.63z M42.884,172.743c0.864,2.164,1.885,4.589,3.049,7.228   c2.177-0.084,4.457-0.223,6.671-0.408c0.654-2.397,1.313-4.956,1.919-7.406c-1.747-1.222-3.756-2.578-5.992-4.044   C46.655,169.609,44.725,171.192,42.884,172.743z M56.405,173.495c-0.487,1.947-1.003,3.944-1.518,5.86   c3.872-0.389,6.21-0.811,7.267-1.108C61.619,177.606,60.193,176.236,56.405,173.495z M39.616,162.439   c0.103,1.06,0.606,3.346,2.445,8.191c1.5-1.258,3.049-2.528,4.574-3.75C43.679,164.967,41.057,163.33,39.616,162.439z    M50.308,166.712c1.734,1.142,3.326,2.216,4.761,3.21c0.893-3.707,1.485-6.418,1.795-8.01   C55.694,162.665,53.614,164.131,50.308,166.712z"/>
	<path style="fill:#241726;" d="M483.599,393.607c-0.484,0-0.91-0.282-1.141-0.754c-0.019-0.039-1.864-3.841-4.081-8.811   c-1.017,0.028-2.007,0.043-2.949,0.043c-7.227,0-8.288-0.826-8.716-1.601c-0.262-0.476-0.239-1.026,0.067-1.51   c0.82-1.302,4.736-4.754,7.364-6.999c-3.601-9.313-3.335-11.626-1.73-12.291c0.317-0.133,0.675-0.105,0.971,0.076   c0.042,0.025,4.096,2.501,8.848,5.588c8.102-6.373,9.167-6.373,9.627-6.373c0.583,0,1.219,0.598,1.233,1.18   c0.027,1.034-1.37,7.076-2.313,10.969c7.059,5.036,7.653,6.403,7.642,7.366c-0.004,0.484-0.239,0.919-0.642,1.19   c-1.212,0.816-5.78,1.403-9.681,1.768C485.258,393.607,484.524,393.607,483.599,393.607z M480.692,383.958   c1.216,2.71,2.29,5.003,2.963,6.422c0.434-1.096,1.12-3.096,2.154-6.736C484.106,383.777,482.376,383.883,480.692,383.958z    M469.098,381.506c0.805,0.188,2.573,0.431,6.33,0.431c0.648,0,1.321-0.007,2.009-0.021c-0.914-2.09-1.737-4.041-2.458-5.829   C471.8,378.821,469.948,380.581,469.098,381.506z M476.703,374.619c0.864,2.164,1.885,4.589,3.049,7.228   c2.177-0.084,4.457-0.223,6.671-0.408c0.654-2.397,1.313-4.956,1.919-7.406c-1.747-1.222-3.756-2.578-5.992-4.044   C480.474,371.486,478.544,373.068,476.703,374.619z M490.224,375.371c-0.487,1.947-1.003,3.944-1.518,5.86   c3.872-0.389,6.21-0.811,7.267-1.108C495.438,379.483,494.012,378.112,490.224,375.371z M473.435,364.315   c0.103,1.06,0.606,3.346,2.445,8.191c1.5-1.258,3.049-2.528,4.574-3.75C477.498,366.843,474.876,365.206,473.435,364.315z    M484.127,368.588c1.734,1.142,3.326,2.216,4.761,3.21c0.893-3.707,1.485-6.418,1.795-8.01   C489.513,364.542,487.433,366.008,484.127,368.588z"/>
	<path style="fill:#241726;" d="M360.446,199.058c-0.799,0-1.556,0-3.544-8.38c-7.043-1.452-7.651-2.289-7.854-2.57   c-0.197-0.271-0.277-0.763-0.18-1.083c0.132-0.451,0.443-1.495,8.555-4.642c2.987-7.495,3.964-7.495,4.614-7.495   c0.344,0,0.816,0.25,1.019,0.529c0.51,0.704,0.954,2.517,1.628,5.42c0.212,0.91,0.468,2.008,0.617,2.492   c0.419,0.195,1.351,0.542,2.122,0.829c4.127,1.542,5.191,2.062,5.373,3.054c0.067,0.372-0.128,0.911-0.413,1.161   c-0.854,0.745-4.882,2.181-6.994,2.903c-3.517,7.727-4.249,7.757-4.895,7.782C360.48,199.058,360.461,199.058,360.446,199.058z    M351.791,187.219c1.405,0.425,3.97,1.043,6.208,1.491c0.413,0.083,0.74,0.4,0.837,0.81c0.543,2.332,1.258,4.99,1.779,6.509   c0.801-1.397,2.02-3.874,3.008-6.063c0.124-0.272,0.354-0.479,0.635-0.575c1.927-0.65,4.104-1.45,5.461-2.024   c-0.94-0.41-2.219-0.887-3.047-1.197c-2.359-0.881-2.804-1.071-3.104-1.485c-0.26-0.36-0.417-0.958-0.975-3.363   c-0.21-0.903-0.531-2.289-0.82-3.327c-0.721,1.333-1.734,3.603-2.527,5.613c-0.109,0.28-0.331,0.501-0.612,0.609   C356.128,185.18,353.284,186.41,351.791,187.219z"/>
	<path style="fill:#241726;" d="M169.308,214.092c-0.799,0-1.556,0-3.544-8.38c-7.043-1.452-7.651-2.289-7.854-2.57   c-0.197-0.271-0.277-0.763-0.18-1.083c0.132-0.451,0.443-1.495,8.555-4.642c2.987-7.495,3.964-7.495,4.614-7.495   c0.344,0,0.816,0.25,1.019,0.529c0.51,0.704,0.954,2.517,1.628,5.42c0.212,0.91,0.468,2.008,0.617,2.492   c0.419,0.195,1.351,0.542,2.122,0.829c4.127,1.542,5.191,2.062,5.373,3.054c0.067,0.372-0.128,0.911-0.413,1.161   c-0.854,0.745-4.882,2.181-6.994,2.903c-3.517,7.727-4.249,7.757-4.895,7.782C169.342,214.092,169.323,214.092,169.308,214.092z    M160.653,202.253c1.405,0.425,3.97,1.043,6.208,1.491c0.413,0.083,0.74,0.4,0.837,0.81c0.543,2.332,1.258,4.99,1.778,6.509   c0.801-1.397,2.02-3.874,3.008-6.063c0.124-0.272,0.354-0.479,0.635-0.575c1.927-0.65,4.104-1.45,5.461-2.024   c-0.94-0.41-2.219-0.887-3.047-1.197c-2.359-0.881-2.804-1.071-3.104-1.485c-0.26-0.36-0.417-0.958-0.975-3.363   c-0.21-0.903-0.531-2.289-0.82-3.327c-0.721,1.333-1.734,3.603-2.527,5.613c-0.109,0.28-0.331,0.501-0.612,0.609   C164.99,200.213,162.146,201.443,160.653,202.253z"/>
	<g>
		<path style="fill:#241726;" d="M367.265,111.523c-0.289,0-0.573-0.117-0.782-0.35c-0.084-0.094-7.628-10.939-6.739-12.545    c0.526-0.948,0.807-1.475,14.207,4.448c0.543,0.24,0.789,0.875,0.547,1.417c-0.237,0.543-0.877,0.785-1.416,0.548    c-3.914-1.73-8.234-3.527-10.598-4.372c1.56,2.863,5.025,8.368,5.608,9.082c0.369,0.452,0.319,1.128-0.124,1.507    C367.764,111.435,367.512,111.522,367.265,111.523z"/>
		<path style="fill:#E17B8D;" d="M383.217,115.162c0,0,2.405-16.595-6.764-15.403c-12.702,1.652-24.524,31.036-3.557,42.332    c20.967,11.296,32.865-5.404,32.865-5.404l-11.431-5.263c0,0,10.217-5.972,10.733-12.503c0.516-6.53-7.371-2.328-7.371-2.328    s10.909-13.031,4.479-14.824C395.741,99.976,383.217,115.162,383.217,115.162z"/>
		<path style="fill:#241726;" d="M374.06,111.192c-0.233,0-0.461-0.029-0.684-0.091c-0.549-0.155-0.961-0.535-1.151-1.07    c-0.61-1.7,1.443-5.04,2.722-6.879c0.336-0.49,1.005-0.609,1.493-0.27c0.487,0.339,0.608,1.008,0.271,1.494    c-1.216,1.75-2.265,3.78-2.439,4.657c0.875-0.159,2.58-1.43,3.758-2.683c0.409-0.432,1.086-0.453,1.518-0.047    c0.43,0.406,0.453,1.085,0.046,1.517C378.804,108.663,376.245,111.192,374.06,111.192z"/>
		<path style="fill:#241726;" d="M390.765,130.599c-0.386,0-0.757-0.208-0.95-0.57c-0.279-0.524-0.08-1.173,0.445-1.452    c2.45-1.3,6.422-4.175,6.646-6.346c0.021-0.2-0.008-0.275-0.008-0.275c-0.499-0.258-3.167,0.632-5.421,1.887    c-0.409,0.228-0.919,0.167-1.258-0.156c-0.342-0.321-0.434-0.826-0.231-1.248c1.315-2.729,2.284-5.65,2.269-6.749    c-1.512,0.626-5.612,4.199-8.869,7.514c-0.415,0.425-1.095,0.427-1.518,0.013c-0.424-0.415-0.428-1.095-0.013-1.518    c9.211-9.371,10.981-8.374,11.567-8.039c1.363,0.78,1.263,3.133-0.296,7.007c1.783-0.718,3.823-1.22,5.002-0.446    c0.398,0.263,1.051,0.904,0.912,2.232c-0.413,4.013-7.024,7.626-7.775,8.024C391.104,130.559,390.932,130.599,390.765,130.599z"/>
		<path style="fill:#241726;" d="M383.575,139.841c-2.418,0-9.813-0.446-14.966-5.562c-3.723-3.693-5.424-8.98-5.059-15.711    c0.034-0.591,0.493-1.068,1.13-1.014c0.591,0.031,1.047,0.538,1.013,1.129c-0.329,6.087,1.156,10.818,4.417,14.06    c5.413,5.384,14.035,4.94,14.121,4.935c0.573-0.018,1.101,0.416,1.137,1.007c0.036,0.591-0.413,1.1-1.005,1.137    C384.301,139.826,384.024,139.841,383.575,139.841z"/>
	</g>
	<g>
		<path style="fill:#241726;" d="M167.305,159.72c-0.394,0-0.774-0.219-0.963-0.598c-0.262-0.531-0.046-1.176,0.487-1.439    c0.793-0.44,6.042-4.274,8.551-6.357c-2.506-0.09-7.189-0.017-11.464,0.145c-0.558,0.062-1.091-0.44-1.114-1.032    c-0.021-0.594,0.44-1.092,1.034-1.114c14.626-0.555,14.7,0.006,14.845,1.115c0.237,1.826-10.786,9.112-10.9,9.168    C167.628,159.684,167.467,159.72,167.305,159.72z"/>
		<path style="fill:#E17B8D;" d="M150.759,157.13c0,0,3.899-16.309,11.978-11.812c11.192,6.23,11.316,37.903-12.342,40.649    s-28.54-17.169-28.54-17.169l12.567-0.665c0,0-7.286-9.326-5.352-15.585c1.934-6.259,7.709,0.561,7.709,0.561    s-5.32-16.14,1.317-15.43C144.735,138.39,150.759,157.13,150.759,157.13z"/>
		<path style="fill:#241726;" d="M161.596,157.003c-0.063,0-0.128-0.003-0.193-0.01c-2.38-0.25-4.096-4.156-4.564-5.347    c-0.218-0.552,0.052-1.174,0.604-1.392c0.552-0.219,1.177,0.052,1.393,0.604c0.633,1.601,1.747,3.412,2.498,3.884    c0.164-0.879-0.061-3.152-0.543-5.229c-0.134-0.578,0.227-1.155,0.803-1.289c0.589-0.133,1.156,0.225,1.29,0.802    c0.508,2.181,1.181,6.043-0.015,7.398C162.536,156.801,162.091,157.003,161.596,157.003z"/>
		<path style="fill:#241726;" d="M138.438,168.76c-0.304,0-0.606-0.128-0.818-0.378c-0.552-0.649-5.359-6.449-4.26-10.33    c0.365-1.285,1.206-1.639,1.676-1.736c1.374-0.282,3.091,0.938,4.482,2.262c-0.017-4.176,0.759-6.4,2.315-6.62    c0.673-0.089,2.676-0.381,7.777,11.746c0.231,0.546-0.027,1.177-0.575,1.406c-0.539,0.23-1.177-0.026-1.405-0.574    c-1.85-4.397-4.421-9.374-5.554-10.342c-0.31,0.754-0.524,4.001-0.296,7.192c0.034,0.468-0.241,0.902-0.675,1.075    c-0.44,0.171-0.933,0.042-1.229-0.32c-1.592-1.955-3.672-3.725-4.362-3.725c-0.004,0-0.01,0-0.015,0    c0,0.021-0.036,0.09-0.071,0.22c-0.598,2.106,2.03,6.24,3.828,8.352c0.384,0.452,0.329,1.13-0.122,1.514    C138.931,168.676,138.686,168.76,138.438,168.76z"/>
		<path style="fill:#241726;" d="M150.212,181.667c-5.201,0-9.385-1.931-9.633-2.048c-0.537-0.252-0.766-0.891-0.514-1.427    c0.252-0.534,0.879-0.77,1.428-0.516c0.078,0.038,7.924,3.639,14.945,0.634c4.228-1.808,7.357-5.654,9.301-11.432    c0.189-0.56,0.797-0.86,1.359-0.675c0.562,0.19,0.864,0.799,0.675,1.361c-2.15,6.389-5.686,10.672-10.509,12.728    C154.883,181.309,152.452,181.667,150.212,181.667z"/>
	</g>
	<polygon style="fill:#DEB400;" points="376.052,51.386 389.063,43.945 385.973,57.757 395.317,66.676 383.93,70.141    377.669,82.015 372.121,71.097 357.817,69.913 368.695,59.745 364.082,47.193  "/>
	<polygon style="fill:#DEB400;" points="10.328,390.927 11.75,376.006 21.253,386.495 33.928,384.002 30.194,395.305    36.285,407.266 24.166,405.503 14.951,416.508 12.916,401.758 0,398.29  "/>
	<g>
		<path style="fill:#241726;" d="M120.691,121.757c-0.279,0-0.654-0.148-0.856-0.341c-0.828-0.802-2.924-6.455-4.348-10.489    c-3.993,2.348-12.678,7.304-14.811,7.305c-0.766,0-1.191-0.454-1.334-0.879c-0.455-1.354,0.499-9.902,1.063-14.542    c-14.79-1.28-15.241-2.626-15.461-3.281c-0.197-0.581-0.644-1.914,8.356-11.233c-4.761-1.909-12.775-5.565-12.756-8.552    c0.019-2.982,7.334-6.504,11.621-8.31c-9.316-12.362-8.521-13.185-7.88-13.848c0.411-0.427,1.101-0.644,3.716-0.644    c3.274,0,8.247,0.358,10.608,0.543c-1.829-14.669-1.007-15.02-0.212-15.359c0.134-0.057,0.386-0.102,0.531-0.102    c1.531,0,10.197,3.831,15.033,6.023c1.825-13.745,3.054-13.746,3.958-13.746c0.08,0,0.195,0.013,0.273,0.03    c0.461,0.104,1.657,0.372,8.131,11.417c3.628-2.784,10.275-7.669,12.225-7.669c0.109,0,0.367,0.037,0.47,0.069    c0.682,0.214,2.234,0.7,1.397,11.968c3.278-0.997,10.887-3.214,13.739-3.214c1.525,0,1.955,0.678,2.047,1.249    c0.25,1.562-1.883,8.405-3.175,12.341c5.763,0.676,12.236,1.765,13.207,3.297c0.417,0.663,1.378,2.183-8.672,12.351    c4.824,2.332,11.436,6.058,11.137,8.838c-0.298,2.742-8.215,5.958-13.806,7.899c2.869,3.744,6.636,9.189,5.994,11.229    c-0.336,1.074-1.445,2.22-10.382,2.22c-1.734,0-3.297-0.046-4.247-0.083c-0.568,3.497-1.898,11.149-2.869,12.49    c-0.262,0.361-0.682,0.567-1.156,0.568l0,0c-1.955,0-7.64-5.255-11.399-8.952C122.511,121.756,121.241,121.757,120.691,121.757z     M116.069,108.263c0.124,0,0.247,0.021,0.367,0.065c0.304,0.11,0.541,0.351,0.648,0.655c1.403,4.034,3.07,8.468,3.897,10.222    c1.636-1.57,5.591-6.624,8.848-11.125c0.185-0.255,0.472-0.416,0.784-0.441c0.312-0.017,0.621,0.089,0.845,0.31    c3.888,3.88,8.67,8.148,10.398,9.047c0.61-1.762,1.678-7.266,2.429-12.03c0.088-0.543,0.573-0.941,1.118-0.906    c0.01,0.001,2.328,0.122,5.101,0.122c6.279,0,7.93-0.598,8.324-0.816c-0.124-1.386-3.408-6.365-6.554-10.352    c-0.216-0.275-0.285-0.638-0.187-0.972c0.101-0.336,0.359-0.601,0.69-0.711c7.104-2.368,13.418-5.392,13.79-6.605    c-0.109-1.122-5.384-4.549-11.292-7.288c-0.319-0.148-0.545-0.441-0.606-0.788c-0.061-0.346,0.05-0.699,0.3-0.948    c4.153-4.134,8.702-9.278,9.289-10.868c-1.292-0.712-7.481-1.773-12.783-2.353c-0.323-0.036-0.612-0.215-0.786-0.489    c-0.176-0.274-0.218-0.611-0.115-0.92c1.59-4.751,3.179-10.117,3.465-12.018c-2.844,0.071-11.395,2.601-14.494,3.583    c-0.346,0.107-0.717,0.039-0.996-0.185c-0.279-0.224-0.43-0.574-0.398-0.931c0.388-4.505,0.474-9.824,0.031-11.266    c-1.407,0.525-6.955,4.398-11.508,7.939c-0.241,0.189-0.554,0.268-0.864,0.207c-0.304-0.059-0.568-0.246-0.724-0.515    c-2.471-4.253-5.484-9.048-6.915-10.847c-0.684,2.185-1.64,7.817-2.263,12.725c-0.044,0.339-0.245,0.637-0.543,0.803    c-0.298,0.168-0.656,0.179-0.969,0.038c-5.885-2.691-12.437-5.504-14.752-6.247c-0.061,2.242,0.543,8.528,1.265,14.169    c0.042,0.322-0.065,0.646-0.292,0.88c-0.227,0.235-0.554,0.352-0.866,0.326c-0.076-0.006-7.515-0.643-11.747-0.643    c-0.761,0-1.288,0.021-1.651,0.047c1.044,2.071,4.803,7.424,8.366,12.11c0.201,0.267,0.268,0.613,0.178,0.936    c-0.088,0.323-0.323,0.585-0.633,0.71c-6.042,2.427-11.558,5.698-11.571,6.867c0.151,1.23,6.174,4.562,12.888,7.122    c0.34,0.129,0.589,0.421,0.667,0.774c0.078,0.353-0.027,0.723-0.281,0.982c-3.716,3.791-7.829,8.421-8.767,10.092    c1.911,0.681,8.664,1.554,14.496,2.034c0.292,0.024,0.56,0.167,0.745,0.393c0.185,0.228,0.268,0.52,0.233,0.811    c-0.692,5.554-1.307,11.706-1.328,13.957c2.269-0.767,8.603-4.196,14.173-7.512C115.687,108.314,115.878,108.263,116.069,108.263z    "/>
		<circle style="fill:#EBBD00;" cx="124.459" cy="79.746" r="27.562"/>
		<g>
			<path style="fill:#FFFFFF;" d="M123.535,60.662c0,0,4.079,0.17,4.963,2.009"/>
			<path style="fill:#241726;" d="M128.499,63.745c-0.398,0-0.782-0.224-0.967-0.608c-0.411-0.854-2.655-1.341-4.044-1.402     c-0.591-0.026-1.051-0.526-1.026-1.119c0.025-0.591,0.524-1.069,1.116-1.027c0.789,0.033,4.78,0.314,5.887,2.616     c0.258,0.535,0.034,1.177-0.501,1.433C128.814,63.711,128.657,63.745,128.499,63.745z"/>
		</g>
		<g>
			<path style="fill:#FFFFFF;" d="M128.087,68.518c0,0,4.079,0.17,4.963,2.009"/>
			<path style="fill:#241726;" d="M133.05,71.6c-0.398,0-0.782-0.224-0.967-0.608c-0.411-0.854-2.655-1.341-4.044-1.402     c-0.591-0.026-1.051-0.526-1.026-1.119s0.503-1.08,1.116-1.027c0.789,0.033,4.78,0.314,5.887,2.616     c0.258,0.535,0.034,1.177-0.501,1.433C133.365,71.567,133.208,71.6,133.05,71.6z"/>
		</g>
		<g>
			<path style="fill:#FFFFFF;" d="M137.049,66.992c0,0,3.986,0.878,4.537,2.843"/>
			<path style="fill:#241726;" d="M141.586,70.909c-0.47,0-0.902-0.309-1.034-0.783c-0.245-0.878-2.326-1.774-3.733-2.085     c-0.579-0.128-0.946-0.7-0.818-1.279c0.128-0.577,0.698-0.945,1.279-0.818c0.77,0.17,4.65,1.141,5.34,3.601     c0.159,0.572-0.172,1.164-0.745,1.324C141.779,70.897,141.683,70.909,141.586,70.909z"/>
		</g>
		<g>
			<path style="fill:#FFFFFF;" d="M117.463,67.979c0,0,4.079,0.17,4.963,2.009"/>
			<path style="fill:#241726;" d="M122.425,71.062c-0.398,0-0.782-0.224-0.967-0.608c-0.396-0.821-2.601-1.342-4.039-1.402     c-0.594-0.024-1.053-0.525-1.03-1.118c0.025-0.592,0.516-1.088,1.118-1.028c0.789,0.033,4.778,0.314,5.885,2.616     c0.258,0.535,0.034,1.177-0.501,1.433C122.74,71.029,122.583,71.062,122.425,71.062z"/>
		</g>
		<g>
			<path style="fill:#FFFFFF;" d="M111.736,62.038c0,0,4.012-0.752,5.288,0.841"/>
			<path style="fill:#241726;" d="M117.025,63.952c-0.315,0-0.625-0.137-0.837-0.402c-0.594-0.741-2.89-0.713-4.255-0.457     c-0.596,0.102-1.143-0.277-1.252-0.86c-0.109-0.582,0.275-1.142,0.858-1.251c0.774-0.147,4.727-0.769,6.323,1.224     c0.371,0.464,0.298,1.139-0.166,1.51C117.499,63.875,117.262,63.952,117.025,63.952z"/>
		</g>
	</g>
	<path style="fill:#241726;" d="M40.617,302.026c-0.036,0-0.069-0.001-0.103-0.005c-1.5-0.141-2.957-0.326-4.333-0.548   c-0.585-0.095-0.984-0.647-0.887-1.232c0.094-0.588,0.654-0.983,1.231-0.888c1.33,0.216,2.726,0.393,4.19,0.532   c0.591,0.056,1.023,0.579,0.969,1.169C41.632,301.609,41.164,302.026,40.617,302.026z M32.15,300.627   c-0.086,0-0.174-0.01-0.262-0.033c-1.487-0.373-2.905-0.813-4.216-1.305c-0.556-0.209-0.837-0.827-0.627-1.383   c0.208-0.556,0.831-0.836,1.382-0.628c1.235,0.465,2.575,0.879,3.985,1.233c0.575,0.145,0.923,0.728,0.78,1.303   C33.069,300.302,32.632,300.627,32.15,300.627z M24.153,297.564c-0.178,0-0.359-0.044-0.524-0.137   c-1.363-0.763-2.607-1.627-3.695-2.568c-0.449-0.388-0.497-1.065-0.109-1.514c0.388-0.451,1.065-0.497,1.514-0.111   c0.979,0.846,2.104,1.628,3.339,2.321c0.518,0.289,0.703,0.944,0.413,1.462C24.893,297.367,24.528,297.564,24.153,297.564z    M17.765,291.951c-0.338,0-0.671-0.159-0.879-0.457c-0.868-1.24-1.575-2.603-2.099-4.051c-0.201-0.558,0.088-1.173,0.646-1.375   c0.552-0.202,1.172,0.087,1.376,0.645c0.457,1.27,1.076,2.464,1.835,3.548c0.342,0.486,0.222,1.156-0.262,1.495   C18.193,291.888,17.979,291.951,17.765,291.951z M14.826,283.982c-0.537,0-1-0.403-1.065-0.95c-0.101-0.88-0.153-1.805-0.153-2.748   c0-0.567,0.019-1.144,0.057-1.73c0.038-0.589,0.512-1.029,1.139-1.004c0.594,0.038,1.042,0.547,1.005,1.14   c-0.034,0.54-0.052,1.071-0.052,1.594c0,0.861,0.046,1.702,0.141,2.501c0.067,0.589-0.354,1.122-0.944,1.19   C14.91,283.98,14.868,283.982,14.826,283.982z M15.311,275.442c-0.071,0-0.143-0.006-0.214-0.021   c-0.581-0.116-0.958-0.683-0.841-1.265c0.275-1.372,0.644-2.806,1.095-4.264c0.174-0.567,0.772-0.886,1.342-0.709   c0.566,0.175,0.885,0.776,0.709,1.342c-0.428,1.388-0.778,2.753-1.04,4.054C16.259,275.089,15.81,275.442,15.311,275.442z    M17.809,267.235c-0.132,0-0.266-0.024-0.396-0.076c-0.549-0.218-0.82-0.842-0.602-1.394c0.518-1.307,1.097-2.642,1.737-4.001   c0.252-0.538,0.889-0.769,1.428-0.516c0.537,0.253,0.768,0.892,0.514,1.428c-0.619,1.319-1.181,2.612-1.682,3.879   C18.639,266.978,18.237,267.235,17.809,267.235z M58.477,263.629c-0.455,0-0.877-0.29-1.023-0.747   c-0.18-0.565,0.132-1.169,0.696-1.35c0.512-0.164,0.77-0.364,0.77-0.595c0-0.126-0.048-0.487-0.495-1.115   c-0.344-0.483-0.231-1.154,0.252-1.497c0.482-0.342,1.151-0.231,1.497,0.252c0.594,0.833,0.893,1.626,0.893,2.36   c0,0.715-0.294,2.01-2.263,2.639C58.695,263.612,58.586,263.629,58.477,263.629z M54.341,263.121c-0.174,0-0.352-0.042-0.516-0.132   c-1.233-0.674-2.412-1.727-3.507-3.129c-0.365-0.468-0.281-1.143,0.187-1.508c0.468-0.363,1.143-0.283,1.508,0.187   c0.912,1.17,1.869,2.033,2.844,2.567c0.52,0.284,0.711,0.936,0.426,1.457C55.088,262.92,54.721,263.121,54.341,263.121z    M21.517,259.498c-0.199,0-0.398-0.055-0.579-0.169c-0.499-0.319-0.646-0.984-0.325-1.483c0.835-1.309,1.802-2.492,2.871-3.515   c0.428-0.411,1.105-0.395,1.518,0.034c0.409,0.429,0.394,1.108-0.034,1.518c-0.946,0.905-1.804,1.955-2.548,3.119   C22.217,259.323,21.869,259.498,21.517,259.498z M56.162,257.364c-0.216,0-0.432-0.064-0.621-0.197   c-1.047-0.74-2.244-1.452-3.555-2.115c-0.529-0.267-0.742-0.913-0.474-1.443c0.266-0.53,0.914-0.742,1.443-0.474   c1.405,0.71,2.693,1.476,3.828,2.279c0.482,0.342,0.598,1.012,0.256,1.496C56.829,257.206,56.497,257.364,56.162,257.364z    M48.943,256.607c-0.401,0-0.784-0.225-0.969-0.612c-0.463-0.969-0.881-2.004-1.248-3.087c-0.849-0.271-1.707-0.51-2.561-0.713   c-0.577-0.137-0.933-0.716-0.795-1.293c0.136-0.577,0.709-0.932,1.294-0.796c0.698,0.167,1.399,0.354,2.095,0.564   c0.101-0.077,0.216-0.136,0.344-0.175c0.575-0.172,1.166,0.153,1.336,0.72c0.002,0.001,0.002,0.001,0.002,0.002   c0.151,0.053,0.304,0.107,0.455,0.163c0.556,0.203,0.843,0.82,0.64,1.377c-0.08,0.216-0.22,0.392-0.396,0.514   c0.239,0.623,0.497,1.225,0.772,1.802c0.256,0.535,0.029,1.176-0.508,1.43C49.255,256.573,49.098,256.607,48.943,256.607z    M27.681,253.65c-0.378,0-0.745-0.2-0.94-0.555c-0.287-0.52-0.099-1.173,0.422-1.46c1.296-0.715,2.716-1.28,4.218-1.681   c0.577-0.15,1.162,0.19,1.315,0.761c0.153,0.574-0.189,1.162-0.761,1.315c-1.334,0.354-2.59,0.855-3.735,1.486   C28.035,253.607,27.857,253.65,27.681,253.65z M40.185,251.5c-0.038,0-0.073-0.002-0.111-0.005   c-0.906-0.092-1.804-0.139-2.672-0.139c-0.575,0.033-0.967,0.013-1.447,0.041c-0.596,0.045-1.101-0.416-1.135-1.008   c-0.036-0.592,0.415-1.101,1.009-1.136c0.524-0.031,1.03-0.063,1.573-0.045c0.94,0,1.913,0.05,2.89,0.15   c0.589,0.061,1.019,0.587,0.958,1.178C41.193,251.088,40.728,251.5,40.185,251.5z M46.453,248.413   c-0.516,0-0.973-0.374-1.057-0.902c-0.235-1.446-0.382-2.928-0.438-4.405c-0.021-0.592,0.44-1.091,1.034-1.113   c0.602-0.025,1.091,0.441,1.114,1.033c0.05,1.388,0.189,2.782,0.409,4.141c0.096,0.585-0.302,1.137-0.887,1.232   C46.569,248.409,46.512,248.413,46.453,248.413z M46.145,239.846c-0.034,0-0.065-0.001-0.099-0.004   c-0.591-0.053-1.026-0.576-0.973-1.166c0.134-1.483,0.367-2.956,0.692-4.381c0.13-0.576,0.688-0.949,1.286-0.809   c0.577,0.131,0.94,0.707,0.807,1.285c-0.302,1.333-0.52,2.712-0.646,4.098C47.162,239.427,46.693,239.846,46.145,239.846z    M48.066,231.502c-0.128,0-0.26-0.023-0.386-0.072c-0.554-0.213-0.828-0.835-0.617-1.388c0.537-1.391,1.185-2.743,1.923-4.022   c0.296-0.515,0.954-0.688,1.466-0.393c0.514,0.297,0.69,0.953,0.392,1.467c-0.682,1.183-1.279,2.435-1.776,3.722   C48.903,231.241,48.496,231.502,48.066,231.502z M95.339,231.404c-0.388,0-0.761-0.211-0.952-0.579   c-0.275-0.526-0.069-1.174,0.457-1.448c0.206-0.107,0.411-0.246,0.61-0.415c0.514-0.433,0.763-0.913,0.763-1.47   c0-0.142-0.017-0.288-0.046-0.438c-0.122-0.581,0.252-1.149,0.833-1.27c0.575-0.118,1.149,0.251,1.269,0.834   c0.061,0.293,0.092,0.587,0.092,0.875c0,1.194-0.526,2.27-1.525,3.111c-0.321,0.271-0.661,0.5-1.007,0.681   C95.677,231.365,95.507,231.404,95.339,231.404z M91.295,230.958c-0.208,0-0.417-0.06-0.602-0.185   c-1.118-0.757-2.196-1.906-3.203-3.418c-0.329-0.494-0.195-1.16,0.298-1.489c0.489-0.328,1.158-0.198,1.489,0.298   c0.841,1.26,1.745,2.239,2.62,2.83c0.491,0.332,0.619,1,0.287,1.491C91.977,230.792,91.639,230.958,91.295,230.958z    M94.974,224.322c-0.275,0-0.549-0.105-0.759-0.314c-0.849-0.849-1.923-1.698-3.19-2.524c-0.497-0.324-0.638-0.989-0.315-1.486   c0.323-0.497,0.992-0.633,1.485-0.314c1.393,0.907,2.584,1.85,3.538,2.804c0.419,0.418,0.419,1.099,0,1.518   C95.524,224.217,95.249,224.322,94.974,224.322z M52.353,224.102c-0.239,0-0.48-0.08-0.68-0.242   c-0.459-0.375-0.526-1.052-0.153-1.511c0.65-0.794,1.357-1.567,2.101-2.295c0.333-0.323,0.667-0.63,1.007-0.925   c0.447-0.386,1.126-0.34,1.514,0.11c0.388,0.449,0.34,1.127-0.109,1.515c-0.31,0.267-0.615,0.547-0.914,0.838   c-0.684,0.67-1.336,1.383-1.934,2.116C52.972,223.968,52.664,224.102,52.353,224.102z M86.377,224.041   c-0.417,0-0.816-0.245-0.988-0.654c-0.558-1.315-1.044-2.728-1.445-4.198c-0.107-0.395,0.021-0.8,0.3-1.064   c-0.237-0.088-0.474-0.174-0.713-0.258c-0.558-0.198-0.852-0.812-0.654-1.371c0.197-0.559,0.812-0.847,1.372-0.655   c1.405,0.497,2.777,1.063,4.075,1.684c0.535,0.256,0.761,0.897,0.505,1.432c-0.256,0.534-0.898,0.76-1.432,0.505   c-0.43-0.206-0.868-0.405-1.313-0.598c0.361,1.291,0.793,2.528,1.281,3.683c0.233,0.546-0.023,1.177-0.568,1.408   C86.66,224.014,86.518,224.041,86.377,224.041z M58.851,218.569c-0.378,0-0.745-0.2-0.942-0.556   c-0.285-0.52-0.096-1.172,0.424-1.459c1.29-0.711,2.682-1.306,4.136-1.769c0.56-0.18,1.168,0.134,1.349,0.697   c0.18,0.565-0.132,1.169-0.698,1.35c-1.319,0.421-2.582,0.96-3.75,1.603C59.205,218.526,59.027,218.569,58.851,218.569z    M79.769,216.712c-0.082,0-0.166-0.009-0.25-0.029c-1.376-0.329-2.758-0.583-4.109-0.753c-0.589-0.074-1.005-0.611-0.931-1.2   c0.076-0.59,0.612-0.998,1.2-0.931c1.428,0.18,2.888,0.448,4.339,0.795c0.577,0.138,0.933,0.717,0.795,1.294   C80.696,216.381,80.255,216.712,79.769,216.712z M66.975,215.938c-0.526,0-0.986-0.387-1.061-0.924   c-0.082-0.587,0.327-1.13,0.914-1.213c1.386-0.195,2.84-0.295,4.32-0.295c0.594,0,1.13,0.48,1.13,1.074   c0,0.594-0.426,1.074-1.019,1.074h-0.111c-1.38,0-2.733,0.092-4.023,0.274C67.076,215.935,67.026,215.938,66.975,215.938z    M84.098,215.777c-0.524,0-0.984-0.385-1.061-0.92c-0.216-1.487-0.342-2.97-0.375-4.407c-0.013-0.594,0.455-1.085,1.049-1.099   c0.589,0.017,1.084,0.456,1.099,1.049c0.031,1.352,0.151,2.747,0.354,4.149c0.084,0.587-0.323,1.131-0.908,1.216   C84.202,215.774,84.15,215.777,84.098,215.777z M83.926,207.208c-0.042,0-0.082-0.002-0.124-0.007   c-0.589-0.067-1.013-0.6-0.946-1.189c0.174-1.517,0.463-2.992,0.86-4.381c0.161-0.57,0.745-0.91,1.325-0.739   c0.57,0.163,0.902,0.756,0.738,1.327c-0.363,1.278-0.629,2.637-0.789,4.039C84.928,206.805,84.463,207.208,83.926,207.208z    M86.306,199.003c-0.166,0-0.331-0.038-0.489-0.117c-0.529-0.271-0.738-0.918-0.468-1.445c0.7-1.368,1.542-2.639,2.502-3.777   c0.384-0.455,1.061-0.509,1.512-0.129c0.453,0.383,0.512,1.06,0.128,1.513c-0.854,1.014-1.604,2.148-2.229,3.37   C87.072,198.789,86.696,199.003,86.306,199.003z M91.669,192.357c-0.294,0-0.587-0.12-0.799-0.355   c-0.396-0.44-0.361-1.12,0.082-1.516c1.16-1.044,2.353-1.958,3.544-2.716c0.497-0.318,1.164-0.172,1.483,0.33   c0.319,0.5,0.17,1.164-0.329,1.482c-1.093,0.695-2.192,1.536-3.263,2.5C92.183,192.265,91.925,192.357,91.669,192.357z    M111.285,189.059c-0.222,0-0.445-0.068-0.638-0.209c-0.013-0.009-1.344-0.975-3.544-1.526c-0.577-0.144-0.925-0.727-0.782-1.301   c0.143-0.577,0.717-0.927,1.302-0.781c2.645,0.661,4.239,1.835,4.306,1.884c0.474,0.354,0.573,1.023,0.22,1.499   C111.937,188.909,111.614,189.059,111.285,189.059z M98.911,187.848c-0.44,0-0.856-0.274-1.011-0.713   c-0.199-0.559,0.092-1.173,0.65-1.373c1.485-0.529,2.993-0.844,4.484-0.937c0.64-0.033,1.101,0.414,1.139,1.005   c0.038,0.591-0.413,1.102-1.005,1.139c-1.292,0.081-2.603,0.355-3.897,0.818C99.152,187.829,99.03,187.848,98.911,187.848z"/>
	<path style="fill:#241726;" d="M484.855,237.456c-0.111,0-0.222-0.017-0.333-0.053c-0.564-0.185-0.872-0.791-0.688-1.355   c0.438-1.334,0.782-2.687,1.023-4.018c0.107-0.585,0.692-0.974,1.248-0.865c0.585,0.106,0.971,0.665,0.866,1.249   c-0.26,1.428-0.629,2.875-1.095,4.304C485.728,237.168,485.306,237.456,484.855,237.456z M486.369,229.027   c-0.008,0-0.017,0-0.027,0c-0.594-0.016-1.061-0.508-1.047-1.101l0.01-0.729c0-1.134-0.078-2.271-0.233-3.381   c-0.082-0.587,0.327-1.129,0.914-1.211c0.575-0.086,1.128,0.326,1.212,0.915c0.168,1.207,0.254,2.444,0.254,3.677l-0.01,0.783   C487.429,228.563,486.95,229.027,486.369,229.027z M450.678,226.507c-0.503,0-1.021-0.051-1.537-0.153   c-0.583-0.115-0.961-0.68-0.845-1.262c0.113-0.582,0.686-0.963,1.26-0.846c1.258,0.247,2.412,0.087,3.461-0.462   c0.52-0.273,1.174-0.074,1.449,0.453c0.277,0.524,0.073,1.173-0.451,1.449C452.974,226.231,451.852,226.507,450.678,226.507z    M445.548,224.495c-0.279,0-0.558-0.108-0.768-0.324c-0.883-0.905-1.349-2.034-1.346-3.265c0-0.575,0.101-1.179,0.296-1.793   c0.182-0.566,0.786-0.876,1.351-0.695c0.564,0.18,0.877,0.785,0.696,1.35c-0.13,0.403-0.195,0.786-0.195,1.141   c-0.002,0.68,0.239,1.255,0.734,1.764c0.415,0.425,0.407,1.104-0.017,1.518C446.089,224.394,445.818,224.495,445.548,224.495z    M456.586,222.873c-0.203,0-0.407-0.057-0.587-0.175c-0.497-0.325-0.635-0.99-0.31-1.486c0.663-1.014,1.221-2.234,1.659-3.626   c0.176-0.565,0.782-0.876,1.346-0.703c0.564,0.178,0.879,0.781,0.701,1.346c-0.497,1.58-1.139,2.979-1.909,4.157   C457.278,222.702,456.936,222.873,456.586,222.873z M485.17,220.564c-0.451,0-0.872-0.286-1.021-0.739   c-0.422-1.289-0.965-2.559-1.611-3.775c-0.279-0.524-0.08-1.174,0.445-1.452c0.514-0.28,1.17-0.082,1.451,0.444   c0.705,1.325,1.296,2.71,1.755,4.115c0.187,0.563-0.122,1.17-0.684,1.355C485.394,220.547,485.281,220.564,485.17,220.564z    M447.003,216.891c-0.256,0-0.51-0.09-0.715-0.273c-0.443-0.395-0.48-1.074-0.086-1.516c0.919-1.028,2.036-2.047,3.322-3.028   c0.47-0.359,1.143-0.272,1.506,0.202c0.361,0.472,0.268,1.145-0.201,1.505c-1.181,0.9-2.198,1.826-3.024,2.752   C447.593,216.77,447.299,216.891,447.003,216.891z M459.27,214.786c-0.046,0-0.092-0.003-0.138-0.008   c-0.589-0.076-1.005-0.613-0.929-1.202c0.155-1.202,0.233-2.46,0.233-3.742l-0.002-0.392c0-0.034,0-0.066,0.002-0.098   c-0.105,0.127-0.243,0.232-0.405,0.301c-1.279,0.541-2.536,1.163-3.735,1.849c-0.512,0.29-1.17,0.117-1.466-0.4   c-0.294-0.515-0.115-1.17,0.401-1.465c1.273-0.728,2.607-1.388,3.962-1.962c0.549-0.23,1.177,0.023,1.407,0.57   c0.069,0.164,0.096,0.335,0.084,0.5c0.193-0.233,0.482-0.382,0.807-0.387c0.633,0.027,1.082,0.464,1.091,1.057l0.002,0.426   c0,1.372-0.084,2.722-0.25,4.014C460.264,214.391,459.801,214.786,459.27,214.786z M481.172,213.006   c-0.323,0-0.642-0.145-0.854-0.422c-0.189-0.247-0.382-0.495-0.583-0.742c-0.646-0.798-1.384-1.505-2.194-2.1   c-0.476-0.352-0.579-1.025-0.227-1.502c0.352-0.478,1.023-0.576,1.502-0.229c0.956,0.705,1.827,1.539,2.59,2.481   c0.212,0.263,0.417,0.525,0.619,0.788c0.359,0.471,0.271,1.144-0.201,1.505C481.63,212.934,481.401,213.006,481.172,213.006z    M461.661,208.3c-0.468,0-0.898-0.308-1.032-0.78c-0.164-0.57,0.168-1.164,0.738-1.327c1.472-0.418,2.938-0.725,4.358-0.91   c0.573-0.081,1.126,0.337,1.204,0.925c0.076,0.588-0.338,1.127-0.927,1.204c-1.313,0.172-2.676,0.457-4.048,0.847   C461.856,208.288,461.758,208.3,461.661,208.3z M474.369,208.016c-0.109,0-0.222-0.017-0.331-0.052   c-1.21-0.393-2.538-0.634-3.947-0.717c-0.591-0.035-1.044-0.543-1.009-1.135c0.034-0.592,0.535-1.049,1.135-1.009   c1.592,0.093,3.102,0.369,4.484,0.818c0.564,0.184,0.872,0.789,0.69,1.353C475.243,207.728,474.822,208.016,474.369,208.016z    M459.182,206.22c-0.529,0-0.988-0.39-1.061-0.928c-0.187-1.367-0.464-2.739-0.82-4.079c-0.153-0.573,0.189-1.161,0.761-1.314   c0.577-0.15,1.162,0.189,1.315,0.762c0.38,1.425,0.673,2.885,0.87,4.339c0.082,0.588-0.331,1.129-0.919,1.21   C459.281,206.216,459.231,206.22,459.182,206.22z M456.976,197.937c-0.424,0-0.824-0.252-0.994-0.668   c-0.531-1.301-1.145-2.554-1.823-3.725c-0.298-0.513-0.122-1.17,0.39-1.467c0.508-0.297,1.168-0.126,1.468,0.391   c0.728,1.255,1.384,2.596,1.953,3.989c0.224,0.548-0.04,1.176-0.587,1.4C457.249,197.912,457.112,197.937,456.976,197.937z    M421.538,193.621c-1.342,0-2.374-0.785-2.833-2.156l-0.082-0.266c-0.168-0.568,0.155-1.166,0.724-1.336   c0.577-0.165,1.168,0.156,1.336,0.724c0.273,0.834,0.583,0.887,0.856,0.887c0.289,0,0.652-0.099,1.051-0.283   c0.537-0.247,1.177-0.018,1.426,0.52s0.017,1.177-0.52,1.426C422.805,193.459,422.146,193.621,421.538,193.621z M426.36,190.553   c-0.252,0-0.503-0.088-0.707-0.266c-0.447-0.391-0.491-1.07-0.101-1.515c0.845-0.964,1.625-2.086,2.317-3.334   c0.292-0.522,0.946-0.704,1.462-0.417c0.518,0.288,0.705,0.942,0.417,1.46c-0.768,1.381-1.636,2.629-2.582,3.707   C426.955,190.429,426.658,190.553,426.36,190.553z M452.668,190.537c-0.312,0-0.625-0.137-0.837-0.401   c-0.87-1.082-1.823-2.088-2.829-2.989c-0.443-0.395-0.48-1.074-0.086-1.516c0.398-0.441,1.082-0.477,1.516-0.084   c1.095,0.978,2.129,2.069,3.073,3.242c0.371,0.462,0.298,1.138-0.164,1.51C453.142,190.46,452.905,190.537,452.668,190.537z    M420.104,187.774c-0.141,0-0.283-0.027-0.419-0.085c-0.545-0.232-0.801-0.862-0.568-1.408c0.581-1.37,1.504-2.7,2.668-3.851   c0.424-0.416,1.103-0.412,1.518,0.01c0.417,0.422,0.413,1.102-0.008,1.518c-0.969,0.954-1.728,2.047-2.202,3.161   C420.919,187.529,420.521,187.774,420.104,187.774z M446.297,184.829c-0.203,0-0.409-0.058-0.591-0.178   c-1.2-0.792-2.41-1.488-3.601-2.07c-0.533-0.26-0.753-0.904-0.493-1.437c0.262-0.534,0.904-0.753,1.437-0.493   c1.273,0.622,2.565,1.365,3.84,2.208c0.495,0.327,0.631,0.993,0.304,1.488C446.987,184.661,446.645,184.829,446.297,184.829z    M430.544,183.108c-0.115,0-0.231-0.018-0.346-0.057c-0.56-0.191-0.862-0.801-0.671-1.362c0.13-0.38,0.25-0.763,0.359-1.15   c-1.189,0.238-2.324,0.624-3.381,1.146c-0.526,0.264-1.172,0.048-1.439-0.484c-0.262-0.532-0.046-1.176,0.487-1.439   c1.359-0.674,2.827-1.149,4.367-1.414c0.166-0.029,0.321-0.02,0.474,0.024c0.04-0.223,0.078-0.446,0.113-0.67   c0.09-0.587,0.646-0.986,1.227-0.896c0.585,0.091,0.986,0.641,0.896,1.227c-0.229,1.472-0.589,2.934-1.068,4.346   C431.408,182.826,430.991,183.108,430.544,183.108z M438.589,181.114c-0.101,0-0.206-0.015-0.306-0.045   c-1.353-0.403-2.695-0.662-3.993-0.769c-0.591-0.049-1.032-0.568-0.982-1.159c0.048-0.592,0.621-1.007,1.158-0.983   c1.445,0.12,2.936,0.407,4.429,0.853c0.568,0.169,0.891,0.768,0.724,1.336C439.478,180.813,439.053,181.114,438.589,181.114z    M431.853,174.661c-0.583,0-1.061-0.466-1.074-1.051c-0.029-1.361-0.178-2.734-0.443-4.08c-0.115-0.582,0.264-1.146,0.845-1.262   c0.568-0.11,1.145,0.263,1.26,0.846c0.289,1.467,0.453,2.965,0.484,4.449c0.013,0.594-0.457,1.084-1.051,1.097   C431.867,174.661,431.859,174.661,431.853,174.661z M430.212,166.271c-0.434,0-0.845-0.266-1.007-0.697   c-0.327-0.875-0.709-1.75-1.137-2.603c-0.199-0.402-0.398-0.785-0.6-1.158c-0.283-0.521-0.09-1.172,0.432-1.456   c0.512-0.281,1.17-0.091,1.456,0.432c0.214,0.393,0.426,0.8,0.635,1.223c0.459,0.917,0.872,1.862,1.227,2.808   c0.208,0.556-0.076,1.174-0.631,1.382C430.464,166.249,430.338,166.271,430.212,166.271z M426.135,158.739   c-0.331,0-0.656-0.153-0.868-0.44c-0.86-1.18-1.766-2.208-2.691-3.059c-0.438-0.401-0.466-1.08-0.065-1.517   c0.403-0.435,1.082-0.464,1.516-0.064c1.03,0.946,2.032,2.081,2.976,3.373c0.348,0.479,0.243,1.151-0.235,1.501   C426.578,158.672,426.356,158.739,426.135,158.739z M407.556,154.255c-0.325,0-0.644-0.146-0.856-0.424   c-0.359-0.472-0.268-1.143,0.201-1.503c0.069-0.051,1.697-1.282,4.222-2.013c0.564-0.163,1.164,0.164,1.33,0.733   c0.164,0.57-0.164,1.165-0.734,1.331c-2.116,0.612-3.502,1.647-3.515,1.658C408.009,154.184,407.782,154.255,407.556,154.255z    M419.787,153.088c-0.157,0-0.317-0.035-0.466-0.107c-1.204-0.58-2.458-0.924-3.733-1.021c-0.591-0.045-1.034-0.562-0.988-1.152   c0.044-0.595,0.615-1.037,1.151-0.989c1.544,0.118,3.058,0.532,4.501,1.229c0.535,0.257,0.759,0.9,0.501,1.434   C420.569,152.865,420.185,153.088,419.787,153.088z"/>
	<g>
		<path style="fill:#E9B600;" d="M97.023,363.352c0,0,331.36-2.733,337.074,0c5.713,2.733,38.564,94.282,35.707,98.382    c-2.857,4.099-409.916,2.733-409.916-2.733S97.023,363.352,97.023,363.352z"/>
		<path style="fill:#1A1F36;" d="M165.946,380.551c0,0,188.991-2.46,193.286,2.46s20.402,73.792,15.033,72.562    c-5.369-1.23-219.057,2.46-222.279-3.69C148.765,445.733,165.946,380.551,165.946,380.551z"/>
		<g>
			<path style="fill:#52AFA6;" d="M194.303,413.28c0,0,24.774-30.66,49.75-30.66c52.642,0,67.683,21.982,67.683,21.982     s12.148-22.561,27.767-14.462c0,0-10.413,18.512-19.669,24.296c0,0,19.669,1.157,26.61,13.884c0,0-24.296,6.942-34.709-3.471     C311.736,424.85,240.582,471.129,194.303,413.28z"/>
			<path style="fill:#E17B8D;" d="M243.475,391.297l2.892,44.543c0,0,28.924,9.834,63.634-24.296     C310.001,411.544,303.637,390.14,243.475,391.297z"/>
			<path style="fill:#FBFCFF;" d="M252.73,411.461c-0.587,0-1.065-0.472-1.074-1.06c-0.008-0.592,0.468-1.08,1.059-1.087     l44.544-0.578c0.006,0,0.01,0,0.015,0c0.587,0,1.065,0.472,1.074,1.06c0.008,0.592-0.468,1.08-1.059,1.087l-44.544,0.578     C252.738,411.461,252.734,411.461,252.73,411.461z"/>
			<path style="fill:#FBFCFF;" d="M262.566,425.345c-0.027,0-0.055-0.001-0.082-0.003c-0.591-0.044-1.034-0.559-0.992-1.15     c0.013-0.153,1.101-15.513-2.255-25.016c-0.197-0.559,0.096-1.172,0.656-1.371c0.547-0.197,1.172,0.095,1.37,0.655     c3.505,9.933,2.418,25.244,2.372,25.891C263.594,424.915,263.122,425.345,262.566,425.345z"/>
			<path style="fill:#FBFCFF;" d="M283.39,421.874c-0.176,0-0.352-0.043-0.518-0.133c-0.52-0.285-0.709-0.939-0.424-1.458     c5.919-10.761-2.645-20.058-2.733-20.151c-0.407-0.432-0.386-1.112,0.046-1.518c0.432-0.405,1.112-0.387,1.518,0.046     c0.099,0.104,9.713,10.543,3.052,22.657C284.135,421.673,283.767,421.874,283.39,421.874z"/>
			<path style="fill:#241726;" d="M229.012,412.619c-0.296,0-0.591-0.122-0.803-0.361l-9.255-10.413     c-0.394-0.443-0.352-1.122,0.09-1.515c0.44-0.395,1.122-0.357,1.516,0.089l9.255,10.413c0.394,0.443,0.352,1.122-0.09,1.515     C229.521,412.529,229.265,412.619,229.012,412.619z"/>
			<path style="fill:#241726;" d="M218.601,412.04c-0.298,0-0.596-0.124-0.807-0.367c-0.392-0.446-0.346-1.124,0.101-1.515     l9.255-8.099c0.445-0.389,1.124-0.348,1.514,0.102c0.392,0.446,0.346,1.124-0.101,1.515l-9.255,8.099     C219.104,411.953,218.852,412.04,218.601,412.04z"/>
			<path style="fill:#241726;" d="M215.13,423.609c-0.325,0-0.648-0.148-0.86-0.43c-4.499-5.997-8.781-3.334-8.964-3.217     c-0.495,0.32-1.16,0.185-1.483-0.31c-0.325-0.494-0.193-1.154,0.298-1.481c0.063-0.039,6.118-3.943,11.869,3.721     c0.354,0.474,0.258,1.147-0.216,1.503C215.581,423.539,215.354,423.609,215.13,423.609z"/>
		</g>
		<g>
			<path style="fill:#FFFFFF;" d="M109.245,370.25c0,0,15.132-0.976,15.621,0.366c0.488,1.342,11.838,31.119,8.787,33.56     c-3.051,2.441-25.872,2.929-30.021,0.488C99.482,402.224,108.147,369.64,109.245,370.25z"/>
			<path style="fill:#1A1F36;" d="M104.608,358.779c0,0,22.356-2.781,23.83,0.167s-2.098,9.459-3.572,11.67     c0,0-10.802,1.598-14.856,0.861S97.974,359.148,104.608,358.779z"/>
			<path style="fill:#FFFFFF;" d="M108.948,360.933c0,0,1.962-0.687,2.649,0.392c0.687,1.079-1.374,1.864-2.453,1.177     S107.869,361.031,108.948,360.933z"/>
			<path style="fill:#FFFFFF;" d="M115.05,359.591c0,0,1.962-0.687,2.649,0.392c0.687,1.079-1.374,1.864-2.453,1.177     S113.971,359.689,115.05,359.591z"/>
			<path style="fill:#FFFFFF;" d="M111.877,363.862c0,0,1.962-0.687,2.649,0.392c0.687,1.079-1.374,1.864-2.453,1.177     S110.798,363.96,111.877,363.862z"/>
			<path style="fill:#FFFFFF;" d="M118.589,364.106c0,0,1.962-0.687,2.649,0.392c0.687,1.079-1.374,1.864-2.453,1.177     S117.51,364.204,118.589,364.106z"/>
			<path style="fill:#FFFFFF;" d="M121.518,361.421c0,0,1.962-0.687,2.649,0.392c0.687,1.079-1.374,1.864-2.453,1.177     C120.635,362.304,120.439,361.519,121.518,361.421z"/>
			<path style="fill:#241726;" d="M128.826,396.842c-0.457,0-0.879-0.293-1.023-0.751c-1.416-4.479-5.075-18.877-5.231-19.487     c-0.147-0.575,0.201-1.159,0.776-1.305c0.577-0.153,1.16,0.202,1.305,0.776c0.038,0.149,3.8,14.947,5.197,19.369     c0.178,0.565-0.134,1.168-0.701,1.346C129.042,396.826,128.933,396.842,128.826,396.842z"/>
		</g>
		<g>
			<path style="fill:#E17B8D;" d="M434.203,358.181c-0.895-0.537-64.429,0.895-64.429,0.895s-6.916,25.627,19.831,32.304     c-0.546,4.674-1.069,10.508-0.323,10.828c1.253,0.537,22.55,0.537,23.087,0.537c0.365,0,0.398-5.952,0.045-10.609     C439.097,386.949,434.979,358.647,434.203,358.181z"/>
			<path style="fill:#1A1F36;" d="M376.755,363.193c0,0,52.438-4.295,53.512,0.358c1.074,4.653-10.022,11.454-26.129,13.423     S369.775,364.982,376.755,363.193z"/>
			<path style="fill:#241726;" d="M402.337,395.793c-5.531,0-10.461-1.949-10.772-2.074c-0.552-0.222-0.816-0.847-0.596-1.397     c0.222-0.552,0.854-0.815,1.397-0.596c0.107,0.043,10.69,4.219,17.477,0.08c0.501-0.311,1.166-0.149,1.474,0.358     c0.308,0.506,0.149,1.167-0.357,1.475C408.308,395.256,405.24,395.793,402.337,395.793z"/>
			<path style="fill:#FBFCFF;" d="M401.798,372.2c-0.141,0-0.281-0.002-0.422-0.007c-7.38-0.237-14.784-5.728-15.094-5.962     c-0.474-0.355-0.57-1.028-0.216-1.503c0.359-0.474,1.032-0.565,1.504-0.216c0.071,0.053,7.179,5.319,13.874,5.535     c2.877,0.081,5.111-0.922,7.536-1.992c3.412-1.507,6.938-3.063,12.03-1.648c0.57,0.159,0.906,0.751,0.747,1.322     c-0.157,0.57-0.745,0.905-1.321,0.748c-4.354-1.212-7.382,0.128-10.587,1.544C407.417,371.092,404.906,372.2,401.798,372.2z"/>
		</g>
		<g>
			<path style="fill:#B1739A;" d="M64.741,424.082c0,0-4.921-13.506,11.304-21.033c16.225-7.526,19.36,14.113,41.177,8.501     s37.565,10.272,23.921,33.861C127.498,469,75.099,442.178,64.741,424.082z"/>
			<path style="fill:#241726;" d="M108.724,419.902c-14.7,0-21.042-9.861-21.12-9.984c-0.312-0.502-0.159-1.163,0.344-1.477     c0.505-0.317,1.166-0.16,1.479,0.34c0.35,0.558,8.851,13.608,30.13,7.273c0.577-0.172,1.166,0.155,1.336,0.723     c0.168,0.568-0.155,1.166-0.724,1.335C115.899,419.384,112.09,419.902,108.724,419.902z"/>
			<path style="fill:#52AFA6;" d="M56.317,403.654c0,0,5.99-8.899,8.509-7.348s2.045,8.89,4.886,10.012s6.8-3.275,8.836-2.42     c2.037,0.855-4.331,7.129-4.331,7.129s9.379,4.007,6.649,6.314c-2.729,2.306-11.409,0.495-11.409,0.495s-3.095,3.297-5.138,4.184     c-2.043,0.887-1.398-4.391,0.525-9.643C65.764,409.861,55.141,406.12,56.317,403.654z"/>
		</g>
		<g>
			<path style="fill:#52AFA6;" d="M424.932,426.208c0,0,1.595-3.888,6.513-2.908c4.918,0.98,12.853,6.311,10.649-1.601     c-2.204-7.912-7.251-6.997-7.251-6.997s7.684-1.649,3.369-5.366c-4.315-3.717-7.368-1.336-7.368-1.336s3.469-4.027-3.711-6.454     s-6.741,3.463-6.741,3.463s2.427-7.18-4.335-3.984s4.258,10.182,2.147,14.377c-2.11,4.195-5.511,5.525-3.993,7.835     C415.73,425.547,422.05,434.498,424.932,426.208z"/>
			<path style="fill:#241726;" d="M421.016,423.278c-0.113,0-0.231-0.018-0.346-0.057c-0.564-0.186-0.862-0.811-0.675-1.374     c0.663-2.002,6.097-3.749,9.278-4.611c0.579-0.159,1.162,0.185,1.317,0.755c0.155,0.573-0.182,1.162-0.755,1.317     c-3.758,1.02-7.41,2.539-7.817,3.249C421.872,423.004,421.461,423.278,421.016,423.278z"/>
			<path style="fill:#241726;" d="M419.537,420.663c-0.338,0-0.673-0.16-0.881-0.46c-0.34-0.487-0.22-1.156,0.268-1.494     c1.844-1.284,2.676-6.425,2.768-9.364c0.021-0.591,0.432-1.117,1.107-1.039c0.591,0.018,1.057,0.513,1.04,1.105     c-0.027,0.888-0.363,8.745-3.691,11.06C419.963,420.601,419.749,420.663,419.537,420.663z"/>
		</g>
		<g>
			<path style="fill:#52AFA6;" d="M422.721,449.042c0,0,4.077-1.015,6.199,3.529s2.52,14.095,7.592,7.636     c5.073-6.459,1.349-9.986,1.349-9.986s5.877,5.218,6.319-0.46c0.442-5.678-3.284-6.729-3.284-6.729s5.299,0.413,3.006-6.811     c-2.293-7.223-6.781-3.384-6.781-3.384s7.223-2.293,0.646-5.852c-6.577-3.559-5.687,9.458-10.318,10.24s-7.715-1.172-8.678,1.418     C417.808,441.234,414.333,451.625,422.721,449.042z"/>
			<path style="fill:#241726;" d="M431.853,449.144c-0.235,0-0.472-0.077-0.669-0.234c-3.049-2.427-6.399-4.484-7.246-4.377     c-0.56,0.177-1.151-0.132-1.334-0.696s0.145-1.173,0.709-1.356c2.028-0.656,6.634,2.697,9.209,4.749     c0.464,0.369,0.541,1.044,0.172,1.509C432.48,449.005,432.167,449.144,431.853,449.144z"/>
			<path style="fill:#241726;" d="M426.121,442.036c-0.568,0-1.107-0.074-1.604-0.243c-0.56-0.192-0.86-0.802-0.669-1.363     c0.193-0.561,0.812-0.862,1.363-0.669c2.127,0.73,6.762-1.645,9.186-3.311c0.487-0.333,1.158-0.211,1.493,0.277     c0.336,0.489,0.212,1.157-0.277,1.493C434.975,438.659,429.942,442.036,426.121,442.036z"/>
		</g>
		<g>
			<path style="fill:#52AFA6;" d="M401.232,434.971c0,0-1.642-3.868,2.513-6.676c4.155-2.808,13.526-4.7,6.35-8.696     c-7.175-3.997-10.074,0.234-10.074,0.234s4.231-6.623-1.445-6.169s-6.131,4.299-6.131,4.299s-0.424-5.298-7.198-1.9     c-6.774,3.398-2.278,7.228-2.278,7.228s-3.398-6.774-5.881,0.28c-2.483,7.054,10.233,4.133,11.731,8.583s0.053,7.803,2.762,8.348     C394.291,441.048,405.099,442.85,401.232,434.971z"/>
			<path style="fill:#241726;" d="M395.637,436.015c-0.398,0-0.786-0.223-0.977-0.601c-0.956-1.879,1.623-6.97,3.244-9.837     c0.296-0.518,0.946-0.696,1.464-0.406c0.516,0.292,0.698,0.947,0.407,1.463c-1.917,3.389-3.406,7.053-3.188,7.842     c0.268,0.529,0.05,1.158-0.478,1.426C395.958,435.979,395.796,436.015,395.637,436.015z"/>
			<path style="fill:#241726;" d="M392.734,435.224c-0.061,0-0.124-0.005-0.187-0.016c-0.583-0.102-0.975-0.658-0.872-1.242     c0.384-2.213-2.687-6.42-4.711-8.553c-0.409-0.43-0.392-1.109,0.038-1.517c0.428-0.407,1.107-0.392,1.518,0.038     c0.612,0.644,5.963,6.407,5.268,10.399C393.699,434.856,393.246,435.224,392.734,435.224z"/>
		</g>
		<g>
			<g>
				<path style="fill:#E38B72;" d="M330.239,230.139c-2.148-14.318-29.172-3.758-35.436-13.96c-0.866-1.41-4.28-19.275-6.289-30.072      c6.43-3.953,10.36-8.763,12.769-13.286c0.576,0.353,1.236,0.648,2,0.868c11.767,3.389,21.694-11.671,19.573-24.761      c-1.351-8.336-8.943-5.669-14.283-2.633c4.865-17.882,11.265-50.515-5.462-54.426c0,0-46.875-24.625-67.146-2.968      c-5.413,5.784-10.808,22.157-13.577,38.783c-3.457-3.996-8.032-6.843-11.988-1.116c-7.537,10.911-5.039,28.774,7.043,30.767      c1.35,0.223,2.519,0.113,3.544-0.232c2.907,23.703,17.321,32.767,29.338,35.729c1.01,9.935,1.89,20.085,1.525,22.273      c-0.757,4.543-35.161,8.977-43.489,15.033c-8.328,6.057,4.832,67.113,27.919,75.167c13.75,4.797,51.07,10.702,77.314-4.295      C324.87,294.568,334.561,258.953,330.239,230.139z"/>
				<path style="fill:#241726;" d="M220.195,147.846c-0.48,0-0.919-0.324-1.04-0.81c-1.351-5.33-3.375-10.363-4.331-10.772      c-0.01-0.001-0.021-0.001-0.029-0.001c-0.673,0-2.089,2.61-2.842,5.356c-0.157,0.572-0.738,0.915-1.319,0.752      c-0.573-0.156-0.908-0.747-0.753-1.318c0.47-1.717,2.271-7.283,5.26-6.908c2.664,0.336,4.962,7.89,6.095,12.363      c0.147,0.575-0.201,1.159-0.776,1.305C220.371,147.835,220.281,147.846,220.195,147.846z"/>
			</g>
			<path style="fill:#241726;" d="M280.462,157.335c-0.447,0-0.847-0.174-1.141-0.498c-1.678-1.854-0.338-11.478,0.61-17.05     c0.101-0.585,0.667-0.976,1.239-0.878c0.585,0.099,0.977,0.653,0.879,1.238c-1.009,5.92-1.711,12.862-1.267,14.856     c1.764-1.156,6.38-7.049,10.019-12.377c0.336-0.49,1.003-0.61,1.493-0.281c0.489,0.335,0.615,1.004,0.281,1.493     c-3.391,4.964-9.459,13.319-11.996,13.492C280.54,157.334,280.5,157.335,280.462,157.335z"/>
			<path style="fill:#241726;" d="M242.292,149.813c-0.512,0-0.963-0.288-1.216-0.783c-1.195-2.338-3.375-15.407-3.618-16.888     c-0.096-0.585,0.3-1.138,0.885-1.234c0.575-0.105,1.137,0.299,1.233,0.884c0.801,4.853,2.143,12.133,3.01,15.128     c1.422-2.309,4.115-8.649,6.206-14.272c0.208-0.555,0.826-0.839,1.382-0.632c0.556,0.207,0.837,0.825,0.631,1.381     c-6.055,16.277-7.72,16.374-8.433,16.415C242.344,149.812,242.319,149.813,242.292,149.813z"/>
			<path style="fill:#241726;" d="M305.336,164.042c-0.241,0-0.484-0.081-0.686-0.247c-0.455-0.378-0.52-1.055-0.141-1.511     c2.945-3.553,8.265-9.394,10.811-8.547c2.894,0.955,2.097,6.746,1.785,8.497c-0.105,0.584-0.656,0.978-1.246,0.868     c-0.583-0.104-0.973-0.662-0.868-1.246c0.505-2.844,0.336-5.857-0.344-6.081c-0.912,0.045-4.977,3.645-8.486,7.878     C305.95,163.91,305.644,164.042,305.336,164.042z"/>
			<circle style="fill:#DF4F3E;" cx="287.596" cy="168.815" r="8.093"/>
			<circle style="fill:#DF4F3E;" cx="234.9" cy="161.006" r="8.093"/>
			<path style="fill:#241726;" d="M263.604,161.977c-0.128,0-0.26-0.023-0.388-0.072c-1.724-0.666-6.615-2.446-8.511-2.682     c-0.472-0.059-0.864-0.324-1.109-0.748c-1.323-2.293,3.2-13.794,6.015-20.444c0.233-0.548,0.858-0.798,1.409-0.57     c0.545,0.231,0.801,0.861,0.57,1.407c-3.129,7.394-6.235,16.162-6.153,18.298c2.766,0.508,8.305,2.64,8.555,2.737     c0.552,0.214,0.826,0.835,0.615,1.388C264.441,161.716,264.034,161.977,263.604,161.977z"/>
			<path style="fill:#241726;" d="M257.681,179.43c-0.153,0-0.304-0.009-0.457-0.029c-3.159-0.413-5.197-4.704-6.418-13.504     c-0.082-0.587,0.329-1.13,0.917-1.211c0.568-0.094,1.13,0.327,1.21,0.915c1.411,10.179,3.666,11.553,4.57,11.67     c2.536,0.339,6.703-6.407,8.762-11.314c0.229-0.545,0.862-0.804,1.405-0.574c0.547,0.23,0.805,0.859,0.575,1.406     C267.339,168.948,262.675,179.43,257.681,179.43z"/>
			<path style="fill:#241726;" d="M261.392,194.575c-7.867,0-17.508-1.413-23.729-7.253c-0.434-0.407-0.455-1.086-0.048-1.518     c0.405-0.434,1.088-0.451,1.516-0.048c10.99,10.317,34.735,5.537,34.972,5.485c0.57-0.113,1.147,0.252,1.269,0.834     c0.122,0.581-0.252,1.149-0.833,1.27C274.059,193.444,268.434,194.575,261.392,194.575z"/>
			<path style="fill:#B1739A;" d="M252.43,70.035c0,0-19.523-9.164-29.086,11.953c-9.563,21.117-2.789,43.031,2.391,47.414     s29.883-39.445,29.883-39.445s-10.359,19.523-1.195,32.273c9.164,12.75,23.508-24.703,23.508-24.703s-4.781,24.703-1.195,30.68     s23.906-14.742,23.906-14.742s0.797,27.492,4.383,32.672s26.715,3.121,33.09-25.168S313.774,39.359,252.43,70.035z"/>
			<path style="fill:#DF4F3E;" d="M395.384,229.781c-2.634-7.904-79.775-10.834-92.096-11.253c-5.088-1.425-8.484-2.349-8.484-2.349     s-18.255,30.783-28.277,27.919c-10.022-2.863-21.476-25.771-21.476-25.771s-10.335,0.432-20.378,1.53     c-21.003,1.595-81.277,18.026-83.904,20.653c0,0,15.514,65.869,21.241,68.733c4.873,2.437,16.672,1.595,29.312-0.596     c-3.726,28.294-5.988,53.063-3.54,54.287c5.727,2.864,145.859,3.4,155.881,1.969c5.627-0.804,7.215-38.468,8.36-75.406     c15.215,2.361,32.146,3.282,36.203,3.282C395.384,292.778,398.247,238.372,395.384,229.781z"/>
			<path style="fill:#E17B8D;" d="M236.057,259.497c0,0,69.911-2.609,73.563-0.522c3.652,2.087,21.912,41.216,23.999,45.39     c2.087,4.174,1.565,54.781-1.043,57.911s-123.766,7.56-124.751,1.552c-0.985-6.008,1.624-59.985,3.189-65.724     S236.057,259.497,236.057,259.497z"/>
			<path style="fill:#FBFCFF;" d="M236.056,260.571c-0.382,0-0.753-0.206-0.946-0.566c-7.945-14.832-0.908-38.431-0.604-39.428     c0.172-0.566,0.763-0.887,1.34-0.715c0.566,0.173,0.887,0.773,0.715,1.34c-0.071,0.236-7.08,23.748,0.44,37.789     c0.281,0.522,0.084,1.173-0.438,1.453C236.402,260.53,236.228,260.571,236.056,260.571z"/>
			<path style="fill:#FBFCFF;" d="M309.619,260.05c-0.09,0-0.182-0.012-0.273-0.036c-0.575-0.151-0.917-0.738-0.766-1.312     c5.063-19.236-3.507-38.744-3.593-38.939c-0.243-0.541,0-1.177,0.541-1.419c0.537-0.24,1.174-0.001,1.418,0.542     c0.369,0.823,8.964,20.4,3.71,40.363C310.531,259.731,310.095,260.05,309.619,260.05z"/>
			<path style="fill:#241726;" d="M324.751,362.307c-0.017,0-0.036,0-0.052-0.001c-0.594-0.029-1.049-0.534-1.019-1.126     c1.248-25.223,1.741-53.307,0.195-55.672c-0.789-1.104-2.93-4.558-5.642-8.932c-5.434-8.766-15.551-25.082-17.403-26.189     c-3.796-1.269-54.687-2.631-57.782-0.723c-0.216,0.301-1.042,1.247-2.208,2.581c-5.589,6.395-22.598,25.854-23.014,31.675     c-0.516,7.2-2.07,56.33-2.085,56.825c-0.019,0.592-0.531,1.101-1.107,1.039c-0.594-0.018-1.059-0.514-1.04-1.106     c0.017-0.496,1.571-49.669,2.089-56.911c0.415-5.796,12.798-20.646,23.54-32.936c1.137-1.299,1.94-2.218,2.257-2.614     c0.518-0.648,1.718-2.165,30.144-1.51c11.47,0.264,28.292,1.004,30.048,1.706c1.841,0.737,7.397,9.304,18.387,27.031     c2.691,4.34,4.817,7.768,5.568,8.819c2.687,3.766,0.635,48.162,0.197,57.024C325.795,361.86,325.321,362.307,324.751,362.307z"/>
			<g>
				<path style="fill:#1A1F36;" d="M409.911,308.999c0,0-37.576,10.248-38.26,12.981s4.782,15.031,4.782,15.031      s41.676-6.149,44.408-10.248S413.327,305.583,409.911,308.999z"/>
				<path style="fill:#E38B72;" d="M488.447,256.984c-10.14-13.943-92.784-22.189-92.784-22.189s2.424,26.165-2.988,47.817      c-0.23,0.92,19.89,5.87,19.89,5.87l-3.789,3.368c-1.344,0.175-2.758,0.402-4.33,0.751c0,0-22.546,8.199-26.645,18.447      c-4.099,10.248,6.149,30.061,10.931,28.695c2.049-0.585,3.091-1.924,3.617-3.262c0.224,1.458,1.284,2.531,4.582,1.212      c6.832-2.733,6.149-6.149,6.149-6.149s1.419,9.835,9.048-0.844c1.088-1.524-3.403-13.734-0.042-21.941      c2.3,2.143,4.541,4.623,6.337,7.417C420.491,319.395,499.901,272.734,488.447,256.984z"/>
				<path style="fill:#FFFFFF;" d="M371.652,321.98c0,0-113.412,23.229-112.729,24.595c0.683,1.366,10.248,16.397,40.992,23.912      s79.935-11.615,80.618-13.664C381.216,354.774,371.652,321.98,371.652,321.98z"/>
				<path style="fill:#241726;" d="M284.432,366.137c-0.122,0-0.243-0.021-0.363-0.064c-0.558-0.2-0.847-0.815-0.648-1.373      c0.143-0.398,3.591-9.804,11.111-12.812c3.893-1.56,7.169,0.967,10.633,3.641c3.744,2.887,7.609,5.873,12.854,4.479      c5.013-1.337,5.052-3.59,5.113-6.998c0.052-2.929,0.117-6.573,4.176-9.524c5.256-3.827,9.74-0.432,13.697,2.562      c2.716,2.054,5.524,4.18,8.628,4.34c4.302,0.231,4.681-0.838,5.69-3.673c0.753-2.118,1.783-5.018,4.948-8.183      c7.829-7.826,14.339-1.496,14.404-1.432c0.419,0.419,0.419,1.099,0,1.518c-0.417,0.418-1.095,0.421-1.516,0.003      c-0.212-0.208-5.099-4.844-11.369,1.429c-2.821,2.822-3.721,5.351-4.442,7.383c-1.191,3.353-2.167,5.381-7.827,5.1      c-3.76-0.195-6.837-2.523-9.811-4.773c-4.446-3.363-7.359-5.286-11.139-2.538c-3.192,2.322-3.24,4.995-3.291,7.825      c-0.061,3.412-0.13,7.28-6.707,9.034c-6.26,1.671-10.757-1.794-14.719-4.853c-3.096-2.387-5.768-4.455-8.525-3.346      c-6.615,2.646-9.855,11.455-9.887,11.543C285.286,365.864,284.873,366.137,284.432,366.137z"/>
				<path style="fill:#241726;" d="M404.611,336.07c-0.275,0-0.549-0.105-0.759-0.315c-4.876-4.877-3.07-20.365-2.991-21.022      c0.071-0.589,0.617-1,1.193-0.937c0.589,0.071,1.009,0.606,0.937,1.195c-0.503,4.187-1.059,15.808,2.378,19.246      c0.419,0.419,0.419,1.099,0,1.518C405.16,335.965,404.886,336.07,404.611,336.07z"/>
				<path style="fill:#241726;" d="M397.363,336.338c-0.321,0-0.64-0.144-0.852-0.419c-5.673-7.375-1.407-18.559-1.223-19.031      c0.216-0.554,0.841-0.824,1.391-0.61c0.552,0.215,0.824,0.838,0.61,1.391c-0.04,0.104-4.006,10.533,0.925,16.942      c0.361,0.47,0.273,1.144-0.197,1.506C397.822,336.266,397.591,336.338,397.363,336.338z"/>
				<path style="fill:#241726;" d="M391.457,338.754c-0.275,0-0.549-0.105-0.759-0.315c-5.914-5.914-5.178-18.036-5.145-18.548      c0.04-0.594,0.57-1.015,1.143-1c0.591,0.04,1.038,0.552,1,1.143c-0.008,0.115-0.703,11.665,4.52,16.887      c0.419,0.419,0.419,1.099,0,1.518C392.006,338.649,391.732,338.754,391.457,338.754z"/>
			</g>
			<path style="fill:#241726;" d="M192.33,309.454c-0.501,0-0.948-0.352-1.051-0.863c-0.896-4.479,5.837-41.582,6.606-45.797     c0.107-0.585,0.673-0.978,1.25-0.863c0.583,0.106,0.969,0.666,0.864,1.249c-2.997,16.394-7.231,41.905-6.615,44.99     c0.117,0.582-0.26,1.147-0.843,1.264C192.473,309.448,192.401,309.454,192.33,309.454z"/>
			<path style="fill:#241726;" d="M350.109,308.573c-0.096,0-0.197-0.014-0.296-0.041c-0.57-0.164-0.9-0.758-0.736-1.328     c2.552-8.933-3.06-48.953-3.117-49.356c-0.084-0.587,0.325-1.13,0.912-1.213c0.596-0.088,1.133,0.325,1.214,0.913     c0.235,1.664,5.732,40.879,3.054,50.246C351.006,308.266,350.577,308.573,350.109,308.573z"/>
			<path style="fill:#241726;" d="M233.76,104.08c-0.476,0-0.912-0.319-1.038-0.8c-2.418-9.189-1.9-16.702,1.539-22.328     c3.995-6.539,10.453-8.022,10.726-8.082c0.587-0.122,1.149,0.239,1.277,0.816c0.128,0.578-0.237,1.151-0.814,1.281     c-0.059,0.013-5.877,1.378-9.379,7.138c-3.102,5.106-3.532,12.046-1.273,20.627c0.151,0.574-0.191,1.161-0.766,1.312     C233.942,104.068,233.85,104.08,233.76,104.08z"/>
			<path style="fill:#241726;" d="M264.607,108.487c-0.503,0-0.952-0.355-1.053-0.869c-2.433-12.516-1.273-21.633,3.446-27.101     c4.53-5.25,10.633-5.035,10.881-5.026c0.591,0.027,1.049,0.526,1.023,1.118c-0.025,0.59-0.549,1.059-1.118,1.028     c-0.027,0.007-5.344-0.168-9.186,4.314c-4.245,4.95-5.233,13.448-2.936,25.259c0.113,0.582-0.268,1.145-0.849,1.258     C264.745,108.481,264.676,108.487,264.607,108.487z"/>
			<path style="fill:#241726;" d="M287.528,112.454c-0.214,0-0.43-0.063-0.619-0.196c-0.484-0.341-0.6-1.011-0.26-1.495     c8.039-11.425,6.005-27.726,5.981-27.889c-0.078-0.588,0.338-1.127,0.925-1.205c0.568-0.081,1.128,0.335,1.206,0.924     c0.092,0.702,2.16,17.302-6.355,29.405C288.197,112.296,287.866,112.454,287.528,112.454z"/>
			<path style="fill:#241726;" d="M306.477,115.538c-0.101,0-0.203-0.015-0.306-0.044c-0.568-0.17-0.891-0.768-0.724-1.336     c4.702-15.809,3.077-24.965,3.06-25.055c-0.109-0.582,0.275-1.144,0.856-1.253c0.57-0.114,1.143,0.271,1.254,0.853     c0.073,0.389,1.758,9.7-3.11,26.068C307.368,115.237,306.94,115.538,306.477,115.538z"/>
			<path style="fill:#241726;" d="M311.766,140.219c-0.359,0-0.709-0.179-0.912-0.507c-0.312-0.503-0.159-1.166,0.344-1.479     c18.966-11.8,11.063-47.85,10.981-48.212c-0.132-0.579,0.231-1.154,0.81-1.285c0.579-0.133,1.154,0.234,1.284,0.811     c0.35,1.543,8.309,37.911-11.94,50.509C312.156,140.167,311.961,140.219,311.766,140.219z"/>
			<g>
				<path style="fill:#241726;" d="M366.818,232.398c-0.398,0-0.78-0.222-0.967-0.605c-0.023-0.047-0.786-1.542-2.108-1.801      c-0.904-0.186-1.955,0.258-3.121,1.288c-0.44,0.39-1.122,0.352-1.514-0.093c-0.394-0.444-0.352-1.122,0.092-1.515      c1.703-1.505,3.377-2.107,4.979-1.782c2.385,0.481,3.557,2.868,3.605,2.969c0.258,0.535,0.034,1.177-0.501,1.433      C367.132,232.364,366.975,232.398,366.818,232.398z"/>
				<path style="fill:#241726;" d="M373.785,242.958c-0.398,0-0.78-0.222-0.967-0.605c-0.023-0.047-0.786-1.542-2.108-1.801      c-0.908-0.181-1.955,0.257-3.121,1.288c-0.443,0.389-1.122,0.351-1.514-0.093c-0.394-0.444-0.352-1.122,0.092-1.515      c1.701-1.506,3.377-2.107,4.979-1.782c2.385,0.481,3.557,2.868,3.605,2.969c0.258,0.535,0.034,1.177-0.501,1.434      C374.1,242.924,373.942,242.958,373.785,242.958z"/>
				<path style="fill:#241726;" d="M362.252,239.799c-0.398,0-0.78-0.222-0.967-0.605c-0.023-0.047-0.786-1.542-2.108-1.802      c-0.902-0.171-1.953,0.255-3.123,1.288c-0.443,0.39-1.118,0.35-1.516-0.093c-0.392-0.444-0.35-1.123,0.094-1.515      c1.705-1.508,3.389-2.101,4.981-1.782c2.385,0.482,3.557,2.869,3.605,2.97c0.258,0.535,0.034,1.177-0.501,1.434      C362.567,239.766,362.409,239.799,362.252,239.799z"/>
				<path style="fill:#241726;" d="M344.18,229.941c-0.398,0-0.78-0.222-0.967-0.605c-0.023-0.047-0.789-1.543-2.108-1.802      c-0.902-0.172-1.955,0.254-3.121,1.288c-0.44,0.389-1.122,0.353-1.514-0.093c-0.394-0.444-0.352-1.122,0.092-1.515      c1.701-1.506,3.379-2.105,4.979-1.782c2.385,0.481,3.557,2.869,3.605,2.97c0.258,0.535,0.034,1.177-0.501,1.433      C344.494,229.907,344.337,229.941,344.18,229.941z"/>
				<path style="fill:#241726;" d="M354.494,228.204c-0.398,0-0.78-0.222-0.967-0.605c-0.023-0.047-0.789-1.542-2.108-1.801      c-0.906-0.178-1.955,0.255-3.121,1.287c-0.443,0.388-1.12,0.351-1.516-0.093c-0.392-0.444-0.35-1.122,0.094-1.515      c1.701-1.505,3.379-2.1,4.979-1.782c2.385,0.482,3.557,2.869,3.605,2.97c0.258,0.535,0.034,1.177-0.501,1.434      C354.809,228.171,354.652,228.204,354.494,228.204z"/>
				<path style="fill:#241726;" d="M344.115,234.911c-0.294,0-0.585-0.12-0.797-0.354c-0.398-0.44-0.363-1.119,0.078-1.516      c2.164-1.956,4.142-2.753,5.904-2.37c2.039,0.448,2.865,2.331,2.901,2.411c0.233,0.545-0.021,1.177-0.566,1.409      c-0.539,0.235-1.168-0.017-1.405-0.555c-0.013-0.029-0.459-0.974-1.407-1.171c-1.013-0.217-2.395,0.432-3.987,1.87      C344.629,234.82,344.371,234.911,344.115,234.911z"/>
				<path style="fill:#241726;" d="M380.056,238.707c-0.491,0-0.933-0.339-1.049-0.837c-0.004-0.021-0.505-2.149-2.066-3.045      c-0.845-0.487-1.852-0.531-3.077-0.151c-0.57,0.184-1.168-0.139-1.346-0.705c-0.176-0.566,0.141-1.168,0.705-1.344      c1.818-0.568,3.433-0.448,4.807,0.348c2.378,1.379,3.047,4.307,3.075,4.432c0.128,0.577-0.237,1.147-0.814,1.276      C380.211,238.698,380.134,238.707,380.056,238.707z"/>
			</g>
			<g>
				<path style="fill:#241726;" d="M177.506,240.532c-0.157,0-0.317-0.035-0.468-0.108c-0.531-0.259-0.755-0.896-0.497-1.428      c0.048-0.101,1.221-2.487,3.605-2.97c1.59-0.319,3.278,0.274,4.981,1.782c0.445,0.392,0.487,1.071,0.094,1.515      c-0.398,0.445-1.078,0.482-1.516,0.093c-1.17-1.032-2.225-1.472-3.123-1.287c-1.334,0.262-2.101,1.787-2.11,1.802      C178.287,240.311,177.905,240.532,177.506,240.532z"/>
				<path style="fill:#241726;" d="M170.539,251.092c-0.157,0-0.317-0.035-0.468-0.108c-0.531-0.259-0.755-0.896-0.497-1.428      c0.048-0.101,1.221-2.487,3.605-2.97c1.59-0.318,3.278,0.275,4.981,1.782c0.445,0.392,0.487,1.071,0.094,1.515      c-0.398,0.446-1.076,0.483-1.516,0.093c-1.17-1.032-2.223-1.47-3.123-1.287c-1.334,0.262-2.101,1.787-2.11,1.802      C171.319,250.871,170.938,251.092,170.539,251.092z"/>
				<path style="fill:#241726;" d="M182.074,247.932c-0.157,0-0.317-0.035-0.468-0.108c-0.531-0.258-0.753-0.896-0.499-1.427      c0.05-0.102,1.221-2.487,3.605-2.97c1.592-0.32,3.278,0.274,4.981,1.782c0.445,0.392,0.487,1.072,0.094,1.515      c-0.398,0.446-1.076,0.483-1.516,0.093c-1.17-1.033-2.227-1.471-3.123-1.288c-1.334,0.262-2.099,1.786-2.108,1.802      C182.855,247.711,182.473,247.932,182.074,247.932z"/>
				<path style="fill:#241726;" d="M200.147,238.077c-0.157,0-0.315-0.034-0.466-0.106c-0.535-0.257-0.759-0.899-0.501-1.433      c0.048-0.101,1.221-2.487,3.605-2.969c1.602-0.327,3.278,0.276,4.979,1.782c0.445,0.393,0.487,1.072,0.092,1.515      c-0.394,0.446-1.076,0.482-1.514,0.093c-1.172-1.036-2.229-1.472-3.131-1.286c-1.33,0.268-2.089,1.78-2.097,1.795      C200.929,237.853,200.545,238.077,200.147,238.077z"/>
				<path style="fill:#241726;" d="M189.832,236.342c-0.157,0-0.315-0.034-0.466-0.106c-0.535-0.257-0.759-0.899-0.501-1.433      c0.048-0.101,1.221-2.488,3.605-2.97c1.604-0.322,3.278,0.277,4.979,1.782c0.445,0.393,0.487,1.072,0.092,1.515      c-0.394,0.445-1.074,0.482-1.514,0.093c-1.168-1.036-2.229-1.473-3.131-1.286c-1.328,0.268-2.089,1.781-2.097,1.796      C190.615,236.117,190.231,236.342,189.832,236.342z"/>
				<path style="fill:#241726;" d="M200.212,243.049c-0.256,0-0.514-0.091-0.719-0.277c-1.592-1.438-2.989-2.086-3.987-1.87      c-0.956,0.199-1.403,1.162-1.407,1.171c-0.243,0.535-0.875,0.779-1.414,0.545c-0.539-0.237-0.789-0.859-0.558-1.4      c0.036-0.08,0.862-1.963,2.901-2.411c1.758-0.387,3.739,0.415,5.904,2.37c0.44,0.397,0.476,1.077,0.078,1.516      C200.797,242.929,200.505,243.049,200.212,243.049z"/>
				<path style="fill:#241726;" d="M164.271,246.844c-0.078,0-0.155-0.008-0.235-0.026c-0.577-0.129-0.942-0.699-0.814-1.276      c0.027-0.125,0.696-3.054,3.075-4.433c1.374-0.795,2.987-0.915,4.807-0.348c0.564,0.176,0.881,0.778,0.705,1.344      c-0.178,0.564-0.774,0.883-1.346,0.705c-1.231-0.384-2.238-0.335-3.077,0.151c-1.56,0.897-2.062,3.025-2.066,3.046      C165.204,246.505,164.761,246.844,164.271,246.844z"/>
			</g>
			<path style="fill:#FBFCFF;" d="M188.897,338.595c-0.495,0-0.94-0.343-1.049-0.845c-0.126-0.58,0.241-1.151,0.82-1.278     c0.56-0.122,13.746-2.983,18.485-3.575c0.547-0.066,1.124,0.342,1.198,0.932c0.073,0.588-0.344,1.125-0.933,1.199     c-4.643,0.58-18.156,3.513-18.293,3.543C189.048,338.588,188.972,338.595,188.897,338.595z"/>
			<path style="fill:#FBFCFF;" d="M352.024,324.951c-0.052,0-0.107-0.004-0.159-0.012l-16.015-2.372     c-0.587-0.087-0.992-0.633-0.904-1.22c0.086-0.587,0.648-0.979,1.219-0.905l16.015,2.372c0.587,0.087,0.992,0.633,0.904,1.22     C353.005,324.568,352.546,324.951,352.024,324.951z"/>
			<path style="fill:#241726;" d="M411.133,292.42c-0.302,0-0.602-0.127-0.816-0.375c-0.386-0.45-0.333-1.127,0.117-1.513     c19.951-17.102,45.866-27.288,46.124-27.388c0.552-0.216,1.174,0.059,1.391,0.611c0.216,0.553-0.059,1.174-0.61,1.389     c-0.258,0.1-25.839,10.159-45.507,27.017C411.631,292.335,411.381,292.42,411.133,292.42z"/>
			<g>
				<path style="fill:#E38B72;" d="M172.031,341.457c0,0-44.384-30.067-32.93-37.225c11.454-7.159,16.465-8.59,16.465-8.59      c0-7.159-12.78-47.972-12.78-47.972s-60.239,20.769-70.261,47.972c-4.082,11.079,79.462,68.724,92.348,83.041      c12.886,14.317,17.892,33.54,20.044,24.34c2.153-9.2-8.59-24.34-8.59-24.34s12.26,30.73,15.124,23.571      c2.863-7.159-5.102-26.435-5.102-26.435s5.986,28.305,11.713,21.146c5.727-7.159-11.459-33.054-11.459-33.054      s14.984,10.137,16.307,3.085C203.645,363.074,172.031,341.457,172.031,341.457z"/>
				<path style="fill:#241726;" d="M146.32,322.134c-0.342,0-0.68-0.165-0.887-0.47c-8.706-12.801-21.984-25.842-22.116-25.972      c-0.424-0.415-0.432-1.095-0.017-1.518c0.413-0.423,1.093-0.43,1.518-0.017c0.134,0.132,13.561,13.318,22.389,26.299      c0.333,0.491,0.208,1.159-0.283,1.492C146.739,322.075,146.53,322.134,146.32,322.134z"/>
				<path style="fill:#241726;" d="M182.196,393.191c-0.44,0-0.854-0.274-1.011-0.713c-2.148-6.011-9.106-18.216-9.178-18.339      c-0.294-0.515-0.115-1.171,0.401-1.465c0.508-0.294,1.168-0.12,1.466,0.4c0.289,0.508,7.122,12.494,9.333,18.683      c0.199,0.558-0.09,1.172-0.65,1.372C182.437,393.172,182.316,393.191,182.196,393.191z"/>
				<path style="fill:#241726;" d="M189.688,392.75c-0.449,0-0.868-0.284-1.019-0.734c-1.724-5.174-8.702-20.453-8.773-20.606      c-0.245-0.54-0.008-1.177,0.531-1.423c0.531-0.245,1.174-0.012,1.424,0.53c0.287,0.632,7.095,15.538,8.857,20.82      c0.187,0.562-0.117,1.17-0.68,1.358C189.914,392.732,189.801,392.75,189.688,392.75z"/>
			</g>
		</g>
	</g>
</g>















</svg>
