<?xml version="1.0" encoding="UTF-8"?>
<!-- Generator: Adobe Illustrator 26.4.1, SVG Export Plug-In . SVG Version: 6.00 Build 0)  -->
<svg xmlns="http://www.w3.org/2000/svg" xmlns:xlink="http://www.w3.org/1999/xlink" version="1.1" id="Capa_1" x="0px" y="0px" viewBox="0 0 493.904 493.904" style="enable-background:new 0 0 493.904 493.904;" xml:space="preserve" width="512" height="512">
<g>
	<g>
		<path style="fill:#FFFFFF;" d="M328.61,50.316c0,0-1.848-15.599,13.075-10.365s9.853,19.428,4.202,14.474    c-5.651-4.953,5.287-21.361,16.661-13.843c11.374,7.518,8.622,21.782,0.472,22.731s5.142-16.583,15.248-5.516    s-12.53,30.706-21.586,23.259s-1.74-19.182,0.362-11.945c2.101,7.237-3.911,14.229-20.138,13.738    c-16.227-0.491-8.513-25.365-2.935-18.023s-3.947,15.423-15.285,6.711S320.641,45.293,328.61,50.316z"/>
		<path style="fill:#241726;" d="M338.495,83.912c-0.528,0-1.068-0.008-1.62-0.024c-5.32-0.161-9.029-2.936-10.288-7.649    c-2.794-0.391-5.728-1.721-8.534-3.877c-4.412-3.39-5.876-8.468-4.02-13.931c1.915-5.631,6.958-10.042,11.486-10.042    c0.684,0,1.344,0.095,1.976,0.285c0.01-2.156,0.388-5.815,2.589-8.291c2.489-2.801,6.552-3.305,11.945-1.411    c2.071,0.726,3.88,1.657,5.395,2.775c2.575-2.645,5.833-4.143,9.072-4.143c2.276,0,4.505,0.712,6.625,2.114    c4.916,3.249,7.862,8.185,8.04,13.373c2.875,0.124,5.59,1.502,7.876,4.006c3.121,3.417,3.665,7.96,1.535,12.791    c-3.253,7.378-12.109,13.851-18.95,13.852c-0.002,0-0.002,0-0.002,0c-2.197,0-4.081-0.632-5.598-1.88    c-0.709-0.583-1.348-1.211-1.909-1.876C350.613,82.557,345.246,83.912,338.495,83.912z M328.792,76.349    c0.891,2.635,3.056,5.306,8.144,5.46c8.68,0.263,13.476-1.675,15.965-3.516c-2.221-3.704-2.008-7.729-0.725-10.213    c0.747-1.448,1.821-2.278,2.948-2.278c0.761,0,2.154,0.392,2.918,3.018c1.052,3.626,0.191,7.145-2.361,9.797    c0.485,0.579,1.042,1.127,1.661,1.636c1.135,0.934,2.575,1.407,4.278,1.407l0,0c6.014-0.001,14.14-6.012,17.049-12.613    c1.259-2.852,2.077-6.997-1.167-10.55c-1.929-2.111-4.085-3.229-6.418-3.33c-0.554,4.971-3.72,8.687-7.943,9.178    c-2.709,0.318-3.641-1.112-3.685-2.437c-0.102-2.942,4.185-7.829,9.63-8.695c-0.138-4.534-2.747-8.879-7.11-11.763    c-4.29-2.833-9.263-2.074-12.96,1.644c3.476,3.397,4.093,7.536,3.092,10.284c-0.701,1.924-2.181,3.12-3.862,3.12l0,0    c-1.029,0.001-2.081-0.446-3.044-1.29c-3.119-2.734-2.03-7.978,0.869-11.876c-1.324-0.955-2.91-1.76-4.729-2.399    c-4.532-1.587-7.785-1.329-9.699,0.825c-2.605,2.925-2.008,8.382-2,8.437c0.045,0.397-0.14,0.787-0.479,1    c-0.343,0.214-0.774,0.212-1.109,0c-0.767-0.483-1.62-0.728-2.536-0.728c-3.63,0-7.9,3.872-9.516,8.632    c-1.553,4.566-0.343,8.8,3.318,11.613c2.288,1.758,4.639,2.9,6.875,3.351c-0.402-4.012,0.867-7.913,2.501-9.915    c0.918-1.123,1.98-1.717,3.074-1.717c0.77,0,1.921,0.306,3.029,1.764c1.969,2.594,2.396,5.498,1.169,7.968    C334.729,74.667,332.067,76.208,328.792,76.349z M355.124,67.881c-0.197,0-0.668,0.313-1.1,1.152    c-0.94,1.819-1.123,4.915,0.453,7.823c1.815-2.074,2.374-4.68,1.567-7.456C355.723,68.293,355.309,67.881,355.124,67.881z     M331.771,64.511c-0.441,0-0.96,0.338-1.462,0.952c-1.395,1.709-2.449,5.362-1.992,8.818c2.684-0.006,4.849-1.142,5.791-3.041    c0.861-1.737,0.51-3.846-0.964-5.787C332.816,65.023,332.313,64.511,331.771,64.511z M368.961,55.352    c-4.319,0.922-7.482,4.923-7.429,6.486c0.006,0.189,0.016,0.474,0.883,0.474c0.15,0,0.311-0.01,0.485-0.03    C366.023,61.917,368.399,59.138,368.961,55.352z M347.659,44.676c-2.501,3.393-3.023,7.271-1.088,8.968    c1.476,1.291,2.926,0.829,3.584-0.978C350.913,50.585,350.389,47.405,347.659,44.676z"/>
	</g>
	<g>
		<path style="fill:#FFFFFF;" d="M37.474,122.267c0,0-1.848-15.599,13.075-10.365s9.853,19.428,4.202,14.474    s5.287-21.361,16.661-13.843s8.622,21.782,0.472,22.731s5.142-16.583,15.248-5.516s-12.53,30.706-21.586,23.259    c-9.056-7.448-1.74-19.182,0.361-11.945c2.101,7.237-3.911,14.229-20.138,13.738c-16.227-0.491-8.513-25.365-2.935-18.023    s-3.947,15.423-15.285,6.711S29.505,117.243,37.474,122.267z"/>
		<path style="fill:#241726;" d="M47.358,155.863c-0.528,0-1.068-0.008-1.618-0.024c-5.32-0.161-9.029-2.937-10.288-7.651    c-2.794-0.391-5.728-1.721-8.534-3.877c-4.412-3.39-5.876-8.468-4.02-13.93c1.915-5.631,6.958-10.042,11.486-10.042    c0.684,0,1.344,0.095,1.976,0.285c0.01-2.156,0.388-5.815,2.589-8.291c2.489-2.8,6.55-3.304,11.945-1.411    c2.071,0.726,3.88,1.657,5.395,2.775c2.577-2.644,5.835-4.142,9.072-4.142c2.276,0,4.505,0.711,6.625,2.113    c4.916,3.249,7.862,8.185,8.04,13.373c2.875,0.124,5.59,1.502,7.876,4.006c3.121,3.417,3.665,7.96,1.535,12.791    c-3.253,7.378-12.109,13.851-18.95,13.852c-0.002,0-0.002,0-0.002,0c-2.197,0-4.081-0.632-5.598-1.88    c-0.709-0.583-1.348-1.211-1.909-1.876C59.477,154.508,54.111,155.863,47.358,155.863z M37.655,148.299    c0.893,2.635,3.058,5.307,8.146,5.461c8.682,0.277,13.474-1.676,15.965-3.517c-2.221-3.704-2.008-7.729-0.725-10.213    c0.747-1.448,1.821-2.278,2.946-2.278c0.763,0,2.156,0.393,2.92,3.019c1.052,3.625,0.191,7.144-2.361,9.797    c0.485,0.578,1.042,1.126,1.661,1.635c1.135,0.934,2.575,1.407,4.278,1.407l0,0c6.014-0.001,14.14-6.012,17.049-12.613    c1.259-2.852,2.077-6.997-1.167-10.55c-1.929-2.111-4.085-3.229-6.418-3.33c-0.554,4.971-3.72,8.687-7.943,9.178    c-2.707,0.32-3.64-1.111-3.685-2.437c-0.102-2.942,4.185-7.829,9.63-8.695c-0.138-4.534-2.747-8.879-7.11-11.763    c-4.292-2.832-9.261-2.074-12.96,1.644c3.476,3.398,4.093,7.537,3.092,10.284c-0.7,1.925-2.181,3.121-3.862,3.121    c-0.002,0-0.002,0-0.002,0c-1.027,0-2.079-0.446-3.044-1.29c-3.119-2.735-2.03-7.979,0.871-11.876    c-1.324-0.956-2.91-1.761-4.729-2.4c-4.53-1.588-7.785-1.328-9.699,0.825c-2.605,2.925-2.008,8.382-2,8.437    c0.045,0.397-0.14,0.787-0.479,1c-0.343,0.214-0.774,0.212-1.109,0c-0.767-0.483-1.62-0.728-2.536-0.728    c-3.63,0-7.9,3.872-9.516,8.632c-1.553,4.566-0.343,8.8,3.318,11.613c2.288,1.758,4.639,2.9,6.875,3.351    c-0.402-4.012,0.867-7.912,2.501-9.914c0.918-1.124,1.98-1.718,3.074-1.718c0.77,0,1.921,0.307,3.029,1.765    c1.969,2.593,2.396,5.497,1.17,7.967C43.594,146.617,40.932,148.158,37.655,148.299z M63.987,139.831    c-0.195,0-0.666,0.314-1.098,1.153c-0.94,1.818-1.123,4.915,0.453,7.822c1.815-2.074,2.374-4.679,1.567-7.455    C64.588,140.244,64.174,139.831,63.987,139.831z M40.635,136.461c-0.443,0-0.962,0.339-1.464,0.953    c-1.395,1.708-2.447,5.362-1.99,8.817c2.684-0.006,4.849-1.142,5.791-3.041c0.861-1.736,0.51-3.845-0.964-5.786    C41.681,136.974,41.177,136.461,40.635,136.461z M77.826,127.301c-4.319,0.922-7.482,4.923-7.429,6.486    c0.006,0.189,0.016,0.474,0.883,0.474c0.15,0,0.311-0.01,0.485-0.03C74.888,133.867,77.263,131.088,77.826,127.301z     M56.523,116.627c-2.503,3.392-3.025,7.27-1.086,8.968c1.466,1.287,2.922,0.83,3.582-0.979    C59.776,122.535,59.254,119.355,56.523,116.627z"/>
	</g>
	<path style="fill:#241726;" d="M369.248,142.916c-0.469,0-0.881-0.273-1.105-0.73c-0.018-0.038-1.805-3.719-3.951-8.53   c-0.985,0.027-1.945,0.042-2.855,0.042c-6.997,0-8.024-0.8-8.438-1.551c-0.254-0.46-0.231-0.993,0.065-1.461   c0.794-1.261,4.585-4.602,7.129-6.775c-3.486-9.016-3.228-11.255-1.675-11.899c0.307-0.129,0.656-0.101,0.94,0.073   c0.041,0.024,3.963,2.421,8.564,5.409c7.845-6.168,8.875-6.168,9.319-6.168c0.564,0,1.18,0.579,1.194,1.143   c0.026,1-1.324,6.849-2.24,10.618c6.836,4.875,7.411,6.199,7.401,7.131c-0.004,0.469-0.231,0.889-0.621,1.152   c-1.174,0.79-5.598,1.358-9.374,1.712C370.854,142.916,370.143,142.916,369.248,142.916z M366.434,133.575   c1.178,2.622,2.217,4.844,2.869,6.217c0.42-1.061,1.084-2.997,2.085-6.522C369.737,133.4,368.062,133.502,366.434,133.575z    M355.21,131.202c0.78,0.182,2.491,0.417,6.128,0.417c0.627,0,1.279-0.007,1.945-0.02c-0.885-2.023-1.681-3.913-2.38-5.643   C357.825,128.602,356.032,130.306,355.21,131.202z M362.572,124.534c0.837,2.095,1.825,4.442,2.952,6.998   c2.108-0.081,4.313-0.216,6.457-0.395c0.633-2.322,1.271-4.798,1.858-7.17c-1.689-1.182-3.634-2.494-5.799-3.914   C366.222,121.501,364.354,123.033,362.572,124.534z M375.66,125.261c-0.471,1.886-0.971,3.819-1.47,5.674   c3.75-0.377,6.014-0.785,7.037-1.073C380.709,129.243,379.327,127.916,375.66,125.261z M359.408,114.559   c0.099,1.026,0.587,3.239,2.367,7.93c1.452-1.218,2.952-2.448,4.428-3.63C363.341,117.006,360.803,115.422,359.408,114.559z    M369.759,118.696c1.679,1.106,3.22,2.145,4.609,3.106c0.863-3.587,1.435-6.212,1.736-7.752   C374.971,114.779,372.959,116.198,369.759,118.696z"/>
	<path style="fill:#241726;" d="M338.874,161.759l-0.024-0.019c-3.132-2.428-3.704-6.952-1.274-10.086   c2.418-3.119,6.931-3.699,10.06-1.294c1.542,1.196,2.511,2.893,2.752,4.799c0.24,1.903-0.275,3.789-1.451,5.305   C346.517,163.583,342.002,164.164,338.874,161.759z M346.387,152.023c-2.242-1.724-5.449-1.31-7.168,0.905   c-1.727,2.227-1.321,5.443,0.904,7.169l-0.616,0.838l0.634-0.824c2.223,1.709,5.431,1.297,7.153-0.919   c0.836-1.078,1.203-2.417,1.03-3.772C348.154,154.065,347.465,152.859,346.387,152.023z"/>
	<path style="fill:#241726;" d="M469.394,395.398l-0.024-0.019c-3.132-2.428-3.704-6.952-1.274-10.086   c2.418-3.119,6.931-3.699,10.06-1.294c1.542,1.196,2.511,2.893,2.752,4.799c0.24,1.903-0.275,3.789-1.451,5.305   C477.037,397.222,472.522,397.802,469.394,395.398z M476.907,385.661c-2.242-1.724-5.449-1.31-7.168,0.905   c-1.727,2.227-1.321,5.443,0.904,7.169l-0.616,0.838l0.634-0.824c2.223,1.709,5.431,1.297,7.153-0.919   c0.836-1.078,1.203-2.418,1.03-3.772C478.674,387.703,477.985,386.497,476.907,385.661z"/>
	<path style="fill:#241726;" d="M19.525,256.774l-0.024-0.019c-3.132-2.428-3.704-6.952-1.274-10.086   c2.418-3.119,6.931-3.699,10.06-1.294c1.542,1.196,2.511,2.893,2.752,4.799c0.24,1.903-0.275,3.789-1.451,5.305   C27.168,258.598,22.653,259.178,19.525,256.774z M27.038,247.038c-2.242-1.724-5.449-1.31-7.168,0.905   c-1.727,2.227-1.321,5.443,0.904,7.169l-0.616,0.838l0.634-0.824c2.223,1.709,5.431,1.297,7.153-0.919   c0.836-1.078,1.203-2.417,1.03-3.772C28.805,249.08,28.116,247.874,27.038,247.038z"/>
	<path style="fill:#241726;" d="M152.828,141.057c-0.774,0-1.507,0-3.431-8.112c-6.82-1.404-7.387-2.189-7.606-2.49   c-0.189-0.261-0.266-0.737-0.175-1.047c0.13-0.437,0.428-1.448,8.282-4.494c2.891-7.256,3.837-7.256,4.467-7.256   c0.333,0,0.79,0.242,0.987,0.512c0.493,0.681,0.924,2.436,1.578,5.248c0.205,0.88,0.451,1.944,0.595,2.412   c0.408,0.188,1.308,0.523,2.053,0.801c4,1.493,5.029,1.997,5.204,2.959c0.065,0.36-0.124,0.882-0.4,1.124   c-0.824,0.72-4.725,2.111-6.769,2.809c-3.407,7.481-4.114,7.509-4.739,7.534C152.861,141.057,152.843,141.057,152.828,141.057z    M144.449,129.596c1.36,0.411,3.844,1.01,6.01,1.444c0.4,0.08,0.717,0.387,0.81,0.784c0.526,2.257,1.218,4.83,1.722,6.3   c0.776-1.353,1.955-3.749,2.912-5.869c0.12-0.263,0.343-0.464,0.615-0.556c1.866-0.629,3.973-1.405,5.285-1.959   c-0.91-0.397-2.15-0.86-2.952-1.16c-2.282-0.851-2.711-1.034-3.001-1.434c-0.252-0.349-0.404-0.929-0.944-3.257   c-0.205-0.874-0.516-2.216-0.796-3.221c-0.698,1.29-1.679,3.488-2.447,5.434c-0.106,0.271-0.321,0.485-0.593,0.59   C148.646,127.621,145.893,128.812,144.449,129.596z"/>
	<path style="fill:#241726;" d="M11.249,230.306c-0.774,0-1.507,0-3.429-8.112c-6.82-1.406-7.409-2.216-7.606-2.488   c-0.191-0.262-0.268-0.739-0.175-1.049c0.128-0.437,0.428-1.448,8.282-4.494c2.891-7.256,3.837-7.256,4.467-7.256   c0.333,0,0.79,0.242,0.987,0.512c0.493,0.682,0.926,2.442,1.58,5.258c0.203,0.876,0.449,1.934,0.593,2.402   c0.408,0.189,1.308,0.524,2.053,0.802c4,1.492,5.029,1.996,5.204,2.958c0.065,0.36-0.124,0.882-0.4,1.124   c-0.824,0.72-4.727,2.111-6.771,2.809c-3.405,7.481-4.114,7.509-4.739,7.534C11.282,230.306,11.264,230.306,11.249,230.306z    M2.87,218.845c1.36,0.411,3.846,1.01,6.012,1.444c0.4,0.08,0.717,0.387,0.81,0.784c0.524,2.258,1.216,4.83,1.72,6.301   c0.776-1.353,1.955-3.75,2.912-5.87c0.12-0.263,0.343-0.465,0.615-0.556c1.866-0.629,3.976-1.405,5.287-1.959   c-0.91-0.397-2.148-0.86-2.952-1.159c-2.282-0.852-2.711-1.034-3.001-1.434c-0.254-0.351-0.404-0.929-0.944-3.248   c-0.203-0.877-0.516-2.224-0.796-3.231c-0.698,1.29-1.679,3.488-2.447,5.434c-0.106,0.271-0.321,0.485-0.593,0.59   C7.069,216.87,4.316,218.061,2.87,218.845z"/>
	<path style="fill:#241726;" d="M475.092,310.718c-0.774,0-1.507,0-3.431-8.112c-6.818-1.405-7.407-2.215-7.604-2.487   c-0.191-0.262-0.268-0.739-0.175-1.049c0.128-0.437,0.428-1.448,8.282-4.494c2.891-7.256,3.837-7.256,4.467-7.256   c0.333,0,0.79,0.242,0.987,0.512c0.493,0.68,0.924,2.435,1.576,5.247c0.205,0.881,0.453,1.944,0.595,2.412   c0.408,0.189,1.31,0.525,2.057,0.804c3.996,1.491,5.025,1.996,5.202,2.956c0.065,0.36-0.124,0.882-0.4,1.124   c-0.826,0.721-4.727,2.112-6.771,2.81c-3.405,7.482-4.114,7.509-4.739,7.533C475.122,310.718,475.106,310.718,475.092,310.718z    M466.712,299.257c1.36,0.411,3.844,1.009,6.01,1.443c0.4,0.08,0.717,0.386,0.81,0.784c0.526,2.258,1.218,4.831,1.722,6.302   c0.776-1.353,1.955-3.75,2.912-5.87c0.12-0.263,0.343-0.464,0.615-0.556c1.866-0.629,3.973-1.405,5.285-1.959   c-0.908-0.397-2.146-0.86-2.948-1.159c-2.284-0.853-2.715-1.036-3.005-1.438c-0.252-0.347-0.404-0.927-0.944-3.256   c-0.203-0.874-0.514-2.215-0.794-3.22c-0.698,1.29-1.679,3.488-2.447,5.434c-0.106,0.271-0.321,0.485-0.593,0.59   C470.911,297.283,468.158,298.473,466.712,299.257z"/>
	<g>
		<g>
			<path style="fill:#52AFA6;" d="M122.171,70.501c-13.323,5.482-10.23,26.3-6.675,36.812l8.173-3.072     c0,0-7.942-23.687,4.389-25.782c12.331-2.095,20.127,16.763,20.127,16.763l10.233-3.263     C153.032,81.936,140.156,63.101,122.171,70.501z"/>
			<path style="fill:#B1739A;" d="M114.296,49.907c40.86-15.506,60.393,21.625,65.523,35.228l6.996-2.231     c0,0-24.113-58.419-72.503-42.888c-48.39,15.531-26.225,77.598-26.225,77.598l7.594-2.854     C90.44,100.085,86.137,60.593,114.296,49.907z"/>
			<path style="fill:#E17B8D;" d="M114.82,50.117c-30.812,12.085-24.38,49.968-19.139,64.644l10.004-3.76     c-5.42-15.376-11.967-46.598,20.588-53.64c21.335-4.615,36.986,19.079,43.395,31.011l10.151-3.237     C174.689,71.532,155.156,34.297,114.82,50.117z"/>
			<path style="fill:#E8B500;" d="M126.273,57.361c-29.916,6.843-26.008,38.263-20.588,53.64l9.811-3.688     c-3.555-10.511-7.816-30.097,6.675-36.812c17.646-8.176,30.86,11.435,36.246,21.458l11.25-3.587     C163.259,76.44,147.551,52.494,126.273,57.361z"/>
		</g>
		<path style="fill:#241726;" d="M95.681,115.8c-0.43,0-0.834-0.27-0.983-0.7c-0.41-1.191-9.929-29.39,1.056-49.826    c4.883-9.086,13.112-15.176,24.454-18.1c44.287-11.412,59.88,36.407,60.033,36.891c0.173,0.547-0.132,1.131-0.678,1.304    c-0.546,0.174-1.133-0.132-1.304-0.68c-0.039-0.117-3.797-11.836-12.779-22.01c-11.941-13.527-26.998-18.067-44.752-13.49    c-10.755,2.771-18.539,8.512-23.138,17.063c-10.556,19.627-1.023,47.887-0.926,48.17c0.187,0.543-0.102,1.135-0.644,1.322    C95.909,115.782,95.793,115.8,95.681,115.8z"/>
		<path style="fill:#241726;" d="M105.685,112.04c-0.424,0-0.822-0.261-0.977-0.683c-0.331-0.904-8-22.325-0.242-38.766    c3.401-7.205,9.279-12.32,17.472-15.205c27.707-9.743,48.449,30.11,48.656,30.513c0.262,0.512,0.059,1.137-0.453,1.399    c-0.508,0.26-1.135,0.061-1.399-0.453c-0.197-0.388-20.15-38.644-46.114-29.498c-7.646,2.691-13.122,7.443-16.278,14.123    c-7.391,15.647,0.233,36.96,0.311,37.173c0.197,0.539-0.081,1.136-0.619,1.333C105.924,112.02,105.803,112.04,105.685,112.04z"/>
		<path style="fill:#241726;" d="M115.496,108.353c-0.43,0-0.834-0.27-0.983-0.699c-0.26-0.751-6.288-18.521-0.495-30.348    c2.097-4.283,5.498-7.25,10.109-8.815c8.493-2.88,17.293,0.237,25.471,9.006c6.061,6.497,9.606,13.703,9.754,14.007    c0.252,0.516,0.039,1.138-0.479,1.39c-0.512,0.253-1.135,0.04-1.389-0.478c-0.138-0.283-14.062-28.282-32.687-21.955    c-4.067,1.38-7.066,3.99-8.911,7.756c-5.413,11.045,0.532,28.583,0.593,28.758c0.187,0.542-0.102,1.134-0.644,1.322    C115.723,108.335,115.607,108.353,115.496,108.353z"/>
	</g>
	<g>
		<g>
			<path style="fill:#E8B500;" d="M59.188,283.09c0,0,15.773-14.878,21.733-1.315c4.213,9.589-18.315,12.21-14.791,9.151     c3.525-3.059,12.285,5.665,4.859,11.543C63.562,308.347,48.407,291.341,59.188,283.09z"/>
			<path style="fill:#241726;" d="M66.496,299.088c-0.363,0-0.727-0.045-1.088-0.135c-3.448-0.861-5.279-5.665-5.356-5.869     c-0.201-0.538,0.073-1.135,0.609-1.337c0.532-0.204,1.135,0.07,1.338,0.607c0.418,1.108,1.935,4.09,3.915,4.583     c0.962,0.241,1.961-0.126,3.072-1.106c1.641-1.45,1.194-2.561,0.717-3.272c-0.546-0.809-1.438-1.48-2.367-1.977     c-1.943,0.498-4.205,0.599-5.031-0.38c-0.414-0.493-0.443-1.162-0.071-1.746c0.327-0.518,1.074-1.096,2.749-0.858     c0.755,0.103,1.647,0.364,2.542,0.761c0.609-0.206,1.208-0.478,1.726-0.826c1.468-0.988,1.381-1.966,1.352-2.288     c-0.051-0.569-0.254-0.937-0.66-1.194c-1.697-1.076-5.975,0.121-7.342,0.624c-0.534,0.198-1.137-0.077-1.334-0.616     c-0.199-0.538,0.077-1.136,0.615-1.335c0.638-0.234,6.302-2.247,9.173-0.429c0.952,0.603,1.511,1.559,1.618,2.767     c0.164,1.854-0.893,3.494-2.932,4.598c1.076,0.82,1.951,1.848,2.309,3.026c0.351,1.155,0.343,2.909-1.687,4.701     C69.083,298.519,67.786,299.088,66.496,299.088z"/>
		</g>
		<g>
			<path style="fill:#E8B500;" d="M56.301,281.203c0,0,0.148-21.682-13.842-16.806c-9.89,3.447,3.538,21.726,3.376,17.062     s-12.516-5.135-11.76,4.306C34.831,295.206,57.605,294.716,56.301,281.203z"/>
			<path style="fill:#241726;" d="M43.772,288.314c-1.149,0-2.333-0.216-3.32-0.859c-1.423-0.926-2.175-2.504-2.231-4.692     c-0.069-2.708,1.208-3.907,2.292-4.438c1.105-0.541,2.451-0.602,3.787-0.372c-0.579-2.244-0.099-4.135,1.371-5.278     c0.954-0.744,2.036-0.99,3.129-0.7c3.279,0.862,5.671,6.382,5.933,7.008c0.221,0.53-0.028,1.138-0.556,1.359     c-0.532,0.221-1.139-0.026-1.36-0.557c-0.841-2.001-2.816-5.346-4.546-5.799c-0.457-0.123-0.869-0.02-1.324,0.33     c-0.254,0.199-1.029,0.802-0.751,2.55c0.097,0.615,0.305,1.239,0.571,1.824c0.899,0.384,1.699,0.859,2.29,1.342     c1.31,1.073,1.401,2.005,1.245,2.598c-0.175,0.669-0.684,1.105-1.328,1.136c-1.273,0.07-2.757-1.671-3.712-3.435     c-0.995-0.33-2.085-0.528-3.054-0.374c-0.845,0.134-1.963,0.564-1.907,2.752c0.039,1.483,0.459,2.465,1.285,3.003     c1.718,1.12,4.928,0.193,6.018-0.257c0.534-0.215,1.139,0.035,1.356,0.564c0.219,0.531-0.032,1.139-0.564,1.357     C48.261,287.433,46.089,288.314,43.772,288.314z"/>
		</g>
		<path style="fill:#241726;" d="M61.43,277.821c-0.213,0-0.426-0.064-0.611-0.198c-0.465-0.337-0.566-0.988-0.229-1.452    c0.753-1.04,7.523-10.167,13.021-10.728c1.356-0.136,2.564,0.244,3.545,1.138c0.424,0.387,0.455,1.045,0.067,1.469    c-0.386,0.423-1.044,0.457-1.468,0.066c-0.538-0.49-1.159-0.686-1.933-0.604c-3.882,0.396-9.655,7.266-11.551,9.879    C62.068,277.672,61.751,277.821,61.43,277.821z"/>
		<path style="fill:#241726;" d="M58.212,276.03c-0.142,0-0.286-0.029-0.422-0.09c-0.526-0.233-0.761-0.849-0.528-1.373    c0.045-0.098,4.321-9.876-0.402-14.016c-0.432-0.379-0.475-1.036-0.097-1.467c0.378-0.432,1.035-0.473,1.466-0.096    c5.876,5.15,1.137,15.968,0.932,16.427C58.988,275.8,58.61,276.03,58.212,276.03z"/>
	</g>
	<g>
		<g>
			<path style="fill:#E8B500;" d="M422.634,82.987c0,0-8.04-20.137,6.764-20.695c10.466-0.395,4.624,21.521,3.075,17.119     c-1.549-4.402,9.783-9.344,12.521-0.276S426.345,96.046,422.634,82.987z"/>
			<path style="fill:#241726;" d="M432.336,85.857c-0.047,0-0.077-0.001-0.089-0.001c-0.575-0.011-1.029-0.484-1.021-1.058     c0.01-0.575,0.414-1.012,1.058-1.021c1.222,0.045,4.516-0.297,5.699-1.956c0.573-0.802,0.605-1.87,0.102-3.264     c-0.745-2.059-1.947-2.051-2.78-1.867c-0.954,0.209-1.907,0.793-2.709,1.474c-0.25,1.989-0.989,4.132-2.203,4.539     c-0.605,0.207-1.243-0.015-1.651-0.574c-0.359-0.495-0.617-1.396,0.213-2.873c0.374-0.665,0.944-1.398,1.643-2.084     c0.032-0.642,0-1.299-0.134-1.909c-0.38-1.729-1.322-2.008-1.63-2.099c-0.552-0.163-0.968-0.107-1.352,0.175     c-1.624,1.184-2.085,5.603-2.118,7.057c-0.014,0.575-0.441,1.059-1.064,1.016c-0.573-0.013-1.027-0.489-1.015-1.063     c0.016-0.679,0.231-6.693,2.97-8.69c0.912-0.663,2.01-0.829,3.167-0.488c1.787,0.529,2.922,2.117,3.2,4.418     c1.161-0.7,2.445-1.139,3.663-1.035c1.204,0.098,2.83,0.751,3.752,3.296c0.745,2.059,0.621,3.802-0.365,5.184     C437.729,85.748,433.071,85.857,432.336,85.857z"/>
		</g>
		<g>
			<path style="fill:#E8B500;" d="M419.817,84.978c0,0-20.111-8.106-20.717,6.697c-0.429,10.465,21.506,4.694,17.109,3.13     c-4.397-1.564-9.376,9.753-0.317,12.52C424.95,110.092,432.865,88.732,419.817,84.978z"/>
			<path style="fill:#241726;" d="M417.112,102.854c-0.767,0-1.6-0.162-2.489-0.487c-2.542-0.931-3.19-2.56-3.285-3.763     c-0.095-1.227,0.345-2.503,1.048-3.659c-2.3-0.285-3.884-1.426-4.406-3.213c-0.341-1.163-0.169-2.259,0.497-3.167     c2.006-2.734,8.02-2.931,8.7-2.944c0.575-0.031,1.046,0.446,1.06,1.018c0.01,0.574-0.445,1.049-1.019,1.061     c-2.171,0.045-6.008,0.654-7.066,2.096c-0.282,0.387-0.339,0.804-0.179,1.351c0.091,0.31,0.368,1.253,2.095,1.638     c0.609,0.136,1.269,0.175,1.907,0.14c0.69-0.696,1.425-1.266,2.093-1.638c1.478-0.825,2.382-0.563,2.871-0.201     c0.558,0.408,0.776,1.042,0.569,1.652c-0.412,1.215-2.566,1.948-4.558,2.189c-0.674,0.804-1.259,1.752-1.47,2.702     c-0.187,0.836-0.197,2.033,1.858,2.785c1.393,0.51,2.463,0.481,3.267-0.092c1.671-1.188,1.99-4.509,1.972-5.689     c-0.008-0.575,0.449-1.047,1.023-1.056c0.006,0,0.012,0,0.016,0c0.566,0,1.031,0.455,1.04,1.023     c0.004,0.218,0.049,5.359-2.847,7.417C419.023,102.574,418.121,102.854,417.112,102.854z"/>
		</g>
		<path style="fill:#241726;" d="M417.591,79.622c-0.343,0-0.678-0.17-0.877-0.481c-0.688-1.083-6.69-10.732-5.192-16.052    c0.376-1.328,1.17-2.297,2.361-2.88c0.518-0.253,1.137-0.04,1.391,0.477c0.252,0.516,0.039,1.139-0.477,1.391    c-0.656,0.321-1.06,0.821-1.273,1.577c-1.058,3.756,3.21,11.647,4.944,14.371c0.309,0.484,0.164,1.127-0.319,1.435    C417.977,79.569,417.784,79.622,417.591,79.622z"/>
		<path style="fill:#241726;" d="M414.743,81.957c-0.27,0-0.538-0.105-0.743-0.312c-0.073-0.077-7.6-7.646-13.183-4.775    c-0.508,0.263-1.137,0.062-1.399-0.45c-0.264-0.511-0.063-1.137,0.449-1.4c6.946-3.563,15.269,4.812,15.62,5.17    c0.402,0.41,0.394,1.068-0.016,1.469C415.268,81.857,415.005,81.957,414.743,81.957z"/>
	</g>
	<path style="fill:#241726;" d="M272.881,50.491l-0.006,0l-4.022-0.014l4.261-2.888c0.475-0.323,0.599-0.969,0.277-1.444   c-0.325-0.477-0.975-0.596-1.444-0.277l-5.748,3.897l0.127-6.715c0.012-0.575-0.445-1.048-1.02-1.059l-0.006,0   c-0.57-0.007-1.041,0.447-1.053,1.02l-0.112,5.926l-3.515-3.813c-0.39-0.419-1.046-0.45-1.469-0.06   c-0.421,0.388-0.448,1.048-0.06,1.469l3.617,3.923l-6.661-0.023c-0.575-0.001-1.042,0.462-1.043,1.036   c-0.001,0.571,0.456,1.035,1.026,1.043l0.01,0l6.076,0.021l-4.747,3.218c-0.475,0.323-0.599,0.969-0.277,1.444   c0.199,0.293,0.52,0.451,0.847,0.456c0.207,0.003,0.415-0.055,0.597-0.179l5.508-3.734l-0.128,6.765   c-0.012,0.574,0.445,1.047,1.02,1.059l0.006,0c0.57,0.007,1.041-0.447,1.053-1.02l0.121-6.39l3.747,4.064   c0.202,0.218,0.475,0.331,0.751,0.335c0.256,0.003,0.515-0.087,0.718-0.275c0.421-0.388,0.448-1.048,0.06-1.469l-3.923-4.256   l5.4,0.019c0.575,0.001,1.042-0.462,1.043-1.036C273.913,50.963,273.456,50.498,272.881,50.491z"/>
	<path style="fill:#241726;" d="M466.599,347.478l-0.006,0l-4.022-0.014l4.261-2.888c0.475-0.323,0.599-0.969,0.277-1.444   c-0.325-0.477-0.975-0.596-1.444-0.277l-5.748,3.897l0.127-6.715c0.012-0.575-0.445-1.048-1.02-1.059l-0.006,0   c-0.57-0.007-1.041,0.447-1.053,1.02l-0.112,5.926l-3.515-3.813c-0.39-0.419-1.046-0.45-1.469-0.06   c-0.421,0.388-0.448,1.048-0.06,1.469l3.617,3.923l-6.661-0.023c-0.575-0.001-1.042,0.462-1.043,1.036   c-0.001,0.571,0.456,1.035,1.026,1.043l0.01,0l6.076,0.021l-4.747,3.218c-0.475,0.323-0.599,0.969-0.277,1.444   c0.199,0.293,0.52,0.451,0.847,0.456c0.207,0.003,0.415-0.055,0.597-0.179l5.508-3.734l-0.128,6.765   c-0.012,0.574,0.445,1.047,1.02,1.059l0.006,0c0.57,0.007,1.041-0.447,1.053-1.02l0.121-6.39l3.747,4.064   c0.202,0.218,0.475,0.331,0.751,0.335c0.256,0.003,0.515-0.087,0.718-0.275c0.421-0.388,0.448-1.048,0.06-1.469l-3.923-4.256   l5.4,0.019c0.575,0.001,1.042-0.462,1.043-1.036C467.63,347.95,467.174,347.486,466.599,347.478z"/>
	<path style="fill:#241726;" d="M344.897,204.437c-0.083,0-0.166-0.01-0.25-0.03c-0.329-0.081-0.597-0.319-0.721-0.634   c-0.83-2.152-8.036-21.194-5.104-26.865c0.471-0.915,1.202-1.52,2.11-1.75c3.133-0.791,6.016,0.464,7.998,3.385   c2.351-2.113,5.017-3.344,7.315-3.344c1.941,0,3.596,0.861,4.786,2.489c5.659,7.753-13.273,24.599-15.451,26.495   C345.389,204.348,345.145,204.437,344.897,204.437z M342.761,177c-0.424,0-0.867,0.058-1.318,0.173   c-0.207,0.052-0.512,0.181-0.776,0.688c-1.961,3.797,2.307,17.312,4.67,23.751c6.01-5.474,17.624-17.754,14.012-22.7   c-0.802-1.101-1.817-1.636-3.104-1.636c-1.876,0-4.231,1.187-6.272,3.133c1.295,2.838,1.569,6.005,0.605,7.602   c-0.439,0.727-1.117,1.127-1.911,1.127c-2.463-0.162-3.36-1.262-3.705-2.156c-0.81-2.09,0.664-4.843,2.473-6.924   C346.593,178.706,345.072,177,342.761,177z M348.428,182.123c-1.364,1.782-1.823,3.345-1.527,4.107   c0.187,0.483,0.774,0.761,1.746,0.827C349.187,186.268,349.196,184.26,348.428,182.123z"/>
	<path style="fill:#241726;" d="M48.962,424.594c-0.562,0-1.023-0.447-1.04-1.011c-0.014-0.575,0.437-1.052,1.011-1.068   c1.438-0.039,2.755-0.193,3.921-0.459c0.564-0.137,1.117,0.223,1.245,0.782c0.128,0.559-0.221,1.117-0.782,1.245   c-1.297,0.296-2.753,0.469-4.327,0.512C48.98,424.594,48.97,424.594,48.962,424.594z M44.812,424.416   c-0.039,0-0.077-0.002-0.116-0.006c-1.399-0.153-2.82-0.394-4.221-0.718c-0.56-0.13-0.91-0.687-0.78-1.247   c0.13-0.559,0.68-0.911,1.247-0.78c1.322,0.306,2.662,0.533,3.982,0.677c0.571,0.062,0.983,0.576,0.92,1.146   C45.784,424.022,45.334,424.416,44.812,424.416z M36.721,422.54c-0.118,0-0.236-0.019-0.353-0.062   c-1.366-0.492-2.692-1.071-3.939-1.719c-0.51-0.265-0.709-0.892-0.443-1.402c0.266-0.51,0.895-0.705,1.401-0.444   c1.165,0.606,2.406,1.147,3.687,1.609c0.54,0.194,0.82,0.79,0.625,1.33C37.545,422.278,37.147,422.54,36.721,422.54z    M29.377,418.688c-0.215,0-0.43-0.066-0.617-0.203c-1.198-0.884-2.29-1.855-3.247-2.886c-0.392-0.42-0.368-1.078,0.055-1.469   c0.418-0.39,1.076-0.366,1.468,0.055c0.869,0.936,1.864,1.82,2.958,2.627c0.463,0.341,0.56,0.992,0.219,1.454   C30.01,418.542,29.695,418.688,29.377,418.688z M23.797,412.608c-0.355,0-0.703-0.184-0.897-0.514   c-0.739-1.264-1.33-2.617-1.756-4.021c-0.166-0.549,0.144-1.13,0.694-1.296c0.548-0.166,1.129,0.145,1.295,0.693   c0.378,1.249,0.904,2.451,1.561,3.572c0.29,0.495,0.124,1.133-0.372,1.423C24.157,412.562,23.976,412.608,23.797,412.608z    M21.391,404.735c-0.54,0-0.995-0.418-1.035-0.965c-0.037-0.508-0.055-1.024-0.055-1.552c0-0.244,0.002-0.488,0.01-0.736   c0.024-0.699,0.079-1.386,0.162-2.059c0.069-0.571,0.575-0.983,1.159-0.905c0.569,0.07,0.975,0.589,0.904,1.158   c-0.075,0.612-0.126,1.238-0.146,1.875c-0.008,0.224-0.01,0.447-0.01,0.666c0,0.477,0.018,0.945,0.051,1.404   c0.041,0.573-0.39,1.07-0.964,1.111C21.442,404.734,21.418,404.735,21.391,404.735z M22.421,396.543   c-0.11,0-0.219-0.017-0.329-0.054c-0.544-0.182-0.839-0.771-0.658-1.315c0.453-1.355,1.048-2.69,1.768-3.97   c0.282-0.503,0.922-0.677,1.415-0.396c0.502,0.281,0.678,0.915,0.396,1.415c-0.656,1.165-1.196,2.38-1.606,3.609   C23.261,396.268,22.855,396.543,22.421,396.543z M26.457,389.334c-0.231,0-0.465-0.077-0.658-0.234   c-0.445-0.363-0.51-1.018-0.146-1.463c0.885-1.084,1.888-2.132,2.983-3.115c0.424-0.383,1.084-0.349,1.468,0.079   c0.384,0.426,0.347,1.084-0.079,1.468c-1.015,0.912-1.943,1.881-2.763,2.883C27.056,389.204,26.758,389.334,26.457,389.334z    M52.744,385.556c-0.483,0-0.916-0.34-1.017-0.832c-0.114-0.562,0.25-1.112,0.812-1.226c0.52-0.105,1.05-0.385,1.052-1.661   l-0.012-0.358c-0.032-0.567,0.39-1.124,0.956-1.165c0.569-0.03,1.056,0.309,1.105,0.875c0.024,0.337,0.03,0.497,0.03,0.65   c-0.002,2-0.993,3.348-2.717,3.698C52.885,385.549,52.814,385.556,52.744,385.556z M48.71,384.822   c-0.136,0-0.272-0.026-0.406-0.082c-1.2-0.508-2.481-1.216-3.807-2.103c-0.477-0.32-0.605-0.965-0.284-1.443   c0.317-0.478,0.962-0.604,1.442-0.285c1.216,0.815,2.382,1.46,3.462,1.917c0.528,0.223,0.776,0.833,0.552,1.362   C49.5,384.584,49.114,384.822,48.71,384.822z M32.605,383.777c-0.331,0-0.66-0.159-0.861-0.456   c-0.321-0.475-0.199-1.122,0.276-1.444c1.174-0.797,2.416-1.53,3.693-2.181c0.508-0.255,1.137-0.059,1.397,0.455   c0.262,0.512,0.057,1.138-0.455,1.399c-1.198,0.61-2.365,1.298-3.466,2.047C33.011,383.719,32.806,383.777,32.605,383.777z    M41.776,380.284c-0.242,0-0.481-0.082-0.678-0.252c-0.093-0.08-0.187-0.161-0.28-0.244c-0.154,0.053-0.311,0.107-0.465,0.162   c-0.54,0.198-1.135-0.088-1.33-0.627c-0.13-0.362-0.047-0.749,0.185-1.023c-0.404-0.393-0.804-0.797-1.196-1.209   c-0.396-0.416-0.38-1.074,0.037-1.47c0.414-0.394,1.072-0.378,1.47,0.037c0.587,0.618,1.192,1.215,1.805,1.787   c0.834-0.248,1.661-0.455,2.473-0.62c0.569-0.108,1.113,0.25,1.226,0.812c0.114,0.563-0.25,1.112-0.812,1.226   c-0.461,0.093-0.926,0.201-1.397,0.324c0.014,0.259-0.067,0.524-0.25,0.736C42.359,380.161,42.069,380.284,41.776,380.284z    M52.192,379.187c-0.146,0-0.292-0.03-0.432-0.094c-0.922-0.421-2.177-0.647-3.632-0.652c-0.573-0.002-1.038-0.469-1.035-1.043   c0.002-0.574,0.467-1.036,1.04-1.036c0.002,0,0.002,0,0.004,0c1.773,0.006,3.283,0.288,4.489,0.841   c0.522,0.239,0.751,0.856,0.514,1.378C52.962,378.961,52.586,379.187,52.192,379.187z M36.038,374.27   c-0.307,0-0.611-0.136-0.816-0.396c-0.879-1.114-1.712-2.278-2.477-3.461c-0.311-0.482-0.173-1.126,0.309-1.438   c0.479-0.31,1.123-0.176,1.438,0.309c0.729,1.128,1.525,2.239,2.363,3.302c0.355,0.451,0.278,1.105-0.173,1.46   C36.491,374.197,36.264,374.27,36.038,374.27z M31.539,367.289c-0.378,0-0.741-0.206-0.926-0.565   c-0.656-1.281-1.243-2.592-1.742-3.897c-0.205-0.536,0.063-1.137,0.599-1.342c0.532-0.202,1.137,0.063,1.342,0.599   c0.473,1.236,1.029,2.477,1.653,3.692c0.262,0.511,0.059,1.137-0.451,1.399C31.862,367.253,31.699,367.289,31.539,367.289z    M28.587,359.529c-0.465,0-0.887-0.313-1.007-0.783c-0.116-0.455-0.221-0.914-0.317-1.375c-0.203-0.98-0.337-1.961-0.398-2.916   c-0.037-0.573,0.398-1.067,0.971-1.104c0.621-0.018,1.068,0.401,1.105,0.972c0.055,0.857,0.177,1.74,0.359,2.627   c0.089,0.432,0.187,0.859,0.294,1.281c0.142,0.556-0.195,1.123-0.751,1.264C28.757,359.519,28.67,359.529,28.587,359.529z    M28.152,351.293c-0.065,0-0.13-0.006-0.197-0.018c-0.562-0.107-0.934-0.651-0.826-1.215c0.276-1.459,0.757-2.869,1.425-4.194   c0.258-0.514,0.883-0.719,1.397-0.459c0.512,0.259,0.717,0.884,0.459,1.397c-0.581,1.15-0.997,2.377-1.239,3.644   C29.076,350.946,28.642,351.293,28.152,351.293z M31.825,343.957c-0.248,0-0.495-0.087-0.692-0.265   c-0.428-0.383-0.465-1.04-0.083-1.468c0.946-1.056,2.045-2.035,3.265-2.913c0.465-0.335,1.115-0.231,1.452,0.239   c0.335,0.466,0.227,1.116-0.238,1.451c-1.1,0.789-2.085,1.667-2.928,2.61C32.394,343.841,32.11,343.957,31.825,343.957z    M54.076,342.694c-0.008,0-0.018,0-0.026,0c-1.295-0.034-2.81-0.341-4.378-0.889c-0.542-0.19-0.828-0.783-0.638-1.325   c0.191-0.541,0.78-0.825,1.324-0.639c1.366,0.479,2.662,0.746,3.744,0.774c0.575,0.015,1.027,0.492,1.013,1.066   C55.102,342.247,54.639,342.694,54.076,342.694z M57.177,340.79c-0.528,0-0.981-0.402-1.033-0.94   c-0.014-0.16-0.087-0.442-0.339-0.865c-0.323-0.539-0.873-1.003-1.632-1.379c-0.514-0.255-0.725-0.878-0.471-1.393   c0.254-0.517,0.881-0.722,1.393-0.471c1.123,0.555,1.961,1.287,2.493,2.175c0.363,0.607,0.575,1.19,0.627,1.734   c0.055,0.572-0.363,1.079-0.936,1.134C57.244,340.788,57.211,340.79,57.177,340.79z M46.247,340.112   c-0.179,0-0.357-0.046-0.522-0.141c-1.149-0.668-2.268-1.439-3.326-2.292c-1.19,0.357-2.347,0.801-3.446,1.321   c-0.516,0.246-1.137,0.025-1.385-0.495c-0.246-0.52-0.022-1.139,0.495-1.385c1.287-0.608,2.648-1.121,4.045-1.523   c0.258-0.072,0.512-0.045,0.735,0.06c0.229,0.001,0.463,0.079,0.654,0.237c1.04,0.855,2.14,1.622,3.271,2.281   c0.497,0.288,0.666,0.925,0.378,1.421C46.954,339.927,46.605,340.112,46.247,340.112z M46.469,336.806   c-0.518,0-0.966-0.388-1.029-0.916c-0.069-0.57,0.337-1.087,0.908-1.156c1.515-0.181,3.011-0.216,4.365-0.099   c0.571,0.049,0.995,0.552,0.946,1.124c-0.049,0.574-0.552,1.015-1.125,0.947c-1.218-0.103-2.566-0.07-3.939,0.093   C46.552,336.804,46.511,336.806,46.469,336.806z M39.849,334.849c-0.286,0-0.573-0.119-0.778-0.35   c-0.95-1.071-1.825-2.226-2.605-3.434c-0.313-0.482-0.173-1.126,0.309-1.437c0.483-0.308,1.127-0.175,1.438,0.31   c0.723,1.12,1.535,2.191,2.414,3.183c0.382,0.429,0.341,1.086-0.087,1.467C40.341,334.763,40.095,334.849,39.849,334.849z    M35.352,327.895c-0.396,0-0.774-0.226-0.946-0.611c-0.585-1.289-1.088-2.645-1.496-4.027c-0.162-0.55,0.152-1.129,0.703-1.291   c0.546-0.162,1.129,0.151,1.291,0.703c0.382,1.291,0.851,2.556,1.395,3.759c0.238,0.523,0.006,1.139-0.518,1.376   C35.642,327.865,35.496,327.895,35.352,327.895z M32.985,319.952c-0.499,0-0.94-0.362-1.023-0.873   c-0.25-1.528-0.388-2.968-0.414-4.282c-0.01-0.574,0.445-1.049,1.019-1.06c0.546-0.027,1.048,0.446,1.06,1.019   c0.024,1.216,0.154,2.558,0.386,3.99c0.093,0.566-0.292,1.1-0.859,1.193C33.096,319.948,33.042,319.952,32.985,319.952z    M32.956,311.688c-0.073,0-0.148-0.008-0.225-0.024c-0.56-0.125-0.914-0.679-0.79-1.241c0.351-1.585,0.94-2.988,1.746-4.17   c0.327-0.473,0.973-0.591,1.446-0.272c0.473,0.324,0.595,0.972,0.272,1.446c-0.658,0.961-1.139,2.122-1.433,3.448   C33.864,311.358,33.433,311.688,32.956,311.688z M37.59,305.107c-0.361,0-0.715-0.191-0.906-0.53   c-0.282-0.5-0.106-1.134,0.396-1.415c1.23-0.692,2.66-1.182,4.252-1.453c0.554-0.097,1.103,0.282,1.2,0.85   c0.095,0.565-0.284,1.103-0.851,1.199c-1.354,0.231-2.56,0.641-3.582,1.215C37.939,305.064,37.762,305.107,37.59,305.107z    M49.766,304.145c-0.087,0-0.179-0.011-0.266-0.035c-0.018-0.005-1.677-0.439-3.9-0.553c-0.575-0.03-1.015-0.519-0.985-1.092   c0.03-0.572,0.451-1.032,1.09-0.985c2.455,0.127,4.254,0.601,4.329,0.621c0.554,0.147,0.883,0.717,0.737,1.271   C50.647,303.838,50.225,304.145,49.766,304.145z"/>
	<path style="fill:#241726;" d="M469.929,235.9c-0.028,0-0.055-0.001-0.083-0.003c-1.547-0.122-3.013-0.486-4.357-1.083   c-0.524-0.234-0.761-0.848-0.528-1.373c0.233-0.526,0.849-0.76,1.373-0.528c1.127,0.502,2.363,0.808,3.675,0.911   c0.573,0.045,1.001,0.545,0.954,1.118C470.919,235.487,470.465,235.9,469.929,235.9z M474.06,235.633   c-0.485,0-0.92-0.342-1.017-0.838c-0.112-0.563,0.254-1.111,0.816-1.221c1.239-0.246,2.499-0.646,3.744-1.19   c0.528-0.225,1.139,0.01,1.368,0.537s-0.01,1.139-0.536,1.37c-1.383,0.603-2.786,1.048-4.17,1.322   C474.197,235.627,474.127,235.633,474.06,235.633z M481.656,232.37c-0.333,0-0.662-0.16-0.863-0.459   c-0.321-0.476-0.195-1.122,0.282-1.443c1.086-0.733,2.132-1.571,3.109-2.491c0.418-0.393,1.078-0.376,1.468,0.043   c0.394,0.418,0.376,1.076-0.043,1.47c-1.058,0.998-2.191,1.908-3.372,2.702C482.058,232.312,481.857,232.37,481.656,232.37z    M487.682,226.692c-0.223,0-0.447-0.07-0.635-0.216c-0.455-0.351-0.538-1.004-0.187-1.458c0.81-1.053,1.541-2.178,2.168-3.344   c0.274-0.505,0.906-0.693,1.409-0.422c0.506,0.273,0.694,0.904,0.422,1.409c-0.682,1.265-1.474,2.485-2.355,3.626   C488.302,226.553,487.993,226.692,487.682,226.692z M491.605,219.399c-0.11,0-0.223-0.017-0.333-0.055   c-0.544-0.185-0.837-0.775-0.652-1.319c0.426-1.257,0.745-2.554,0.946-3.857c0.087-0.565,0.631-0.955,1.186-0.868   c0.569,0.088,0.956,0.619,0.869,1.187c-0.219,1.42-0.566,2.835-1.031,4.206C492.444,219.126,492.038,219.399,491.605,219.399z    M492.864,211.225c-0.564,0-1.027-0.451-1.04-1.017c-0.026-1.305-0.173-2.634-0.428-3.952c-0.112-0.563,0.256-1.109,0.82-1.219   c0.55-0.112,1.109,0.257,1.218,0.821c0.282,1.433,0.439,2.882,0.469,4.305c0.012,0.575-0.443,1.05-1.017,1.062   C492.878,211.225,492.87,211.225,492.864,211.225z M491.313,203.092c-0.43,0-0.83-0.268-0.981-0.696   c-0.449-1.279-0.979-2.52-1.578-3.687c-0.262-0.511-0.059-1.137,0.453-1.399c0.508-0.26,1.137-0.06,1.399,0.451   c0.642,1.252,1.208,2.581,1.687,3.949c0.191,0.541-0.095,1.135-0.638,1.324C491.542,203.074,491.426,203.092,491.313,203.092z    M487.52,195.726c-0.323,0-0.644-0.151-0.847-0.436c-0.776-1.086-1.639-2.115-2.564-3.059c-0.402-0.41-0.394-1.068,0.014-1.47   c0.414-0.403,1.07-0.395,1.472,0.014c0.999,1.02,1.933,2.133,2.771,3.307c0.333,0.467,0.225,1.117-0.242,1.45   C487.94,195.663,487.729,195.726,487.52,195.726z M464.432,191.949c-1.025,0-1.888-0.373-2.491-1.077   c-0.374-0.436-0.323-1.092,0.114-1.466c0.435-0.372,1.094-0.323,1.466,0.114c0.128,0.15,0.363,0.35,0.912,0.35   c0.477,0,1.078-0.157,1.738-0.455c0.516-0.231,1.137-0.003,1.375,0.521c0.236,0.524,0.002,1.139-0.522,1.376   C466.085,191.735,465.212,191.949,464.432,191.949z M481.717,189.816c-0.215,0-0.432-0.067-0.619-0.204   c-1.066-0.791-2.203-1.499-3.381-2.104c-0.512-0.263-0.713-0.89-0.449-1.401c0.264-0.51,0.889-0.71,1.399-0.449   c1.279,0.658,2.514,1.426,3.669,2.284c0.461,0.341,0.558,0.993,0.215,1.454C482.349,189.671,482.034,189.816,481.717,189.816z    M470.038,189.091c-0.29,0-0.579-0.121-0.784-0.357c-0.378-0.433-0.331-1.09,0.102-1.467c0.658-0.573,1.318-1.219,1.969-1.93   c-0.386-0.065-0.765-0.116-1.143-0.154c-0.571-0.059-0.987-0.569-0.928-1.14c0.059-0.573,0.581-0.971,1.139-0.929   c1.389,0.142,2.824,0.443,4.268,0.894c0.548,0.171,0.853,0.754,0.682,1.303c-0.173,0.546-0.747,0.856-1.303,0.681   c-0.136-0.043-0.274-0.084-0.412-0.124c-0.948,1.117-1.927,2.115-2.908,2.968C470.524,189.007,470.28,189.091,470.038,189.091z    M462.617,187.336c-0.203,0-0.406-0.058-0.585-0.181c-0.475-0.323-0.597-0.97-0.274-1.444c0.812-1.193,2.258-2.033,4.179-2.431   c0.554-0.112,1.113,0.245,1.228,0.807c0.118,0.562-0.244,1.113-0.806,1.229c-1.364,0.282-2.388,0.838-2.883,1.564   C463.275,187.177,462.948,187.336,462.617,187.336z M475.413,182.775c-0.197,0-0.394-0.055-0.571-0.171   c-0.479-0.316-0.613-0.96-0.298-1.44c0.723-1.099,1.407-2.276,2.039-3.498c0.264-0.511,0.891-0.713,1.401-0.448   c0.51,0.263,0.711,0.89,0.447,1.4c-0.664,1.287-1.387,2.528-2.148,3.687C476.083,182.61,475.75,182.775,475.413,182.775z    M479.228,175.398c-0.128,0-0.258-0.023-0.384-0.073c-0.534-0.212-0.794-0.816-0.583-1.35c0.499-1.258,0.944-2.549,1.318-3.838   c0.162-0.551,0.729-0.87,1.289-0.708c0.552,0.16,0.869,0.737,0.709,1.288c-0.394,1.352-0.859,2.707-1.383,4.025   C480.032,175.151,479.642,175.398,479.228,175.398z M481.555,167.426c-0.067,0-0.134-0.006-0.199-0.019   c-0.564-0.109-0.932-0.655-0.824-1.218c0.256-1.312,0.451-2.663,0.583-4.017c0.057-0.572,0.581-0.979,1.137-0.933   c0.571,0.056,0.989,0.564,0.934,1.136c-0.14,1.418-0.345,2.834-0.611,4.21C482.476,167.081,482.042,167.426,481.555,167.426z    M482.367,159.161c-0.006,0-0.012,0-0.018,0c-0.575-0.011-1.031-0.484-1.021-1.059l0.002-0.313c0-1.2-0.049-2.413-0.142-3.606   c-0.047-0.57,0.372-1.136,0.942-1.185c0.558-0.048,1.066,0.306,1.119,0.875c0.002,0.015,0.012,0.163,0.012,0.179   c0.097,1.214,0.148,2.483,0.148,3.737l-0.002,0.351C483.396,158.709,482.933,159.161,482.367,159.161z M481.603,150.901   c-0.479,0-0.91-0.331-1.015-0.817c-0.294-1.339-0.682-2.62-1.157-3.808c-0.211-0.533,0.049-1.138,0.581-1.35   c0.532-0.214,1.139,0.047,1.352,0.581c0.516,1.292,0.938,2.683,1.255,4.133c0.124,0.56-0.231,1.115-0.792,1.238   C481.752,150.893,481.676,150.901,481.603,150.901z M478.511,143.236c-0.341,0-0.676-0.169-0.875-0.478   c-0.715-1.113-1.539-2.146-2.453-3.072c-0.404-0.408-0.4-1.066,0.008-1.47c0.408-0.403,1.066-0.399,1.47,0.01   c1.015,1.027,1.933,2.175,2.725,3.409c0.311,0.483,0.171,1.126-0.313,1.437C478.899,143.183,478.704,143.236,478.511,143.236z    M452.238,140.653c-1.783,0-2.934-1.25-2.934-3.185l1.042-0.078l1.035,0.083c0.002,1.1,0.538,1.1,0.857,1.1   c0.173,0,0.363-0.025,0.573-0.075c0.558-0.135,1.121,0.212,1.253,0.77c0.134,0.558-0.211,1.119-0.77,1.253   C452.928,140.609,452.573,140.653,452.238,140.653z M456.593,138.446c-0.28,0-0.558-0.112-0.763-0.333   c-0.39-0.421-0.363-1.079,0.057-1.47c0.901-0.833,1.718-1.844,2.426-3.002c0.3-0.492,0.944-0.645,1.429-0.344   c0.489,0.299,0.644,0.939,0.345,1.428c-0.808,1.322-1.746,2.48-2.788,3.445C457.099,138.355,456.847,138.446,456.593,138.446z    M472.71,137.369c-0.197,0-0.396-0.055-0.571-0.172c-1.084-0.713-2.26-1.327-3.498-1.825c-0.532-0.215-0.79-0.821-0.575-1.353   c0.217-0.533,0.822-0.787,1.354-0.576c1.364,0.551,2.664,1.229,3.86,2.018c0.481,0.315,0.613,0.959,0.298,1.44   C473.378,137.205,473.047,137.369,472.71,137.369z M452.841,135.349c-0.372,0-0.731-0.2-0.918-0.551   c-0.27-0.508-0.077-1.137,0.43-1.406c1.161-0.618,2.631-1.094,4.252-1.378c0.554-0.092,1.103,0.278,1.202,0.846   c0.099,0.565-0.278,1.104-0.845,1.203c-1.405,0.246-2.662,0.649-3.634,1.164C453.174,135.31,453.005,135.349,452.841,135.349z    M465.056,134.255c-0.071,0-0.14-0.007-0.211-0.021c-1.295-0.265-2.623-0.417-3.945-0.45c-0.575-0.015-1.027-0.491-1.013-1.066   c0.014-0.564,0.477-1.013,1.04-1.013c0.008,0,0.016,0,0.026,0c1.444,0.037,2.893,0.202,4.311,0.492   c0.562,0.115,0.924,0.664,0.81,1.226C465.971,133.915,465.539,134.255,465.056,134.255z M460.942,131.457   c-0.11,0-0.219-0.017-0.329-0.053c-0.544-0.182-0.839-0.771-0.658-1.315c0.408-1.223,0.692-2.517,0.847-3.845   c0.067-0.57,0.595-0.984,1.153-0.912c0.571,0.067,0.979,0.583,0.914,1.153c-0.173,1.468-0.489,2.901-0.94,4.259   C461.783,131.182,461.379,131.457,460.942,131.457z M461.931,123.255c-0.544,0-1.001-0.421-1.038-0.971   c-0.085-1.286-0.282-2.614-0.585-3.948c-0.128-0.56,0.223-1.117,0.784-1.245c0.564-0.13,1.115,0.224,1.243,0.784   c0.327,1.44,0.54,2.876,0.633,4.271c0.039,0.573-0.396,1.068-0.969,1.107C461.978,123.254,461.953,123.255,461.931,123.255z    M460.128,115.167c-0.426,0-0.828-0.265-0.979-0.69l0.895-0.571l-0.973,0.369c-0.471-1.242-0.987-2.412-1.535-3.48   c-0.262-0.511-0.059-1.137,0.451-1.399c0.512-0.26,1.139-0.06,1.401,0.451c0.581,1.136,1.129,2.378,1.628,3.691l0.089,0.241   c0.193,0.541-0.089,1.136-0.629,1.329C460.361,115.148,460.244,115.167,460.128,115.167z M456.286,107.826   c-0.317,0-0.629-0.144-0.832-0.418c-0.828-1.108-1.724-2.064-2.666-2.843c-0.443-0.365-0.506-1.02-0.14-1.463   c0.365-0.444,1.025-0.506,1.464-0.139c1.07,0.883,2.081,1.96,3.007,3.202c0.343,0.46,0.25,1.112-0.211,1.455   C456.721,107.759,456.504,107.826,456.286,107.826z M437.871,103.856c-0.349,0-0.69-0.176-0.885-0.493   c-0.303-0.488-0.152-1.128,0.337-1.429c0.067-0.042,1.691-1.037,4.142-1.664c0.566-0.142,1.123,0.193,1.265,0.749   c0.142,0.556-0.193,1.123-0.749,1.265c-2.126,0.544-3.551,1.41-3.565,1.419C438.244,103.806,438.056,103.856,437.871,103.856z    M449.895,102.687c-0.126,0-0.254-0.023-0.38-0.072c-1.169-0.459-2.418-0.716-3.712-0.763c-0.573-0.021-1.021-0.504-1.001-1.077   c0.024-0.573,0.432-1.063,1.078-1c1.527,0.056,3.005,0.36,4.394,0.906c0.534,0.209,0.798,0.812,0.589,1.347   C450.703,102.437,450.309,102.687,449.895,102.687z"/>
	<g>
		<path style="fill:#E8B500;" d="M98.597,358.963c0,0,320.791-2.646,326.322,0c5.531,2.646,37.333,91.275,34.568,95.244    c-2.765,3.968-396.841,2.646-396.841-2.646C62.646,446.27,98.597,358.963,98.597,358.963z"/>
		<g>
			<path style="fill:#B1739A;" d="M143.127,408.583c0,0-4.764-13.076,10.943-20.362c15.707-7.286,18.743,13.663,39.863,8.23     c21.12-5.433,36.367,9.945,23.158,32.781C203.883,452.068,153.155,426.101,143.127,408.583z"/>
			<path style="fill:#241726;" d="M185.709,404.537c-14.229,0-20.371-9.548-20.446-9.667c-0.303-0.486-0.154-1.126,0.333-1.429     c0.487-0.309,1.127-0.155,1.431,0.329c0.341,0.541,8.57,13.173,29.169,7.042c0.558-0.168,1.131,0.15,1.293,0.699     c0.162,0.55-0.15,1.129-0.7,1.292C192.655,404.035,188.969,404.537,185.709,404.537z"/>
			<path style="fill:#52AFA6;" d="M134.972,388.807c0,0,5.799-8.615,8.238-7.114s1.98,8.606,4.73,9.693     c2.75,1.086,6.583-3.171,8.554-2.343c1.972,0.828-4.193,6.902-4.193,6.902s9.08,3.88,6.437,6.112     c-2.642,2.233-11.046,0.479-11.046,0.479s-2.996,3.192-4.974,4.05s-1.353-4.251,0.508-9.335     C144.118,394.816,133.834,391.193,134.972,388.807z"/>
		</g>
		<g>
			<path style="fill:#E38B72;" d="M382.425,275.384c0,0,15.94,7.623,16.269,2.997c0.77-10.826,2.079-65.492,5.198-65.492     s33.266,2.079,33.266,2.079s14.554,104.996-4.158,124.747s-70.846-16.512-70.846-16.512     C369.95,310.209,382.425,275.384,382.425,275.384z"/>
			<path style="fill:#E38B72;" d="M291.527,167.309c7.601-16.251,19.109-46.318,3.802-52.818c0,0-40.633-31.249-63.555-13.949     c-6.121,4.62-13.978,19.345-19.372,34.745c-2.636-4.384-6.529-7.857-11.25-3.05c-8.996,9.159-9.57,26.612,1.624,30.513     c1.251,0.436,2.384,0.525,3.419,0.365c-1.333,26.738,15.301,37.292,27.107,40.771c-1.565,8.4-3.668,17.417-5.771,19.52     c-4.158,4.158-14.9,9.009-14.9,9.009s-6.93,27.029,24.949,29.801c56.767,4.936,43.38-35.069,36.103-40.266l3.359-27.073     c1.195-1.138,2.232-2.306,3.14-3.474c0.491,0.432,1.072,0.823,1.764,1.159c10.662,5.181,22.625-7.54,22.769-20.377     C304.806,164.009,297.122,165.297,291.527,167.309z"/>
			<path style="fill:#52AFA6;" d="M385.529,264.645c-24.359-27.282-56.923-34.171-60.913-34.928     c-13.986-4.899-38.725-7.351-45.108-7.351c-8.316,0-21.831,31.187-34.305,25.989c-12.475-5.198-22.132-24.434-22.132-24.434     c-63.958,3.899-99.843,66.016-99.843,66.016c-8.316,7.277,34.326,65.511,42.642,62.392c2.532-0.949,6.348-4.604,10.429-9.22     c0.116,10.337,0.549,17.257,1.332,17.518c3.119,1.04,148.657-2.079,148.657-2.079s3.243-16.103,5.335-41.417     c11.747,7.782,22.614,11.793,27.328,8.847C367.267,320.781,389.683,269.298,385.529,264.645z"/>
			<path style="fill:#B1739A;" d="M203.253,360.692c0,0,6.605-88.427,9.724-87.387c3.119,1.04,77.967-8.316,82.125-2.079     c4.158,6.237,17.887,89.171,17.887,89.171L203.253,360.692z"/>
			<path style="fill:#241726;" d="M263.133,173.206c-0.047,0-0.091-0.002-0.136-0.007c-0.475-0.049-0.873-0.29-1.119-0.679     c-1.293-2.047,1.58-11.005,3.405-16.162c0.193-0.541,0.784-0.82,1.328-0.632c0.54,0.192,0.824,0.786,0.633,1.327     c-1.941,5.48-3.762,11.984-3.669,13.961c1.874-0.81,7.255-5.668,11.608-10.147c0.402-0.411,1.058-0.419,1.47-0.02     c0.412,0.4,0.42,1.058,0.02,1.47C272.69,166.415,265.702,173.206,263.133,173.206z"/>
			<path style="fill:#241726;" d="M227.985,159.713c-0.071,0-0.13-0.007-0.187-0.013c-0.524-0.06-0.938-0.418-1.107-0.959     c-0.753-2.427-0.668-15.254-0.656-16.709c0.004-0.571,0.469-1.03,1.04-1.03c0.002,0,0.006,0,0.008,0     c0.575,0.005,1.035,0.474,1.031,1.049c-0.041,4.761,0.035,11.927,0.368,14.928c1.736-1.968,5.356-7.57,8.282-12.587     c0.288-0.497,0.928-0.663,1.421-0.375c0.495,0.289,0.664,0.926,0.374,1.422C230.769,158.797,228.785,159.713,227.985,159.713z"/>
			<path style="fill:#241726;" d="M296.048,184.607c-0.118,0-0.238-0.02-0.355-0.063c-0.54-0.196-0.818-0.792-0.621-1.332     c0.954-2.629,1.291-5.531,0.682-5.857c-0.924-0.178-5.35,2.65-9.399,6.109c-0.437,0.374-1.092,0.325-1.466-0.115     c-0.374-0.437-0.323-1.092,0.114-1.466c3.399-2.901,9.441-7.585,11.73-6.362c2.601,1.391,0.881,6.782,0.292,8.401     C296.87,184.345,296.472,184.607,296.048,184.607z"/>
			<path style="fill:#241726;" d="M207.145,154.168c-0.538,0-0.993-0.415-1.035-0.96c-0.404-5.306-1.5-10.442-2.345-10.989     c-0.599-0.188-2.434,2.101-3.626,4.632c-0.244,0.52-0.861,0.741-1.383,0.499c-0.52-0.245-0.743-0.863-0.499-1.383     c0.733-1.559,3.336-6.589,6.162-5.719c2.485,0.759,3.425,8.346,3.766,12.801c0.043,0.573-0.386,1.072-0.958,1.116     C207.2,154.167,207.174,154.168,207.145,154.168z"/>
			<circle style="fill:#DF4F3E;" cx="267.789" cy="185.315" r="7.835"/>
			<circle style="fill:#DF4F3E;" cx="218.819" cy="169.141" r="7.835"/>
			<path style="fill:#241726;" d="M246.214,174.836c-0.183,0-0.367-0.048-0.536-0.148c-1.533-0.921-5.902-3.429-7.675-3.968     c-0.439-0.134-0.772-0.453-0.934-0.897c-0.881-2.404,5.34-12.626,9.127-18.504c0.309-0.482,0.952-0.622,1.435-0.312     c0.483,0.311,0.623,0.954,0.311,1.437c-4.207,6.535-8.623,14.383-8.897,16.435c2.554,0.943,7.484,3.894,7.705,4.027     c0.491,0.295,0.652,0.934,0.355,1.426C246.911,174.656,246.565,174.836,246.214,174.836z"/>
			<path style="fill:#241726;" d="M238.113,190.539c-0.355,0-0.705-0.05-1.048-0.156c-2.942-0.917-4.179-5.347-3.886-13.945     c0.022-0.574,0.518-1.046,1.074-1.003c0.575,0.019,1.023,0.5,1.005,1.074c-0.339,9.943,1.584,11.626,2.426,11.888     c2.426,0.764,7.452-5.005,10.231-9.34c0.311-0.484,0.958-0.624,1.435-0.315c0.483,0.31,0.625,0.952,0.315,1.435     C248.496,182.005,242.779,190.539,238.113,190.539z"/>
			<path style="fill:#241726;" d="M248.255,207.906c-6.315,0-13.094-1.517-19.303-6.031c-0.465-0.337-0.566-0.988-0.229-1.452     c0.339-0.467,0.989-0.564,1.452-0.229c17.733,12.894,40.705-0.322,40.937-0.459c0.491-0.291,1.131-0.124,1.421,0.37     c0.292,0.495,0.126,1.132-0.367,1.423C272.002,201.622,261.099,207.906,248.255,207.906z"/>
			<path style="fill:#B45036;" d="M264.764,98.837c0,0-1.161-39.486-37.286-30.104s-20.171,56.754-34.688,58.221     c-14.517,1.467,14.12,20.385,29.523,13.692s19.529-43.215,34.321-35.33c14.792,7.885,21.918,3.272,29.555,13.536     c7.638,10.264-4.49,36.665,5.198,47.82c9.688,11.155,26.463,4.445,30.436-1.912s-4.629-9.529-3.681-12.677     c0.947-3.148,19.146-27.298,2.795-52.817S271.549,81.998,264.764,98.837z"/>
			<path style="fill:#241726;" d="M218.845,135.486c-0.339,0-0.694-0.036-1.07-0.109c-0.562-0.11-0.932-0.655-0.822-1.218     c0.11-0.565,0.664-0.934,1.22-0.822c3.271,0.633,4.469-4.219,6.144-12.196c2.114-10.067,4.743-22.595,15.593-25.768     c7.699-2.248,12.745-2.153,15.009,0.278c2.095,2.249,0.94,5.449,0.889,5.585c-0.201,0.537-0.802,0.813-1.336,0.612     c-0.538-0.2-0.812-0.796-0.615-1.333c0.016-0.045,0.751-2.16-0.467-3.456c-0.95-1.015-3.898-2.322-12.895,0.31     c-9.657,2.822-12.144,14.675-14.144,24.198C224.792,128.999,223.431,135.485,218.845,135.486z"/>
			<path style="fill:#241726;" d="M207.846,125.267c-0.412,0-0.8-0.246-0.964-0.651c-0.215-0.533,0.043-1.138,0.577-1.353     c8.4-3.386,8.633-10.98,8.881-19.022c0.27-8.794,0.575-18.761,12.858-22.647c8.392-2.656,15.08-2.509,19.88,0.44     c5.251,3.226,6.183,8.597,6.219,8.824c0.093,0.565-0.29,1.097-0.855,1.191c-0.577,0.099-1.103-0.289-1.196-0.853     c-0.008-0.047-0.845-4.697-5.287-7.409c-4.258-2.6-10.357-2.673-18.135-0.211c-10.877,3.443-11.133,11.839-11.407,20.729     c-0.256,8.354-0.522,16.993-10.182,20.887C208.108,125.243,207.976,125.267,207.846,125.267z"/>
			<path style="fill:#241726;" d="M297.884,156.217c-0.16,0-0.321-0.037-0.473-0.114c-8.185-4.172-5.508-12.627-2.92-20.802     c2.396-7.571,4.875-15.4,0.067-21.095c-10-11.842-18.665-8.057-19.027-7.888c-0.524,0.233-1.139,0.013-1.379-0.507     c-0.242-0.519-0.02-1.134,0.497-1.378c0.42-0.197,10.416-4.69,21.496,8.43c5.549,6.57,2.776,15.332,0.327,23.064     c-2.54,8.022-4.733,14.951,1.884,18.323c0.51,0.261,0.715,0.886,0.453,1.398C298.627,156.01,298.261,156.217,297.884,156.217z"/>
			<path style="fill:#241726;" d="M313.359,151.152c-0.189,0-0.38-0.051-0.55-0.158c-3.029-1.892-1.988-6.967-0.546-13.992     c2.42-11.789,5.734-27.936-7.188-39.286c-5.992-5.265-12.04-7.537-17.957-6.752c-9.827,1.301-16.162,10.672-16.225,10.766     c-0.321,0.481-0.969,0.604-1.442,0.291c-0.477-0.318-0.609-0.961-0.292-1.441c0.276-0.417,6.899-10.241,17.67-11.676     c6.544-0.876,13.149,1.566,19.618,7.25c13.829,12.146,10.231,29.67,7.852,41.266c-1.176,5.734-2.193,10.685-0.39,11.812     c0.487,0.304,0.635,0.945,0.331,1.432C314.043,150.979,313.704,151.152,313.359,151.152z"/>
			<path style="fill:#FBFCFF;" d="M290.944,270.186c-0.122,0-0.246-0.021-0.368-0.067c-0.538-0.203-0.808-0.803-0.605-1.34     c10.357-27.388,0.175-45.713,0.071-45.895c-0.284-0.498-0.114-1.133,0.384-1.419c0.499-0.286,1.131-0.116,1.419,0.383     c0.445,0.776,10.796,19.306,0.071,47.666C291.758,269.93,291.364,270.186,290.944,270.186z"/>
			<path style="fill:#241726;" d="M246.6,256.595c-8.138,0-15.792-6.566-22.757-19.528c-0.272-0.506-0.081-1.136,0.424-1.408     c0.504-0.27,1.137-0.083,1.407,0.423c6.702,12.473,13.792,18.7,21.36,18.427c14.527-0.479,25.869-25.048,25.983-25.296     c0.24-0.523,0.857-0.751,1.377-0.516c0.522,0.238,0.753,0.854,0.516,1.377c-0.481,1.061-11.991,25.987-27.804,26.513     C246.937,256.593,246.768,256.595,246.6,256.595z"/>
			<path style="fill:#E17B8D;" d="M392.457,222.245c0,0-21.831-53.018-10.396-60.294s14.554,6.237,14.554,6.237     s-3.119-33.266,17.673-38.464c20.791-5.198,34.305,20.791,31.187,53.018s4.158,41.582-8.316,39.503     C424.683,220.166,397.654,238.878,392.457,222.245z"/>
			<path style="fill:#241726;" d="M398.692,317.885c-0.493,0-0.932-0.354-1.021-0.859c-0.032-0.179-3.113-18.08-0.004-38.799     c0.085-0.57,0.617-0.959,1.182-0.874c0.569,0.085,0.958,0.615,0.873,1.183c-3.058,20.387-0.035,37.954-0.004,38.129     c0.099,0.565-0.278,1.105-0.843,1.204C398.814,317.88,398.753,317.885,398.692,317.885z"/>
			<path style="fill:#FBFCFF;" d="M212.977,274.344c-0.368,0-0.725-0.197-0.914-0.544c-13.557-25.027-7.429-48.356-7.366-48.588     c0.15-0.552,0.717-0.878,1.275-0.73c0.554,0.151,0.881,0.722,0.731,1.276c-0.061,0.224-5.955,22.787,7.188,47.051     c0.274,0.506,0.085,1.136-0.418,1.409C213.314,274.304,213.145,274.344,212.977,274.344z"/>
			<path style="fill:#241726;" d="M303.416,353.351c-0.489,0-0.926-0.348-1.019-0.847l-13.348-70.842l-65.738,3.034l-4.099,65.601     c-0.037,0.572-0.473,0.998-1.102,0.973c-0.573-0.036-1.009-0.529-0.973-1.103l4.158-66.532c0.032-0.529,0.459-0.949,0.989-0.974     l67.571-3.119c0.522-0.043,0.975,0.337,1.07,0.846l13.514,71.73c0.106,0.564-0.264,1.109-0.828,1.214     C303.546,353.345,303.481,353.351,303.416,353.351z"/>
			<path style="fill:#241726;" d="M177.762,337.849c-0.359,0-0.711-0.188-0.904-0.524c-4.256-7.447-2.453-61.864-2.376-64.177     c0.02-0.574,0.542-1.05,1.074-1.003c0.575,0.019,1.023,0.501,1.005,1.074c-0.532,15.59-1.188,57.315,2.103,63.074     c0.284,0.498,0.112,1.133-0.388,1.418C178.115,337.805,177.938,337.849,177.762,337.849z"/>
			<path style="fill:#241726;" d="M330.447,320.085c-0.089,0-0.183-0.011-0.274-0.037c-0.554-0.151-0.879-0.723-0.729-1.276     c3.025-11.096-3.082-52.177-3.143-52.59c-0.085-0.567,0.305-1.097,0.873-1.183c0.564-0.069,1.096,0.305,1.182,0.874     c0.256,1.707,6.235,41.932,3.094,53.445C331.324,319.781,330.904,320.085,330.447,320.085z"/>
			<path style="fill:#241726;" d="M396.703,223.9c-0.408,0-0.794-0.242-0.96-0.642c-0.219-0.531,0.032-1.139,0.562-1.358     c0.946-0.393,23.337-9.641,40.841-9.281c0.573,0.011,1.029,0.485,1.019,1.059c-0.01,0.567-0.475,1.02-1.04,1.02     c-0.006,0-0.012,0-0.02,0c-17.061-0.366-39.775,9.029-40.005,9.123C396.971,223.875,396.835,223.9,396.703,223.9z"/>
			<path style="fill:#241726;" d="M45.31,184.152c0,0,149.204-7.253,151.482-5.393c2.278,1.859,4.864,48.094,3.731,52.388     c-1.133,4.294-160.732,12.075-161.616,8.508C38.024,236.087,42.934,186.482,45.31,184.152z"/>
			<path style="fill:#D98011;" d="M184.707,206.561c0,0-114.229,5.678-126.816,4.449s8.993-51.667,60.781-56.228     S200.668,196.099,184.707,206.561z"/>
			<path style="fill:#241726;" d="M118.239,188.265c-0.128,0-0.26-0.023-0.386-0.074c-0.534-0.213-0.792-0.818-0.579-1.351     c4.771-11.942-2.822-27.962-2.899-28.122c-0.25-0.518-0.032-1.139,0.485-1.388c0.512-0.247,1.139-0.034,1.387,0.484     c0.333,0.688,8.071,16.997,2.956,29.797C119.041,188.018,118.651,188.265,118.239,188.265z"/>
			<path style="fill:#241726;" d="M96.879,188.858c-0.548,0-1.007-0.428-1.038-0.982c-0.613-11.073-6.262-21.797-6.319-21.905     c-0.27-0.507-0.077-1.136,0.428-1.406c0.504-0.27,1.135-0.079,1.407,0.429c0.242,0.454,5.921,11.241,6.558,22.766     c0.032,0.574-0.406,1.064-0.981,1.095C96.918,188.858,96.897,188.858,96.879,188.858z"/>
			<path style="fill:#241726;" d="M78.892,196.947c-0.051,0-0.102-0.003-0.152-0.011c-0.566-0.082-0.96-0.609-0.879-1.178     c0.861-5.929-5.206-16.439-5.267-16.545c-0.29-0.495-0.122-1.132,0.374-1.421c0.491-0.286,1.131-0.122,1.421,0.376     c0.266,0.456,6.495,11.243,5.531,17.889C79.844,196.574,79.399,196.947,78.892,196.947z"/>
			<path style="fill:#241726;" d="M141.046,186.481c-0.262,0-0.526-0.098-0.727-0.297c-0.41-0.401-0.418-1.06-0.016-1.47     c4.325-4.412,1.665-19.301,0.276-24.665c-0.144-0.556,0.191-1.124,0.747-1.267c0.562-0.148,1.123,0.191,1.267,0.745     c0.215,0.834,5.218,20.495-0.804,26.643C141.584,186.377,141.316,186.481,141.046,186.481z"/>
			<path style="fill:#241726;" d="M165.153,192.402c-0.183,0-0.37-0.048-0.536-0.149c-0.491-0.296-0.65-0.935-0.355-1.427     c0.065-0.107,6.451-10.849,4.162-18.941c-0.156-0.553,0.166-1.128,0.719-1.283c0.548-0.159,1.127,0.165,1.283,0.717     c2.534,8.965-4.099,20.112-4.384,20.582C165.847,192.223,165.504,192.402,165.153,192.402z"/>
			<path style="fill:#E38B72;" d="M154.996,323.933c-4.295-37.406-12.01-85.608-12.01-85.608s-9.767-18.097-15.597-17.005     c-5.83,1.092-0.098,9.811-0.098,9.811s-6.468-9.606-9.865-8.286c-3.396,1.319,0.562,11.509,0.562,11.509     s-6.825-14.549-10.449-10.796c-3.624,3.753-0.909,9.735-0.909,9.735s-7.863-12.191-10.092-5.852     c-2.144,6.098,0.078,22.371,19.813,24.702c1.86,14.85-12.766,96.963-7.599,110.396c0.038,0.248,0.121,0.469,0.288,0.64     c18.022,33.792,39.555,15.435,46.351,5.793c12.027-10.521,19.153-28.044,19.972-32.961     C176.546,328.916,162.426,325.323,154.996,323.933z"/>
			<path style="fill:#241726;" d="M156.985,351.433c-0.562,0-1.025-0.449-1.04-1.014c-0.008-0.326-0.83-32.635-3.906-39.557     c-0.233-0.525,0.004-1.139,0.528-1.373c0.524-0.232,1.139,0.003,1.373,0.528c3.243,7.298,4.053,39.005,4.085,40.351     c0.014,0.574-0.441,1.051-1.013,1.065C157.001,351.433,156.993,351.433,156.985,351.433z"/>
			<g>
				<path style="fill:#241726;" d="M342.402,245.971c-0.445,0-0.855-0.286-0.993-0.732c-0.449-1.447-1.103-2.335-1.945-2.64      c-1.237-0.448-2.623,0.422-2.635,0.43c-0.477,0.313-1.125,0.177-1.438-0.306c-0.313-0.481-0.177-1.125,0.305-1.439      c0.091-0.059,2.254-1.443,4.475-0.642c1.488,0.538,2.573,1.877,3.224,3.98c0.171,0.548-0.136,1.131-0.686,1.3      C342.607,245.955,342.503,245.971,342.402,245.971z"/>
				<path style="fill:#241726;" d="M331.326,251.199c-0.445,0-0.855-0.286-0.993-0.732c-0.449-1.447-1.103-2.335-1.945-2.64      c-1.237-0.449-2.623,0.421-2.635,0.43c-0.479,0.311-1.125,0.177-1.438-0.306c-0.313-0.481-0.177-1.125,0.305-1.439      c0.091-0.059,2.258-1.443,4.475-0.642c1.488,0.538,2.573,1.877,3.224,3.98c0.171,0.548-0.136,1.131-0.686,1.3      C331.531,251.184,331.428,251.199,331.326,251.199z"/>
				<path style="fill:#241726;" d="M342.455,254.389c-0.445,0-0.855-0.286-0.993-0.732c-0.449-1.447-1.103-2.335-1.945-2.64      c-1.234-0.446-2.623,0.422-2.635,0.431c-0.477,0.313-1.125,0.177-1.438-0.306c-0.313-0.481-0.177-1.125,0.305-1.439      c0.091-0.058,2.264-1.443,4.475-0.643c1.488,0.538,2.573,1.877,3.224,3.98c0.171,0.548-0.136,1.131-0.686,1.3      C342.66,254.373,342.556,254.389,342.455,254.389z"/>
				<path style="fill:#241726;" d="M362.361,255.328c-0.445,0-0.855-0.286-0.993-0.732c-0.449-1.447-1.102-2.335-1.943-2.639      c-1.245-0.446-2.625,0.421-2.637,0.43c-0.479,0.312-1.125,0.178-1.438-0.306c-0.313-0.481-0.177-1.126,0.305-1.439      c0.091-0.059,2.262-1.444,4.477-0.642c1.488,0.539,2.572,1.878,3.222,3.98c0.171,0.549-0.138,1.131-0.686,1.3      C362.566,255.312,362.462,255.328,362.361,255.328z"/>
				<path style="fill:#241726;" d="M354.704,248.702c-0.445,0-0.855-0.286-0.993-0.732c-0.449-1.447-1.103-2.334-1.945-2.638      c-1.234-0.45-2.623,0.421-2.635,0.43c-0.479,0.312-1.125,0.177-1.438-0.306c-0.313-0.481-0.177-1.125,0.305-1.439      c0.091-0.059,2.266-1.445,4.475-0.642c1.488,0.538,2.572,1.876,3.224,3.979c0.171,0.548-0.136,1.131-0.684,1.3      C354.909,248.686,354.806,248.702,354.704,248.702z"/>
				<path style="fill:#241726;" d="M353.774,256.698c-0.449,0-0.861-0.291-0.997-0.742c-0.595-2-1.417-3.23-2.374-3.558      c-0.885-0.305-1.72,0.255-1.73,0.261c-0.465,0.331-1.115,0.227-1.45-0.243c-0.333-0.468-0.225-1.117,0.244-1.451      c0.067-0.049,1.691-1.196,3.61-0.534c1.643,0.563,2.885,2.222,3.693,4.93c0.162,0.55-0.15,1.13-0.701,1.293      C353.973,256.684,353.872,256.698,353.774,256.698z"/>
				<path style="fill:#241726;" d="M322.137,241.756c-0.258,0-0.518-0.095-0.719-0.288c-0.414-0.398-0.428-1.056-0.033-1.47      c0.085-0.089,2.083-2.15,4.775-2.118c1.537,0.032,2.934,0.748,4.148,2.129c0.38,0.431,0.339,1.088-0.093,1.468      c-0.43,0.378-1.088,0.336-1.466-0.093c-0.826-0.939-1.687-1.405-2.633-1.425c-1.756,0.017-3.212,1.463-3.228,1.477      C322.683,241.648,322.411,241.756,322.137,241.756z"/>
			</g>
			<g>
				<path style="fill:#241726;" d="M159.772,258.95c-0.059,0-0.12-0.005-0.179-0.015c-0.564-0.099-0.942-0.632-0.847-1.196      c0.018-0.108,0.473-2.642,2.564-3.726c1.403-0.73,3.125-0.616,5.108,0.33c0.52,0.247,0.739,0.867,0.491,1.386      c-0.248,0.518-0.867,0.739-1.385,0.49c-1.364-0.648-2.457-0.773-3.249-0.365c-1.172,0.6-1.478,2.223-1.482,2.24      C160.704,258.596,160.266,258.95,159.772,258.95z"/>
				<path style="fill:#241726;" d="M156.103,270.635c-0.059,0-0.12-0.005-0.181-0.015c-0.562-0.099-0.94-0.632-0.845-1.196      c0.018-0.108,0.473-2.642,2.564-3.726c1.407-0.728,3.125-0.618,5.11,0.33c0.52,0.247,0.739,0.867,0.491,1.386      c-0.248,0.518-0.869,0.739-1.385,0.49c-1.362-0.65-2.455-0.774-3.251-0.364c-1.172,0.6-1.478,2.223-1.482,2.24      C157.035,270.281,156.597,270.635,156.103,270.635z"/>
				<path style="fill:#241726;" d="M165.998,264.622c-0.059,0-0.118-0.005-0.177-0.015c-0.566-0.096-0.946-0.633-0.851-1.199      c0.018-0.108,0.473-2.641,2.564-3.726c1.403-0.726,3.125-0.618,5.108,0.33c0.52,0.247,0.739,0.867,0.491,1.386      c-0.25,0.519-0.869,0.738-1.385,0.49c-1.368-0.651-2.461-0.771-3.259-0.36c-1.163,0.604-1.468,2.213-1.47,2.229      C166.934,264.263,166.495,264.622,165.998,264.622z"/>
				<path style="fill:#241726;" d="M180.184,250.624c-0.059,0-0.12-0.005-0.179-0.015c-0.564-0.099-0.942-0.632-0.847-1.196      c0.018-0.108,0.473-2.642,2.564-3.726c1.403-0.729,3.125-0.618,5.108,0.33c0.52,0.247,0.739,0.867,0.491,1.386      c-0.248,0.519-0.869,0.736-1.385,0.49c-1.364-0.648-2.457-0.773-3.249-0.365c-1.172,0.6-1.478,2.223-1.482,2.24      C181.116,250.27,180.677,250.624,180.184,250.624z"/>
				<path style="fill:#241726;" d="M170.123,251.762c-0.059,0-0.118-0.005-0.177-0.015c-0.566-0.096-0.946-0.633-0.851-1.199      c0.018-0.108,0.473-2.641,2.564-3.726c1.403-0.728,3.123-0.619,5.108,0.33c0.52,0.247,0.739,0.867,0.491,1.386      c-0.248,0.52-0.869,0.739-1.385,0.49c-1.366-0.65-2.459-0.771-3.259-0.36c-1.163,0.604-1.468,2.213-1.47,2.229      C171.059,251.404,170.621,251.762,170.123,251.762z"/>
				<path style="fill:#241726;" d="M174.878,256.819c-0.045,0-0.087-0.003-0.132-0.008c-0.571-0.072-0.973-0.592-0.901-1.161      c0.01-0.083,0.278-2.058,2.055-3.017c1.531-0.821,3.594-0.613,6.128,0.63c0.516,0.253,0.729,0.875,0.477,1.391      c-0.254,0.517-0.881,0.73-1.391,0.477c-1.876-0.919-3.334-1.147-4.225-0.669c-0.82,0.443-0.979,1.438-0.981,1.448      C175.841,256.435,175.394,256.819,174.878,256.819z"/>
				<path style="fill:#241726;" d="M149.135,268.357c-0.546,0-1.003-0.424-1.038-0.975c-0.008-0.123-0.166-3.027,1.679-4.946      c1.064-1.107,2.499-1.656,4.38-1.606c0.575,0.013,1.027,0.49,1.015,1.064c-0.014,0.574-0.455,1.022-1.064,1.015      c-1.271-0.019-2.179,0.287-2.832,0.969c-1.2,1.248-1.105,3.354-1.103,3.375c0.037,0.574-0.4,1.067-0.973,1.103      C149.178,268.356,149.155,268.357,149.135,268.357z"/>
			</g>
			<path style="fill:#241726;" d="M131.84,239.224c-0.248,0-0.497-0.088-0.694-0.267c-0.162-0.145-3.982-3.616-5.884-8.515     c-0.209-0.535,0.057-1.138,0.593-1.345c0.534-0.21,1.139,0.056,1.344,0.592c1.726,4.442,5.301,7.691,5.336,7.724     c0.428,0.384,0.463,1.041,0.079,1.468C132.409,239.108,132.125,239.224,131.84,239.224z"/>
			<path style="fill:#241726;" d="M124.941,244.928c-0.14,0-0.282-0.028-0.418-0.088c-7.799-3.434-9.415-12.046-9.48-12.411     c-0.102-0.565,0.276-1.104,0.841-1.205c0.552-0.103,1.103,0.274,1.206,0.839c0.014,0.078,1.505,7.894,8.27,10.875     c0.526,0.231,0.765,0.845,0.534,1.371C125.721,244.697,125.341,244.928,124.941,244.928z"/>
			<path style="fill:#241726;" d="M118.549,246.323c-0.114,0-0.231-0.018-0.345-0.059c-11.5-4.043-12.767-13.816-12.816-14.229     c-0.065-0.57,0.341-1.083,0.91-1.151c0.56-0.075,1.086,0.336,1.155,0.908c0.045,0.361,1.204,8.912,11.441,12.511     c0.542,0.19,0.826,0.784,0.636,1.326C119.38,246.056,118.978,246.323,118.549,246.323z"/>
		</g>
		<g>
			<path style="fill:#E17B8D;" d="M128.253,362.36c-1.04-3.119-14.034-9.616-14.034-9.616l-2.689-36.073     c1.802-0.026,3.119-0.052,3.468-0.052c1.559,0,0.52-3.898-0.52-7.537c-1.04-3.638-22.091-2.339-22.091-2.339     s-1.819,7.797-0.52,9.096c0.285,0.285,1.514,0.479,3.226,0.613c-0.78,11.925,0.413,36.551,0.413,36.551     s-6.497,5.718-11.695,10.915c-4.286,4.286,2.339,71.73,2.339,71.73s41.322-0.52,45.481-0.52     C132.931,435.13,129.292,365.479,128.253,362.36z"/>
			<path style="fill:#FFFFFF;" d="M82.278,379.253c0,0,46.44-3.379,47.848-0.78s2.805,31.187,1.97,32.486     c-1.45,2.256-46.159,3.119-47.566,2.859S81.152,380.813,82.278,379.253z"/>
			<path style="fill:#241726;" d="M84.808,386.53c-0.534,0-0.991-0.411-1.033-0.955c-0.047-0.573,0.38-1.074,0.95-1.121     c3.939-0.321,38.602-3.091,43.156-1.782c0.552,0.159,0.869,0.736,0.711,1.287c-0.16,0.55-0.737,0.868-1.287,0.711     c-3.169-0.917-27.1,0.609-42.409,1.857C84.865,386.529,84.837,386.53,84.808,386.53z"/>
			<path style="fill:#241726;" d="M85.653,410.96c-0.542,0-0.999-0.421-1.035-0.971c-0.039-0.573,0.396-1.068,0.968-1.107     c13.498-0.896,39.826-2.804,42.866-3.606c0.562-0.146,1.125,0.185,1.271,0.74c0.146,0.555-0.185,1.124-0.739,1.27     c-3.99,1.053-41.658,3.564-43.259,3.671C85.7,410.959,85.677,410.96,85.653,410.96z"/>
			<path style="fill:#241726;" d="M106.164,316.62c-0.063,0-0.126-0.005-0.189-0.017c-2.715-0.492-9.064-0.246-9.129-0.244     c-0.552,0.041-1.058-0.423-1.08-0.997c-0.022-0.574,0.424-1.058,0.999-1.08c0.268-0.01,6.643-0.259,9.583,0.276     c0.564,0.103,0.938,0.644,0.837,1.208C107.094,316.269,106.655,316.62,106.164,316.62z"/>
			<path style="fill:#241726;" d="M111.1,310.643c-0.156,0-0.315-0.036-0.465-0.11c-1.149-0.578-8.574-0.661-15.088-0.411     c-0.65,0.039-1.058-0.426-1.08-0.999c-0.02-0.574,0.426-1.057,0.999-1.078c2.302-0.089,13.892-0.476,16.099,0.628     c0.514,0.257,0.721,0.881,0.465,1.395C111.847,310.432,111.48,310.643,111.1,310.643z"/>
			<path style="fill:#241726;" d="M91.346,433.571c-0.483,0-0.918-0.34-1.017-0.833c-0.114-0.562,0.25-1.111,0.812-1.225     c0.904-0.182,22.206-4.43,34.001-1.284c0.554,0.147,0.885,0.717,0.737,1.272c-0.146,0.553-0.715,0.889-1.273,0.736     c-11.323-3.019-32.837,1.27-33.051,1.315C91.484,433.564,91.415,433.571,91.346,433.571z"/>
			<path style="fill:#241726;" d="M108.761,345.988c-0.451,0-0.865-0.293-0.997-0.746c-1.32-4.488-1.84-16.378-1.862-16.882     c-0.024-0.574,0.422-1.059,0.995-1.083c0.638-0.061,1.058,0.42,1.084,0.994c0.004,0.122,0.528,12.139,1.777,16.384     c0.162,0.551-0.152,1.129-0.705,1.29C108.956,345.974,108.858,345.988,108.761,345.988z"/>
			<path style="fill:#241726;" d="M124.874,364.18c-0.343,0-0.678-0.171-0.877-0.481c-1.35-2.122-7.064-4.937-9.153-5.841     c-0.526-0.228-0.767-0.841-0.54-1.367c0.229-0.527,0.837-0.771,1.368-0.541c0.826,0.359,8.144,3.594,10.079,6.633     c0.309,0.484,0.164,1.127-0.319,1.435C125.26,364.127,125.067,364.18,124.874,364.18z"/>
			<path style="fill:#241726;" d="M96.026,400.565c-0.01,0-0.022,0-0.035-0.001c-0.575-0.018-1.023-0.499-1.005-1.073     c0.018-0.506,0.238-4.993,2.749-6.962c1.025-0.802,2.309-1.07,3.701-0.778c3.64,0.766,3.756,3.868,3.813,5.358     c0.002,0.049,0.004,0.099,0.006,0.152c0.684-0.648,1.18-1.785,1.626-2.812c0.707-1.625,1.377-3.16,2.692-3.612     c0.646-0.221,1.326-0.141,2.022,0.239c2.081,1.135,1.967,3.354,1.894,4.824c-0.024,0.479-0.069,1.372,0.077,1.538     c0.558,0.132,1.84-0.995,2.67-1.748c1.691-1.537,4.01-3.637,6.166-1.915c0.449,0.359,0.52,1.013,0.162,1.462     c-0.359,0.45-1.011,0.52-1.462,0.162c-0.719-0.576-1.89,0.394-3.47,1.829c-1.48,1.346-2.889,2.616-4.422,2.272     c-1.963-0.437-1.864-2.404-1.799-3.706c0.075-1.483,0.059-2.418-0.812-2.893c-0.091-0.05-0.264-0.124-0.353-0.097     c-0.451,0.154-1.058,1.551-1.46,2.476c-0.696,1.597-1.484,3.407-2.942,4.136c-0.266,0.133-1.072,0.536-1.821,0.092     c-0.786-0.465-0.82-1.409-0.855-2.322c-0.067-1.794-0.252-2.999-2.16-3.401c-0.794-0.171-1.45-0.045-1.992,0.379     c-1.494,1.173-1.917,4.292-1.953,5.396C97.046,400.122,96.585,400.565,96.026,400.565z"/>
		</g>
		<g>
			<path style="fill:#DF4F3E;" d="M233.383,313.757c0,0,185.678-1.186,187.458,0.791c6.093,6.77,8.135,130.17,4.746,131.299     c-3.389,1.13-190.03,3.144-194.55,0.885C226.517,444.472,225.474,314.886,233.383,313.757z"/>
			<path style="fill:#241726;" d="M244.654,327.994c0,0,131.102-3.164,131.893,0.791s6.328,96.497,3.164,99.661     c-3.164,3.164-136.045,0.791-137.627-1.582C240.501,424.491,238.326,326.412,244.654,327.994z"/>
			<path style="fill:#D98011;" d="M261.857,411.045c0,0,105.989,4.746,106.78-0.791s-10.282-32.429-45.876-40.339     S249.993,411.836,261.857,411.045z"/>
			<path style="fill:#FBFCFF;" d="M398.339,396.045c-9.6,0-11.305-1.659-11.717-3.104c-1.206-4.213-4.639-60.701-4.786-63.103     c-0.016-0.282,0.081-0.559,0.274-0.767c0.191-0.208,0.459-0.329,0.743-0.335c0.073-0.001,7.521-0.148,15.084-0.148     c15.581,0,16.475,0.596,16.954,0.916c2.499,1.666,6.124,50.875,4.507,61.226c-0.341,2.198-0.889,3.25-1.831,3.52     C415.033,394.972,405.843,396.045,398.339,396.045z M383.976,330.793c1.042,17.045,3.716,58.33,4.643,61.576     c0.006,0.017,0.562,1.597,9.719,1.597c7.078,0,15.949-1.003,18.513-1.678c0.763-1.135,1.602-8.738,0.118-30.635     c-1.021-15.06-2.613-28.338-3.379-30.463c-0.664-0.151-3.594-0.525-15.654-0.525C392.09,330.665,386.313,330.754,383.976,330.793     z"/>
			<path style="fill:#FBFCFF;" d="M348.597,423.24c-32.121,0-95.678-0.913-99.014-2.342c-0.737-0.316-1.178-1.171-1.521-2.947     c-2.17-11.289,0.305-80.309,2.977-82.98c0.183-0.182,0.424-0.289,0.68-0.304c0.739-0.039,74.144-3.871,104.238-3.871     c12.676,0,13.191,0.645,13.646,1.212c2.914,3.645,5.364,82.599,3.896,89.271c-0.116,0.53-0.307,1.107-0.839,1.373     C372.279,422.843,371.485,423.24,348.597,423.24z M250.513,419.02c4.136,1.088,59.099,2.141,98.084,2.141     c17.22,0,21.723-0.232,22.895-0.359c1.637-6.637-1.332-81.808-3.478-87.386c-0.603-0.178-2.954-0.54-12.056-0.54     c-28.501,0-95.983,3.448-103.458,3.833C250.689,343.987,247.398,414.243,250.513,419.02z"/>
			<path style="fill:#FBFCFF;" d="M404.824,425.135c-6.134,0-11.125-4.991-11.125-11.125c0-6.134,4.991-11.124,11.125-11.124     c6.134,0,11.122,4.991,11.122,11.124C415.947,420.145,410.958,425.135,404.824,425.135z M404.824,404.965     c-4.987,0-9.045,4.058-9.045,9.045c0,4.988,4.059,9.045,9.045,9.045s9.043-4.058,9.043-9.045     C413.868,409.023,409.811,404.965,404.824,404.965z"/>
			<path style="fill:#241726;" d="M314.655,399.034c-0.327,0-0.65-0.154-0.851-0.444c-4.323-6.173-2.631-25.384-2.558-26.199     c0.053-0.572,0.611-0.987,1.129-0.941c0.573,0.052,0.993,0.558,0.942,1.13c-0.018,0.192-1.699,19.264,2.189,24.818     c0.331,0.47,0.215,1.118-0.254,1.448C315.069,398.973,314.862,399.034,314.655,399.034z"/>
			<path style="fill:#241726;" d="M295.078,400.813c-0.244,0-0.487-0.084-0.684-0.257c-5.027-4.4-2.968-19.408-2.717-21.105     c0.083-0.568,0.629-0.954,1.18-0.876c0.569,0.084,0.96,0.612,0.875,1.181c-0.633,4.299-1.509,16.138,2.03,19.235     c0.432,0.379,0.477,1.035,0.097,1.467C295.654,400.693,295.366,400.813,295.078,400.813z"/>
			<path style="fill:#241726;" d="M332.451,399.034c-0.012,0-0.024,0-0.039-0.001c-0.575-0.021-1.021-0.504-1.001-1.077     c0.024-0.66,0.613-16.208,1.831-19.866c0.183-0.544,0.772-0.835,1.316-0.658c0.544,0.182,0.839,0.771,0.658,1.316     c-0.934,2.804-1.563,14.872-1.726,19.286C333.468,398.593,333.007,399.034,332.451,399.034z"/>
			<path style="fill:#241726;" d="M346.688,401.406c-0.142,0-0.284-0.028-0.422-0.089c-0.524-0.233-0.761-0.848-0.528-1.373     c2.219-4.996,0.534-15.32,0.518-15.424c-0.093-0.566,0.288-1.101,0.855-1.196c0.554-0.102,1.1,0.287,1.196,0.855     c0.075,0.449,1.801,11.049-0.668,16.61C347.466,401.176,347.086,401.406,346.688,401.406z"/>
			<path style="fill:#241726;" d="M279.655,402c-0.244,0-0.487-0.084-0.684-0.257c-5.098-4.46-4.53-10.15-4.503-10.389     c0.063-0.568,0.585-0.984,1.143-0.917c0.571,0.061,0.983,0.573,0.924,1.142c-0.02,0.198-0.449,4.877,3.805,8.599     c0.432,0.379,0.477,1.035,0.097,1.467C280.231,401.88,279.943,402,279.655,402z"/>
			<path style="fill:#FBFCFF;" d="M394.579,378.168c-1.576,0-2.633-0.16-3.035-0.961c-0.692-1.386-1.45-23.88-1.842-37.166     c-0.016-0.539,0.384-1.001,0.92-1.063c0.416-0.049,10.258-1.177,15.47-1.177c2.461,0,3.758,0.196,4.024,1.264     c0.357,1.426,0.954,30.463,1.07,36.27c0.01,0.517-0.361,0.963-0.873,1.047C409.866,376.455,399.31,378.168,394.579,378.168z      M393.373,376.025c0.213,0.031,0.583,0.064,1.206,0.064c3.789,0,11.829-1.201,14.509-1.619     c-0.26-12.829-0.698-31.202-0.948-34.482c-0.319-0.051-0.926-0.108-2.049-0.108c-4.168,0-11.648,0.771-14.282,1.058     C392.189,353.589,392.904,372.895,393.373,376.025z"/>
			<path style="fill:#FBFCFF;" d="M401.484,377.434c-0.556,0-1.017-0.44-1.04-1l-1.387-36.732c-0.02-0.575,0.426-1.057,1.001-1.078     c0.554-0.057,1.054,0.426,1.078,0.999l1.387,36.732c0.02,0.575-0.426,1.057-1.001,1.078     C401.511,377.434,401.496,377.434,401.484,377.434z"/>
			<path style="fill:#FBFCFF;" d="M391.434,351.445c-0.556,0-1.015-0.438-1.04-0.997c-0.022-0.574,0.424-1.058,0.997-1.081     l16.98-0.693c0.579-0.047,1.058,0.422,1.082,0.996c0.022,0.574-0.424,1.058-0.997,1.081l-16.98,0.693     C391.462,351.445,391.448,351.445,391.434,351.445z"/>
			<path style="fill:#FBFCFF;" d="M392.818,361.148c-0.534,0-0.989-0.411-1.033-0.955c-0.047-0.572,0.378-1.074,0.95-1.121     l16.458-1.345c0.556-0.037,1.074,0.38,1.121,0.952c0.047,0.572-0.378,1.074-0.95,1.121l-16.458,1.345     C392.877,361.147,392.847,361.148,392.818,361.148z"/>
			<path style="fill:#FBFCFF;" d="M393.166,370.85c-0.534,0-0.989-0.411-1.033-0.955c-0.047-0.572,0.38-1.074,0.95-1.121     l16.978-1.386c0.613-0.037,1.074,0.38,1.121,0.952c0.047,0.572-0.38,1.074-0.95,1.121l-16.978,1.386     C393.223,370.849,393.194,370.85,393.166,370.85z"/>
		</g>
	</g>
</g>















</svg>
