<?xml version="1.0" encoding="UTF-8"?>
<!-- Generator: Adobe Illustrator 26.4.1, SVG Export Plug-In . SVG Version: 6.00 Build 0)  -->
<svg xmlns="http://www.w3.org/2000/svg" xmlns:xlink="http://www.w3.org/1999/xlink" version="1.1" id="Capa_1" x="0px" y="0px" viewBox="0 0 493.945 493.945" style="enable-background:new 0 0 493.945 493.945;" xml:space="preserve" width="512" height="512">
<g>
	<g>
		<path style="fill:#FFFFFF;" d="M88.341,56.086c0,0-1.993-16.818,14.097-11.175s10.623,20.946,4.531,15.606    c-6.092-5.341,5.7-23.03,17.963-14.925s9.296,23.484,0.509,24.507c-8.787,1.023,5.544-17.879,16.44-5.948    c10.896,11.931-13.51,33.106-23.273,25.077s-1.876-20.682,0.39-12.879c2.265,7.803-4.217,15.341-21.712,14.812    c-17.495-0.529-9.179-27.348-3.164-19.432s-4.256,16.629-16.479,7.236S79.75,50.67,88.341,56.086z"/>
		<path style="fill:#241726;" d="M99,92.308c-0.57,0-1.153-0.009-1.748-0.026c-5.735-0.175-9.734-3.165-11.09-8.246    c-3.013-0.422-6.178-1.856-9.203-4.181c-4.756-3.656-6.336-9.129-4.334-15.019c2.063-6.073,7.503-10.829,12.385-10.829    c0.738,0,1.449,0.105,2.13,0.309c0.01-2.325,0.418-6.27,2.791-8.94c2.679-3.019,7.061-3.564,12.878-1.521    c2.233,0.784,4.184,1.788,5.818,2.993c2.776-2.85,6.289-4.466,9.781-4.466c2.453,0,4.855,0.766,7.143,2.277    c5.299,3.503,8.475,8.826,8.668,14.42c3.099,0.134,6.025,1.62,8.49,4.321c3.365,3.684,3.952,8.581,1.656,13.789    c-3.507,7.955-13.055,14.934-20.432,14.936c0,0-0.001,0-0.002,0c-2.369,0-4.399-0.683-6.034-2.029    c-0.764-0.626-1.452-1.305-2.058-2.023C112.065,90.848,106.28,92.308,99,92.308z M88.538,84.154    c0.962,2.841,3.297,5.72,8.783,5.886c9.307,0.285,14.526-1.806,17.212-3.792c-2.395-3.993-2.164-8.332-0.782-11.011    c0.806-1.561,1.964-2.456,3.177-2.456c0.822,0,2.324,0.423,3.146,3.255c1.135,3.91,0.207,7.703-2.545,10.562    c0.523,0.624,1.123,1.215,1.791,1.764c1.225,1.005,2.776,1.517,4.611,1.517c0.001,0,0.001,0,0.002,0    c6.482-0.002,15.244-6.484,18.381-13.599c1.356-3.076,2.237-7.544-1.26-11.375c-2.079-2.277-4.404-3.483-6.92-3.592    c-0.598,5.361-4.009,9.367-8.563,9.899c-2.947,0.317-3.928-1.202-3.975-2.631c-0.106-3.172,4.514-8.441,10.384-9.374    c-0.149-4.888-2.962-9.573-7.666-12.684c-4.622-3.058-9.989-2.235-13.972,1.773c3.748,3.665,4.413,8.126,3.334,11.09    c-0.756,2.073-2.351,3.362-4.164,3.362c0,0,0,0-0.001,0c-1.108,0-2.242-0.482-3.28-1.392c-3.362-2.947-2.189-8.601,0.937-12.804    c-1.427-1.031-3.138-1.898-5.101-2.588c-4.883-1.71-8.395-1.427-10.462,0.898c-2.815,3.168-2.157,9.03-2.151,9.089    c0.05,0.429-0.15,0.849-0.514,1.079c-0.366,0.232-0.831,0.232-1.196,0c-0.826-0.521-1.747-0.786-2.734-0.786    c-3.914,0-8.518,4.177-10.263,9.308c-1.674,4.925-0.369,9.488,3.578,12.522c2.467,1.896,5.003,3.128,7.414,3.614    c-0.436-4.328,0.934-8.533,2.697-10.694c0.988-1.211,2.134-1.85,3.313-1.85c0.83,0,2.069,0.331,3.264,1.902    c2.125,2.798,2.584,5.928,1.262,8.592C94.938,82.339,92.07,84.001,88.538,84.154z M116.928,75.023    c-0.21,0-0.719,0.337-1.185,1.243c-1.012,1.961-1.211,5.298,0.488,8.435c1.958-2.237,2.56-5.046,1.691-8.038    C117.575,75.468,117.128,75.023,116.928,75.023z M91.75,71.389c-0.476,0-1.037,0.363-1.577,1.027    c-1.504,1.841-2.639,5.781-2.146,9.507c2.894-0.007,5.226-1.23,6.242-3.277c0.929-1.874,0.551-4.146-1.039-6.239    C92.876,71.943,92.333,71.389,91.75,71.389z M131.849,61.514c-4.656,0.992-8.069,5.306-8.012,6.994    c0.008,0.204,0.018,0.51,0.953,0.51c0.161,0,0.335-0.011,0.522-0.033C128.68,68.594,131.241,65.597,131.849,61.514z     M108.88,50.006c-2.697,3.656-3.26,7.837-1.171,9.667c1.585,1.39,3.151,0.895,3.86-1.053    C112.388,56.377,111.824,52.948,108.88,50.006z"/>
	</g>
	<g>
		<path style="fill:#FFFFFF;" d="M436.543,341.521c0,0-1.993-16.818,14.097-11.175c16.09,5.643,10.623,20.946,4.531,15.606    c-6.092-5.341,5.7-23.03,17.963-14.925c12.263,8.105,9.296,23.484,0.509,24.507c-8.787,1.023,5.544-17.879,16.44-5.948    c10.896,11.931-13.51,33.106-23.273,25.077c-9.763-8.03-1.876-20.682,0.39-12.879c2.265,7.803-4.217,15.341-21.712,14.812    c-17.495-0.529-9.179-27.348-3.164-19.432c6.014,7.916-4.256,16.629-16.479,7.236C413.62,355.007,427.951,336.105,436.543,341.521    z"/>
		<path style="fill:#241726;" d="M447.203,377.743c-0.571,0-1.154-0.009-1.749-0.026c-5.735-0.175-9.734-3.165-11.09-8.246    c-3.014-0.422-6.178-1.856-9.203-4.181c-4.756-3.656-6.336-9.129-4.334-15.019c2.063-6.07,7.503-10.827,12.384-10.827    c0.738,0,1.45,0.103,2.131,0.309c0.01-2.325,0.417-6.27,2.79-8.94c2.682-3.017,7.061-3.559,12.88-1.521    c2.233,0.784,4.184,1.786,5.816,2.992c2.777-2.852,6.29-4.468,9.781-4.468c2.453,0,4.857,0.766,7.144,2.279    c5.299,3.503,8.475,8.824,8.668,14.42c3.099,0.134,6.025,1.62,8.49,4.319c3.365,3.684,3.952,8.581,1.656,13.789    c-3.507,7.955-13.055,14.934-20.432,14.936c0,0-0.001,0-0.002,0c-2.369,0-4.399-0.683-6.034-2.029    c-0.764-0.626-1.452-1.305-2.058-2.021C460.268,376.283,454.482,377.743,447.203,377.743z M436.739,369.589    c0.961,2.841,3.296,5.72,8.783,5.886c9.315,0.293,14.526-1.806,17.213-3.792c-2.395-3.993-2.165-8.332-0.783-11.011    c0.804-1.561,1.964-2.456,3.177-2.456c0.822,0,2.324,0.425,3.146,3.255c1.135,3.91,0.207,7.703-2.544,10.562    c0.522,0.624,1.122,1.215,1.79,1.764c1.225,1.005,2.776,1.517,4.612,1.517c0,0,0,0,0.001,0    c6.482-0.002,15.244-6.484,18.381-13.599c1.356-3.076,2.237-7.544-1.26-11.375c-2.079-2.274-4.404-3.483-6.92-3.59    c-0.598,5.361-4.009,9.367-8.564,9.897c-2.927,0.317-3.926-1.202-3.974-2.631c-0.106-3.172,4.514-8.441,10.384-9.374    c-0.149-4.888-2.961-9.573-7.666-12.681c-4.622-3.056-9.988-2.237-13.973,1.773c3.748,3.662,4.413,8.126,3.334,11.09    c-1.218,3.341-4.71,4.369-7.445,1.97c-3.362-2.949-2.189-8.603,0.937-12.804c-1.426-1.031-3.137-1.898-5.099-2.588    c-4.88-1.714-8.39-1.427-10.457,0.891c-2.809,3.155-2.162,9.037-2.155,9.096c0.049,0.429-0.151,0.849-0.516,1.079    c-0.363,0.232-0.83,0.234-1.195,0c-0.827-0.521-1.747-0.786-2.735-0.786c-3.914,0-8.517,4.175-10.261,9.306    c-1.672,4.925-0.369,9.488,3.578,12.522c2.467,1.896,5.002,3.128,7.414,3.614c-0.436-4.326,0.934-8.533,2.696-10.692    c0.988-1.211,2.134-1.85,3.314-1.85c0.83,0,2.069,0.328,3.264,1.902c2.125,2.796,2.584,5.926,1.263,8.59    C443.161,367.732,440.225,369.431,436.739,369.589z M465.129,360.458c-0.21,0-0.719,0.337-1.185,1.243    c-1.012,1.961-1.209,5.3,0.488,8.435c1.958-2.235,2.56-5.046,1.691-8.038C465.776,360.904,465.33,360.458,465.129,360.458z     M439.952,356.826c-0.477,0-1.038,0.363-1.578,1.027c-1.503,1.841-2.638,5.781-2.146,9.505c2.895-0.007,5.229-1.23,6.243-3.277    c0.929-1.872,0.551-4.146-1.039-6.237C441.078,357.378,440.535,356.826,439.952,356.826z M480.049,346.949    c-4.655,0.994-8.068,5.306-8.011,6.994c0.007,0.204,0.018,0.51,0.953,0.51c0.161,0,0.335-0.011,0.522-0.033    C476.882,354.029,479.442,351.032,480.049,346.949z M457.08,335.441c-2.697,3.658-3.26,7.839-1.171,9.669    c1.584,1.39,3.15,0.895,3.862-1.053C460.588,341.813,460.025,338.383,457.08,335.441z"/>
	</g>
	<path style="fill:#241726;" d="M134.736,196.546l-0.026-0.02c-3.377-2.618-3.993-7.496-1.374-10.875   c2.607-3.363,7.473-3.989,10.847-1.395c1.663,1.289,2.707,3.119,2.967,5.174c0.259,2.052-0.296,4.085-1.564,5.72   C142.976,198.513,138.108,199.139,134.736,196.546z M142.836,186.049c-2.418-1.858-5.875-1.413-7.728,0.976   c-1.862,2.401-1.424,5.869,0.975,7.73l-0.664,0.903l0.683-0.889c2.397,1.842,5.856,1.398,7.712-0.991   c0.902-1.162,1.297-2.606,1.11-4.067C144.741,188.25,143.998,186.95,142.836,186.049z"/>
	<path style="fill:#241726;" d="M16.082,417.048l-0.026-0.02c-3.377-2.618-3.993-7.496-1.374-10.875   c2.607-3.363,7.473-3.989,10.847-1.395c1.663,1.289,2.707,3.119,2.967,5.174c0.259,2.052-0.296,4.085-1.564,5.72   C24.323,419.014,19.454,419.64,16.082,417.048z M24.182,406.55c-2.418-1.858-5.875-1.413-7.728,0.976   c-1.862,2.401-1.424,5.869,0.975,7.73l-0.664,0.903l0.683-0.889c2.397,1.842,5.856,1.398,7.712-0.991   c0.902-1.162,1.297-2.606,1.11-4.067C26.087,408.752,25.344,407.452,24.182,406.55z"/>
	<path style="fill:#241726;" d="M213.346,31.486l-0.026-0.02c-3.377-2.618-3.993-7.496-1.374-10.875   c2.607-3.363,7.473-3.989,10.847-1.395c1.663,1.289,2.707,3.119,2.967,5.174c0.259,2.052-0.296,4.085-1.564,5.72   C221.587,33.452,216.718,34.078,213.346,31.486z M221.446,20.988c-2.418-1.858-5.875-1.413-7.728,0.976   c-1.862,2.401-1.424,5.869,0.975,7.73l-0.664,0.903l0.683-0.889c2.397,1.842,5.856,1.398,7.712-0.991   c0.902-1.162,1.297-2.606,1.11-4.067C223.351,23.19,222.608,21.89,221.446,20.988z"/>
	<path style="fill:#241726;" d="M462.915,464.869l-0.026-0.02c-3.377-2.618-3.993-7.496-1.374-10.875   c2.607-3.363,7.473-3.989,10.847-1.395c1.663,1.289,2.707,3.119,2.967,5.174c0.259,2.052-0.296,4.085-1.564,5.72   C471.156,466.836,466.287,467.462,462.915,464.869z M471.015,454.372c-2.418-1.858-5.875-1.413-7.728,0.976   c-1.862,2.401-1.424,5.869,0.975,7.73l-0.664,0.903l0.683-0.889c2.397,1.842,5.856,1.398,7.712-0.991   c0.902-1.162,1.297-2.606,1.11-4.067C472.92,456.573,472.178,455.273,471.015,454.372z"/>
	<path style="fill:#241726;" d="M168.771,51.683c-0.834,0-1.624,0-3.701-8.745c-7.352-1.515-7.986-2.393-8.198-2.686   c-0.205-0.282-0.288-0.795-0.188-1.13c0.14-0.471,0.463-1.561,8.928-4.844c3.117-7.822,4.137-7.822,4.817-7.822   c0.359,0,0.853,0.261,1.063,0.552c0.532,0.733,0.998,2.627,1.701,5.657c0.221,0.95,0.487,2.095,0.643,2.601   c0.44,0.204,1.412,0.567,2.218,0.867c4.308,1.609,5.418,2.152,5.606,3.187c0.07,0.387-0.135,0.952-0.432,1.211   c-0.889,0.777-5.094,2.277-7.3,3.03c-3.67,8.067-4.433,8.095-5.107,8.124C168.805,51.683,168.787,51.683,168.771,51.683z    M159.735,39.326c1.467,0.444,4.145,1.088,6.483,1.556c0.431,0.085,0.772,0.416,0.871,0.845c0.567,2.434,1.315,5.208,1.857,6.793   c0.836-1.458,2.107-4.043,3.14-6.329c0.128-0.282,0.368-0.501,0.663-0.6c2.01-0.679,4.281-1.513,5.697-2.112   c-0.98-0.427-2.313-0.924-3.177-1.248c-2.464-0.919-2.927-1.116-3.24-1.55c-0.273-0.374-0.437-1-1.02-3.509   c-0.219-0.944-0.554-2.39-0.856-3.474c-0.753,1.392-1.81,3.761-2.637,5.86c-0.115,0.291-0.348,0.523-0.641,0.635   C164.262,37.196,161.292,38.481,159.735,39.326z"/>
	<path style="fill:#241726;" d="M315.497,226.496c-0.834,0-1.624,0-3.7-8.745c-7.352-1.515-7.964-2.362-8.199-2.686   c-0.204-0.282-0.286-0.795-0.187-1.13c0.14-0.471,0.463-1.561,8.928-4.844c3.117-7.822,4.137-7.822,4.817-7.822   c0.359,0,0.853,0.261,1.063,0.552c0.532,0.733,0.997,2.627,1.701,5.659c0.221,0.948,0.486,2.093,0.641,2.598   c0.441,0.204,1.412,0.567,2.218,0.867c4.309,1.609,5.419,2.152,5.607,3.187c0.07,0.387-0.135,0.952-0.432,1.211   c-0.889,0.777-5.095,2.277-7.301,3.03c-3.67,8.067-4.433,8.095-5.107,8.124C315.531,226.496,315.512,226.496,315.497,226.496z    M306.461,214.138c1.467,0.444,4.145,1.088,6.483,1.556c0.431,0.085,0.772,0.416,0.871,0.845c0.567,2.434,1.313,5.208,1.856,6.793   c0.836-1.458,2.107-4.043,3.14-6.329c0.128-0.282,0.368-0.501,0.663-0.6c2.01-0.679,4.282-1.513,5.697-2.112   c-0.979-0.427-2.313-0.924-3.177-1.248c-2.464-0.919-2.927-1.116-3.24-1.55c-0.273-0.377-0.437-1-1.019-3.507   c-0.219-0.943-0.555-2.39-0.856-3.476c-0.753,1.392-1.81,3.761-2.637,5.86c-0.115,0.291-0.348,0.523-0.641,0.635   C310.988,212.008,308.019,213.293,306.461,214.138z"/>
	<path style="fill:#241726;" d="M12.129,375.937c-0.834,0-1.624,0-3.701-8.745c-7.351-1.515-7.985-2.388-8.198-2.682   c-0.205-0.282-0.288-0.797-0.188-1.132c0.14-0.471,0.463-1.561,8.928-4.844c3.117-7.822,4.137-7.822,4.817-7.822   c0.359,0,0.853,0.26,1.063,0.552c0.532,0.731,0.997,2.625,1.701,5.654c0.221,0.95,0.487,2.097,0.643,2.601   c0.439,0.204,1.411,0.565,2.215,0.867c4.309,1.609,5.419,2.152,5.608,3.187c0.07,0.39-0.135,0.952-0.431,1.213   c-0.89,0.777-5.095,2.277-7.301,3.03c-3.672,8.067-4.436,8.095-5.11,8.122C12.161,375.937,12.143,375.937,12.129,375.937z    M3.095,363.582c1.467,0.442,4.144,1.086,6.481,1.554c0.431,0.085,0.772,0.416,0.871,0.845c0.567,2.434,1.315,5.21,1.857,6.795   c0.836-1.458,2.107-4.043,3.14-6.329c0.128-0.282,0.368-0.501,0.663-0.6c2.011-0.679,4.283-1.515,5.698-2.112   c-0.98-0.429-2.315-0.926-3.181-1.25c-2.463-0.919-2.926-1.116-3.239-1.55c-0.271-0.374-0.436-0.998-1.019-3.511   c-0.219-0.941-0.554-2.388-0.856-3.47c-0.753,1.39-1.81,3.761-2.637,5.86c-0.115,0.291-0.348,0.523-0.641,0.635   C7.62,361.452,4.652,362.737,3.095,363.582z"/>
	<g>
		<g>
			<path style="fill:#52AFA6;" d="M364.374,166.179c-15.732-4.764-27.405,13.217-32.33,24.12l8.704,3.587     c0,0,11.154-24.518,22.418-17.104c11.264,7.414,3.546,28.017,3.546,28.017l10.468,4.951     C380.302,197.887,384.442,172.256,364.374,166.179z"/>
			<path style="fill:#B1739A;" d="M374.075,144.584c41.451,16.309,30.955,61.023,24.998,75.521l7.157,3.385     c0,0,23.939-63.797-25.639-87.129c-49.578-23.332-77.735,41.909-77.735,41.909l8.087,3.333     C317.601,166.176,341.541,131.783,374.075,144.584z"/>
			<path style="fill:#E17B8D;" d="M372.394,145.154c-35.361-13.856-54.794,21.022-61.451,36.449l10.653,4.39     c7.031-16.11,26.104-43.497,55.674-27.161c17.808,9.839,15.138,42.24,11.419,56.361l10.384,4.911     C405.03,205.607,417.888,162.981,372.394,145.154z"/>
			<path style="fill:#E8B500;" d="M377.27,158.833c-29.22-17.57-48.642,11.051-55.674,27.161l10.448,4.306     c4.925-10.903,15.966-29.481,32.33-24.12c19.926,6.527,15.928,31.708,12.806,43.571l11.509,5.443     C392.408,201.073,396.176,170.201,377.27,158.833z"/>
		</g>
		<path style="fill:#241726;" d="M399.181,220.209c-0.161,0-0.326-0.035-0.482-0.109c-0.558-0.267-0.795-0.935-0.529-1.495    c0.057-0.118,5.709-12.123,6.108-26.751c0.529-19.448-8.007-34.097-25.371-43.543c-10.522-5.727-20.885-6.92-30.801-3.553    c-22.768,7.725-36.009,37.007-36.139,37.302c-0.251,0.567-0.911,0.821-1.48,0.569c-0.566-0.252-0.82-0.915-0.569-1.48    c0.552-1.241,13.779-30.477,37.468-38.515c10.537-3.573,21.499-2.325,32.591,3.706c43.323,23.568,20.452,72.737,20.215,73.232    C400,219.975,399.6,220.209,399.181,220.209z"/>
		<path style="fill:#241726;" d="M388.69,216.314c-0.102,0-0.206-0.013-0.309-0.044c-0.595-0.169-0.94-0.788-0.771-1.384    c0.129-0.453,12.546-45.273-14.676-57.168c-8.012-3.5-15.825-3.776-23.227-0.827c-17.345,6.915-26.984,29.312-27.079,29.538    c-0.241,0.571-0.899,0.834-1.469,0.598c-0.57-0.243-0.836-0.9-0.595-1.469c0.404-0.957,10.106-23.489,28.314-30.748    c7.975-3.185,16.373-2.896,24.955,0.856c29.014,12.677,16.068,59.366,15.934,59.835    C389.626,215.993,389.178,216.314,388.69,216.314z"/>
		<path style="fill:#241726;" d="M377.18,210.872c-0.108,0-0.218-0.015-0.327-0.048c-0.592-0.182-0.925-0.808-0.744-1.401    c0.099-0.324,9.706-32.637-9.635-41.348c-4.223-1.902-8.506-2.045-12.732-0.433c-12.4,4.739-20.592,22.929-20.673,23.113    c-0.251,0.565-0.907,0.825-1.479,0.569c-0.566-0.252-0.821-0.913-0.57-1.48c0.347-0.782,8.659-19.229,21.922-24.295    c4.803-1.839,9.665-1.672,14.454,0.482c8.807,3.967,13.462,12.898,13.464,25.831c0.001,9.577-2.5,17.87-2.607,18.218    C378.104,210.561,377.661,210.872,377.18,210.872z"/>
	</g>
	<g>
		<path style="fill:#241726;" d="M61.908,172.344c-0.6,0-1.137-0.232-1.529-0.663c-2.733-3.017,4.03-13.879,7.064-18.408    c0.346-0.512,1.042-0.652,1.555-0.306c0.514,0.344,0.651,1.04,0.308,1.554c-4.772,7.123-8.235,14.586-7.266,15.654    c0.001,0,0.003,0,0.004,0c1.332,0,6.916-6.25,12.065-13.734c0.352-0.508,1.051-0.639,1.559-0.289    c0.51,0.35,0.639,1.049,0.289,1.559c-2.318,3.369-10.169,14.38-13.892,14.63C62.012,172.344,61.96,172.344,61.908,172.344z"/>
		<path style="fill:#241726;" d="M105.906,180.023c-0.343,0-0.688-0.088-1.016-0.265c-3.283-1.775-5.848-15.054-6.556-19.08    c-0.106-0.611,0.301-1.191,0.911-1.298c0.604-0.123,1.191,0.3,1.298,0.908c1.575,8.96,4.06,16.974,5.427,17.504    c1.168-0.563,1.119-8.789-0.261-17.254c-0.1-0.611,0.315-1.186,0.926-1.285c0.625-0.112,1.188,0.313,1.287,0.926    c0.877,5.381,2.515,18.073-1.224,19.68C106.442,179.971,106.175,180.023,105.906,180.023z"/>
		<path style="fill:#241726;" d="M103.473,156.657c-0.067,0-0.135-0.007-0.201-0.018l-37.424-6.845    c-0.312-0.057-0.586-0.245-0.752-0.514c-0.167-0.269-0.211-0.598-0.123-0.904c0.421-1.443,10.492-35.352,25.116-35.352    c1.366,0,2.737,0.298,4.077,0.882c16.416,7.167,10.663,40.415,10.41,41.827c-0.053,0.293-0.22,0.554-0.464,0.725    C103.923,156.589,103.699,156.657,103.473,156.657z M67.494,147.815l35.05,6.412c0.847-5.801,3.966-32.486-9.275-38.268    c-1.054-0.46-2.125-0.694-3.18-0.694C78.538,115.266,69.407,141.822,67.494,147.815z"/>
		<path style="fill:#E17B8D;" d="M68.654,136.718l37.334,7.26l18.485,14.4c0,0-48.146,24.545-76.695-17.122L68.654,136.718z"/>
		<path style="fill:#241726;" d="M97.831,130.931c-0.079,0-0.159-0.009-0.24-0.026c-0.604-0.131-0.988-0.729-0.857-1.333    c1.329-6.103-5.246-8.397-5.526-8.492c-0.587-0.197-0.902-0.834-0.704-1.421c0.197-0.584,0.833-0.902,1.42-0.703    c3.034,1.022,8.401,4.658,7.002,11.092C98.811,130.572,98.347,130.931,97.831,130.931z"/>
		<polygon style="fill:#E4B200;" points="71.923,129.647 106.69,136.78 105.988,143.978 68.654,136.718   "/>
		<path style="fill:#241726;" d="M67.741,151.979c-0.39,0-0.782-0.044-1.166-0.127c-1.423-0.309-2.641-1.154-3.429-2.38    c-0.788-1.226-1.052-2.686-0.742-4.111c0.625-2.868,3.609-4.796,6.492-4.17c2.94,0.639,4.811,3.553,4.171,6.491    C72.525,150.171,70.286,151.979,67.741,151.979z M67.733,143.306c-1.5,0-2.82,1.066-3.138,2.533    c-0.183,0.838-0.027,1.699,0.437,2.421c0.464,0.722,1.181,1.219,2.019,1.403c1.721,0.363,3.457-0.766,3.824-2.458    c0.378-1.732-0.725-3.446-2.456-3.824C68.194,143.332,67.963,143.306,67.733,143.306z"/>
		<path style="fill:#241726;" d="M85.474,159.323c-0.39,0-0.783-0.044-1.166-0.127c-1.424-0.309-2.642-1.154-3.43-2.38    c-0.787-1.226-1.051-2.686-0.741-4.111c0.625-2.87,3.607-4.801,6.491-4.17c2.94,0.641,4.812,3.553,4.172,6.493    C90.258,157.517,88.018,159.323,85.474,159.323z M85.466,150.652c-1.5,0-2.82,1.064-3.138,2.531    c-0.183,0.838-0.028,1.699,0.436,2.421c0.464,0.722,1.182,1.219,2.021,1.403c1.72,0.363,3.457-0.764,3.824-2.456    c0.378-1.732-0.726-3.448-2.457-3.827C85.926,150.676,85.695,150.652,85.466,150.652z"/>
		<path style="fill:#241726;" d="M103.829,160.889c-0.39,0-0.782-0.044-1.166-0.127c-1.423-0.309-2.641-1.154-3.429-2.38    c-0.788-1.226-1.052-2.686-0.742-4.111c0.627-2.87,3.612-4.796,6.492-4.17c2.941,0.641,4.812,3.553,4.172,6.491    C108.614,159.08,106.373,160.889,103.829,160.889z M103.822,152.215c-1.498,0-2.818,1.066-3.139,2.533    c-0.182,0.838-0.026,1.699,0.438,2.421c0.464,0.722,1.181,1.219,2.019,1.403c1.714,0.361,3.457-0.766,3.825-2.458    c0.378-1.732-0.726-3.446-2.457-3.824C104.283,152.242,104.052,152.215,103.822,152.215z"/>
	</g>
	<g>
		<path style="fill:#241726;" d="M344.911,99.603c-0.252,0-0.502-0.048-0.744-0.147c-3.781-1.508-2.474-14.238-1.737-19.641    c0.083-0.615,0.648-1.044,1.262-0.959c0.614,0.083,1.043,0.648,0.96,1.261c-1.159,8.496-0.994,16.723,0.347,17.259    c1.194-0.569,3.47-8.647,4.812-17.644c0.092-0.611,0.67-1.031,1.274-0.941c0.612,0.09,1.034,0.661,0.943,1.274    c-0.603,4.043-2.823,17.386-6.057,19.244C345.632,99.504,345.271,99.603,344.911,99.603z"/>
		<path style="fill:#241726;" d="M387.801,87.171c-0.033,0-0.065-0.002-0.097-0.002c-3.727-0.153-11.864-10.956-14.269-14.264    c-0.365-0.501-0.254-1.202,0.247-1.565c0.5-0.363,1.202-0.254,1.565,0.247c5.297,7.281,10.987,13.343,12.517,13.343    c0.015,0,0.03,0,0.044,0c0.805-1.02-2.852-8.391-7.81-15.387c-0.357-0.506-0.238-1.204,0.267-1.563    c0.507-0.355,1.204-0.239,1.563,0.267c3.151,4.45,10.196,15.133,7.541,18.22C388.978,86.921,388.423,87.171,387.801,87.171z"/>
		<path style="fill:#241726;" d="M339.164,77.431c-0.21,0-0.418-0.059-0.599-0.173c-0.268-0.171-0.452-0.444-0.506-0.757    c-0.206-1.197-4.95-29.437,3.472-39.881c1.986-2.461,4.548-3.774,7.618-3.908c17.814-0.753,27.333,31.646,27.722,33.009    c0.081,0.287,0.046,0.593-0.1,0.854c-0.146,0.26-0.389,0.451-0.675,0.532L339.467,77.39    C339.368,77.418,339.266,77.431,339.164,77.431z M349.769,34.941c-0.174,0-0.348,0.004-0.523,0.013    c-2.432,0.103-4.384,1.11-5.969,3.073c-6.853,8.496-4.015,31.306-3.199,36.862l34.305-9.63    C372.619,59.743,363.896,34.941,349.769,34.941z"/>
		<path style="fill:#E17B8D;" d="M336.248,64.411l36.729-9.872l22.931,4.82c0,0-32.477,43.194-76.423,18.296L336.248,64.411z"/>
		<path style="fill:#241726;" d="M359.424,46.512c-0.505,0-0.962-0.341-1.088-0.854c-1.479-6.035-8.405-5.241-8.696-5.201    c-0.623,0.085-1.174-0.359-1.252-0.97c-0.078-0.613,0.354-1.173,0.966-1.254c3.186-0.398,9.593,0.501,11.16,6.891    c0.147,0.602-0.221,1.208-0.822,1.355C359.603,46.502,359.513,46.512,359.424,46.512z"/>
		<polygon style="fill:#E4B200;" points="336.079,56.623 370.447,47.765 372.977,54.539 336.248,64.411   "/>
		<path style="fill:#241726;" d="M339.723,79.08c-2.516,0-4.693-1.71-5.294-4.157c-0.347-1.416-0.122-2.883,0.635-4.129    c0.755-1.246,1.951-2.123,3.366-2.469c2.888-0.714,5.894,1.125,6.599,3.999c0.715,2.922-1.08,5.882-4.001,6.596    C340.599,79.025,340.16,79.08,339.723,79.08z M339.733,70.407c-0.257,0-0.517,0.033-0.771,0.094    c-0.834,0.206-1.539,0.722-1.983,1.456c-0.445,0.733-0.578,1.598-0.373,2.432c0.415,1.694,2.172,2.771,3.887,2.355    c1.722-0.422,2.778-2.165,2.357-3.886C342.496,71.416,341.214,70.407,339.733,70.407z"/>
		<path style="fill:#241726;" d="M358.882,77.891c-2.519,0-4.697-1.71-5.297-4.157c-0.347-1.416-0.121-2.881,0.634-4.129    c0.756-1.246,1.952-2.123,3.368-2.469c2.88-0.707,5.893,1.13,6.597,3.999c0.716,2.92-1.078,5.88-4.001,6.598    C359.756,77.838,359.318,77.891,358.882,77.891z M358.887,69.22c-0.257,0-0.516,0.031-0.767,0.092    c-0.834,0.206-1.539,0.722-1.984,1.456c-0.444,0.736-0.577,1.598-0.372,2.432c0.413,1.692,2.178,2.769,3.886,2.358    c1.722-0.422,2.779-2.167,2.357-3.888C361.653,70.227,360.37,69.22,358.887,69.22z"/>
		<path style="fill:#241726;" d="M376.06,71.236c-2.519,0-4.697-1.71-5.297-4.157c-0.347-1.416-0.121-2.881,0.634-4.129    c0.756-1.246,1.952-2.123,3.368-2.469c2.884-0.711,5.894,1.127,6.597,3.999c0.716,2.92-1.078,5.88-4.001,6.598    C376.935,71.184,376.497,71.236,376.06,71.236z M376.066,62.565c-0.257,0-0.516,0.031-0.767,0.092    c-0.834,0.206-1.539,0.722-1.984,1.456c-0.444,0.736-0.577,1.598-0.372,2.432c0.414,1.692,2.18,2.774,3.886,2.358    c1.722-0.423,2.779-2.167,2.357-3.888C378.832,63.572,377.549,62.565,376.066,62.565z"/>
	</g>
	<polygon style="fill:#DDB300;" points="280.428,18.001 294.009,10.234 290.784,24.651 300.537,33.96 288.651,37.577    282.116,49.971 276.326,38.574 261.396,37.338 272.75,26.726 267.934,13.624  "/>
	<polygon style="fill:#DDB300;" points="471.816,398.499 485.396,390.732 482.171,405.149 491.924,414.457 480.038,418.075    473.503,430.469 467.713,419.072 452.783,417.836 464.137,407.224 459.321,394.122  "/>
	<path style="fill:#241726;" d="M127.405,225.406l-0.007,0l-4.336-0.015l4.594-3.114c0.512-0.348,0.646-1.045,0.298-1.557   c-0.35-0.515-1.051-0.642-1.557-0.298l-6.197,4.201l0.137-7.24c0.012-0.62-0.48-1.129-1.099-1.142l-0.007,0   c-0.615-0.008-1.123,0.482-1.135,1.1l-0.121,6.39l-3.79-4.111c-0.421-0.452-1.128-0.485-1.584-0.064   c-0.454,0.419-0.483,1.13-0.064,1.584l3.899,4.23l-7.181-0.025c-0.62-0.002-1.123,0.498-1.125,1.117   c-0.002,0.615,0.491,1.116,1.106,1.124l0.011,0l6.551,0.023l-5.119,3.47c-0.512,0.348-0.646,1.045-0.298,1.557   c0.215,0.316,0.561,0.487,0.913,0.491c0.223,0.003,0.447-0.06,0.644-0.193l5.939-4.026l-0.138,7.294   c-0.012,0.619,0.48,1.129,1.099,1.142l0.007,0c0.615,0.008,1.123-0.482,1.135-1.1l0.131-6.889l4.04,4.382   c0.218,0.235,0.512,0.357,0.81,0.361c0.276,0.004,0.555-0.093,0.775-0.296c0.454-0.419,0.483-1.13,0.064-1.584l-4.23-4.588   l5.822,0.021c0.62,0.002,1.123-0.498,1.125-1.117C128.517,225.915,128.024,225.414,127.405,225.406z"/>
	<path style="fill:#241726;" d="M322.689,96.329l-0.007,0l-4.336-0.015l4.594-3.114c0.512-0.348,0.646-1.045,0.298-1.557   c-0.35-0.515-1.051-0.642-1.557-0.298l-6.197,4.201l0.137-7.24c0.012-0.62-0.48-1.129-1.099-1.142l-0.007,0   c-0.615-0.008-1.123,0.482-1.135,1.1l-0.121,6.39l-3.79-4.111c-0.421-0.452-1.128-0.485-1.584-0.064   c-0.454,0.419-0.483,1.13-0.064,1.584l3.899,4.23l-7.181-0.025c-0.62-0.002-1.123,0.498-1.125,1.117   c-0.002,0.615,0.491,1.116,1.106,1.124l0.011,0l6.551,0.023l-5.119,3.47c-0.512,0.348-0.646,1.045-0.298,1.557   c0.215,0.316,0.561,0.487,0.913,0.491c0.223,0.003,0.447-0.06,0.644-0.193l5.939-4.026l-0.138,7.294   c-0.012,0.619,0.48,1.129,1.099,1.142l0.007,0c0.615,0.008,1.123-0.482,1.135-1.1l0.131-6.889l4.04,4.382   c0.218,0.235,0.512,0.357,0.81,0.361c0.276,0.004,0.555-0.093,0.775-0.296c0.454-0.419,0.483-1.13,0.064-1.584l-4.23-4.588   l5.822,0.021c0.62,0.002,1.123-0.498,1.125-1.117C323.801,96.838,323.309,96.337,322.689,96.329z"/>
	<path style="fill:#241726;" d="M479.641,287.095l-0.007,0l-4.336-0.015l4.594-3.114c0.512-0.348,0.646-1.045,0.298-1.557   c-0.35-0.515-1.051-0.642-1.557-0.298l-6.197,4.201l0.137-7.24c0.012-0.62-0.48-1.129-1.099-1.142l-0.007,0   c-0.615-0.008-1.123,0.482-1.135,1.1l-0.121,6.39l-3.79-4.111c-0.421-0.452-1.128-0.485-1.584-0.064   c-0.454,0.419-0.483,1.13-0.064,1.584l3.899,4.23l-7.181-0.025c-0.62-0.001-1.123,0.498-1.125,1.117   c-0.001,0.615,0.491,1.116,1.106,1.124l0.011,0l6.551,0.023l-5.119,3.47c-0.512,0.348-0.646,1.045-0.298,1.557   c0.215,0.316,0.561,0.487,0.913,0.491c0.223,0.003,0.447-0.06,0.644-0.193l5.939-4.026l-0.138,7.294   c-0.012,0.619,0.48,1.129,1.099,1.142l0.007,0c0.615,0.008,1.123-0.482,1.135-1.1l0.131-6.889l4.04,4.382   c0.218,0.235,0.512,0.357,0.81,0.361c0.276,0.004,0.555-0.093,0.775-0.296c0.454-0.419,0.483-1.13,0.064-1.584l-4.23-4.588   l5.822,0.021c0.62,0.001,1.123-0.498,1.125-1.117C480.753,287.604,480.261,287.103,479.641,287.095z"/>
	<path style="fill:#241726;" d="M451.963,243.402c-1.492,0-2.953-0.136-4.343-0.401c-0.607-0.116-1.006-0.705-0.89-1.311   c0.116-0.609,0.692-1.009,1.312-0.891c1.251,0.241,2.57,0.361,3.921,0.361l0.306-0.002c0.682,0.042,1.131,0.482,1.143,1.099   c0.012,0.617-0.479,1.13-1.099,1.143L451.963,243.402z M456.745,242.943c-0.529,0-0.999-0.374-1.1-0.913   c-0.115-0.609,0.286-1.195,0.894-1.309c1.387-0.26,2.782-0.641,4.151-1.132c0.578-0.206,1.223,0.094,1.433,0.676   c0.209,0.582-0.094,1.226-0.678,1.434c-1.478,0.53-2.989,0.941-4.492,1.224C456.883,242.936,456.814,242.943,456.745,242.943z    M443.573,241.653c-0.161,0-0.324-0.035-0.478-0.107c-1.339-0.635-2.552-1.425-3.608-2.349c-0.465-0.407-0.512-1.116-0.104-1.581   c0.407-0.468,1.114-0.51,1.582-0.105c0.899,0.788,1.938,1.462,3.089,2.007c0.559,0.265,0.799,0.935,0.533,1.493   C444.395,241.417,443.994,241.653,443.573,241.653z M465.158,239.933c-0.398,0-0.784-0.212-0.986-0.587   c-0.296-0.543-0.093-1.224,0.451-1.519c1.266-0.687,2.484-1.473,3.617-2.336c0.493-0.379,1.196-0.278,1.571,0.212   c0.374,0.493,0.279,1.195-0.213,1.57c-1.225,0.933-2.538,1.782-3.906,2.524C465.521,239.889,465.339,239.933,465.158,239.933z    M472.256,234.515c-0.278,0-0.556-0.103-0.774-0.311c-0.448-0.427-0.464-1.136-0.037-1.583c0.989-1.038,1.897-2.161,2.697-3.338   c0.347-0.512,1.043-0.644,1.558-0.296c0.511,0.348,0.645,1.044,0.297,1.556c-0.869,1.278-1.854,2.498-2.929,3.623   C472.847,234.399,472.552,234.515,472.256,234.515z M477.272,227.144c-0.157,0-0.316-0.033-0.467-0.103   c-0.563-0.258-0.809-0.924-0.549-1.486c0.595-1.294,1.092-2.651,1.477-4.037c0.165-0.598,0.781-0.946,1.38-0.779   c0.597,0.164,0.946,0.784,0.78,1.379c-0.417,1.502-0.956,2.973-1.601,4.374C478.103,226.903,477.697,227.144,477.272,227.144z    M479.678,218.547c-0.045,0-0.09-0.002-0.136-0.009c-0.614-0.074-1.052-0.633-0.979-1.246c0.149-1.232,0.224-2.507,0.224-3.787   l-0.004-0.532c-0.011-0.62,0.482-1.13,1.101-1.141c0.56,0.079,1.128,0.482,1.141,1.101l0.004,0.571c0,1.37-0.081,2.734-0.24,4.054   C480.721,218.129,480.238,218.547,479.678,218.547z M479.568,209.609c-0.557,0-1.04-0.414-1.111-0.981   c-0.188-1.491-0.436-2.944-0.736-4.319c-0.132-0.604,0.251-1.202,0.855-1.333c0.609-0.131,1.203,0.25,1.334,0.856   c0.315,1.438,0.575,2.96,0.771,4.516c0.078,0.615-0.358,1.176-0.972,1.252C479.662,209.607,479.614,209.609,479.568,209.609z    M477.628,200.875c-0.468,0-0.904-0.296-1.062-0.764c-0.474-1.405-1.027-2.754-1.643-4.004c-0.275-0.554-0.046-1.226,0.509-1.5   c0.558-0.274,1.227-0.044,1.501,0.51c0.661,1.338,1.252,2.778,1.757,4.28c0.198,0.587-0.117,1.222-0.704,1.419   C477.867,200.855,477.746,200.875,477.628,200.875z M443.329,193.517c-0.223,0-0.441-0.013-0.651-0.039   c-0.614-0.072-1.054-0.628-0.982-1.243c0.072-0.613,0.622-1.077,1.245-0.981c0.972,0.105,2.235-0.225,3.62-0.963   c0.549-0.293,1.226-0.083,1.517,0.462c0.291,0.547,0.084,1.226-0.462,1.517C446.062,193.097,444.62,193.517,443.329,193.517z    M473.646,192.882c-0.35,0-0.696-0.164-0.915-0.471c-0.84-1.182-1.773-2.274-2.772-3.246c-0.444-0.431-0.455-1.141-0.024-1.585   c0.432-0.442,1.141-0.455,1.585-0.022c1.098,1.066,2.12,2.261,3.04,3.553c0.358,0.506,0.24,1.204-0.265,1.563   C474.097,192.814,473.871,192.882,473.646,192.882z M439.857,190.439c-0.551,0-1.016-0.335-1.079-0.898   c-0.016-0.149-0.024-0.298-0.024-0.449c0-1.521,0.821-3.028,2.373-4.356c0.47-0.403,1.178-0.346,1.581,0.123   c0.403,0.471,0.348,1.178-0.123,1.581c-0.725,0.62-1.589,1.585-1.589,2.653c0.069,0.615-0.369,1.27-0.984,1.338   C439.96,190.437,439.908,190.439,439.857,190.439z M450.725,189.793c-0.306,0-0.613-0.125-0.834-0.372   c-0.414-0.46-0.375-1.169,0.085-1.583c1.021-0.917,2.015-1.97,2.954-3.128c0.39-0.479,1.093-0.556,1.577-0.166   c0.48,0.39,0.555,1.097,0.165,1.576c-1.015,1.252-2.091,2.39-3.199,3.387C451.26,189.699,450.992,189.793,450.725,189.793z    M467.242,186.694c-0.209,0-0.42-0.059-0.61-0.182c-1.181-0.766-2.453-1.421-3.779-1.946c-0.576-0.228-0.857-0.88-0.629-1.454   c0.228-0.58,0.88-0.865,1.455-0.63c1.465,0.58,2.87,1.303,4.176,2.152c0.519,0.337,0.667,1.031,0.329,1.55   C467.969,186.514,467.609,186.694,467.242,186.694z M445.728,184.487c-0.447,0-0.869-0.269-1.043-0.709   c-0.227-0.576,0.057-1.228,0.633-1.454c1.399-0.552,2.927-0.97,4.541-1.243c0.603-0.107,1.189,0.309,1.293,0.919   c0.103,0.609-0.309,1.189-0.918,1.292c-1.462,0.247-2.84,0.624-4.095,1.116C446.003,184.463,445.864,184.487,445.728,184.487z    M458.966,183.397c-0.069,0-0.139-0.007-0.209-0.02c-1.396-0.265-2.828-0.405-4.26-0.42c-0.618-0.007-1.115-0.514-1.109-1.132   c0.007-0.615,0.507-1.11,1.121-1.11c0.003,0,0.008,0,0.012,0c0.383,0.004,0.767,0.018,1.15,0.037   c0.65-1.101,1.247-2.25,1.778-3.426c0.253-0.565,0.914-0.819,1.482-0.563c0.564,0.254,0.815,0.919,0.56,1.482   c-0.421,0.937-0.882,1.856-1.378,2.752c0.356,0.05,0.709,0.112,1.06,0.177c0.609,0.116,1.008,0.701,0.893,1.309   C459.964,183.023,459.495,183.397,458.966,183.397z M460.061,174.715c-0.111,0-0.222-0.015-0.334-0.05   c-0.591-0.184-0.921-0.812-0.737-1.403c0.43-1.379,0.777-2.798,1.032-4.218c0.109-0.609,0.688-1,1.301-0.904   c0.61,0.109,1.015,0.692,0.905,1.303c-0.271,1.51-0.641,3.019-1.098,4.485C460.981,174.408,460.539,174.715,460.061,174.715z    M461.646,165.915c-0.02,0-0.04,0-0.06-0.002c-0.618-0.033-1.093-0.56-1.061-1.178c0.033-0.62,0.05-1.243,0.05-1.874   c-0.001-0.814-0.03-1.637-0.088-2.469c-0.044-0.617,0.421-1.154,1.039-1.197c0.636-0.044,1.154,0.422,1.196,1.04   c0.062,0.884,0.093,1.76,0.094,2.625c0,0.672-0.018,1.335-0.053,1.994C462.732,165.451,462.238,165.915,461.646,165.915z    M461.018,156.994c-0.526,0-0.995-0.372-1.099-0.906c-0.274-1.405-0.636-2.824-1.077-4.216c-0.187-0.591,0.139-1.222,0.729-1.408   c0.597-0.182,1.221,0.14,1.408,0.729c0.467,1.473,0.852,2.977,1.141,4.466c0.118,0.609-0.279,1.197-0.887,1.316   C461.161,156.988,461.09,156.994,461.018,156.994z M458.327,148.463c-0.431,0-0.842-0.25-1.027-0.668   c-0.282-0.641-0.583-1.283-0.906-1.929c-0.31-0.62-0.679-1.23-1.096-1.817c-0.359-0.503-0.242-1.204,0.263-1.563   c0.506-0.357,1.205-0.239,1.563,0.263c0.485,0.681,0.914,1.392,1.275,2.115c0.338,0.676,0.655,1.353,0.952,2.025   c0.25,0.567-0.007,1.228-0.572,1.478C458.631,148.433,458.478,148.463,458.327,148.463z M420.92,148.426   c-0.361,0-0.717-0.175-0.933-0.497c-0.345-0.514-0.206-1.211,0.309-1.556c0.79-0.528,1.663-1.578,2.522-3.036   c0.314-0.536,1-0.714,1.535-0.396c0.533,0.315,0.71,1,0.396,1.535c-1.044,1.771-2.123,3.036-3.207,3.763   C421.35,148.365,421.134,148.426,420.92,148.426z M417.005,147.704c-0.325,0-0.648-0.14-0.869-0.412   c-0.81-0.992-1.54-2.456-2.171-4.354c-0.195-0.587,0.124-1.222,0.71-1.416c0.587-0.197,1.223,0.123,1.417,0.711   c0.543,1.635,1.142,2.861,1.779,3.64c0.392,0.479,0.321,1.186-0.159,1.578C417.506,147.62,417.254,147.704,417.005,147.704z    M453.146,141.265c-0.251,0-0.502-0.083-0.711-0.256c-1.039-0.856-2.232-1.646-3.546-2.351c-0.545-0.291-0.751-0.972-0.459-1.517   c0.293-0.545,0.971-0.755,1.518-0.458c1.444,0.773,2.76,1.646,3.912,2.596c0.478,0.394,0.546,1.099,0.152,1.578   C453.791,141.125,453.47,141.265,453.146,141.265z M425.738,140.99c-0.141,0-0.283-0.026-0.422-0.083   c-0.574-0.232-0.849-0.887-0.616-1.46c0.518-1.272,1.011-2.664,1.468-4.137c0.04-0.129,0.102-0.245,0.18-0.348   c-1.014,0.123-1.988,0.285-2.908,0.482c-0.603,0.134-1.201-0.252-1.332-0.858c-0.13-0.604,0.254-1.202,0.859-1.331   c1.427-0.309,2.967-0.534,4.58-0.665c0.615-0.028,1.158,0.407,1.209,1.024c0.044,0.539-0.301,1.02-0.8,1.167   c0.337,0.282,0.491,0.749,0.354,1.195c-0.475,1.532-0.991,2.986-1.531,4.317C426.599,140.727,426.18,140.99,425.738,140.99z    M415.367,139.451c-0.225,0-0.452-0.068-0.65-0.208c-0.503-0.359-0.621-1.06-0.262-1.563c0.835-1.171,2.187-2.183,4.019-3.006   c0.561-0.258,1.228-0.002,1.482,0.563s0.002,1.228-0.563,1.482c-1.445,0.65-2.521,1.432-3.113,2.261   C416.062,139.287,415.717,139.451,415.367,139.451z M445.315,136.992c-0.125,0-0.252-0.02-0.375-0.066   c-1.321-0.468-2.727-0.873-4.178-1.197c-0.603-0.136-0.983-0.736-0.847-1.34c0.135-0.604,0.733-0.979,1.339-0.849   c1.539,0.346,3.032,0.775,4.437,1.276c0.583,0.206,0.888,0.847,0.681,1.432C446.208,136.706,445.776,136.992,445.315,136.992z    M436.589,135c-0.044,0-0.089-0.002-0.135-0.009c-1.44-0.171-2.908-0.274-4.361-0.304c-0.62-0.013-1.111-0.525-1.098-1.145   c0.013-0.617,0.555-1.073,1.144-1.097c1.527,0.033,3.068,0.14,4.582,0.322c0.614,0.072,1.053,0.63,0.98,1.246   C437.633,134.582,437.148,135,436.589,135z M428.422,132.435c-0.086,0-0.174-0.009-0.262-0.031   c-0.602-0.144-0.973-0.749-0.83-1.351c0.336-1.403,0.64-2.852,0.905-4.33c0.108-0.609,0.692-1.003,1.301-0.904   c0.61,0.109,1.015,0.692,0.905,1.303c-0.274,1.517-0.587,3.01-0.931,4.453C429.387,132.089,428.928,132.435,428.422,132.435z    M430.006,123.608c-0.045,0-0.091-0.002-0.137-0.009c-0.614-0.074-1.052-0.633-0.976-1.248c0.178-1.467,0.314-2.938,0.402-4.4   c0.036-0.617,0.58-1.114,1.185-1.051c0.618,0.037,1.089,0.567,1.052,1.186c-0.09,1.506-0.23,3.025-0.415,4.536   C431.048,123.192,430.565,123.608,430.006,123.608z M430.527,114.653c-0.614,0-1.114-0.495-1.121-1.11   c-0.016-1.517-0.095-2.988-0.236-4.372c-0.062-0.617,0.386-1.167,1.003-1.228c0.626-0.07,1.166,0.387,1.228,1   c0.147,1.451,0.23,2.99,0.247,4.577c0.007,0.617-0.49,1.125-1.109,1.132C430.535,114.653,430.531,114.653,430.527,114.653z    M429.573,105.758c-0.51,0-0.972-0.35-1.091-0.869c-0.346-1.502-0.788-2.866-1.316-4.056c-0.251-0.565,0.004-1.228,0.57-1.478   c0.565-0.254,1.228,0.002,1.479,0.571c0.586,1.32,1.074,2.82,1.451,4.459c0.139,0.604-0.238,1.204-0.841,1.344   C429.742,105.75,429.656,105.758,429.573,105.758z M425.807,97.724c-0.304,0-0.609-0.125-0.83-0.368   c-0.547-0.602-1.149-1.114-1.791-1.521c-0.499-0.317-1.002-0.613-1.506-0.889c-0.543-0.296-0.743-0.976-0.447-1.519   c0.297-0.545,0.976-0.746,1.521-0.447c0.546,0.298,1.09,0.62,1.633,0.963c0.81,0.514,1.566,1.156,2.248,1.907   c0.416,0.458,0.382,1.167-0.077,1.583C426.345,97.628,426.076,97.724,425.807,97.724z M387.922,97.503   c-0.377,0-0.744-0.19-0.956-0.534c-0.324-0.528-0.16-1.217,0.368-1.541c0.063-0.039,1.589-0.972,4.142-2.097   c0.569-0.252,1.228,0.009,1.478,0.571c0.25,0.567-0.007,1.228-0.574,1.478c-2.4,1.06-3.858,1.948-3.872,1.957   C388.325,97.451,388.122,97.503,387.922,97.503z M396.113,93.863c-0.47,0-0.906-0.298-1.063-0.766   c-0.196-0.587,0.121-1.222,0.708-1.419c1.47-0.49,2.96-0.904,4.429-1.235c0.605-0.129,1.204,0.245,1.339,0.849   c0.136,0.604-0.244,1.204-0.848,1.34c-1.396,0.311-2.812,0.707-4.21,1.173C396.349,93.845,396.23,93.863,396.113,93.863z    M418.124,93.267c-0.122,0-0.245-0.02-0.367-0.061c-1.334-0.462-2.734-0.821-4.163-1.07c-0.61-0.105-1.019-0.685-0.913-1.294   c0.105-0.611,0.691-1.04,1.296-0.913c1.547,0.267,3.065,0.657,4.513,1.158c0.584,0.204,0.895,0.841,0.693,1.425   C419.023,92.976,418.588,93.267,418.124,93.267z M404.853,91.921c-0.565,0-1.051-0.425-1.113-1   c-0.067-0.615,0.378-1.169,0.994-1.235c1.305-0.142,2.618-0.243,3.847-0.21l0.777,0.009c0.618,0.018,1.108,0.532,1.091,1.149   c-0.018,0.62-0.536,1.105-1.15,1.092l-0.72-0.009c-1.27,0.024-2.381,0.063-3.604,0.197   C404.934,91.919,404.893,91.921,404.853,91.921z"/>
	<path style="fill:#241726;" d="M24.383,330.542c-0.812,0-1.643-0.048-2.482-0.145c-0.614-0.072-1.055-0.628-0.984-1.243   s0.633-1.049,1.242-0.985c1.454,0.169,2.875,0.173,4.218,0.02c0.603-0.07,1.17,0.372,1.24,0.987   c0.071,0.615-0.371,1.171-0.986,1.241C25.902,330.5,25.15,330.542,24.383,330.542z M17.665,329.41c-0.12,0-0.243-0.02-0.362-0.061   c-1.492-0.51-2.928-1.18-4.271-1.992c-0.53-0.32-0.699-1.009-0.379-1.539c0.319-0.53,1.007-0.701,1.539-0.379   c1.206,0.729,2.497,1.331,3.835,1.791c0.587,0.199,0.899,0.836,0.698,1.423C18.566,329.117,18.132,329.41,17.665,329.41z    M10.057,324.804c-0.277,0-0.555-0.103-0.772-0.309c-1.123-1.064-2.151-2.266-3.056-3.57c-0.352-0.51-0.225-1.208,0.283-1.561   c0.508-0.352,1.207-0.225,1.56,0.282c0.817,1.18,1.744,2.264,2.756,3.225c0.449,0.425,0.467,1.134,0.042,1.583   C10.65,324.686,10.354,324.804,10.057,324.804z M4.958,317.508c-0.428,0-0.836-0.245-1.023-0.661   c-0.616-1.37-1.142-2.841-1.562-4.378c-0.163-0.598,0.188-1.213,0.786-1.377c0.594-0.155,1.214,0.188,1.377,0.786   c0.389,1.423,0.875,2.787,1.444,4.05c0.254,0.565,0.002,1.228-0.563,1.482C5.267,317.477,5.111,317.508,4.958,317.508z    M2.565,308.907c-0.552,0-1.032-0.407-1.109-0.968c-0.202-1.469-0.329-3.01-0.379-4.582c-0.02-0.62,0.466-1.136,1.085-1.156   c0.614,0.009,1.135,0.468,1.156,1.086c0.046,1.493,0.167,2.955,0.358,4.345c0.085,0.613-0.344,1.18-0.957,1.263   C2.667,308.902,2.615,308.907,2.565,308.907z M2.261,299.962c-0.022,0-0.043,0-0.065-0.002c-0.618-0.035-1.091-0.565-1.055-1.182   c0.027-0.488,0.061-0.983,0.101-1.484c0.089-1.075,0.236-2.126,0.442-3.124c0.125-0.606,0.722-0.998,1.323-0.873   c0.606,0.125,0.997,0.718,0.872,1.324c-0.187,0.911-0.323,1.872-0.403,2.855c-0.039,0.482-0.071,0.959-0.099,1.429   C3.344,299.502,2.851,299.962,2.261,299.962z M4.127,291.26c-0.151,0-0.304-0.031-0.451-0.096c-0.567-0.25-0.823-0.911-0.574-1.478   c0.64-1.449,1.448-2.822,2.401-4.076c0.373-0.493,1.075-0.587,1.571-0.215c0.493,0.374,0.588,1.079,0.213,1.572   c-0.847,1.114-1.565,2.334-2.134,3.625C4.969,291.011,4.558,291.26,4.127,291.26z M41.71,286.6c-0.809,0-1.678-0.136-2.584-0.405   c-0.593-0.177-0.931-0.801-0.755-1.394c0.177-0.591,0.796-0.926,1.394-0.755c1.424,0.425,2.666,0.416,3.576-0.022   c0.557-0.269,1.226-0.033,1.495,0.528c0.267,0.558,0.031,1.228-0.528,1.495C43.539,286.414,42.666,286.6,41.71,286.6z    M35.444,284.258c-0.218,0-0.438-0.063-0.63-0.195c-1.225-0.836-2.433-1.854-3.59-3.025c-0.435-0.44-0.43-1.151,0.01-1.585   c0.441-0.436,1.149-0.431,1.586,0.009c1.055,1.07,2.152,1.994,3.257,2.75c0.511,0.35,0.644,1.046,0.294,1.559   C36.153,284.087,35.802,284.258,35.444,284.258z M9.495,284.183c-0.322,0-0.641-0.138-0.864-0.405   c-0.395-0.475-0.329-1.182,0.147-1.578c1.169-0.972,2.476-1.854,3.886-2.625c0.542-0.3,1.224-0.099,1.52,0.444   c0.298,0.543,0.099,1.224-0.445,1.521c-1.283,0.703-2.47,1.504-3.529,2.384C10,284.098,9.746,284.183,9.495,284.183z    M46.337,282.638c-0.082,0-0.165-0.009-0.248-0.028c-0.604-0.136-0.983-0.736-0.846-1.34c0.037-0.162,0.069-0.328,0.096-0.501   c-0.039-0.085-0.498-0.628-2.027-1.252c-0.572-0.234-0.847-0.889-0.613-1.462c0.235-0.571,0.891-0.849,1.462-0.613   c2.267,0.928,3.417,2.056,3.417,3.356c0,0.057-0.016,0.263-0.025,0.317c-0.037,0.23-0.078,0.444-0.124,0.65   C47.311,282.285,46.849,282.638,46.337,282.638z M17.292,279.857c-0.46,0-0.891-0.285-1.055-0.742   c-0.209-0.582,0.094-1.224,0.676-1.434c1.389-0.499,2.886-0.926,4.448-1.27c0.598-0.138,1.203,0.247,1.335,0.854   c0.134,0.604-0.25,1.202-0.854,1.335c-1.469,0.324-2.872,0.725-4.172,1.191C17.546,279.836,17.418,279.857,17.292,279.857z    M39.428,278.382c-0.071,0-0.142-0.007-0.215-0.02c-1.353-0.263-2.806-0.46-4.32-0.582c-0.616-0.05-1.076-0.591-1.027-1.206   c0.05-0.617,0.611-1.068,1.208-1.027c1.596,0.129,3.132,0.335,4.565,0.613c0.607,0.118,1.005,0.707,0.887,1.316   C40.423,278.01,39.955,278.382,39.428,278.382z M29.131,277.944c-0.245,0-0.489-0.081-0.687-0.234   c-0.771,0.044-1.538,0.107-2.296,0.19c-0.606,0.066-1.169-0.377-1.235-0.994c-0.067-0.615,0.378-1.167,0.994-1.235   c0.341-0.037,0.685-0.07,1.029-0.101c-0.409-0.655-0.799-1.329-1.168-2.016c-0.292-0.547-0.086-1.226,0.46-1.517   c0.546-0.3,1.225-0.085,1.517,0.458c0.542,1.014,1.134,1.992,1.767,2.922c0.326-0.011,0.652-0.02,0.977-0.024   c0.005,0,0.011,0,0.015,0c0.612,0,1.112,0.493,1.121,1.105c0.009,0.62-0.487,1.127-1.105,1.136c-0.21,0.002-0.42,0.007-0.63,0.013   c-0.031,0.028-0.065,0.057-0.1,0.081C29.589,277.874,29.358,277.944,29.131,277.944z M24.903,270.068   c-0.452,0-0.878-0.276-1.047-0.722c-0.542-1.427-1-2.911-1.363-4.415c-0.146-0.602,0.224-1.206,0.826-1.353   c0.605-0.129,1.206,0.223,1.352,0.827c0.341,1.412,0.772,2.806,1.28,4.144c0.22,0.58-0.071,1.226-0.649,1.447   C25.17,270.044,25.035,270.068,24.903,270.068z M22.801,261.375c-0.563,0-1.047-0.423-1.112-0.994   c-0.164-1.436-0.247-2.907-0.247-4.367c0-0.62,0.502-1.237,1.122-1.237c0.618,0,1.121,0.385,1.121,1.005l-0.001,0.247   c0,1.362,0.078,2.745,0.232,4.098c0.07,0.615-0.371,1.171-0.986,1.241C22.886,261.373,22.843,261.375,22.801,261.375z    M22.85,252.43c-0.045,0-0.09-0.002-0.136-0.009c-0.614-0.074-1.052-0.633-0.979-1.246c0.182-1.5,0.451-3.023,0.801-4.534   c0.139-0.602,0.741-0.976,1.345-0.838c0.602,0.14,0.977,0.742,0.837,1.346c-0.332,1.429-0.587,2.874-0.757,4.293   C23.893,252.012,23.41,252.43,22.85,252.43z M24.859,243.709c-0.119,0-0.241-0.02-0.36-0.059c-0.587-0.199-0.901-0.836-0.702-1.423   c0.508-1.493,1.083-2.931,1.707-4.271c0.264-0.563,0.933-0.806,1.49-0.543c0.56,0.26,0.803,0.928,0.542,1.489   c-0.591,1.27-1.135,2.629-1.616,4.048C25.762,243.415,25.326,243.709,24.859,243.709z M28.661,235.616   c-0.206,0-0.414-0.057-0.6-0.175c-0.522-0.331-0.678-1.025-0.345-1.546c0.848-1.338,1.782-2.592,2.775-3.728   c0.407-0.464,1.116-0.51,1.582-0.107c0.466,0.407,0.513,1.116,0.106,1.583c-0.917,1.051-1.783,2.211-2.571,3.452   C29.395,235.432,29.032,235.616,28.661,235.616z M63.6,234.779c-0.531,0-1.003-0.379-1.101-0.919   c-0.112-0.609,0.292-1.193,0.901-1.305c0.69-0.125,1.141-0.541,1.419-1.309c0.08-0.219,0.12-0.447,0.12-0.674   c0-0.604,0.476-1.202,1.08-1.222c0.599,0.02,1.112,0.344,1.153,0.946c0.001,0.024,0.009,0.252,0.009,0.276   c0,0.488-0.085,0.972-0.254,1.438c-0.547,1.506-1.656,2.482-3.124,2.752C63.735,234.773,63.667,234.779,63.6,234.779z    M59.327,233.724c-0.183,0-0.368-0.044-0.54-0.138c-1.253-0.692-2.538-1.64-3.817-2.82c-0.454-0.42-0.483-1.127-0.062-1.583   c0.418-0.46,1.13-0.484,1.584-0.063c1.145,1.057,2.281,1.898,3.377,2.5c0.542,0.3,0.74,0.981,0.441,1.524   C60.107,233.514,59.722,233.724,59.327,233.724z M34.555,228.917c-0.327,0-0.651-0.142-0.872-0.416   c-0.39-0.482-0.315-1.186,0.166-1.576c1.223-0.989,2.533-1.863,3.896-2.598c0.543-0.289,1.224-0.09,1.518,0.455   c0.294,0.545,0.091,1.224-0.454,1.519c-1.241,0.668-2.435,1.465-3.55,2.366C35.051,228.836,34.803,228.917,34.555,228.917z    M63.778,227.77c-0.257,0-0.516-0.088-0.726-0.267c-0.929-0.79-2.156-1.528-3.55-2.134c-0.567-0.245-0.827-0.906-0.58-1.473   c0.246-0.569,0.903-0.832,1.475-0.58c1.614,0.701,2.996,1.537,4.106,2.48c0.472,0.401,0.53,1.108,0.128,1.581   C64.41,227.636,64.095,227.77,63.778,227.77z M52.705,227.759c-0.332,0-0.661-0.147-0.882-0.427   c-0.933-1.186-1.81-2.474-2.608-3.827c-0.314-0.532-0.137-1.219,0.396-1.535c0.212-0.125,0.447-0.164,0.675-0.151   c0.206-0.335,0.603-0.547,1.003-0.534c1.561,0.068,3.121,0.269,4.634,0.6c0.605,0.131,0.988,0.729,0.856,1.333   c-0.13,0.606-0.721,0.992-1.334,0.856c-1.165-0.254-2.359-0.425-3.558-0.51c0.537,0.832,1.107,1.629,1.699,2.38   c0.382,0.488,0.299,1.191-0.188,1.574C53.192,227.68,52.947,227.759,52.705,227.759z M42.397,224.686   c-0.475,0-0.916-0.304-1.068-0.782c-0.187-0.589,0.138-1.219,0.728-1.408c1.47-0.468,3.007-0.808,4.568-1.011   c0.612-0.088,1.176,0.352,1.255,0.968c0.08,0.613-0.352,1.176-0.966,1.257c-1.428,0.186-2.834,0.497-4.176,0.924   C42.623,224.668,42.509,224.686,42.397,224.686z M48.153,220.06c-0.433,0-0.846-0.252-1.03-0.676   c-0.609-1.405-1.134-2.87-1.563-4.35c-0.172-0.593,0.171-1.215,0.765-1.388c0.599-0.171,1.217,0.173,1.389,0.766   c0.402,1.388,0.895,2.763,1.467,4.083c0.245,0.567-0.015,1.228-0.583,1.473C48.452,220.031,48.301,220.06,48.153,220.06z    M45.665,211.472c-0.544,0-1.02-0.396-1.107-0.948c-0.236-1.526-0.377-3.076-0.415-4.606c-0.015-0.62,0.474-1.134,1.092-1.149   c0.01,0,0.02,0,0.028,0c0.606,0,1.105,0.484,1.121,1.092c0.036,1.436,0.166,2.887,0.389,4.317c0.095,0.613-0.324,1.186-0.936,1.281   C45.78,211.468,45.722,211.472,45.665,211.472z M45.444,202.536c-0.039,0-0.079-0.002-0.118-0.007   c-0.616-0.063-1.063-0.615-0.997-1.232c0.069-0.655,0.155-1.313,0.263-1.979c0.144-0.898,0.32-1.758,0.52-2.583   c0.147-0.6,0.754-0.957,1.354-0.825c0.601,0.147,0.971,0.753,0.824,1.355c-0.187,0.768-0.349,1.572-0.485,2.41   c-0.101,0.624-0.183,1.243-0.247,1.859C46.497,202.109,46.011,202.536,45.444,202.536z M47.599,193.876   c-0.147,0-0.296-0.028-0.439-0.09c-0.57-0.243-0.835-0.902-0.592-1.471c0.624-1.465,1.377-2.85,2.237-4.118   c0.348-0.512,1.046-0.641,1.556-0.3c0.512,0.348,0.646,1.044,0.298,1.556c-0.778,1.149-1.461,2.408-2.029,3.741   C48.449,193.62,48.035,193.876,47.599,193.876z M52.613,186.53c-0.296,0-0.59-0.116-0.81-0.346   c-0.428-0.447-0.413-1.156,0.035-1.585c1.118-1.07,2.366-2.04,3.711-2.885c0.525-0.328,1.216-0.171,1.546,0.355   c0.329,0.523,0.171,1.215-0.352,1.546c-1.217,0.762-2.345,1.64-3.354,2.605C53.172,186.427,52.892,186.53,52.613,186.53z    M60.144,181.766c-0.445,0-0.867-0.267-1.042-0.707c-0.228-0.576,0.054-1.228,0.628-1.456c1.408-0.558,2.904-1.02,4.449-1.368   c0.605-0.144,1.204,0.241,1.341,0.845c0.137,0.604-0.242,1.204-0.846,1.34c-1.432,0.326-2.817,0.751-4.117,1.267   C60.422,181.74,60.282,181.766,60.144,181.766z M68.86,179.763c-0.575,0-1.064-0.44-1.115-1.022   c-0.055-0.617,0.402-1.16,1.019-1.215c2.823-0.25,4.687-0.066,4.687-0.066c0.615,0.059,1.067,0.606,1.009,1.222   s-0.58,1.053-1.218,1.011c-0.047-0.004-1.767-0.153-4.283,0.066C68.925,179.761,68.893,179.763,68.86,179.763z"/>
	<g>
		<path style="fill:#B1739A;" d="M69.987,378.534c0,0,345.867-2.852,351.83,0c5.963,2.852,40.252,98.41,37.27,102.689    c-2.982,4.279-427.861,2.852-427.861-2.852C31.226,472.666,69.987,378.534,69.987,378.534z"/>
		<path style="fill:#DF4F3E;" d="M139.696,384.109c0,0,116.169-0.942,121.42,0.942s-1.969,65.002-29.535,76.307    c0,0-59.069,3.768-63.663,0.942S132.476,429.328,139.696,384.109z"/>
		<g>
			<path style="fill:#D98011;" d="M116.829,461.173c0,0-10.23-7.017-3.653-15.508c6.576-8.491,25.804-7.228,28.763,3.183     C144.897,459.259,128.363,471.772,116.829,461.173z"/>
			<path style="fill:#241726;" d="M119.119,447.21c-0.339,0-0.674-0.153-0.895-0.444c-0.373-0.495-0.276-1.197,0.218-1.57     c0.211-0.16,5.237-3.868,12.605-1.572c0.591,0.186,0.921,0.814,0.736,1.405c-0.184,0.589-0.82,0.917-1.403,0.736     c-6.275-1.966-10.543,1.186-10.584,1.217C119.592,447.135,119.355,447.21,119.119,447.21z"/>
		</g>
		<g>
			<path style="fill:#D98011;" d="M106.454,423.069c0,0-2.282-12.193,8.37-13.556s23.369,13.114,18.108,22.573     S107.13,438.718,106.454,423.069z"/>
			<path style="fill:#241726;" d="M127.924,422.335c-0.404,0-0.794-0.219-0.994-0.6c-3.057-5.825-8.298-6.607-8.35-6.615     c-0.614-0.083-1.042-0.65-0.958-1.263c0.083-0.611,0.647-1.04,1.262-0.957c0.262,0.035,6.443,0.959,10.032,7.793     c0.288,0.547,0.077,1.226-0.472,1.513C128.277,422.293,128.099,422.335,127.924,422.335z"/>
		</g>
		<path style="fill:#FFFFFF;" d="M153.732,388.481c0,0,97.004-3.95,97.004,3.95c0,7.9-4.128,21.725-46.094,30.612    S140.66,389.469,153.732,388.481z"/>
		<g>
			<path style="fill:#1A1F36;" d="M266.873,411.177c0,0,15.32,47.531,18.023,50.549c2.703,3.018,67.587,3.772,72.994,4.527     c5.407,0.754,56.773-13.58,57.674-15.844c0.901-2.263-26.134-63.375-30.639-61.866c-4.506,1.509-36.948,21.125-46.86,24.143     C328.152,415.704,266.873,402.878,266.873,411.177z"/>
			<path style="fill:#FFFFFF;" d="M276.587,403.488c0,0,32.877-26.152,62.019,6.725c0,0,16.439-25.405,42.591-23.164     c0,0,28.394,47.074,29.141,53.052c0.747,5.978-52.305,9.714-59.777,18.68c0,0-46.327-10.461-65.008-2.242     C285.553,456.54,271.356,411.707,276.587,403.488z"/>
			<path style="fill:#241726;" d="M349.068,452.431c-0.362,0-0.718-0.175-0.934-0.499c-6.042-9.061-10.968-37.839-11.175-39.058     c-0.103-0.611,0.308-1.191,0.918-1.294c0.609-0.109,1.189,0.309,1.293,0.917c0.049,0.296,5.051,29.527,10.829,38.191     c0.344,0.514,0.205,1.211-0.311,1.554C349.497,452.369,349.281,452.431,349.068,452.431z"/>
			<path style="fill:#241726;" d="M356.912,446.452c-0.277,0-0.555-0.103-0.772-0.309c-0.449-0.427-0.467-1.136-0.04-1.585     c4.526-4.763,8.048-4.216,11.156-3.726c2.144,0.337,4.176,0.657,6.714-0.613c3.635-1.817,3.825-2.461,3.951-2.885     c0.216-0.729,0.51-1.403,1.934-2.294c1.872-1.169,4.015-0.74,6.276-0.289c2.045,0.407,4.158,0.827,6.318,0.169     c4.203-1.294,5.21-5.14,5.22-5.177c0.149-0.602,0.756-0.965,1.358-0.817c0.601,0.151,0.966,0.76,0.815,1.359     c-0.051,0.208-1.335,5.116-6.735,6.775c-2.701,0.83-5.206,0.328-7.416-0.112c-1.898-0.379-3.534-0.707-4.649-0.009     c-0.82,0.512-0.878,0.707-0.973,1.029c-0.347,1.173-0.916,2.165-5.098,4.256c-3.179,1.589-5.773,1.18-8.064,0.823     c-3.054-0.479-5.467-0.858-9.184,3.056C357.505,446.336,357.209,446.452,356.912,446.452z"/>
			<path style="fill:#241726;" d="M352.802,435.991c-0.277,0-0.555-0.103-0.772-0.309c-0.449-0.427-0.467-1.136-0.04-1.585     c4.541-4.781,7.229-3.489,9.602-2.353c1.69,0.81,3.151,1.504,5.652,0.256c3.899-1.951,4.953-3.446,5.882-4.763     c0.63-0.895,1.283-1.821,2.618-2.655c1.875-1.171,4.017-0.74,6.281-0.289c2.041,0.407,4.154,0.83,6.313,0.169     c4.161-1.283,5.179-5.026,5.221-5.184c0.155-0.598,0.764-0.965,1.362-0.808c0.599,0.153,0.961,0.757,0.811,1.355     c-0.051,0.208-1.335,5.116-6.735,6.777c-2.698,0.832-5.203,0.328-7.412-0.112c-1.896-0.381-3.532-0.705-4.652-0.009     c-0.952,0.595-1.403,1.235-1.975,2.045c-1.028,1.46-2.307,3.277-6.712,5.479c-3.487,1.74-5.781,0.639-7.624-0.241     c-2.162-1.033-3.59-1.723-7.01,1.878C353.395,435.875,353.099,435.991,352.802,435.991z"/>
			<path style="fill:#241726;" d="M296.863,433.731c-4.006,0-5.128-0.508-5.697-1.007c-3.148-2.754-5.682-19.465-4.626-23.187     c0.323-1.138,0.963-1.471,1.443-1.552c1.171-0.112,26.853-2.485,35.124-2.485c2.289,0,2.822,0.164,3.215,0.556     c1.478,1.478,7.274,19.536,6.233,22.784c-0.29,0.906-0.962,1.112-1.237,1.158C331.092,430.036,307.753,433.731,296.863,433.731z      M288.674,410.17c-0.924,2.73,1.632,18.822,3.969,20.869c0.057,0.039,0.725,0.451,4.221,0.451c9.247,0,29.04-2.894,33.617-3.625     c0.297-2.933-4.284-17.598-5.656-20.059c-0.247-0.028-0.749-0.063-1.717-0.063C315.495,407.742,292.04,409.862,288.674,410.17z"/>
			<path style="fill:#241726;" d="M302.223,442.974c-2.012,0-3.928-0.436-5.415-1.624c-0.483-0.387-0.562-1.092-0.174-1.576     c0.386-0.479,1.09-0.558,1.575-0.175c2.78,2.231,8.752,0.806,13.415-1.27c2.598-1.149,5.238-0.276,8.297,0.733     c1.504,0.497,3.207,1.06,5.081,1.434c4.727,0.946,6.99-3.126,7.012-3.168c0.293-0.547,0.971-0.744,1.519-0.455     c0.544,0.293,0.749,0.974,0.455,1.519c-1.041,1.931-4.353,5.304-9.426,4.302c-2.007-0.401-3.779-0.987-5.344-1.504     c-2.832-0.937-4.88-1.618-6.683-0.812C310.375,441.339,306.121,442.974,302.223,442.974z"/>
		</g>
		<path style="fill:#241726;" d="M201.254,440.57c-28.936,0-48.479-20.308-48.775-20.626c-0.424-0.451-0.401-1.16,0.05-1.583    c0.454-0.423,1.161-0.401,1.585,0.05c0.44,0.468,44.74,46.398,98.55-3.047c0.458-0.414,1.166-0.39,1.584,0.068    c0.419,0.455,0.389,1.165-0.067,1.583C234.864,434.767,216.716,440.57,201.254,440.57z"/>
		<g>
			<path style="fill:#E38B72;" d="M271.744,170.237c1.087,0.306,2.311,0.359,3.707,0.056c12.49-2.711,14.157-21.464,5.727-32.443     c-4.425-5.762-9.045-2.554-12.439,1.793c-3.759-17.186-10.242-33.972-16.189-39.717c-22.268-21.513-69.841,6.618-69.841,6.618     c-17.232,4.955-8.847,38.638-2.838,57.024c-5.725-2.885-13.78-5.267-14.751,3.494c-1.524,13.757,9.615,28.935,21.703,24.785     c0.785-0.269,1.458-0.611,2.039-1.01c2.162,3.609,5.321,7.35,9.933,10.627l2.694,32.033     c-7.846,5.604-56.414,42.965,39.976,60.898C253.336,296.602,272.851,266,272.851,266s23.47-22.23-19.241-34.185     c-3.141-0.879-6.476-14.117-7.951-23.681C257.384,203.798,270.082,193.361,271.744,170.237z"/>
			<path style="fill:#241726;" d="M210.686,171.018c-0.085,0-0.173-0.007-0.26-0.02c-2.626-0.39-8.253-9.579-11.373-15.024     c-0.309-0.539-0.123-1.224,0.415-1.53c0.535-0.309,1.22-0.123,1.529,0.414c3.356,5.854,7.686,12.379,9.419,13.71     c0.62-1.981,0.459-9.299-0.106-15.571c-0.056-0.617,0.4-1.162,1.016-1.217c0.611-0.024,1.161,0.398,1.217,1.016     c0.529,5.876,1.132,16-0.766,17.791C211.476,170.869,211.096,171.018,210.686,171.018z"/>
			<path style="fill:#241726;" d="M250.247,162.215c-0.065,0-0.129-0.004-0.195-0.013c-0.737-0.103-2.463-0.341-7.425-17.775     c-0.17-0.595,0.176-1.215,0.772-1.384c0.594-0.18,1.215,0.177,1.385,0.771c1.714,6.022,3.996,12.841,5.283,15.361     c1.149-3.047,3.145-10.51,4.376-15.494c0.148-0.602,0.759-0.968,1.357-0.819c0.601,0.149,0.968,0.755,0.819,1.357     c-0.377,1.521-3.717,14.941-5.153,17.276C251.183,161.955,250.738,162.215,250.247,162.215z"/>
			<path style="fill:#241726;" d="M184.122,181.9c-0.303,0-0.605-0.123-0.826-0.363c-3.877-4.227-8.208-7.914-9.31-7.754     c-0.646,0.256-0.664,3.404,0.013,6.344c0.139,0.602-0.238,1.204-0.841,1.344c-0.599,0.14-1.203-0.236-1.344-0.841     c-0.418-1.808-1.553-7.804,1.413-8.951c2.631-1.04,8.466,4.794,11.722,8.343c0.418,0.455,0.387,1.165-0.069,1.583     C184.664,181.801,184.394,181.9,184.122,181.9z"/>
			<path style="fill:#241726;" d="M272.031,160.545c-0.073,0-0.147-0.007-0.221-0.022c-0.607-0.12-1-0.711-0.879-1.32     c0.946-4.722,2.944-12.719,5.705-13.205c3.133-0.574,5.266,5.16,5.845,6.924c0.193,0.589-0.127,1.222-0.715,1.414     c-0.588,0.199-1.221-0.127-1.415-0.714c-0.941-2.861-2.516-5.497-3.324-5.418c-0.927,0.462-2.771,5.814-3.898,11.44     C273.023,160.177,272.554,160.545,272.031,160.545z"/>
			<circle style="fill:#DF4F3E;" cx="203.676" cy="182.371" r="8.448"/>
			<circle style="fill:#DF4F3E;" cx="258.029" cy="174.837" r="8.448"/>
			<path style="fill:#E38B72;" d="M437.985,282.439c-13.194-13.701-77.897-22.603-77.897-22.603l-9.527,55.481     c5.044,3.362,35.306-0.934,37.547,2.802c2.032,3.387-27.403,43.765-32.926,51.288c-5.661,2.342-20.769,8.953-20.313,12.598     c0.927,7.414,15.505-2.429,20.735,2.802c5.23,5.23-11.395,33.251-3.923,34.745c7.472,1.494,15.318-25.032,18.307-25.779     c2.989-0.747,20.175,4.483,22.416,0c1.61-3.221,5.516-14.527,6.213-23.694c0.223-0.3,0.41-0.615,0.511-0.964     C404.36,351.183,457.412,302.614,437.985,282.439z"/>
			<path style="fill:#E8B500;" d="M360.274,252.551c-2.242-17.186-100.874-21.669-100.874-21.669s0.058,0.295,0.17,0.849     c-0.887-0.22-1.594-0.387-2.038-0.476c-5.604-1.121-3.362,40.349-23.537,38.108s-32.504-35.866-32.504-35.866     s-19.056,5.803-35.007,12.619c-18.435,7.026-50.367,20.177-53.538,28.104c-4.483,11.208,11.955,70.238,23.911,72.48     c2.2,0.413,5.341-0.117,9.046-1.246c1.293,18.642,2.988,32.865,4.607,32.865c4.483,0,177.633-0.237,177.633-0.237     s-1.08-23.963-2.954-51.233c12.938,0.732,23.876,0.423,23.876,0.423S362.516,269.736,360.274,252.551z"/>
			<path style="fill:#1A1F36;" d="M182.438,310.833c0,0,8.967-26.339,12.329-26.339s86.863-8.406,89.105-5.044     s12.329,33.625,14.571,36.987c2.242,3.362,5.791,60.337,2.428,60.898c-3.362,0.56-107.785,4.67-110.027,1.868     C188.602,376.401,182.438,310.833,182.438,310.833z"/>
			<g>
				<g>
					<g>
						<path style="fill:#241726;" d="M215.025,418.684c-0.659,0-0.906-0.149-1.033-0.225c-1.512-0.906-8.247-23.8-7.585-25.785        c0.671-2.014,3.701-3.19,4.533-3.476l-5.299-19.601c-0.161-0.598,0.193-1.213,0.79-1.375c0.595-0.155,1.213,0.19,1.375,0.788        l5.265,19.481c2.349-0.954,6.456-2.198,7.861,0.013c1.203,1.889,8.195,20.613,6.619,24.214        c-1.114,2.548-6.1,4.376-8.192,5.044C217.079,418.487,215.78,418.684,215.025,418.684z M212.06,391.125        c-0.093,0.07-0.197,0.125-0.312,0.164c-1.189,0.398-2.967,1.348-3.216,2.093c-0.175,1.972,5.304,20.157,6.694,23.069        c2.04-0.109,9.367-2.57,10.27-4.632c0.974-2.228-4.921-19.702-6.457-22.112c-0.351-0.552-3.297-0.039-6.236,1.344        C212.57,391.164,212.306,391.188,212.06,391.125z"/>
						<path style="fill:#241726;" d="M221.667,416.376c-0.458,0-0.888-0.282-1.053-0.738l-8.967-24.658        c-0.212-0.582,0.089-1.226,0.67-1.436c0.586-0.21,1.225,0.088,1.436,0.67l8.967,24.658c0.212,0.582-0.089,1.226-0.67,1.436        C221.923,416.354,221.794,416.376,221.667,416.376z"/>
					</g>
					<g>
						<path style="fill:#241726;" d="M193.46,424.277c-0.994,0-1.3-0.219-1.445-0.322c-1.435-1.029-6.32-24.387-5.502-26.311        c0.83-1.955,3.94-2.883,4.794-3.104l-3.717-19.96c-0.113-0.609,0.289-1.195,0.898-1.307c0.607-0.12,1.194,0.289,1.307,0.895        l3.693,19.838c2.42-0.757,6.613-1.675,7.836,0.641c1.049,1.979,6.522,21.201,4.665,24.665        c-1.313,2.45-6.426,3.873-8.564,4.372C195.487,424.137,194.255,424.277,193.46,424.277z M193.406,422.053        c2.011,0.015,9.542-1.815,10.607-3.8c1.147-2.141-3.334-20.032-4.672-22.556c-0.308-0.58-3.283-0.3-6.324,0.843        c-0.24,0.092-0.507,0.096-0.748,0.015c-0.097,0.059-0.206,0.107-0.323,0.136c-1.216,0.302-3.065,1.108-3.372,1.83        C188.242,400.472,192.252,419.036,193.406,422.053z"/>
						<path style="fill:#241726;" d="M199.92,422.495c-0.491,0-0.942-0.326-1.079-0.823l-6.97-25.295        c-0.164-0.598,0.186-1.213,0.783-1.379c0.594-0.158,1.213,0.186,1.378,0.784l6.97,25.295c0.164,0.598-0.186,1.213-0.783,1.379        C200.119,422.482,200.019,422.495,199.92,422.495z"/>
					</g>
					<path style="fill:#E17B8D;" d="M207.843,310.459c-1.494-4.483-79.952,4.483-79.952,4.483s-14.197,2.242-16.439,4.483       c-2.242,2.242,1.681,50.997,6.165,59.964c3.062,6.123,48.892-1.082,77.653-6.267c10.528-1.524,20.17-3.426,23.033-4.381       C225.029,366.5,209.337,314.943,207.843,310.459z M123.408,360.149c-2.989,0-0.747-17.559-0.747-21.296       s29.888-3.736,32.13-3.736c1.162,0,1.723,9.242,2.722,18.766C142.181,356.59,125.052,360.149,123.408,360.149z"/>
					<path style="fill:#E38B72;" d="M154.044,312.701c-2.981-4.969-22.144-4.981-34.656-4.431       c-2.439-12.839-6.441-34.05-6.441-34.05s-58.152,24.494-64.455,52.634c-4.503,12.393,2.598,28.106,10.78,29.829       c13.795,2.904,52.641-19.967,52.641-19.967c-0.003-0.039-0.005-0.08-0.008-0.119c7.07,7.047,9.328,13.823,10.717,15.367       c7.63,8.478,8.258-2.648,8.258-2.648s3.736,5.231,9.714,1.494c2.939-1.837,3.526-4.214,3.367-6.158       c0.991,2.102,2.73,4.062,5.6,2.422c1.299-0.743,1.997-1.67,2.315-2.644c0.685,0.741,1.616,1.409,2.915,1.896       C160.769,348.567,158.527,320.173,154.044,312.701z"/>
					<path style="fill:#241726;" d="M119.298,376.587c-0.542,0-1.018-0.392-1.105-0.944c-0.097-0.613,0.319-1.186,0.93-1.285       c0.866-0.138,86.734-13.855,99.21-17.892c0.587-0.19,1.222,0.134,1.411,0.72c0.19,0.589-0.132,1.221-0.721,1.412       c-12.64,4.091-96.004,17.41-99.547,17.975C119.416,376.583,119.356,376.587,119.298,376.587z"/>
					<path style="fill:#241726;" d="M201.135,350.762h-0.001c-0.62,0-1.121-0.503-1.12-1.123c0.007-4.378-1.457-8.848-1.471-8.892       c-0.195-0.587,0.124-1.222,0.711-1.416c0.591-0.201,1.222,0.125,1.416,0.711c0.065,0.195,1.591,4.851,1.585,9.601       C202.255,350.261,201.753,350.762,201.135,350.762z"/>
					<path style="fill:#241726;" d="M205.991,349.267h-0.001c-0.62,0-1.121-0.504-1.12-1.123c0.007-4.376-1.457-8.846-1.471-8.89       c-0.195-0.587,0.124-1.222,0.711-1.416c0.589-0.201,1.222,0.125,1.416,0.711c0.065,0.195,1.591,4.851,1.585,9.599       C207.111,348.766,206.61,349.267,205.991,349.267z"/>
					<path style="fill:#241726;" d="M195.158,352.63h-0.001c-0.62,0-1.121-0.504-1.12-1.123c0.005-4.376-1.457-8.846-1.471-8.89       c-0.195-0.587,0.124-1.222,0.711-1.416c0.591-0.199,1.222,0.125,1.416,0.711c0.065,0.195,1.59,4.851,1.585,9.599       C196.277,352.128,195.776,352.63,195.158,352.63z"/>
				</g>
				<path style="fill:#241726;" d="M130.879,350.436c-0.567,0-1.053-0.427-1.113-1.003c-0.706-6.696-6.428-13.916-6.486-13.988      c-0.386-0.484-0.308-1.189,0.175-1.576c0.484-0.385,1.19-0.306,1.576,0.175c0.252,0.315,6.191,7.813,6.964,15.153      c0.066,0.617-0.381,1.169-0.997,1.232C130.958,350.434,130.918,350.436,130.879,350.436z"/>
				<path style="fill:#241726;" d="M142.088,347.82c-0.47,0-0.906-0.298-1.063-0.766c-0.726-2.176-6.635-16.217-6.695-16.357      c-0.24-0.571,0.027-1.228,0.599-1.469c0.566-0.234,1.227,0.028,1.468,0.598c0.244,0.582,6.003,14.262,6.754,16.519      c0.196,0.587-0.121,1.222-0.708,1.419C142.325,347.803,142.205,347.82,142.088,347.82z"/>
				<path style="fill:#241726;" d="M149.56,343.337c-0.513,0-0.976-0.355-1.093-0.878c-1.474-6.633-2.967-12.616-2.982-12.675      c-0.151-0.6,0.215-1.208,0.815-1.359c0.6-0.144,1.208,0.215,1.358,0.817c0.015,0.059,1.515,6.07,2.997,12.732      c0.134,0.604-0.247,1.202-0.852,1.338C149.722,343.328,149.641,343.337,149.56,343.337z"/>
			</g>
			<path style="fill:#241726;" d="M73.345,320.921c-0.45,0-0.873-0.271-1.045-0.718c-0.223-0.576,0.065-1.226,0.641-1.449     c1.751-0.676,43.13-16.495,64.854-12.762c0.61,0.105,1.019,0.685,0.914,1.296c-0.105,0.611-0.685,1.016-1.295,0.915     c-21.119-3.656-63.243,12.48-63.666,12.644C73.616,320.896,73.48,320.921,73.345,320.921z"/>
			<path style="fill:#FBFCFF;" d="M194.767,285.615c-0.47,0-0.906-0.298-1.063-0.766c-0.417-1.25-10.161-30.731-6.736-42.147     c0.177-0.593,0.802-0.935,1.396-0.751c0.593,0.177,0.929,0.801,0.752,1.394c-3.222,10.742,6.614,40.494,6.714,40.794     c0.196,0.587-0.121,1.222-0.708,1.419C195.003,285.597,194.884,285.615,194.767,285.615z"/>
			<path style="fill:#FBFCFF;" d="M280.511,278.329c-0.079,0-0.159-0.009-0.24-0.026c-0.604-0.131-0.988-0.727-0.857-1.333     c2.713-12.48-4.955-42.331-5.033-42.633c-0.155-0.598,0.205-1.211,0.803-1.366c0.601-0.151,1.212,0.206,1.366,0.806     c0.323,1.246,7.881,30.669,5.055,43.67C281.49,277.97,281.026,278.329,280.511,278.329z"/>
			<path style="fill:#FBFCFF;" d="M287.236,373.599c-0.022,0-0.043,0-0.065-0.002c-0.618-0.035-1.09-0.565-1.055-1.182     c0.776-13.673,2.597-50.041,1.705-54.053c-1.104-4.974-15.605-29.426-17.818-31.665c-3.607-0.16-41.302,3.22-66.644,5.578     l-6.453,13.986c-0.258,0.563-0.923,0.81-1.487,0.547c-0.563-0.261-0.808-0.926-0.548-1.489l6.725-14.571     c0.167-0.361,0.516-0.609,0.914-0.646c19.955-1.861,66.545-6.103,68.268-5.552c2.635,0.878,18.288,29.069,19.233,33.325     c1.141,5.136-1.542,52.646-1.657,54.666C288.319,373.137,287.826,373.599,287.236,373.599z"/>
			<path style="fill:#241726;" d="M323.101,328.766c-0.62,0-1.121-0.501-1.121-1.121c0-16.416-12.135-49.156-12.258-49.485     c-0.217-0.58,0.078-1.226,0.658-1.443c0.579-0.217,1.226,0.079,1.442,0.659c0.507,1.357,12.4,33.447,12.4,50.268     C324.221,328.265,323.72,328.766,323.101,328.766z"/>
			<path style="fill:#241726;" d="M158.341,310.833c-0.385,0-0.761-0.199-0.97-0.556c-4.086-7.005,0.779-33.281,0.988-34.395     c0.114-0.609,0.695-1.007,1.308-0.895c0.609,0.114,1.009,0.698,0.894,1.307c-1.38,7.369-4.298,27.635-1.253,32.854     c0.311,0.534,0.13,1.221-0.404,1.532C158.728,310.785,158.533,310.833,158.341,310.833z"/>
			<path style="fill:#241726;" d="M386.987,324.283c-0.62,0-1.121-0.501-1.121-1.121c0-6.964,14.137-29.879,14.738-30.851     c0.326-0.528,1.017-0.69,1.543-0.363c0.526,0.324,0.688,1.016,0.363,1.541c-4.006,6.473-14.403,24.419-14.403,29.673     C388.108,323.782,387.607,324.283,386.987,324.283z"/>
			<path style="fill:#241726;" d="M369.054,393.213c-0.287,0-0.574-0.109-0.792-0.328c-0.438-0.438-0.438-1.147,0-1.585     c3.439-3.439,1.954-10.67,1.938-10.742c-0.129-0.606,0.257-1.202,0.863-1.329c0.611-0.131,1.2,0.254,1.329,0.86     c0.074,0.344,1.76,8.492-2.545,12.795C369.628,393.104,369.341,393.213,369.054,393.213z"/>
			<path style="fill:#241726;" d="M378.582,394.334c-0.329,0-0.655-0.144-0.877-0.42c-0.386-0.484-0.308-1.189,0.175-1.576     c1.821-1.456,3.821-7.611,4.653-11.149c0.141-0.604,0.748-0.989,1.348-0.834c0.602,0.14,0.975,0.744,0.834,1.346     c-0.239,1.014-2.418,9.974-5.434,12.388C379.075,394.253,378.828,394.334,378.582,394.334z"/>
			<path style="fill:#241726;" d="M123.552,301.319c-0.574,0-1.062-0.438-1.115-1.02c-1.112-12.237-4.47-25.201-4.504-25.33     c-0.157-0.598,0.202-1.211,0.802-1.366c0.594-0.166,1.211,0.199,1.367,0.801c0.034,0.131,3.438,13.273,4.568,25.693     c0.056,0.615-0.398,1.16-1.015,1.217C123.62,301.317,123.586,301.319,123.552,301.319z"/>
			<path style="fill:#241726;" d="M344.662,318.896c-0.424,0-0.829-0.241-1.018-0.65c-4.511-9.726,6.264-59.811,6.725-61.936     c0.132-0.604,0.732-0.985,1.333-0.858c0.605,0.129,0.989,0.727,0.858,1.331c-3.095,14.288-10.365,53.009-6.883,60.522     c0.261,0.56,0.016,1.228-0.545,1.486C344.98,318.863,344.82,318.896,344.662,318.896z"/>
			<path style="fill:#DF4F3E;" d="M276.587,113.569c-3.443,0.098,14.197-6.351,9.34-12.703c-4.857-6.351-20.175-1.121-12.703-5.23     c7.472-4.11,7.099-24.658-1.494-23.537c-6.398,0.834-12.168,3.53-14.085,4.701c1.65-2.689,4.279-15.305-0.112-16.656     c-4.857-1.494-2.242,2.989-17.559,4.11c-2.05,0.15-3.723,0.519-5.122,1.026c2.183-5.953,3.02-11.84-2.35-12.607     c-10.461-1.494-27.273,18.68-27.273,18.68c-3.736-4.857,1.494-20.175-12.329-14.197c-13.823,5.978-7.846,23.164-7.846,23.164     c-7.099-5.231-27.273-7.846-31.757-1.121s16.065,24.284,8.593,21.296c-7.472-2.989-26.152,7.472-24.658,13.823     c1.494,6.351,20.175,9.34,15.318,9.714c-4.857,0.374-16.812,12.329-11.955,17.559c4.857,5.23,19.427,1.868,16.065,4.11     s-7.846,25.779,2.615,20.548c7.417-3.708,14.258-0.485,18.817-0.416c3.32,7.805,8.948,20.61,10.324,26.942     c1.868,8.593,25.405,36.24,48.942,27.647c23.537-8.593,25.779-11.956,33.998-28.768c6.768-13.844,1.633-41.097-1.018-51.964     c5.059-2.908,12.371-4.892,18.952-5.945C300.82,131.899,289.663,113.195,276.587,113.569z M255.291,192.773     c-7.846-1.121-6.083-14.079-8.967-17.933s-16.439-1.121-26.526,4.483s6.725,30.262-12.329,19.428     c-14.241-8.098-21.802-27.046-24.714-36.102c1.185-7.001-16.085-26.523-2.933-45.718c4.815-7.028,16.439-10.835,26.526-10.087     c10.087,0.747,5.978-8.593,26.152-11.955c13.4-2.233,21.851,22.386,27.114,37.649c-0.742,4.366,4.119,16.379,7.632,30.721     C271.73,181.565,263.137,193.894,255.291,192.773z"/>
			<path style="fill:#241726;" d="M235.863,219.672c-0.169,0-0.339-0.037-0.5-0.118c-6.395-3.196-8.362-12.708-8.443-13.113     c-0.121-0.606,0.271-1.195,0.879-1.318c0.598-0.123,1.196,0.271,1.319,0.878c0.018,0.09,1.838,8.844,7.248,11.548     c0.554,0.276,0.778,0.95,0.501,1.504C236.671,219.445,236.274,219.672,235.863,219.672z"/>
			<path style="fill:#241726;" d="M243.334,215.564c-0.206,0-0.414-0.057-0.601-0.175c-4.629-2.947-3.91-11.871-3.877-12.25     c0.053-0.617,0.572-1.068,1.213-1.02c0.616,0.053,1.073,0.595,1.02,1.213c-0.188,2.204-0.044,8.325,2.848,10.166     c0.522,0.333,0.676,1.025,0.344,1.548C244.068,215.38,243.704,215.564,243.334,215.564z"/>
			<path style="fill:#241726;" d="M253.048,211.08c-0.196,0-0.395-0.05-0.576-0.16c-4.132-2.48-4.611-10.468-4.653-11.372     c-0.028-0.617,0.45-1.141,1.068-1.169c0.637-0.053,1.143,0.449,1.171,1.066c0.099,2.121,0.933,7.973,3.567,9.553     c0.531,0.317,0.703,1.007,0.384,1.537C253.8,210.885,253.429,211.08,253.048,211.08z"/>
			<path style="fill:#241726;" d="M227.797,177.23c-0.483,0-0.929-0.313-1.074-0.801c-0.177-0.593,0.16-1.217,0.753-1.394     c0.266-0.079,6.204-1.843,9.124-2.145c0.263-2.215-2.25-11.596-4.899-19.544c-0.195-0.587,0.123-1.222,0.709-1.419     c0.592-0.195,1.223,0.125,1.419,0.709c2.382,7.152,6.146,19.492,4.581,21.766c-0.289,0.423-0.72,0.665-1.215,0.687     c-1.995,0.092-7.228,1.543-9.077,2.095C228.011,177.215,227.903,177.23,227.797,177.23z"/>
			<path style="fill:#241726;" d="M232.729,195.884c-5.338,0-9.465-11.668-10.245-14.03c-0.195-0.589,0.125-1.222,0.713-1.416     c0.587-0.204,1.22,0.125,1.415,0.711c1.727,5.223,5.367,12.495,8.111,12.495c0.026,0,0.053-0.002,0.079-0.002     c0.95-0.05,3.407-1.294,5.714-11.769c0.132-0.604,0.731-0.985,1.335-0.854c0.604,0.134,0.987,0.731,0.854,1.335     c-1.993,9.056-4.468,13.356-7.788,13.524C232.854,195.884,232.79,195.884,232.729,195.884z"/>
			<path style="fill:#241726;" d="M204.481,97.878c-0.298,0-0.595-0.118-0.817-0.352c-12.475-13.255-6.668-20.943-6.415-21.263     c0.383-0.486,1.09-0.569,1.575-0.186c0.483,0.383,0.567,1.081,0.19,1.567c-0.213,0.282-4.754,6.62,6.283,18.345     c0.424,0.451,0.403,1.16-0.048,1.585C205.033,97.777,204.757,97.878,204.481,97.878z"/>
			<path style="fill:#241726;" d="M219.798,91.527c-0.38,0-0.751-0.195-0.961-0.545c-0.061-0.101-5.997-10.212,1.338-16.733     c6.418-5.703,8.301-9.676,8.319-9.715c0.259-0.563,0.922-0.806,1.485-0.552c0.562,0.258,0.81,0.919,0.554,1.482     c-0.08,0.177-2.045,4.396-8.869,10.462c-5.94,5.28-1.112,13.555-0.903,13.905c0.316,0.532,0.143,1.219-0.387,1.537     C220.192,91.474,219.994,91.527,219.798,91.527z"/>
			<path style="fill:#241726;" d="M239.225,88.164c-0.491,0-0.942-0.326-1.079-0.823c-3.226-11.692,10.637-16.987,10.778-17.04     c0.576-0.217,1.223,0.079,1.439,0.659c0.216,0.58-0.079,1.226-0.659,1.443c-0.494,0.184-12.075,4.637-9.398,14.343     c0.165,0.595-0.186,1.213-0.783,1.379C239.425,88.151,239.325,88.164,239.225,88.164z"/>
			<path style="fill:#241726;" d="M250.807,97.503c-0.154,0-0.311-0.033-0.461-0.101c-0.564-0.256-0.814-0.917-0.559-1.482     c0.057-0.125,5.769-12.443,16.694-8.82c0.587,0.197,0.904,0.832,0.708,1.419s-0.827,0.908-1.417,0.709     c-8.993-3.01-13.745,7.18-13.942,7.616C251.641,97.258,251.234,97.503,250.807,97.503z"/>
			<path style="fill:#241726;" d="M257.906,110.581c-0.122,0-0.244-0.02-0.366-0.061c-0.584-0.201-0.895-0.841-0.694-1.425     c1.159-3.362,3.058-5.501,5.643-6.364c4.776-1.581,10.021,1.913,10.243,2.064c0.512,0.348,0.645,1.044,0.299,1.556     c-0.348,0.51-1.041,0.644-1.556,0.3c-0.045-0.028-4.56-3.028-8.285-1.791c-1.885,0.63-3.307,2.301-4.225,4.965     C258.806,110.29,258.371,110.581,257.906,110.581z"/>
			<path style="fill:#241726;" d="M273.395,126.244c-1.957,0-4.247-0.309-6.864-1.145c-0.59-0.188-0.915-0.821-0.726-1.41     c0.189-0.587,0.813-0.911,1.409-0.727c8.566,2.741,12.953-0.762,13.138-0.913c0.474-0.396,1.179-0.331,1.575,0.144     c0.395,0.473,0.337,1.173-0.134,1.572C281.635,123.902,278.779,126.244,273.395,126.244z"/>
			<path style="fill:#241726;" d="M186.92,102.361c-0.506,0-0.965-0.346-1.089-0.86c-2.071-8.629-14.078-12.605-14.199-12.644     c-0.589-0.19-0.912-0.823-0.721-1.412c0.192-0.587,0.82-0.908,1.411-0.72c0.543,0.175,13.328,4.415,15.689,14.255     c0.144,0.6-0.227,1.206-0.829,1.351C187.095,102.352,187.007,102.361,186.92,102.361z"/>
			<path style="fill:#241726;" d="M165.345,115.675c-2.561,0-5.122-0.493-7.107-1.948c-4.773-3.503-9.226,0.495-9.413,0.665     c-0.452,0.42-1.163,0.392-1.582-0.063c-0.419-0.455-0.393-1.16,0.059-1.581c2.045-1.898,7.237-4.514,12.261-0.83     c5.034,3.689,15.627-0.471,15.733-0.51c0.581-0.232,1.228,0.05,1.457,0.624c0.229,0.576-0.05,1.226-0.625,1.456     C175.806,113.617,170.575,115.675,165.345,115.675z"/>
			<path style="fill:#241726;" d="M155.537,136.36c-0.184,0-0.371-0.046-0.543-0.14c-0.542-0.302-0.737-0.983-0.436-1.526     c4.155-7.474,16.887-2.947,17.427-2.75c0.581,0.21,0.881,0.854,0.67,1.436c-0.211,0.58-0.85,0.882-1.435,0.67     c-0.115-0.039-11.477-4.08-14.703,1.734C156.313,136.152,155.931,136.36,155.537,136.36z"/>
			<path style="fill:#241726;" d="M163.012,155.414c-0.341,0-0.678-0.155-0.898-0.449c-0.372-0.495-0.271-1.197,0.224-1.57     c0.334-0.252,8.24-6.086,13.344-1.832c0.476,0.396,0.541,1.101,0.144,1.578c-0.397,0.473-1.104,0.541-1.578,0.142     c-3.761-3.128-10.498,1.854-10.566,1.907C163.481,155.341,163.246,155.414,163.012,155.414z"/>
			<path style="fill:#FBFCFF;" d="M253.61,124.217c-11.434,0-20.735,9.301-20.735,20.735c0,1.898,0.278,3.729,0.758,5.477     l-7.144,2.381c-2.955-7.851-10.521-13.462-19.393-13.462c-11.434,0-20.735,9.301-20.735,20.735c0,1.742,0.24,3.426,0.646,5.044     h-10.173c-0.62,0-1.121,0.501-1.121,1.121c0,0.62,0.501,1.121,1.121,1.121h10.648c0.075,0,0.14-0.029,0.21-0.042     c2.947,7.867,10.521,13.492,19.404,13.492c11.434,0,20.735-9.301,20.735-20.735c0-1.774-0.248-3.488-0.669-5.133l7.177-2.392     c3.041,7.678,10.524,13.129,19.271,13.129c11.434,0,20.735-9.301,20.735-20.735S265.044,124.217,253.61,124.217z      M207.096,178.577c-10.197,0-18.494-8.297-18.494-18.494c0-10.197,8.297-18.494,18.494-18.494s18.494,8.297,18.494,18.494     C225.589,170.28,217.293,178.577,207.096,178.577z M253.61,163.445c-7.997,0-14.805-5.112-17.379-12.232     c0.013-0.148-0.002-0.301-0.052-0.451c-0.054-0.161-0.145-0.296-0.254-0.412c-0.523-1.709-0.808-3.521-0.808-5.398     c0-10.197,8.297-18.494,18.494-18.494s18.494,8.297,18.494,18.494C272.103,155.149,263.807,163.445,253.61,163.445z"/>
			<path style="fill:#241726;" d="M235.042,279.297c-1.122,0-2.267-0.077-3.435-0.23c-11.966-1.574-21.745-8.319-28.281-19.505     c-4.905-8.395-6.248-16.212-6.302-16.541c-0.102-0.611,0.311-1.186,0.921-1.289c0.61-0.114,1.188,0.309,1.29,0.922     c0.051,0.304,5.444,30.61,32.666,34.189c5.951,0.788,11.273-0.637,15.801-4.227c13.128-10.405,15.789-35.614,15.814-35.868     c0.062-0.615,0.599-1.077,1.227-1.003c0.616,0.061,1.065,0.611,1.004,1.226c-0.107,1.073-2.788,26.414-16.652,37.403     C244.962,277.646,240.248,279.297,235.042,279.297z"/>
		</g>
		<g>
			<path style="fill:#52AFA6;" d="M95.581,378.746c-1.121-3.362-15.131-10.368-15.131-10.368l-2.899-38.893     c1.943-0.028,3.363-0.056,3.739-0.056c1.681,0,0.56-4.203-0.56-8.126c-1.121-3.923-23.817-2.522-23.817-2.522     s-1.961,8.406-0.56,9.807c0.307,0.307,1.632,0.516,3.478,0.661c-0.841,12.857,0.445,39.408,0.445,39.408     s-7.005,6.165-12.609,11.769c-4.621,4.621,2.522,77.337,2.522,77.337s44.553-0.56,49.036-0.56     C100.624,457.203,96.701,382.108,95.581,378.746z"/>
			<path style="fill:#FFFFFF;" d="M46.012,396.959c0,0,50.071-3.643,51.588-0.841c1.517,2.802,3.025,33.625,2.124,35.026     c-1.563,2.432-49.767,3.362-51.284,3.082C46.922,433.946,44.798,398.64,46.012,396.959z"/>
			<path style="fill:#241726;" d="M48.742,404.805c-0.578,0-1.068-0.444-1.116-1.029c-0.05-0.617,0.409-1.158,1.027-1.208     c4.245-0.346,41.613-3.345,46.527-1.922c0.594,0.171,0.938,0.792,0.766,1.388c-0.172,0.593-0.791,0.944-1.388,0.766     c-3.417-0.987-29.216,0.657-45.724,2.001C48.803,404.802,48.773,404.805,48.742,404.805z"/>
			<path style="fill:#241726;" d="M49.653,431.144c-0.586,0-1.078-0.453-1.118-1.046c-0.04-0.617,0.427-1.151,1.044-1.193     c14.552-0.965,42.939-3.023,46.217-3.888c0.59-0.162,1.211,0.199,1.369,0.797c0.158,0.6-0.199,1.213-0.798,1.37     c-4.303,1.136-44.914,3.842-46.64,3.958C49.703,431.144,49.678,431.144,49.653,431.144z"/>
			<path style="fill:#241726;" d="M71.765,329.43c-0.067,0-0.134-0.007-0.201-0.018c-2.928-0.532-9.774-0.267-9.842-0.263     c-0.638-0.015-1.141-0.458-1.165-1.077c-0.025-0.617,0.456-1.138,1.075-1.165c0.291-0.011,7.168-0.278,10.333,0.298     c0.61,0.112,1.014,0.694,0.902,1.305C72.768,329.051,72.297,329.43,71.765,329.43z"/>
			<path style="fill:#241726;" d="M77.086,322.985c-0.169,0-0.339-0.037-0.5-0.118c-1.243-0.624-9.246-0.714-16.268-0.442     c-0.558,0.018-1.138-0.458-1.162-1.077c-0.024-0.62,0.459-1.141,1.077-1.165c2.481-0.094,14.978-0.512,17.356,0.679     c0.554,0.278,0.778,0.95,0.501,1.504C77.893,322.757,77.498,322.985,77.086,322.985z"/>
			<path style="fill:#241726;" d="M55.791,455.522c-0.522,0-0.989-0.368-1.098-0.898c-0.123-0.609,0.27-1.2,0.877-1.322     c0.972-0.197,23.94-4.772,36.658-1.386c0.598,0.16,0.953,0.775,0.794,1.373c-0.16,0.6-0.769,0.959-1.371,0.795     c-12.206-3.257-35.402,1.37-35.635,1.416C55.94,455.515,55.864,455.522,55.791,455.522z"/>
			<path style="fill:#241726;" d="M74.566,361.093c-0.485,0-0.931-0.315-1.075-0.806c-1.424-4.838-1.983-17.657-2.006-18.2     c-0.026-0.62,0.453-1.143,1.072-1.169c0.614,0.02,1.142,0.453,1.168,1.073c0.005,0.131,0.57,13.089,1.917,17.666     c0.175,0.593-0.165,1.215-0.759,1.39C74.777,361.077,74.67,361.093,74.566,361.093z"/>
			<path style="fill:#241726;" d="M91.939,380.707c-0.371,0-0.733-0.184-0.947-0.519c-1.456-2.288-7.617-5.322-9.867-6.298     c-0.568-0.247-0.829-0.906-0.582-1.475c0.245-0.567,0.905-0.83,1.473-0.582c0.893,0.387,8.782,3.875,10.868,7.152     c0.333,0.523,0.178,1.215-0.344,1.548C92.353,380.65,92.145,380.707,91.939,380.707z"/>
			<path style="fill:#241726;" d="M60.837,419.936c-0.013,0-0.025,0-0.038,0c-0.618-0.022-1.103-0.539-1.083-1.158     c0.018-0.545,0.255-5.383,2.963-7.506c1.102-0.865,2.479-1.156,3.992-0.838c3.925,0.825,4.05,4.17,4.109,5.777     c0.002,0.053,0.004,0.107,0.007,0.164c0.739-0.698,1.272-1.924,1.755-3.032c0.763-1.751,1.483-3.408,2.903-3.894     c0.698-0.236,1.429-0.153,2.18,0.258c2.243,1.221,2.122,3.616,2.042,5.199c-0.026,0.517-0.074,1.48,0.082,1.659     c0.64,0.155,1.986-1.075,2.879-1.885c1.822-1.659,4.318-3.923,6.649-2.064c0.483,0.387,0.562,1.092,0.175,1.576     c-0.386,0.482-1.09,0.563-1.576,0.175c-0.775-0.624-2.039,0.427-3.741,1.972c-1.596,1.451-3.101,2.817-4.768,2.45     c-2.117-0.471-2.01-2.592-1.938-3.995c0.08-1.6,0.061-2.609-0.877-3.122c-0.099-0.053-0.28-0.14-0.381-0.103     c-0.485,0.166-1.141,1.672-1.575,2.669c-0.749,1.721-1.599,3.673-3.171,4.459c-0.286,0.142-1.153,0.582-1.965,0.099     c-0.845-0.501-0.883-1.517-0.919-2.502c-0.072-1.933-0.274-3.233-2.331-3.667c-0.863-0.184-1.565-0.048-2.146,0.409     c-1.611,1.263-2.067,4.628-2.107,5.816C61.936,419.459,61.438,419.936,60.837,419.936z"/>
		</g>
	</g>
</g>















</svg>
