<?xml version="1.0" encoding="utf-8"?>
<!-- Generator: Adobe Illustrator 22.1.0, SVG Export Plug-In . SVG Version: 6.00 Build 0)  -->
<svg version="1.1" id="Layer_1" xmlns="http://www.w3.org/2000/svg" xmlns:xlink="http://www.w3.org/1999/xlink" x="0px" y="0px"
	 viewBox="0 0 838.8 724.2" style="enable-background:new 0 0 838.8 724.2;" xml:space="preserve">
<style type="text/css">
	.st0{fill:#682E1F;}
	.st1{opacity:0.2;fill:#662C1D;enable-background:new    ;}
	.st2{fill:url(#_Path_10_1_);}
	.st3{fill:url(#_Path_11_1_);}
	.st4{fill:url(#_Path_13_1_);}
	.st5{fill:url(#_Path_15_1_);}
	.st6{fill:url(#_Path_17_1_);}
	.st7{fill:url(#_Path_19_1_);}
	.st8{fill:url(#_Path_21_1_);}
	.st9{fill:url(#_Path_23_1_);}
	.st10{opacity:0.3;fill:url(#_Path_24_1_);enable-background:new    ;}
	.st11{opacity:0.3;fill:url(#_Path_25_1_);enable-background:new    ;}
	.st12{opacity:0.3;fill:url(#_Path_26_1_);enable-background:new    ;}
	.st13{opacity:0.3;fill:url(#_Path_27_1_);enable-background:new    ;}
	.st14{opacity:0.3;fill:url(#_Path_28_1_);enable-background:new    ;}
	.st15{opacity:0.3;fill:url(#_Path_29_1_);enable-background:new    ;}
	.st16{opacity:0.3;fill:url(#_Path_30_1_);enable-background:new    ;}
	.st17{fill:#ECB39A;}
	.st18{opacity:0.3;fill:#662C1D;enable-background:new    ;}
	.st19{fill:#C09B90;}
	.st20{fill:url(#_Path_40_1_);}
	.st21{fill:#FFE2CE;}
	.st22{opacity:0.1;fill:#964E3B;enable-background:new    ;}
	.st23{fill:#A85F4D;}
	.st24{fill:#662C1D;}
	.st25{opacity:0.2;fill:#40170D;enable-background:new    ;}
	.st26{opacity:0.1;fill:#ECB39A;enable-background:new    ;}
</style>
<title>Asset 19</title>
<g>
	<g id="Layer_2_1_">
		<g id="Layer_4">
			<g id="_Group_">
				<g id="_Group_2">
					<path id="_Path_8" class="st0" d="M18.7,202.3c-7.6,14.2-25.5,176.2-16,194.2s139,69.9,305.8,34.4
						C481.3,394,530.5,307.6,534.1,294.5s4.1-90.3-20.7-221.4C513.4,73.1,26.3,188,18.7,202.3z"/>
					<path id="_Path_9" class="st1" d="M513.4,73.1c0,0-175.3,41.4-317.2,77.5c48.7,46,69.9,113.5,72.8,178.6c1.3,35.2-6,68-22,98.4
						c-1.4,4.5-3.1,8.8-4.8,13.1c22.3-2,44.5-5.3,66.4-10C481.3,394,530.5,307.6,534.1,294.5S538.2,204.1,513.4,73.1z"/>
					
						<radialGradient id="_Path_10_1_" cx="371.8853" cy="703.69" r="79.836" gradientTransform="matrix(1 0 0 -1 -44.14 726)" gradientUnits="userSpaceOnUse">
						<stop  offset="0" style="stop-color:#87493C"/>
						<stop  offset="1" style="stop-color:#672D1E"/>
					</radialGradient>
					<path id="_Path_10" class="st2" d="M324.3,0.1c-44.7,1.9-81.4,41.8-77.4,85.8c4.2,47.2,53.3,78.2,97,69.8
						c34.9-6.8,64.6-38.4,65-75.9C409.3,36.1,369.8-1.9,324.3,0.1z"/>
					
						<linearGradient id="_Path_11_1_" gradientUnits="userSpaceOnUse" x1="360.0244" y1="732.1506" x2="378.0145" y2="602.6107" gradientTransform="matrix(1 0 0 -1 -44.14 726)">
						<stop  offset="0" style="stop-color:#87493C"/>
						<stop  offset="1" style="stop-color:#672D1E"/>
					</linearGradient>
					<path id="_Path_11" class="st3" d="M324.3,0.1c-44.7,1.9-81.4,41.8-77.4,85.8c4.2,47.2,53.3,78.2,97,69.8
						c34.9-6.8,64.6-38.4,65-75.9C409.3,36.1,369.8-1.9,324.3,0.1z"/>
					<path id="_Path_12" class="st1" d="M390.2,29.6c-15.4,26.1-45,44.3-75.6,44.3c-23,0.1-45.1-9.3-60.9-26
						c-5.6,11.9-7.9,25-6.8,38.1c4.2,47.2,53.3,78.2,97,69.8c34.9-6.8,64.6-38.4,65-75.9C409.1,61.1,401.9,43.5,390.2,29.6z"/>
					
						<linearGradient id="_Path_13_1_" gradientUnits="userSpaceOnUse" x1="235.3667" y1="683.1595" x2="259.3567" y2="523.6295" gradientTransform="matrix(1 0 0 -1 -44.14 726)">
						<stop  offset="0" style="stop-color:#87493C"/>
						<stop  offset="1" style="stop-color:#672D1E"/>
					</linearGradient>
					<path id="_Path_13" class="st4" d="M205.4,52.3c-51.1,0.6-93,44.5-92.4,91.8c0.6,57.2,63.1,102.1,118.2,87.7
						c40.2-10.5,73-51.7,67.9-98.2C293.9,86.2,251.2,51.8,205.4,52.3z"/>
					<path id="_Path_14" class="st1" d="M293.6,111.4c-18.2,33-55,56.2-92.9,56.2c-36.1,0-66.4-18.1-84.9-45.3
						c-1.9,7.1-2.8,14.4-2.7,21.8c0.6,57.2,63.1,102.1,118.2,87.7c40.2-10.5,73-51.7,67.9-98.2C298.2,126,296.4,118.6,293.6,111.4z"
						/>
					
						<linearGradient id="_Path_15_1_" gradientUnits="userSpaceOnUse" x1="114.1777" y1="577.5261" x2="141.7677" y2="491.1761" gradientTransform="matrix(1 0 0 -1 -44.14 726)">
						<stop  offset="0" style="stop-color:#87493C"/>
						<stop  offset="1" style="stop-color:#672D1E"/>
					</linearGradient>
					<path id="_Path_15" class="st5" d="M100.5,146.8c-36.7-4.7-76.1,18.9-83,56.3c-7.4,40.4,26.3,79.4,66.9,83.6
						c39.4,4,79.9-25.2,82.2-65.7C168.9,183.1,136.5,151.4,100.5,146.8z"/>
					<path id="_Path_16" class="st1" d="M148.2,171.8c0.5,2.9,0.8,5.8,1,8.7c1.3,29.9-21.3,56.1-48.9,64.5c2.4,13.5,4,27.2,4.8,40.9
						c31.8-5.7,59.7-31.5,61.6-64.9C167.7,202.3,160.3,185,148.2,171.8z"/>
					
						<linearGradient id="_Path_17_1_" gradientUnits="userSpaceOnUse" x1="480.0115" y1="707.4352" x2="494.4015" y2="621.0753" gradientTransform="matrix(1 0 0 -1 -44.14 726)">
						<stop  offset="0" style="stop-color:#87493C"/>
						<stop  offset="1" style="stop-color:#672D1E"/>
					</linearGradient>
					<path id="_Path_17" class="st6" d="M456.6,20.7c-36.8-4.8-77,23.9-77.3,63.3c-0.4,38.1,36.7,69,74.7,64.9
						c34.8-3.7,63.7-36.1,60-71.4C510.7,47.1,484.4,24.4,456.6,20.7z"/>
					<path id="_Path_18" class="st1" d="M507.6,56.5C495.2,79,470,94.8,444.1,94.8S396.8,81.1,384.3,61c-3.2,7.2-5,15.1-5,23
						c-0.4,38.1,36.7,69,74.7,64.9c34.8-3.7,63.7-36.1,60-71.4C513.2,70.2,511,63.1,507.6,56.5z"/>
					
						<linearGradient id="_Path_19_1_" gradientUnits="userSpaceOnUse" x1="388.9706" y1="648.5702" x2="447.5706" y2="463.9502" gradientTransform="matrix(1 0 0 -1 -44.14 726)">
						<stop  offset="0" style="stop-color:#87493C"/>
						<stop  offset="0.48" style="stop-color:#763A2C"/>
						<stop  offset="1" style="stop-color:#672D1E"/>
					</linearGradient>
					<path id="_Path_19" class="st7" d="M372.2,93.2c-56.1,4.9-97.6,59-87.4,114.4c10.6,57.6,72.2,90.8,124.5,75.2
						c41.7-12.5,71.6-54.3,68.6-98.9C474.4,131.5,426.6,88.4,372.2,93.2z"/>
					<path id="_Path_20" class="st1" d="M477.9,183.9c-0.8-11.1-3.5-22.1-8.1-32.2c-15.5,35.8-53.5,61.7-92.8,61.7
						s-71.5-22.6-88.1-54.8c-5.7,15.7-7.1,32.6-4.1,49.1c10.6,57.6,72.2,90.8,124.5,75.2C451,270.3,480.9,228.5,477.9,183.9z"/>
					
						<linearGradient id="_Path_21_1_" gradientUnits="userSpaceOnUse" x1="274.9821" y1="566.7103" x2="296.5721" y2="404.7803" gradientTransform="matrix(1 0 0 -1 -44.14 726)">
						<stop  offset="0" style="stop-color:#87493C"/>
						<stop  offset="1" style="stop-color:#672D1E"/>
					</linearGradient>
					<path id="_Path_21" class="st8" d="M242.6,180.1c-47.3,1.3-93,39.7-94,89.5c-1.1,53.4,49.4,94.9,100.5,93.4
						c46.6-1.3,91.7-38.4,93.9-87.1C345.4,222.5,294.9,178.7,242.6,180.1z"/>
					<path id="_Path_22" class="st1" d="M328.1,224.7c-6.5,31.7-32.1,57.9-62.7,68.1c1.8,12.1,3,24.2,3.6,36.4
						c0.4,10.5,0,21-1.3,31.4c39.4-9.1,73.4-42.5,75.3-84.7C343.9,257.2,338.1,239.6,328.1,224.7z"/>
					
						<linearGradient id="_Path_23_1_" gradientUnits="userSpaceOnUse" x1="130.267" y1="568.9391" x2="137.467" y2="385.4291" gradientTransform="matrix(1 0 0 -1 -44.14 726)">
						<stop  offset="0" style="stop-color:#87493C"/>
						<stop  offset="1" style="stop-color:#672D1E"/>
					</linearGradient>
					<path id="_Path_23" class="st9" d="M96,232.4c-37-2.2-73.2,27.5-73.3,65.3c0,39.4,39.1,69.5,77,65.3
						c31.5-3.5,61.4-30.7,60.9-66C160.1,261.2,128.7,234.4,96,232.4z"/>
				</g>
				
					<linearGradient id="_Path_24_1_" gradientUnits="userSpaceOnUse" x1="117.6622" y1="563.1077" x2="137.7046" y2="501.333" gradientTransform="matrix(1 0 0 -1 -44.14 726)">
					<stop  offset="1.204870e-02" style="stop-color:#FFE1B5"/>
					<stop  offset="0.2316" style="stop-color:#CDA583"/>
					<stop  offset="0.4488" style="stop-color:#A17157"/>
					<stop  offset="0.6365" style="stop-color:#814C38"/>
					<stop  offset="0.7875" style="stop-color:#6E3525"/>
					<stop  offset="0.8828" style="stop-color:#672D1E"/>
				</linearGradient>
				<path id="_Path_24" class="st10" d="M71.1,158.5c-17.4,5-38.2,20.5-36,35.2c2.4,15.9,31.1,27.1,53.7,21.4
					c21.4-5.4,41.3-27.1,36.6-42.1C120.7,157.6,91.7,152.6,71.1,158.5z"/>
				
					<linearGradient id="_Path_25_1_" gradientUnits="userSpaceOnUse" x1="227.7287" y1="660.8714" x2="248.8996" y2="592.6624" gradientTransform="matrix(1 0 0 -1 -44.14 726)">
					<stop  offset="1.204870e-02" style="stop-color:#FFE1B5"/>
					<stop  offset="0.2316" style="stop-color:#CDA583"/>
					<stop  offset="0.4488" style="stop-color:#A17157"/>
					<stop  offset="0.6365" style="stop-color:#814C38"/>
					<stop  offset="0.7875" style="stop-color:#6E3525"/>
					<stop  offset="0.8828" style="stop-color:#672D1E"/>
				</linearGradient>
				<path id="_Path_25" class="st11" d="M192.3,64.5c-28.6,5-55.7,29.3-51.6,43c3.7,12.4,32.9,16.3,54.4,11.5
					c25.8-5.7,52.1-26.5,48.7-40.1C240.7,66.3,213.1,60.8,192.3,64.5z"/>
				
					<linearGradient id="_Path_26_1_" gradientUnits="userSpaceOnUse" x1="265.64" y1="531.0211" x2="284.2758" y2="458.3346" gradientTransform="matrix(1 0 0 -1 -44.14 726)">
					<stop  offset="1.204870e-02" style="stop-color:#FFE1B5"/>
					<stop  offset="0.2316" style="stop-color:#CDA583"/>
					<stop  offset="0.4488" style="stop-color:#A17157"/>
					<stop  offset="0.6365" style="stop-color:#814C38"/>
					<stop  offset="0.7875" style="stop-color:#6E3525"/>
					<stop  offset="0.8828" style="stop-color:#672D1E"/>
				</linearGradient>
				<path id="_Path_26" class="st12" d="M228.2,194.1c-25.9,4.6-52.5,26.2-49.1,40.9c3.5,15.3,39.5,24.9,65.9,13.8
					c18.3-7.6,37.1-27.3,32.3-41.1S245.8,191,228.2,194.1z"/>
				
					<linearGradient id="_Path_27_1_" gradientUnits="userSpaceOnUse" x1="120.1472" y1="479.4359" x2="137.1474" y2="423.9496" gradientTransform="matrix(1 0 0 -1 -44.14 726)">
					<stop  offset="1.204870e-02" style="stop-color:#FFE1B5"/>
					<stop  offset="0.2316" style="stop-color:#CDA583"/>
					<stop  offset="0.4488" style="stop-color:#A17157"/>
					<stop  offset="0.6365" style="stop-color:#814C38"/>
					<stop  offset="0.7875" style="stop-color:#6E3525"/>
					<stop  offset="0.8828" style="stop-color:#672D1E"/>
				</linearGradient>
				<path id="_Path_27" class="st13" d="M81.3,242.1c-19.4,3.4-41.2,19-39,32.5s27.9,23.5,48,17.4c19.1-5.7,35.2-26.6,30-39.1
					C115.6,241.6,94.5,239.8,81.3,242.1z"/>
				<linearGradient id="_Path_28_1_" gradientUnits="userSpaceOnUse" x1="427.8419" y1="27.1865" x2="449.9462" y2="79.3528">
					<stop  offset="1.204870e-02" style="stop-color:#FFE1B5"/>
					<stop  offset="0.2316" style="stop-color:#CDA583"/>
					<stop  offset="0.4488" style="stop-color:#A17157"/>
					<stop  offset="0.6365" style="stop-color:#814C38"/>
					<stop  offset="0.7875" style="stop-color:#6E3525"/>
					<stop  offset="0.8828" style="stop-color:#672D1E"/>
				</linearGradient>
				<path id="_Path_28" class="st14" d="M437.5,30.9c-15.9,2.4-34.1,14.7-32.5,25.8s22.4,19.7,38.9,15.2
					c15.7-4.3,29.3-21.1,25.3-31.4C465.6,31.1,448.4,29.2,437.5,30.9z"/>
				
					<linearGradient id="_Path_29_1_" gradientUnits="userSpaceOnUse" x1="402.1892" y1="614.6797" x2="425.5532" y2="543.6526" gradientTransform="matrix(1 0 0 -1 -44.14 726)">
					<stop  offset="1.204870e-02" style="stop-color:#FFE1B5"/>
					<stop  offset="0.2316" style="stop-color:#CDA583"/>
					<stop  offset="0.4488" style="stop-color:#A17157"/>
					<stop  offset="0.6365" style="stop-color:#814C38"/>
					<stop  offset="0.7875" style="stop-color:#6E3525"/>
					<stop  offset="0.8828" style="stop-color:#672D1E"/>
				</linearGradient>
				<path id="_Path_29" class="st15" d="M365.4,105.9c-25.8,4.6-53,25.7-49.7,41.4s36.8,25.8,62.3,17.2
					c21.9-7.4,42.4-30.1,37.1-44.8C410.1,105.7,383.1,102.7,365.4,105.9z"/>
				<linearGradient id="_Path_30_1_" gradientUnits="userSpaceOnUse" x1="303.9153" y1="3.0261" x2="332.3607" y2="67.6748">
					<stop  offset="1.204870e-02" style="stop-color:#FFE1B5"/>
					<stop  offset="0.2316" style="stop-color:#CDA583"/>
					<stop  offset="0.4488" style="stop-color:#A17157"/>
					<stop  offset="0.6365" style="stop-color:#814C38"/>
					<stop  offset="0.7875" style="stop-color:#6E3525"/>
					<stop  offset="0.8828" style="stop-color:#672D1E"/>
				</linearGradient>
				<path id="_Path_30" class="st16" d="M316.5,8.2c-23.5,4.1-45.8,24.1-42.5,35.4c3,10.2,27.1,13.4,44.8,9.4
					c21.2-4.7,42.9-21.8,40.1-33C356.5,9.7,333.7,5.2,316.5,8.2z"/>
				<path id="_Path_31" class="st17" d="M177.7,72.9c-3.1-12.3,32.9-16.5,34.8-8.2C215.5,77.5,180.4,83.7,177.7,72.9z"/>
				<path id="_Path_32" class="st17" d="M208.4,202.4c-3.1-12.3,32.9-16.5,34.8-8.2C246.1,207,211.1,213.1,208.4,202.4z"/>
				<path id="_Path_33" class="st17" d="M63,250.8c-3-12.3,33-16.5,34.8-8.2C100.8,255.5,65.8,261.6,63,250.8z"/>
				<path id="_Path_34" class="st17" d="M421.1,40c-3-9.9,26.7-16.2,28.7-7.9C452.8,44.9,424.2,50.4,421.1,40z"/>
				<path id="_Path_35" class="st17" d="M58.3,165.5c-3-9.9,26.7-16.2,28.7-7.9C90,170.5,61.5,175.9,58.3,165.5z"/>
				<path id="_Path_36" class="st17" d="M346.8,113.4c-3.1-12.3,32.9-16.5,34.8-8.2C384.5,118.1,349.4,124.2,346.8,113.4z"/>
				<path id="_Path_37" class="st17" d="M297.3,17.5C294.2,5.2,330.2,1,332.1,9.3C335.1,22.2,300,28.3,297.3,17.5z"/>
				<path id="_Path_38" class="st18" d="M523.4,131.2c-65.4,234-254,289.3-353.3,289.3c-61.5,0-118.6-16.2-170-44.5
					c0.2,10,1,17.3,2.7,20.4c9.6,18,139,69.9,305.8,34.4C481.3,394,530.5,307.6,534.1,294.5C537.1,283.4,538,226.9,523.4,131.2z"/>
			</g>
			<g id="_Group_3">
				<path id="_Path_39" class="st19" d="M305.5,393.2c0,0,0.9-75.5,55.3-50.9c0,0,8.5-99.6,74.4-38.1c0,0,3.3-40.8,25.3-51.4
					s46.1,23.6,46.1,23.6s12.7-36,34.7-40.4s44.4,31.6,44.4,31.6S605.2,236,628,236c25.5,0,35,45.7,35,45.7s28.2-24.8,47.5-18.7
					c16,5,22.7,32.8,21.8,48.6c0,0,61.7-36,57.3,45.7c0,0,48-31.1,49.1,35.9l-63.4,145l-417.2,15L305.5,393.2z"/>
				<g id="_Group_4">
					
						<linearGradient id="_Path_40_1_" gradientUnits="userSpaceOnUse" x1="898.77" y1="297.02" x2="591.53" y2="297.02" gradientTransform="matrix(1 0 0 -1 -44.14 726)">
						<stop  offset="0" style="stop-color:#885144"/>
						<stop  offset="0.59" style="stop-color:#72392A"/>
						<stop  offset="1" style="stop-color:#662C1D"/>
					</linearGradient>
					<path id="_Path_40" class="st20" d="M329.2,449.3c0,0-16.5-85.2,2.5-99.2s39.4,15.3,39.4,15.3s1.3-52.2,24.2-64.9
						s45.8,25.4,45.8,25.4s-0.8-48.8,20.4-57.2c25.4-10.2,47.1,28,47.1,28s7.6-40.7,33.1-43.2s44.5,33.1,44.5,33.1
						s17.2-35.6,37.5-35.6c26.7,0,30.5,49.6,30.5,49.6s24.8-30.5,45.2-24.2c25.3,7.9,17.8,52.2,17.8,52.2s22.4-16.7,43.2-8.9
						c20.4,7.6,17.8,53.4,17.8,53.4s26.7-19.1,38.2-7.6c16.5,16.5,7.6,67.4,6.4,71.2S704.5,607.1,704.5,607.1L396.7,602L329.2,449.3
						z"/>
					<path id="_Path_41" class="st21" d="M321.9,421c18.8,29.6,104.8,119.9,255.8,119.9c156,0,228.5-87.8,243.8-110.6
						c-5.1-8.3-86.1-120.5-244.6-124.7C415.3,301.2,326.7,414,321.9,421z"/>
					<path id="_Path_42" class="st22" d="M577,305.6C415.3,301.2,326.7,414,321.9,421c5.9,9.3,18.5,24.7,37.7,41.3
						c11.7-30.4,29.9-58.8,50.9-79.8c40.1-40.1,99.7-64.8,156.5-64.8c60,0,113.2,25.1,156.5,64.8c27.4,25.1,45,58,54.9,93.2
						c23.5-18.9,37.4-36.8,43.2-45.4C816.5,422,735.4,309.9,577,305.6z"/>
					<path id="_Path_43" class="st23" d="M409.3,477.4c0,0,118.1-142,130.8-129.2c9,9-108.5,135.6-108.5,135.6L409.3,477.4z"/>
					<path id="_Path_44" class="st22" d="M577,305.6C415.3,301.2,326.7,414,321.9,421c9.1,14.4,34.3,43.2,75,69
						c1.7-4.6-13.2-27.5-11.8-33C417.7,332.8,589.4,315.8,667,320.8C637.9,311.4,607.6,306.3,577,305.6z"/>
					<path id="_Path_45" class="st19" d="M306.1,389.9c0,0,28-17.6,55.8,44.6c0,0,54.8-40.5,71,34.8c0,0,49.6-47.7,74.4,25.8
						c0,0,45.8-51.5,72.5,5.7c0,0,38.2-75.4,78.2-3.8c0,0,21.9-68.7,66.8-21.9c0,0,13.3-84,66.8-36.2c0,0,25.8-59.1,47.2-45.7
						l-85.3,195.5l-379.7-13.4L306.1,389.9z"/>
					<path id="_Path_46" class="st24" d="M371.3,700.5c0,0-57.9-265.1-65.8-310.2c11.4-8.6,51.9,59.8,51.9,59.8s13.9-20.3,38.2-16
						s29.6,63,29.6,63s17.5-34.3,42-29.6c24.8,4.8,35.3,58.2,35.3,58.2s14.8-36.2,42-37.2c24.8-1,37.2,41,37.2,41
						s8.1-43.5,35.3-47.7c24.8-3.8,41,42.9,41,42.9s13.8-46.7,32.4-52.5s38.2,28.6,38.2,28.6s12.4-53.4,29.6-62s38.2,22.9,38.2,22.9
						s35.3-76.8,42.4-68.6c-6.3,47.5-64.3,306.2-64.3,306.2S616.1,754.6,371.3,700.5z"/>
					<path id="_Path_47" class="st25" d="M796.4,461.7c0,0-11.4-17-24.2-22.6c0,0.8,0.1,1.5,0.1,2.2
						c4.4,129.9-48.6,192.1-135.1,228.6c-91.4,38.5-202.1,43.3-282.9-48c9.8,45.1,17.1,78.5,17.1,78.5
						c244.8,54.1,403.1-1.2,403.1-1.2s58-258.6,64.3-306.2C831.7,384.9,796.4,461.7,796.4,461.7z"/>
				</g>
				<path id="_Path_48" class="st23" d="M402.9,383.2c-1.6,12.8,150.8,61.1,158.8,50S404.7,368.6,402.9,383.2z"/>
				<path id="_Path_49" class="st23" d="M575.4,492.7c51.2-61.6,138.1-168.7,121-165.3c-16.9,3.4-94.4,95.2-138.4,148.8
					C564.1,478.9,570,484,575.4,492.7z"/>
				<path id="_Path_50" class="st23" d="M731.4,452.3c2.6-6.4,6-13,10.6-18.2c-56.4-18.3-189.3-60.3-184.3-47.7
					C563,399.8,675.8,435.5,731.4,452.3z"/>
				<path id="_Path_51" class="st26" d="M425.5,711c-7.6-50.5-38-244.6-56.8-232.4c-15.3,9.9,21.7,188,30.1,227.6
					C407.8,707.9,416.7,709.5,425.5,711z"/>
				<path id="_Path_52" class="st26" d="M453.5,513.8c-17.2,6.4-1.4,153.3,5.8,202.2c9.4,1.2,18.6,2.3,27.7,3.2
					C485.1,659.6,473.8,506.2,453.5,513.8z"/>
				<path id="_Path_53" class="st26" d="M534.7,546.9c-18.8,6.3-11.6,127.7-5.4,175.8c10,0.6,19.7,1,29.1,1.2
					C560.3,665.7,553.4,540.7,534.7,546.9z"/>
				<path id="_Path_54" class="st26" d="M606.9,542.4c-17.4,9.2-16.3,142.8-13.8,181.8c10.4-0.1,20.3-0.4,29.9-0.9
					C624.9,667.2,624.8,532.9,606.9,542.4z"/>
			</g>
		</g>
	</g>
</g>
</svg>
