<svg xmlns="http://www.w3.org/2000/svg" xmlns:xlink="http://www.w3.org/1999/xlink" viewBox="0 0 599.13 760.07"><defs><style>.cls-1{isolation:isolate;}.cls-2{fill:url(#linear-gradient);}.cls-3{fill:url(#linear-gradient-2);}.cls-4{fill:#6e3324;}.cls-4,.cls-7,.cls-8{opacity:0.7;}.cls-5{fill:#713626;}.cls-6{fill:url(#linear-gradient-3);}.cls-7{fill:#9f644c;}.cls-8{fill:#763727;}.cls-9{fill:url(#radial-gradient);}.cls-10{fill:url(#radial-gradient-2);}.cls-11{fill:url(#radial-gradient-3);}.cls-12{fill:url(#radial-gradient-4);}.cls-13{fill:url(#radial-gradient-5);}.cls-14{fill:url(#radial-gradient-6);}.cls-15{fill:url(#radial-gradient-7);}.cls-16{fill:url(#linear-gradient-4);}.cls-17{fill:#bb612a;}.cls-18{fill:#c97948;opacity:0.3;}.cls-19{fill:#cd875a;}.cls-20{fill:#8c523e;opacity:0.15;mix-blend-mode:multiply;}.cls-21{fill:url(#linear-gradient-5);}.cls-22{fill:url(#linear-gradient-6);}.cls-23{fill:url(#linear-gradient-7);}.cls-24{fill:url(#linear-gradient-8);}.cls-25{fill:url(#linear-gradient-9);}.cls-26{fill:url(#linear-gradient-10);}.cls-27{fill:#9d7b69;}.cls-28{fill:url(#linear-gradient-11);}.cls-29{fill:url(#linear-gradient-12);}.cls-30{fill:url(#linear-gradient-13);}.cls-31{fill:url(#linear-gradient-14);}.cls-32{fill:url(#linear-gradient-15);}.cls-33{fill:url(#linear-gradient-16);}.cls-34{fill:url(#linear-gradient-17);}.cls-35{fill:url(#linear-gradient-18);}.cls-36{fill:url(#linear-gradient-19);}.cls-37{fill:url(#linear-gradient-20);}.cls-38{fill:url(#linear-gradient-21);}.cls-39{fill:url(#linear-gradient-22);}</style><linearGradient id="linear-gradient" x1="-1024.87" y1="1162.54" x2="-1020.12" y2="1186.68" gradientTransform="matrix(0.78, 0.62, -0.62, 0.78, 1956.51, -234.36)" gradientUnits="userSpaceOnUse"><stop offset="0" stop-color="#57332b"/><stop offset="0.39" stop-color="#543129"/><stop offset="0.71" stop-color="#4a2921"/><stop offset="1" stop-color="#391d15"/></linearGradient><linearGradient id="linear-gradient-2" x1="186.98" y1="49.8" x2="440.87" y2="452.88" gradientTransform="translate(-44.14)" gradientUnits="userSpaceOnUse"><stop offset="0" stop-color="#8f4f3c"/><stop offset="0.43" stop-color="#8c4c39"/><stop offset="0.78" stop-color="#824431"/><stop offset="1" stop-color="#773b29"/></linearGradient><linearGradient id="linear-gradient-3" x1="161.47" y1="67.08" x2="438.1" y2="376.26" gradientTransform="translate(-44.14)" gradientUnits="userSpaceOnUse"><stop offset="0" stop-color="#985742"/><stop offset="0.46" stop-color="#955440"/><stop offset="0.84" stop-color="#8b4c38"/><stop offset="1" stop-color="#844733"/></linearGradient><radialGradient id="radial-gradient" cx="2257.09" cy="-253.39" r="35.21" gradientTransform="translate(-1266.29 248.07) rotate(1.1) scale(0.63)" gradientUnits="userSpaceOnUse"><stop offset="0" stop-color="#c3927c"/><stop offset="0.72" stop-color="#c08f79"/><stop offset="1" stop-color="#bc8c76"/></radialGradient><radialGradient id="radial-gradient-2" cx="2348.79" cy="-490" r="14.96" gradientTransform="translate(-1377.46 348.12) rotate(5.78) scale(0.63)" xlink:href="#radial-gradient"/><radialGradient id="radial-gradient-3" cx="2321.43" cy="-379.26" r="14.69" gradientTransform="translate(-1377.46 348.12) rotate(5.78) scale(0.63)" xlink:href="#radial-gradient"/><radialGradient id="radial-gradient-4" cx="2298.71" cy="-431.58" r="21.98" gradientTransform="translate(-1377.46 348.12) rotate(5.78) scale(0.63)" xlink:href="#radial-gradient"/><radialGradient id="radial-gradient-5" cx="2292.78" cy="-503.04" r="11.33" gradientTransform="translate(-1377.46 348.12) rotate(5.78) scale(0.63)" xlink:href="#radial-gradient"/><radialGradient id="radial-gradient-6" cx="2256.31" cy="-353.48" r="9.64" gradientTransform="translate(-1377.46 348.12) rotate(5.78) scale(0.63)" xlink:href="#radial-gradient"/><radialGradient id="radial-gradient-7" cx="2342.44" cy="-542.19" r="8.97" gradientTransform="translate(-1377.46 348.12) rotate(5.78) scale(0.63)" xlink:href="#radial-gradient"/><linearGradient id="linear-gradient-4" x1="340.67" y1="730.75" x2="340.67" y2="580.47" gradientTransform="translate(-44.14)" gradientUnits="userSpaceOnUse"><stop offset="0" stop-color="#8e4a26"/><stop offset="1" stop-color="#864422"/></linearGradient><linearGradient id="linear-gradient-5" x1="42.3" y1="531.7" x2="647.13" y2="531.7" gradientTransform="translate(-44.14)" gradientUnits="userSpaceOnUse"><stop offset="0.01" stop-color="#e0a66c"/><stop offset="1" stop-color="#ad6b3e"/></linearGradient><linearGradient id="linear-gradient-6" x1="524.73" y1="101.47" x2="535.12" y2="101.47" gradientTransform="translate(-44.14)" xlink:href="#linear-gradient"/><linearGradient id="linear-gradient-7" x1="316.33" y1="145.83" x2="330.37" y2="145.83" gradientTransform="translate(-44.14)" xlink:href="#linear-gradient"/><linearGradient id="linear-gradient-8" x1="156.87" y1="83.8" x2="162.46" y2="112.15" gradientTransform="translate(-44.14)" xlink:href="#linear-gradient"/><linearGradient id="linear-gradient-9" x1="-506.89" y1="435.55" x2="-486.36" y2="476" gradientTransform="translate(873.94 -255.98) rotate(18.19)" xlink:href="#linear-gradient"/><linearGradient id="linear-gradient-10" x1="397.37" y1="109.2" x2="406.51" y2="155.56" gradientTransform="translate(-44.14)" xlink:href="#linear-gradient"/><linearGradient id="linear-gradient-11" x1="183.2" y1="156.8" x2="189.11" y2="186.77" gradientTransform="translate(-44.14)" xlink:href="#linear-gradient"/><linearGradient id="linear-gradient-12" x1="270.26" y1="174.43" x2="275.61" y2="201.53" gradientTransform="translate(-44.14)" xlink:href="#linear-gradient"/><linearGradient id="linear-gradient-13" x1="635.99" y1="-718.29" x2="676.99" y2="-718.29" gradientTransform="matrix(0.79, 0.61, -0.61, 0.79, -545.13, 265.26)" xlink:href="#linear-gradient"/><linearGradient id="linear-gradient-14" x1="-1435.35" y1="-1657.78" x2="-1394.36" y2="-1657.78" gradientTransform="translate(-1331.4 -992.9) rotate(164.32)" xlink:href="#linear-gradient"/><linearGradient id="linear-gradient-15" x1="390.04" y1="188.45" x2="422.56" y2="188.45" gradientTransform="translate(-44.14)" xlink:href="#linear-gradient"/><linearGradient id="linear-gradient-16" x1="286.65" y1="296.91" x2="318.26" y2="296.91" gradientTransform="translate(-44.14)" xlink:href="#linear-gradient"/><linearGradient id="linear-gradient-17" x1="477.47" y1="262.92" x2="491.08" y2="262.92" gradientTransform="translate(-44.14)" xlink:href="#linear-gradient"/><linearGradient id="linear-gradient-18" x1="316.34" y1="67.66" x2="339.85" y2="67.66" gradientTransform="translate(-44.14)" xlink:href="#linear-gradient"/><linearGradient id="linear-gradient-19" x1="-607.5" y1="633.41" x2="-566.5" y2="633.41" gradientTransform="translate(132.35 -603.4) rotate(-42.41)" xlink:href="#linear-gradient"/><linearGradient id="linear-gradient-20" x1="-1774" y1="-861.91" x2="-1733" y2="-861.91" gradientTransform="translate(-1192.65 -1233.11) rotate(-163.1)" xlink:href="#linear-gradient"/><linearGradient id="linear-gradient-21" x1="363.74" y1="260.88" x2="374.89" y2="317.47" gradientTransform="translate(-44.14)" xlink:href="#linear-gradient"/><linearGradient id="linear-gradient-22" x1="-798.85" y1="516.38" x2="-791.71" y2="552.61" gradientTransform="matrix(0.66, -0.75, 0.8, 0.71, 145.26, -717.85)" xlink:href="#linear-gradient"/></defs><title>Asset 21</title><g class="cls-1"><g id="Layer_2" data-name="Layer 2"><g id="Layer_4" data-name="Layer 4"><path class="cls-2" d="M434.81,71.82a18.36,18.36,0,0,0,4.63-6.15c4.26-9.33-.05-21-9.18-25.91-8.18-4.41-18.94-2.73-24.9,4.4a19,19,0,0,0-4.24,10.31A345.43,345.43,0,0,1,434.81,71.82Z"/><path class="cls-3" d="M252.75,38.37c-147.2,33-227.12,146.23-220.15,278,2.44,46,17.55,97.43,48.25,131.84,25.44,28.51,51.27,53.48,108.57,60.77-.62-.07,12.06,79.13,42.22,76,44.11-4.57,36.95-134.59,79.41-146.81,18.09-5.2,25.13,26,53.27,27.07,32.17,1.19,52.27-30.19,62.33-55.18-1.46,4,9.37,16.69,12.28,19.21,14.44,12.52,34,5.38,45.44-7.75,7.69-8.82,12.51-19.86,17.22-30.7,4,11.26,9,23.59,19.5,28.67,38,18.36,46.08-105,45.28-125C560.07,136.9,426.66-.57,252.75,38.37Z"/><path class="cls-4" d="M190.28,515c3.33,18.4,16.31,72.56,41.36,70,16.84-1.75,26.2-21.78,33.71-46.56A243.68,243.68,0,0,1,190.28,515Z"/><path class="cls-5" d="M566.37,294.5C560.07,136.9,426.66-.57,252.75,38.37c-147.2,33-227.12,146.23-220.15,278,2.44,46,17.55,97.42,48.25,131.84,22,24.66,50.43,36,72.81,57.67,26,25.2,40.31,61.92,59.13,92.26,23.14,37.31,59.71,73.27,103.52,70.5,33.72-2.14,61.42-26.72,84.13-51.72,44.18-48.64,78.52-108.2,112-165.68,14.62-25.09,37.8-50.52,45.41-78.11C564.63,348.73,567.38,319.83,566.37,294.5Zm-53.81-25.82c-6.64,30.54-24.37,56.33-56.91,68.73-26.81,10.21-60.13-1.25-75-25.8-.3,36-24.29,70.59-57.85,83.51S248.25,398.45,223.9,372c-21.85,37.34-50.58,80.33-101.46,73.3C77.58,439.09,59.15,380.69,53,343.06,26.87,183.17,136.63,60.33,285.15,49.42c95.12-7,161.34,45.32,172.37,54.33C498.41,137.12,525.06,211.27,512.56,268.68Z"/><path id="_Path_" data-name="&lt;Path&gt;" class="cls-6" d="M70.82,317.09C33,263.78,90.74,130.49,190.16,86.56c116.62-51.53,223-20.09,244.09,40.68,19.6,56.58-60.33,133.3-116.62,168.15C237.2,345.18,108,369.54,70.82,317.09Z"/><path class="cls-7" d="M169,89.84c-38.88,21.92-77.2,69.59-63.81,97.54C118.86,216,183.73,218,227.43,194c44.61-24.49,77.13-81.63,59.72-108.21C270.18,59.89,208.64,67.48,169,89.84Z"/><path id="_Path_2" data-name="&lt;Path&gt;" class="cls-8" d="M313.44,68.23C314,62.6,349.09,57,368.72,64.09c26,9.38,38.55,26.49,37.24,31.81s-14.89-4.75-40.91-14.4S312.69,76.44,313.44,68.23Z"/><path id="_Path_3" data-name="&lt;Path&gt;" class="cls-8" d="M422.08,102.17c3.63-2.54,26.74,12.14,39,31.74,10.53,16.87,12.59,48.82,7.47,49.94-4.33.94-11.95-28.41-20.94-42.47C435.61,122.64,418.45,104.7,422.08,102.17Z"/><path id="_Path_4" data-name="&lt;Path&gt;" class="cls-8" d="M374.52,110.36c4.64-5,31.32,6.52,39.67,15.36,10.93,11.58,16.16,35.05,11.42,38.77-3.48,2.72-12.92-15.09-22.91-26.69C393.75,127.41,370.86,114.26,374.52,110.36Z"/><path id="_Path_5" data-name="&lt;Path&gt;" class="cls-9" d="M190.6,99.65c-6.35-11.79-57.57,20.76-50.37,31.23C148.17,142.44,196.5,110.6,190.6,99.65Z"/><path id="_Path_6" data-name="&lt;Path&gt;" class="cls-10" d="M134,180c-4.93-.5-10.09,3.36-10.37,8.47a9.63,9.63,0,0,0,8.46,10.37c4.93.5,10.09-3.35,10.38-8.46A9.65,9.65,0,0,0,134,180Z"/><path id="_Path_7" data-name="&lt;Path&gt;" class="cls-11" d="M109.71,248.12c-4.84-.49-9.91,3.3-10.19,8.31a9.47,9.47,0,0,0,8.31,10.19c4.84.49,9.9-3.3,10.19-8.31A9.47,9.47,0,0,0,109.71,248.12Z"/><path id="_Path_8" data-name="&lt;Path&gt;" class="cls-12" d="M99.2,209.13C92,208.4,84.38,214.06,84,221.57S88.64,236,96.39,236.8c7.24.74,14.82-4.92,15.24-12.43S107,209.92,99.2,209.13Z"/><path id="_Path_9" data-name="&lt;Path&gt;" class="cls-13" d="M99.35,170.46c-3.73-.38-7.64,2.53-7.86,6.4a7.31,7.31,0,0,0,6.41,7.86c3.73.37,7.64-2.54,7.85-6.41A7.28,7.28,0,0,0,99.35,170.46Z"/><path id="_Path_10" data-name="&lt;Path&gt;" class="cls-14" d="M66.73,263.38a6.1,6.1,0,1,0,5.45,6.69A6.17,6.17,0,0,0,66.73,263.38Z"/><path id="_Path_11" data-name="&lt;Path&gt;" class="cls-15" d="M133,150.45a5.67,5.67,0,1,0,5.08,6.22A5.74,5.74,0,0,0,133,150.45Z"/><g id="_Group_" data-name="&lt;Group&gt;"><path id="_Path_12" data-name="&lt;Path&gt;" class="cls-16" d="M578.57,345.63c-5.61,13.21-16.5,26-24.78,34.64-11.88,17.55-27.17,33.46-43.74,48.12-23.22,20.54-47.87,39.64-70.32,61C412.89,515,385,556.16,379,590.64c-11.15-9.13-21.33-16.62-33-25.49-27-20.56-61.24-30.31-90.95-46.49-66.33-36.14-138-54.11-196.37-105.12-16.6-14.5-31.23-29.29-40.11-49.76-4-9.2-6.59-18.88-8.82-28.66-2.38,1.19-4.76,2.38-7.1,3.63L117.9,696.68s28.5,63.39,181.53,63.39S476.64,701,476.64,701L590.4,349.25S586.19,347.9,578.57,345.63Z"/><path class="cls-17" d="M62,416.3c-1.1-.93-2.24-1.8-3.33-2.76-1.54-1.34-3-2.69-4.54-4L32.69,432l3.63,11.26Z"/><path class="cls-17" d="M9.76,335.12c-2.38,1.19-4.76,2.38-7.1,3.63l.31.95,11.09,11.64C12.4,346,11,340.58,9.76,335.12Z"/><path class="cls-18" d="M576.72,349.52l2.46,2.58-12.07,12.67a172.28,172.28,0,0,1-13.32,15.5c-11.88,17.55-27.17,33.46-43.74,48.12-8.37,7.41-16.94,14.62-25.51,21.83l.57.6-39.86,41.83L441,488.22c-.42.4-.88.78-1.3,1.19-2,1.93-4.07,4-6.11,6.09l4.46,4.68-39.5,41.45a182.62,182.62,0,0,0-14.45,30.22l14.09-14.78,39.86,41.83-39.86,41.82L358.36,598.9l13.4-14.06c-2.76-2.18-5.5-4.31-8.25-6.41l-12.32,12.94-39.86-41.83,3.1-3.26q-4.9-2.38-9.91-4.66l-.36.39-.94-1c-8.24-3.74-16.59-7.3-24.83-11L297,549.54l-39.86,41.83-39.86-41.83,32.23-33.82c-3.2-1.69-6.4-3.36-9.62-5L210.09,542l-39.86-41.83,14.2-14.91-10.11-4.45-11.26,11.83L134,462.17c-10-4.94-19.79-10.13-29.42-15.82l4.26,4.47L69,492.65l-25.34-26.6L51,488.79l10.85,11.39-5.37,5.63,3.62,11.26L69,507.71l39.86,41.83L80.2,579.6l3.63,11.25L116,557.07l39.86,41.83L116,640.72,91.65,615.14,99,637.89l9.88,10.36L104,653.38l3.62,11.26,8.44-8.86,39.86,41.83L136.49,718c2.48,2,5.26,4.14,8.38,6.27l18.19-19.09L202.91,747l-1.7,1.8c7,1.86,14.46,3.57,22.58,5.05L217.26,747l39.86-41.83L297,747,284.7,759.86c4.6.12,9.31.2,14.16.2l5.29-5.56,5.19,5.45c4.78-.09,9.44-.22,14-.42l-12-12.56,39.86-41.83L391.05,747l-4.8,5q10.41-2.22,19.33-4.85l-.18-.19,39.85-41.83,14.65,15.37a87.67,87.67,0,0,0,7.64-7l-15.11-15.86,38.3-40.2,7.38-22.79-5.82,6.1L452.43,598.9l39.86-41.83,23.07,24.21L519,570l-19.53-20.49L539.07,508l7.37-22.8-7.12,7.47-39.86-41.83L539.32,409,563,433.87l3.64-11.24L546.5,401.46l39.85-41.83.52.54,3.53-10.92s-4.21-1.35-11.83-3.62C578,346.93,577.37,348.23,576.72,349.52ZM304.16,557.07,344,598.9l-39.86,41.83L264.3,598.9ZM250,598.9l-39.86,41.82L170.23,598.9l39.86-41.83ZM76.16,500.18,116,458.35l39.86,41.83L116,542Zm47,49.36,39.86-41.83,39.85,41.83-39.85,41.83Zm0,98.71,39.86-41.83,39.85,41.83-39.85,41.83Zm86.89,91.19-39.86-41.83,39.86-41.83L250,697.61Zm7.17-91.19,39.86-41.83L297,648.25l-39.86,41.83Zm86.89,91.19L264.3,697.61l39.85-41.83L344,697.61Zm7.18-91.19,39.86-41.82,39.86,41.82-39.86,41.83Zm86.89,91.19-39.86-41.83,39.86-41.83,39.86,41.83Zm86.89-91.19-39.86,41.83L405.4,648.25l39.85-41.82Zm-39.86-56.88L405.4,549.54l39.85-41.83,39.86,41.83Zm86.9-91.19L492.29,542l-39.86-41.83,39.86-41.83Z"/><g id="_Group_2" data-name="&lt;Group&gt;"><path id="_Path_13" data-name="&lt;Path&gt;" class="cls-19" d="M430,615.15a203.92,203.92,0,0,0-22.76-24.36C414.9,598.81,422.62,606.83,430,615.15Z"/></g><path class="cls-20" d="M381.12,581.44c-.85,3.11-1.59,6.19-2.12,9.2-11.15-9.13-21.33-16.62-33-25.49-27-20.56-61.24-30.31-90.95-46.49-66.33-36.14-138-54.11-196.37-105.12-16.6-14.5-31.23-29.29-40.11-49.76-4-9.2-6.59-18.88-8.82-28.66-2.38,1.19-4.76,2.38-7.1,3.63l28.59,88.78c31.41,29.75,66.6,54.68,106.8,73,31.06,14.14,61.88,29.08,93.59,41.7,28.61,11.38,57.83,21.8,85.26,35.89,65.26,33.53,103.44,89.85,125.35,154.08,2.79-1.57,5.33-3.15,7.72-4.73.07-9.48-7.64-45.17-13.23-72.75C415,633,398.32,606.92,381.12,581.44Z"/></g><path class="cls-21" d="M563,352.11a92.39,92.39,0,0,1-10,15.13c-34.44,42.58-82.86,77.89-121.72,116.1C408.12,506,387.65,531,372.76,559.47c-31.69-20.64-96.58-50.42-138.7-66.28C163.22,466.5,66.72,421.59,35,346.94c-7.84-3.4-15.63-6.94-23.3-10.75C8,334.31,4,332.32,0,330.2c18,114,151.72,153.35,241.37,196.73C290,550.47,443.79,591.27,440.7,733.2c7.45-3.79,17-9.51,20.52-13.86,1.1-62.48-26-107.41-64.39-141.07,21.31-36.08,61.77-82,83.21-100.64,34.52-30.07,78.48-64.83,99.78-98.32,8.34-13.11,16.46-29.22,19.31-44.29C588,340.74,574.46,346.19,563,352.11Z"/><path class="cls-22" d="M486.77,111.13c4.08-6.9,6.35-18.25,1.35-19.27-2.58-.52-5.43,3-7.53,7.44A99.41,99.41,0,0,0,486.77,111.13Z"/><path class="cls-23" d="M286.23,149.15c-3-7.78-7.31-14-11.29-13.18-4.16.9-3.12,10.36-.1,19.81A111.83,111.83,0,0,1,286.23,149.15Z"/><path class="cls-24" d="M136.18,111.05a18.91,18.91,0,0,0,.51-10.58c-2.47-10-13.1-16.39-23.31-14.57-9.14,1.64-16.53,9.65-16.76,18.94a19.82,19.82,0,0,0,6.43,14.76A170,170,0,0,1,136.18,111.05Z"/><g id="_Group_3" data-name="&lt;Group&gt;"><path class="cls-25" d="M236.69,50c4.09-.85,8.25-1.64,12.55-2.31a305.66,305.66,0,0,1,40.39-3.55,28.59,28.59,0,0,0,3.12-10.89c1.19-16-11.44-30.71-27.48-33-14.36-2-29.23,6.26-34.09,19.93C227.56,30.41,230.14,41.74,236.69,50Z"/></g><g id="_Group_4" data-name="&lt;Group&gt;"><path class="cls-26" d="M363.52,161.84c2.8-.5,5.61-1,8.39-1.45,5-.85,9.94-1.62,14.71-2.35a30.31,30.31,0,0,0,3.55-22.54c-3.86-15.54-20.46-25.61-36.41-22.75-13.8,2.47-25,14.26-26.06,28.16C344.88,144.73,356.92,154.81,363.52,161.84Z"/><path id="_Path_14" data-name="&lt;Path&gt;" class="cls-27" d="M346.58,117.2c-3,1.25-5.91,4.58-5.09,6.71s5.54,2.76,8.82,1.33c2.92-1.27,5.7-4.55,4.87-6.67S349.76,115.9,346.58,117.2Z"/><path id="_Path_15" data-name="&lt;Path&gt;" class="cls-27" d="M257.42,2.16c-3.28.23-7.05,2.5-6.93,4.77s4.4,4.36,8,4c3.17-.3,6.84-2.55,6.71-4.82S260.84,1.91,257.42,2.16Z"/></g><g id="_Group_5" data-name="&lt;Group&gt;"><path class="cls-28" d="M142.1,192a260.9,260.9,0,0,1,32.73-11.47c-4.48-14.73-20.52-24.12-36-21.35-12.58,2.25-23,12.24-25.57,24.52A155.88,155.88,0,0,1,142.1,192Z"/></g><path class="cls-29" d="M250.34,192.51c-.08-.5-.15-1-.27-1.5-2.47-10-13.1-16.4-23.31-14.57-9.14,1.63-16.53,9.64-16.76,18.94A19.62,19.62,0,0,0,215.3,209,312.9,312.9,0,0,1,250.34,192.51Z"/><path id="_Path_16" data-name="&lt;Path&gt;" class="cls-30" d="M396.17,92.2c5.49-8,39.24,13.75,36.52,19.74C429.51,118.94,391.09,99.65,396.17,92.2Z"/><path id="_Path_17" data-name="&lt;Path&gt;" class="cls-31" d="M497.8,212.24c3.22,9.18-34.34,23.44-37.54,17.7C456.51,223.22,494.82,203.73,497.8,212.24Z"/><path id="_Path_18" data-name="&lt;Path&gt;" class="cls-32" d="M345.9,189.72c-.54-7.1,31.56-9.16,32.49-2.65C379.49,194.68,346.39,196.14,345.9,189.72Z"/><path id="_Path_19" data-name="&lt;Path&gt;" class="cls-33" d="M242.57,292.6c1.87-6.88,32.8,1.93,31.5,8.38C272.56,308.52,240.88,298.81,242.57,292.6Z"/><path id="_Path_20" data-name="&lt;Path&gt;" class="cls-34" d="M444.36,278.65c-6.53,1.48-15.09-29.19-8.89-31.37C442.73,244.74,451.34,277.06,444.36,278.65Z"/><path id="_Path_21" data-name="&lt;Path&gt;" class="cls-35" d="M272.87,79.66c-4.73-4.74,16.69-28.3,21.84-24.2C300.72,60.25,277.93,84.73,272.87,79.66Z"/><path id="_Path_22" data-name="&lt;Path&gt;" class="cls-36" d="M113,276.3c-7-6.76,20.14-36.38,25.59-32.69C145,247.92,119.54,282.56,113,276.3Z"/><path id="_Path_23" data-name="&lt;Path&gt;" class="cls-37" d="M255,104.29c-2.23,9.48-41.56,1.26-41.17-5.31C214.33,91.3,257.11,95.51,255,104.29Z"/><g id="_Group_6" data-name="&lt;Group&gt;"><path id="_Path_24" data-name="&lt;Path&gt;" class="cls-38" d="M354.85,308.1a30,30,0,0,0,2.35-20.25c-3.86-15.55-20.46-25.61-36.41-22.76-14.27,2.56-25.81,15.07-26.16,29.58a30.88,30.88,0,0,0,9.95,23C319.26,309,339.17,305.66,354.85,308.1Z"/></g><path id="_Path_25" data-name="&lt;Path&gt;" class="cls-39" d="M68.33,252.71a22,22,0,0,0-9.85-11.46c-9.62-5.24-21.84-1.87-27.16,7.06-4.75,8-3.24,19.22,4.06,26A21.9,21.9,0,0,0,51.06,280C53.19,274.84,62.92,259.86,68.33,252.71Z"/></g></g></g></svg>