<svg xmlns="http://www.w3.org/2000/svg" xmlns:xlink="http://www.w3.org/1999/xlink" viewBox="0 0 621.73 520.61"><defs><style>.cls-1,.cls-6{fill:#662c1d;}.cls-2,.cls-5{fill:#5a2518;}.cls-3{fill:#783625;}.cls-4{fill:url(#linear-gradient);}.cls-5{opacity:0.3;}.cls-6{opacity:0.5;}</style><linearGradient id="linear-gradient" x1="108.7" y1="153.43" x2="353.79" y2="208.57" gradientTransform="translate(-44.14)" gradientUnits="userSpaceOnUse"><stop offset="0" stop-color="#b6745f"/><stop offset="0.65" stop-color="#964e3b"/></linearGradient></defs><title>Asset 4</title><g id="Layer_2" data-name="Layer 2"><g id="Layer_4" data-name="Layer 4"><g id="_Group_" data-name="&lt;Group&gt;"><path id="_Path_" data-name="&lt;Path&gt;" class="cls-1" d="M10,190.81q-5,54-10,108L268.79,520.61l352.94-227q-2.93-51.87-5.87-103.73L267.48,416.23Z"/><polygon id="_Path_2" data-name="&lt;Path&gt;" class="cls-2" points="615.86 189.85 621.73 293.58 268.79 520.61 267.48 416.23 615.86 189.85"/><path id="_Path_3" data-name="&lt;Path&gt;" class="cls-3" d="M10,190.81c10.57,31,41.89,109,122.46,167.36a338.54,338.54,0,0,0,135,58.06Z"/><polygon id="_Path_4" data-name="&lt;Path&gt;" class="cls-4" points="9.98 190.81 267.48 416.23 615.86 189.85 347.73 0 9.98 190.81"/><path id="_Path_5" data-name="&lt;Path&gt;" class="cls-5" d="M477.88,92.15c7.35,8.71,34.88,43.41,33.6,94.43-1.57,62.71-45.41,100.1-52.19,105.69L615.86,189.85Z"/><path id="_Path_6" data-name="&lt;Path&gt;" class="cls-6" d="M391.44,208.91c-8.64-1.08-9.71-34.45,2.16-35.64C404.4,172.19,400.08,210,391.44,208.91Z"/><path id="_Path_7" data-name="&lt;Path&gt;" class="cls-6" d="M427.08,149.51c-10.59,2.35-13,77.76-1.08,78.84S436.8,147.35,427.08,149.51Z"/><path id="_Path_8" data-name="&lt;Path&gt;" class="cls-6" d="M463.53,130.64c-11.87,1.19-9.72,92.89-1.08,92.89S474.33,129.56,463.53,130.64Z"/><path id="_Path_9" data-name="&lt;Path&gt;" class="cls-6" d="M491.11,130.63c-9.72,1.08-3.77,78.64,4.86,77.48C509.13,206.36,500.83,129.55,491.11,130.63Z"/><path id="_Path_10" data-name="&lt;Path&gt;" class="cls-6" d="M536.17,157.3c-8.59.95-7.56,46.44,1.08,47.52S545.89,156.22,536.17,157.3Z"/><path id="_Path_11" data-name="&lt;Path&gt;" class="cls-2" d="M184,92.64,447.54,307.93l11.75-15.66L201.11,82.84Z"/><path id="_Path_12" data-name="&lt;Path&gt;" class="cls-2" d="M124,292.27l16.12,12.43L478.86,91.34,460.59,79.59Z"/><path id="_Path_13" data-name="&lt;Path&gt;" class="cls-2" d="M124,292.27l.65,39.8,15.47-27.37Z"/><path id="_Path_14" data-name="&lt;Path&gt;" class="cls-5" d="M124,292.27c12-9.52,68.16-41.6,77.15-115.19,4.31-35.34-6.13-63.55-17.13-84.44l110.83,90.54Z"/><path id="_Path_15" data-name="&lt;Path&gt;" class="cls-5" d="M347.73,0c6.57,8.75,25.78,36.69,24.14,75.68-2.51,59.31-51.09,92.14-56.3,95.53l145-91.62Z"/><path id="_Path_16" data-name="&lt;Path&gt;" class="cls-5" d="M311.4,196.7c8.76,13,27.89,49,26.54,93.94-2.28,76.18-62.91,120.29-70.46,125.59L441.67,303.36C398.07,268.77,355,231.29,311.4,196.7Z"/><path id="_Path_17" data-name="&lt;Path&gt;" class="cls-6" d="M80.24,203.32c-1.18-14.52,1.24-30.36,4-30.46S89.87,188,90.68,199.4c.93,13.3-.49,29.41-3.23,29.62S81.21,215.33,80.24,203.32Z"/><path id="_Path_18" data-name="&lt;Path&gt;" class="cls-6" d="M117.69,150.18c-11.19,1.4-7.56,104.76,5.4,104.76S126.33,149.1,117.69,150.18Z"/><path id="_Path_19" data-name="&lt;Path&gt;" class="cls-6" d="M152.25,128.58c-14,0-9.78,111.33,1,112.41S159.81,128.58,152.25,128.58Z"/><path id="_Path_20" data-name="&lt;Path&gt;" class="cls-6" d="M181.75,125.15c-9.76-.67-5.65,77.38,2,77.41C194.08,202.59,197.44,126.23,181.75,125.15Z"/><path id="_Path_21" data-name="&lt;Path&gt;" class="cls-6" d="M225.69,150.18c-10.76.9-5.4,55.08,1.08,56.16S238.65,149.1,225.69,150.18Z"/><path id="_Path_22" data-name="&lt;Path&gt;" class="cls-6" d="M212.79,342.26c-6.48,1.2-11.88-47.88,0-50.27S219.27,341.07,212.79,342.26Z"/><path id="_Path_23" data-name="&lt;Path&gt;" class="cls-6" d="M243,275.23c-11.65,3.52-6.48,95.76,2.16,98.16S254.91,271.64,243,275.23Z"/><path id="_Path_24" data-name="&lt;Path&gt;" class="cls-6" d="M276.51,250.1c-12,1.33-6.48,125.68,0,125.68S287.31,248.9,276.51,250.1Z"/><path id="_Path_25" data-name="&lt;Path&gt;" class="cls-6" d="M313.05,229c-15.22,3.07-9.92,103-.13,103C326.11,332.08,324.93,226.63,313.05,229Z"/><path id="_Path_26" data-name="&lt;Path&gt;" class="cls-6" d="M354.14,254.2c-11,1.22-5.47,70.07,2.19,70.08C367.29,324.3,364.94,253,354.14,254.2Z"/><path id="_Path_27" data-name="&lt;Path&gt;" class="cls-6" d="M258.06,96.88c-7.56-1.08-7.56-30.24,2.16-31.32C268.87,64.59,265.62,98,258.06,96.88Z"/><path id="_Path_28" data-name="&lt;Path&gt;" class="cls-6" d="M291.54,51.52c-9.49,2.1-9.72,65.88-2.16,68S301.26,49.36,291.54,51.52Z"/><path id="_Path_29" data-name="&lt;Path&gt;" class="cls-6" d="M325,35.32c-10.86,0-10.73,105.61,1.08,106.92C335.82,143.32,334.74,35.32,325,35.32Z"/><path id="_Path_30" data-name="&lt;Path&gt;" class="cls-6" d="M356.3,37.39C344.84,34.26,345.87,107,354.58,107,367.54,107,368.18,40.63,356.3,37.39Z"/><path id="_Path_31" data-name="&lt;Path&gt;" class="cls-6" d="M394.63,55.36c-13,0-8,45.81.63,45.81S406.51,55.34,394.63,55.36Z"/></g></g></g></svg>