<?xml version="1.0" encoding="utf-8"?>
<!-- Generator: Adobe Illustrator 22.1.0, SVG Export Plug-In . SVG Version: 6.00 Build 0)  -->
<svg version="1.1" id="Layer_1" xmlns="http://www.w3.org/2000/svg" xmlns:xlink="http://www.w3.org/1999/xlink" x="0px" y="0px"
	 viewBox="0 0 669 842.6" style="enable-background:new 0 0 669 842.6;" xml:space="preserve">
<style type="text/css">
	.st0{fill:#E0BCB3;}
	.st1{fill:url(#SVGID_1_);}
	.st2{opacity:0.2;}
	.st3{fill:#460E1D;}
	.st4{opacity:0.3;fill:#731548;enable-background:new    ;}
	.st5{opacity:0.7;fill:#731548;enable-background:new    ;}
	.st6{opacity:0.7;fill:#5E113B;enable-background:new    ;}
	.st7{opacity:0.5;fill:#731548;enable-background:new    ;}
	.st8{fill:#470005;}
	.st9{opacity:0.3;fill:#470005;enable-background:new    ;}
	.st10{opacity:0.3;fill:#FF833A;enable-background:new    ;}
	.st11{fill:#70000F;}
	.st12{opacity:0.7;fill:#70000F;enable-background:new    ;}
	.st13{opacity:0.5;fill:#470005;enable-background:new    ;}
	.st14{opacity:0.5;fill:#3B000F;enable-background:new    ;}
	.st15{fill:#976666;}
	.st16{opacity:0.2;fill:#704760;enable-background:new    ;}
	.st17{opacity:0.1;fill:url(#SVGID_2_);enable-background:new    ;}
	.st18{fill:url(#SVGID_3_);}
	.st19{opacity:0.1;fill:#704760;enable-background:new    ;}
	.st20{fill:url(#SVGID_4_);}
	.st21{opacity:0.5;}
	.st22{fill:#A19277;}
	.st23{fill:url(#SVGID_5_);}
	.st24{fill:url(#SVGID_6_);}
	.st25{opacity:0.2;fill:#74001D;enable-background:new    ;}
	.st26{opacity:0.3;}
	.st27{opacity:0.43;fill:url(#SVGID_7_);enable-background:new    ;}
	.st28{opacity:0.15;fill:#704760;enable-background:new    ;}
	.st29{fill:#FFA1A1;}
	.st30{fill:url(#SVGID_8_);}
	.st31{opacity:0.3;fill:url(#SVGID_9_);enable-background:new    ;}
	.st32{opacity:0.8;fill:#E1171B;enable-background:new    ;}
	.st33{opacity:0.5;fill:#F74346;enable-background:new    ;}
	.st34{opacity:0.4;fill:#730010;enable-background:new    ;}
	.st35{fill:url(#SVGID_10_);}
	.st36{fill:#EB6000;}
	.st37{fill:#D93E00;}
	.st38{fill:#F79421;}
	.st39{fill:url(#_Path_40_1_);}
</style>
<title>Asset 11</title>
<g>
	<g id="Layer_2_1_">
		<g id="Layer_4">
			<path class="st0" d="M506.9,324c-1.6-71.6-112.3-121.3-250.8-121.3S6.6,251.4,1.3,326.1C-2.4,379,2.8,650,5.3,688.1
				c3.9,57.8,112.3,93.8,250.8,93.8s248.5-38,250.8-93.8C508.5,649.9,508.3,386.3,506.9,324z"/>
			
				<linearGradient id="SVGID_1_" gradientUnits="userSpaceOnUse" x1="103.8223" y1="36.6048" x2="376.7123" y2="473.2248" gradientTransform="matrix(1 0 0 -1 -44.14 844)">
				<stop  offset="0" style="stop-color:#FF2B00"/>
				<stop  offset="0.31" style="stop-color:#CA1B00"/>
				<stop  offset="0.62" style="stop-color:#9B0C00"/>
				<stop  offset="0.86" style="stop-color:#7F0300"/>
				<stop  offset="1" style="stop-color:#740000"/>
			</linearGradient>
			<path class="st1" d="M491.5,327.4C490,259.8,385.9,220,255.3,220S22,261.5,17.1,332.1c-3.5,50,1.3,302.3,3.7,338.4
				c3.6,54.6,103.6,89.5,234.2,89.5s233.3-39.9,235.4-92.7C491.9,631.2,492.8,386.2,491.5,327.4z"/>
			<g class="st2">
				<path class="st3" d="M506.9,688.1c1.5-38.2,1.4-301.9,0-364.1c-1.1-47.4-49.9-85.2-123-105.3c-12.5,9-24.4,18.7-35.8,29.1
					c0,0,78.9,41.3,81.3,98.9c2,44.8-1.9,289.5-3.7,411.8C474.9,741.8,505.8,717.4,506.9,688.1z"/>
			</g>
			
				<ellipse transform="matrix(0.1602 -0.9871 0.9871 0.1602 -263.1049 982.1918)" class="st4" cx="445.7" cy="645.7" rx="24.4" ry="24.4"/>
			<path class="st5" d="M134.8,352.9c0,8.1-6.5,14.6-14.6,14.6c-8.1,0-14.6-6.5-14.6-14.6c0-8.1,6.5-14.6,14.6-14.6c0,0,0,0,0,0
				C128.3,338.3,134.8,344.8,134.8,352.9C134.8,352.9,134.8,352.9,134.8,352.9z"/>
			<path class="st6" d="M486.7,474.1c0,8.1-6.5,14.6-14.6,14.6s-14.6-6.5-14.6-14.6s6.5-14.6,14.6-14.6S486.7,466,486.7,474.1
				L486.7,474.1z"/>
			<path class="st6" d="M424.2,319.7c0,8.1-6.5,14.6-14.6,14.6s-14.6-6.5-14.6-14.6s6.5-14.6,14.6-14.6
				C417.7,305.1,424.2,311.6,424.2,319.7C424.2,319.7,424.2,319.7,424.2,319.7z"/>
			<path class="st7" d="M272.1,689.5c0,8.1-6.5,14.6-14.6,14.6s-14.6-6.5-14.6-14.6s6.5-14.6,14.6-14.6c0,0,0,0,0,0
				C265.6,674.9,272.1,681.4,272.1,689.5z"/>
			<path class="st5" d="M71.1,565.7c0,8.1-6.5,14.6-14.6,14.6s-14.6-6.5-14.6-14.6c0-8.1,6.5-14.6,14.6-14.6c0,0,0,0,0,0
				C64.6,551.1,71.1,557.6,71.1,565.7C71.1,565.7,71.1,565.7,71.1,565.7z"/>
			<path id="_Path_" class="st8" d="M88,364.4c0.4-2.1-1.5-4.9-3.7-5.4c-3-0.6-11.5,2.1-14.4,8.5c-1,2.1,0.8,5.6,3.3,6.4
				C77.8,375.3,87,369.2,88,364.4z"/>
			<path id="_Path_2" class="st9" d="M184.7,476.1c1.3,2.2,3.6,2.8,5.9,2.4c3.2-0.5,5.9-3.1,8.4-5c2-1.6,2.1-5,0.9-7
				c-1.5-2.5-5.4-4-8-2.1s-5.6,3.5-7.3,6.4C183.7,472.5,183.7,474.5,184.7,476.1z"/>
			<path id="_Path_3" class="st10" d="M109.9,535.6c-1.2,2.3-0.5,4.5,1.1,6.3c2.1,2.5,5.7,3.5,8.7,4.6c2.4,0.9,5.4-0.8,6.5-2.9
				c1.4-2.5,0.6-6.7-2.4-7.9s-5.9-2.9-9.3-2.9C112.5,532.9,110.8,533.9,109.9,535.6z"/>
			<path id="_Path_4" class="st10" d="M271.5,428.9c-2.5-0.4-4.4,0.9-5.7,3c-1.7,2.8-1.5,6.5-1.6,9.7c-0.1,2.6,2.5,4.8,4.8,5.2
				c2.9,0.5,6.5-1.6,6.7-4.7s0.9-6.5-0.2-9.8C274.9,430.6,273.4,429.3,271.5,428.9z"/>
			<path id="_Path_5" class="st10" d="M184.8,368.2c-0.9-1.5-2.8-2.2-4.5-1.8c-2.4,0.4-4.5,2.3-6.3,3.8c-1.5,1.2-1.6,3.8-0.6,5.3
				c1.1,1.9,4.1,3,6,1.5s4.2-2.7,5.5-4.9C185.5,370.9,185.5,369.4,184.8,368.2z"/>
			<path id="_Path_6" class="st10" d="M339.9,428.6c1.1,1.8,3,2.3,5,1.9c2.7-0.5,5-2.7,7-4.3c1.7-1.4,1.7-4.2,0.6-6
				c-1.3-2.1-4.6-3.3-6.7-1.6s-4.7,3-6.1,5.5C339,425.6,339,427.3,339.9,428.6z"/>
			<path id="_Path_7" class="st10" d="M370.6,601.2c1.4,2.3,3.9,2.9,6.4,2.5c3.5-0.6,6.3-3.4,9-5.5c2.1-1.7,2.1-5.4,0.8-7.6
				c-1.6-2.6-5.9-4.2-8.5-2.1s-5.9,3.9-7.7,7C369.5,597.3,369.5,599.4,370.6,601.2z"/>
			<path id="_Path_8" class="st8" d="M121.4,436.5c1.1,1.1,2.4,2.1,3.8,2.9c2.4,1.2,5.3,1.5,7.9,0.7c2.6-0.7,4.6-2.8,5.4-5.4
				c2.3-8.6-10.8-16.1-17-9.9C118.3,428,118.3,433.2,121.4,436.5z"/>
			<path id="_Path_9" class="st8" d="M202.4,407.6c3.1-8,20.5,2.8,16.7,9.3S199.9,414.4,202.4,407.6z"/>
			<path id="_Path_10" class="st11" d="M420.2,574.9c-7.6,6.5,5.2,23.7,14.8,17.2S428.5,567.8,420.2,574.9z"/>
			<path id="_Path_11" class="st9" d="M228.2,609.8c-1.7-1.6-3.8-2.7-6.1-3.2c-3.8-0.6-7.6,1-8.7,5c-1.2,4.4,9.5,11.4,12,11.6
				s5.6-2.1,6-4.6C232,615.3,230.7,611.9,228.2,609.8z"/>
			<path id="_Path_12" class="st12" d="M162.8,684.2c-0.7-2.5-2.1-4.7-3.9-6.5c-2.3-2.4-5.8-3.3-9-2.3c-10.3,2.9-4.8,19.7,4.4,20.1
				c2.6,0.1,4.4-1.1,6.2-2.6C163,690.9,163.6,687,162.8,684.2z"/>
			<path id="_Path_13" class="st11" d="M366.4,707.8c-2.3-1.5-6-2.9-8.9-2.5s-5.6,1.6-6.5,4.5s0.6,5.2,3.1,6.8c2.3,1.1,4.6,2,7,2.7
				c3,0.8,6.1-0.4,7.8-2.9C370.9,713.2,369.4,709.8,366.4,707.8z"/>
			<path id="_Path_14" class="st9" d="M310.9,608.3c-1.1-1.9-3-2.3-5-2c-2.8,0.4-5,2.6-7.2,4.2c-1.7,1.3-1.8,4.2-0.8,6
				c1.2,2.1,4.6,3.4,6.8,1.8s4.8-3,6.2-5.5C311.7,611.4,311.7,609.7,310.9,608.3z"/>
			<path id="_Path_15" class="st10" d="M232.9,705.6c-0.9-0.9-1.8-1.6-2.9-2.2c-1.9-1-4.1-1.2-6.1-0.5c-2,0.6-3.6,2.1-4.1,4.2
				c-1.8,6.7,8.4,12.5,13.2,7.6C235.4,712.1,235.4,708.1,232.9,705.6z"/>
			<path id="_Path_16" class="st8" d="M66,636c-2.8,0.4-4.3,2.4-5,5c-0.9,3.5,0.5,7.4,1.4,10.7c0.7,2.7,4.2,4.3,6.8,4
				c3.2-0.4,6.4-3.8,5.5-7.2s-1.1-7.2-3.3-10.2C70.1,636.7,68.1,635.8,66,636z"/>
			<path id="_Path_17" class="st8" d="M324,537.9c-4-2-9.2,1.3-7.8,6.1s5.6,14.7,12,10.9S328.9,540.3,324,537.9z"/>
			<path id="_Path_18" class="st9" d="M297.7,397.5c-2.4,1.1-4.5,2.8-6.1,4.9c-3.3,4.4,1.5,10.7,6.6,9.5c2-0.5,3.8-1.4,5.6-2.4
				c2.5-1.4,5.3-2.7,5.9-5.8c0.5-2.5,0-5.5-2.5-6.8C303.7,394.9,301,395.8,297.7,397.5z"/>
			<path id="_Path_19" class="st8" d="M399.8,363.7c-1.9-3.2-6.7-3-8.8-0.7c-1.4,1.6-3.2,9.5,0.1,12.5c0.9,0.7,2.1,1,3.2,0.9
				C399,375.7,401.4,366.5,399.8,363.7z"/>
			<path id="_Path_20" class="st8" d="M374.2,312.2c-2.7-1.3-7,0.7-7.8,3c-1.2,3.6-0.1,9.4,2,11.5c2.8,2.8,8.4,3.4,10.1-0.9
				C379.9,322.2,379.6,314.7,374.2,312.2z"/>
			<path id="_Path_21" class="st8" d="M253.1,572.1c-0.7-2.1-2.5-3.7-4.6-4.1c-1.6-0.4-3.4-0.2-4.9,0.3c-2.9,1-5.1,4-4,7
				C241.7,581.2,255.7,578.8,253.1,572.1z"/>
			<path id="_Path_22" class="st13" d="M375.8,453.8c-3.7-2.1-9.4-1.9-11.9-0.5c-3.9,2.1-4.2,8.9-0.3,10.6c2.9,1.2,5.9,1.9,9,2
				C379.1,466.1,381.4,456.9,375.8,453.8z"/>
			<path id="_Path_23" class="st9" d="M453.9,498c-2.2-3.7-6.2-4.9-10.3-4.1c-2.9,0.6-5.5,2.1-7.6,4.1c-4.9,4.4-2.1,12.7,3.8,14.3
				c4.5,1.3,9.4,0,12.7-3.3C455.5,506.3,455.9,501.4,453.9,498z"/>
			<path id="_Path_24" class="st9" d="M322.9,355.5c-1.1-4.9-5.8-9.3-13-6.9c-11.2,3.7-7.3,15.2,2.9,16.6
				C321.1,366.3,324,360.6,322.9,355.5z"/>
			<path id="_Path_25" class="st8" d="M480.3,398.3c0.5-2.1-1.5-4.9-3.7-5.4c-3-0.6-11.5,2.1-14.5,8.5c-1,2.1,0.9,5.6,3.3,6.4
				C470,409.2,479.2,403.1,480.3,398.3z"/>
			<path class="st14" d="M438.9,252.3c0,18.5-79.4,45.8-179.1,45.8c-92.1,0-180.4-24.7-181.9-45.8c-1.6-23.1,80.8-42,180.5-42
				S438.9,229.1,438.9,252.3z"/>
			<path class="st15" d="M445.6,231.8c0,27.7-84.8,50.1-189.5,50.1S66.7,259.4,66.7,231.8c0-6.8-3.2-35.3,6-41.2
				c28.5-18.1,104.5-8.9,183.4-8.9c82.1,0,157.3-3.9,183.6,15.4C447,202.4,445.6,225.8,445.6,231.8z"/>
			<path class="st16" d="M439.8,197.1c-12.3-9-35.3-13-64.7-14.6c14.2,21.7,22.5,41.1,22,74c0,2.9,0.1,5.9-0.1,8.8
				c30.2-8.9,48.6-20.6,48.6-33.5C445.6,225.8,447,202.4,439.8,197.1z"/>
			
				<linearGradient id="SVGID_2_" gradientUnits="userSpaceOnUse" x1="193.56" y1="627.49" x2="554.58" y2="627.49" gradientTransform="matrix(1 0 0 -1 -115.69 844)">
				<stop  offset="0" style="stop-color:#34131C"/>
				<stop  offset="0.35" style="stop-color:#4C0C1C"/>
				<stop  offset="1" style="stop-color:#74001D"/>
			</linearGradient>
			<ellipse class="st17" cx="258.4" cy="216.5" rx="180.5" ry="48.1"/>
			
				<linearGradient id="SVGID_3_" gradientUnits="userSpaceOnUse" x1="148.79" y1="666.91" x2="594.89" y2="666.91" gradientTransform="matrix(1 0 0 -1 -115.69 844)">
				<stop  offset="0" style="stop-color:#E6D4B3"/>
				<stop  offset="0.16" style="stop-color:#EDECBD"/>
				<stop  offset="0.29" style="stop-color:#E3DEB4"/>
				<stop  offset="0.71" style="stop-color:#C6B79A"/>
			</linearGradient>
			<ellipse class="st18" cx="256.1" cy="177.1" rx="223.1" ry="76"/>
			<path class="st19" d="M399.2,118.8c-1.3,14.9-3,29.7-4.4,44.6c0.5,9.4,1,18.7,1.7,28.1c1-0.1,2-0.1,3-0.1
				c21.1,0,30.8,17.7,29.1,34c31.6-13.1,50.6-29.9,50.6-48.2C479.2,153.7,448.1,132.7,399.2,118.8z"/>
			
				<linearGradient id="SVGID_4_" gradientUnits="userSpaceOnUse" x1="158.7569" y1="701.4908" x2="587.03" y2="701.4908" gradientTransform="matrix(1 0 0 -1 -115.69 844)">
				<stop  offset="0" style="stop-color:#D1BD9B"/>
				<stop  offset="0.16" style="stop-color:#E8E7B9"/>
				<stop  offset="0.41" style="stop-color:#C7BB97"/>
				<stop  offset="1" style="stop-color:#BAA98A"/>
			</linearGradient>
			<path class="st20" d="M471.3,151.4c0,46.8-96.4,79.6-215.2,79.6S43.1,195.9,43.1,149c0-10.4-0.5-67.4,3.5-73.8
				c23.5-37.6,117.3-13.7,209.6-13.7c94.5,0,191.9-21.7,209.3,18.9C469.2,89.1,471.3,141.9,471.3,151.4z"/>
			<path class="st19" d="M256.6,223.4c-68.7-0.2-176.9-15.8-212.9-68c8.1,43.6,99.1,75.7,212.5,75.7c112.6,0,205.1-29.4,214.4-72.4
				C429.6,210.5,309.1,225.4,256.6,223.4z"/>
			<path class="st16" d="M465.4,80.3c-6.1-14.2-22-20.8-44.2-23.3c-0.2,28.9,0.7,39.6,1.2,68.5c0.3,19.7,0.7,57.5,0.9,77.2
				c30-13.5,48-31.1,48-51.3C471.3,141.9,469.2,89.1,465.4,80.3z"/>
			<g class="st21">
				<path class="st22" d="M262.8,141.5l-32.5,4.8l0.9,84.3l2.4,0.1l-0.8-82.3l27.8-4.1L262,231h2.4L262.8,141.5z"/>
				<path class="st22" d="M335.2,130.4L296.6,143l-0.9,86.9l2.4-0.2l0.9-85l34-11l3,92.1l2.4-0.3L335.2,130.4z"/>
				<path class="st22" d="M399.5,120.9l-36.8,2.6l7.1,96.2l2.3-0.5l-6.9-93.4l32-2.3l3.7,87.8l2.3-0.8L399.5,120.9z"/>
				<path class="st22" d="M198.7,138.9l-35.7-6.3l1.7,90.9l2.4,0.4l-1.6-88.5l31,5.5l1.7,87.2l2.4,0.2L198.7,138.9z"/>
				<path class="st22" d="M134.4,132.7l-31.8-13.3l-1.2,86.7l2.3,0.9L105,123l27.1,11.3l0.4,82.1l2.4,0.6L134.4,132.7z"/>
				<path class="st22" d="M443.3,105.5l-2.4,0.1l2.1,86.7c0.8-0.5,1.6-1,2.3-1.5L443.3,105.5z"/>
				<path class="st22" d="M75,193.1v-81.7h-2.3v80.2C73.4,192.1,74.2,192.6,75,193.1z"/>
			</g>
			<path class="st16" d="M58.8,180.8c-0.6-36.8-1.5-81-1-117.5c-0.5,0.2-1,0.5-1.5,0.8c-3.8,3.2-7.1,6.9-9.8,11.1
				c-4,6.4-3.5,63.4-3.5,73.8C43.1,160.4,48.7,171.1,58.8,180.8z"/>
			
				<radialGradient id="SVGID_5_" cx="-4177.2183" cy="-2583.1428" r="3.95" gradientTransform="matrix(110.14 18.67 -12.63 74.49 427812.5625 270410.7812)" gradientUnits="userSpaceOnUse">
				<stop  offset="0" style="stop-color:#C6B79A"/>
				<stop  offset="0.23" style="stop-color:#C6B79A"/>
				<stop  offset="0.74" style="stop-color:#E3DEB4"/>
				<stop  offset="1" style="stop-color:#E3DEB4"/>
			</radialGradient>
			<path class="st23" d="M466.9,89.3c0,49.3-94.4,89.3-210.7,89.3S45,135.1,45,85.8S139.8,0,256.1,0S466.9,40,466.9,89.3z"/>
			
				<linearGradient id="SVGID_6_" gradientUnits="userSpaceOnUse" x1="160.69" y1="713.925" x2="590.95" y2="713.925" gradientTransform="matrix(1 0 0 -1 -115.69 844)">
				<stop  offset="0" style="stop-color:#FFEFE8"/>
				<stop  offset="0.39" style="stop-color:#F9E4DB"/>
				<stop  offset="1" style="stop-color:#EDCCBD"/>
			</linearGradient>
			<path class="st24" d="M267.7,170.4c-119.4,0-217.1-41.1-222.4-88.7C45.1,83,45,84.4,45,85.8c0,49.3,94.7,92.7,211.1,92.7
				c63.4,0,120.3-11.9,158.9-30.6C375.8,161.9,324.2,170.4,267.7,170.4z"/>
			<path class="st25" d="M214,728.4h-1.6c-88.5-1.5-167-30.6-208.7-84.2c0.6,21,1.2,36.7,1.7,44C9.2,746,117.6,782,256.1,782
				s248.5-38,250.8-93.8c0.8-20.2,1.2-102.9,1.1-185.9C460.3,653.3,308.7,730.7,214,728.4z"/>
			<g class="st26">
				
					<linearGradient id="SVGID_7_" gradientUnits="userSpaceOnUse" x1="255" y1="318.0123" x2="11.6073" y2="318.0123" gradientTransform="matrix(1 0 0 -1 -44.14 844)">
					<stop  offset="0.3" style="stop-color:#F38B8B"/>
					<stop  offset="1" style="stop-color:#F3C5C5"/>
				</linearGradient>
				<path class="st27" d="M62.8,292.5c-7.8,8.9-21.7,28.5-22,47.2c-0.5,28.2,1.4,374,1.4,374s126.4,72.4,315.1,35
					c0,0-4.5-383.3-4.5-426C223.6,344.9,86.9,305.2,62.8,292.5z"/>
			</g>
			<path class="st28" d="M466.9,89.3C466.9,40,372.5,0,256.1,0c-2.8,0-5.6,0-8.3,0.1C382.7,14,430.9,43.5,441.1,80.9
				c9.5,34.8-13.7,57.4-17.6,62.6C450.7,128.5,466.9,109.7,466.9,89.3z"/>
			<path class="st28" d="M45,85.8c0,10.6,4.4,21,12.5,30.7c-0.6-9.5-1-52.7,35.2-77c26-17.4,63.7-28.4,87.8-34.1
				C101.4,17.4,45,47.8,45,85.8z"/>
			<path class="st29" d="M63.5,289.9c0,0-23.4,16.9-25.8,41.9s1.9,266.5,4,288.6c14.5-3.7,5-136.7,10.2-286.1
				c0.8-21.6,25.3-36.3,25.3-36.3L63.5,289.9z"/>
			
				<linearGradient id="SVGID_8_" gradientUnits="userSpaceOnUse" x1="673.2384" y1="162.424" x2="722.7984" y2="29.8239" gradientTransform="matrix(0.9862 0.1656 0.1656 -0.9862 -202.8456 746.6421)">
				<stop  offset="0" style="stop-color:#E1171B"/>
				<stop  offset="1" style="stop-color:#B82423"/>
			</linearGradient>
			<path class="st30" d="M563.9,653.2c33.5,29.8,58.9,71.5,41,113.8c-29.2,68.8-120.3,96-176.2,59.1C353,776,375.5,663.3,441,627.2
				C479.8,605.8,531.7,624.5,563.9,653.2z"/>
			
				<linearGradient id="SVGID_9_" gradientUnits="userSpaceOnUse" x1="672.5354" y1="162.1691" x2="722.0954" y2="29.569" gradientTransform="matrix(0.9862 0.1656 0.1656 -0.9862 -202.8456 746.6421)">
				<stop  offset="0" style="stop-color:#8C300A"/>
				<stop  offset="1" style="stop-color:#6C2508"/>
			</linearGradient>
			<path class="st31" d="M601.5,763.9c-29.6,31.9-75.5,52.6-122.5,52.6c-30.4,0-59.9-9.1-83.1-24.8c8.2,13.8,19.4,25.5,32.9,34.3
				c55.9,37,146.9,9.7,176.2-59c1.4-3.2,2.5-6.5,3.4-9.9C606.1,759.4,603.8,761.7,601.5,763.9z"/>
			<path class="st32" d="M487.9,743.1c45.1,2.8,78.9-33.3,82.6-62.4c1.2-9.5-2-19.5-8.2-28.9c-32.3-27.9-83.2-45.7-121.3-24.6
				c-16.6,9.2-30.5,24-41.1,42C403.1,700.9,437.3,739.9,487.9,743.1z"/>
			<path class="st33" d="M530.6,656.8c-9-24.7-42.9-34.6-66.1-22.1c-17.5,9.5-28.7,31.5-23,50.5c7.9,26.1,45.5,38.3,69.6,23.5
				C527.6,698.6,537.6,676,530.6,656.8z"/>
			<path class="st34" d="M599.3,696.4c-8.6-15.9-21.2-30.6-35.2-43.1l-42.9,2.3c0,0-34.5,19,45,19.1
				C566.2,674.7,577.5,707.3,599.3,696.4z"/>
			<g id="_Group_">
				
					<linearGradient id="SVGID_10_" gradientUnits="userSpaceOnUse" x1="-450.8027" y1="3057.9619" x2="-496.1427" y2="3027.4219" gradientTransform="matrix(0.56 0.83 0.83 -0.56 -1696.34 2751.28)">
					<stop  offset="0" style="stop-color:#598F02"/>
					<stop  offset="1" style="stop-color:#74BA03"/>
				</linearGradient>
				<path class="st35" d="M581.3,670.5c11.5,0.9,23.1,0.4,34.4-1.7c-17.1-17.2-37.2-19.2-37.2-19.2s-4-2.3-4.3-6.5
					c3.1-10.3,1.4-21.4-4.4-30.3c-5.6,6.6-9.2,14.6-10.4,23.2c0,0-1-15.5-22.2-27c0.1,18.5,7.3,27.4,7.3,27.4
					c-13.9,0.7-27.5,5.1-39.1,12.8c35.4,21.4,56.4,14.3,56.4,14.3s-5.2,21.5,13.2,39.5C583.2,692.2,581.3,670.5,581.3,670.5z"/>
			</g>
			<g id="_Group_2">
				<path id="_Path_26" class="st36" d="M450.3,771.9c6.5,3.4,12.5-13,9-15.1C456.4,755,441.6,767.3,450.3,771.9z"/>
			</g>
			<g id="_Group_3">
				<path id="_Path_27" class="st36" d="M408.6,780.9c6.5,3.4,11.2-11.2,7.7-13.3C413.3,765.8,399.9,776.3,408.6,780.9z"/>
			</g>
			<g id="_Group_4">
				<path id="_Path_28" class="st37" d="M456.4,819.2c6.5,3.4,12.7-9.9,9.2-12C462.7,805.3,447.7,814.6,456.4,819.2z"/>
			</g>
			<g id="_Group_5">
				<path id="_Path_29" class="st38" d="M471.2,715c6,4.4,14.2-12.1,11-13.9C478.6,699.1,462.9,708.9,471.2,715z"/>
			</g>
			<g id="_Group_6">
				<path id="_Path_30" class="st38" d="M438.1,656.1c5,5.3,16.4-8.4,13.8-11.5C449.7,642,431.4,649,438.1,656.1z"/>
			</g>
			<g id="_Group_7">
				<path id="_Path_31" class="st38" d="M476.9,662.1c3.8,6.2,16.3-4.2,14.4-7.7C489.6,651.4,471.8,653.8,476.9,662.1z"/>
			</g>
			<g id="_Group_8">
				<path id="_Path_32" class="st36" d="M574.4,734.2c7.3,2.6,9.2-15.5,5.2-16.9C576.1,716.2,566.1,731.3,574.4,734.2z"/>
			</g>
			<g id="_Group_9">
				<path id="_Path_33" class="st38" d="M521,698.8c6.4,6.7,15.9-10.4,12.7-13.2S514.6,692.2,521,698.8z"/>
			</g>
			<g id="_Group_10">
				<path id="_Path_34" class="st36" d="M494.5,765c6.2,4.1,13.7-11.7,10.5-14.1C502.3,748.8,486.4,759.6,494.5,765z"/>
			</g>
			<g id="_Group_11">
				<path id="_Path_35" class="st36" d="M528.6,738.2c7.1,3.8,11.9-12.7,8.7-14.3C533.6,722,520.7,734,528.6,738.2z"/>
			</g>
			<g id="_Group_12">
				<path id="_Path_36" class="st37" d="M508.2,808.7c6.8,4.4,13-11.5,10-13.4C514.5,793,500.7,803.8,508.2,808.7z"/>
			</g>
			<g id="_Group_13">
				<path id="_Path_37" class="st37" d="M550.5,779.7c6.7,4.4,13-11.5,10-13.4C556.9,764,543,774.8,550.5,779.7z"/>
			</g>
			<g id="_Group_14">
				<path id="_Path_38" class="st38" d="M429.6,735.7c6.6,4.6,13.3-11.2,10.3-13.1C436.5,720.2,422.3,730.6,429.6,735.7z"/>
			</g>
			<g id="_Group_15">
				<path id="_Path_39" class="st38" d="M411.4,695.5c5.9,6.3,15.3-9.3,13-11.7C422.4,681.8,405.3,688.9,411.4,695.5z"/>
			</g>
			
				<linearGradient id="_Path_40_1_" gradientUnits="userSpaceOnUse" x1="-458.3748" y1="3058.1279" x2="-451.3349" y2="3127.8879" gradientTransform="matrix(0.56 0.83 0.83 -0.56 -1696.34 2751.28)">
				<stop  offset="0" style="stop-color:#598F02"/>
				<stop  offset="1" style="stop-color:#74BA03"/>
			</linearGradient>
			<path id="_Path_40" class="st39" d="M569.5,643.2c0,0-3,4-5.5,7.3s2.2,8.2,4.5,5.5s5.3-6.4,5.3-6.4s36.4-48.4,63.9-35.6
				c20.9,9.8,15.9,28.7,10.8,43.4l16.5,0.1c0,0,14.4-35.5-11.8-52.6C633.8,592.2,604,591.6,569.5,643.2z"/>
		</g>
	</g>
</g>
</svg>
