<svg xmlns="http://www.w3.org/2000/svg" xmlns:xlink="http://www.w3.org/1999/xlink" viewBox="0 0 578.87 864.01"><defs><style>.cls-1{isolation:isolate;}.cls-2{fill:#cfb28c;}.cls-3{fill:url(#linear-gradient);}.cls-4{fill:#b34d09;opacity:0.8;}.cls-5{fill:url(#linear-gradient-2);}.cls-6{fill:#b32f2f;opacity:0.2;}.cls-7{fill:url(#linear-gradient-3);}.cls-8{fill:#959ecf;}.cls-9{fill:#fe3a44;}.cls-10{fill:#3977a9;}.cls-11{fill:#b51f1b;}.cls-12,.cls-13{fill:#590800;mix-blend-mode:multiply;}.cls-12{opacity:0.05;}.cls-13{opacity:0.07;}.cls-14,.cls-23{fill:#fff;}.cls-15{fill:#fff5e6;}.cls-16{fill:url(#linear-gradient-4);}.cls-17{fill:url(#linear-gradient-5);}.cls-18{fill:#ab1118;}.cls-19{fill:#e1171b;}.cls-19,.cls-23{opacity:0.7;}.cls-20{fill:#f74346;opacity:0.5;}.cls-21{fill:#f79421;}.cls-22{fill:#eb6000;}</style><linearGradient id="linear-gradient" x1="70.96" y1="333.71" x2="418.84" y2="631.9" gradientTransform="translate(-44.14)" gradientUnits="userSpaceOnUse"><stop offset="0" stop-color="#de8340"/><stop offset="1" stop-color="#d16b27"/></linearGradient><linearGradient id="linear-gradient-2" x1="44.11" y1="242.58" x2="484.77" y2="406.46" gradientTransform="translate(-44.14)" gradientUnits="userSpaceOnUse"><stop offset="0" stop-color="#ffdedb"/><stop offset="1" stop-color="#ff9fa8"/></linearGradient><linearGradient id="linear-gradient-3" x1="205.77" y1="531.06" x2="732.11" y2="917.92" gradientTransform="translate(-44.14)" gradientUnits="userSpaceOnUse"><stop offset="0" stop-color="#fff0db"/><stop offset="1" stop-color="#e0c0a8"/></linearGradient><linearGradient id="linear-gradient-4" x1="156.35" y1="268.01" x2="53.69" y2="362.78" gradientTransform="translate(170.91 -193.24) rotate(-16)" gradientUnits="userSpaceOnUse"><stop offset="0" stop-color="#68b728"/><stop offset="0.28" stop-color="#63aa23"/><stop offset="0.8" stop-color="#578917"/><stop offset="1" stop-color="#527a11"/></linearGradient><linearGradient id="linear-gradient-5" x1="760.26" y1="-330.06" x2="865.02" y2="-123.23" gradientTransform="translate(-563.52 97.13) rotate(20.48)" gradientUnits="userSpaceOnUse"><stop offset="0" stop-color="#e1171b"/><stop offset="1" stop-color="#bf1b23"/></linearGradient></defs><title>Asset 22</title><g class="cls-1"><g id="Layer_2" data-name="Layer 2"><g id="Layer_4" data-name="Layer 4"><path class="cls-2" d="M0,444.88C.53,433,5.42,418,20.18,416.39c36.16-3.84,101.81-26.77,253.64-26.77,165.57,0,241.62,30.86,280.58,32.3,27.46,1,23.33,38.66,23.33,38.66S464.71,566.14,320,576.4-.76,463.08,0,444.88Z"/><path class="cls-3" d="M28.56,770.17c17.3,20.33,113.57,62.65,269.38,60.94,136.38-1.49,240.5-43.73,259.24-63.59,11.58-12.25,5.08-250.15,5.08-410.3-33.91-6.69-180.22,38.21-276.39,44.83C201.83,407.83,15.94,327,16,365,18.88,474.94,20.26,760.41,28.56,770.17Z"/><path class="cls-4" d="M18.84,445.17s32,8.54,34.15,44.12c0,0,48.39-50.53,68.32,18.5,0,0,49.1-56.22,67.6,14.23,0,0,51.24-59.77,79,8.54,0,0,44.12-67.6,69.74-1.42,0,0,36.29-72.59,68.31-9.25,0,0,39.85-69.74,69.74-20.64l24.9-26.33s24.2-32,46.26,5-153,121.69-153,121.69L117,583.22,18.13,497.83Z"/><path class="cls-5" d="M11.31,365.33c-5.56-61,140.38-142.1,277.22-143.52,134.89-1.39,282.19,74.39,278.41,135.65-3.85,62.24-145.75,118.12-269.2,117.37C186.79,474.15,16.78,425.42,11.31,365.33Z"/><path class="cls-6" d="M277,218.06c-84.84,10.34-174.35,71-167.86,116.1,7,48.3,123.47,74,209.83,67.84,73.22-5.2,177.65-28.67,181.23-82C503.52,271.16,385,204.89,277,218.06Z"/><path class="cls-7" d="M578.1,463.26c-.75-12-10.62-17.83-18.59-16.39-14.15,2.56-26,17.31-26,38.66,0,.45,0,.88,0,1.33a38.19,38.19,0,0,0-71.66,18.86c0,.35.05.7.06,1a38.19,38.19,0,0,0-72.73,16.73c0,.3,0,.59.05.89a38.11,38.11,0,0,0-72.83,2.66,38.11,38.11,0,0,0-73,4.25,38.14,38.14,0,0,0-73.24-9.36,38.16,38.16,0,0,0-71.93-16.63c-1.13-20.26-14.58-38.39-34.79-38.39-11.17,0-21.06,5.76-27.94,14.32C35,455.63,23.7,437.19,9.37,437.19,4,437.19-.3,443.33,0,444.88c.08,6.9,2.25,345.44,6.74,352,18.46,27.15,126.94,68.82,291.57,67C442.45,862.38,566.18,824.8,576.89,798,579.07,792.59,579.42,617.13,578.1,463.26Z"/><ellipse class="cls-8" cx="36.2" cy="531.72" rx="12.37" ry="13.68"/><ellipse class="cls-9" cx="110.21" cy="551.64" rx="12.37" ry="13.68"/><ellipse class="cls-9" cx="64.15" cy="620.22" rx="11.17" ry="13.68"/><ellipse class="cls-9" cx="32.62" cy="690.67" rx="11.17" ry="13.68"/><ellipse class="cls-9" cx="530.48" cy="603.86" rx="11.17" ry="13.68"/><ellipse class="cls-10" cx="529.22" cy="767.37" rx="11.17" ry="13.68"/><ellipse class="cls-11" cx="64.45" cy="767.99" rx="11.17" ry="13.68"/><path class="cls-9" d="M12.63,751.46c0-6.58-3.8-12.08-8.86-13.38.25,9.82.5,18.74.77,26.51C9.21,763,12.63,757.7,12.63,751.46Z"/><path class="cls-9" d="M569.42,745.33c0,6.58,3.8,12.07,8.86,13.38.11-8,.21-17,.28-26.82C573.36,733.06,569.42,738.63,569.42,745.33Z"/><ellipse class="cls-9" cx="556.1" cy="680" rx="11.17" ry="13.68"/><path class="cls-9" d="M570.54,586.78c0,6.33,3.52,11.63,8.29,13.2q0-13-.08-26.37C574,575.2,570.54,580.48,570.54,586.78Z"/><path class="cls-9" d="M12.93,601.72c0-7.55-5-13.67-11.17-13.67l-.42,0c.1,9,.21,18.16.32,27.32h.1C7.93,615.4,12.93,609.28,12.93,601.72Z"/><ellipse class="cls-10" cx="144.79" cy="633.03" rx="12.37" ry="13.68"/><ellipse class="cls-11" cx="223.78" cy="642.44" rx="12.37" ry="13.68"/><ellipse class="cls-9" cx="226.63" cy="800.26" rx="12.37" ry="13.68"/><ellipse class="cls-9" cx="142.66" cy="789.59" rx="12.37" ry="13.68"/><ellipse class="cls-9" cx="307.04" cy="645.13" rx="12.37" ry="13.68"/><ellipse class="cls-8" cx="306.33" cy="800.97" rx="12.37" ry="13.68"/><ellipse class="cls-9" cx="387.27" cy="637.29" rx="12.37" ry="13.68"/><ellipse class="cls-9" cx="388.16" cy="793.86" rx="12.37" ry="13.68"/><ellipse class="cls-8" cx="463.48" cy="627.23" rx="12.37" ry="13.68"/><ellipse class="cls-9" cx="460.3" cy="786.75" rx="12.37" ry="13.68"/><ellipse class="cls-9" cx="185.96" cy="562.76" rx="12.37" ry="13.68"/><ellipse class="cls-9" cx="266.76" cy="568.01" rx="12.37" ry="13.68"/><ellipse class="cls-9" cx="341.19" cy="567.57" rx="12.37" ry="13.68"/><ellipse class="cls-10" cx="418.05" cy="558.31" rx="12.37" ry="13.68"/><ellipse class="cls-9" cx="493.48" cy="541.95" rx="12.37" ry="13.68"/><ellipse class="cls-9" cx="560.37" cy="519.18" rx="12.37" ry="13.68"/><ellipse class="cls-10" cx="110.92" cy="708.91" rx="12.37" ry="13.68"/><ellipse class="cls-9" cx="186.67" cy="720.03" rx="12.37" ry="13.68"/><ellipse class="cls-9" cx="267.47" cy="725.27" rx="12.37" ry="13.68"/><ellipse class="cls-9" cx="341.91" cy="724.83" rx="12.37" ry="13.68"/><ellipse class="cls-9" cx="418.76" cy="715.58" rx="12.37" ry="13.68"/><ellipse class="cls-11" cx="495.12" cy="699.28" rx="12.37" ry="13.68"/><path class="cls-12" d="M578.1,463.26c-.75-12-10.62-17.83-18.59-16.39-7.23,1.31-13.87,5.82-18.63,12.76,3.2,26.37-3.23,137.67-20.48,176.69C475.33,769.6,348,833.45,227.34,833.45h-1.43A319.19,319.19,0,0,1,64.06,789.67L3.9,743.19c.82,31.09,1.77,52.14,2.86,53.74,18.46,27.15,126.94,68.82,291.57,67C442.45,862.38,566.18,824.8,576.89,798,579.07,792.59,579.42,617.13,578.1,463.26Z"/><path class="cls-13" d="M578.1,463.26c-.75-12-10.62-17.83-18.59-16.39-14.15,2.56-26,17.31-26,38.66,0,.45,0,.88,0,1.33a38.19,38.19,0,0,0-71.66,18.86c0,.35.05.7.06,1a38.63,38.63,0,0,0-18.24-18.26l.09,11c.88,116.87,1.69,233.88-1.13,350.75,74.67-13.72,127.43-35.16,134.25-52.23C579.07,792.59,579.42,617.13,578.1,463.26Z"/><path class="cls-14" d="M316.88,539.24S326.66,509,345,505c24.69-5.32,45.59,30.78,45.59,30.78s9.23-36.92,28.32-44.69c10.92-4.45,22-2.42,29.6.13a37.7,37.7,0,0,0-21.05-6.41,38.46,38.46,0,0,0-38.27,38.65c0,.3,0,.59.05.89a38.11,38.11,0,0,0-72.83,2.66,38.11,38.11,0,0,0-73,4.25,38.14,38.14,0,0,0-73.24-9.36,38.16,38.16,0,0,0-71.93-16.63c-1.13-20.26-14.58-38.39-34.79-38.39-11.17,0-21.06,5.76-27.94,14.32-.45-22.73-9.44-39.78-21.47-43.33,8.32,10.28,17.4,22,19.5,65.24,0,0,5-31.37,34.64-29.7,24.63,1.39,28.28,42.42,28.28,42.42s16.16-25.5,37.64-24.5c24.69,1.14,36.09,41.41,36.09,41.41s12.62-28,33.06-29.64c23.93-1.9,39.89,39.52,39.89,39.52s10.48-32,32.3-35C300.54,504.28,316.88,539.24,316.88,539.24Z"/><path class="cls-15" d="M280.48,154.65C178.87,156.37,68.2,215.45,87,306.05c14,67.32,107.49,85.34,192.21,84.46,84.24-.87,192.39-23.56,202.84-85.4C497.14,215.8,385.34,152.87,280.48,154.65Z"/><path id="_Path_" data-name="&lt;Path&gt;" class="cls-16" d="M321.07,105.44S307.88,65.3,309.45,47.93,322.58.69,327.34,0s18.39,65.63,18.39,65.63S377.22,27,387.68,29.05s-17.26,57-17.26,57,61-11.36,70.24-6c2.52,1.45-19,24.2-42.46,33.32-16.91,6.56-58.81,7.22-58.81,7.22Z"/><g id="_Group_" data-name="&lt;Group&gt;"><g id="_Group_2" data-name="&lt;Group&gt;"><path id="_Path_2" data-name="&lt;Path&gt;" class="cls-17" d="M345.86,80.86C286.14,43.11,226,38.23,182.32,82c-40.73,40.86-77.07,177.07,11,238.2,82.62,57.33,196.49-16.91,225.19-85.47C438.91,186.15,399,114.47,345.86,80.86Z"/><path class="cls-18" d="M418.55,234.77c9.34-22.3,6-49.45-5.5-75.56,1,23.37-.77,48.4-9.51,68.38a75.34,75.34,0,0,1-5.81,10.88c-31.49,48.53-81.64,80.62-143.26,81.1-21.33.16-47.74-5.67-66-17.39-19.92-12.8-32.79-28.55-38.35-37.67a32,32,0,0,1,1.16,4.63,119.88,119.88,0,0,0,42.05,51.1C276,377.57,389.85,303.33,418.55,234.77Z"/><path class="cls-18" d="M147.72,260a38.83,38.83,0,0,0,2.43,4.5A12.58,12.58,0,0,0,147.72,260Z"/><path class="cls-19" d="M317.76,65.66C267.65,42.88,219.12,45.11,182.32,82c-18.8,18.85-36.63,58-41.75,100.74,10.78,47.13,52.61,81.74,97.34,86.86,59.67,6.82,122.12-39.12,127-103.71C368,125.86,348.11,88.54,317.76,65.66Z"/><path class="cls-20" d="M277.55,68.45c-36.89-20.09-92.56,9-109,52.36-13.48,35.54-1.67,83.33,29,98.4,39.21,19.26,100.22-19.44,110.78-69C314.34,121.78,305.19,83.49,277.55,68.45Z"/><path id="_Path_3" data-name="&lt;Path&gt;" class="cls-21" d="M249.75,180.82c8.36,4.9,16.45-18.36,12.06-20.24C256.83,158.43,238.14,174,249.75,180.82Z"/><path id="_Path_4" data-name="&lt;Path&gt;" class="cls-21" d="M268.79,117.38c7.25,6.53,19.62-14.6,15.68-17.35C280,96.9,258.71,108.32,268.79,117.38Z"/><path id="_Path_5" data-name="&lt;Path&gt;" class="cls-21" d="M187,149.4c9,3.1,13.57-20.3,8.73-22.31C191.68,125.39,175.11,145.28,187,149.4Z"/><g id="_Group_3" data-name="&lt;Group&gt;"><path id="_Path_6" data-name="&lt;Path&gt;" class="cls-22" d="M386,208.89c9.39,3.55,13.32-22.92,8.14-24.84C389.72,182.43,375.27,204.84,386,208.89Z"/></g><g id="_Group_4" data-name="&lt;Group&gt;"><path id="_Path_7" data-name="&lt;Path&gt;" class="cls-21" d="M318.74,167c9.56,7.53,18.17-17.05,13.56-20.13S309.27,159.56,318.74,167Z"/></g><g id="_Group_5" data-name="&lt;Group&gt;"><path id="_Path_8" data-name="&lt;Path&gt;" class="cls-22" d="M338.85,262.28c7.32,6.37,19.32-13.43,15.51-17.18C351.13,241.93,329.14,253.83,338.85,262.28Z"/></g><g id="_Group_6" data-name="&lt;Group&gt;"><path id="_Path_9" data-name="&lt;Path&gt;" class="cls-22" d="M252.09,306.74c7.12,6.6,19.73-12.79,16-16.66C265,286.8,242.65,298,252.09,306.74Z"/></g><g id="_Group_7" data-name="&lt;Group&gt;"><path id="_Path_10" data-name="&lt;Path&gt;" class="cls-21" d="M277.88,247.58c9.12,5.18,15.56-16.8,11.47-19C284.52,226,267.75,241.82,277.88,247.58Z"/></g><g id="_Group_8" data-name="&lt;Group&gt;"><path id="_Path_11" data-name="&lt;Path&gt;" class="cls-21" d="M207.64,245.94c8.9,5.57,16.19-16.13,12.2-18.5C215.12,224.65,197.74,239.77,207.64,245.94Z"/></g><g id="_Group_9" data-name="&lt;Group&gt;"><path id="_Path_12" data-name="&lt;Path&gt;" class="cls-21" d="M194.85,198.37c10,5,14.07-19,10.19-20.85C201.75,176,184.43,193.11,194.85,198.37Z"/></g></g><path id="_Path_13" data-name="&lt;Path&gt;" class="cls-23" d="M252.25,76.8c-.37-6-8.83-9.58-19.22-6.94-9.75,2.48-17.17,9.39-17.94,14.93-1,6.89,8.43,11.4,19.68,8.37C244.71,90.47,252.62,82.85,252.25,76.8Z"/></g><path class="cls-23" d="M199.46,93.38c3.84,1.68,5.53,6.55,3.77,10.88s-6.29,6.48-10.13,4.8-5.53-6.55-3.77-10.88S195.62,91.7,199.46,93.38Z"/><path class="cls-15" d="M131.54,253.71c29.16,22.66,74.19,36.81,142.87,35.06,69.9-1.79,128.49-23.87,157-43.68C408.2,318.75,338.72,366.1,267,360.3,206.62,355.41,153.38,313.53,131.54,253.71Z"/><path class="cls-12" d="M415.69,189l1.35,10.1a125.11,125.11,0,0,1-14.31,64.05c-12.28,37.73-39.62,70.85-81.21,89-23.94,10.42-55.92,14-81.87,12.27-88.67-6-128.71-48.35-148.34-111.75-6.42,16.2-8.31,34.08-4.3,53.4,14,67.32,107.49,85.34,192.21,84.46,84.24-.87,192.39-23.56,202.84-85.4C490.25,256.57,461,215.82,415.69,189Z"/><path class="cls-12" d="M415.69,189l1.35,10.1c.35,9.17-12,19.8-13.5,28.47,31.11,16.37,51.51,42.69,52.93,66.18,1.28,21.09-4.5,45.44-31,68-.28.87-3.1,2.72-3.4,3.57,32-13.52,55.38-33.12,60-60.27C490.25,256.57,461,215.82,415.69,189Z"/></g></g></g></svg>