<svg xmlns="http://www.w3.org/2000/svg" xmlns:xlink="http://www.w3.org/1999/xlink" viewBox="0 0 671.21 1481.39"><defs><style>.cls-1{fill:url(#linear-gradient);}.cls-2{fill:#ffcf66;}.cls-2,.cls-4{opacity:0.2;}.cls-3{fill:#542812;}.cls-5{opacity:0.1;}.cls-6{fill:url(#linear-gradient-2);}.cls-7{fill:url(#linear-gradient-3);}.cls-8{fill:#fdbbc4;}.cls-9{fill:url(#linear-gradient-4);}.cls-10{fill:#fec9cc;}.cls-11{fill:url(#linear-gradient-5);}.cls-12,.cls-16{fill:#fe9fb4;}.cls-13{fill:url(#linear-gradient-6);}.cls-14{fill:url(#linear-gradient-7);}.cls-15{fill:#ffe7e6;}.cls-16{opacity:0.7;}.cls-17{fill:url(#linear-gradient-8);}.cls-18{fill:#ffdae0;}.cls-19{fill:#fdb6c0;}.cls-20{fill:#fed1d0;}.cls-21{fill:url(#linear-gradient-9);}.cls-22{fill:url(#linear-gradient-10);}.cls-23{fill:url(#linear-gradient-11);}.cls-24{fill:url(#linear-gradient-12);}.cls-25{fill:url(#linear-gradient-13);}.cls-26{fill:url(#linear-gradient-14);}.cls-27{fill:url(#linear-gradient-15);}.cls-28{fill:url(#linear-gradient-16);}.cls-29{fill:#9d7b69;}.cls-30{fill:url(#linear-gradient-17);}.cls-31{fill:url(#linear-gradient-18);}.cls-32{fill:url(#linear-gradient-19);}.cls-33{fill:url(#linear-gradient-20);}.cls-34{fill:url(#linear-gradient-21);}.cls-35{fill:url(#linear-gradient-22);}.cls-36{fill:url(#linear-gradient-23);}.cls-37{fill:url(#linear-gradient-24);}.cls-38{fill:url(#linear-gradient-25);}.cls-39{fill:url(#linear-gradient-26);}.cls-40{fill:url(#linear-gradient-27);}.cls-41{fill:url(#linear-gradient-28);}.cls-42{fill:url(#linear-gradient-29);}.cls-43{fill:url(#linear-gradient-30);}.cls-44{fill:url(#linear-gradient-31);}.cls-45{fill:url(#linear-gradient-32);}</style><linearGradient id="linear-gradient" x1="124.99" y1="1123.53" x2="636.33" y2="1123.53" gradientTransform="translate(-44.14)" gradientUnits="userSpaceOnUse"><stop offset="0.01" stop-color="#e0a66c"/><stop offset="1" stop-color="#cd875a"/></linearGradient><linearGradient id="linear-gradient-2" x1="86.33" y1="807.91" x2="655.98" y2="807.91" gradientTransform="translate(-44.14)" gradientUnits="userSpaceOnUse"><stop offset="0.01" stop-color="#e0a66c"/><stop offset="1" stop-color="#ad6b3e"/></linearGradient><linearGradient id="linear-gradient-3" x1="87.3" y1="372.17" x2="433.95" y2="139.03" gradientTransform="translate(-44.14)" gradientUnits="userSpaceOnUse"><stop offset="0" stop-color="#fee6e5"/><stop offset="1" stop-color="#ffd1d9"/></linearGradient><linearGradient id="linear-gradient-4" x1="74.89" y1="353.71" x2="421.53" y2="120.57" xlink:href="#linear-gradient-3"/><linearGradient id="linear-gradient-5" x1="112.4" y1="409.48" x2="459.04" y2="176.34" xlink:href="#linear-gradient-3"/><linearGradient id="linear-gradient-6" x1="130.18" y1="435.91" x2="476.82" y2="202.77" xlink:href="#linear-gradient-3"/><linearGradient id="linear-gradient-7" x1="264.3" y1="635.33" x2="610.94" y2="402.19" gradientTransform="translate(-44.14)" gradientUnits="userSpaceOnUse"><stop offset="0" stop-color="#fedcda"/><stop offset="1" stop-color="#ffc7d1"/></linearGradient><linearGradient id="linear-gradient-8" x1="44.14" y1="654.52" x2="661.92" y2="654.52" xlink:href="#linear-gradient-7"/><linearGradient id="linear-gradient-9" x1="424.7" y1="59.41" x2="436.17" y2="59.41" gradientTransform="translate(-44.14)" gradientUnits="userSpaceOnUse"><stop offset="0" stop-color="#57332b"/><stop offset="0.39" stop-color="#543129"/><stop offset="0.71" stop-color="#4a2921"/><stop offset="1" stop-color="#391d15"/></linearGradient><linearGradient id="linear-gradient-10" x1="310.8" y1="65.4" x2="326.31" y2="65.4" xlink:href="#linear-gradient-9"/><linearGradient id="linear-gradient-11" x1="474.54" y1="62.88" x2="469.97" y2="115.87" xlink:href="#linear-gradient-9"/><linearGradient id="linear-gradient-12" x1="276.54" y1="142.34" x2="282.71" y2="173.63" xlink:href="#linear-gradient-9"/><linearGradient id="linear-gradient-13" x1="185.25" y1="197.11" x2="209.04" y2="243.97" xlink:href="#linear-gradient-9"/><linearGradient id="linear-gradient-14" x1="359.62" y1="184.48" x2="382.29" y2="229.13" xlink:href="#linear-gradient-9"/><linearGradient id="linear-gradient-15" x1="549.62" y1="216.87" x2="554.88" y2="243.51" xlink:href="#linear-gradient-9"/><linearGradient id="linear-gradient-16" x1="476.17" y1="302.07" x2="486.26" y2="353.24" xlink:href="#linear-gradient-9"/><linearGradient id="linear-gradient-17" x1="227.87" y1="326.26" x2="234.39" y2="359.34" xlink:href="#linear-gradient-9"/><linearGradient id="linear-gradient-18" x1="335.86" y1="374.07" x2="341.76" y2="403.99" xlink:href="#linear-gradient-9"/><linearGradient id="linear-gradient-19" x1="399.45" y1="-775.87" x2="444.7" y2="-775.87" gradientTransform="translate(122.25 1088.79) rotate(-21.51)" xlink:href="#linear-gradient-9"/><linearGradient id="linear-gradient-20" x1="1131.53" y1="1783.46" x2="1176.78" y2="1783.46" gradientTransform="matrix(0.79, 0.61, -0.61, 0.79, 685.57, -1821.68)" xlink:href="#linear-gradient-9"/><linearGradient id="linear-gradient-21" x1="5493.9" y1="573.44" x2="5539.15" y2="573.44" gradientTransform="translate(6037.07 -513.79) rotate(164.32)" xlink:href="#linear-gradient-9"/><linearGradient id="linear-gradient-22" x1="468.07" y1="389.55" x2="503.97" y2="389.55" xlink:href="#linear-gradient-9"/><linearGradient id="linear-gradient-23" x1="353.95" y1="509.27" x2="388.84" y2="509.27" xlink:href="#linear-gradient-9"/><linearGradient id="linear-gradient-24" x1="493.24" y1="161.72" x2="508.27" y2="161.72" xlink:href="#linear-gradient-9"/><linearGradient id="linear-gradient-25" x1="386.72" y1="256.22" x2="412.68" y2="256.22" xlink:href="#linear-gradient-9"/><linearGradient id="linear-gradient-26" x1="219.28" y1="260.2" x2="239.89" y2="260.2" xlink:href="#linear-gradient-9"/><linearGradient id="linear-gradient-27" x1="164.68" y1="330.87" x2="183.22" y2="330.87" xlink:href="#linear-gradient-9"/><linearGradient id="linear-gradient-28" x1="749.48" y1="-1442.2" x2="794.74" y2="-1442.2" gradientTransform="translate(583.79 2054.37) rotate(-42.41)" xlink:href="#linear-gradient-9"/><linearGradient id="linear-gradient-29" x1="4864.07" y1="-1554.02" x2="4909.32" y2="-1554.02" gradientTransform="translate(4912.85 2428.55) rotate(-135.73)" xlink:href="#linear-gradient-9"/><linearGradient id="linear-gradient-30" x1="5466.35" y1="-626.21" x2="5511.61" y2="-626.21" gradientTransform="translate(5734.9 1289.84) rotate(-163.1)" xlink:href="#linear-gradient-9"/><linearGradient id="linear-gradient-31" x1="439.04" y1="469.49" x2="451.36" y2="531.96" xlink:href="#linear-gradient-9"/><linearGradient id="linear-gradient-32" x1="861.33" y1="-1586.82" x2="869.22" y2="-1546.82" gradientTransform="matrix(0.66, -0.75, 0.8, 0.71, 773.5, 2227.49)" xlink:href="#linear-gradient-9"/></defs><title>Asset 20</title><g id="Layer_2" data-name="Layer 2"><g id="Layer_4" data-name="Layer 4"><path class="cls-1" d="M80.85,789.61c30.74,97.49,177.84,563,218.1,651.25,17.09,37.45,30.29,40.63,36.17,40.52,17.33-.3,30.1-30,36.27-45.62,38.47-97.25,199.75-603.9,220.79-670.08-35.71,25.57-88.68,56.24-157.94,73.51C265,881.39,123.48,812.48,80.85,789.61Z"/><g id="_Group_" data-name="&lt;Group&gt;"><path class="cls-2" d="M535.25,817.71l24.68,49.06q2.61-8.17,5.08-15.88l-19.14-38.08C542.36,814.55,538.82,816.2,535.25,817.71Z"/><path class="cls-2" d="M503.89,900l-29.21-58.1,22.48-12.7c-.41.06-.86.19-1.27.25a2,2,0,0,1-.41,0,303.46,303.46,0,0,1-63.31,23l-29.56,16.73-5.09-10.09c-2.46.35-4.93.7-7.4,1-1.64.19-3.28.35-4.93.51l7.21,14.35-56.61,32-23.08-45.87q-6.87-.52-13.72-1.23l26.59,52.85-56.62,32-29.23-58.1L289,858.71c-6.39-.76-12.74-1.64-19.13-2.62l-35.43,20-14.8-29.4q-3.84-.81-7.68-1.67c-2.37-.54-4.74-1.14-7.11-1.71l19.41,38.53-56.65,32-29.2-58.1,37.17-21c-4.87-1.67-9.67-3.41-14.41-5.28l-28,15.84-20-39.8c-6.33-2.87-12.08-5.61-17.18-8.13l27,53.68L103.74,862q1.77,5.55,3.61,11.38l20.89-11.8,29.24,58.1-30,16.92q1.8,5.63,3.64,11.37l31.58-17.86L192,988.19l-40.54,22.92,3.67,11.37,42.15-23.83,29.21,58.1-50.94,28.78q1.85,5.67,3.7,11.36l52.52-29.68,29.21,58.1-56.62,32L189,1126.77c8.35,25.48,16.71,50.86,24.93,75.58l14.73,29.26-4.17,2.36q1.9,5.68,3.79,11.29l5.63-3.18,29.24,58.1-13.57,7.67q1.95,5.7,3.88,11.24l15-8.45,29.21,58.1-22.11,12.49c1.4,3.82,2.77,7.54,4.1,11.12l23.29-13.15,29.21,58.1-27.26,15.42c2.07,3.82,4.06,7.14,6,10l26.56-15,12.92,25.7a63.6,63.6,0,0,0,7.89-10.35L347.55,1442,375,1426.49c1.88-5,4-10.67,6.24-17l-38.9,22-29.24-58.06,56.61-32L390.61,1383c1.72-4.92,3.51-10.08,5.35-15.41l-16.08-32,33.41-18.87c1.83-5.43,3.68-10.94,5.57-16.58l-44.26,25-29.2-58.1,56.61-32,23.2,46.11q2.58-7.73,5.21-15.63l-18.23-36.23,37.15-21q2.7-8.21,5.42-16.51l-47.82,27-29.24-58.1,56.62-32,24.9,49.48q2.58-7.86,5.17-15.79L444.53,1123l40.12-22.67q2.69-8.23,5.34-16.44l-50.74,28.68L410,1054.5l56.61-32L493,1074.76q2.58-7.92,5.12-15.8l-21.25-42.23,42.69-24.11,5.29-16.43-53.23,30.08-29.24-58.1,56.62-32,27.55,54.74c1.72-5.34,3.42-10.65,5.11-15.88l-22.45-44.61L554.09,885c1.79-5.6,3.53-11,5.24-16.37ZM397.68,885.39l29.21,58.1-56.62,32L341,917.38Zm-88.95,138.29,56.61-32,29.24,58.1-56.61,32Zm53.51,132.42-56.61,32L276.39,1130,333,1098Zm-31.38-233,29.24,58.1-56.65,32-29.21-58.1Zm-157.93,1.2,56.62-32,29.24,58.09-56.62,32Zm34.49,68.57,56.61-32,29.24,58.1-56.61,32Zm34.49,68.56,56.61-32,29.24,58.1-56.61,32Zm-32.31,106.3,56.61-32,29.24,58.1-56.64,32Zm34.49,68.56,56.61-32,29.24,58.1-56.61,32ZM364.43,1331l-56.62,32-29.24-58.09,56.62-32Zm32.3-106.3-56.61,32-29.24-58.1,56.64-32Zm32.34-106.3-56.62,32-29.23-58.09,56.61-32Zm32.3-106.31-56.61,32-29.24-58.1,56.65-32ZM437.1,937.74l-29.24-58.1,56.61-32,29.24,58.1Z"/><path class="cls-3" d="M356.57,853.61A543,543,0,0,1,301.22,852a503.85,503.85,0,0,1-110.47-18.23,322.56,322.56,0,0,1-32.87-10.33,539.62,539.62,0,0,1-77-33.82h0C92.41,826.27,120.41,914.92,153,1016a577,577,0,0,0,356.85,6.61C543.62,918,573.58,824.13,587,782,524.89,833.62,435.09,851.74,356.57,853.61Z"/><path class="cls-4" d="M564.74,851.74c8.9-27.85,16.23-50.85,21.39-67-37.33,25-136.5,83.41-273.2,78-101.38-4-177.65-41.21-219.21-66.47-5-2.48-9.29-4.75-12.87-6.67,4.23,13.4,10.66,33.81,18.71,59.2a663.54,663.54,0,0,0,465.18,2.93Z"/><path class="cls-5" d="M371.39,1435.76c38.47-97.25,199.75-603.9,220.79-670.08a477.57,477.57,0,0,1-68.64,41q-93.31,337.26-186.62,674.53C353.33,1478.92,365.43,1450.81,371.39,1435.76Z"/></g><path id="_Path_" data-name="&lt;Path&gt;" class="cls-6" d="M45.3,743.71s31.52,18.85,32.42,19.51,80.51,81.24,248,82.52c134.21,1,229.64-54.52,283.83-104.46,2.21,1.65,4.5,32.27-1.56,37.07-31,24.57-41.9,34.81-75.19,51.14-66.89,32.81-132.73,45.64-212.95,45-112.75-.86-183-37-217.77-55.95-8.62-4.69-37.15-20-54.39-36.18C36.93,772.32,45.3,743.71,45.3,743.71Z"/><g id="_Group_2" data-name="&lt;Group&gt;"><g id="_Group_3" data-name="&lt;Group&gt;"><path id="_Path_2" data-name="&lt;Path&gt;" class="cls-7" d="M217.74,232.82s-28.68-96.73,22.51-168.18C297.1-14.71,393-5.23,413.16,11.35l-98.3,62.77,71.06,254.64Z"/><path id="_Path_3" data-name="&lt;Path&gt;" class="cls-8" d="M262.75,226.9s-35.53-98.3,11.84-162.26C330-10.16,399,6.61,413.16,11.35L324.34,81.23l124.35,174.1Z"/><path id="_Path_4" data-name="&lt;Path&gt;" class="cls-9" d="M329.07,234S205.9,106.1,359.87,9l67.51,201.34S380,247,329.07,234Z"/><path id="_Path_5" data-name="&lt;Path&gt;" class="cls-10" d="M156.15,303.89s-5.92-41.46,34.35-68.7,181.21-3.55,181.21-3.55Z"/><path id="_Path_6" data-name="&lt;Path&gt;" class="cls-11" d="M133.65,392.71s-35.53-33.16-22.5-66.32,149.23-85.27,299.64-116.07S133.65,392.71,133.65,392.71Z"/><path id="_Path_7" data-name="&lt;Path&gt;" class="cls-10" d="M106.41,448.38S74.43,346.52,428.56,234C428.56,234,353.94,451.93,106.41,448.38Z"/><path id="_Path_8" data-name="&lt;Path&gt;" class="cls-8" d="M185.76,454.3s-24.87-52.11,90-111.33,140.94-93.56,120.8-126.73-88.83-52.11-86.46-123.17S369.34-7.6,404.87,7.79L358.68,56.35S348,99,414.35,170.05,558.84,338.23,185.76,454.3Z"/><path id="_Path_9" data-name="&lt;Path&gt;" class="cls-12" d="M183.63,437.65c6.66,3.25,17.57,5.59,31.61,7.2C554.52,333,478.86,239.18,414.35,170.05c-7.6-8.14-14.15-15.9-19.86-23.27a9,9,0,0,0,1.55,7c22,29.32,63,82.11,13.19,140.76C353.41,360.25,202.06,429.73,183.8,436.16,183.74,436.66,183.67,437.17,183.63,437.65Z"/><path id="_Path_10" data-name="&lt;Path&gt;" class="cls-13" d="M95.75,504.05S53.11,485.1,70.88,453.12C92,415,156.44,480.6,322,385.61c145-83.19,150.41-151.6,79.35-212S326.7,69.38,344.47,41s45-42.64,68.69-29.61c0,0-24.87,9.47-33.16,40.27s30.79,61.58,78.17,91.19S573.05,253,509.1,361.92,176.29,543.13,95.75,504.05Z"/><path id="_Path_11" data-name="&lt;Path&gt;" class="cls-10" d="M46,560.9s11.84-37.9,50.93-58c0,0,122,16.58,316.22-106.59l35.53,26.05-40.26,54.49S170.37,643.8,46,560.9Z"/><path id="_Path_12" data-name="&lt;Path&gt;" class="cls-8" d="M69.88,607.37S40.09,589.32,46,560.9c0,0,133.32,28.24,273.78-42C484,436.8,413.16,396.27,413.16,396.27s100.67-72.25,97.12-148S405,139,381.19,101.36c-30.8-48.56-2.37-85.27,18.95-91.2S430.93,37.4,430.93,37.4s-21.32-26-39.09-1.18,2.37,60.4,67.51,95.93,132.65,77,76.4,216.15l12.43,123.77L389.48,602.35,171.55,629.59Z"/><path id="_Path_13" data-name="&lt;Path&gt;" class="cls-14" d="M11.66,662.75s-2.77-28.19,58.22-55.38c0,0,129.21,10.08,271.33-56.54S535.75,348.3,535.75,348.3s64.84,138.57-13.33,206.08S361.64,686.73,221.3,707.17,11.66,662.75,11.66,662.75Z"/><path id="_Path_14" data-name="&lt;Path&gt;" class="cls-15" d="M512.81,596.71c33.46-28.89,50.29-113.12,47.65-151.61-7.62,8.4-42.82,86.82-56.7,95.49-276,172.33-492.1,122.16-492.1,122.16S81,727.6,221.3,707.17,434.64,664.22,512.81,596.71Z"/><path id="_Path_15" data-name="&lt;Path&gt;" class="cls-8" d="M37.31,717.05s-18.54-17-25.65-54.3c0,0,120.69,61.09,342.85-28.35C562.92,550.49,556,431.61,522.23,376.54l13.52-28.24s68.17,47.26,48.58,145.63l-2.39,110.2s-85.28,151-303.8,183S37.31,717.05,37.31,717.05Z"/><path id="_Path_16" data-name="&lt;Path&gt;" class="cls-16" d="M559,372q-1.38-1.83-2.76-3.52a127.07,127.07,0,0,0-16.14-16.66c-2.73-2.32-4.39-3.48-4.39-3.48l-13.52,28.24.3.53c1,1.57,1.89,3.16,2.77,4.79,22.31,41.23,28.52,112.15-45.62,179C493.63,663.24,291,733.94,291,733.94s39.16,11.71,89.91,26.79h0c124.42-47,184.52-130.84,198-151.75l.32-.49.94-1.49c.12-.21.26-.42.37-.6l.59-1,.33-.55.26-.44.19-.32,2.39-110.2C596,435.52,576.65,395.14,559,372Z"/><path id="_Path_17" data-name="&lt;Path&gt;" class="cls-17" d="M4.2,813.5s-21.59-57.58,33.11-96.45c0,0,151.15,56.15,326.77-4.31C565.79,643.3,584.33,493.93,584.33,493.93l33.11,74.85s14.4,136.76-144,200.1-254.8,43.18-254.8,43.18Z"/><path id="_Path_18" data-name="&lt;Path&gt;" class="cls-18" d="M279,814.66c6-.8,12.12-1.62,18.39-2.51,277.33-39.31,277-153.88,277-153.88C438.58,757.84,301,759.65,172.45,763.27S4.2,813.5,4.2,813.5l214.49-1.44S240,816.51,279,814.66Z"/><path id="_Path_19" data-name="&lt;Path&gt;" class="cls-8" d="M613.32,602.35,597.05,620a30.26,30.26,0,0,1-1.32,10.37C564.52,729.89,481.67,776.59,401.5,832.1l-12,13S564.76,947,650,826.19C713.76,735.92,613.32,602.35,613.32,602.35Z"/><path id="_Path_20" data-name="&lt;Path&gt;" class="cls-12" d="M601.82,629.67c-1.83,15,3.27,25.31-5,37.69-18.66,28-46.7,44.79-75.47,60.58a111,111,0,0,1-26.55,21.81l-11.19,66.73s104.84,38.12,148.68-28.59C658.76,747.64,630.41,667.8,601.82,629.67Z"/><path id="_Path_21" data-name="&lt;Path&gt;" class="cls-19" d="M43.07,842.29,4.2,813.5S91,774.13,269.85,782.37c210.93,9.72,385.47-155.51,307.73-260.6l6.75-27.84S680.78,564.46,616,676.75l-43.18,90.69L400.07,859.57,201.42,881.16Z"/><path id="_Path_22" data-name="&lt;Path&gt;" class="cls-12" d="M584.33,493.93l-6.75,27.84C653.91,625,486.87,788.07,281.21,782.71c60.87,8.73,143.46.83,223.39-42.48,36.95-20,74.7-24.35,68.55,9L616,676.75C680.78,564.46,584.33,493.93,584.33,493.93Z"/><path id="_Path_23" data-name="&lt;Path&gt;" class="cls-20" d="M43.07,842.29S78,812,208.27,832.12C372.42,857.49,551.73,804.88,616,676.75c0,0,18.06,163.45-228.89,213.4C176.29,932.79,57.85,897.26,43.07,842.29Z"/></g><path id="_Path_24" data-name="&lt;Path&gt;" class="cls-12" d="M411.22,397.93C278.69,482,181.77,499.28,132.31,502.86c51.14,5.76,180.3-13.92,294.08-96.18,83.05-60.05,93.62-116.6,83.9-156.24,1.53,75-97.13,145.83-97.13,145.83Z"/><path id="_Path_25" data-name="&lt;Path&gt;" class="cls-12" d="M540.06,434.75c3.28,59.92-34.74,138.94-185.56,199.65C292.68,659.29,238.74,672.5,193,678.64c50.68,3.18,184.9-19.46,272.66-84.32C540.26,539.21,563,472.22,540.06,434.75Z"/><path id="_Path_26" data-name="&lt;Path&gt;" class="cls-19" d="M57.5,866.36C97,906.43,209.15,926.14,387.11,890.15c92.15-18.64,147.39-53.08,180.45-88.94C344.81,932.85,120.21,884.08,57.5,866.36Z"/><path id="_Path_27" data-name="&lt;Path&gt;" class="cls-15" d="M295.59,419.46C376.81,385.37,408.82,340,421.43,308.64c-19.78,24.24-52.15,49.81-99.46,77-110.65,63.5-176.06,55.26-213.63,54.19C120.66,446.61,176,469.67,295.59,419.46Z"/></g><path class="cls-21" d="M387.37,70.08c4.51-7.62,7-20.16,1.5-21.28-2.85-.57-6,3.26-8.31,8.21A109.69,109.69,0,0,0,387.37,70.08Z"/><path class="cls-22" d="M282.16,69.06c-3.36-8.59-8.06-15.5-12.46-14.55-4.6,1-3.44,11.44-.11,21.86A126.75,126.75,0,0,1,282.16,69.06Z"/><path class="cls-23" d="M410.49,97.73c9.75,9.18,26.76,15.25,43.41,21.48A33.74,33.74,0,0,0,459,92.51C454.73,75.36,436.4,64.25,418.8,67.4a35.91,35.91,0,0,0-22.88,14.8A154.29,154.29,0,0,0,410.49,97.73Z"/><path class="cls-24" d="M258.28,172.42a20.78,20.78,0,0,0,.56-11.68c-2.72-11-14.45-18.1-25.72-16.08-10.09,1.8-18.25,10.65-18.5,20.9a21.89,21.89,0,0,0,7.1,16.3A186.45,186.45,0,0,1,258.28,172.42Z"/><g id="_Group_4" data-name="&lt;Group&gt;"><path class="cls-25" d="M178.32,206.84c1.3-1.1,2.63-2.15,4-3.19a36.15,36.15,0,0,0-30.68-9.23c-15.75,2.82-28.49,16.63-28.88,32.65-.34,14,8.89,26.78,21.51,32.32A103.11,103.11,0,0,1,178.32,206.84Z"/></g><g id="_Group_5" data-name="&lt;Group&gt;"><path class="cls-26" d="M312.2,244.23c4-2.31,8.08-4.57,12.37-6.76a337,337,0,0,1,41.13-17.64,31.57,31.57,0,0,0-.49-12.49C361,190.19,342.63,179.08,325,182.23c-15.75,2.82-28.49,16.63-28.88,32.65C295.86,226.8,302.47,237.78,312.2,244.23Z"/></g><path class="cls-27" d="M532.08,243.42a20.34,20.34,0,0,0-.22-8.5c-2.73-11-14.46-18.1-25.73-16.08-10.09,1.8-18.25,10.65-18.5,20.9a21.1,21.1,0,0,0,3.42,11.82A381.06,381.06,0,0,1,532.08,243.42Z"/><g id="_Group_6" data-name="&lt;Group&gt;"><path class="cls-28" d="M443.38,360.17c3.1-.55,6.19-1.09,9.26-1.6,5.57-.93,11-1.79,16.24-2.59a33.44,33.44,0,0,0,3.92-24.88c-4.26-17.16-22.58-28.27-40.19-25.12-15.23,2.73-27.62,15.75-28.76,31.09C422.81,341.29,436.1,352.42,443.38,360.17Z"/><path id="_Path_28" data-name="&lt;Path&gt;" class="cls-29" d="M424.69,310.9c-3.36,1.38-6.53,5.05-5.63,7.4s6.12,3.05,9.74,1.48c3.23-1.41,6.3-5,5.38-7.37S428.2,309.47,424.69,310.9Z"/><path id="_Path_29" data-name="&lt;Path&gt;" class="cls-29" d="M317.44,186.88c-3.36,1.38-6.53,5.05-5.63,7.4s6.12,3.05,9.74,1.47c3.23-1.4,6.3-5,5.38-7.36S321,185.44,317.44,186.88Z"/><path id="_Path_30" data-name="&lt;Path&gt;" class="cls-29" d="M143.77,200.68c-3.36,1.37-6.53,5-5.63,7.39s6.12,3.05,9.74,1.48c3.23-1.41,6.3-5,5.38-7.36S147.27,199.24,143.77,200.68Z"/></g><g id="_Group_7" data-name="&lt;Group&gt;"><path class="cls-30" d="M187.08,365.15a289.41,289.41,0,0,1,36.13-12.66c-4.94-16.27-22.65-26.63-39.71-23.57-13.89,2.48-25.42,13.51-28.23,27.07A171.87,171.87,0,0,1,187.08,365.15Z"/></g><path class="cls-31" d="M318.46,394c-.09-.55-.17-1.1-.31-1.65-2.72-11-14.46-18.1-25.73-16.08-10.09,1.8-18.24,10.65-18.49,20.9a21.61,21.61,0,0,0,5.84,15A347.8,347.8,0,0,1,318.46,394Z"/><path id="_Path_31" data-name="&lt;Path&gt;" class="cls-32" d="M210.72,223.66c-4.56-9.72,35.09-29.58,39.26-23.63C254.85,207,215,232.68,210.72,223.66Z"/><path id="_Path_32" data-name="&lt;Path&gt;" class="cls-33" d="M479.43,283.3c6.05-8.87,43.31,15.18,40.31,21.79C516.22,312.82,473.82,291.53,479.43,283.3Z"/><path id="_Path_33" data-name="&lt;Path&gt;" class="cls-34" d="M591.61,415.81c3.56,10.13-37.91,25.87-41.45,19.53C546,427.93,588.32,406.41,591.61,415.81Z"/><path id="_Path_34" data-name="&lt;Path&gt;" class="cls-35" d="M423.94,391c-.6-7.84,34.83-10.12,35.86-2.93C461,396.42,424.48,398,423.94,391Z"/><path id="_Path_35" data-name="&lt;Path&gt;" class="cls-36" d="M309.88,504.51c2.06-7.59,36.2,2.13,34.77,9.25C343,522.08,308,511.36,309.88,504.51Z"/><path id="_Path_36" data-name="&lt;Path&gt;" class="cls-37" d="M461.28,179.08c-7.21,1.63-16.66-32.22-9.81-34.62C459.48,141.65,469,177.33,461.28,179.08Z"/><path id="_Path_37" data-name="&lt;Path&gt;" class="cls-38" d="M343.32,269.46c-5.22-5.23,18.43-31.24,24.11-26.72C374.07,248,348.9,275.06,343.32,269.46Z"/><path id="_Path_38" data-name="&lt;Path&gt;" class="cls-39" d="M194.62,271.11c-5.51,4.92-23.5-16-18.67-21.45C181.6,243.32,200.52,265.84,194.62,271.11Z"/><path id="_Path_39" data-name="&lt;Path&gt;" class="cls-40" d="M122.09,342.89c-6.34-3.8,8.29-27.21,14.91-24.21C144.73,322.18,128.88,347,122.09,342.89Z"/><path id="_Path_40" data-name="&lt;Path&gt;" class="cls-41" d="M166.9,486.52c-7.73-7.46,22.23-40.16,28.24-36.09C202.17,455.19,174.07,493.43,166.9,486.52Z"/><path id="_Path_41" data-name="&lt;Path&gt;" class="cls-42" d="M347.65,143.51c-7,8.15-42.5-18.32-37.66-26.1C314.48,110.21,354.14,136,347.65,143.51Z"/><path id="_Path_42" data-name="&lt;Path&gt;" class="cls-43" d="M323.64,296.65c-2.46,10.46-45.87,1.39-45.44-5.86C278.71,282.31,325.93,287,323.64,296.65Z"/><g id="_Group_8" data-name="&lt;Group&gt;"><path id="_Path_43" data-name="&lt;Path&gt;" class="cls-44" d="M433.82,521.62a33.06,33.06,0,0,0,2.58-22.36c-4.25-17.15-22.58-28.26-40.18-25.11-15.75,2.82-28.49,16.63-28.88,32.65a34.1,34.1,0,0,0,11,25.35C394.53,522.63,416.51,518.93,433.82,521.62Z"/></g><path id="_Path_44" data-name="&lt;Path&gt;" class="cls-45" d="M117.54,460.48a24.34,24.34,0,0,0-10.87-12.65c-10.62-5.78-24.11-2.07-30,7.79-5.25,8.83-3.58,21.22,4.48,28.71a24.19,24.19,0,0,0,17.31,6.29C100.83,484.9,111.57,468.37,117.54,460.48Z"/></g></g></svg>