<svg xmlns="http://www.w3.org/2000/svg" xmlns:xlink="http://www.w3.org/1999/xlink" viewBox="0 0 953.72 799.22"><defs><style>.cls-1{mask:url(#mask);filter:url(#luminosity-noclip-3);}.cls-15,.cls-16,.cls-19,.cls-2,.cls-4{mix-blend-mode:multiply;}.cls-2{fill:url(#linear-gradient);}.cls-3{mask:url(#mask-2);filter:url(#luminosity-noclip-4);}.cls-4{fill:url(#linear-gradient-2);}.cls-5{isolation:isolate;}.cls-6{fill:#d4801c;}.cls-7{fill:url(#linear-gradient-3);}.cls-8{fill:url(#linear-gradient-4);}.cls-9{fill:url(#linear-gradient-5);}.cls-10{fill:url(#linear-gradient-6);}.cls-11{fill:url(#linear-gradient-7);}.cls-12{fill:url(#linear-gradient-8);}.cls-13{fill:url(#linear-gradient-9);}.cls-14{fill:url(#linear-gradient-10);}.cls-15,.cls-29,.cls-62{opacity:0.3;}.cls-15{fill:url(#linear-gradient-11);}.cls-16{opacity:0.2;fill:url(#linear-gradient-12);}.cls-17{fill:url(#linear-gradient-13);}.cls-18{fill:url(#radial-gradient);}.cls-19{fill:#d9a3c1;}.cls-19,.cls-44,.cls-50,.cls-54{opacity:0.4;}.cls-20{fill:url(#linear-gradient-14);}.cls-21{fill:url(#linear-gradient-15);}.cls-22{fill:url(#linear-gradient-16);}.cls-23{fill:url(#linear-gradient-17);}.cls-24{fill:#ec1c25;}.cls-25{fill:#ec343b;}.cls-26{fill:url(#linear-gradient-18);}.cls-27{fill:url(#linear-gradient-19);}.cls-28{fill:#d6001d;}.cls-29{fill:url(#linear-gradient-20);}.cls-30,.cls-31,.cls-35{fill:#ff8c91;}.cls-31,.cls-41{opacity:0.7;}.cls-32{fill:url(#linear-gradient-21);}.cls-33{fill:url(#linear-gradient-22);}.cls-34{fill:#730010;}.cls-35,.cls-39{opacity:0.5;}.cls-36{fill:#2f353b;}.cls-37{fill:url(#linear-gradient-23);}.cls-38{fill:url(#linear-gradient-24);}.cls-39{fill:#434c54;}.cls-40,.cls-41{fill:#3b4854;}.cls-42{fill:#586570;}.cls-43{fill:url(#linear-gradient-25);}.cls-44{fill:#87a0bd;}.cls-45{fill:#2e3d54;}.cls-46{fill:#a9bfd9;}.cls-47{fill:#4b2c45;}.cls-48{fill:url(#linear-gradient-26);}.cls-49{mask:url(#mask-3);}.cls-50{fill:url(#linear-gradient-27);}.cls-51{fill:#c3d4e8;}.cls-52{fill:url(#linear-gradient-28);}.cls-53{mask:url(#mask-4);}.cls-54{fill:url(#linear-gradient-29);}.cls-55{fill:url(#linear-gradient-30);}.cls-56{fill:#ff554d;}.cls-57{fill:#ff8c78;}.cls-58{fill:#ffc2a8;}.cls-59{fill:#f85344;}.cls-60{fill:url(#linear-gradient-31);}.cls-61{fill:url(#linear-gradient-32);}.cls-62{fill:url(#linear-gradient-33);}.cls-63{fill:url(#linear-gradient-34);}.cls-64{fill:#132236;}.cls-65{fill:#88a1bd;}.cls-66{filter:url(#luminosity-noclip-2);}.cls-67{filter:url(#luminosity-noclip);}</style><filter id="luminosity-noclip" x="152.9" y="-7285.38" width="101.17" height="32766" filterUnits="userSpaceOnUse" color-interpolation-filters="sRGB"><feFlood flood-color="#fff" result="bg"/><feBlend in="SourceGraphic" in2="bg"/></filter><mask id="mask" x="152.9" y="-7285.38" width="101.17" height="32766" maskUnits="userSpaceOnUse"><g class="cls-67"/></mask><linearGradient id="linear-gradient" x1="282.46" y1="331.73" x2="345.61" y2="391.31" gradientTransform="translate(-115.69)" gradientUnits="userSpaceOnUse"><stop offset="0" stop-color="#fff"/><stop offset="1"/></linearGradient><filter id="luminosity-noclip-2" x="695.96" y="-7285.38" width="100.34" height="32766" filterUnits="userSpaceOnUse" color-interpolation-filters="sRGB"><feFlood flood-color="#fff" result="bg"/><feBlend in="SourceGraphic" in2="bg"/></filter><mask id="mask-2" x="695.96" y="-7285.38" width="100.34" height="32766" maskUnits="userSpaceOnUse"><g class="cls-66"/></mask><linearGradient id="linear-gradient-2" x1="824.12" y1="313.79" x2="888.63" y2="374.65" xlink:href="#linear-gradient"/><linearGradient id="linear-gradient-3" x1="228.25" y1="615.77" x2="361.5" y2="610.14" gradientTransform="translate(-138.76 -16.71) rotate(0.69)" gradientUnits="userSpaceOnUse"><stop offset="0.01" stop-color="#f9c668"/><stop offset="0.24" stop-color="#f7bf5f"/><stop offset="0.6" stop-color="#f2ac48"/><stop offset="1" stop-color="#eb9227"/></linearGradient><linearGradient id="linear-gradient-4" x1="285.44" y1="671.78" x2="467.92" y2="652.71" gradientTransform="translate(-138.76 -16.71) rotate(0.69)" gradientUnits="userSpaceOnUse"><stop offset="0.01" stop-color="#f9c668"/><stop offset="0.26" stop-color="#f7bd5d"/><stop offset="0.7" stop-color="#f0a53f"/><stop offset="1" stop-color="#eb9227"/></linearGradient><linearGradient id="linear-gradient-5" x1="401.49" y1="687.72" x2="571.08" y2="690.12" gradientTransform="translate(-138.76 -16.71) rotate(0.69)" gradientUnits="userSpaceOnUse"><stop offset="0.01" stop-color="#f9c668"/><stop offset="1" stop-color="#eb9227"/></linearGradient><linearGradient id="linear-gradient-6" x1="873.68" y1="593.56" x2="1027.17" y2="607.51" gradientTransform="translate(-113.24)" gradientUnits="userSpaceOnUse"><stop offset="0" stop-color="#f1a842"/><stop offset="1" stop-color="#e3881b"/></linearGradient><linearGradient id="linear-gradient-7" x1="791.09" y1="644.61" x2="948.93" y2="625.74" gradientTransform="translate(-138.76 -16.71) rotate(0.69)" xlink:href="#linear-gradient-6"/><linearGradient id="linear-gradient-8" x1="749.67" y1="689.04" x2="853.19" y2="685.8" gradientTransform="translate(-138.76 -16.71) rotate(0.69)" xlink:href="#linear-gradient-6"/><linearGradient id="linear-gradient-9" x1="575.47" y1="703.53" x2="740.55" y2="699.82" xlink:href="#linear-gradient-5"/><linearGradient id="linear-gradient-10" x1="478.52" y1="691.44" x2="658.13" y2="691.44" xlink:href="#linear-gradient-5"/><linearGradient id="linear-gradient-11" x1="-208.07" y1="614.7" x2="1146.08" y2="614.7" gradientTransform="translate(-44.14)" xlink:href="#linear-gradient-5"/><linearGradient id="linear-gradient-12" x1="-3.12" y1="673.03" x2="874.83" y2="673.03" gradientTransform="translate(-44.14)" xlink:href="#linear-gradient-5"/><linearGradient id="linear-gradient-13" x1="363.1" y1="694.57" x2="846.46" y2="34.11" gradientTransform="translate(-113.24)" gradientUnits="userSpaceOnUse"><stop offset="0" stop-color="#f9d695"/><stop offset="0.39" stop-color="#f9c566"/><stop offset="1" stop-color="#eb9227"/></linearGradient><radialGradient id="radial-gradient" cx="1389.92" cy="6399.84" r="4.08" gradientTransform="matrix(126.08, 3.62, 1.82, -63.41, -186503.27, 401134.72)" gradientUnits="userSpaceOnUse"><stop offset="0" stop-color="#fff2e3"/><stop offset="0.74" stop-color="#fff2e3"/><stop offset="0.86" stop-color="#fde7da"/><stop offset="1" stop-color="#fad6cb"/></radialGradient><linearGradient id="linear-gradient-14" x1="1956.69" y1="1767.46" x2="2006.15" y2="1830.16" gradientTransform="translate(1169.09 -2577.19) rotate(59.54)" gradientUnits="userSpaceOnUse"><stop offset="0" stop-color="#68b728"/><stop offset="0.38" stop-color="#5d991d"/><stop offset="0.76" stop-color="#558214"/><stop offset="1" stop-color="#527a11"/></linearGradient><linearGradient id="linear-gradient-15" x1="1968.34" y1="1751.51" x2="2020.06" y2="1817.08" xlink:href="#linear-gradient-14"/><linearGradient id="linear-gradient-16" x1="2000.83" y1="1803.48" x2="2059.84" y2="1873.42" xlink:href="#linear-gradient-14"/><linearGradient id="linear-gradient-17" x1="1974.47" y1="1834.03" x2="1990.99" y2="1853.61" xlink:href="#linear-gradient-14"/><linearGradient id="linear-gradient-18" x1="2094.45" y1="1940.74" x2="2126.14" y2="2015.05" gradientTransform="translate(1169.09 -2577.19) rotate(59.54)" gradientUnits="userSpaceOnUse"><stop offset="0" stop-color="#d6001d"/><stop offset="0.6" stop-color="#c0001a"/><stop offset="1" stop-color="#b80019"/></linearGradient><linearGradient id="linear-gradient-19" x1="690.7" y1="237.19" x2="730.54" y2="427.28" gradientTransform="translate(-113.24)" gradientUnits="userSpaceOnUse"><stop offset="0" stop-color="#b80019"/><stop offset="0.22" stop-color="#ab0017"/><stop offset="0.7" stop-color="#940014"/><stop offset="1" stop-color="#8c0013"/></linearGradient><linearGradient id="linear-gradient-20" x1="603.59" y1="224.26" x2="605.15" y2="225.92" xlink:href="#linear-gradient-19"/><linearGradient id="linear-gradient-21" x1="-1063.52" y1="88.59" x2="-936.41" y2="233.86" gradientTransform="translate(1212.8 -102.14) rotate(-12.11)" xlink:href="#linear-gradient-18"/><linearGradient id="linear-gradient-22" x1="-1031.38" y1="128.34" x2="-910.32" y2="291.77" gradientTransform="translate(1212.8 -102.14) rotate(-12.11)" xlink:href="#linear-gradient-19"/><linearGradient id="linear-gradient-23" x1="573.12" y1="356.31" x2="474.68" y2="207.12" gradientTransform="translate(-31.96 -41.37) rotate(-0.69)" gradientUnits="userSpaceOnUse"><stop offset="0" stop-color="#8ec726"/><stop offset="0.23" stop-color="#88c022"/><stop offset="0.55" stop-color="#79ad16"/><stop offset="0.93" stop-color="#608d04"/><stop offset="1" stop-color="#5b8700"/></linearGradient><linearGradient id="linear-gradient-24" x1="2265.74" y1="522.51" x2="2294.41" y2="611.23" gradientTransform="translate(-517.32 -1911.89) rotate(50.39)" gradientUnits="userSpaceOnUse"><stop offset="0" stop-color="#8ec726"/><stop offset="0.13" stop-color="#88c022"/><stop offset="0.32" stop-color="#79ad16"/><stop offset="0.55" stop-color="#608d04"/><stop offset="0.59" stop-color="#5b8700"/><stop offset="0.95" stop-color="#547c00"/><stop offset="1" stop-color="#537a00"/></linearGradient><linearGradient id="linear-gradient-25" x1="806.43" y1="178.79" x2="839.22" y2="330.68" gradientTransform="translate(-113.24)" gradientUnits="userSpaceOnUse"><stop offset="0" stop-color="#616b8e"/><stop offset="0.65" stop-color="#404d68"/><stop offset="1" stop-color="#2e3d54"/></linearGradient><linearGradient id="linear-gradient-26" x1="304.88" y1="342.78" x2="389.46" y2="475.95" gradientTransform="translate(-113.24)" gradientUnits="userSpaceOnUse"><stop offset="0" stop-color="#8e4760"/><stop offset="1" stop-color="#38152b"/></linearGradient><filter id="luminosity-noclip-3" x="152.9" y="317.33" width="101.17" height="97.17" filterUnits="userSpaceOnUse" color-interpolation-filters="sRGB"><feFlood flood-color="#fff" result="bg"/><feBlend in="SourceGraphic" in2="bg"/></filter><mask id="mask-3" x="152.9" y="317.33" width="101.17" height="97.17" maskUnits="userSpaceOnUse"><g class="cls-1"><path class="cls-2" d="M182.45,328c-25.75,16.91-38.58,57-22.35,75.7,15.33,17.68,53.42,12.69,74.13-7.36,17.55-17,27.91-49.91,11.9-67.93C231.13,311.47,200.45,316.13,182.45,328Z"/></g></mask><linearGradient id="linear-gradient-27" x1="282.46" y1="331.73" x2="345.61" y2="391.31" gradientTransform="translate(-115.69)" gradientUnits="userSpaceOnUse"><stop offset="0" stop-color="#adc3de"/><stop offset="1" stop-color="#a9bfd9"/></linearGradient><linearGradient id="linear-gradient-28" x1="830.94" y1="289.98" x2="926.81" y2="457.16" gradientTransform="translate(-115.69)" gradientUnits="userSpaceOnUse"><stop offset="0" stop-color="#8e4760"/><stop offset="0.63" stop-color="#473853"/><stop offset="0.74" stop-color="#3d334c"/><stop offset="0.94" stop-color="#222739"/><stop offset="1" stop-color="#192333"/></linearGradient><filter id="luminosity-noclip-4" x="695.96" y="300.01" width="100.34" height="97.13" filterUnits="userSpaceOnUse" color-interpolation-filters="sRGB"><feFlood flood-color="#fff" result="bg"/><feBlend in="SourceGraphic" in2="bg"/></filter><mask id="mask-4" x="695.96" y="300.01" width="100.34" height="97.13" maskUnits="userSpaceOnUse"><g class="cls-3"><path class="cls-4" d="M788.52,311.35c-15.43-17.37-47-12.58-65.48-.42-23.21,15.24-37.19,56.76-18.19,77.57,12.63,13.83,51.86,12.19,76.37-13.23C797.46,358.43,801.66,326.15,788.52,311.35Z"/></g></mask><linearGradient id="linear-gradient-29" x1="824.12" y1="313.79" x2="888.63" y2="374.65" xlink:href="#linear-gradient-27"/><linearGradient id="linear-gradient-30" x1="-313.27" y1="714.99" x2="-77.45" y2="714.99" gradientTransform="matrix(0.99, -0.15, 0.15, 0.99, 459.17, -300.7)" gradientUnits="userSpaceOnUse"><stop offset="0" stop-color="#e1171b"/><stop offset="1" stop-color="#b82423"/></linearGradient><linearGradient id="linear-gradient-31" x1="-233.25" y1="672.28" x2="-313.02" y2="584.05" gradientTransform="matrix(0.99, -0.15, 0.15, 0.99, 459.17, -300.7)" gradientUnits="userSpaceOnUse"><stop offset="0" stop-color="#598f02"/><stop offset="1" stop-color="#74ba03"/></linearGradient><linearGradient id="linear-gradient-32" x1="756.2" y1="413.32" x2="817.67" y2="537.06" gradientTransform="translate(-115.69)" gradientUnits="userSpaceOnUse"><stop offset="0" stop-color="#616b8e"/><stop offset="1" stop-color="#2e3d54"/></linearGradient><linearGradient id="linear-gradient-33" x1="-310.71" y1="90.54" x2="-226.89" y2="168.81" gradientTransform="translate(861.02 221.96) rotate(-19.94)" gradientUnits="userSpaceOnUse"><stop offset="0" stop-color="#9dbadb"/><stop offset="1" stop-color="#2e3d54"/></linearGradient><linearGradient id="linear-gradient-34" x1="-138.97" y1="169.49" x2="-248.39" y2="142.35" gradientTransform="translate(861.02 221.96) rotate(-19.94)" gradientUnits="userSpaceOnUse"><stop offset="0.16" stop-color="#506082"/><stop offset="0.35" stop-color="#404d68"/><stop offset="1" stop-color="#2e3d54"/></linearGradient></defs><title>Asset 17</title><g class="cls-5"><g id="Layer_2" data-name="Layer 2"><g id="Layer_4" data-name="Layer 4"><polygon class="cls-6" points="951.91 365.76 880.61 575 841.78 416.63 951.91 365.76"/><polygon class="cls-6" points="2.95 372.02 60.36 502.22 105.04 393.78 2.95 372.02"/><path class="cls-7" d="M31.1,474.05s53.73,122.64,86.55,218c0,0,26.77,60.9,80.62,31.55L175.08,466.49Z"/><path class="cls-8" d="M136.42,533.86s43.06,116.33,59.11,190.89c0,0,27.27,74.29,99.86,36.69l27.39-209.66Z"/><path class="cls-9" d="M263.72,579.77s22,120.23,31.67,181.67c0,0,26,47.36,90.1,15.1L413.71,584.2S292.79,550.11,263.72,579.77Z"/><path class="cls-10" d="M783.2,731.71s44.69,21.86,64-24.69L932.82,470l-118.26-4.69Z"/><path class="cls-11" d="M690.14,755.14s58.09,39.61,93.06-23.43l50.58-198.05L688.57,493.13Z"/><path class="cls-12" d="M592.32,774.85s49.79,44.72,97.82-19.71L721,571.06l-124.33,1.16S582,745.32,592.32,774.85Z"/><path class="cls-13" d="M487.34,777.9s43.35,49.94,105-3l14.33-182.92-139.77-5.25Z"/><path class="cls-14" d="M370,594.26s9.42,118.51,15.53,182.28c0,0,33.64,44.45,101.85,1.36l-1.73-177S425.65,528.16,370,594.26Z"/><path class="cls-15" d="M814.56,465.26l-7.18,61-10.49-2.92c-10.69,81.18-28.63,161.15-48,240.77C760.93,759.66,773,750,783.2,731.71c0,0,44.69,21.86,64-24.69L932.82,470Z"/><path class="cls-16" d="M691.51,563.85c-10,70-21.37,148.24-30.52,218.37,9.5-5.36,19.36-14,29.15-27.08L721,571.06Z"/><path class="cls-17" d="M304.58,158.7s-66.5-53.66-85.65,24.13c0,0-53-22.75-79.33.33s-12.28,48-12.28,48-58.43-7.22-74.38,21.2,7.16,53.4,7.16,53.4-62.23,15.45-60,55.5c2,36.41,54.82,52.36,54.82,52.36s-38.23,38.15-21.34,64.16c21.43,33,98.25,27.79,98.25,27.79s2,52,40.73,72,87.27-11.95,87.27-11.95,4.6,49.47,44.84,55.16S370,594.26,370,594.26s9.88,43,54.05,46.16,61.6-39.56,61.6-39.56S509.74,648,552.73,642s53.92-50.06,53.92-50.06,26.84,38,73.87,20.4S720.25,553,720.25,553s37.3,33,83.06,12.72,30.76-69.85,30.76-69.85,73.76,20.52,94.86-18c17.75-32.46-22.28-69.5-22.28-69.5s44.74-20.51,47-50.07c2.9-38.79-50.31-52.78-50.31-52.78s27.29-41.51,8.12-69.05-75-16.68-75-16.68-4.39-44.07-39.33-57.5S726.54,176,726.54,176s-20-41.69-49.22-43c-35.16-1.64-65.79,23.46-65.79,23.46s-4.45-32.81-48-39.4c-30.36-4.6-62.14,22.29-62.14,22.29s-17.87-26.9-53.1-22.48a62.89,62.89,0,0,0-48.94,34.59s-22.67-31.82-59.13-26.2C319,128.43,304.58,158.7,304.58,158.7Z"/><path class="cls-18" d="M489,141.24C290.89,139.91,43.68,227.65,46.36,354.79,49.65,511.23,263,581.34,480.19,587c204.44,5.34,412.35-99.68,417.89-216.17C903.91,248.15,725.55,142.84,489,141.24Z"/><path class="cls-19" d="M817.66,325.5c9.52-8.42,15.15-18.7,15.15-29.83,0-28.38-36.52-51.39-81.55-51.39a118.54,118.54,0,0,0-43.2,7.81c-19-23.18-57.3-39-101.52-39-63.07,0-114.19,32.22-114.19,72a46.33,46.33,0,0,0,.68,7.83,176,176,0,0,0-35.93-3.66c-63.07,0-114.19,32.22-114.19,72,0,16.2,8.49,31.15,22.82,43.17a112.94,112.94,0,0,0-18.23,10.39c-2.74-27.71-39.25-49.65-83.9-49.65-46.43,0-84.08,23.72-84.08,53s37.65,53,84.08,53c21,0,40.23-4.88,55-12.92-.15,1.51-.23,3-.23,4.55,0,39.75,51.12,72,114.19,72s114.19-32.22,114.19-72c0-16.19-8.5-31.14-22.83-43.17,28.69-13.07,47.38-34.33,47.38-58.35a46.3,46.3,0,0,0-.68-7.82A176.13,176.13,0,0,0,606.54,357c34.72,0,65.81-9.78,86.75-25.2a97.51,97.51,0,0,0,32.63,12.74c-8.73,8-13.84,17.76-13.84,28.24,0,8,3,15.61,8.34,22.33a130.5,130.5,0,0,0-25.62-2.51c-46.44,0-84.08,23.72-84.08,53s37.64,53,84.08,53,84.08-23.72,84.08-53c0-8.95-3.54-17.38-9.76-24.78a123.55,123.55,0,0,0,22.39,2c43.86,0,79.43-22.41,79.43-50.06C870.94,350.9,848.67,332.31,817.66,325.5Z"/><path class="cls-20" d="M650.74,2.43C646.2,1.64,641.66.84,637.13,0c-6,24.88-20.79,71.22-52.69,99.07,0,0-9.17,5.08,15.46,16.33C599.9,115.4,639.57,71.75,650.74,2.43Z"/><path class="cls-21" d="M602.16,83.9s33.28-7.27,56.3-36c0,0,.14,48.74-24.42,62.05C600.14,128.31,602.16,83.9,602.16,83.9Z"/><path class="cls-22" d="M565.37,86.87s-43.31-33.77-26.87-73c0,0,18.47,31.38,29.78,40.47,0,0-6.88-31.5,39.64-45.57,0,0-10,23.44,2.92,43.63C625.12,74.74,608,84.49,608,84.49s36.63,22,72.35-39.33c0,0,13.74,36.29-10.61,55.81,0,0,25.57,1.21,43.14,27.56,0,0-55.54-1.38-72.79,22.76C617.29,183.17,565.37,86.87,565.37,86.87Z"/><path class="cls-23" d="M607,74.65s-7.36-9.3-18.07-6.49c0,0-20.07-11.69-17.65-32.6-4.81,10.21-3,18.8-3,18.8S588.7,68.3,585.36,80.41Z"/><path class="cls-24" d="M536.88,296.21h-.06l.19.13Z"/><path class="cls-25" d="M627.42,292.78a28,28,0,0,0,23.79-9.16,32.93,32.93,0,0,0,7.6-26.36c10.55-2.33,20.18-9.08,25.12-18.83a35.43,35.43,0,0,0,.52-30.92c8-5.34,13.64-13.45,12.82-24.29-.7-9.29-5.64-15.37-12.36-19.06,4.24-8.16,5.13-17.34-.92-26.86-5.76-9.07-14.52-13-23.84-13.42,3.21-7.58,3.6-15.87-1.9-23.59a22.65,22.65,0,0,0-20.41-9.36,29,29,0,0,0-12.67,4.23c-2-10.36-9.09-19.48-20.5-22.52a27.4,27.4,0,0,0-23.76,4.68c-5-7.49-12.82-12.74-22.78-12.48a21.83,21.83,0,0,0-18,10.37c-9.47-7-21.93-9.83-32.27-3.39-9.62,6-11.13,15.3-9,24.76-9-1.39-18.38.28-24.61,6.9-7.67,8.16-5.09,18.28.63,26.94-9.09,2.66-17.16,8-19.38,17.11-1.34,5.56.17,10.76,3.18,15.48a27.71,27.71,0,0,0-13.28,20.86,30.27,30.27,0,0,0,6.89,23c-6.8,7.25-10.31,16.68-6.54,28a30.9,30.9,0,0,0,15.31,18,30,30,0,0,0-1.19,2.85,25.61,25.61,0,0,0,5.23,25.83c7.58,8.39,17.13,10.37,26.83,9.18a27.4,27.4,0,0,0,17.29,21.66,28.45,28.45,0,0,0,21.16.13c4.51,9.12,12.76,16,24.56,17,16.09,1.35,25.81-9.09,30-22.17.21.35.38.72.59,1.07,5.07,8,12,17.51,22.55,17.42C624.74,325.62,628.07,308.06,627.42,292.78Z"/><path class="cls-26" d="M697.27,183.22c-.7-9.29-5.64-15.37-12.36-19.06,4.24-8.16,5.13-17.34-.92-26.86-5.76-9.07-14.52-13-23.84-13.42,3.21-7.58,3.59-15.87-1.9-23.59a22.65,22.65,0,0,0-20.41-9.36,29,29,0,0,0-12.67,4.23c0-.21-.11-.4-.15-.61-.07.34-.12.69-.21,1a23.36,23.36,0,0,1-10.45,13.85l-.63.37a23.52,23.52,0,0,1-17.18,2.41c-.38-.09-.72-.28-1.09-.39-.07,13-13,23.07-25.35,22.38a15.81,15.81,0,0,1,2.67,1.25,12.35,12.35,0,0,1,4.66,16.48c-3.37,6.69-13.63,8.86-19.83,4.46a18.58,18.58,0,0,1-5.06-6.42A21.71,21.71,0,0,1,544,152.6c-1.93,15.16-24.91,24.39-34.8,7.57a20.47,20.47,0,0,1-.86-1.86c-9.53,17-37.14,24.17-50.05,2.22a31,31,0,0,1-3-6.94,22.27,22.27,0,0,0,3.45,9.42,27.71,27.71,0,0,0-13.28,20.86,30.27,30.27,0,0,0,6.89,23c-6.8,7.25-10.31,16.68-6.54,28a30.9,30.9,0,0,0,15.31,18,30,30,0,0,0-1.19,2.85,25.61,25.61,0,0,0,5.23,25.83c7.58,8.39,17.13,10.37,26.83,9.18a27.4,27.4,0,0,0,17.29,21.66,28.45,28.45,0,0,0,21.16.13c4.51,9.12,12.76,16,24.56,17,16.09,1.35,25.81-9.09,30-22.17.21.35.38.72.59,1.07,5.07,8,12,17.51,22.55,17.42,16.58-.15,19.91-17.71,19.26-33a28,28,0,0,0,23.79-9.16,32.93,32.93,0,0,0,7.6-26.36c10.55-2.33,20.18-9.08,25.12-18.83a35.43,35.43,0,0,0,.52-30.92C692.47,202.17,698.09,194.06,697.27,183.22Zm-180.8,21.66a13.24,13.24,0,0,1-2.37-.3c-9.4-2.1-12.41-13.8-6-20.46,2-2,5.72-4,8.66-3.68,6.32.65,12.78,3.58,14.25,10.45C532.84,199.17,524.15,205.15,516.47,204.88Zm50.69,17.5a12.29,12.29,0,0,1-5.58,7.4,12.93,12.93,0,0,1-9.18,1.29l1.14.19a38.43,38.43,0,0,1-3.86-.5C543,229.59,539.71,222,541,216a12.31,12.31,0,0,1,5.58-7.4,12.87,12.87,0,0,1,9.18-1.28l-1.13-.2c1.29.1,2.57.28,3.85.5C565.14,208.79,568.45,216.39,567.16,222.38Zm3.87-35c-2.81,5.58-11.15,8.1-16.48,4.65a53.68,53.68,0,0,0-4.86-2.85c-6.05-3.05-7.5-10.84-4.65-16.49,3-6,10.83-7.5,16.48-4.65a52.18,52.18,0,0,1,4.85,2.85C572.08,174.61,574.13,181.25,571,187.41Zm30.29,38.09c-2.5,4.95-10.24,7.53-15,4.23a24.77,24.77,0,0,1-7-6.77c-3.51-5.07-.8-12,3.91-15.07s10.64-1.2,14.11,2.75c-.23-.3-.12-.23.4.31.79.67.69.62-.19-.06l0,0C602.28,214.48,604.1,220,601.32,225.5ZM609.61,191c-2.62,5.2-10,7.18-15,4.23-.91-.55-1.88-1-2.8-1.52a11.25,11.25,0,0,1-4.23-15c2.63-5.21,10-7.19,15-4.23.91.54,1.88,1,2.8,1.52A11.25,11.25,0,0,1,609.61,191Zm37-13.55c-2.62,5.21-10,7.19-15,4.23-.91-.54-1.88-1-2.79-1.52a11.24,11.24,0,0,1-4.24-15c2.63-5.21,10-7.18,15-4.23.91.55,1.88,1,2.8,1.52A11.25,11.25,0,0,1,646.65,177.42ZM649.26,123a12.38,12.38,0,0,1-7.43,5.78,13,13,0,0,1-9.06-1.13l-.45-.21c-1.54-.6-3.09-1.2-4.59-1.9-6.16-2.82-7.42-11-4.66-16.48a12.38,12.38,0,0,1,7.43-5.78,13,13,0,0,1,9.06,1.12l.45.22c1.54.6,3.09,1.2,4.59,1.89C650.76,109.34,652,117.52,649.26,123Z"/><path class="cls-27" d="M697.27,183.22c-.7-9.29-5.64-15.37-12.36-19.06,4.24-8.16,5.13-17.34-.92-26.86-5.61-8.83-14-12.73-23.1-13.35a27.29,27.29,0,0,1-1.15,6.13c-1.39,8-7.48,14.62-15,17.8,5.65,1.56,10.24,5.67,13.36,10.48s3.94,12.23,2.49,17.81a24.24,24.24,0,0,1-10.82,14.35l-.94.55a24.39,24.39,0,0,1-17.81,2.49,20.51,20.51,0,0,1-9.41-5.12c4,8.74.4,23.43-16.6,22.13,5.34,12.73-1,30.84-19,30.84-8.21,0-14-3.77-17.32-9.08a20.26,20.26,0,0,1-13.64,4.78c-11.79,0-18.54-7.77-20.31-16.71a16,16,0,0,1-2.3,2.67,22.21,22.21,0,0,1-15.22,6.3h-.86c-.54,0-1.06,0-1.58-.08a13.23,13.23,0,0,1,1.25,5.05c.29,6.32-5.74,12.42-12.08,12.14-.74,0-1.48,0-2.22,0a12.74,12.74,0,0,1-10.68-2.79c.19,1.47.33,3,.54,4.42.9,6.48,2,13,3.18,19.49-5.6-1.08-10.9-4.47-14.67-10.87-4.89-8.33-4.09-16.4-.25-22.71-9.06,2.58-19.33.19-25.51-10.32a22,22,0,0,1-3-15.74c-6.15,7.09-9.2,16.13-5.61,26.87a30.9,30.9,0,0,0,15.31,18,30,30,0,0,0-1.19,2.85,25.61,25.61,0,0,0,5.23,25.83c7.58,8.39,17.12,10.37,26.83,9.18a27.24,27.24,0,0,0,13.19,19.61c.5.29,1,.57,1.52.84a24.36,24.36,0,0,0,2.58,1.21,28.77,28.77,0,0,0,13.62,2,28.29,28.29,0,0,0,7.54-1.83c2.32,4.68,5.93,8.17,9.41,11.92a23.1,23.1,0,0,0,13.76,7.05A27.34,27.34,0,0,0,573.34,326a35,35,0,0,0,11.81-17c-.59,1.77,8.44,19.49,26.39,16.91,8.61-1.24,18.78-7.38,17.56-31,0,.52,11.34-3.39,12.25-3.66,4-1.18,7.12-4.44,9.86-7.6a32.93,32.93,0,0,0,7.6-26.36c10.55-2.33,20.18-9.09,25.12-18.83a35.43,35.43,0,0,0,.52-30.92C692.47,202.17,698.09,194.06,697.27,183.22ZM568,273.35c-11.38,1.74-14.07-15.92-2.71-17.66S579.35,271.6,568,273.35Zm96.61-133.9c3.73-3.45,10.29-2.16,13.39,1.5,4.48,5.29,1.5,17.7-6.67,16.94-2.63-.24-5.2-3.24-6.78-6.83C662.66,146.8,662.17,141.71,664.6,139.45Zm-34.11,76.49c11.38-1.74,14.07,15.92,2.71,17.66S619.13,217.68,630.49,215.94Zm-39.82,77.23a8.65,8.65,0,0,1-5.62-2.17,7.86,7.86,0,0,1-2.85-5.23,9.53,9.53,0,0,1,0-2c.63-6.77,7.88-14.32,15-14.51a9.44,9.44,0,0,1,4.18.83C611.5,274.7,601,293.26,590.67,293.17ZM618.33,306a13.11,13.11,0,0,1-.93,1.83,14.45,14.45,0,0,1-2.62,3.21,11.58,11.58,0,0,1-5.32,2.85,9.66,9.66,0,0,1-2,.21,9.31,9.31,0,0,1-2.07-.26,10.07,10.07,0,0,1-2.09-.78,9.24,9.24,0,0,1-1.85-1.21c-4.27-3.59-3.32-10,.13-14.29A13.5,13.5,0,0,1,603,296a10.62,10.62,0,0,1,7.34-3.05,9.81,9.81,0,0,1,4.26,1.08,9,9,0,0,1,2.58,2,7.82,7.82,0,0,1,2,4.19,9.27,9.27,0,0,1,.07,1.9A11.85,11.85,0,0,1,618.33,306Zm25.89-35.16a11.83,11.83,0,0,1-4.29,6.83,10.67,10.67,0,0,1-.91.57l-.46.27c-.31.15-.63.3-.95.43l-.48.16a11.93,11.93,0,0,1-3.43.6l-.61,0c-.33,0-.67,0-1-.05l-.73-.08c-.32,0-.63-.08-1-.14s-.88-.19-1.32-.31-.63-.19-1-.29-.67-.22-1-.35l-.73-.31c-.35-.15-.69-.32-1-.49l-.61-.32c-.53-.29-1-.6-1.55-.93l-.25-.19c-.43-.3-.85-.61-1.25-1l-.45-.38c-.34-.3-.66-.6-1-.92l-.39-.4a15.73,15.73,0,0,1-1.19-1.4,16.46,16.46,0,0,1-1.76-2.94,15.6,15.6,0,0,1-.65-1.59,13.71,13.71,0,0,1-.38-8.35h0a16.91,16.91,0,0,1,.6-1.66l.24-.48a8.22,8.22,0,0,1,.52-1c.1-.17.21-.33.31-.49s.39-.53.59-.78.23-.28.35-.4a7.77,7.77,0,0,1,.72-.69l.32-.29a8.54,8.54,0,0,1,1.15-.77h0a8,8,0,0,1,1.22-.57l.38-.13c.31-.1.63-.2.95-.28l.44-.09c.33-.06.66-.11,1-.14l.4,0c.4,0,.8,0,1.21,0h.22a15.8,15.8,0,0,1,3.08.45l.17,0c.45.12.91.25,1.37.41l.23.08c.46.16.91.33,1.36.53l.16.07a22.25,22.25,0,0,1,4.43,2.6C642.3,259.36,645.7,265.07,644.22,270.8Zm33.2-47c-5.48,6.29-15.39,3.7-22-2.09-5.17-4.52-8.33-11-5.81-16.75,3.41-7.77,15.27-6.12,21-2.28C676.5,206.7,683.18,217.25,677.42,223.85Zm-5-29.53c-4.22-2.83-5.07-7.31-3.91-11.47,2-7.25,10.18-13.52,17.25-8.26a12.34,12.34,0,0,1,4.6,11C689.48,194.27,680.09,199.45,672.42,194.32Z"/><path class="cls-28" d="M554.62,207.12c-.81-.07-2.08-.35,0,0Z"/><path class="cls-28" d="M553.54,231.26c.81.07,2.09.35,0,0Z"/><path class="cls-29" d="M492.89,223.87c-.6.06-1.92.11-3.7.12.08,1.14.2,2.27.29,3.41a11.43,11.43,0,0,1,4.23-3.63Z"/><path class="cls-30" d="M579.91,117.38s0-.09.05-.13a10,10,0,0,0,1.52-8.76c-1.72-5.39-7.31-9.29-13.05-7.78a12.17,12.17,0,0,0-4,1.32c-4.6,2.2-8,7.61-6.19,12.77s5.78,8.65,11.28,8.63A12,12,0,0,0,579.91,117.38Z"/><path class="cls-30" d="M534.41,98.93c2.46-3.63,1.61-7.87-.07-11.55-1.45-3.19-6-5.68-9.45-5.39-.44,0-.87.1-1.3.16a9.76,9.76,0,0,0-3,.29,11.17,11.17,0,0,0-6.7,5.22c-2.4,4.78-1.45,12.54,4.2,14.88l1.43.59c2.61,1.08,5.32,1.92,8.18,1A12.34,12.34,0,0,0,534.41,98.93Z"/><path class="cls-30" d="M547.52,125.17c1.23-5.74-1.9-11.85-7.83-13.32l-3-.74c-5.55-1.38-12.08,2-13.32,7.83s1.91,11.85,7.83,13.32l3,.75C539.76,134.39,546.28,131,547.52,125.17Z"/><path class="cls-30" d="M569.5,78.07a8.72,8.72,0,0,0-10.87-5.39l-.81.27c-4.26,1.43-7.08,6.55-5.4,10.88a8.73,8.73,0,0,0,10.88,5.39l.81-.27C568.37,87.51,571.18,82.4,569.5,78.07Z"/><path class="cls-31" d="M615.07,132.14a10.67,10.67,0,0,0-13.29-6.59l-1,.34c-5.2,1.75-8.65,8-6.6,13.29a10.67,10.67,0,0,0,13.3,6.59l1-.33C613.68,143.69,617.12,137.43,615.07,132.14Z"/><path class="cls-31" d="M488.75,146.93a10.68,10.68,0,0,0-13.29-6.59l-1,.33c-5.2,1.76-8.64,8-6.59,13.3a10.68,10.68,0,0,0,13.29,6.59l1-.33C487.36,158.47,490.8,152.22,488.75,146.93Z"/><path class="cls-30" d="M505.51,120.15a8.74,8.74,0,0,0-10.88-5.39l-.81.27c-4.26,1.43-7.07,6.55-5.4,10.88a8.74,8.74,0,0,0,10.88,5.39l.81-.27C504.37,129.59,507.18,124.48,505.51,120.15Z"/><g id="_Group_" data-name="&lt;Group&gt;"><path id="_Compound_Path_" data-name="&lt;Compound Path&gt;" class="cls-25" d="M246.08,365.17c-7.55-.66-14.11-4.87-19.41-10.75-5.72,5.84-13.78,8.8-22.82,6.08-7-2.08-12.51-8.13-15.14-14.89-.08-.2-.11-.4-.17-.59l-.69-.22c-5.53,4-11.91,6.18-18.12,4.37-3.8-1.1-17.32-10.65-14.87-24.82-27.11,10.57-39.92-14.09-38.4-25.15-24.36-2.77-33.62-32-23.16-47.62-10-11-12.67-18.89-11.76-27.44,2.19-20.6,17.36-25.16,29.36-25.35.15-.21-9.92-23.19,3.35-40,8.19-10.38,29.23-14.94,39.07-7.66,1-10.63,9.51-22.18,18.43-26.61,11.5-5.68,24.5-4.75,32.25,3.55,1.7-13.25,15.06-23.58,28.13-23.5,11.38.06,23.95,7.73,29.83,18.5,8.35-5.91,21.22-6.16,30.3-2,12.13,5.53,21.12,21.24,17.47,34.51.64.75,19.77-2.82,27.83,17.36,5.38,13.48,3.11,27.66-5.5,36,3.92-.13,20.1,10.53,20.13,33.4,0,14.45-6.35,23.57-17.24,28.87,8.51,8.6,12.22,20.41,6,31.54-5.89,10.48-18.18,16-29.65,14.57,1.23,14.85.22,24.34-13.9,30a42.81,42.81,0,0,1-23.35,2C270.09,359.65,259.52,366.33,246.08,365.17Z"/><path class="cls-32" d="M332.06,208.94c8.61-8.32,10.88-22.5,5.5-36-8.06-20.18-27.19-16.61-27.83-17.36,3.65-13.27-5.34-29-17.47-34.51-9.08-4.14-21.95-3.89-30.3,2-5.88-10.77-18.45-18.44-29.83-18.5-13.07-.08-26.43,10.25-28.13,23.5-7.75-8.3-20.75-9.23-32.25-3.55a32.4,32.4,0,0,0-9.73,7.87c15.31-6.38,37.62,23.66,4.12,47.87,6.12,3.23,13.59,11.85,13.79,19.29.17,6.25-9.36,14.77-15.78,13.48a18.6,18.6,0,0,1,14.43,18.64c-.47,8.56-8.44,12.78-17.51,12.84,3,4.29,7,16.65.55,23.7-7,7.72-21.59,6.9-29.52-.09-1.35-1.19-9-7.49-9-9.24.05,12.9-3.88,28.3-6.67,40.28-1.18,14.17,13.25,34.95,38.4,25.15-2.45,14.17,11.07,23.72,14.87,24.82,6.21,1.81,12.59-.34,18.12-4.37l.69.22c.06.19.09.39.17.59,2.63,6.76,8.17,12.81,15.14,14.89,9,2.72,17.1-.24,22.82-6.08,5.3,5.88,11.86,10.09,19.41,10.75,13.44,1.16,24-5.52,27.94-15.87a42.81,42.81,0,0,0,23.35-2c14.12-5.66,15.13-15.15,13.9-30,11.47,1.46,23.76-4.09,29.65-14.57,6.25-11.13,2.54-22.94-6-31.54,10.89-5.3,17.26-14.42,17.24-28.88C352.16,219.47,336,208.81,332.06,208.94ZM205,271.44c-10.77,15.43-33.64-11.09-11.57-18.3.24-.08.45-.19.7-.25,5.16-1.35,11.88,2.6,12.53,8.1C207,264.48,207.08,268.41,205,271.44Zm1-41.4a12.74,12.74,0,0,1-8.2,7.27c-5.47,1.44-11.43-2.69-12.53-8.1-.73-3.61-1.09-7.7.17-11.26,1.81-5.07,5.69-8.21,10.78-9.61C206.86,205.39,210.49,220.38,205.92,230Zm-16.17-38.82c-5.17-3.47-5.84-11.06-1.8-17,5.26-7.78,18.83-4,21.23,4.32,2.52,8.67-5.44,14.9-13.29,14.57A11.8,11.8,0,0,1,189.75,191.22Zm26.07-39c-1.06,3-3.72,5.42-8.5,6.24-14.15,2.41-18.32-16-5.13-20.74C211.32,134.47,218.44,144.91,215.82,152.22Zm35.12-16c-3,8.32-13.12,10-19.89,5.28a12,12,0,0,1,.23-19.86C241,114.83,255.05,124.76,250.94,136.22Z"/><path class="cls-33" d="M332.06,208.94c8.61-8.32,10.88-22.5,5.5-36-8.06-20.18-27.19-16.61-27.83-17.36-1-1.22-.13-13.89-1.35-17a32.56,32.56,0,0,0-10.45-14c-11.28-8.45-25-4.82-25.52,11.13a19.07,19.07,0,0,0,8,16c-5.41-3.15-11-6.37-17.24-7.08S250,146.32,247.26,152c-1.94,4.11-1.23,9.07.77,13.14s5.18,7.44,8.3,10.74c-11.35-7.44-30.14,1.12-34.25,13.44-4.35,13,6.47,28.7,20.18,29.26-11.9,3-20.56,15.6-19.15,27.81s12.72,22.46,25,22.69c-7.35-1.21-17.12,11.52-13.17,24.55,5.43,17.91-25.51,20-30.42.11-7,15.47-22.49,22.8-33,4.47-1.91,5.79-20.51,21.73-28.75-3-11,3.61-17.34,13.41-26.27,4-1.52,11.05,11.29,35.71,38.4,25.14-2.45,14.17,11.07,23.72,14.87,24.82,6.21,1.81,12.59-.34,18.12-4.37l.69.22c.06.19.09.39.17.59,2.63,6.76,8.17,12.81,15.14,14.89,9,2.72,17.1-.24,22.82-6.08,5.3,5.88,11.86,10.09,19.41,10.75,13.44,1.16,24-5.52,27.94-15.87a42.81,42.81,0,0,0,23.35-2c14.12-5.66,15.13-15.15,13.9-30,11.47,1.46,23.76-4.09,29.65-14.57,6.25-11.13,2.54-22.94-6-31.54,10.89-5.3,17.26-14.42,17.24-28.88C352.16,219.47,336,208.81,332.06,208.94ZM214,349.08a7.82,7.82,0,0,1-6.8.39,8.78,8.78,0,0,1-7.14-6.6c-1.15-4.4,2.17-9.3,6.56-10.14s8.72.64,11,4.83S217.9,346.8,214,349.08Zm37.38,2.78a7.65,7.65,0,0,1-1,.5c-6.6,2.73-15.23-3.51-13.1-11.05,1.34-4.77,6.42-6.37,10.78-5.45-3-.64,2.43.4,2,.3C258,338,257.16,348.42,251.34,351.86Zm-9.26-97.56a13.65,13.65,0,0,1-2.76-4.23,9.25,9.25,0,0,1-2.19-2.59A8.62,8.62,0,0,1,240.76,236a16.79,16.79,0,0,1,4-1.33,11.47,11.47,0,0,1,3.29-.33l.32,0A13.63,13.63,0,0,1,256,237a16.78,16.78,0,0,1,6.59,14.34c-.13,4.36-4.53,8.63-9,8C249.21,258.78,245.21,257.47,242.08,254.3Zm22.65,50a10.51,10.51,0,0,1-10.41,2.23c-8.9-3.4-10.51-19.67-.14-22.39C264.73,281.34,273.29,296.42,264.73,304.26ZM324.9,183.19c-.06,9-5.64,19-16.58,15.09-15.31-5.52-6.21-24.17,6-27.16C321.43,169.35,324.94,176,324.9,183.19Z"/><path id="_Path_" data-name="&lt;Path&gt;" class="cls-34" d="M286.56,182.69s-1.9,29,21.42,35.07c0,0-20.6,24.2,2.06,50.47,0,0-14.91,10.08-13.56,31.17,0,0-9.72-20.23-31.42-21.72,0,0,26.27-30.49-7.91-50.29,0,0,15.09-14.5,5.93-33.23C263.08,194.16,280.21,200.9,286.56,182.69Z"/></g><path class="cls-31" d="M168,165.54c0-.25.09-.51.12-.77,1.12-8.47-11.68-11.21-16.33-5.54-2.66,3.24-3.3,8.81-.2,11.92C157.13,176.73,166.44,173,168,165.54Z"/><path class="cls-30" d="M110.85,219.71c-2.35-3.07-6.12-3.53-9.67-3.15-3.07.34-6.4,3.43-7.12,6.4-.09.38-.16.76-.23,1.14a8.33,8.33,0,0,0-.58,2.58,9.8,9.8,0,0,0,2.5,7c3.32,3.33,10.08,4.69,13.59.61.3-.34.6-.68.89-1,1.63-1.88,3.09-3.91,3.12-6.54A10.9,10.9,0,0,0,110.85,219.71Z"/><path class="cls-31" d="M149.34,188.54c-11.51-6.77-21.15,10.31-10,16.89S160.35,195,149.34,188.54Z"/><path class="cls-31" d="M120.85,173.44a6.08,6.08,0,0,0-6,6v.6a6,6,0,0,0,12-.05v-.6A6.06,6.06,0,0,0,120.85,173.44Z"/><path class="cls-35" d="M148.39,223.83a9.14,9.14,0,0,0-8.94,9v.9c0,4.7,4.17,9.18,9,8.94a9.14,9.14,0,0,0,8.94-9v-.9C157.38,228.07,153.23,223.6,148.39,223.83Z"/><path class="cls-30" d="M113.49,255.41a9.08,9.08,0,0,0-8.88,9v.9c0,4.66,4.14,9.11,8.95,8.87a9.08,9.08,0,0,0,8.88-9v-.89C122.42,259.62,118.3,255.17,113.49,255.41Z"/><path class="cls-36" d="M523.76,376.3a36.74,36.74,0,0,0,5.78-26.25c6.6-1.15,12.22-4.79,14.6-12.72,3-10.07-1-18.3-7.32-25,6.49-4.07,11.56-9.71,12.5-16.95,1.35-10.3-7.39-15.39-17.14-17.79a27.52,27.52,0,0,0,0-19.61,27.15,27.15,0,0,0-17.81-16.87,31,31,0,0,0-2.93-17,29.71,29.71,0,0,0-32.52-16.51c.89-8.54-.56-16.45-10-21.73-8.77-4.9-18.56-3.79-26.76.67-4.86-10.39-12.54-18.82-25.21-20.32-12.32-1.45-22.47,5.51-27.17,15.57-8.13-4.34-20.45-4.32-28.21-.72-8.73,4-13.71,12.66-12.26,22-10.6-.65-23.55,6.57-28.65,15.68-3.69,6.58-3.75,14.15-1.35,21-10.62,1.52-19.35,7.86-20.1,21a26.81,26.81,0,0,0,3.52,15.18c-11.12,4.21-21.47,14.67-20.79,25.2.47,7.15,4.94,13.32,11.14,18.51-10.29,8.66-16.25,22-8.85,35.1,4.51,8,11.37,12.62,19.18,15.39-6.9,8.82-9.47,19.85-.45,30.13,7.81,8.9,18.09,10.7,28.18,8.65A21,21,0,0,0,333,420.55c3.95,8.13,12.44,11.23,21.07,10.13a35.35,35.35,0,0,0,13.73-4.84,26.92,26.92,0,0,0,29.24,9.92,32,32,0,0,0,18.44-12.89,29,29,0,0,0,30.54-.06,34.81,34.81,0,0,0,12.38-13.41,36.16,36.16,0,0,0,33.72-14.83c.18-.25.33-.5.5-.75C504.41,394.15,517.32,385.87,523.76,376.3Z"/><path class="cls-37" d="M498.19,211.88s16.67,7.74,42.64-15c0,0,4.09,32.23-24.3,42.31,0,0,18.34,5.59,38.39-.06,0,0-14.75,41.37-51.49,15.76a83,83,0,0,0,13.71,29.71s-39,6.81-36.73-33.24c0,0-15.33,18.67-41.83,3.29,0,0,16.27-14.18,24.24-20.72,0,0-33.89,1-38.95-27.55,0,0,23.88,8.36,34.42,9,0,0-31.23-14.64-13.64-47.43l29,35.83s-8.27-13.67,10.75-37.73C484.35,166,501.13,187.45,498.19,211.88Z"/><path class="cls-38" d="M479,220.05s32.24-14.11,40.35-50.73l7.89,2.51S516,208.21,490.29,234C490.29,234,481.05,231.59,479,220.05Z"/><path class="cls-39" d="M395.88,227.82c7.44-4.61,16.43-18.61,14.67-27.49-1.9-9.67-9.72-16.66-19-19.15a9.25,9.25,0,0,1-1.23-.49c-.2.38-.44.73-.62,1.11-8.13-4.34-20.45-4.32-28.21-.72-8.73,4-13.71,12.66-12.26,22-10.6-.65-23.55,6.57-28.65,15.68-3.69,6.58-3.75,14.15-1.35,21-10.62,1.52-19.35,7.86-20.1,21a26.81,26.81,0,0,0,3.52,15.18,38,38,0,0,0-5.43,2.6c5.51,6.4,14.08,12.57,22.56,11.87,11.23-.94,17.35-11,17.48-22,3.75,3.86,8.11,7.27,13.18,9.1,15.7,5.67,27.89-8.73,24.53-24,3.48,4.58,17.08,8,23.43,2C407.13,247.26,404.57,235.49,395.88,227.82Z"/><path class="cls-40" d="M405.62,291.94a12.36,12.36,0,0,0-8.53-9.44C385.26,278.55,376.3,293,380.75,303a12.47,12.47,0,0,0,13.62,6.91C402.78,308.06,407.13,299.25,405.62,291.94Z"/><path class="cls-40" d="M434.85,340.25a12.34,12.34,0,0,0-8.53-9.45c-11.83-3.95-20.78,10.46-16.33,20.52a12.46,12.46,0,0,0,13.61,6.92C432,356.36,436.36,347.56,434.85,340.25Z"/><path class="cls-41" d="M456.27,302.45a12.35,12.35,0,0,0-8.53-9.45c-11.83-3.95-20.79,10.46-16.34,20.52A12.47,12.47,0,0,0,445,320.44C453.42,318.56,457.78,309.76,456.27,302.45Z"/><path class="cls-41" d="M506.62,317a12.35,12.35,0,0,0-8.53-9.45c-11.83-3.95-20.79,10.46-16.34,20.52A12.47,12.47,0,0,0,495.36,335C503.78,333.15,508.13,324.35,506.62,317Z"/><path class="cls-41" d="M455,371.83a12.34,12.34,0,0,0-8.53-9.44c-11.83-4-20.79,10.45-16.34,20.51a12.46,12.46,0,0,0,13.61,6.92C452.12,387.94,456.48,379.14,455,371.83Z"/><path class="cls-40" d="M361.19,302.47c-2.43-4.71-8.84-7.64-13.86-5-4.24,2.24-7.31,6.69-6.35,11.71a11.29,11.29,0,0,0,9.57,9.26c7.28,1.28,11.27-5.07,11.63-11.59A8.57,8.57,0,0,0,361.19,302.47Z"/><path class="cls-40" d="M432.82,260.74a14,14,0,0,0-9.3-10.34A13.54,13.54,0,0,0,411,252.22c-14.52,11.36,5,34.47,18.34,20.32A13.09,13.09,0,0,0,432.82,260.74Z"/><path class="cls-42" d="M346.17,217.36c-9-2.14-19.2,4.89-15.83,14.77a12,12,0,0,0,10,7.93C354.62,241.4,361.22,220.93,346.17,217.36Z"/><path class="cls-42" d="M386.43,195.31c-6.32-12.63-27.39-4.11-21.46,9.86a12.28,12.28,0,0,0,10.6,7.31C384.29,212.8,390.35,203.13,386.43,195.31Z"/><path class="cls-42" d="M390.28,253.3c.79-8-4.59-16.48-14.46-14s-16.13,13.49-8.25,22.12a13.1,13.1,0,0,0,22.71-8.1Z"/><path class="cls-42" d="M337.32,255.76c-15,2.3-11.46,25.63,3.57,23.32S352.35,253.46,337.32,255.76Z"/><path class="cls-42" d="M402.45,208.66c-11.36,1.74-8.67,19.4,2.71,17.66S413.83,206.92,402.45,208.66Z"/><path class="cls-41" d="M492.83,352.93c-11.37,1.74-8.68,19.4,2.7,17.66S504.21,351.19,492.83,352.93Z"/><path class="cls-43" d="M794.32,268.91a70.73,70.73,0,0,0-27.06-49.69c-16-12.5-36.71-19.3-57-18-42.15,2.77-81.27,40.9-76,84.16,1.76,14.34,8.24,26.76,17.31,37C674.71,348.48,766,343,781.65,319A78.42,78.42,0,0,0,794.32,268.91Z"/><path class="cls-44" d="M757.76,227.63c-4.62-16.3-36.93-23-60.64-15.66-22.71,7-44.79,29.22-40.4,44.43,4.79,16.61,40.89,24.14,66.91,13.39C742.2,262.11,762,242.51,757.76,227.63Zm-47.32,18.42c-9.85,3.58-22.41-.3-23.26-5.24-.79-4.56,8.42-9.92,14.36-12.1,8.25-3,20.49-3.71,22.58,1C726.08,234.07,718.93,243,710.44,246.05Z"/><path class="cls-45" d="M703.9,233.82c3.59-1.17,7.13-.17,7.91,2.23s-1.49,5.29-5.08,6.46-7.13.17-7.91-2.23S700.31,235,703.9,233.82Z"/><path class="cls-46" d="M663.63,234.23c-5-3.62,14.21-18.74,17.43-14.5C684.61,224.42,668.52,237.8,663.63,234.23Z"/><path class="cls-46" d="M694.43,217.17a4.18,4.18,0,1,1-3.49-5.11A4.38,4.38,0,0,1,694.43,217.17Z"/><path class="cls-47" d="M140.91,427.42s-20.46,5.95-24.79-2.07c-3.82-7.07,15.32-19.08,15.32-19.08-9.27-5.27-16-14.32-12.64-19.59,3.16-5,17-2.1,21.27,1.33,5-8.72,12.76-12.43,17.79-10.11,5.93,2.74,8.53,11.21,6.76,20.26,8.41.15,18.18,6,17.87,12.76C182,422,165,423.08,165,423.08s-9.65,28.87-19.3,28.43C131.71,450.86,140.91,427.42,140.91,427.42Z"/><path class="cls-48" d="M209.53,306.85c-42.41,4.93-75.85,47.06-67.8,92.12,4.08,22.82,20,41.95,42.19,48.16,24.22,6.76,52,6.11,70.6-2,21.53-9.4,35.86-28,39-55,4.29-36.77-18-64.16-43.89-76.82A75.14,75.14,0,0,0,209.53,306.85Z"/><g class="cls-49"><path class="cls-50" d="M182.45,328c-25.75,16.91-38.58,57-22.35,75.7,15.33,17.68,53.42,12.69,74.13-7.36,17.55-17,27.91-49.91,11.9-67.93C231.13,311.47,200.45,316.13,182.45,328Z"/></g><path class="cls-51" d="M170.36,340c-5.86-3.53,13.92-22.18,17.9-17.79C192.66,327,176.13,343.43,170.36,340Z"/><path class="cls-51" d="M166,351.3a4.65,4.65,0,1,1-4.71-5A4.88,4.88,0,0,1,166,351.3Z"/><path class="cls-47" d="M831.51,322.21s15.8-15.18,10.88-23.15c-4.34-7-24.86,3.86-24.86,3.86.05-11-4.57-21.59-11-21.31-6.06.27-10.57,14-9.73,19.63-10.31-.05-17.62,5-18.14,10.66-.6,6.7,5.62,13.35,14.59,16.43-4.18,7.57-4,19.28,2.2,22.46,10.17,5.25,19.8-9.33,19.8-9.33s30.68,6.21,35.23-2.62C857.12,326,831.51,322.21,831.51,322.21Z"/><path class="cls-52" d="M765.63,432.72c24.18-1.2,52.48-8.69,63.86-32.24,9.76-20.2,8.89-44.39.06-64.75-7.43-17.13-20.6-31.65-37.44-39.89a77.41,77.41,0,0,0-41.23-6.61c-25.91,3-48.89,19.82-61.17,42.61-14.33,26.61-10.27,58.65,9.22,81.78,12.28,14.58,38.17,18.52,56.35,19.17C758.73,432.92,762.18,432.89,765.63,432.72Z"/><g class="cls-53"><path class="cls-54" d="M788.52,311.35c-15.43-17.37-47-12.58-65.48-.42-23.21,15.24-37.19,56.76-18.19,77.57,12.63,13.83,51.86,12.19,76.37-13.23C797.46,358.43,801.66,326.15,788.52,311.35Z"/></g><path class="cls-46" d="M710.61,323.27c-6-3.63,17.11-22.45,19.84-17C733.6,312.56,716.54,326.85,710.61,323.27Z"/><path class="cls-46" d="M706.16,334.94a4.78,4.78,0,1,1-4.84-5.17A5,5,0,0,1,706.16,334.94Z"/><g id="_Group_2" data-name="&lt;Group&gt;"><path id="_Path_2" data-name="&lt;Path&gt;" class="cls-55" d="M415.85,320.28c-28.24-7.94-62,1.13-85.85,16.59-45.22,29.33-91.29,98.77-61.06,153,32.84,58.95,170.3,80.91,210.55,24.28,22-31,19.34-72.7,7.91-107.16S453.31,330.8,415.85,320.28Z"/><path id="_Path_3" data-name="&lt;Path&gt;" class="cls-56" d="M387.79,335c-69.59,2.18-125.66,84.26-104.49,139.6,24.42,63.88,149.83,63.3,176.43,32.61C501.46,459,447.28,333.08,387.79,335Z"/><path class="cls-57" d="M446.84,421.72c-1.52-12.13-47.34-15-47.34-15s34.87-10.27,34.17-19.67c-.74-9.82-59.62-5.42-59.62-5.42s33.48-14.25,33.29-23.21S341.76,363,341.76,363s33.52-17.13,28-23.3C365.65,335,330,344,306.62,373.52c-5.14,6.51-11.75,15.15-13,17.3-6,10.42-21.92,51.81-12.25,56,6.67,2.9,16.36-11.13,21.74-20.14-.43,19.59.12,48.22,7,49.42C320.62,478,329.41,438,329.41,438s9.55,60.48,17.79,59.93C358,497.21,359,463.36,359,463.36S383.83,516,394.41,512c7-2.68,3.56-20.43.59-30.42C415,497,444,497.11,448.84,488.9c6.25-10.67-3.51-28.9-20.28-51.48C436.55,436.54,447.63,428.08,446.84,421.72Z"/><path id="_Path_4" data-name="&lt;Path&gt;" class="cls-58" d="M328.51,390.85c27.72-28.71,103,69.93,98.58,75.91C421.83,473.93,301.09,419.24,328.51,390.85Z"/><path id="_Path_5" data-name="&lt;Path&gt;" class="cls-59" d="M358.47,400s24.49,19.7,15.4,30.26-35.75-11.68-32.46-14.08c1.4-1,20.23,13.37,25.11,7.21C369.94,419.06,354.3,402,358.47,400Z"/><path id="_Path_6" data-name="&lt;Path&gt;" class="cls-60" d="M295,359.6s-3.84-24.88,17.95-66.46c0,0,21.55,39.44.87,64.73,0,0,20.39-7.15,40.28,10.2,0,0-17.72,21.57-46.37,5.77,0,0,14.32,41.3-4,59.94,0,0-16-33-11.23-49.22,0,0-20.74,36.73-63.55,23,0,0,14.78-29,62.58-41.05,0,0-21.82-9.67-41.23-13.66l6.28-18.26S282,343,295,359.6Z"/></g><path class="cls-61" d="M596.8,406.12c-16.93,21.8-18.07,52-7.1,76.75,11.63,26.21,49.32,35.72,75.44,35,13.77-.4,27.85-3,40.53-8.5,46.7-20.23,38.43-81.57,7.19-112C678.42,363.83,628.36,365.47,596.8,406.12Z"/><path class="cls-62" d="M597.5,465.47c12.76,12.36,45.23,3.24,62.12-15.9,15.67-17.77,22.36-49.19,8.68-61.05-12.89-11.17-39.8-1.47-54.76,12.09C593.82,418.48,584.29,452.67,597.5,465.47Z"/><path class="cls-63" d="M713,431.11s6.79-16-3.28-24.67-17.28,8.9-17.28,8.9c-4.86-10.85-16.32-15.29-21.06-12-4.49,3.13-5.74,15.14,1.39,24-7.87,4.83-11.17,13.26-9,19.1,2.54,6.89,10.26,10.52,18.46,9.31.21,9.45,5.62,20.91,11.73,21.14,10.09.37,10.88-18.58,10.88-18.58s19.17,12.17,22.7-2.55S713,431.11,713,431.11Z"/><path class="cls-64" d="M686.09,437.44c-1.35.89-1.43,3.29-.49,4.84s3.25,2.68,4.72,1.73,1.44-3.09.72-4.52C690.12,437.65,687.58,436.47,686.09,437.44Z"/><path class="cls-65" d="M681.52,456.69c.21,9.44,6.29,20,12.4,20.19a7.06,7.06,0,0,0,2.73-.48c-12.25-1.49-12.32-23.23-12.32-23.23s-13.61,1.39-18.23-7.61,9.23-17.77,9.23-17.77c-6.79-10.75-7.3-17.64-5.75-22.35a19.35,19.35,0,0,0,2,21.42c-9,5.34-11.36,14.15-9.21,20C664.87,453.74,673.31,457.89,681.52,456.69Z"/><path class="cls-51" d="M593.38,434.76c-6.55-1.21,5.08-25,10.22-22.37C609.27,415.31,599.84,436,593.38,434.76Z"/><path class="cls-51" d="M615.46,403.6a4.53,4.53,0,1,1-5.81-3.34A4.76,4.76,0,0,1,615.46,403.6Z"/></g></g></g></svg>