<?xml version="1.0" encoding="utf-8"?>
<!-- Generator: Adobe Illustrator 22.1.0, SVG Export Plug-In . SVG Version: 6.00 Build 0)  -->
<svg version="1.1" id="Layer_1" xmlns="http://www.w3.org/2000/svg" xmlns:xlink="http://www.w3.org/1999/xlink" x="0px" y="0px"
	 viewBox="0 0 768.2 874" style="enable-background:new 0 0 768.2 874;" xml:space="preserve">
<style type="text/css">
	.st0{fill:url(#SVGID_1_);}
	.st1{fill:url(#SVGID_2_);}
	.st2{opacity:0.5;fill:url(#SVGID_3_);enable-background:new    ;}
	.st3{fill:#BA8FB2;}
	.st4{fill:#F1F3FF;}
	.st5{fill:url(#SVGID_4_);}
	.st6{opacity:0.7;fill:#EB4949;enable-background:new    ;}
	.st7{opacity:0.3;fill:#AB131D;enable-background:new    ;}
	.st8{fill:url(#SVGID_5_);}
	.st9{opacity:0.5;fill:#80B541;enable-background:new    ;}
	.st10{fill:url(#SVGID_6_);}
	.st11{fill:url(#SVGID_7_);}
	.st12{fill:url(#SVGID_8_);}
	.st13{fill:url(#SVGID_9_);}
	.st14{opacity:0.2;fill:#FF5846;enable-background:new    ;}
	.st15{opacity:0.3;}
	.st16{fill:url(#SVGID_10_);}
	.st17{fill:#FFFFFF;}
	.st18{opacity:0.3;fill:#EB4949;enable-background:new    ;}
</style>
<title>Asset 14</title>
<g>
	<g id="Layer_2_1_">
		<g id="Layer_4">
			
				<linearGradient id="SVGID_1_" gradientUnits="userSpaceOnUse" x1="160.2567" y1="21.2167" x2="533.3067" y2="319.6466" gradientTransform="matrix(1 0 0 -1 -115.69 876)">
				<stop  offset="0" style="stop-color:#EAEEFF"/>
				<stop  offset="0.62" style="stop-color:#E0E5F9"/>
				<stop  offset="1" style="stop-color:#D7DDF3"/>
			</linearGradient>
			<path class="st0" d="M123.1,726.7c16.6,42.2,42.8,75.5,55.7,89.9c37.8,42.1,130,57.3,221.4,57.3c112.9,0,199-21.9,227.7-58.7
				c15.5-19.9,37.5-63.2,54.1-108.9c9.4-25.8,57.4-120,84-259.4c-46.6-51.8-258.2,96.1-366.9,96.1c-111.7,0-322.8-160.9-367.2-106.9
				C44.2,536.8,113.8,703.3,123.1,726.7z"/>
			
				<linearGradient id="SVGID_2_" gradientUnits="userSpaceOnUse" x1="179.81" y1="244.14" x2="848.0001" y2="244.14" gradientTransform="matrix(1 0 0 -1 -115.69 876)">
				<stop  offset="0" style="stop-color:#D7DDF3"/>
				<stop  offset="6.000000e-02" style="stop-color:#D5D3EB"/>
				<stop  offset="0.18" style="stop-color:#CFB8D4"/>
				<stop  offset="0.31" style="stop-color:#C78FB2"/>
				<stop  offset="0.73" style="stop-color:#C78FB2"/>
				<stop  offset="0.82" style="stop-color:#BCA0C0"/>
				<stop  offset="1" style="stop-color:#A9BFD9"/>
			</linearGradient>
			<path class="st1" d="M675.1,614.5c-72.4,37.3-168.9,57.9-271.8,57.9s-199.4-20.6-271.8-57.9c-27.4-14.1-50-30-67.3-47
				c4.7,14.6,9.6,29,14.5,42.8c13.4,9.4,27.4,17.9,42,25.4c75.7,39,176.1,60.5,282.7,60.5s207-21.5,282.7-60.5
				c11.1-5.7,21.8-11.9,32.3-18.7c4.6-12.3,9.3-25.7,14-40.1C716.6,590.3,697.5,603,675.1,614.5z"/>
			<g>
				
					<linearGradient id="SVGID_3_" gradientUnits="userSpaceOnUse" x1="261.0623" y1="114.2665" x2="547.3224" y2="308.3365" gradientTransform="matrix(1 0 0 -1 -115.69 876)">
					<stop  offset="0" style="stop-color:#FFFFFF"/>
					<stop  offset="1" style="stop-color:#FFFFFF"/>
				</linearGradient>
				<path class="st2" d="M87.4,495.2C88,497,62.8,477,63.1,478.9c6.6,41.7,69.5,232.8,130.3,317.5c31.5,28.5,130.9,45.2,206.1,45.2
					c58,0,145.3-8.4,156.8-19.9c25.6-37.5,84.9-263.9,94.6-366.8C651.6,446.4,146,497.4,87.4,495.2z"/>
			</g>
			<path class="st3" d="M37.4,424.5c0,117.7,154.2,203.4,358.1,203.4S757,542.2,757,424.5S602.9,210.8,399,210.8
				S37.4,306.9,37.4,424.5z"/>
			<path class="st4" d="M399,210.8c203.9,0,369.1,95.4,369.1,213.1S602.9,636.9,399,636.9S29.9,541.5,29.9,423.9
				S195.2,210.8,399,210.8z M399,600c184.1,0,333.3-82.5,333.3-184.3S583.1,231.3,399,231.3S65.7,313.8,65.7,415.6S215,600,399,600
				L399,600z"/>
			
				<linearGradient id="SVGID_4_" gradientUnits="userSpaceOnUse" x1="540.4177" y1="781.6605" x2="488.0977" y2="517.8804" gradientTransform="matrix(1 0 0 -1 -44.14 876)">
				<stop  offset="0.25" style="stop-color:#FFAB9E"/>
				<stop  offset="0.93" style="stop-color:#FF7561"/>
			</linearGradient>
			<path class="st5" d="M401.9,615c-69.1-0.5-133.3-12.2-186.8-32c-8.1-8.1-15-17.2-20.6-27.1c-26.9-47.2-45-94.1-49.4-149.1
				c-14.6-182.7,121.2-312.5,296.8-310c176.6,2.5,295.7,138.9,290.8,302.4c-1.2,40.8-9,81.6-28.7,117.6
				C644.2,575,531.5,614.4,401.9,615z"/>
			<path class="st6" d="M443.3,168.9c6.3,4.8-6.5,21-12.2,17.4C425.3,182.5,437.8,164.7,443.3,168.9z"/>
			<path class="st7" d="M461.6,203.4C329.9,186.7,201,263.8,144.1,383.2c0.1,7.7,0.4,15.5,1,23.5c4.4,55,22.4,101.9,49.4,149.1
				c5.6,10,12.6,19.1,20.6,27.1c53.5,19.8,117.7,31.6,186.8,32c124.5-0.6,191.4-13,252.8-67.6C705.7,418.7,618.6,223.4,461.6,203.4z
				"/>
			
				<linearGradient id="SVGID_5_" gradientUnits="userSpaceOnUse" x1="-171.7045" y1="3003.1812" x2="34.5555" y2="3169.521" gradientTransform="matrix(0.73 0.61 -0.64 0.75 2253.6499 -2145.3699)">
				<stop  offset="0" style="stop-color:#6FB41D"/>
				<stop  offset="0.19" style="stop-color:#6BAE1E"/>
				<stop  offset="0.46" style="stop-color:#619C21"/>
				<stop  offset="0.78" style="stop-color:#507E27"/>
				<stop  offset="1" style="stop-color:#42652B"/>
			</linearGradient>
			<path class="st8" d="M194.3,261c-3.9,1.8-54.7-36.5-51.6-60.2c2.9-3.7,10.2,2.3,15.2,4.2c-7.6-7.3-29.7-52.6-24.1-66.9
				c1.3-2.9,9.3,4.3,13,8c-6.2-13.9-9.7-32.4-9.4-47.8c0.1-3.2-0.7-12.5,3.3-13.9c3.7-1.3,9.8,6.8,11.8,9.2
				c-2.5-8.5-4-16.8-3.1-25.9c0.5-5.1,3.5-27.9,10.4-29.4c4-0.8,7.6,5.9,9.9,8.3c-0.8-13.9,6.4-40.3,13.3-44.7
				c8.2-5.2,20.1,1.2,26.7,5.8c5.2,3.7,13.8,13.2,18,18c1.6-7.1,3.7-14.7,9.2-15.1c11-0.9,27,29.3,29.3,39.4
				c11-24.7,28.2,18.7,25.2,30c28.4-33.5,24.9,54.1,24.7,63.2c3.1-3.2,12.6-5.1,13.6-2.1c2.2,6.3-1.8,22-5.8,27.1
				c-6.9,8.7-19.2,17-27.8,24.2c-22.5,18.7-47.3,35.6-71.9,51.1C214.7,249.7,204.7,256.1,194.3,261z"/>
			<path class="st9" d="M278.8,269.3l-44.6-127.7c31-24.9,24.5-62.6,24.5-62.6c-6.6,32.8-21.8,50.4-26.9,55.6L194.6,28.2
				c6.3,29.3,13.2,56.8,20.2,82c-7.1-2.7-28.1-12.4-47.1-37.3c0,0,14,39.9,49.1,44.4c5.3,18.9,12.8,35.3,17.9,51.3
				c-8.6-2.3-42.9-11.4-68-41c0,0,24.7,43.8,70.4,48.2c18.6,56.8,32,93.5,33.7,98L278.8,269.3z"/>
			
				<linearGradient id="SVGID_6_" gradientUnits="userSpaceOnUse" x1="-568.5853" y1="525.2474" x2="-618.2852" y2="221.9274" gradientTransform="matrix(-0.82 0.57 -0.57 -0.82 -149.64 913.71)">
				<stop  offset="0" style="stop-color:#6FB41D"/>
				<stop  offset="0.19" style="stop-color:#6BAE1E"/>
				<stop  offset="0.46" style="stop-color:#619C21"/>
				<stop  offset="0.78" style="stop-color:#507E27"/>
				<stop  offset="1" style="stop-color:#42652B"/>
			</linearGradient>
			<path class="st10" d="M278.2,314.9c3.2-2.8-3.7-23.2-4.8-26.2c-2.6-7.7-5.8-15.2-9.4-22.5c-3.5-6.9-19.3-38.4-30.7-32.2
				c-3.6,1.9-6.1,7.4-6.7,11c-3.6-8.5-27.8-52-40.8-53.3c-4.6,0.9-10.1,10.2-9.7,17.9c-6.5-11.1-38.8-34.8-49.7-35
				c-4-0.1-6.5,12-5.6,15.7c-23.6-14.8-64.3-26.4-61-0.7c-3.8-1-47.3-11-53.5-2.1c-3.8,5.6,4.8,26.3,11.1,38.1
				c-7.2-0.6-17.8-1-17.4,2.4c1.1,8.1,9,21.9,21.3,34.2c-3.6-0.2-11.6,0.1-11.4,2c0.7,7.4,11.9,29.3,28.6,41.9
				c-2.7,0.4-8.6,2-8.8,3.9c-0.2,2.2,9.9,25.1,35.7,34.1c-8.2,1-14.7,2.3-12.4,6.5c12.8,24.1,46.9,24,70.3,27.2
				c30.4,4.2,63.1-5.3,90-18.6C236.8,347.3,258.4,332,278.2,314.9z"/>
			<path class="st9" d="M234.2,356.9L118,268.3c11.4-38.5-15-66.6-15-66.6c12.2,30.1,10.3,53,8.8,61.9l-88-67.1
				C45.9,218.1,67.6,238,88,255.8c-7.7,1.7-31.4,5.3-62.1-5.4c0,0,34.9,26.5,67.8,10.4c15.5,13.4,30.2,25.5,43.8,36.5
				c-8.3,3.2-40.6,13.8-84.9,2.7c0,0,47.2,25.4,90.9,2.1c48.5,38.5,82.2,60.4,86.2,63.4L234.2,356.9z"/>
			
				<linearGradient id="SVGID_7_" gradientUnits="userSpaceOnUse" x1="-171.7045" y1="3003.1812" x2="34.5555" y2="3169.521" gradientTransform="matrix(0.73 0.61 -0.64 0.75 2253.6499 -2145.3699)">
				<stop  offset="0" style="stop-color:#6FB41D"/>
				<stop  offset="0.19" style="stop-color:#6BAE1E"/>
				<stop  offset="0.46" style="stop-color:#619C21"/>
				<stop  offset="0.78" style="stop-color:#507E27"/>
				<stop  offset="1" style="stop-color:#42652B"/>
			</linearGradient>
			<path class="st11" d="M194.3,261c-3.9,1.8-54.7-36.5-51.6-60.2c2.9-3.7,10.2,2.3,15.2,4.2c-7.6-7.3-29.7-52.6-24.1-66.9
				c1.3-2.9,9.3,4.3,13,8c-6.2-13.9-9.7-32.4-9.4-47.8c0.1-3.2-0.7-12.5,3.3-13.9c3.7-1.3,9.8,6.8,11.8,9.2
				c-2.5-8.5-4-16.8-3.1-25.9c0.5-5.1,3.5-27.9,10.4-29.4c4-0.8,7.6,5.9,9.9,8.3c-0.8-13.9,6.4-40.3,13.3-44.7
				c8.2-5.2,20.1,1.2,26.7,5.8c5.2,3.7,13.8,13.2,18,18c1.6-7.1,3.7-14.7,9.2-15.1c11-0.9,27,29.3,29.3,39.4
				c11-24.7,28.2,18.7,25.2,30c28.4-33.5,24.9,54.1,24.7,63.2c3.1-3.2,12.6-5.1,13.6-2.1c2.2,6.3-1.8,22-5.8,27.1
				c-6.9,8.7-19.2,17-27.8,24.2c-22.5,18.7-47.3,35.6-71.9,51.1C214.7,249.7,204.7,256.1,194.3,261z"/>
			<path class="st9" d="M278.8,269.3l-44.6-127.7c31-24.9,24.5-62.6,24.5-62.6c-6.6,32.8-21.8,50.4-26.9,55.6L194.6,28.2
				c6.3,29.3,13.2,56.8,20.2,82c-7.1-2.7-28.1-12.4-47.1-37.3c0,0,14,39.9,49.1,44.4c5.3,18.9,12.8,35.3,17.9,51.3
				c-8.6-2.3-42.9-11.4-68-41c0,0,24.7,43.8,70.4,48.2c18.6,56.8,32,93.5,33.7,98L278.8,269.3z"/>
			
				<linearGradient id="SVGID_8_" gradientUnits="userSpaceOnUse" x1="-568.5853" y1="525.2474" x2="-618.2852" y2="221.9274" gradientTransform="matrix(-0.82 0.57 -0.57 -0.82 -149.64 913.71)">
				<stop  offset="0" style="stop-color:#6FB41D"/>
				<stop  offset="0.19" style="stop-color:#6BAE1E"/>
				<stop  offset="0.46" style="stop-color:#619C21"/>
				<stop  offset="0.78" style="stop-color:#507E27"/>
				<stop  offset="1" style="stop-color:#42652B"/>
			</linearGradient>
			<path class="st12" d="M278.2,314.9c3.2-2.8-3.7-23.2-4.8-26.2c-2.6-7.7-5.8-15.2-9.4-22.5c-3.5-6.9-19.3-38.4-30.7-32.2
				c-3.6,1.9-6.1,7.4-6.7,11c-3.6-8.5-27.8-52-40.8-53.3c-4.6,0.9-10.1,10.2-9.7,17.9c-6.5-11.1-38.8-34.8-49.7-35
				c-4-0.1-6.5,12-5.6,15.7c-23.6-14.8-64.3-26.4-61-0.7c-3.8-1-47.3-11-53.5-2.1c-3.8,5.6,4.8,26.3,11.1,38.1
				c-7.2-0.6-17.8-1-17.4,2.4c1.1,8.1,9,21.9,21.3,34.2c-3.6-0.2-11.6,0.1-11.4,2c0.7,7.4,11.9,29.3,28.6,41.9
				c-2.7,0.4-8.6,2-8.8,3.9c-0.2,2.2,9.9,25.1,35.7,34.1c-8.2,1-14.7,2.3-12.4,6.5c12.8,24.1,46.9,24,70.3,27.2
				c30.4,4.2,63.1-5.3,90-18.6C236.8,347.3,258.4,332,278.2,314.9z"/>
			<path class="st9" d="M234.2,356.9L118,268.3c11.4-38.5-15-66.6-15-66.6c12.2,30.1,10.3,53,8.8,61.9l-88-67.1
				C45.9,218.1,67.6,238,88,255.8c-7.7,1.7-31.4,5.3-62.1-5.4c0,0,34.9,26.5,67.8,10.4c15.5,13.4,30.2,25.5,43.8,36.5
				c-8.3,3.2-40.6,13.8-84.9,2.7c0,0,47.2,25.4,90.9,2.1c48.5,38.5,82.2,60.4,86.2,63.4L234.2,356.9z"/>
			
				<linearGradient id="SVGID_9_" gradientUnits="userSpaceOnUse" x1="-2089.3855" y1="622.3789" x2="-2031.3458" y2="321.8089" gradientTransform="matrix(-1 0 0 -1 -1703.1399 876)">
				<stop  offset="0" style="stop-color:#FFF4E9"/>
				<stop  offset="1" style="stop-color:#FFB2B1"/>
			</linearGradient>
			<path class="st13" d="M400.8,607.1c-169,0-309.5-67.3-338.9-156c2.2-144.8,110.9-254.4,237.2-279.2
				c161.5-31.8,328.4,95.2,335.2,265.7c1.8,44-8,90.6-27.8,131.8C549.1,593.1,477.9,607.1,400.8,607.1z"/>
			<path class="st14" d="M523,274.5c2.8-9,9.8-24.6,14.2-35.2c-9.9-8.7-20.4-16.7-31.4-24c-32.6,55.7-56.5,121.9-58.7,185.8
				c-1.6,45.5,1.4,88.4,18,139.2c6.9,20.9,16.2,41,27.5,59.9l2.1-0.3c2.2-0.3,4.4-0.7,6.6-1.1c1.9-0.3,3.7-0.6,5.5-1
				c2.2-0.4,4.3-0.8,6.5-1.2c1.9-0.3,3.7-0.7,5.5-1.1c2.1-0.4,4.2-0.8,6.3-1.3s3.9-0.9,5.8-1.3c3.6-0.8,7.1-1.7,10.7-2.5
				c1.9-0.5,3.9-1,5.8-1.4s3.9-1,5.8-1.6s3.6-1,5.4-1.5s3.8-1.1,5.7-1.7l5.3-1.6c1.9-0.6,3.7-1.2,5.6-1.8l1.9-0.6
				C516.5,491.1,490.6,380.2,523,274.5z"/>
			<path class="st14" d="M233.1,578c86.3-74.6,133.5-173.1,117.3-291.4c-5.7-41.9-16.8-83.7-33.7-122.6c12-1.5,24.2-2.2,36.3-2
				c29.7,59.5,45.3,126.9,47.4,191.9c2.9,90.9-33.1,173.9-90.4,241.6C284,591.5,258.2,585.7,233.1,578z"/>
			<path class="st14" d="M139.3,540.7c-20.5-13.2-37.8-27.9-51.2-43.9c27.2-19.2,54.3-40.2,58.7-44.4C171.6,429.4,215,374,195,348.8
				s-91.5,7.4-122.2,28.5c5.1-17.6,11.8-34.6,20.2-50.9c9.6-5.6,114.7-39.1,139.9,6.9C268.9,399,162.9,518.1,139.3,540.7z"/>
			<g class="st15">
				<g>
					
						<linearGradient id="SVGID_10_" gradientUnits="userSpaceOnUse" x1="506.347" y1="426.497" x2="676.0369" y2="250.857" gradientTransform="matrix(1 0 0 -1 -115.69 876)">
						<stop  offset="0" style="stop-color:#BA759C"/>
						<stop  offset="1" style="stop-color:#BA759C"/>
					</linearGradient>
					<path class="st16" d="M634.3,437.6C631.9,378.1,610,324,575.7,280c-1,45.2-13.5,89.5-36.3,128.5
						c-58.4,100.8-166.7,155.1-284.5,138.9c-64.7-8.9-153.6-59.6-185.4-157.7c-4.8,20.1-7.4,40.7-7.7,61.4
						c29.4,88.7,169.9,156,338.9,156c77.1,0,148.3-14,205.7-37.7C626.3,528.2,636.1,481.6,634.3,437.6z"/>
				</g>
			</g>
			<path class="st4" d="M733.4,333.5c-1.7,2.4-2,3.6-3.7,6c4.7,38.1,5,47.1,2.7,76.2C732.4,517.4,583.1,600,399,600
				S65.7,517.4,65.7,415.6c0-11.4,1.9-22.8,5.5-33.6c-2.3-3.3-4.7-6.8-6.8-10.3c-5.6-4.4-11-9.2-16.2-14.2
				c-11.9,20.9-18.3,43.2-18.3,66.4c0,117.7,165.3,213.1,369.1,213.1s369.1-95.4,369.1-213.1C768.2,391.5,755.7,360.9,733.4,333.5z"
				/>
			<path class="st17" d="M399.1,626.4c-111.1,1.3-228.6-32.1-300.5-78.7c67,54,176.6,89.3,300.5,89.3s233.5-35.2,300.4-89.3
				C627.6,594.2,519.8,625,399.1,626.4z"/>
			<path class="st18" d="M623,186.7c0.2-2-1.1-3.9-3.1-4.4c-2.3-0.4-4.7,0-6.8,1c-2.8,1.2-4.6,3.8-4.8,6.8c-0.1,1.5,0.6,2.9,1.9,3.7
				c2.8,1.4,5.2,1.5,8-0.2C620.7,192.1,622.5,189.5,623,186.7z"/>
			<path class="st18" d="M519.5,190.4c0.2-2-1.1-3.9-3.1-4.4c-2.3-0.4-4.7-0.1-6.8,1c-2.8,1.2-4.6,3.8-4.8,6.8
				c-0.1,1.5,0.6,2.9,1.9,3.7c2.8,1.4,5.2,1.5,8-0.2C517.2,195.8,519,193.3,519.5,190.4z"/>
			<path class="st18" d="M623.9,274c-4.3-5.6,10.8-18.2,14.6-13.5C643.6,266.9,627.7,278.9,623.9,274z"/>
			<path class="st18" d="M449.6,133.7c-4.4-5.6,10.8-18.2,14.6-13.6C469.3,126.6,453.4,138.6,449.6,133.7z"/>
			<path class="st6" d="M629.5,337.1c-2.3-7.6,17.6-13.2,20-6.9C652.1,336.7,631.5,343.8,629.5,337.1z"/>
			<path class="st18" d="M693.5,433c5.3-6,20.4,8.1,16.4,13.5C705.7,452,688.9,438.2,693.5,433z"/>
			<path class="st18" d="M692.2,369.4c-7.8-3.8,1.7-21.7,8.5-19C707.7,353.2,699,372.7,692.2,369.4z"/>
			<path class="st18" d="M533.9,126.4c-3.6,0.6-5.9,4.5-5.7,8.1s3.2,7.5,7.1,7.4s6.9-4.2,6.7-8.1
				C541.7,129.7,537.9,125.8,533.9,126.4z"/>
			<path class="st18" d="M385.2,142.4c-3.6,0.6-5.9,4.5-5.7,8.1s3.2,7.5,7.1,7.4s6.9-4.2,6.7-8.1
				C393.1,145.6,389.2,141.8,385.2,142.4z"/>
			<path class="st6" d="M606,255.4c-3.1-0.6-5.3-3.4-5.2-6.5c0.3-3.3,3-5.9,6.4-6c3.5,0.2,6.2,3.1,6.1,6.5
				C612.9,253.1,609.7,255.8,606,255.4z"/>
			<path class="st6" d="M355.3,139.1c-3.1-0.6-5.3-3.4-5.2-6.5c0.3-3.3,3-5.9,6.4-6c3.5,0.2,6.2,3.1,6.1,6.5
				C362.2,136.8,358.9,139.5,355.3,139.1z"/>
			<path class="st6" d="M650.3,415.3c-3.1-0.6-5.3-3.4-5.2-6.5c0.3-3.3,3-5.9,6.4-6c3.5,0.2,6.2,3.1,6.1,6.5
				C657.3,412.9,654,415.6,650.3,415.3z"/>
			<path class="st6" d="M573.5,175.8c-1.1-3.7-6.1-6.5-9-5.3c-4.9,2-4.7,14.9-1.2,16.4C566.4,188.3,575.2,181.8,573.5,175.8z"/>
			<path class="st6" d="M684.3,285.1c3.9,0.7,8.6-2.7,8.8-5.9c0.3-5.3-11.5-10.9-14.5-8.4C676,273.2,678.1,284.1,684.3,285.1z"/>
		</g>
	</g>
</g>
</svg>
