<svg xmlns="http://www.w3.org/2000/svg" xmlns:xlink="http://www.w3.org/1999/xlink" viewBox="0 0 943.6 796.15"><defs><style>.cls-1{isolation:isolate;}.cls-2{fill:#e89233;}.cls-3{fill:url(#linear-gradient);}.cls-4{fill:#df792b;}.cls-5{fill:url(#linear-gradient-2);}.cls-6{fill:#bd3333;}.cls-10,.cls-17,.cls-6{opacity:0.5;}.cls-7{fill:#910c00;}.cls-8{fill:#9e0e00;}.cls-9{fill:url(#linear-gradient-3);}.cls-10{fill:#fed15e;}.cls-11{fill:#fae2af;}.cls-12{fill:#db8e40;opacity:0.4;}.cls-12,.cls-15,.cls-17{mix-blend-mode:multiply;}.cls-13{fill:url(#linear-gradient-4);}.cls-14{fill:#f4eddf;mix-blend-mode:overlay;}.cls-14,.cls-15{opacity:0.2;}.cls-15{fill:#f1a562;}.cls-16{fill:#851500;}.cls-17{fill:#5c0000;}</style><linearGradient id="linear-gradient" x1="181.33" y1="317.9" x2="364.61" y2="252.44" gradientTransform="translate(-115.69)" gradientUnits="userSpaceOnUse"><stop offset="0" stop-color="#ffb957"/><stop offset="0.16" stop-color="#fab14f"/><stop offset="0.67" stop-color="#ed9a3b"/><stop offset="1" stop-color="#e89233"/></linearGradient><linearGradient id="linear-gradient-2" x1="833.13" y1="897.02" x2="418.53" y2="495.26" gradientTransform="translate(-44.14)" gradientUnits="userSpaceOnUse"><stop offset="0" stop-color="#910c00"/><stop offset="1" stop-color="#700a00"/></linearGradient><linearGradient id="linear-gradient-3" x1="171.08" y1="476.67" x2="929.02" y2="873.22" gradientTransform="translate(-44.14)" gradientUnits="userSpaceOnUse"><stop offset="0" stop-color="#ffd89f"/><stop offset="0.24" stop-color="#ffd183"/><stop offset="0.45" stop-color="#ffcc70"/><stop offset="0.6" stop-color="#ffca69"/><stop offset="0.82" stop-color="#e99e61"/><stop offset="1" stop-color="#d97c5b"/></linearGradient><linearGradient id="linear-gradient-4" x1="309.74" y1="221" x2="801.55" y2="666.29" xlink:href="#linear-gradient"/></defs><title>Asset 10</title><g class="cls-1"><g id="Layer_2" data-name="Layer 2"><g id="Layer_4" data-name="Layer 4"><path class="cls-2" d="M1.3,499.19S-10,454.14,33.84,444.13c0,0-25-35-12.52-60.07s42.55-27.53,42.55-27.53-31.28-30-26.28-56.32,47.56-21.27,47.56-21.27-20-26.28-13.77-50.06c7.26-27.6,51.31-23.78,51.31-23.78S95.84,171,115.18,140C134,110,174,122.5,174,122.5s-13.77-38.79,5-60.07,50.06-12.51,50.06-12.51-8.72-36.18,21.27-48.81c23.78-10,78.84,48.81,89.27,127.23L378,258.91,146.47,601.81Z"/><path class="cls-3" d="M328.68,84.32c-20.17-55-59.29-91.23-78.34-83.21-30,12.63-21.27,48.81-21.27,48.81S197.78,41.16,179,62.43s-5,60.07-5,60.07S134,110,115.18,140c-19.34,30.94,7.51,65.08,7.51,65.08s-44-3.82-51.31,23.78c-6.26,23.78,13.77,50.06,13.77,50.06s-42.55-5-47.56,21.27,26.28,56.32,26.28,56.32-30,2.5-42.55,27.53,12.52,60.07,12.52,60.07C-10,454.14,1.3,499.19,1.3,499.19l87,61.48,9-6.4S99.92,272.43,328.68,84.32Z"/><path class="cls-4" d="M301,176.53c-21,38.05-26.85,64.72-45.85,103.31,14.33,34.46,27.35,69.59,37.5,105.52L378,258.91,339.61,128.34C329.18,49.92,274.12-8.9,250.34,1.11A37.7,37.7,0,0,0,241.91,6C289.08,11.4,331.85,120.69,301,176.53Z"/><path class="cls-5" d="M806.87,588.09c-68.24-4.47-197-39.22-265.22-36.07-70.46,3.26-109.83-5.54-180.36-5.3-35.6.12-72.63,4.76-108.21,3.18-34.45-1.53-68.39,34.47-102.9,34-1.92,0,10.4,80.65,8.48,80.63,9.1,39.11,29.74,72.78,40.79,79.58,56.79,35,700.82,8.35,700.82,8.35s23.47-75.71,34.87-132.75C894.37,617.1,847.43,590.75,806.87,588.09Z"/><path class="cls-6" d="M199.38,631s25.59,60.19,91.47,40.66C290.85,671.62,263.76,639.81,199.38,631Z"/><path class="cls-6" d="M490.66,660.57s62.11-45.17,127.6-46.3C618.26,614.27,595.68,683.16,490.66,660.57Z"/><path class="cls-6" d="M722.16,650.41S707.48,693.32,750.39,717C750.39,717,770.72,675.25,722.16,650.41Z"/><path class="cls-7" d="M307.58,694.51c-10.75,0-19.72,9.21-19.72,20.24s9,20.23,19.72,20.23,19.72-9.2,19.72-20.23S318.33,694.51,307.58,694.51Z"/><path class="cls-7" d="M649.81,694.56a14.42,14.42,0,1,0,14,14.42A14.37,14.37,0,0,0,649.81,694.56Z"/><path class="cls-8" d="M879.59,604.69c-11.46,0-21,9.81-21,21.56s9.56,21.56,21,21.56,21-9.8,21-21.56S891,604.69,879.59,604.69Z"/><path class="cls-7" d="M556,702.06c-19.47,0-35.72,16.68-35.72,36.66s16.25,36.65,35.72,36.65,35.72-16.68,35.72-36.65S575.46,702.06,556,702.06Z"/><path class="cls-7" d="M347.18,531.73c-17.06,0-31.31,14.61-31.31,32.13S330.12,596,347.18,596s31.32-14.61,31.32-32.13S364.25,531.73,347.18,531.73Z"/><path class="cls-9" d="M1.3,499.19s101.26-14.13,148.82,59.7c0,0,35-46.83,40-39.32,2.52,3.78,201.39-44.06,390.32-32.43C767,498.62,943.6,569.59,943.6,569.59l-8.46,50.07c-4-.28-125.84-1.44-209.87-12.69-110.08-14.74-178.5-34.93-313-45-122.88-9.18-240,26.5-249.07,45.67-11.51,25.59,24.42,129.48,42.94,138,133.9,21.37,694.17,6.73,694.17,6.73s-11.68,37.12-15.44,40.88-789.67,6.25-808.44-8.76S1.3,499.19,1.3,499.19Z"/><path class="cls-10" d="M63,402.21c-1-9.69-8.49-18.76-19.34-15.26-3.33,1.08-6.55,3.14-8.23,6.33s-2.56,7.09-1.39,10.61c.63,1.89,1.27,3.79,1.9,5.69a14.54,14.54,0,0,0,6.33,8.22,14,14,0,0,0,10.6,1.39c3.33-1.08,6.55-3.14,8.23-6.32A18.91,18.91,0,0,0,63,402.21Z"/><path class="cls-10" d="M81.87,309.66,80,305.87c-1.49-3-5.11-5.47-8.23-6.33a14.14,14.14,0,0,0-10.61,1.39c-2.94,1.9-5.53,4.72-6.32,8.23a15.18,15.18,0,0,0,1.38,10.61c.64,1.26,1.27,2.53,1.9,3.79,1.49,3,5.11,5.47,8.23,6.33a14.1,14.1,0,0,0,10.61-1.39c2.93-1.9,5.52-4.72,6.32-8.23A15.19,15.19,0,0,0,81.87,309.66Z"/><path class="cls-10" d="M114.58,239l-.93-2.85a14.53,14.53,0,0,0-6.33-8.23,13.77,13.77,0,0,0-18.84,4.94c-1.68,3.19-2.54,7.07-1.38,10.61l.93,2.85a14.48,14.48,0,0,0,6.32,8.22A14,14,0,0,0,105,255.9c3.33-1.08,6.55-3.14,8.23-6.32S115.73,242.5,114.58,239Z"/><path class="cls-10" d="M153.4,162.33l-1.89-6.64a14.33,14.33,0,0,0-6.33-8.23A13.77,13.77,0,0,0,125,163q.95,3.31,1.9,6.64a14.22,14.22,0,0,0,6.32,8.22A13.77,13.77,0,0,0,152,172.94,14.23,14.23,0,0,0,153.4,162.33Z"/><path class="cls-10" d="M208.7,77.1a14,14,0,0,0-9.73-4c-3.56.16-7.26,1.33-9.74,4a14.34,14.34,0,0,0-4,9.74v5.69a14.21,14.21,0,0,0,4,9.73,14,14,0,0,0,9.74,4c3.56-.16,7.25-1.33,9.73-4a14.3,14.3,0,0,0,4-9.73V86.84A14.2,14.2,0,0,0,208.7,77.1Z"/><path class="cls-11" d="M98.27,398.19c-.23-3.52-2-7.26-4.57-8.67-2.91-1.57-7-.6-9.3,1.58-2.9,2.75-3.29,9.86-.33,13C88.83,409.09,98.71,405,98.27,398.19Z"/><path class="cls-11" d="M290.47,74.94a12.72,12.72,0,0,0-17.74-1.89,17.62,17.62,0,0,0-6.67,11.67c-1,6.81,4.54,13.17,11.2,13.89C288.57,99.82,297.68,83.88,290.47,74.94Z"/><path class="cls-11" d="M144,260.24c-16-2.83-20.74,23.18-4.61,26S159,262.9,144,260.24Z"/><path class="cls-11" d="M222.17,174.65a12.73,12.73,0,0,0-9.25-2.23c-8.34,1.27-16,12.13-12.44,20.18,6.37,14.29,28.81,3.63,26.81-9.59A12.73,12.73,0,0,0,222.17,174.65Z"/><path class="cls-11" d="M108.77,286.4a6,6,0,0,0-7,1.91,5.14,5.14,0,0,0-1.2,3.58,5.67,5.67,0,0,0,1.73,6.57,5.77,5.77,0,0,0,8.06-1,9.6,9.6,0,0,0,1.89-4.78C112.45,290.06,111.38,287.5,108.77,286.4Z"/><path class="cls-11" d="M195.36,148.26a7.27,7.27,0,0,0-9.51-3.66,10.15,10.15,0,0,0-3.92,3,10.82,10.82,0,0,0-1.59,3.12,7.19,7.19,0,0,0,13,6A7.25,7.25,0,0,0,195.36,148.26Z"/><path class="cls-11" d="M77.82,475.54A8.36,8.36,0,0,0,79,485.61a6.21,6.21,0,0,0,8.64-1,6.67,6.67,0,0,0-1.21-10.07A6.21,6.21,0,0,0,77.82,475.54Z"/><path class="cls-11" d="M224.61,67.36l-1,2.2a7.21,7.21,0,1,0,13.23,5.74l1-2.2a7.21,7.21,0,1,0-13.23-5.74Z"/><path class="cls-11" d="M45.85,453.93a5.87,5.87,0,0,0-3.49-.44c-8.81,1.37-9.24,17.71,1.38,16.43C51.6,469,51.65,456.64,45.85,453.93Z"/><path class="cls-11" d="M129.56,306.92c-4,.33-8,3.13-8.48,7.57-.39,3.72,1.67,6.28,4.39,8.42,6.38,5,12.73-2.44,12.27-9C137.37,308.66,133.48,306.59,129.56,306.92Z"/><path class="cls-11" d="M110.88,436.43c-4.86-.39-10.07,1.45-12.91,5a12.42,12.42,0,0,0,2.08,17.27,12.63,12.63,0,0,0,11.07,2.07c7.12-1.75,13.54-11.95,9.39-18.89C118.47,438.49,114.78,436.75,110.88,436.43Z"/><path class="cls-11" d="M178.24,288.77c-4.31,5.49,4.19,12.17,8.5,6.68S182.55,283.29,178.24,288.77Z"/><path class="cls-11" d="M267.81,125.49c-2.77,6.4,7.15,10.7,9.92,4.3S270.59,119.09,267.81,125.49Z"/><path class="cls-11" d="M174.24,183.05c-6.37,2.83-2,12.71,4.4,9.87S180.61,180.21,174.24,183.05Z"/><path class="cls-11" d="M94.25,364.28a6.43,6.43,0,0,0-1.62-4.81,5.84,5.84,0,0,0-6.75-1.09c-1.4.59-2.16,2-3.19,3a5.4,5.4,0,0,0,7.14,8.09A5.42,5.42,0,0,0,94.25,364.28Z"/><path class="cls-8" d="M844.29,703.23A12.79,12.79,0,1,0,856.75,716,12.74,12.74,0,0,0,844.29,703.23Z"/><path class="cls-12" d="M54.22,561.57c1.09,11.22,18.53,9.54,17.44-1.7S53.12,550.33,54.22,561.57Z"/><path class="cls-12" d="M90.11,569.81a11.25,11.25,0,0,0,1.55,15.85,11.68,11.68,0,0,0,8.24,2.51l.89-.08a11.61,11.61,0,0,0,7.6-4.06,11.27,11.27,0,0,0-1.54-15.85,11.69,11.69,0,0,0-8.25-2.51l-.88.08A11.61,11.61,0,0,0,90.11,569.81Z"/><path class="cls-12" d="M98.69,648.67c2.94,14.19,25,9.64,22.06-4.58S95.74,634.45,98.69,648.67Z"/><path class="cls-12" d="M132.24,669.29c2,9.46,16.67,6.42,14.7-3S130.27,659.81,132.24,669.29Z"/><path class="cls-13" d="M150.12,558.89c56.43-12.8,112.81-25.52,170.59-30.53,59.3-5.13,121.33-4.87,180.45,2,56.7,6.55,111.1,24.16,166.87,35.53,57.76,11.77,114.13,10.83,172.58,6.36,34.24-2.62,68.84-5,103-2.63-57.76-117.68-209-239.91-318-318.44-75.41-54.36-213.44-114.82-286-122.81C142.42,306.21,150.06,558.28,150.12,558.89Z"/><path class="cls-14" d="M402.4,217c-54.78,5.38-179.76,43.43-106.08,109.84,11.13,10,26.67,22.74,29.42,39.24,9.21,55.24-125.41,54.2-119.1,82.11,9.43,41.6,173.84,3,183.13-55.46,3.55-22.35-7.86-24.36-18.16-39.34-47.35-68.84,99.53-87,64.05-128.77-7-8.22-19.36-8.75-30.12-7.9C404.52,216.75,403.48,216.85,402.4,217Z"/><path class="cls-15" d="M625.64,251.15c-75.41-54.36-213.44-114.82-286-122.81C269.5,191.59,225.3,264.21,197.43,331.57c55.2-89.2,140.66-143.68,238.76-134.11,160.12,15.62,246,154.26,224.56,222.61C648.39,459.38,606.07,513.8,489,529q6.09.6,12.14,1.3c56.7,6.55,111.1,24.16,166.86,35.53,57.77,11.77,114.14,10.83,172.59,6.36,34.24-2.62,68.84-5,103-2.63C885.84,451.91,734.56,329.68,625.64,251.15Z"/><path class="cls-15" d="M664.72,279.94c57,56.82,141.39,158.92,175.89,292.28,34.24-2.62,68.84-5,103-2.63C892.49,465.45,768.15,357.76,664.72,279.94Z"/><path class="cls-14" d="M704.54,449.47c-1.07-25-14.85-49.6-40.37-55.42-18.59-4.24-34.93,5.36-50.92,13.91-13.78,7.35-27.3,13.92-41.79,10.2-14.94-3.84-23.71-20.39-23.75-35.81-.05-22.09,34.81-66.58,16.71-84.94-21.15-21.46-88.67.85-106.82,21.09-31.94,35.62,19.23,36.71,34,53.81,20.6,23.76-8.29,39.89-27,50.73-10.8,6.27-24,10-27.15,22.83-5.19,21.46,14.58,29.56,32.29,24.18,9.71-2.95,18.37-8.55,27.62-12.73a102,102,0,0,1,75-3.24c36.82,12.94,45.95,64.4,92.51,54.33C692.84,502.38,705.67,475.69,704.54,449.47Z"/><path class="cls-16" d="M327.31,300.58A196.33,196.33,0,0,0,501.47,375.1a285,285,0,0,0-174.16-74.52Z"/><path class="cls-16" d="M527.43,359.89c-4.18-2.13-32.9-17.42-41.32-52.35C477.55,272,496.94,245,499.66,241.29a129.9,129.9,0,0,1,27.77,118.6Z"/><path class="cls-16" d="M518.66,400.23a533.83,533.83,0,0,0-169.51,61,138.67,138.67,0,0,0,67.76,7.53C479.6,459.76,513.11,409,518.66,400.23Z"/><path class="cls-15" d="M902.18,503.28c-71.55-95.64-188-188.32-276.54-252.13-75.41-54.36-213.44-114.82-286-122.81a547.85,547.85,0,0,0-98.36,117.72c35.16-27.79,89.29-64.27,126.83-60.16,45.77,5,20.84,56.81,61.1,64.61C482,260.72,540.3,222,618.18,265.83,732.13,329.93,705.71,536.94,902.18,503.28Z"/><path class="cls-11" d="M545.1,441a12.73,12.73,0,0,0,6.35,16.67,17.62,17.62,0,0,0,13.43.66c6.5-2.23,9.68-10,7.3-16.28C568.13,431.39,549.8,430.49,545.1,441Z"/><path class="cls-11" d="M362.7,237.53a12.73,12.73,0,0,0,6.35,16.67,17.67,17.67,0,0,0,13.43.66c6.51-2.23,9.69-10,7.3-16.28C385.74,228,367.4,227.05,362.7,237.53Z"/><path class="cls-11" d="M273.94,412.66c4.73,15.55,30.06,8,25.29-7.7S269.51,398.06,273.94,412.66Z"/><path class="cls-11" d="M619.78,400.39a12.71,12.71,0,0,0,7.64,5.68c8.17,2.1,19.49-4.88,19.35-13.69-.26-15.64-25.08-14.63-28.42-1.69A12.73,12.73,0,0,0,619.78,400.39Z"/><path class="cls-11" d="M321.39,416.57a6,6,0,0,0,4.85,5.33,5.17,5.17,0,0,0,3.74-.55,5.67,5.67,0,0,0,5.06-4.53,5.76,5.76,0,0,0-4.51-6.74,9.61,9.61,0,0,0-5.12.49C323,411.63,321.18,413.74,321.39,416.57Z"/><path class="cls-11" d="M406.1,269.55a6,6,0,0,0,4.85,5.33,5.12,5.12,0,0,0,3.74-.55,5.66,5.66,0,0,0,5.06-4.52,5.77,5.77,0,0,0-4.51-6.75,9.71,9.71,0,0,0-5.12.49C407.68,264.61,405.89,266.73,406.1,269.55Z"/><path class="cls-11" d="M616.59,473.57a7.28,7.28,0,0,0,4.55,9.13,10.13,10.13,0,0,0,4.88.46,11.11,11.11,0,0,0,3.28-1.22,7.76,7.76,0,1,0-12.71-8.37Z"/><path class="cls-11" d="M516.33,446.05l2.39-.14a7.21,7.21,0,1,0-.88-14.39l-2.4.14a7.21,7.21,0,0,0,.89,14.39Z"/><path class="cls-11" d="M381.91,294.83l2.4-.14a7.21,7.21,0,0,0-.88-14.39l-2.4.14a7.21,7.21,0,1,0,.88,14.39Z"/><path class="cls-11" d="M564.11,299.58l2.4.11a7.21,7.21,0,1,0,.62-14.41l-2.4-.1a7.21,7.21,0,0,0-.62,14.4Z"/><path class="cls-11" d="M321.81,375.56c2.1,3.4,6.43,5.73,10.6,4.13,3.48-1.33,4.83-4.33,5.51-7.73,1.58-7.95-7.95-10.24-13.59-6.85C319.82,367.82,319.74,372.21,321.81,375.56Z"/><path class="cls-11" d="M387.06,403c6.84,1.35,8.94-9.26,2.1-10.61S380.22,401.62,387.06,403Z"/><path class="cls-11" d="M585.38,366.14c7-.42,6.3-11.22-.66-10.79S578.42,366.57,585.38,366.14Z"/><path class="cls-11" d="M550.65,328.36c7-.43,6.3-11.22-.66-10.8S543.69,328.78,550.65,328.36Z"/><path class="cls-11" d="M648.62,334.33c7-.42,6.3-11.22-.66-10.79S641.66,334.76,648.62,334.33Z"/><path class="cls-11" d="M511.67,474.56c7-.42,6.3-11.22-.66-10.79S504.71,475,511.67,474.56Z"/><path class="cls-11" d="M660.27,416.51c5.42,4.4,12.23-4,6.81-8.4S654.85,412.12,660.27,416.51Z"/><path class="cls-11" d="M564.7,494c5.41,4.39,12.22-4,6.81-8.4S559.28,489.58,564.7,494Z"/><path class="cls-17" d="M462.82,603c-10.94,0-20.07,9.36-20.07,20.59s9.13,20.59,20.07,20.59,20.06-9.37,20.06-20.59S473.75,603,462.82,603Z"/><path class="cls-17" d="M817.7,649.55a11.26,11.26,0,1,0,11,11.26A11.23,11.23,0,0,0,817.7,649.55Z"/><path class="cls-17" d="M235.05,597.31a14.18,14.18,0,1,0,13.81,14.18A14.13,14.13,0,0,0,235.05,597.31Z"/><path class="cls-17" d="M429.58,688.63a11.26,11.26,0,1,0,11,11.26A11.22,11.22,0,0,0,429.58,688.63Z"/></g></g></g></svg>