<?xml version="1.0" encoding="utf-8"?>
<!-- Generator: Adobe Illustrator 22.1.0, SVG Export Plug-In . SVG Version: 6.00 Build 0)  -->
<svg version="1.1" id="Layer_1" xmlns="http://www.w3.org/2000/svg" xmlns:xlink="http://www.w3.org/1999/xlink" x="0px" y="0px"
	 viewBox="0 0 801.5 915.4" style="enable-background:new 0 0 801.5 915.4;" xml:space="preserve">
<style type="text/css">
	.st0{fill:#BB612A;}
	.st1{fill:url(#_Path_3_1_);}
	.st2{fill:url(#_Path_4_1_);}
	.st3{fill:url(#_Path_5_1_);}
	.st4{fill:#FF554D;}
	.st5{fill:#FF8C78;}
	.st6{fill:#FFC2A8;}
	.st7{fill:#F85344;}
	.st8{fill:url(#_Path_9_1_);}
	.st9{fill:url(#_Path_10_1_);}
	.st10{fill:url(#_Path_11_1_);}
	.st11{fill:url(#_Path_12_1_);}
	.st12{fill:url(#_Path_13_1_);}
	.st13{opacity:0.5;fill:#F74346;enable-background:new    ;}
	.st14{opacity:0.7;fill:#FFFFFF;enable-background:new    ;}
	.st15{fill:#F79421;}
	.st16{fill:#EB6000;}
	.st17{fill:url(#_Path_25_1_);}
	.st18{fill:url(#SVGID_1_);}
	.st19{opacity:0.5;fill:url(#SVGID_2_);enable-background:new    ;}
	.st20{fill:url(#_Path_26_1_);}
	.st21{fill:url(#_Compound_Path__1_);}
	.st22{opacity:0.3;fill:#E48F42;enable-background:new    ;}
	.st23{opacity:0.3;fill:url(#_Path_28_1_);enable-background:new    ;}
	.st24{fill:url(#_Path_29_1_);}
	.st25{opacity:0.2;}
	.st26{fill:#FFFF88;}
	.st27{opacity:0.2;fill:#E48F42;enable-background:new    ;}
	.st28{opacity:0.2;fill:#9E0C00;enable-background:new    ;}
	.st29{fill:#FCA2AD;}
	.st30{fill:#FCCAD0;}
	.st31{fill:#FFCF8F;}
	.st32{opacity:0.5;fill:#AB131D;enable-background:new    ;}
	.st33{fill:url(#SVGID_3_);}
	.st34{opacity:0.3;fill:url(#SVGID_4_);enable-background:new    ;}
	.st35{opacity:0.4;fill:#730010;enable-background:new    ;}
	.st36{fill:url(#SVGID_5_);}
	.st37{fill:#D93E00;}
	.st38{fill:url(#_Path_51_1_);}
	.st39{fill:url(#SVGID_6_);}
	.st40{fill:url(#SVGID_7_);}
	.st41{fill:url(#SVGID_8_);}
</style>
<title>Asset 25</title>
<g>
	<g id="Layer_2_1_">
		<g id="Layer_4">
			<path id="_Path_2" class="st0" d="M52,421.2c0,0-43.7,21.8-42.6,44.8s163.9,180.2,381.3,178s374.4-136.5,369.3-170.4
				c-7.6-50.2-209.8-85.2-400.9-80.8S52,421.2,52,421.2z"/>
			
				<linearGradient id="_Path_3_1_" gradientUnits="userSpaceOnUse" x1="105.9097" y1="605.6193" x2="324.0197" y2="502.4594" gradientTransform="matrix(1 0 0 -1 -44.14 918)">
				<stop  offset="0" style="stop-color:#FFF4E9"/>
				<stop  offset="1" style="stop-color:#FFB2B1"/>
			</linearGradient>
			<path id="_Path_3" class="st1" d="M245.9,197.9C137,188.5,29.8,273.7,27.6,387.7c-2.1,113.2,100.6,201.9,208.8,197.9
				c97.5-3.6,188.8-82.1,192.5-187.1C432.7,292.1,344.8,206.5,245.9,197.9z"/>
			
				<linearGradient id="_Path_4_1_" gradientUnits="userSpaceOnUse" x1="127.5477" y1="664.9174" x2="229.8977" y2="575.0774" gradientTransform="matrix(1 0 0 -1 -44.14 918)">
				<stop  offset="0.41" style="stop-color:#F5222C"/>
				<stop  offset="1" style="stop-color:#CF1D26"/>
			</linearGradient>
			<path id="_Path_4" class="st2" d="M31.9,351.6c0,0,24.3-48.6,79.4-44.3c63.9,5,77.9,114.5,77.9,114.5l120.6-36.6L178.5,192.8
				C178.5,192.8,51.4,231.9,31.9,351.6z"/>
			<g id="_Group_">
				
					<linearGradient id="_Path_5_1_" gradientUnits="userSpaceOnUse" x1="245.3336" y1="842.7827" x2="341.3537" y2="714.4827" gradientTransform="matrix(1 0 0 -1 -44.14 918)">
					<stop  offset="0" style="stop-color:#FF383C"/>
					<stop  offset="0.68" style="stop-color:#E2181C"/>
					<stop  offset="1" style="stop-color:#CC1519"/>
				</linearGradient>
				<path id="_Path_5" class="st3" d="M400.4,96.4c-25.7-27-68.4-39-104.5-37.7c-68.4,2.7-163.8,48.5-166,127.4
					c-2.4,85.7,133.3,198.9,214,163.2c44.2-19.5,68.3-66.8,78.2-111.8S434.5,132.2,400.4,96.4z"/>
				<path id="_Path_6" class="st4" d="M360.3,94.2c-77.4-42.8-191.8,10.3-204.7,84.5C140.8,264.3,278,345.1,326.9,328.9
					C403.7,303.4,426.4,130.8,360.3,94.2z"/>
				<path class="st5" d="M368.4,227.2c6.2-14.2-41.9-47.1-41.9-47.1s44.7,11.4,50,0.7c5.6-11.2-61.5-44.6-61.5-44.6
					s45.8,6.2,51.4-3.7s-74.5-37.6-74.5-37.6s47.7,3.1,45.7-7.2c-1.5-7.8-46.3-21.2-90.9-4.1c-9.8,3.8-22.6,8.9-25.4,10.4
					c-13.3,7.5-57.6,42.3-49.7,53.2c5.4,7.5,25.1-1.5,36.8-7.9c-13.2,21.1-31.2,52.7-24.5,58.5c10.3,8.8,45.8-29.1,45.8-29.1
					s-28.9,72.2-19.5,77c12.3,6.2,35.3-30.1,35.3-30.1s-7,73.6,7.1,76c9.4,1.6,17.1-20,20.4-32.8c11.8,29.8,43.4,48.8,54,43
					c13.7-7.6,14.9-33.8,11.3-69.3C347.5,236.7,365.1,234.7,368.4,227.2z"/>
				<path id="_Path_7" class="st6" d="M259.3,116.7c48.9-13.3,66.9,143.2,58.3,146.9C307.2,268,210.9,129.9,259.3,116.7z"/>
				<path id="_Path_8" class="st7" d="M286,146.2c0,0,13.9,37.4-2.9,43s-31.4-36-26.3-36.4c2.2-0.2,13.4,27.7,22.7,24.2
					C286.2,174.4,280.1,145.7,286,146.2z"/>
				
					<linearGradient id="_Path_9_1_" gradientUnits="userSpaceOnUse" x1="147.9093" y1="1617.9504" x2="46.5993" y2="1729.9805" gradientTransform="matrix(0.93 0.37 0.37 -0.93 -478.28 1579.51)">
					<stop  offset="0" style="stop-color:#598F02"/>
					<stop  offset="1" style="stop-color:#74BA03"/>
				</linearGradient>
				<path id="_Path_9" class="st8" d="M243,60.9c0,0,12-29.6,62.8-60.9c0,0-2.1,57-41.1,71.2c0,0,26.9,5.4,37.4,37.3
					c0,0-33.4,12-54.4-23.8c0,0-11.2,54.4-43.3,62.8c0,0,4-46.4,19.7-61c0,0-46.5,26.6-84.3-16.2c0,0,34.9-22,94.9-4.2
					c0,0-17.5-24.7-36.1-41.7l18.7-15.9C217.3,8.6,239.6,34.3,243,60.9z"/>
			</g>
			
				<linearGradient id="_Path_10_1_" gradientUnits="userSpaceOnUse" x1="327.3003" y1="663.3513" x2="545.7503" y2="610.9813" gradientTransform="matrix(1 0 0 -1 -44.14 918)">
				<stop  offset="0" style="stop-color:#FFF4E9"/>
				<stop  offset="1" style="stop-color:#FFB2B1"/>
			</linearGradient>
			<path id="_Path_10" class="st9" d="M539.6,108.3c-114.1-13.1-230,76.1-233.2,196.6c-2.9,111.3,91.4,205.6,202,208.8
				c117.2,3.3,218.4-96.8,214.2-211.5C719,201.8,635.9,119.3,539.6,108.3z"/>
			
				<linearGradient id="_Path_11_1_" gradientUnits="userSpaceOnUse" x1="529.9337" y1="786.9547" x2="574.6237" y2="655.2747" gradientTransform="matrix(1 0 0 -1 -44.14 918)">
				<stop  offset="0" style="stop-color:#F5222C"/>
				<stop  offset="1" style="stop-color:#CF1D26"/>
			</linearGradient>
			<path id="_Path_11" class="st10" d="M539.8,106.3c-84.5-9.7-175.1,38.7-210,112.2c29.7-8.9,84.7-10.8,96.8,88.8
				c11.5,95,2.1,156.5-4.3,184.3c14.1,7.1,28.9,12.5,44.2,16.3c1.6-11.1,2.7-25.6,2.9-44.1c1.2-114.5,6.4-226.3,116.8-259.5
				c37.1-11.2,81.9-1.4,118.6,23.9C678.2,161.3,611,114.5,539.8,106.3z"/>
			
				<linearGradient id="_Path_12_1_" gradientUnits="userSpaceOnUse" x1="-23.1023" y1="75.4546" x2="-141.2024" y2="-33.5654" gradientTransform="matrix(0.93 -0.36 -0.36 -0.93 823.36 238.31)">
				<stop  offset="0" style="stop-color:#68B728"/>
				<stop  offset="0.28" style="stop-color:#63AA23"/>
				<stop  offset="0.8" style="stop-color:#578917"/>
				<stop  offset="1" style="stop-color:#527A11"/>
			</linearGradient>
			<path id="_Path_12" class="st11" d="M674.7,313.6c0,0-16.5-38-16.5-55c0-23.8,8.3-37.7,13.7-36.9c3.5,0.5,15.2,37.3,16.7,43.5
				c4.3-9.1,9.9-17.6,19.4-30.6c18.9-25.9,49.3-52.2,56-47.5c0,0,8.9-6.3-41.3,92.1c5.5-5.4,17.1-11.9,31.7-19.2
				c8-4,29.9-12.5,33.7-7.1c1.1,1.8-11.5,22.8-48.4,59.9c32.4-16.5,61.4-24.9,61.8-23.1c1,4-5.2,25.6-27.8,36.4
				c-17.2,9.5-30.4,12.9-48.9,9.6c-9.8-1.7-18.9-0.5-26.7-1.6L674.7,313.6z"/>
			
				<radialGradient id="_Path_13_1_" cx="-80.7853" cy="-188.0954" r="189.57" gradientTransform="matrix(0.9434 -0.3317 -0.3317 -0.9434 599.7838 178.4004)" gradientUnits="userSpaceOnUse">
				<stop  offset="0.51" style="stop-color:#E1171B"/>
				<stop  offset="0.79" style="stop-color:#BF1B23"/>
				<stop  offset="1" style="stop-color:#AB131D"/>
			</radialGradient>
			<path id="_Path_13" class="st12" d="M709.3,285.8c-38.7-24.4-92.2-37.2-136.2-14.7c-50.5,25.8-76,87.6-75,141.8
				c0.7,40.3,21,96.3,48.2,114.2c16.2,10.6,34,16.9,57,18.4c66.5,4.2,138.5-37.8,168.8-95.9C805.8,385.1,765.2,321,709.3,285.8z"/>
			<path class="st13" d="M657,288.6c-30.5-27.6-90.2-12.9-115.8,24.6c-21,30.7-20.8,78.9,4.9,100.3c32.9,27.4,99.9,4.7,121.4-40.1
				C679.7,347.8,679.8,309.3,657,288.6z"/>
			<path id="_Path_14" class="st14" d="M602.7,291.3c-0.9-5.8-9.5-8.5-19.4-5c-9.3,3.3-15.9,10.7-16.2,16.2
				c-0.3,6.8,9.2,10.4,19.9,6.4C596.5,305.3,603.6,297.2,602.7,291.3z"/>
			<path class="st14" d="M552.7,312.2c3.9,1.3,6,5.9,4.7,10.3s-5.6,6.9-9.5,5.6s-6-5.9-4.7-10.3S548.8,310.9,552.7,312.2z"/>
			<path id="_Path_15" class="st15" d="M595.7,403c8.6,4,14.4-19.4,10-20.8C600.6,380.5,583.8,397.4,595.7,403z"/>
			<path id="_Path_16" class="st15" d="M610.2,326.8c7.7,5.7,17.8-16,13.7-18.3C619.2,305.8,599.5,318.8,610.2,326.8z"/>
			<path id="_Path_17" class="st15" d="M543.9,381.9c9.2,2.3,11.7-21.5,6.7-23C546.3,357.5,531.7,378.9,543.9,381.9z"/>
			<g id="_Group_2">
				<path id="_Path_18" class="st16" d="M736.6,402.9c9.5,2.6,9.2-21.4,4-22.8C736.2,378.9,725.9,399.9,736.6,402.9z"/>
			</g>
			<g id="_Group_3">
				<path id="_Path_19" class="st15" d="M681.5,369.6c10.8,4.6,12.5-20.4,7.5-22.1S670.8,365,681.5,369.6z"/>
			</g>
			<g id="_Group_4">
				<path id="_Path_20" class="st16" d="M696.6,465.9c9,3.2,12.8-19.2,7.9-21.2C700.4,442.9,684.7,461.7,696.6,465.9z"/>
			</g>
			<g id="_Group_5">
				<path id="_Path_21" class="st16" d="M619.2,501.9c8.4,4.5,12.9-13.1,8.5-15.8C623.9,483.8,608.1,496,619.2,501.9z"/>
			</g>
			<g id="_Group_6">
				<path id="_Path_22" class="st15" d="M636.7,447.5c9.4,4.2,13.7-17.8,9.5-19.5C641.2,425.8,626.3,442.8,636.7,447.5z"/>
			</g>
			<g id="_Group_7">
				<path id="_Path_23" class="st15" d="M573.6,478.8c9.6,3.7,12.8-18.2,8.8-20.4C577.8,455.8,563.6,474.9,573.6,478.8z"/>
			</g>
			<g id="_Group_8">
				<path id="_Path_24" class="st15" d="M544.8,425.7c10.2,4,12-19.8,8.1-21.2C549.6,403.2,534.2,421.5,544.8,425.7z"/>
			</g>
			
				<linearGradient id="_Path_25_1_" gradientUnits="userSpaceOnUse" x1="131.7401" y1="407.889" x2="584.8301" y2="446.269" gradientTransform="matrix(1 0 0 -1 -44.14 918)">
				<stop  offset="0" style="stop-color:#FFB9B8"/>
				<stop  offset="5.000000e-02" style="stop-color:#FFB5B4"/>
				<stop  offset="0.68" style="stop-color:#FF8D8A"/>
				<stop  offset="1" style="stop-color:#FF7D7A"/>
			</linearGradient>
			<path id="_Path_25" class="st17" d="M367.2,279.5c-106.6-0.7-209.9,80.4-219,188.4C138,590.2,253,696.9,374.9,693.2
				c106.3-3.2,210.3-90,211.3-205C587.2,369.9,478.4,280.2,367.2,279.5z"/>
			
				<radialGradient id="SVGID_1_" cx="-2301.0269" cy="200.945" r="4.06" gradientTransform="matrix(67.03 -11.38 8.67 51.11 152835.8281 -36138.332)" gradientUnits="userSpaceOnUse">
				<stop  offset="0" style="stop-color:#F5222C"/>
				<stop  offset="0.41" style="stop-color:#F5222C"/>
				<stop  offset="1" style="stop-color:#CF1D26"/>
			</radialGradient>
			<path class="st18" d="M536.3,357.7c-41.9-47.9-105.1-77.8-169.1-78.2C277,279,189.1,337,158.8,420.3
				c28.8-14.4,97.2-26.4,98.4,183.1l32.2,19.3c0,0,0-160.9,94.9-167.2c96.5-6.4,98.1,162.4,98.1,162.4l30.6-22.5
				C512.9,595.3,461.2,394.1,536.3,357.7z"/>
			<g>
				<linearGradient id="SVGID_2_" gradientUnits="userSpaceOnUse" x1="265.8521" y1="295.5928" x2="370.8521" y2="387.5928">
					<stop  offset="0" style="stop-color:#FF9A96"/>
					<stop  offset="1" style="stop-color:#F52B27"/>
				</linearGradient>
				<path class="st19" d="M197.8,376.5c0,0,30.3-51.8,99.4-74.1c70.6-22.8,158.3-6.9,218.2,52.2c0,0-129.4-26.9-236.2,112.6
					C279.1,467.2,267.9,373,197.8,376.5z"/>
			</g>
			
				<linearGradient id="_Path_26_1_" gradientUnits="userSpaceOnUse" x1="106.45" y1="265.1844" x2="760.5" y2="265.1844" gradientTransform="matrix(1 0 0 -1 -44.14 918)">
				<stop  offset="0" style="stop-color:#F8BB6F"/>
				<stop  offset="2.000000e-02" style="stop-color:#F7BA6E"/>
				<stop  offset="1" style="stop-color:#E48F42"/>
			</linearGradient>
			<path id="_Path_26" class="st20" d="M767,486c0,0-72.1,74.6-210,51c0,0-38.5,99.4-179,105.6s-184-99.5-184-99.5
				S85.1,562.2,4.3,483.9L169.6,769c18.2,34.3,122.2,52.9,219.1,52.7c97.9-0.2,205.1-22,220.9-54L767,486z"/>
			
				<linearGradient id="_Compound_Path__1_" gradientUnits="userSpaceOnUse" x1="48.4" y1="265.295" x2="811.14" y2="265.295" gradientTransform="matrix(1 0 0 -1 -44.14 918)">
				<stop  offset="0" style="stop-color:#FAC873"/>
				<stop  offset="8.000000e-02" style="stop-color:#F9C56F"/>
				<stop  offset="1" style="stop-color:#ECA444"/>
			</linearGradient>
			<path id="_Compound_Path_" class="st21" d="M635.4,714.8l9.1-9.6l18.2-32.5l-33.5,35.4l-33.1-35l34.5-36l32.7,34.6l4.7-8.4
				l-31.1-32.8l33.7-35.1l22.3,23.4l4.7-8.4l-20.6-21.6l78.3-81.6L767,486c0,0-6.2,6.4-18.5,14.9l-77.9,81.3l-35-36.8l5.3-5.6
				c-7,0.8-14.2,1.3-21.8,1.6l3.8,4l-33.5,35L558.7,548l-6.7,6.2l31.1,32.8l-34.4,36.1L517.3,590c-2.2,2-4.5,4-7,6l32,33.8
				L508,665.9l-34.9-36.8l18.7-19.8c-10.7,6.8-22.1,12.5-33.9,17.1l2.5,2.7l-34.3,36.2l-23.5-24.9c-3.7,0.5-7.5,0.9-11.4,1.3
				l28.7,30.3l-34.3,36.2l-34.3-36.2l27.9-29.5c-0.4,0-0.8,0.1-1.3,0.1c-4,0.2-7.8,0.2-11.6,0.2L345,665.3l-25.7-27.1
				c-8-1.7-15.9-3.9-23.7-6.5l-32.4,34.2l-34.4-36.1l20.6-21.7c-2.6-1.8-5-3.7-7.4-5.5l-19.5,20.6L188.1,587l19.5-20.6
				c-2-2.8-3.7-5.4-5.2-7.8l-20.6,21.8l-33.1-34.8l0.9-0.9c-4.9-0.3-10.2-0.7-15.6-1.3l2.1,2.2l-35,36.6l-80.8-84.4
				c-5.6-4.4-10.9-9.1-16-14l15.5,26.7l75,78.3l-18.4,19.3l4.8,8.2l20-20.9l33.4,34.9l-28.1,29.7l4.8,8.3l29.7-31.3l34.5,36
				l-33.2,35.1l-20.2-21.3l20.1,34.7h0.1l34.3,36.2l-8.3,8.8l1.4,2.5c1,1.9,2.3,3.7,3.7,5.4l9.4-10l32.6,34.4
				c5.6,1.9,11.5,3.7,17.8,5.4l-3.4-3.6l33.8-35.7l34.5,36l-13,13.7c3.7,0.5,7.4,1,11.2,1.5l8.1-8.6l10.2,10.6
				c4.6,0.5,9.2,0.9,13.9,1.2l-17.7-18.5l34.3-36.2l34.5,36.3L360,821.2c4.1,0.1,8.2,0.2,12.3,0.3l13.3-14l13.4,14
				c4.1-0.1,8.2-0.2,12.3-0.3L392,800.9l34.5-36.3l34.3,36.2L443,819.5c4.7-0.4,9.3-0.8,13.9-1.2l10.2-10.6l8.1,8.6
				c3.8-0.5,7.5-1,11.2-1.5l-13-13.7l34.5-36l33.7,35.6l-3.9,4.2c6-1.5,11.7-3.1,17.2-4.8l33.7-35.6l12.7,13.4
				c2.4-2,4.5-4.2,6.3-6.7l-12.7-13.4l34.3-36.2l4,4.2l4.7-8.4L635.4,714.8z M629.2,552l35,36.8l-33.7,35.1l-34.8-36.8L629.2,552z
				 M589.4,593.8l34.8,36.8l-34.5,36L555,629.8L589.4,593.8z M548.7,636.5l34.7,36.6l-34.5,36l-34.6-36.5L548.7,636.5z M466.8,635.7
				l34.8,36.8l-34.4,36.1L432.5,672L466.8,635.7z M304.5,635.7l34.3,36.2L304,708.6l-34.4-36.1L304.5,635.7z M222.6,636.5l34.4,36.1
				L222.5,709L188,673L222.6,636.5z M140.8,623.8l-33.4-34.8l35-36.6l33.1,34.8L140.8,623.8z M147.2,630.4l34.7-36.7l34.4,36.1
				l-34.6,36.6L147.2,630.4z M148.4,714.8l33.3-35.1l34.5,36L182.7,751L148.4,714.8z M223.3,793.9L189,757.7l33.5-35.4l34.5,36
				L223.3,793.9z M263.3,751.6l-34.5-36l34.5-36.4l34.4,36.1L263.3,751.6z M304.1,794.3l-34.5-36l34.4-36.3l34.4,36.1L304.1,794.3z
				 M344.7,751.4l-34.4-36.1l34.7-36.7l34.3,36.2L344.7,751.4z M385.6,794.3L351,758l34.6-36.5l34.6,36.5L385.6,794.3z M391.9,714.8
				l34.3-36.2l34.7,36.7l-34.4,36.1L391.9,714.8z M467.1,794.3L432.8,758l34.4-36.1l34.4,36.4L467.1,794.3z M473.5,715.3l34.4-36.1
				l34.5,36.5l-34.5,36L473.5,715.3z M548,793.9l-33.7-35.6l34.5-36l33.4,35.3L548,793.9z M588.5,751l-33.4-35.3l34.5-36l33.2,35
				L588.5,751z"/>
			<g id="_Group_9">
				<path id="_Path_27" class="st22" d="M4.3,483.9l9.7,16.8c6.6,2.5,13.4,4.9,20.2,7.3C23.5,500.9,13.5,492.8,4.3,483.9z"/>
				<g>
					
						<linearGradient id="_Path_28_1_" gradientUnits="userSpaceOnUse" x1="135.1507" y1="433.6566" x2="401.5107" y2="328.1566" gradientTransform="matrix(1 0 0 -1 -44.14 918)">
						<stop  offset="0" style="stop-color:#E49043"/>
						<stop  offset="1" style="stop-color:#E48F42"/>
					</linearGradient>
					<path id="_Path_28" class="st23" d="M556.9,537.2c0,0-38.5,99.4-178.9,105.6s-184-99.4-184-99.4s-12.7,2.2-32.6,2
						c8.8,2.2-5.9,9.5-5.9,9.5s47.3,167.9-6,180l19.9,34.4c18.2,34.3,122.2,52.9,219.1,52.7c97.9-0.2,205.1-22,220.9-54L767,486.3
						C767,486.3,694.9,560.9,556.9,537.2z"/>
				</g>
			</g>
			
				<linearGradient id="_Path_29_1_" gradientUnits="userSpaceOnUse" x1="234.43" y1="222.8497" x2="607.28" y2="222.8497" gradientTransform="matrix(1 0 0 -1 -44.14 918)">
				<stop  offset="0" style="stop-color:#FBCD8F"/>
				<stop  offset="0.12" style="stop-color:#F9C888"/>
				<stop  offset="1" style="stop-color:#EBA758"/>
			</linearGradient>
			<path id="_Path_29" class="st24" d="M190.3,556.8c0,0,88.6,240.3,96.1,257.9c18.3,42.8,189.3,37.7,203.6-2
				c11.7-32.6,73.2-267.1,73.2-267.1S421.8,759.7,190.3,556.8z"/>
			<g id="_Group_10" class="st25">
				<path id="_Path_30" class="st26" d="M552.8,584.7c0.2-0.8,0.4-1.5,0.6-2.2l-1.4,1.4L552.8,584.7z"/>
				<path id="_Compound_Path_2" class="st26" d="M477.8,826l11.7-12.2c0.1-0.3,0.3-0.7,0.5-1.1c1.4-3.8,3.4-10.3,5.9-18.8
					l-28.7,29.9l-34.3-36.2l34.4-36.1l31.3,33.1c0.9-3.2,1.9-6.7,2.9-10.2l-27.9-29.5l34.4-36.1l9.1,9.6c0.9-3.4,1.9-6.9,2.8-10.3
					l-5.6-5.9l10-10.5l5-18.5L508,695.4l-34.9-36.8l34.3-36.2l27.6,29.2c0.9-3.5,1.9-7,2.8-10.4l-24.1-25.5l30.2-31.9l-6.7-6.3
					L507.4,609l-4.1-4.3c-2.5,1.8-5.1,3.5-7.7,5.2l5.5,5.8l-34.3,36.2L448.9,633c-3.2,1.1-6.4,2.1-9.7,3.1l21.2,22.4l-34.3,36.2
					l-34.3-36.2l14.9-15.8c-4.5,0.5-9,0.9-13.7,1.1l-7.5,8l-7.4-7.8c-4.4-0.1-8.9-0.4-13.4-0.8l14.5,15.3L345,694.8l-34.3-36.2
					l20.2-21.3c-3.3-0.8-6.6-1.8-10-2.8l-16.5,17.4l-34.3-36.2l1.6-1.7c-12.8-6.8-25.2-14.3-37.1-22.6l22.9,24.2l-32.7,34.6
					c3.6,9.6,7.2,19.5,10.9,29.5l21.3,22.3l-9.3,9.8c1.2,3.2,2.4,6.4,3.6,9.6l12.1-12.8l34.4,36.1l-27.1,28.6l3.6,9.5l29.8-31.5
					l34.4,36.1l-34.3,36.2l-24-25c3.1,8.2,5.3,13.8,6.2,16c3.9,9,14.5,15.8,28.9,20.7l-4.8-5l34.3-36.2l34.5,36.3l-13.1,13.7
					c4,0.2,8.1,0.4,12.2,0.5l7.2-7.5l7.1,7.4c4.1-0.1,8.1-0.3,12.1-0.6L392,830.5l34.5-36.3l34.3,36.2l-4.7,4.9
					C463.7,833.2,471,830,477.8,826z M466.8,665.3l34.8,36.8l-34.4,36.1l-34.7-36.7L466.8,665.3z M385.6,665.3l34.3,36.2l-34.3,36.2
					l-34.3-36.2L385.6,665.3z M263.3,695.4l-34.4-36.1l35-36.9l34.3,36.2L263.3,695.4z M304,738.1L269.6,702l34.8-36.8l34.3,36.2
					L304,738.1z M344.7,780.9l-34.4-36.1l34.7-36.7l34.3,36.2L344.7,780.9z M385.6,823.8L351,787.5l34.6-36.5l34.6,36.5L385.6,823.8
					z M391.9,744.3l34.3-36.2l34.7,36.7l-34.4,36.1L391.9,744.3z"/>
				<path id="_Path_31" class="st26" d="M202,588.6c1.1,3,2.3,6.2,3.5,9.6l13.7-14.4l-6.6-6.3L202,588.6z"/>
			</g>
			<path id="_Path_32" class="st27" d="M441.5,635.5c-6.5,67.7-29.5,186.2-110.4,181.8c-23.2-1.2-44.4-21.5-63.4-51.2
				c9.6,25.5,16.7,44.3,18.6,48.8c18.3,42.8,189.3,37.7,203.6-2c11.7-32.6,73.2-267.1,73.2-267.1S519.7,611.4,441.5,635.5z"/>
			<path id="_Path_33" class="st28" d="M203.4,531.1c0,0,169.4,182.6,352.7-10.3c0,0-24.9,123.3-178,123.3S203.4,531.1,203.4,531.1z
				"/>
			<path id="_Path_34" class="st29" d="M82.5,278.6c-5.6-7,32.8-40.6,38.3-34.4C127.2,251.5,88.9,286.7,82.5,278.6z"/>
			<path id="_Path_35" class="st30" d="M199,378c-10-9.1,39.6-54.2,46.8-46.1C252.5,339.5,207,385.3,199,378z"/>
			<path id="_Path_36" class="st30" d="M259.5,323.5c-5.1-10.1,16-19.2,19.9-9.7C283.6,324.3,264,332.5,259.5,323.5z"/>
			<path id="_Path_37" class="st29" d="M371.3,192.6c-8.5-8.1,41.9-49.3,49.5-40C427.9,161.4,380,200.8,371.3,192.6z"/>
			<path id="_Path_38" class="st29" d="M437.7,144.8c-5.7-8.3,21.3-20.4,25.5-12S443.4,153.1,437.7,144.8z"/>
			<path class="st31" d="M767.9,457.2c-4.7,7.8-10,15.1-15.9,22c-5.4,7-14.4,15.4-24.8,23.6c-29.6,19.2-85.5,33.4-170.9,17.9
				c-36.9,67-110.4,113.3-185.7,111.9c-108.9-2-163.2-95.3-167-101.5C84.2,542.2,30.1,499.3,25,466.1c-0.7-4.6,3.3-15.1,11-21.4
				c-2.8-6.8-3-11-5-18.1c-19.4,14-29.7,27.9-30.8,38.7c-3.7,35.6,68.3,111.4,190.1,91.5c3.4,5.9,67.1,97.2,176.9,100.5
				c78.1,2.4,159.4-40.5,195.9-111.7C711,573,773,500.9,771.9,470.5C771.7,465.8,770.3,461.2,767.9,457.2z"/>
			<ellipse class="st32" cx="367" cy="313.4" rx="21.8" ry="11.1"/>
			<ellipse class="st32" cx="431.2" cy="367.3" rx="21.8" ry="11.1"/>
			<ellipse class="st32" cx="509.7" cy="121.5" rx="21.8" ry="11.1"/>
			
				<linearGradient id="SVGID_3_" gradientUnits="userSpaceOnUse" x1="669.8578" y1="-11.837" x2="727.1879" y2="-165.237" gradientTransform="matrix(0.9754 0.2204 0.2204 -0.9754 -507.6685 589.0934)">
				<stop  offset="0" style="stop-color:#E1171B"/>
				<stop  offset="1" style="stop-color:#B82423"/>
			</linearGradient>
			<path class="st33" d="M233.7,701.4c36.7,36.6,63.4,86.4,40,134.1c-38.2,77.6-145.1,103.1-207.3,56.9
				c-84.2-62.7-51-191.3,27-228.9C139.6,641.2,198.3,666.2,233.7,701.4z"/>
			
				<linearGradient id="SVGID_4_" gradientUnits="userSpaceOnUse" x1="669.0663" y1="-12.1513" x2="726.3864" y2="-165.5313" gradientTransform="matrix(0.9754 0.2204 0.2204 -0.9754 -507.6685 589.0934)">
				<stop  offset="0" style="stop-color:#8C300A"/>
				<stop  offset="1" style="stop-color:#6C2508"/>
			</linearGradient>
			<path class="st34" d="M269.9,831.7c-36.3,34.9-90.6,55.9-144.8,52.9c-35.1-2-68.6-14.4-94.4-34c8.6,16.5,20.8,30.8,35.8,41.7
				c62.1,46.2,169.1,20.7,207.3-56.9c1.8-3.6,3.3-7.3,4.5-11.2C275.5,826.8,272.8,829.3,269.9,831.7z"/>
			<path class="st13" d="M163.9,700c-8.8-29.2-43.9-38.2-71.5-25.2c-20.8,9.8-44.5,37.9-32.7,64.8c10.3,23.4,39.6,37.7,76.4,17.5
				C155.7,746.3,170.8,722.6,163.9,700z"/>
			<path class="st35" d="M271.7,753.6c-8.9-18.9-22.5-36.7-37.9-52.1l-49.7-0.1c0,0-41.1,19.7,50.7,24.9
				C234.9,726.4,245.8,764.8,271.7,753.6z"/>
			<g id="_Group_11">
				
					<linearGradient id="SVGID_5_" gradientUnits="userSpaceOnUse" x1="1304.4523" y1="2021.7129" x2="1252.0023" y2="1986.3828" gradientTransform="matrix(0.5162 0.8564 0.8564 -0.5162 -2140.4468 643.7207)">
					<stop  offset="0" style="stop-color:#598F02"/>
					<stop  offset="1" style="stop-color:#74BA03"/>
				</linearGradient>
				<path class="st36" d="M252.7,722.5c13.2,1.8,26.6,1.9,39.9,0.2c-18.6-20.9-41.7-24.6-41.7-24.6s-4.5-2.9-4.6-7.7
					c4.2-11.7,3-24.6-3.2-35.3c-6.9,7.2-11.6,16.3-13.5,26.1c0,0-0.2-18-23.9-32.6c-1.1,21.4,6.6,32.1,6.6,32.1
					c-16.2-0.1-32,4.1-46,12.2c39.4,27,64.2,20.1,64.2,20.1s-7.4,24.5,12.7,46.5C253.5,747.7,252.7,722.5,252.7,722.5z"/>
			</g>
			<g id="_Group_12">
				<path id="_Path_39" class="st16" d="M97.3,830.4c7.3,4.4,15.2-14.2,11.4-16.8C105.4,811.3,87.5,824.6,97.3,830.4z"/>
			</g>
			<g id="_Group_13">
				<path id="_Path_40" class="st16" d="M52.1,841.7c7.3,4.4,13.6-12.2,9.7-14.9C58.5,824.6,42.3,835.9,52.1,841.7z"/>
			</g>
			<g id="_Group_14">
				<path id="_Path_41" class="st37" d="M98.8,886.2c7.3,4.4,15.3-10.7,11.4-13.3C107,870.7,89.1,880.4,98.8,886.2z"/>
			</g>
			<g id="_Group_15">
				<path id="_Path_42" class="st15" d="M114.6,718.9c5,6.8,18.4-6.4,15.8-10.3C128.2,705.3,107.9,709.9,114.6,718.9z"/>
			</g>
			<g id="_Group_16">
				<path id="_Path_43" class="st16" d="M240.5,795.7c8.3,3.4,11.6-17.3,7-19.2C243.7,775,231.1,791.8,240.5,795.7z"/>
			</g>
			<g id="_Group_17">
				<path id="_Path_44" class="st15" d="M166.1,752.6c7,8.2,19-10.9,15.5-14.4S159.1,744.6,166.1,752.6z"/>
			</g>
			<g id="_Group_18">
				<path id="_Path_45" class="st16" d="M143.5,821.9c6.9,5.1,16.6-12.6,13-15.6C153.5,803.7,134.4,815.1,143.5,821.9z"/>
			</g>
			<g id="_Group_19">
				<path id="_Path_46" class="st16" d="M191.2,801.1c8,4.8,14.6-13.8,11-15.9C198,782.8,182.4,795.7,191.2,801.1z"/>
			</g>
			<g id="_Group_20">
				<path id="_Path_47" class="st37" d="M159.3,877.5c7.5,5.5,15.7-12.5,12.4-14.9C167.6,859.8,150.9,871.3,159.3,877.5z"/>
			</g>
			<g id="_Group_21">
				<path id="_Path_48" class="st37" d="M210.1,846.7c7.5,5.5,15.7-12.5,12.4-14.9C218.5,829,201.8,840.5,210.1,846.7z"/>
			</g>
			<g id="_Group_22">
				<path id="_Path_49" class="st15" d="M92.3,778.1c7.3,5.7,16.1-12,12.8-14.5C101.2,760.7,84.1,771.8,92.3,778.1z"/>
			</g>
			<g id="_Group_23">
				<path id="_Path_50" class="st15" d="M43.8,768.3c9.2,3.7,11.5-17.2,7.9-18.6C48.7,748.6,34.2,764.5,43.8,768.3z"/>
			</g>
			
				<linearGradient id="_Path_51_1_" gradientUnits="userSpaceOnUse" x1="1293.8649" y1="2018.7415" x2="1302.0248" y2="2099.4514" gradientTransform="matrix(0.5162 0.8564 0.8564 -0.5162 -2140.4468 643.7207)">
				<stop  offset="0" style="stop-color:#598F02"/>
				<stop  offset="1" style="stop-color:#74BA03"/>
			</linearGradient>
			<path id="_Path_51" class="st38" d="M240.8,690.2c0,0-3.8,4.4-6.8,8.1s2,9.6,4.9,6.6s6.6-7,6.6-7s45.1-53.6,76.1-37
				c23.5,12.6,16.5,34.1,9.7,50.7l19,1.2c0,0,18.9-40.1-10.3-61.5C318.4,635.5,283.9,632.8,240.8,690.2z"/>
			<path class="st14" d="M63.5,702.9c3.9,1.3,6,5.9,4.7,10.3s-5.5,6.9-9.5,5.6s-6-5.9-4.7-10.3S59.7,701.6,63.5,702.9z"/>
			
				<linearGradient id="SVGID_6_" gradientUnits="userSpaceOnUse" x1="542.466" y1="812.3575" x2="561.306" y2="782.3275" gradientTransform="matrix(1 0 0 -1 -44.14 918)">
				<stop  offset="0" style="stop-color:#FFF2E3"/>
				<stop  offset="1" style="stop-color:#FA9E9E"/>
			</linearGradient>
			<circle class="st39" cx="502.4" cy="112.2" r="19.8"/>
			
				<linearGradient id="SVGID_7_" gradientUnits="userSpaceOnUse" x1="456.3376" y1="574.0282" x2="479.8876" y2="541.6482" gradientTransform="matrix(1 0 0 -1 -44.1428 918.0046)">
				<stop  offset="0" style="stop-color:#FFF2E3"/>
				<stop  offset="1" style="stop-color:#FA9E9E"/>
			</linearGradient>
			<circle class="st40" cx="422.7" cy="358.4" r="19.8"/>
			
				<linearGradient id="SVGID_8_" gradientUnits="userSpaceOnUse" x1="392.4128" y1="630.4014" x2="410.5428" y2="594.1414" gradientTransform="matrix(1 0 0 -1 -44.1175 917.9948)">
				<stop  offset="0" style="stop-color:#FFF2E3"/>
				<stop  offset="1" style="stop-color:#FA9E9E"/>
			</linearGradient>
			<circle class="st41" cx="357" cy="305.1" r="19.8"/>
			<path id="_Path_52" class="st14" d="M112,679.7c-0.9-5.8-9.5-8.5-19.4-5c-9.3,3.3-15.9,10.7-16.2,16.2
				c-0.3,6.8,9.2,10.4,19.9,6.4C105.8,693.7,112.9,685.5,112,679.7z"/>
		</g>
	</g>
</g>
</svg>
