<svg xmlns="http://www.w3.org/2000/svg" xmlns:xlink="http://www.w3.org/1999/xlink" viewBox="0 0 705.2 883.57"><defs><style>.cls-1{fill:none;}.cls-2{fill:#ff4251;}.cls-3{fill:#ffdedb;}.cls-4{fill:#64260f;}.cls-5,.cls-6{fill:#69001e;}.cls-5{opacity:0.2;}.cls-6{opacity:0.1;}.cls-7{fill:#ff999d;}.cls-8{fill:#ff6571;}.cls-26,.cls-31,.cls-32,.cls-9{opacity:0.5;}.cls-9{fill:url(#linear-gradient);}.cls-10{fill:#f1656b;}.cls-11{fill:#db5a5f;}.cls-12{fill:url(#linear-gradient-2);}.cls-13{fill:#ffe8f1;}.cls-14{fill:#6fb41d;}.cls-15{fill:url(#linear-gradient-3);}.cls-16{fill:url(#linear-gradient-4);}.cls-17{fill:url(#linear-gradient-5);}.cls-18{fill:url(#linear-gradient-6);}.cls-19{fill:url(#linear-gradient-7);}.cls-20{fill:url(#linear-gradient-8);}.cls-21{fill:#8a533e;}.cls-22{clip-path:url(#clip-path);}.cls-23{fill:url(#linear-gradient-9);}.cls-24{fill:url(#radial-gradient);}.cls-25{fill:#ab1118;}.cls-26{fill:#f74346;}.cls-27{fill:#f79421;}.cls-28{fill:#eb6000;}.cls-29{fill:#fff;}.cls-29,.cls-34{opacity:0.7;}.cls-30{fill:#ffd2c2;}.cls-31,.cls-33{fill:#f16b71;}.cls-34{fill:#c2565b;}</style><linearGradient id="linear-gradient" x1="146.23" y1="499.72" x2="448.48" y2="344.34" gradientTransform="translate(-44.14)" gradientUnits="userSpaceOnUse"><stop offset="0" stop-color="#fff"/><stop offset="1" stop-color="#ff999d"/></linearGradient><linearGradient id="linear-gradient-2" x1="654.24" y1="222.9" x2="682.06" y2="259.99" gradientTransform="matrix(1, 0.01, -0.01, 1, -118.21, 24.89)" gradientUnits="userSpaceOnUse"><stop offset="0" stop-color="#ffe8f1"/><stop offset="0.98" stop-color="#f5d2e0"/></linearGradient><linearGradient id="linear-gradient-3" x1="342.37" y1="122.52" x2="490.55" y2="122.52" gradientTransform="matrix(1, 0.01, -0.01, 1, -118.21, 24.89)" gradientUnits="userSpaceOnUse"><stop offset="0" stop-color="#6fb41d"/><stop offset="0.19" stop-color="#6bae1e"/><stop offset="0.46" stop-color="#619c21"/><stop offset="0.78" stop-color="#507e27"/><stop offset="1" stop-color="#42652b"/></linearGradient><linearGradient id="linear-gradient-4" x1="228.31" y1="159.05" x2="430.43" y2="159.05" xlink:href="#linear-gradient-3"/><linearGradient id="linear-gradient-5" x1="706.36" y1="285.45" x2="734.18" y2="322.54" xlink:href="#linear-gradient-2"/><linearGradient id="linear-gradient-6" x1="270.75" y1="369.01" x2="312.05" y2="406.94" xlink:href="#linear-gradient-2"/><linearGradient id="linear-gradient-7" x1="579.66" y1="445.11" x2="613.37" y2="471.24" xlink:href="#linear-gradient-2"/><linearGradient id="linear-gradient-8" x1="350.79" y1="434.49" x2="380.29" y2="485.06" xlink:href="#linear-gradient-2"/><clipPath id="clip-path"><path class="cls-1" d="M489.19,47.45C287-48.18,164,228.43,168.1,329.58c0,0,5.58,11.7,18.26,27.64-.46-1.35-.94-2.7-1.37-4.07,34.76,29.46,89.53,49.27,174.28,50.72S516.32,382,553.19,359.48c17.6-20.48,26.29-36.57,26.29-36.57S691.41,143.08,489.19,47.45Z"/></clipPath><linearGradient id="linear-gradient-9" x1="910.87" y1="212.91" x2="784.19" y2="329.85" gradientTransform="translate(-351.88 -68.29) rotate(-1.79)" gradientUnits="userSpaceOnUse"><stop offset="0" stop-color="#68b728"/><stop offset="0.28" stop-color="#63aa23"/><stop offset="0.8" stop-color="#578917"/><stop offset="1" stop-color="#527a11"/></linearGradient><radialGradient id="radial-gradient" cx="591.13" cy="-1066.38" r="230.57" gradientTransform="translate(-730.51 762.81) rotate(34.68)" gradientUnits="userSpaceOnUse"><stop offset="0.54" stop-color="#e1171b"/><stop offset="0.79" stop-color="#bf1b23"/><stop offset="1" stop-color="#ab131d"/></radialGradient></defs><title>Asset 7</title><g id="Layer_2" data-name="Layer 2"><g id="Layer_4" data-name="Layer 4"><path class="cls-2" d="M0,371.64l2.69,318,23,75.29s72.75,92,332.48,98.09c234.82,5.46,331.14-88.74,331.14-88.74l14.91-67.46L700.28,381.5Z"/><path class="cls-3" d="M365.54,696.41c-161.09,2.37-306.89-78.47-364-149.12L2.7,689.68l13,77.14S100.31,863,360,869.05C641.4,875.59,652,823,699.13,780.42l5.06-73.56-1.43-118.72C662.39,624.49,502.72,700.39,365.54,696.41Z"/><path class="cls-4" d="M356.63,796.07q-185-3.18-343.56-98.14L2.7,689.68l1.11,98a40.81,40.81,0,0,0,.26,4.71c11.7,20.08,110.83,95.88,357.71,91C601.4,878.57,705.2,816,705.2,816L704,723.22C627.22,757.48,492.89,798,356.63,796.07Z"/><path class="cls-5" d="M627.64,439.81c7.78,140.6,4.77,278.38-3.53,407.21C681.87,825.84,705.2,816,705.2,816l-1-109.1L700.28,381.5l-61.43-.86C638.28,404.66,626.32,415.82,627.64,439.81Z"/><path class="cls-6" d="M.05,375.73,2.7,689.68l1.11,98c-.07,1.53.25,3.11.21,4.63,3.17,5.51,13,15.28,30.79,26.45-.45-108.39-7.29-351-3.1-442.57Z"/><ellipse class="cls-7" cx="350.14" cy="376.57" rx="225.22" ry="350.17" transform="translate(-31.32 721.38) rotate(-89.19)"/><path class="cls-8" d="M347,601.77c179.57,2.53,328.76-82.33,350.56-194.06C678.93,292.57,532.22,201.32,352.65,198.8,173.58,196.27,24.67,282.86,2.2,397,23,509.75,190.21,599.56,347,601.77Z"/><path class="cls-9" d="M351.92,169.34C531.18,171.86,676,277.21,673.75,368.86,671.15,476.5,542.94,573,345.28,570.26,175.47,567.87,24.91,467.39,24.6,359.72,24.36,273.89,172.67,166.81,351.92,169.34Z"/><path class="cls-10" d="M207.19,368.42S318.6,509.08,582.56,381.05C582.56,381.05,458.31,217.89,207.19,368.42Z"/><path class="cls-11" d="M558.87,268.09c-15.32-.21-27.82,6.14-27.94,14.2s12.21,14.77,27.52,15,27.82-6.15,27.94-14.21S574.18,268.31,558.87,268.09Z"/><path class="cls-12" d="M570.84,276.83A23.82,23.82,0,1,1,547.35,253,23.67,23.67,0,0,1,570.84,276.83Z"/><path class="cls-11" d="M178,409.45c-15.32-.21-27.82,6.15-27.93,14.2s12.2,14.77,27.52,15,27.82-6.15,27.93-14.2S193.3,409.67,178,409.45Z"/><path class="cls-11" d="M245.09,460.7c-15.32-.21-27.82,6.15-27.94,14.2s12.21,14.77,27.53,15,27.81-6.14,27.93-14.2S260.4,460.92,245.09,460.7Z"/><path class="cls-11" d="M477,474.18c-15.31-.21-27.82,6.15-27.93,14.21s12.21,14.77,27.52,15,27.82-6.14,27.93-14.2S492.28,474.4,477,474.18Z"/><path class="cls-11" d="M614.21,339.52c-15.31-.22-27.82,6.14-27.93,14.2s12.21,14.77,27.52,15,27.82-6.15,27.93-14.21S629.52,339.74,614.21,339.52Z"/><path class="cls-13" d="M105.3,311.25a23.82,23.82,0,1,1-23.49-23.88A23.67,23.67,0,0,1,105.3,311.25Z"/><path class="cls-14" d="M245.61,0s-80.42,173.39,62.13,286.72l61.57-43.11S335.85,76,245.61,0Z"/><path class="cls-15" d="M265.88,19.54c21.57,57.17,34.19,153.92,1.7,226.84a237,237,0,0,0,40.16,40.34l61.57-43.11S340.91,101.36,265.88,19.54Z"/><path class="cls-14" d="M120.25,59.9s-74.73,241.54,152.21,251l36.59-58.12S275.7,199,222,151.94C170.55,106.87,120.25,59.9,120.25,59.9Z"/><path class="cls-16" d="M222,151.94c-40.42-35.4-80.1-72-95.28-86C167,134,214.57,219.21,187.51,291.66c22,10.8,49.89,17.82,84.95,19.28l36.59-58.12S275.7,199,222,151.94Z"/><path class="cls-17" d="M622.08,340.1a23.82,23.82,0,1,1-23.49-23.87A23.69,23.69,0,0,1,622.08,340.1Z"/><path class="cls-18" d="M183,409.24a23.82,23.82,0,1,1-23.48-23.88A23.67,23.67,0,0,1,183,409.24Z"/><path class="cls-19" d="M486.4,484.42a23.82,23.82,0,1,1-23.49-23.88A23.69,23.69,0,0,1,486.4,484.42Z"/><path class="cls-20" d="M252.67,468.93a23.82,23.82,0,1,1-23.49-23.88A23.68,23.68,0,0,1,252.67,468.93Z"/><path class="cls-10" d="M337.23,478.1c-.06,4.1-4.31,7.36-9.51,7.29s-9.35-3.46-9.3-7.55,4.32-7.36,9.51-7.29S337.29,474,337.23,478.1Z"/><path class="cls-10" d="M307.12,495.24c-.06,4.1-4.32,7.36-9.51,7.28s-9.36-3.45-9.3-7.54,4.32-7.36,9.51-7.29S307.18,491.14,307.12,495.24Z"/><path class="cls-10" d="M606.6,418.29c-.06,4.09-4.32,7.35-9.51,7.28s-9.36-3.45-9.3-7.55,4.32-7.36,9.51-7.28S606.66,414.19,606.6,418.29Z"/><path class="cls-10" d="M611.05,446.39c-.06,4.1-4.32,7.36-9.51,7.29s-9.36-3.46-9.3-7.55,4.32-7.36,9.51-7.29S611.11,442.3,611.05,446.39Z"/><path class="cls-10" d="M647.18,429.64c0,3.15-3.32,5.65-7.3,5.6s-7.19-2.66-7.15-5.8,3.32-5.65,7.31-5.6S647.22,426.5,647.18,429.64Z"/><ellipse class="cls-10" cx="101.12" cy="424.89" rx="7.42" ry="9.4" transform="translate(-325.15 520.01) rotate(-89.19)"/><path class="cls-10" d="M138,450c0,3.23-3.4,5.8-7.49,5.74s-7.38-2.72-7.33-5.95,3.4-5.8,7.49-5.74S138.05,446.81,138,450Z"/><path class="cls-21" d="M668.12,751.51c-10.75-.15-11,16.56-.23,16.71S678.9,751.66,668.12,751.51Z"/><path class="cls-21" d="M656.51,784.66a10.76,10.76,0,0,0-15.2-.21,11.19,11.19,0,0,0-3.25,7.55v.84a11.06,11.06,0,0,0,3,7.64,10.73,10.73,0,0,0,15.19.22,11.16,11.16,0,0,0,3.25-7.55l0-.85A11.1,11.1,0,0,0,656.51,784.66Z"/><path class="cls-21" d="M590.93,777.13c-13.82-.19-14.15,21.29-.3,21.49S604.78,777.33,590.93,777.13Z"/><path class="cls-21" d="M557.73,808.58c-9.22-.13-9.43,14.2-.2,14.33S567,808.71,557.73,808.58Z"/><path class="cls-21" d="M66.75,751.21A9.09,9.09,0,0,0,64,747.09a7.72,7.72,0,0,0-4.73-1.77c-2.74,0-5.92,1.32-7.14,3.95a7.77,7.77,0,0,0-.8,5.51,7.28,7.28,0,0,0,3.23,4.33,8.18,8.18,0,0,0,4,.93,6.6,6.6,0,0,0,3.07-.09A7.19,7.19,0,0,0,66,756.72C66.81,755.15,67.45,753,66.75,751.21Z"/><path class="cls-21" d="M76.49,781.29c-10.75-.15-11,16.56-.24,16.71S87.26,781.44,76.49,781.29Z"/><g class="cls-22"><path id="_Path_" data-name="&lt;Path&gt;" class="cls-23" d="M451.18,194.32s-3.62-52,3.52-72.3,30-52.54,35.91-51.91,2.12,84.08,2.12,84.08,49.36-36.66,61.25-31.07S516.09,186,516.09,186s76.35,4.87,85.84,14.07c2.57,2.51-30,23.21-60.88,27-22.22,2.73-72.54-9.17-72.54-9.17Z"/><g id="_Group_" data-name="&lt;Group&gt;"><g id="_Group_2" data-name="&lt;Group&gt;"><path id="_Path_2" data-name="&lt;Path&gt;" class="cls-24" d="M488.28,172.43c-60-63.24-130.48-87.29-196-48.12-61.09,36.54-145.8,188.46-58.93,288.26,81.46,93.59,240.15,39.28,295.25-34C567.69,326.55,541.71,228.74,488.28,172.43Z"/><path class="cls-25" d="M197,326.7a49.93,49.93,0,0,0,1.54,6.12A15.74,15.74,0,0,0,197,326.7Z"/><path class="cls-26" d="M410.33,136.89c-38.05-35.19-113.43-17.32-146.27,29.62-26.87,38.43-27.23,99.17,4.88,126.47C310,327.9,394.7,300.09,422.35,244,438.18,211.83,438.83,163.26,410.33,136.89Z"/><path id="_Path_3" data-name="&lt;Path&gt;" class="cls-27" d="M343,262.88c8.52,8.4,25.23-17,20.56-20.56C358.3,238.25,331.22,251.22,343,262.88Z"/><path id="_Path_4" data-name="&lt;Path&gt;" class="cls-27" d="M385,192.77c6.7,10,27.9-11.52,24-16C404.64,171.67,375.71,178.88,385,192.77Z"/><path id="_Path_5" data-name="&lt;Path&gt;" class="cls-27" d="M277.55,206.31c9.82,6.44,22.38-20.16,17.2-24C290.37,179,264.52,197.77,277.55,206.31Z"/><g id="_Group_3" data-name="&lt;Group&gt;"><path id="_Path_6" data-name="&lt;Path&gt;" class="cls-28" d="M497.47,337.71c10.16,7.09,22.87-23.38,17.26-27.25C510,307.2,485.91,329.63,497.47,337.71Z"/></g><g id="_Group_4" data-name="&lt;Group&gt;"><path id="_Path_7" data-name="&lt;Path&gt;" class="cls-27" d="M429.75,267.28c9.15,11.9,26.88-14.89,22.3-20S420.67,255.48,429.75,267.28Z"/></g><g id="_Group_5" data-name="&lt;Group&gt;"><path id="_Path_8" data-name="&lt;Path&gt;" class="cls-28" d="M419.9,373.59c6.82,9.83,27.18-10.22,23.74-15.86C440.74,353,410.84,360.54,419.9,373.59Z"/></g><g id="_Group_6" data-name="&lt;Group&gt;"><path id="_Path_9" data-name="&lt;Path&gt;" class="cls-28" d="M219.45,313c9,7.93,24-16.37,19.27-21C234.76,288.06,207.54,302.5,219.45,313Z"/></g><g id="_Group_7" data-name="&lt;Group&gt;"><path id="_Path_10" data-name="&lt;Path&gt;" class="cls-27" d="M348.16,345.89c9.33,9,23.69-15.39,19.47-19.25C362.64,322.07,337.79,335.94,348.16,345.89Z"/></g><g id="_Group_8" data-name="&lt;Group&gt;"><path id="_Path_11" data-name="&lt;Path&gt;" class="cls-27" d="M269.15,360.84c9,9.35,24.26-14.39,20.2-18.44C284.55,337.63,259.19,350.45,269.15,360.84Z"/></g><g id="_Group_9" data-name="&lt;Group&gt;"><path id="_Path_12" data-name="&lt;Path&gt;" class="cls-27" d="M272.06,267.25c10.41,9,22.59-18.49,18.51-21.85C287.11,242.54,261.19,257.81,272.06,267.25Z"/></g></g><path id="_Path_13" data-name="&lt;Path&gt;" class="cls-29" d="M377.54,139.22c1.38-7.3-7.66-14.13-20.9-14.12-12.4,0-23.37,6-26,12.43-3.23,7.95,6.63,16.19,21,16C364.38,153.3,376.14,146.57,377.54,139.22Z"/></g><path class="cls-29" d="M309.37,143.07c4.09,3.17,4.63,9.51,1.22,14.16s-9.49,5.84-13.58,2.67-4.63-9.51-1.21-14.16S305.29,139.89,309.37,143.07Z"/></g><path class="cls-30" d="M22.74,449.21s47.41,115.9,241.43,144C264.17,593.25,108.06,558.55,22.74,449.21Z"/><path class="cls-31" d="M539,729.31c-3.27-2.87-6.76-2.46-10.28-.41a7.36,7.36,0,0,0-1.64,11.39C533.63,747,546.37,735.71,539,729.31Z"/><g class="cls-32"><path class="cls-33" d="M578.52,675.79c-7.08-2.14-15,3.82-14.92,11.51.22,14,22.28,12.6,22.47-.83A11,11,0,0,0,578.52,675.79Z"/></g><path class="cls-31" d="M612.56,707c-.24-.34-.47-.69-.7-1-2.46-3.67-7.49-4.85-10.86-1.56s-2.36,8.35,1.24,10.91l1,.72C608.69,719.87,616.24,712.52,612.56,707Z"/><path class="cls-34" d="M655.77,677.32c-9.72-.14-9.94,14.92-.21,15.06S665.48,677.45,655.77,677.32Z"/></g></g></svg>