<?xml version="1.0" encoding="utf-8"?>
<!-- Generator: Adobe Illustrator 22.1.0, SVG Export Plug-In . SVG Version: 6.00 Build 0)  -->
<svg version="1.1" id="Layer_1" xmlns="http://www.w3.org/2000/svg" xmlns:xlink="http://www.w3.org/1999/xlink" x="0px" y="0px"
	 viewBox="0 0 454.8 389.7" style="enable-background:new 0 0 454.8 389.7;" xml:space="preserve">
<style type="text/css">
	.st0{fill:#662C1D;}
	.st1{opacity:0.2;fill:#331109;enable-background:new    ;}
	.st2{fill:#964E3B;}
	.st3{opacity:0.2;fill:#ECB39A;enable-background:new    ;}
	.st4{fill:url(#_Path_6_1_);}
	.st5{opacity:0.5;fill:#662C1D;enable-background:new    ;}
	.st6{opacity:0.1;fill:#ECB39A;enable-background:new    ;}
</style>
<title>Asset 18</title>
<g>
	<g id="Layer_2_1_">
		<g id="Layer_4">
			<g id="_Group_">
				<g id="_Group_2">
					<path id="_Path_" class="st0" d="M0,329.4c0,0-2.6,32.7,35.2,23.5c0,0,10,34,48,12.2c0,0,19.2,34.7,50.1,6.4
						c0,0,19.1,36.8,51.3,3.8c0,0,27.6,33.7,52.1-2.3c0,0,27.6,26,48.3-10c0,0,31.4,17.6,43.7-19.9c0,0,31.4,14.6,38.3-20.7
						c0,0,31.4,11.5,36.8-25.3c0,0,30.6,13,31.9-32.2c0,0,23.5-2,18.4-40.9L424.4,19.9L5.7,223.2L0,329.4z"/>
					<path id="_Path_2" class="st1" d="M328.7,343.2c0,0,31.4,14.6,38.3-20.7c0,0,31.4,11.5,36.8-25.3c0,0,30.6,13,31.9-32.2
						c0,0,23.5-2,18.4-40.9L424.4,19.9l-110,53.4c6.1,52.1,2.8,107.1-37.6,165.8l8.2,124C285,363.1,316.4,380.7,328.7,343.2z"/>
					<path id="_Path_3" class="st2" d="M7.7,228.3C-4.6,207.9,48.5,91.4,163,34.2S416.3,5.6,424.5,19.9s-10.3,155.2-139,216.5
						C136.1,307.6,16.7,243.2,7.7,228.3z"/>
					<path id="_Path_4" class="st3" d="M297.1,0.6C254.6,2.9,207,12.2,163,34.2C48.5,91.4-4.6,207.9,7.7,228.3
						c8.8,14.6,123.2,76.5,268.1,12.6C333.9,153,318.6,60.4,297.1,0.6z"/>
					<path id="_Path_5" class="st0" d="M48.6,208.2C40.8,202,86,105.1,171.9,59.9c86.7-45.7,212.3-25,217-17.2
						s-6.2,99.9-118.6,159.3S53.6,212.2,48.6,208.2z"/>
					
						<linearGradient id="_Path_6_1_" gradientUnits="userSpaceOnUse" x1="238.0696" y1="310.9998" x2="308.5396" y2="152.6898" gradientTransform="matrix(1 0 0 -1 -44.14 392)">
						<stop  offset="0" style="stop-color:#964E3B"/>
						<stop  offset="1" style="stop-color:#662C1D"/>
					</linearGradient>
					<path id="_Path_6" class="st4" d="M378.3,61.8c-4.4-7.4-116-26.2-199.8,16C103,115.9,59.5,203.5,60,213.7
						c30.6,12.5,117.4,38,210-10.9c62.2-32.9,92.9-72.8,108.2-109.7C384.1,75.2,379.9,64.4,378.3,61.8z"/>
					<path id="_Path_7" class="st5" d="M69.6,157.1c-3.9,6.1-7.3,12-10.2,17.4c19.8,13.8,50.9,35.3,81.1,56.2
						c10.8,0.5,21.5,0.4,32.3-0.4L69.6,157.1z"/>
					<path id="_Path_8" class="st5" d="M80,141.7c23.9,16.6,79,54.9,121.9,84.5c7.8-1.5,15.7-3.5,23.7-5.9L92.5,125.8
						C88,131.2,83.9,136.5,80,141.7z"/>
					<path id="_Path_9" class="st5" d="M249.2,211.9c6.3-2.6,12.7-5.6,19.1-8.9L119.4,97.4c-5.1,4.7-10,9.5-14.6,14.4
						C127.7,127.8,202.2,179.6,249.2,211.9z"/>
					<path id="_Path_10" class="st5" d="M133.9,85c23.4,16.3,108,75,154.2,106.8c5.7-3.5,11.1-7.1,16.2-10.8L151.1,72.4
						C145.1,76.4,139.4,80.6,133.9,85z"/>
					<path id="_Path_11" class="st5" d="M321.2,167.7c4.8-4.1,9.4-8.3,13.6-12.5L189.1,51.8c-5.9,2.4-11.6,5.1-17.2,8
						c-1.2,0.6-2.4,1.3-3.6,2C197.5,82.1,278.4,138.3,321.2,167.7z"/>
					<path id="_Path_12" class="st5" d="M210.7,44.2c34.8,24.2,100.2,69.6,138.2,95.7c4-4.8,7.7-9.6,11-14.4L236.4,37.8
						C227.8,39.5,219.2,41.7,210.7,44.2z"/>
					<path id="_Path_13" class="st5" d="M263.3,33.6c33,22.9,76.8,53.2,107.5,74.4c3-5.4,5.7-10.9,8.2-16.6l-84.7-60.1
						C284.3,31.7,273.9,32.4,263.3,33.6z"/>
				</g>
				<path id="_Path_14" class="st3" d="M62.9,372.3c-0.3-61.5-13.2-101.8-17.6-99.6c-4.6,2.3-10,80.2-10,80.2S41.5,374.1,62.9,372.3
					z"/>
				<path id="_Path_15" class="st6" d="M105.9,382.4c3.3-52.8-11.1-96.4-15.4-92.8c-4.6,3.8-7.2,75.6-7.2,75.6
					S91.5,380.1,105.9,382.4z"/>
				<path id="_Path_16" class="st6" d="M161.6,388.9c-0.1-51.2-17.4-97.3-22.9-93.2c-6.1,4.6-5.4,75.8-5.4,75.8
					S143.5,391.1,161.6,388.9z"/>
				<path id="_Path_17" class="st3" d="M13.8,258.2c-4.1,1.2-6.9,61.9-7.9,89.7c2.8,3.1,6.8,5.5,12.7,6.3
					C22.1,317.1,18.6,256.8,13.8,258.2z"/>
			</g>
		</g>
	</g>
</g>
</svg>
