<svg xmlns="http://www.w3.org/2000/svg" xmlns:xlink="http://www.w3.org/1999/xlink" viewBox="0 0 964.67 940.44"><defs><style>.cls-1{isolation:isolate;}.cls-2{fill:url(#linear-gradient);}.cls-3{fill:#d37927;}.cls-3,.cls-5{opacity:0.2;}.cls-18,.cls-3,.cls-5,.cls-9{mix-blend-mode:multiply;}.cls-4{fill:url(#linear-gradient-2);}.cls-5,.cls-9{fill:#914020;}.cls-6{fill:#672d1e;}.cls-7{fill:url(#linear-gradient-3);}.cls-8{fill:url(#linear-gradient-4);}.cls-9{opacity:0.3;}.cls-10{fill:url(#linear-gradient-5);}.cls-11{fill:url(#linear-gradient-6);}.cls-12{fill:url(#linear-gradient-7);}.cls-13{fill:url(#linear-gradient-8);}.cls-14{fill:#fec765;}.cls-15{fill:#915648;}.cls-16{fill:url(#linear-gradient-9);}.cls-17{fill:#fbd996;}.cls-18{fill:#fee7ae;opacity:0.7;}.cls-19{fill:#fff6de;}.cls-20{fill:#b26940;}.cls-21{fill:#b15b27;opacity:0.5;}</style><linearGradient id="linear-gradient" x1="118.08" y1="721.78" x2="1081.26" y2="721.78" gradientTransform="translate(-116.59)" gradientUnits="userSpaceOnUse"><stop offset="0" stop-color="#f2aa46"/><stop offset="0.57" stop-color="#eb9227"/><stop offset="0.79" stop-color="#e68e23"/><stop offset="1" stop-color="#db841a"/></linearGradient><linearGradient id="linear-gradient-2" x1="480.61" y1="724.54" x2="790.73" y2="275.19" gradientTransform="translate(-115.69)" gradientUnits="userSpaceOnUse"><stop offset="0.01" stop-color="#f9c668"/><stop offset="1" stop-color="#eb9227"/></linearGradient><linearGradient id="linear-gradient-3" x1="219.95" y1="495.22" x2="992.09" y2="495.22" xlink:href="#linear-gradient"/><linearGradient id="linear-gradient-4" x1="504.51" y1="504.27" x2="760.83" y2="115.05" xlink:href="#linear-gradient-2"/><linearGradient id="linear-gradient-5" x1="377.56" y1="293.17" x2="822.48" y2="293.17" xlink:href="#linear-gradient"/><linearGradient id="linear-gradient-6" x1="378.65" y1="191.7" x2="897.57" y2="191.7" gradientTransform="translate(-116.59)" gradientUnits="userSpaceOnUse"><stop offset="0.15" stop-color="#f9c668"/><stop offset="0.47" stop-color="#f4b553"/><stop offset="1" stop-color="#eb9227"/></linearGradient><linearGradient id="linear-gradient-7" x1="467.71" y1="179.16" x2="805.68" y2="179.16" gradientTransform="translate(-115.69)" xlink:href="#linear-gradient"/><linearGradient id="linear-gradient-8" x1="594.47" y1="191.02" x2="632.1" y2="-0.91" xlink:href="#linear-gradient-2"/><linearGradient id="linear-gradient-9" x1="169.25" y1="481.2" x2="989.8" y2="481.2" gradientTransform="translate(-116.59)" gradientUnits="userSpaceOnUse"><stop offset="0" stop-color="#feefcb"/><stop offset="1" stop-color="#fae1b5"/></linearGradient></defs><title>Asset 15</title><g class="cls-1"><g id="Layer_2" data-name="Layer 2"><g id="Layer_4" data-name="Layer 4"><path class="cls-2" d="M1.49,562S16.94,744.08,25.93,769.27s117,117,442.69,120.57S927.51,785.47,934.71,776.47s30-222.83,30-222.83Z"/><path class="cls-3" d="M881.16,550.68c-7.26,91.5-5.23,187.49-9.37,265.66,40.39-19.72,60.26-36.55,62.92-39.87,7.19-9,30-222.83,30-222.83Z"/><path class="cls-4" d="M556,341.33C296.73,319.26,1.3,417.58,0,547c-1.35,134.7,235.09,219.5,466,224,285.4,5.54,497.36-101.47,498.7-209.09C965.93,460.67,747.5,357.64,556,341.33Z"/><ellipse class="cls-5" cx="349.64" cy="662.86" rx="65.58" ry="267.41" transform="translate(-357.96 909.69) rotate(-81.42)"/><path id="_Path_" data-name="&lt;Path&gt;" class="cls-6" d="M534.87,341.88c-227.55-18.68-476,92.77-472.64,179.78,3.27,83.53,154.18,158.92,423.32,163.79,211,3.83,414.32-75.31,421.32-160.6C913.46,444.51,716,356.74,534.87,341.88Z"/><path class="cls-5" d="M645.93,719.3c-3.93,9.83-7.22,19.81-8.79,31.19A250.85,250.85,0,0,0,640.68,839c3.76,16.93,9.71,34.16,22.1,46.29,16.41,16.08,41.63,20.34,64.29,16.58s43.5-14.46,63.9-25c7.64-3.95,15.39-8,21.6-13.93s10.77-14.2,10.31-22.78C822,823.25,818.88,824,802,823c-19.61-1.08-33,8.22-52.24,9.75-47.12,3.75-63.86-48.55-59.61-85,2.91-25,28.53-36.49,46.89-50.2,8.11-6.05,16.43-12.34,21.5-21.08,20.16-34.74-33.33-75.66-65.61-64.81-6,2-12.44,25.25-14.63,30.34-7.44,17.26-14.58,34.65-21.68,52.06C653,702.88,649.24,711,645.93,719.3Z"/><path class="cls-7" d="M106.81,350.6S99.94,482,105.58,503.77C113,532.35,248,641,495.53,642.15S868.54,527.94,874.08,508c5.3-19.05-6-159.71-6-159.71Z"/><path class="cls-3" d="M868.06,348.29l-65.9.2c.92,73.35,2.23,146.76.28,220,45.45-26.55,69.3-52.07,71.64-60.51C879.38,489,868.06,348.29,868.06,348.29Z"/><path class="cls-5" d="M285.34,451c-21,3.32-42.13,6.57-62.62,12.35-2.84,1.31-5.64,2.69-8.39,4.17-1.19,1-2.4,2-3.55,3.09a96.55,96.55,0,0,1-21,15c1.53,34.87,4.54,69.79,6.68,104.66,31.12,16.89,69.46,33.39,115.06,46.72a493.52,493.52,0,0,1-19.3-72C285,527.08,282.13,488.86,285.34,451Z"/><path class="cls-8" d="M481.05,195C318,197.76,104.94,260.15,104.94,354.87c0,98.93,202.38,182.2,376.11,184.11,184.45,2,391.48-96.53,387.14-185C863.39,255.94,653.41,192.13,481.05,195Z"/><ellipse class="cls-9" cx="615.8" cy="366.21" rx="191.2" ry="108.98"/><path id="_Path_2" data-name="&lt;Path&gt;" class="cls-6" d="M524.41,227.85C368.68,215,200.57,285.33,200.86,352.5c.26,58.85,105.48,110,289.69,113.28C635,468.36,774.14,413.5,779,354.43,783.5,298.79,648.36,238.08,524.41,227.85Z"/><path class="cls-10" d="M262.72,179.16s-4.33,124.79.59,146.42,62.92,81.6,216.29,81.6,221.21-62.92,224.16-69.8,2-142.56,2-142.56Z"/><path class="cls-5" d="M705.73,194.82l-58.65-2.07c.08,1.25.15,2.51.17,3.77.8,44,6.15,87.6,8.73,131.45q1.24,21.31,1.06,42.6c30.42-15.2,45.38-30.05,46.72-33.19C706.71,330.5,705.73,194.82,705.73,194.82Z"/><path class="cls-11" d="M485.55,73.37c-7.2-.38-12.74-.38-15.76-.36-94.18.83-197.62,35.45-207.07,106.15-10,74.82,94.1,117.45,180.07,128.29,140.3,17.71,261.47-47.74,262.94-106.73C707.28,138.54,590.28,78.92,485.55,73.37Z"/><ellipse class="cls-5" cx="491.73" cy="232.86" rx="162.75" ry="65.58"/><path class="cls-12" d="M641,125.16l-3.8,100.31S508.83,285.37,407.1,252.1s-31.38-121.23-31.38-121.23l79.87-34.71Z"/><path class="cls-5" d="M413.39,172.4c-1.14-19,12.06-44.05,12.47-63.32l-50.14,21.79S305.36,218.82,407.1,252.1A193.47,193.47,0,0,0,435.54,259C407,237.55,415.25,203.27,413.39,172.4Z"/><path class="cls-13" d="M487.47,28.26c-68.48.6-145.7,47.16-145,94.26.75,50.48,90.94,95.39,166.61,90.25,56-3.8,128.4-36.67,131.79-81.4C644.65,81.61,562.24,27.61,487.47,28.26Z"/><path id="_Path_3" data-name="&lt;Path&gt;" class="cls-6" d="M507.33,55.33c-58.58-4.83-123.12,24.41-124.61,57-1.3,28.55,29.56,54.77,106.21,58.06C555,173.22,596.79,148.06,600,119.46,603,92.52,561.75,59.81,507.33,55.33Z"/><path id="_Path_4" data-name="&lt;Path&gt;" class="cls-14" d="M501.2,82.07c-37.07-1.69-75.4,9.21-76.12,26.94-.62,15.54,27.25,25.72,70.84,29.33,45.06,3.74,71.91-9.57,71.7-25.76C567.46,100.28,538.74,83.78,501.2,82.07Z"/><ellipse class="cls-9" cx="481.91" cy="139.69" rx="55.2" ry="41.75"/><path class="cls-5" d="M442.78,83.57l-70.46,44.92L362.24,163c12.84,13.06,31,24.49,51.82,33.14.06-4.35,2.64-21.75,38.28-36.5a151.82,151.82,0,0,1,16.78-5.93C458.63,131.12,450.86,107.23,442.78,83.57Z"/><path class="cls-15" d="M745.77,602a28.2,28.2,0,1,1-28.2-27.88A28,28,0,0,1,745.77,602Z"/><path class="cls-15" d="M214.56,357.16a28.21,28.21,0,1,1-28.2-27.88A28,28,0,0,1,214.56,357.16Z"/><path class="cls-15" d="M514,27.87a28.2,28.2,0,0,1-56.4,0,28.2,28.2,0,0,1,56.4,0Z"/><path class="cls-16" d="M608.43,281.09c48.61,9.39,48.29,74.89,1.13,91.58-105.66,37.41-209.83,21.56-249.81,10.89-37.51-10-75.28-26.93-89-55.51-7.54-15.67-9.2-45.75-9.78-63.13-31.76,38.11-33.62,84.3-16.68,120.4-10.52-9-39.63-18.53-46.56-19.2-22.4-2.18-43.7,9.85-56.07,28.38-26.82,40.18-19.42,90.13-6.42,134.32-21.33-1.3-56.12-1-70.83,13.53C48.66,557.82,50,586,61,603.6c13.64,21.89,46.86,41,70,52.36,73.64,36,134.79,48,211.1,58.91,148.07,21.16,196.59-1.45,234.8,21.81,25.43,15.47,41.83,66.52,22.58,92.7-13.9,18.9-41,20.34-62.24,22.22-24.45,2.16-109.09,8.51-73.62,55.93,7.95,10.63,20.67,16.82,33.43,20.47,65,18.57,169.44,16.71,251.2-7.94,18.28-5.52,88.19-20.58,116.08-53.64,11.86-14.06,13.27-34.84-4.67-49.24-40-32.12-106.17,21.92-152.48,6.25-32.58-11-42.27-83.68-21.49-108.91,16.44-20,48.67-31.82,52.38-57.41,3-21.07-4.56-40-23.17-50.37-18.13-10.07-47.34-8.06-91.66-1-47,7.47-88.26,8.76-135.93,10.55a596.27,596.27,0,0,1-143.72-12.07c-26.48-5.52-68.34-9.12-82.11-36.35-12.94-25.59-8.05-66.62-6.91-66.05,19.9,9.95,57,5,74.55-5.88s26.38-39.35,21-59.27c7.59,74,131.34,86,288,46.61,69.62-17.52,139.3-47.31,151.5-118.45,4.37-25.53-5.54-52.46-17.51-67.19-24.61-30.28-66.25-40.08-66.25-40.69,0,15-.21,45.64-.21,60.65-36.61,1.15-31.43-39-22.69-63.08,5.17-14.31,15.66-25.4,21.26-39.34A68.51,68.51,0,0,0,706.47,172c-5.12-18.85-27.29-42-58.28-49.34,16.58,56.53-18.63,85.46-42.52,95.51-45.4,19.12-97,27.19-142.77,20.26C430.74,233.51,386.28,222.66,384,183c-2.07-35.37,37.63-52.52,37.65-52.1,2,46.2,47.49,60,84,33.08,36-26.54,33-79.8,5.5-107.8C451.87-4,340.39,20.13,299.81,90.13c-20.28,35-23.19,76-6.73,114.38,16.62,38.76,57.4,56,94.72,67.64,32.85,10.27,65.57,11.23,99.49,13C526.54,287.08,570.3,273.73,608.43,281.09Z"/><path class="cls-17" d="M859.66,817.18c-40-32.12-106.17,21.92-152.48,6.25-32.58-11-42.27-83.68-21.49-108.91,16.44-20,48.67-31.82,52.38-57.41,3-21.07-4.56-40-23.17-50.37-18.13-10.07-47.34-8-91.66-1-47,7.47-88.26,8.76-135.93,10.55a596.27,596.27,0,0,1-143.72-12.07c-26.48-5.52-68.34-9.12-82.11-36.35-12.94-25.59-8.05-66.62-6.91-66.05,19.9,9.95,57,5,74.55-5.88,15.25-9.46,24.63-23.35,23.08-42.22,3.81,13,13.15,23.53,27.1,31.67,4.12-11.89,8.79-18.64,21-21.22,20.17-4.27,37.09,2.76,57.21,4.25a175.87,175.87,0,0,0,63.25-6.83c21.56-6.45,41.76-17,63.48-22.9,31.61-8.55,78.84-2.73,93.3,31.52.18.43.31.86.48,1.29,23.87-8.27,46.36-18.77,64.92-32.81-38.39-16.6-55.33-60.43-41.81-82.32,13.89-22.51,43-32.93,69.12-28.64a84.51,84.51,0,0,1,18.09,5.15,96.78,96.78,0,0,0-4.72-15.05.69.69,0,0,1,0-.1q-.89-2.16-1.86-4.22c-.13-.29-.26-.57-.4-.85-.53-1.11-1.08-2.19-1.64-3.25l-.6-1.11c-.52-.95-1.06-1.86-1.6-2.76-.23-.39-.46-.79-.7-1.17-.55-.87-1.11-1.71-1.68-2.54-.23-.33-.45-.68-.68-1-.79-1.11-1.6-2.19-2.41-3.19-10.77-13.25-24.79-22.58-37.17-28.93-15.9-8.17-29.07-11.42-29.08-11.76,0,15-.21,45.64-.21,60.65-16.92.53-24.9-7.75-27.74-19.2-.27-1.06-.49-2.15-.67-3.26-.22-1.41-.39-2.86-.48-4.33-.07-.93-.11-1.87-.13-2.81-.18-11.24,2.78-23.68,6.33-33.48.64-1.79,1.37-3.53,2.17-5.23,5.15-11,13-20.47,18-31.53.38-.85.75-1.71,1.1-2.58A68.51,68.51,0,0,0,706.47,172c-5.12-18.85-27.29-42-58.28-49.34.52,1.77,1,3.51,1.4,5.22.84,3.43,1.48,6.75,1.95,10,.23,1.61.42,3.19.56,4.75a77.11,77.11,0,0,1-1.61,25.25,67.32,67.32,0,0,1-6.62,17c-9.62,17.3-25.51,28-38.2,33.32-2.37,1-4.77,2-7.17,2.88l-3.21,1.23c-1.09.41-2.19.8-3.28,1.2q-4.72,1.71-9.52,3.28c-3.43,51.23-158.78,50-192.07,15.48-16.13-16.72-15.34-31.37-1.67-41a43.85,43.85,0,0,1-2.44-5.83c-.1-.3-.19-.6-.29-.9-.16-.54-.33-1.07-.48-1.62-.22-.82-.42-1.65-.6-2.5-.08-.33-.13-.68-.2-1-.13-.71-.25-1.43-.35-2.16-.05-.33-.1-.66-.14-1-.13-1-.23-2.1-.3-3.19-2.07-35.37,37.63-52.52,37.65-52.1.8,18.77,8.78,32.19,20.43,39.7a45.69,45.69,0,0,0,24.85,7c12.54,0,26.15-4.41,38.69-13.66l.06-.05c1-.76,2-1.55,3-2.36.34-.28.66-.57,1-.85.63-.56,1.27-1.12,1.88-1.69.37-.34.72-.7,1.08-1.05.54-.54,1.08-1.07,1.59-1.61.37-.39.72-.78,1.07-1.17s1-1.07,1.42-1.62.68-.81,1-1.23.87-1.12,1.3-1.69c.31-.41.62-.82.92-1.24.43-.61.84-1.23,1.24-1.85.26-.4.53-.78.78-1.18.61-1,1.2-2,1.75-3,.25-.46.48-.93.72-1.39s.62-1.17.91-1.77.5-1.09.75-1.64.47-1,.69-1.58.47-1.17.7-1.75.39-1,.57-1.52.43-1.22.63-1.84.31-1,.45-1.47.39-1.28.56-1.93c.13-.45.24-.91.35-1.37.17-.69.34-1.37.49-2.05.08-.36.14-.72.21-1.08.37-1.82.68-3.66.9-5.51C481,79.25,416.65,85.47,369.87,131.61c-23.44,23.12-34.9,56.1-74.76,51a76.75,76.75,0,0,1-9.68-1.93c1.2.32,8.12,24,9.4,27.68,17.6,36.09,56.9,52.55,93,63.83,32.85,10.27,65.57,11.24,99.49,13,39.25,2,83-11.37,121.14-4,48.61,9.39,48.29,74.89,1.13,91.58a394.76,394.76,0,0,1-52.66,14.56c-24.38,43.44-121.56,41.83-151.08,39.56-50.42-3.88-107.92-14.23-145.09-50a202.18,202.18,0,0,1-26.85-31.86,111.77,111.77,0,0,0,10.37,40.42c-10.52-9-39.63-18.53-46.57-19.2-1.46-.14-2.91-.22-4.36-.24h-.07c-1.43,0-2.85,0-4.27.11,10.92,13.14,55.54,36.09,61.89,51.28,12.24,29.33,4.37,70-51,72.92-21.37,1.12-59.79-13.13-76.33-32.54-.26,23.83,5,48.28,11.7,71.17-16.4-1-40.75-1-57.82,5.61l-.46.22,1.93.07c44.73,2.59,90.91,10.89,128.05,37.55,39.3,28.21,71.91,66.14,116.36,86.81,37.23,17.32,79.36,21,120.66,16.91,44.27-4.4,84.57-24.09,128.81-29.12,13-1.49,26.43-2.41,39.09,1,33.11,9,31.46,44.54,24.24,72-12.87,49-13.95,110,38.79,136.72,28,14.2,12.75,38.24-4.25,46.74-45.38,22.69-87.09,23.53-136.44,18.13-20.83-2.28-43.88-7.87-60.53-21.39A102.83,102.83,0,0,1,456,880.87a19.16,19.16,0,0,0-.82,8.36c0,.11,0,.22,0,.33.05.38.12.77.19,1.16l.09.52c.07.35.16.72.25,1.08s.11.43.17.65.2.69.31,1,.15.49.24.74.24.67.37,1,.21.55.33.83.27.65.42,1,.28.6.42.91l.47,1c.17.33.35.67.54,1s.33.62.51.94.44.74.66,1.12.35.57.53.87l.86,1.3.5.75c.47.68,1,1.38,1.51,2.1,7.95,10.63,20.67,16.82,33.43,20.47,65,18.57,169.44,16.71,251.2-7.94,18.28-5.52,88.19-20.58,116.08-53.64C876.19,852.36,877.6,831.58,859.66,817.18Z"/><path class="cls-18" d="M466.3,94.23h-.06c-4.09-.71-11.52-1.16-7.33-.65l1.5.09C462.38,93.81,464.34,94,466.3,94.23Z"/><path class="cls-19" d="M337.23,70.57c-19.37,13.11-33.19,32.15-38.7,55-3.85,16,20.81,22.83,24.67,6.81,3.92-16.26,13-30.28,26.94-39.71C363.7,83.48,350.91,61.3,337.23,70.57Z"/><path class="cls-19" d="M398.75,47.85c-1.22-2.39-3.92-4.32-8.58-5.38-9-2.06-23,3.71-25.59,13.22a13.11,13.11,0,0,0,1.29,9.86,12.94,12.94,0,0,0,7.64,5.88C385,74.05,403.64,57.36,398.75,47.85Z"/><path class="cls-19" d="M167.53,406.81c-3.75-6-10.37-9.05-16.82-.78a56.14,56.14,0,0,0-12.16,30c-.7,6.67,6.36,13.07,12.77,12.79,11.18-.49,16.61-19.27,18.9-28.14C171.31,416.4,170.09,410.91,167.53,406.81Z"/><path class="cls-19" d="M125,598.38a79.5,79.5,0,0,1-32-30.09C84.54,554.16,62.42,567,70.87,581.2a104.44,104.44,0,0,0,41.2,39.27C126.63,628.11,139.58,606,125,598.38Z"/><path class="cls-19" d="M168.56,623.68l-7.21-3.9a13.37,13.37,0,0,0-9.85-1.29,13,13,0,0,0-7.64,5.87c-3.16,6-1.7,14.1,4.58,17.5l7.21,3.9a13.4,13.4,0,0,0,9.86,1.29,13,13,0,0,0,7.64-5.87C176.3,635.21,174.84,627.08,168.56,623.68Z"/><path id="_Path_5" data-name="&lt;Path&gt;" class="cls-20" d="M649.73,214.12c-10.25,0-10.27,15.92,0,15.92S660,214.12,649.73,214.12Z"/><path id="_Path_6" data-name="&lt;Path&gt;" class="cls-20" d="M323.29,195c-10.25,0-10.27,15.92,0,15.92S333.55,195,323.29,195Z"/><path id="_Path_7" data-name="&lt;Path&gt;" class="cls-20" d="M354,208.19c-15.55,0-15.58,24.17,0,24.17S369.6,208.19,354,208.19Z"/><path id="_Path_8" data-name="&lt;Path&gt;" class="cls-20" d="M302.87,393.28c-15.55,0-15.58,24.17,0,24.17S318.45,393.28,302.87,393.28Z"/><path id="_Path_9" data-name="&lt;Path&gt;" class="cls-20" d="M265.43,609.4c-15.55,0-15.58,24.17,0,24.17S281,609.4,265.43,609.4Z"/><path id="_Path_10" data-name="&lt;Path&gt;" class="cls-20" d="M623.32,232.38c-13.48,0-13.5,21,0,21S636.82,232.38,623.32,232.38Z"/><path id="_Path_11" data-name="&lt;Path&gt;" class="cls-20" d="M597.31,643.3c-10.25,0-10.27,15.92,0,15.92S607.57,643.3,597.31,643.3Z"/><path id="_Path_12" data-name="&lt;Path&gt;" class="cls-20" d="M375.53,636.91c-10.25,0-10.27,15.93,0,15.93S385.79,636.91,375.53,636.91Z"/><path id="_Path_13" data-name="&lt;Path&gt;" class="cls-20" d="M570.9,661.56c-13.48,0-13.5,20.94,0,20.94S584.4,661.56,570.9,661.56Z"/><path id="_Path_14" data-name="&lt;Path&gt;" class="cls-20" d="M702.21,346.64c-10.25,0-10.27,15.93,0,15.93S712.47,346.64,702.21,346.64Z"/><path id="_Path_15" data-name="&lt;Path&gt;" class="cls-20" d="M278.16,365.32c-10.18,0-10.19,15.83,0,15.83S288.36,365.32,278.16,365.32Z"/><path id="_Path_16" data-name="&lt;Path&gt;" class="cls-20" d="M279,654.62c-10.19,0-10.2,15.83,0,15.83S289.21,654.62,279,654.62Z"/><path id="_Path_17" data-name="&lt;Path&gt;" class="cls-20" d="M445.36,50.57c-10.18,0-10.2,15.82,0,15.82S455.56,50.57,445.36,50.57Z"/><path id="_Path_18" data-name="&lt;Path&gt;" class="cls-20" d="M554.05,179.39c-10.19,0-10.2,15.83,0,15.83S564.24,179.39,554.05,179.39Z"/><path id="_Path_19" data-name="&lt;Path&gt;" class="cls-20" d="M362.91,110c-10.18,0-10.19,15.82,0,15.82S373.11,110,362.91,110Z"/><path id="_Path_20" data-name="&lt;Path&gt;" class="cls-20" d="M474.75,84.91c-14.86,0-14.89,23.1,0,23.1S489.64,84.91,474.75,84.91Z"/><path id="_Path_21" data-name="&lt;Path&gt;" class="cls-21" d="M829.54,684.9a8.21,8.21,0,1,1-.48-11.6A8.29,8.29,0,0,1,829.54,684.9Z"/><path id="_Path_22" data-name="&lt;Path&gt;" class="cls-21" d="M800,667.72c-1.38,4.44-6.67,6.73-10.41,3.29a6.36,6.36,0,0,1-1.88-6,5.83,5.83,0,0,1,2.15-3.38c.08-.09.12-.19.2-.28a5.73,5.73,0,0,1,6.81-1.21A6.37,6.37,0,0,1,800,667.72Z"/><path id="_Path_23" data-name="&lt;Path&gt;" class="cls-21" d="M941.41,595.13c-1.38,4.44-6.67,6.72-10.41,3.28a6.34,6.34,0,0,1-1.88-6,5.83,5.83,0,0,1,2.15-3.38c.08-.09.12-.19.2-.28a5.72,5.72,0,0,1,6.81-1.21A6.37,6.37,0,0,1,941.41,595.13Z"/><path id="_Path_24" data-name="&lt;Path&gt;" class="cls-21" d="M835.86,360.07c-1.38,4.44-6.68,6.73-10.41,3.29a6.34,6.34,0,0,1-1.89-6,5.84,5.84,0,0,1,2.16-3.38,2.43,2.43,0,0,1,.2-.28,5.73,5.73,0,0,1,6.81-1.21A6.38,6.38,0,0,1,835.86,360.07Z"/><path id="_Path_25" data-name="&lt;Path&gt;" class="cls-21" d="M802.28,702.45c-1.38,4.44-6.68,6.73-10.41,3.28a6.32,6.32,0,0,1-1.89-6,5.8,5.8,0,0,1,2.16-3.38,2.43,2.43,0,0,1,.2-.28,5.71,5.71,0,0,1,6.81-1.21A6.38,6.38,0,0,1,802.28,702.45Z"/><path id="_Path_26" data-name="&lt;Path&gt;" class="cls-21" d="M891.37,631.7a9.9,9.9,0,0,1-7.82-.43c-2.59-1.34-4-3.56-5-6.19-1.36-3.62.4-7.45,3.33-9.61a9.08,9.08,0,0,1,3.79-2.27,9.77,9.77,0,0,1,9.39,2.14C900.68,620.49,898.16,629.23,891.37,631.7Z"/><path id="_Path_27" data-name="&lt;Path&gt;" class="cls-21" d="M834.6,337.21a9.86,9.86,0,0,1-7.82-.42c-2.59-1.34-4-3.56-5-6.19-1.36-3.62.4-7.45,3.33-9.61a9.14,9.14,0,0,1,3.79-2.27,9.74,9.74,0,0,1,9.39,2.13C843.92,326,841.39,334.75,834.6,337.21Z"/><path id="_Path_28" data-name="&lt;Path&gt;" class="cls-21" d="M898.73,595.42c-7.35,8-19.72-3.41-12.37-11.4S906.09,587.44,898.73,595.42Z"/><path id="_Path_29" data-name="&lt;Path&gt;" class="cls-21" d="M442.19,753.23c-1.59,3.4-6.07,4.65-8.68,1.49a5.1,5.1,0,0,1-.85-5,4.66,4.66,0,0,1,2.09-2.47c.07-.06.11-.14.19-.2a4.61,4.61,0,0,1,5.58-.22A5.13,5.13,0,0,1,442.19,753.23Z"/><path id="_Path_30" data-name="&lt;Path&gt;" class="cls-21" d="M465.17,762a7.91,7.91,0,0,1-6.2-1.2,8.51,8.51,0,0,1-3.3-5.49,6.84,6.84,0,0,1,3.72-7.32,7.41,7.41,0,0,1,3.28-1.4,7.88,7.88,0,0,1,7.27,2.74C473.85,754,470.87,760.73,465.17,762Z"/><path id="_Path_31" data-name="&lt;Path&gt;" class="cls-21" d="M67.69,638.85c-6.75,5.58-15.39-4.89-8.64-10.47S74.45,633.28,67.69,638.85Z"/><path id="_Path_32" data-name="&lt;Path&gt;" class="cls-21" d="M137.75,342.55c-6.75,5.58-15.4-4.89-8.64-10.47S144.5,337,137.75,342.55Z"/><path id="_Path_33" data-name="&lt;Path&gt;" class="cls-21" d="M29,567.64c10.67-.33,11.19,16.21.52,16.54S18.35,568,29,567.64Z"/><path id="_Path_34" data-name="&lt;Path&gt;" class="cls-21" d="M154.27,305.39c10.67-.34,11.19,16.21.52,16.54S143.6,305.73,154.27,305.39Z"/><path id="_Path_35" data-name="&lt;Path&gt;" class="cls-21" d="M36.5,550.76a2.17,2.17,0,0,1,0-.26c0-.61.11-1.07.06-.23a5.56,5.56,0,0,1,2.18-3.44c1.82-1.42,4.13-.74,6,0,3.35,1.31,3.56,6.23,1.37,8.56s-7.1,2.42-8.63-.84a8.57,8.57,0,0,1-1-3.1A5.1,5.1,0,0,1,36.5,550.76Z"/><path class="cls-15" d="M807.52,416.76a28.2,28.2,0,1,1-28.2-27.87A28,28,0,0,1,807.52,416.76Z"/><path class="cls-15" d="M592.28,254.28a28.2,28.2,0,1,1-28.2-27.87A28,28,0,0,1,592.28,254.28Z"/><path class="cls-15" d="M205,557.38a28.2,28.2,0,1,1-28.2-27.88A28,28,0,0,1,205,557.38Z"/><path class="cls-15" d="M381.78,459.21a28.2,28.2,0,1,1-28.2-27.87A28,28,0,0,1,381.78,459.21Z"/><ellipse class="cls-15" cx="582" cy="844.43" rx="28.2" ry="27.87"/></g></g></g></svg>