<svg xmlns="http://www.w3.org/2000/svg" xmlns:xlink="http://www.w3.org/1999/xlink" viewBox="0 0 533.2 1428.56"><defs><style>.cls-1{isolation:isolate;}.cls-2{fill:url(#linear-gradient);}.cls-3{fill:#f3cf8f;mix-blend-mode:overlay;}.cls-3,.cls-5{opacity:0.4;}.cls-4,.cls-5{fill:#e0b96b;}.cls-22,.cls-4{opacity:0.2;}.cls-18,.cls-20,.cls-22,.cls-25,.cls-29,.cls-4,.cls-5{mix-blend-mode:multiply;}.cls-6{fill:url(#linear-gradient-3);}.cls-7{fill:url(#linear-gradient-4);}.cls-8{fill:url(#linear-gradient-5);}.cls-9{fill:url(#linear-gradient-6);}.cls-10{fill:url(#linear-gradient-7);}.cls-11,.cls-20,.cls-22,.cls-25,.cls-29{fill:#794232;}.cls-12{fill:url(#linear-gradient-8);}.cls-13{fill:url(#linear-gradient-9);}.cls-14{fill:#bf7b5a;}.cls-15{fill:url(#linear-gradient-10);}.cls-16{fill:#e0ab83;}.cls-17{fill:url(#linear-gradient-11);}.cls-18,.cls-23{fill:#8e4f30;}.cls-18,.cls-25{opacity:0.3;}.cls-19{fill:url(#linear-gradient-12);}.cls-20{opacity:0.1;}.cls-21{fill:url(#linear-gradient-13);}.cls-24{fill:url(#linear-gradient-14);}.cls-26{fill:url(#linear-gradient-15);}.cls-27{fill:url(#linear-gradient-16);}.cls-28{fill:url(#linear-gradient-17);}.cls-29{opacity:0.5;}.cls-30{fill:url(#linear-gradient-18);}.cls-31{fill:url(#linear-gradient-19);}.cls-32{fill:url(#linear-gradient-20);}.cls-33{fill:url(#linear-gradient-21);}.cls-34{fill:#663427;}</style><linearGradient id="linear-gradient" x1="308.26" y1="1432.55" x2="308.26" y2="1005.81" gradientTransform="translate(-44.14)" gradientUnits="userSpaceOnUse"><stop offset="0" stop-color="#ffd88a"/><stop offset="0.4" stop-color="#fcd587"/><stop offset="0.7" stop-color="#f2cb7d"/><stop offset="0.97" stop-color="#e2bb6d"/><stop offset="1" stop-color="#e0b96b"/></linearGradient><linearGradient id="linear-gradient-3" x1="130.43" y1="1035.15" x2="478.58" y2="1035.15" xlink:href="#linear-gradient"/><linearGradient id="linear-gradient-4" x1="235.41" y1="1149.08" x2="297.11" y2="927.44" gradientTransform="translate(-44.14)" gradientUnits="userSpaceOnUse"><stop offset="0" stop-color="#fcd282"/><stop offset="0.43" stop-color="#f2c878"/><stop offset="1" stop-color="#ddb465"/></linearGradient><linearGradient id="linear-gradient-5" x1="-160.7" y1="879.77" x2="504.16" y2="879.77" gradientTransform="translate(-44.14)" gradientUnits="userSpaceOnUse"><stop offset="0" stop-color="#ffd88a"/><stop offset="0.85" stop-color="#e5be70"/><stop offset="1" stop-color="#e0b96b"/></linearGradient><linearGradient id="linear-gradient-6" x1="44.14" y1="829.82" x2="577.35" y2="829.82" gradientTransform="translate(-44.14)" gradientUnits="userSpaceOnUse"><stop offset="0" stop-color="#ffe7b8"/><stop offset="1" stop-color="#ffe0a3"/></linearGradient><linearGradient id="linear-gradient-7" x1="74.93" y1="795.5" x2="283.49" y2="795.5" gradientTransform="translate(-44.14)" gradientUnits="userSpaceOnUse"><stop offset="0" stop-color="#8e4f30"/><stop offset="1" stop-color="#794232"/></linearGradient><linearGradient id="linear-gradient-8" x1="176.54" y1="224" x2="309.93" y2="224" gradientTransform="translate(-44.14)" gradientUnits="userSpaceOnUse"><stop offset="0" stop-color="#bf7b5a"/><stop offset="0.96" stop-color="#905132"/><stop offset="1" stop-color="#8e4f30"/></linearGradient><linearGradient id="linear-gradient-9" x1="267.45" y1="231.85" x2="474.02" y2="231.85" xlink:href="#linear-gradient-7"/><linearGradient id="linear-gradient-10" x1="247.44" y1="-11.87" x2="363.51" y2="353.11" xlink:href="#linear-gradient-8"/><linearGradient id="linear-gradient-11" x1="128.6" y1="669.51" x2="385.59" y2="630.41" xlink:href="#linear-gradient-8"/><linearGradient id="linear-gradient-12" x1="78.1" y1="538.55" x2="336.95" y2="551.58" xlink:href="#linear-gradient-8"/><linearGradient id="linear-gradient-13" x1="109.86" y1="404.25" x2="461.82" y2="720.83" xlink:href="#linear-gradient-8"/><linearGradient id="linear-gradient-14" x1="343.21" y1="297.69" x2="496.83" y2="553.72" xlink:href="#linear-gradient-8"/><linearGradient id="linear-gradient-15" x1="257.63" y1="186.91" x2="344.46" y2="494.15" xlink:href="#linear-gradient-8"/><linearGradient id="linear-gradient-16" x1="262.4" y1="558.66" x2="465.16" y2="829" xlink:href="#linear-gradient-8"/><linearGradient id="linear-gradient-17" x1="61.29" y1="676.86" x2="411.39" y2="837.01" xlink:href="#linear-gradient-8"/><linearGradient id="linear-gradient-18" x1="-37.35" y1="634.43" x2="277.37" y2="738.71" gradientTransform="translate(-44.14)" gradientUnits="userSpaceOnUse"><stop offset="0" stop-color="#e0ab83"/><stop offset="0.98" stop-color="#c07c5b"/><stop offset="1" stop-color="#bf7b5a"/></linearGradient><linearGradient id="linear-gradient-19" x1="85.63" y1="447.65" x2="381.72" y2="637.59" xlink:href="#linear-gradient-18"/><linearGradient id="linear-gradient-20" x1="152.79" y1="342.95" x2="448.88" y2="532.89" xlink:href="#linear-gradient-18"/><linearGradient id="linear-gradient-21" x1="200.85" y1="262.96" x2="383.35" y2="395.18" xlink:href="#linear-gradient-18"/></defs><title>Asset 24</title><g class="cls-1"><g id="Layer_2" data-name="Layer 2"><g id="Layer_4" data-name="Layer 4"><g id="_Group_" data-name="&lt;Group&gt;"><g id="_Group_2" data-name="&lt;Group&gt;"><path id="_Path_" data-name="&lt;Path&gt;" class="cls-2" d="M145.75,1027.57s87.81,398.2,122.66,401,114.08-406.49,114.08-406.49Z"/><path id="_Path_2" data-name="&lt;Path&gt;" class="cls-2" d="M145.75,1027.57s87.81,398.2,122.66,401,114.08-406.49,114.08-406.49Z"/><path class="cls-3" d="M284.05,1410.41q-9.06,8.91-17.71,17.52a5.86,5.86,0,0,0,2.07.61C273,1428.91,278.26,1422.25,284.05,1410.41Z"/><path class="cls-3" d="M363.4,1115.25c-12.43,11-27,24.29-42.88,39-15.44-15.83-30.55-31.17-44.82-45.47,45-45.45,76.8-79.45,74.54-81.75s-37.45,28.32-84.49,71.8c-34.91-34.75-63.5-61.94-76.95-72.25l-6.33.15c7.33,11.38,35.32,42.88,72.17,82.39-14.54,13.54-30,28.06-45.8,43.06-16.58-16.49-31.63-31.13-44.26-43,1.77,7.4,3.62,15.13,5.56,23.13,8.43,9.3,17.76,19.44,27.82,30.24q-8.21,7.83-16.47,15.76,2.34,9.33,4.77,18.83,11.58-11.23,23.06-22.45c13.28,14.15,27.49,29.15,42.17,44.47-15.43,14.73-31.06,29.78-46.36,44.64l-1.7-1.74c3.19,11.62,6.41,23.08,9.64,34.22,12.1,12.54,24.34,25.14,36.47,37.53q-9.72,9.48-19.14,18.75,3,8.94,5.88,17.1,12.28-11.66,25-23.86c11.87,12.07,23.5,23.82,34.7,35,1.81-5.13,3.64-10.59,5.49-16.34-9.17-9.78-18.65-19.83-28.35-30,15.46-14.9,31.12-30.09,46.45-45.09l2.64,2.67c3.15-12,6.29-24.46,9.38-37L320,1266c-14.83-15.54-29.95-31.26-44.91-46.65,15.06-14.8,29.67-29.28,43.34-43,8.45,8.8,17,17.63,25.59,26.44q2.28-9.88,4.49-19.65-9.09-9.44-18.15-18.78c10.39-10.48,20-20.32,28.79-29.35Q361.35,1124.85,363.4,1115.25ZM308,1277.46c-15.47,14.75-31.13,29.82-46.48,44.72-14.7-15.41-29.71-31-44.54-46.28,15.34-14.77,30.88-29.84,46.1-44.73C277.85,1246.57,293,1262.16,308,1277.46Zm-44.3-69.89c-14.88-15.25-29.45-30-43.21-43.82,15.41-15.15,30.33-30,44.25-43.91,13.69,14.59,28.37,30.05,43.5,45.84C294,1178.87,279,1193,263.65,1207.57Z"/><path class="cls-4" d="M382.39,1022.53c-19.55,8.07-38,18.8-64.36,36.47,0,0-4.13,161.63-21.78,321.14C333.1,1275,380.09,1034.39,382.39,1022.53Z"/><path class="cls-4" d="M147.49,1035.35c4.2,18.75,15.69,69.29,30.3,128.16,12.32-14.52,36.6-31.21,57.11-31.45,36-.43,77.47,32,100.44,107.59,25.43-105.54,46.88-216.24,47.14-217.56Z"/><path id="_Path_3" data-name="&lt;Path&gt;" class="cls-5" d="M380.78,1032.83,148,1040.18c2.44,13.39,6.72,36.69,12.3,66.06,41.84,12,125.09,19.09,208.25.81C374.28,1073.22,378.56,1046.73,380.78,1032.83Z"/><path id="_Path_4" data-name="&lt;Path&gt;" class="cls-6" d="M241.29,972.81c-77,4.75-158.28,47.65-154.9,77.55,3.73,32.92,109.68,47.55,175.36,47.58,61.94,0,168.74-12.9,172.58-45.07C438.18,1020.51,338.07,966.85,241.29,972.81Z"/><path id="_Path_5" data-name="&lt;Path&gt;" class="cls-7" d="M48.57,879s0,103.77,66,143.38,252.8,34,303.74-1.88c41.54-29.24,54.71-96.22,60.37-135.84Z"/><path id="_Path_6" data-name="&lt;Path&gt;" class="cls-4" d="M418.34,1020.53c41.54-29.24,54.71-96.22,60.37-135.84l-91.55-1.2c-9.77,5.71-20,12-30.9,19.08,0,0,5.13,96.52-28.12,143.6C367.3,1041.59,400.84,1032.84,418.34,1020.53Z"/><path id="_Path_7" data-name="&lt;Path&gt;" class="cls-8" d="M0,825.09c2.91,37.27,37.88,74.67,77,87.26,109.24,35.18,279.58,38.88,388.82-3.7,46.45-18.11,60.34-56.54,65.68-83.87C531.5,824.78,8.64,813.57,0,825.09Z"/><path id="_Path_8" data-name="&lt;Path&gt;" class="cls-9" d="M0,824.6c2,25.06,92.28,72.55,267.33,72.55,154.53,0,266.59-39.24,265.84-72.55-.76-34-146.39-61.23-260.36-62.1C151.64,761.57-2.64,790.09,0,824.6Z"/><path id="_Path_9" data-name="&lt;Path&gt;" class="cls-10" d="M239.34,871.05l-47.82-65.67L59.17,720S3.25,781.11,48.41,835.71C91.86,849.32,160,866.35,239.34,871.05Z"/><path id="_Path_10" data-name="&lt;Path&gt;" class="cls-11" d="M141.46,353.25S93.9,340.74,76.38,377C63,404.75,113.93,516,246.91,507.26,362.77,499.68,141.46,353.25,141.46,353.25Z"/><path id="_Path_11" data-name="&lt;Path&gt;" class="cls-12" d="M141.77,291.93s-28.16-44.12,13.15-78.85,83.54-74.16,81.66-134.23c0,0,65.71,162.39,0,257.2S141.77,291.93,141.77,291.93Z"/><path id="_Path_12" data-name="&lt;Path&gt;" class="cls-13" d="M262.86,62.89s210.27,77.6,159,337.92c0,0-195.56-25.34-198.37-26.28S262.86,62.89,262.86,62.89Z"/><path id="_Path_13" data-name="&lt;Path&gt;" class="cls-14" d="M183.08,297.56s-6.58-15,31.91-93.87S222.5,41.3,192.46,0c0,0,216.16,74.68,152.23,345.8C281.66,613.08,183.08,297.56,183.08,297.56Z"/><path id="_Path_14" data-name="&lt;Path&gt;" class="cls-15" d="M193.6.42,193,.71l.81,1.14C208.9,12.7,351.67,123.22,276.94,383c-6.88,23.91-10.91,45.16-12.66,64,27,18,56.3,1,80.41-101.18C405.93,86.07,210.16,6.64,193.6.42Z"/><path id="_Path_15" data-name="&lt;Path&gt;" class="cls-16" d="M222.41,27.39S345.06,162.56,275,324l22.62,12S360.08,158.8,222.41,27.39Z"/><path id="_Path_16" data-name="&lt;Path&gt;" class="cls-17" d="M112.68,542.55S29.13,578.22,59.17,669.27s309.14,108,336.36,62S112.68,542.55,112.68,542.55Z"/><path id="_Path_17" data-name="&lt;Path&gt;" class="cls-18" d="M112.67,542.55S49,569.77,52.84,637.32c1.91-.21,3.84-.31,5.78-.35-1.72-2.66-2.66-4.16-2.66-4.16S296.63,614.4,246.65,736.7a90.57,90.57,0,0,1-8.38,16.1c73.5,8,144.23.44,157.26-21.57C422.75,685.23,112.67,542.55,112.67,542.55Z"/><path id="_Path_18" data-name="&lt;Path&gt;" class="cls-19" d="M77,468.4s-56,12-60.08,57.26C13.18,567,63.86,640.17,266.62,611.08Z"/><path id="_Path_19" data-name="&lt;Path&gt;" class="cls-20" d="M375.68,693.16c2.7-17.2,12.6-32.57,26.16-43.44-114.53-77.06-318.94-177-318.94-177S48.52,526.16,211,617.42c63.71,35.78,71.07,70.54,47.34,81.09-22.65,10.07-70.27,8.39-100.63,3.19l87.07,51.78c71.11,6.89,138.08-.89,150.72-22.25C401.07,721.87,392.61,708.5,375.68,693.16Z"/><path id="_Path_20" data-name="&lt;Path&gt;" class="cls-21" d="M367.22,706.68a188.68,188.68,0,0,1,52.4,5.77c22.62,5.85,39,15.82,50.81,27.71.71-2.74,3.9-19-12.32-44.6C445.05,674.94,356.73,582,356.73,582L144.4,404S77,395.18,58.23,420.53s9.39,75.09,73.22,125.78C189,592,308.06,640.61,367.22,706.68Z"/><path id="_Path_21" data-name="&lt;Path&gt;" class="cls-22" d="M458.11,695.56C445.05,674.94,356.73,582,356.73,582l-2.67-1.93L173.91,436.34c69.46,62,210.6,183.68,208.38,228.1-.94,18.77-20.65,26.28-40.85,17.4a264.33,264.33,0,0,1,25.78,24.84,188.68,188.68,0,0,1,52.4,5.77c22.62,5.85,39,15.82,50.81,27.71C471.14,737.42,474.33,721.17,458.11,695.56Z"/><path id="_Path_22" data-name="&lt;Path&gt;" class="cls-23" d="M108.45,281.14s-36.86,52.88.69,106.39c0,0,25.34,44.12,107,108,110.35,86.25,196.92,148.26,242,200.08,0,0,36.38-6.1,30.88-48.65-3.54-27.36-39.64-55.86-39.64-55.86L440,554.13Z"/><path id="_Path_23" data-name="&lt;Path&gt;" class="cls-24" d="M364.24,343.55c-25.34-15.95-71.5-40.54-81.51-39.28S231.57,327,231.57,327c87.73,61.25,133.67,142,154.73,189.64,19.06,2.14,35.43,14.78,43.07,31.82,20.59-9.2,45.47-28,48.36-65.47C482.73,417.88,403,367.94,364.24,343.55Z"/><path id="_Path_24" data-name="&lt;Path&gt;" class="cls-16" d="M286.27,299.06c-7.37.93-35.15,18-47.42,24.19l13,8.16S279,317.09,288,315.58c6.11-1,71.48,31.37,113.21,52.48C387.58,358.24,296.29,297.81,286.27,299.06Z"/><path id="_Path_25" data-name="&lt;Path&gt;" class="cls-25" d="M411.26,477c-24.05-13.81,4.6,53,4.6,53a54.92,54.92,0,0,1,13.51,18.4c20.59-9.2,45.47-28,48.36-65.47,3.16-41.19-27.63-76.31-60.48-102.73C486.81,446.65,452.08,500.49,411.26,477Z"/><path id="_Path_26" data-name="&lt;Path&gt;" class="cls-26" d="M174.8,287.56s-57.67-31.45-68.38-3.14c-17.52,46.31,96.37,138.92,179,190.24s153.94,105.13,164,116.39c0,0,30-67.58-46.31-130.16S208.3,286.36,196.34,278C191.21,274.39,184.37,280.38,174.8,287.56Z"/><path id="_Path_27" data-name="&lt;Path&gt;" class="cls-25" d="M403,460.89c-6.82-5.59-14-11.59-21.37-17.85,15.94,19.72,24.13,38.32,30.34,56.39,13.35,38.82-121.06-29.91-176-57.94,16.86,12.14,33.71,23.4,49.42,33.17C368,526,439.33,579.79,449.35,591.05,449.35,591.05,479.38,523.47,403,460.89Z"/><path id="_Path_28" data-name="&lt;Path&gt;" class="cls-27" d="M499.82,831.48c2-27.86-1.42-99.2-80.56-119.65-83.55-21.59-157.34,24.09-157.34,24.09l72.61,134.21C388.3,865.72,444.48,854.12,499.82,831.48Z"/><path id="_Path_29" data-name="&lt;Path&gt;" class="cls-25" d="M303.44,741.41S357.19,814.66,405.54,860a535.12,535.12,0,0,0,74.15-20.81C463.34,698.37,303.44,741.41,303.44,741.41Z"/><path id="_Path_30" data-name="&lt;Path&gt;" class="cls-28" d="M77,752.82c69.86,45.94,105.31,63.79,118.66,114.36,50.08,5.9,106.37,7.56,164.85.25-38.45-106.09-179.32-140-179.32-140L76.07,680.54,64.53,594.87a114.65,114.65,0,0,1-22.46-15.26C34.49,590.7,15.24,622.36,16,657.07,16.66,687.83,35.36,725.43,77,752.82Z"/><path id="_Path_31" data-name="&lt;Path&gt;" class="cls-29" d="M93.37,719.93c24.09,8.56,33.82,12.25,56.76,25.15,40.27,22.66,102,68,93.13,126.12a660.6,660.6,0,0,0,117.26-3.77c-38.45-106.09-179.32-140-179.32-140l-71.76-32A181.82,181.82,0,0,1,93.37,719.93Z"/><path id="_Path_32" data-name="&lt;Path&gt;" class="cls-23" d="M308.72,735c-59.4-17.33-191.43-32.77-224.21-83.57C72.57,632.93,73.6,614,76.14,600.32a142.26,142.26,0,0,1-16.3-8.05c-9.7,22.49-21.36,59.55,1.21,87.33,44.09,54.27,243.51,72.06,284.28,189.56,23.66-2.36,64.09-9.54,94.3-18.35C433.33,833.19,412.42,765.27,308.72,735Z"/><path id="_Path_33" data-name="&lt;Path&gt;" class="cls-30" d="M61.05,679.6c-13.21-16.25-14.66-35.67-11.68-53.5C42.72,637,24,693.77,83.8,717.94c127,51.32,227.63,98.37,227.63,98.37C240.05,744.4,97.49,724.45,61.05,679.6Z"/><path id="_Path_34" data-name="&lt;Path&gt;" class="cls-31" d="M170.89,553.4c-96.55-60.17-106.5-108.47-110-136a35,35,0,0,0-2.68,3.17c-18.77,25.34,9.39,75.09,73.22,125.78C174,580.09,250.21,615.5,311,658.39,287.81,627.66,246.88,600.75,170.89,553.4Z"/><path id="_Path_35" data-name="&lt;Path&gt;" class="cls-32" d="M111.86,320.18S135.47,405.33,334,506.44C334,506.44,188.21,405.79,111.86,320.18Z"/><path id="_Path_36" data-name="&lt;Path&gt;" class="cls-16" d="M29.48,495.9a52.93,52.93,0,0,0-12.55,29.76C14,557.4,43.34,608,149.12,616.5,47.65,580.26,30.26,542.34,29.48,495.9Z"/><path id="_Path_37" data-name="&lt;Path&gt;" class="cls-33" d="M196.34,278c-5.13-3.59-12,2.4-21.54,9.58,0,0,78.89,62.42,164.47,118.69C273.49,348.19,205.27,284.24,196.34,278Z"/></g><path id="_Path_38" data-name="&lt;Path&gt;" class="cls-14" d="M227.41,717s109.83,14.08,177.41,76C404.82,793,368.21,714.19,227.41,717Z"/><path id="_Path_39" data-name="&lt;Path&gt;" class="cls-34" d="M48.41,835.71s242.13,69.78,451.41-4.23c0,0-52.36,44.73-227.46,44.73C99.28,876.21,48.41,835.71,48.41,835.71Z"/></g></g></g></g></svg>