<?xml version="1.0" encoding="utf-8"?>
<!-- Generator: Adobe Illustrator 22.1.0, SVG Export Plug-In . SVG Version: 6.00 Build 0)  -->
<svg version="1.1" id="Layer_1" xmlns="http://www.w3.org/2000/svg" xmlns:xlink="http://www.w3.org/1999/xlink" x="0px" y="0px"
	 viewBox="0 0 804.8 978.1" style="enable-background:new 0 0 804.8 978.1;" xml:space="preserve">
<style type="text/css">
	.st0{fill:#E8DDCF;}
	.st1{fill:#F2EBE3;}
	.st2{fill:#FFE7B1;}
	.st3{fill:#E1B991;}
	.st4{fill:#F6D69C;}
	.st5{fill:#F2C27C;}
	.st6{fill:url(#_Path_9_1_);}
	.st7{fill:url(#_Path_10_1_);}
	.st8{fill:url(#_Path_11_1_);}
	.st9{fill:url(#_Path_12_1_);}
	.st10{opacity:0.5;fill:#64260F;enable-background:new    ;}
	.st11{fill:url(#_Path_14_1_);}
	.st12{fill:url(#_Path_15_1_);}
	.st13{fill:url(#_Path_16_1_);}
	.st14{opacity:0.5;fill:#C57343;enable-background:new    ;}
	.st15{fill:#C57343;}
	.st16{fill:#FFF5C7;}
	.st17{fill:#E9B36D;}
	.st18{fill:#D69C66;}
	.st19{fill:#F9DB94;}
	.st20{fill:#AF5927;}
	.st21{fill:#D67B2F;}
	.st22{opacity:0.5;fill:#883B25;enable-background:new    ;}
	.st23{fill:#80A23E;}
	.st24{fill:#698738;}
	.st25{fill:#A0BD39;}
	.st26{fill:url(#_Path_42_1_);}
	.st27{fill:url(#_Path_43_1_);}
	.st28{fill:url(#_Path_44_1_);}
	.st29{fill:url(#_Path_45_1_);}
	.st30{fill:#D9A7A7;}
	.st31{fill:url(#_Path_51_1_);}
	.st32{fill:#EFD1B7;}
	.st33{fill:#9E5E4F;}
</style>
<title>Asset 16</title>
<g id="Layer_2_1_">
	<g id="Layer_4">
		<g id="_Group_">
			<path id="_Path_3" class="st0" d="M804.8,817.8c0,93.9-177.2,160.2-405.6,160.2C177,978.1,0,911.8,0,817.8
				s180.2-170.1,402.4-170.1S804.8,723.9,804.8,817.8z"/>
			<g id="_Group_2">
				<ellipse id="_Path_4" class="st1" cx="402.4" cy="787.5" rx="402.4" ry="170.1"/>
				<g id="_Group_3">
					<path id="_Path_5" class="st2" d="M27.5,767.3c18,4.8,46.9-5.2,65.5-21.6c12.1-10.6,19.7-24.7,23.5-39.5
						c5.8-22.4-3.4-58.8-19.1-77c-12.2-14.1-31.7-19.9-45.7-5c-16.8,17.9,4.2,39.6-5.3,58.6c-10,19.8-40.5,25.7-44,49.6
						C-0.3,750.2,9.6,762.6,27.5,767.3z"/>
					<path id="_Path_6" class="st3" d="M61.5,653.3c1.5,2.9,2.6,6,3,9.3c0.7,3,1.1,6,1.2,9c-0.1,7.1-1.4,15-4.8,21.4
						c-2.4,4.4-5.3,8.5-8.7,12.2c-6,6.4-13,10.5-20.9,14.2c-1.1,0.6-2.6,0.2-3.2-1c0,0,0,0,0,0c-0.4-0.8-0.3-2.1,1.3-3.3l0,0
						c17.6-11.3,23.3-19.7,26.1-26c4-9.5,3.7-18.4,2.3-29.5c-0.2-1.6-0.7-6.1,1.7-7c0.8-0.3,1.6,0,2,0.7L61.5,653.3z"/>
					<path id="_Path_7" class="st4" d="M97.4,629.3c-12.2-14.1-31.7-19.9-45.7-5c-0.3,0.4-0.6,0.7-0.9,1.1
						C126.9,640,113.4,763.1,31.4,756c-9.8-0.7-19.3-3.6-27.8-8.4c3.3,9.6,11.6,16.5,23.9,19.7c18,4.8,46.9-5.2,65.5-21.6
						c12.1-10.6,19.7-24.7,23.5-39.5C122.3,683.9,113.1,647.5,97.4,629.3z"/>
				</g>
				<path id="_Path_8" class="st5" d="M721.9,743.9c-34.8,4.6-74.7-13.7-85.3-47.7c-4.3-14-1.8-28.6,10.3-37.9
					c25.4-19.5,36.6,9.6,58.8,12.1c19.3,2.2,31.5-19.8,49.8-22c29.8-3.7,43,31.5,35.3,52.2C778.5,733.3,746,740.8,721.9,743.9z"/>
				<g id="_Group_4">
					
						<linearGradient id="_Path_9_1_" gradientUnits="userSpaceOnUse" x1="180.1" y1="387.8279" x2="745.58" y2="387.8279" gradientTransform="matrix(1 0 0 -1 -44.14 980)">
						<stop  offset="0" style="stop-color:#D99B70"/>
						<stop  offset="0.2" style="stop-color:#E0AB83"/>
						<stop  offset="0.72" style="stop-color:#E0AB83"/>
						<stop  offset="0.76" style="stop-color:#E0AB83"/>
						<stop  offset="0.88" style="stop-color:#DFA880"/>
						<stop  offset="0.97" style="stop-color:#DBA076"/>
						<stop  offset="1" style="stop-color:#D99B70"/>
					</linearGradient>
					<path id="_Path_9" class="st6" d="M728,791.4c-31.7,34.8-142.6,94.9-320,94.9s-300.3-60.1-321.4-85.4
						c-3.4-43.2-22.6-455.4-6.3-467c70.9-50.6,601-51,659,20.9C745.2,362.2,730.9,758.2,728,791.4z"/>
					
						<linearGradient id="_Path_10_1_" gradientUnits="userSpaceOnUse" x1="184.6101" y1="477.0981" x2="735.8201" y2="479.0381" gradientTransform="matrix(1 0 0 -1 -44.14 980)">
						<stop  offset="0" style="stop-color:#F4D3AF"/>
						<stop  offset="0.2" style="stop-color:#FCE8CC"/>
						<stop  offset="0.74" style="stop-color:#FCE8CC"/>
						<stop  offset="0.79" style="stop-color:#FCE8CC"/>
						<stop  offset="0.87" style="stop-color:#FBE6C9"/>
						<stop  offset="0.94" style="stop-color:#F8DEBF"/>
						<stop  offset="1" style="stop-color:#F4D3AF"/>
					</linearGradient>
					<path id="_Path_10" class="st7" d="M74.8,375c-1.2,42.9-0.1,103.6,2.6,172.6c35.4,42.2,173.5,85.1,335.3,86.8
						c121.3,1.3,268.8-39.2,326-90.9c2.5-79.8,2.8-144.1,1.8-175.3C600.9,429.9,314,496.6,74.8,375z"/>
					
						<radialGradient id="_Path_11_1_" cx="378.24" cy="563.46" r="342.35" gradientTransform="matrix(1 0 0 -1 -44.14 980)" gradientUnits="userSpaceOnUse">
						<stop  offset="0" style="stop-color:#844434"/>
						<stop  offset="0.39" style="stop-color:#814132"/>
						<stop  offset="0.71" style="stop-color:#77392A"/>
						<stop  offset="1" style="stop-color:#662C1D"/>
					</radialGradient>
					<path id="_Path_11" class="st8" d="M746.6,362.7c-1.6-14.2-5.1-27.8-12.1-39.7c-18.5-31.8-49.2-45.5-82-59
						C576,232.7,490.2,222.9,408,222.9c-83,0-170,9.9-247.2,42.3c-59,24.7-95.6,53.2-95.6,120.3c0,72.6,1.9,136.9,4.3,200.8
						c1.5,40,11.4,74,27.1,74s35.6-19.9,49.8-75.5s42.7-91.1,69.8-89.7s34.2,38.4,38.4,85.4s15.8,229.2,0.1,242
						s-45.9,11.8-44.3,37.1c1.2,19,25.9,33.7,91.5,42.9c75.2,10.5,124.4-1.6,123.5-25.8c-1.5-41.1-79.6-32.2-103.8-62.1
						s-15.8-191.4-1.6-231.3s24.2-64.1,59.8-64.1s47,57,104,54.1s86.9-86.9,146.7-94s62.7,118.2,91.2,111.1c2.3-0.6,4.5-1.5,6.6-2.7
						C760.8,568.5,750,392.4,746.6,362.7z"/>
					<g>
						
							<linearGradient id="_Path_12_1_" gradientUnits="userSpaceOnUse" x1="148.12" y1="647.89" x2="750.8" y2="647.89" gradientTransform="matrix(1 0 0 -1 -44.14 980)">
							<stop  offset="0" style="stop-color:#915648"/>
							<stop  offset="1" style="stop-color:#783322"/>
						</linearGradient>
						<path id="_Path_12" class="st9" d="M408,222.9c-83,0-170,9.9-247.2,42.3c-17.8,7.5-33.6,15.3-46.9,24.4
							c-6.4,9.8-9.9,20.1-9.9,30.8c0,66.8,134.9,121,301.3,121s301.3-54.2,301.3-121c0-13.5-5.5-26.4-15.7-38.5
							c-12-6.8-25-12.4-38.5-17.9C576,232.7,490.2,222.9,408,222.9z"/>
					</g>
					<path id="_Path_13" class="st10" d="M311,361l-11,50c0,0,128.5,23,156.7-37.6c0,0,121.3,13.9,112.9-66.1L483,331.7l-114.7-8.5
						L311,361z"/>
					
						<linearGradient id="_Path_14_1_" gradientUnits="userSpaceOnUse" x1="214.8869" y1="876.817" x2="311.407" y2="780.2969" gradientTransform="matrix(1 0 0 -1 -44.14 980)">
						<stop  offset="1.000000e-02" style="stop-color:#723820"/>
						<stop  offset="1" style="stop-color:#622D19"/>
					</linearGradient>
					<path id="_Path_14" class="st11" d="M357.2,310.4c-29.9-4.3-59.9-16.9-87.6-28.8c-19.2-8.2-43.4-30.4-52.7-55.5
						c-6.2-16.6-6.8-35.9,0.1-52.2c14.5-34.4,59.1-31.5,88.8-15.7c72,38.2,89.1,107.8,98.2,162.8c4.5-0.1,9,0,13.5,0.3
						C406.2,205.5,351,127.1,282,111c-31.3-7.3-72.4-6.4-97.6,16.2c-23.5,21-27.4,54.9-16.6,87.9c2.5,7.8,5.9,15.2,10.2,22.1
						c16.9,27,49.5,49.8,82.5,62.1c33.6,12.5,65.8,25.2,93.9,30.1C355.3,323.1,356.3,316.7,357.2,310.4z"/>
					
						<linearGradient id="_Path_15_1_" gradientUnits="userSpaceOnUse" x1="382.9249" y1="974.2524" x2="435.4749" y2="869.1425" gradientTransform="matrix(1 0 0 -1 -44.14 980)">
						<stop  offset="1.000000e-02" style="stop-color:#723820"/>
						<stop  offset="1" style="stop-color:#622D19"/>
					</linearGradient>
					<path id="_Path_15" class="st12" d="M422.9,0c-65.2,0-124.2,59.5-124.3,160.7c-0.1,65.8,34.4,136.7,61.3,180.8
						c4.5-2.9,9.2-5.6,14-8c-19-39.8-41.2-95-43.1-142.9c-3.2-84.3,47.4-134.6,97.5-136.1c51.1-1.6,91.2,55.6,92.7,140.5
						c0.7,40.1-19.5,87.3-41.2,126.1c4.4,0.9,8.9,2,13.4,3.3c21-36.6,41.4-82.7,45.6-128.6C547.5,100.7,507.8,0,422.9,0z"/>
					
						<linearGradient id="_Path_16_1_" gradientUnits="userSpaceOnUse" x1="619.4933" y1="931.9097" x2="601.2733" y2="764.0297" gradientTransform="matrix(1 0 0 -1 -44.14 980)">
						<stop  offset="1.000000e-02" style="stop-color:#723820"/>
						<stop  offset="1" style="stop-color:#622D19"/>
					</linearGradient>
					<path id="_Path_16" class="st13" d="M575.1,106.8c-126.1,31.4-150.5,176.4-150.5,176.4l7.6,4.7c0,0,58.9-154.7,153-138l1.4,0.3
						c41.5,8,57.1,47,45.6,84.8c-11.1,36.6-69.3,65.7-107.6,78c5.8-0.5-4.1,11.2-0.8,11.4c10,0.5,143.3-31.3,160.7-130.2
						c6.2-35.1-8-66.6-38-82.6C627.4,101.4,597.7,101.2,575.1,106.8z"/>
				</g>
				<circle id="_Path_17" class="st14" cx="220.3" cy="575.3" r="13.6"/>
				<path id="_Path_18" class="st15" d="M351,704.4c0,7.5-6.1,13.6-13.6,13.6c-7.5,0-13.6-6.1-13.6-13.6c0-7.5,6.1-13.6,13.6-13.6
					c0,0,0,0,0,0C345,690.8,351,696.9,351,704.4L351,704.4z"/>
				<path id="_Path_19" class="st14" d="M638.5,532.2c0,7.5-6.1,13.6-13.6,13.6c-7.5,0-13.6-6.1-13.6-13.6c0-7.5,6.1-13.6,13.6-13.6
					c0,0,0,0,0,0C632.4,518.6,638.5,524.7,638.5,532.2z"/>
				<path id="_Path_20" class="st15" d="M175.1,647.1c5.8,1.5,9.3,7.5,7.8,13.4c-1.5,5.8-7.5,9.3-13.4,7.8
					c-5.8-1.5-9.3-7.5-7.8-13.4C163.3,649.1,169.3,645.6,175.1,647.1z"/>
				<path id="_Path_21" class="st15" d="M402.4,721.2c0,6-4.9,10.9-10.9,10.9s-10.9-4.9-10.9-10.9s4.9-10.9,10.9-10.9
					S402.4,715.1,402.4,721.2L402.4,721.2z"/>
				<circle id="_Path_22" class="st14" cx="583.6" cy="557.8" r="10.9"/>
				<path id="_Path_23" class="st15" d="M717,644.7c0,6-4.9,10.9-10.9,10.9s-10.9-4.9-10.9-10.9s4.9-10.9,10.9-10.9
					C712.1,633.7,717,638.6,717,644.7C717,644.7,717,644.7,717,644.7z"/>
				<circle id="_Path_24" class="st15" cx="686.3" cy="684.1" r="10.9"/>
				<circle id="_Path_25" class="st14" cx="620.9" cy="577.2" r="8.5"/>
				
					<ellipse id="_Path_26" transform="matrix(0.7071 -0.7071 0.7071 0.7071 -429.7111 475.7171)" class="st15" cx="359.4" cy="756.6" rx="8.5" ry="8.5"/>
				
					<ellipse id="_Path_27" transform="matrix(0.8645 -0.5027 0.5027 0.8645 -289.4865 177.2145)" class="st15" cx="183.9" cy="625.4" rx="8.5" ry="8.5"/>
				<g id="_Group_5">
					<path id="_Path_28" class="st2" d="M151,782.7c-16.9-3.8-34.6-3.3-51.2,1.6c-14.9,4.5-30.4,16.2-39.9,28.6
						c-10,13.1-7.3,34.3,9.2,42.3c11.5,5.5,24.6,6.6,36.9,3.2c7.9-2.2,19-6.8,27.2-3.5c13.8,5.5,16.2,17.9,25,28
						c21.2,24.2,60.1,16,61.4-18.8C221,826.2,186.8,790.5,151,782.7z"/>
					<path id="_Path_29" class="st4" d="M67,838.6c-11.7-11.5-5.2-26.7-3.6-29.9c-1.2,1.4-2.4,2.8-3.5,4.2
						c-10,13.1-7.3,34.3,9.2,42.3c11.5,5.5,24.6,6.6,36.9,3.2c7.9-2.2,19-6.8,27.2-3.5c13.8,5.5,16.2,17.9,25,28
						c21.2,24.2,60.1,16,61.3-18.8c0.2-6.2-0.5-12.5-2.1-18.5c1.3,23-12.9,46.4-33,40.1s-28.4-35.5-48.7-43.4S80.1,851.5,67,838.6z"
						/>
					<path id="_Path_30" class="st3" d="M99.9,841.7c2.8-1.7,5.9-2.8,9.1-3.4c2.9-0.8,5.9-1.3,8.9-1.5c7.1-0.2,15,0.7,21.4,3.8
						c4.5,2.2,8.7,4.9,12.5,8.1c6.6,5.7,11,12.3,15,20.1c0.7,1.1,0.3,2.6-0.8,3.2c0,0,0,0,0,0c-0.7,0.4-2.1,0.4-3.3-1.1l0,0
						c-11.9-16.9-20.5-22.2-27-24.6c-9.6-3.6-18.4-2.8-29.4-0.9c-1.6,0.3-6,1-7.1-1.4c-0.3-0.8,0-1.6,0.6-2.1L99.9,841.7z"/>
					<path id="_Path_31" class="st16" d="M69.6,827.1c-4.2-8.2,11.1-28.2,30.2-34.5c14.4-4.8,33.9-2.6,36.6,5.4
						c2.8,8.2-12.5,21.1-24.6,27C96.3,832.6,73.6,835,69.6,827.1z"/>
				</g>
				<g id="_Group_6">
					<path id="_Path_32" class="st5" d="M635.9,889.8c19.3-7.5,13.2-23.8,23.8-36.2s27.4-7.5,41.2-6.4c52.4,3.9,48.2-57,8.4-73.3
						c-48.9-20.1-113.3,9.8-124.8,61.3C578,864.2,603.3,902.5,635.9,889.8z"/>
					<path id="_Path_33" class="st17" d="M659.7,853.6c10.4-12.2,27.4-7.5,41.2-6.4c26.7,2,38.6-12.8,38.8-29.9
						c-12.9,17-36.2,18.7-56.4,12.6c-9.2-1.5-20.2,1.2-28.4,6.6c-4,5.1-11,12.7-12.1,17.2c-6.7,28-38,31.9-56.1,8.5
						c7.3,20.4,26.5,36.4,49.3,27.5C655.2,882.2,649.1,866,659.7,853.6z"/>
					<path id="_Path_34" class="st18" d="M697.4,835.1c-1.1,0.1-2.2,0-3.2-0.3c-6.4-0.8-13.2-1.2-19.5-0.1
						c-7.7,1.3-16.7,4.8-22.3,10.2c-4.2,3.4-6.7,8-8.6,12.9c-0.5,1.3-0.9,2.4-1.3,3.3s-0.7,1.9-1.9,2.3c-0.7,0.3-1.5,0-2-0.6
						c-0.2-0.3-0.3-0.6-0.3-1c-0.4-3,1.2-6,2.1-8.9c1-2.9,2.3-5.7,4-8.3c3.4-5.1,8-9.2,13.4-12c5-2.6,10.7-3.6,16.3-4.3
						c4.2-0.4,8.4-0.3,12.5,0.5c3.4,0.5,8,1.1,11,2.7c1.2,0.6,2,2.2,0.7,3.2C698,835,697.7,835.1,697.4,835.1z"/>
					<path id="_Path_35" class="st19" d="M687,787.8c-2.8-8.4-27.4-10.6-46.2-2.7c-21.4,9-37.2,32.2-32.3,40s29.6,0.8,44-5.8
						C668.4,812.1,690,796.7,687,787.8z"/>
				</g>
				<g id="_Group_7">
					<g id="_Group_8">
						<g id="_Group_9">
							<path id="_Path_36" class="st20" d="M480.6,167.9c-18.1-9.5-117.9,76.7-111.2,96c0,0,39,95,92.1,91.9
								c26.6,1.5,46-14.7,76.1-9.4l0,0l0,0c-0.9-30.6,18-47.4,20.4-74C568.9,220.4,480.6,167.9,480.6,167.9z"/>
							<path id="_Path_37" class="st21" d="M410.2,194.5c0,0-46.5,158.2,107.4,138.7L410.2,194.5z"/>
							<path id="_Path_38" class="st22" d="M480.6,167.9c-18.1-9.5-117.9,76.7-111.2,96c0,0,39,95,92.1,91.9
								c1.2,0.1,2.4,0.1,3.6,0.1c15.6-23,24.4-49.9,25.5-77.7c0,0,30.7,16,66.2,2.3c0,0,0-0.1,0-0.1c0.6-2.6,1-5.3,1.2-7.9
								C568.9,220.4,480.6,167.9,480.6,167.9z"/>
							<path id="_Path_39" class="st23" d="M529.3,238.6c18.8,11.3,51.6,1.9,51.6,1.9c-8.2-6.9-30.8-22.2-46.8-40.4
								c-15.5-17.7-53.9-77.1-128.5-24.1l-14.5-24l-16.4,13.4l22.4,17.1c-72.4,57.9-22.8,115.8,0,145.9
								c21.4,28.2,26.8,50.4,26.8,50.4c9.3-26.6,3.1-43,3.1-43c17.6,9.8,36.3,3.7,36.3,3.7c-5.8-40.3-29-64.7-29-64.7
								c27.4,3.4,41.8,21.2,41.8,21.2c10.7-27-1.3-48-1.3-48c28.1,29.4,61.5,24.5,61.5,24.5C538.7,257,529.3,238.6,529.3,238.6z"/>
							<path id="_Path_40" class="st24" d="M360.7,261.9c5.2,27.1,24.5,50.5,36.5,66.4c21.4,28.3,26.8,50.4,26.8,50.4
								c9.3-26.6,3.1-43,3.1-43c5.5,3.2,11.8,5.1,18.1,5.5C436.8,315,424,269.4,360.7,261.9z"/>
						</g>
						<path id="_Path_41" class="st25" d="M399.2,180.9c-12.3,9.5-21.2,19.1-27.5,28.5c16.2,12.5,43.3,19.3,63.8,5.5
							c20-13.5,23.6-39.9,18.6-59.8C438.3,157,420.1,164.6,399.2,180.9z"/>
					</g>
					<g id="_Group_10">
						
							<linearGradient id="_Path_42_1_" gradientUnits="userSpaceOnUse" x1="-6675.1221" y1="766.1083" x2="-6534.4219" y2="589.3784" gradientTransform="matrix(-1 0 0 -1 -6274.3901 980)">
							<stop  offset="0" style="stop-color:#FBDCA5"/>
							<stop  offset="1" style="stop-color:#FBC983"/>
						</linearGradient>
						<path id="_Path_42" class="st26" d="M344.7,238.3c49.6,21.1,71.3,108.8,39.7,148.5c-42.2,53.1-176.2,16.6-188.3-34.5
							C184.5,302.8,280.1,210.8,344.7,238.3z"/>
						
							<linearGradient id="_Path_43_1_" gradientUnits="userSpaceOnUse" x1="259.24" y1="656.908" x2="443.3828" y2="656.908" gradientTransform="matrix(1 0 0 -1 -44.14 980)">
							<stop  offset="0" style="stop-color:#EDBD78"/>
							<stop  offset="1" style="stop-color:#EDAD5F"/>
						</linearGradient>
						<path id="_Path_43" class="st27" d="M381.9,354.4c12.5-72.8-109.6-43.5-102.8-49.9c10.6-10,65.4-11,73.8-31.2
							c8.9-21.3-18.9-51.5-89.9-22.1c26.5-16.1,56.5-23.6,81.7-12.9c49.6,21.1,71.3,108.8,39.7,148.5
							c-34.1,42.9-128.2,27.3-169.4-7.3c0-0.1,0-0.2,0-0.4C295.5,426,375.7,390.8,381.9,354.4z"/>
						
							<linearGradient id="_Path_44_1_" gradientUnits="userSpaceOnUse" x1="311.4899" y1="710.7706" x2="418.0399" y2="730.4606" gradientTransform="matrix(1 0 0 -1 -44.14 980)">
							<stop  offset="0" style="stop-color:#FCE7C0"/>
							<stop  offset="1" style="stop-color:#FCD9A8"/>
						</linearGradient>
						<path id="_Path_44" class="st28" d="M340.7,260.5c-0.4-8.9-18.4-16.7-33.4-15.8c-15.9,0.9-32.7,11.8-31.4,20.5
							c1.4,9,21.6,15.2,37.5,12.9C325.6,276.4,341.1,268.9,340.7,260.5z"/>
						
							<linearGradient id="_Path_45_1_" gradientUnits="userSpaceOnUse" x1="324.8232" y1="638.6429" x2="431.3731" y2="658.3329" gradientTransform="matrix(1 0 0 -1 -44.14 980)">
							<stop  offset="0" style="stop-color:#FCE7C0"/>
							<stop  offset="1" style="stop-color:#FCD9A8"/>
						</linearGradient>
						<path id="_Path_45" class="st29" d="M364.7,331.7c-0.3-10.6-21.4-20.7-39.5-19.1c-15.9,1.3-34.1,12-33.5,22.1
							c0.6,10.5,21.4,19,38.3,18C346,351.7,364.9,341.8,364.7,331.7z"/>
					</g>
				</g>
				<g id="_Group_11">
					<path id="_Path_46" class="st2" d="M517.5,929.6c19.3,2.5,47.8-11.6,64.9-30.9c11.1-12.5,17.1-28.1,19.1-43.8
						c3.1-23.9-11.2-60.3-29.8-77c-14.4-12.9-35.3-16.4-47.8,0.8c-15,20.7,9.5,40.3,2.2,61.2c-7.7,21.8-38.5,31.8-39,57
						C486.6,915.5,498.3,927.1,517.5,929.6z"/>
					<path id="_Path_47" class="st4" d="M601.4,854.9c3.1-23.9-11.2-60.3-29.8-77c-10.3-9.2-23.9-13.6-35.4-9.1
						c39.7,12.7,59.2,54.5,49.2,93.8c-10.1,39.5-56.4,61.7-94.1,50.3c-0.4-0.1-0.8-0.3-1.2-0.4c4.7,9.5,14.3,15.5,27.4,17.2
						c19.3,2.5,47.8-11.6,64.9-30.9C593.4,886.1,599.4,870.6,601.4,854.9z"/>
					<path id="_Path_48" class="st3" d="M535.2,811.9l0.2,0.1c3,1.9,5.5,15.6,5.9,22.3c0.6,9-0.3,15.1-3.7,22.2
						c-2.9,6.1-9.8,13.8-21.3,21c-0.9,0.6-2.2,0.7-3.2,0.2c-0.2-0.1-0.4-0.3-0.5-0.6c-0.5-1.4,2-3.3,2.9-4
						c5.2-4.5,9.8-9.8,13.5-15.7c4.1-6.7,6.3-14.4,6.5-22.3c-0.2-6.4-1-12.8-2.5-19C532.6,814.5,532.6,810.5,535.2,811.9z"/>
				</g>
				<path id="_Path_49" class="st30" d="M108,329.9c-13.8,3.2-4.3,52.7,42.7,76.9s79.1,27.3,80.6,14.3c1.5-13.4-48.6-16.5-74.8-37.1
					C116.5,352.7,123.5,326.3,108,329.9z"/>
				<path id="_Path_50" class="st30" d="M255.8,428.4c1.4-14.4,64.6-4.4,63.5,8.7C317.8,454.3,253.9,447.1,255.8,428.4z"/>
				<g>
					
						<linearGradient id="_Path_51_1_" gradientUnits="userSpaceOnUse" x1="93.8657" y1="464.3245" x2="318.6525" y2="474.3596" gradientTransform="matrix(1 0 0 -1 -44.14 980)">
						<stop  offset="0" style="stop-color:#915648"/>
						<stop  offset="1" style="stop-color:#854331"/>
					</linearGradient>
					<path id="_Path_51" class="st31" d="M84.2,376.8C74,383.9,74.4,633.5,100,623.8s26.8-127.8,87.6-146s86.4,41.4,88.9,77.9
						s0,92.5,9.7,86.4s1.2-118.1,57.2-141.2s97.4,45,120.5,43.8s15.8-76.7,15.8-76.7S173.1,494.3,84.2,376.8z"/>
				</g>
				<path id="_Path_52" class="st32" d="M335.1,868.9c-2.4-23.2,53.1-14.4,54.3,4.4S337.3,890,335.1,868.9z"/>
			</g>
		</g>
		<path class="st33" d="M180.5,219.2c0,0-20-46.3,3.4-79.3c18.8-26.6,65.9-24.4,65.9-24.4s-37.5,1.8-60.6,31.2
			C167.1,174.8,180.5,219.2,180.5,219.2z"/>
		<path class="st33" d="M524.2,137.5c0,0,74.5-50.5,121-13.3C645.2,124.2,612.6,104.3,524.2,137.5z"/>
		<path class="st33" d="M305.5,176.1c0,0-14-147.6,114.4-169.5C419.8,6.6,318.8,29.8,305.5,176.1z"/>
	</g>
</g>
</svg>
