<?xml version="1.0" encoding="utf-8"?>
<!-- Generator: Adobe Illustrator 22.1.0, SVG Export Plug-In . SVG Version: 6.00 Build 0)  -->
<svg version="1.1" id="Layer_1" xmlns="http://www.w3.org/2000/svg" xmlns:xlink="http://www.w3.org/1999/xlink" x="0px" y="0px"
	 viewBox="0 0 742.6 589.2" style="enable-background:new 0 0 742.6 589.2;" xml:space="preserve">
<style type="text/css">
	.st0{fill:url(#_Compound_Path__1_);}
	.st1{opacity:0.6;fill:#B3521A;enable-background:new    ;}
	.st2{fill:url(#_Compound_Path_2_1_);}
	.st3{fill:#FFCBD1;}
	.st4{opacity:0.5;}
	.st5{fill:#FA9CB7;}
	.st6{opacity:0.2;fill:#DB4249;enable-background:new    ;}
	.st7{opacity:0.7;}
	.st8{fill:#FFF3EB;}
	.st9{fill:#FF7F7E;}
	.st10{fill:#FF615E;}
	.st11{fill:#FFD9D3;}
</style>
<title>Asset 23</title>
<g>
	<g id="Layer_2_1_">
		<g id="Layer_4">
			<g id="_Group_">
				
					<linearGradient id="_Compound_Path__1_" gradientUnits="userSpaceOnUse" x1="44.1444" y1="295.495" x2="675.3944" y2="295.495" gradientTransform="matrix(1 0 0 -1 -44.14 592)">
					<stop  offset="0" style="stop-color:#EFAF43"/>
					<stop  offset="1" style="stop-color:#E58B1B"/>
				</linearGradient>
				<path id="_Compound_Path_" class="st0" d="M742.3,276.6C735.2,111.4,543,3.8,361.1,3.8C171.3,3.8,7.3,118.5,0.3,276.6
					c-7.4,167.6,118.5,312.6,383,312.6C634.3,589.2,749.4,442.5,742.3,276.6z M214.7,278.9c0,0,151-152.4,306.2,9.9
					C520.9,288.8,368.5,405.9,214.7,278.9L214.7,278.9z"/>
				<path id="_Path_" class="st1" d="M369.5,163.7c-115.7,1.8-154.8,115.2-154.8,115.2s151-152.4,306.2,9.9
					C520.9,288.8,483.5,162,369.5,163.7z"/>
				
					<linearGradient id="_Compound_Path_2_1_" gradientUnits="userSpaceOnUse" x1="135.3456" y1="-9.3333" x2="432.3456" y2="286.6667">
					<stop  offset="0" style="stop-color:#FBCD8F"/>
					<stop  offset="0.12" style="stop-color:#F9C888"/>
					<stop  offset="1" style="stop-color:#EBA758"/>
				</linearGradient>
				<path id="_Compound_Path_2" class="st2" d="M688.3,139.4C618.1,52.7,489.8,0,364.7,0C238.9,0,122.9,52.1,56.9,133.2
					C45.7,158.6,40,186,39.9,213.7C39.9,354.1,188.3,468,371.3,468s331.4-113.9,331.4-254.3C702.6,188.2,697.8,163,688.3,139.4z
					 M520.9,288.8c0,0-152.4,117.1-306.2-9.9c0,0-28.1-31.7-29.6-51.6c-1.8-24.5,54.5-111.7,181.2-115.8
					C475,108,560.4,187.9,558.4,230C557,258.6,520.9,288.8,520.9,288.8z"/>
				<path id="_Path_2" class="st3" d="M689.6,142.9c-0.5-1.2-0.8-2.4-1.3-3.6c-29.2-36-68.5-66.2-113.3-89.1
					c-52.3,10.3-131.7,95.4-89.5,206.7c12.6,9.7,24.5,20.3,35.4,31.9c0,0-53.6,41.8-147.8,49.2l-0.6,0.4c0,0-153.7,53.1-72.6,245.4
					c27.7,3.6,55.6,5.4,83.5,5.3c251,0,366.1-146.7,359-312.6C740.1,226.2,720.7,181.2,689.6,142.9z"/>
				<g id="_Group_2" class="st4">
					<path id="_Path_3" class="st5" d="M485.4,256.9c12.6,9.7,24.5,20.3,35.5,31.9c0,0,36.1-30.1,37.5-58.8
						c1.2-25-28.3-63.2-75.2-89.5C471.1,173.3,468.8,213.1,485.4,256.9z"/>
				</g>
				<path id="_Path_4" class="st6" d="M485.4,256.9L485.4,256.9c1.7,1.3,3.5,2.7,5.2,4.1c0.9,0.7,1.7,1.4,2.6,2.1
					c1.8,1.4,3.5,2.9,5.3,4.4l1.9,1.7c1.6,1.4,3.3,2.9,4.9,4.4c0.6,0.5,1.1,1,1.7,1.5c2,1.9,4,3.8,6.1,5.8l1.4,1.4
					c2.2,2.1,4.3,4.3,6.5,6.5c0,0-12.9-43.8-46.7-79.5C475.8,225.6,479.6,241.6,485.4,256.9z"/>
				<g id="_Group_3" class="st4">
					<path id="_Path_5" class="st5" d="M742.3,276.6c-2.2-50.4-21.6-95.4-52.7-133.6c-0.5-1.2-0.8-2.4-1.3-3.6
						c9.5,23.6,14.3,48.8,14.4,74.3c0,140.5-148.4,254.3-331.4,254.3c-31.5,0-62.9-3.4-93.6-10.3c-4.5,33.2,0.4,74.7,22.1,126.2
						c27.7,3.6,55.6,5.4,83.5,5.3C634.3,589.2,749.4,442.5,742.3,276.6z"/>
				</g>
				<g id="_Group_4" class="st7">
					<path id="_Path_6" class="st8" d="M225.3,384.6c-13.5,0-13.6,21,0,21S238.9,384.6,225.3,384.6z"/>
					<path id="_Path_7" class="st8" d="M213.1,344.3c-4.1-4-10.7-4-14.9,0l-1.3,1.3c-3.9,3.9-4.2,11,0,14.9c4.2,4,10.7,4,14.9,0
						l1.3-1.3C217,355.3,217.2,348.1,213.1,344.3z"/>
					<path id="_Path_8" class="st8" d="M124.1,308.3c-13.5,0-13.6,21,0,21S137.6,308.3,124.1,308.3z"/>
					<path id="_Path_9" class="st8" d="M154.3,262.3c-13.5,0-13.6,21,0,21S167.9,262.3,154.3,262.3z"/>
					<path id="_Path_10" class="st8" d="M83.3,199.2c-13.5,0-13.6,21,0,21S96.9,199.2,83.3,199.2z"/>
					<path id="_Path_11" class="st8" d="M167.5,92.7c-13.5,0-13.6,21,0,21S181,92.7,167.5,92.7z"/>
					<path id="_Path_12" class="st8" d="M208.2,91.4c-13.5,0-13.6,21,0,21S221.8,91.4,208.2,91.4z"/>
					<path id="_Path_13" class="st8" d="M304.2,17.7c-13.5,0-13.6,21,0,21S317.8,17.7,304.2,17.7z"/>
					<path id="_Path_14" class="st8" d="M347.6,45.3c-13.5,0-13.6,21,0,21S361.2,45.3,347.6,45.3z"/>
					<path id="_Path_15" class="st8" d="M414.7,17.7h-1.3c-5.5,0-10.8,4.8-10.5,10.5c0.1,5.8,4.8,10.4,10.5,10.5h1.3
						c5.5,0,10.8-4.8,10.5-10.5C425.1,22.5,420.5,17.8,414.7,17.7z"/>
					<path id="_Path_16" class="st8" d="M383.1,13.8c-6.8,0-6.8,10.5,0,10.5S389.9,13.8,383.1,13.8z"/>
					<path id="_Path_17" class="st8" d="M372.6,44c-6.8,0-6.8,10.5,0,10.5S379.4,44,372.6,44z"/>
					<path id="_Path_18" class="st8" d="M367.4,65.1c-6.8,0-6.8,10.5,0,10.5S374.1,65.1,367.4,65.1z"/>
					<path id="_Path_19" class="st8" d="M237.2,84.8h-2.6c-2.9,0-5.3,2.4-5.3,5.3c0,2.9,2.4,5.3,5.3,5.3h2.6c2.9,0,5.3-2.4,5.3-5.3
						S240.1,84.8,237.2,84.8z"/>
					<path id="_Path_20" class="st8" d="M226.7,117.7v0.8c0,6.8,10.5,6.8,10.5,0v-0.8C237.2,110.9,226.7,110.9,226.7,117.7z"/>
					<path id="_Path_21" class="st8" d="M183.3,128.2h-2.6c-2.9,0-5.3,2.4-5.3,5.3c0,2.9,2.4,5.3,5.3,5.3h2.6c2.9,0,5.3-2.4,5.3-5.3
						C188.5,130.5,186.2,128.2,183.3,128.2L183.3,128.2z"/>
					<path id="_Path_22" class="st8" d="M92.5,180.8h-1.3c-2.9,0-5.3,2.4-5.3,5.3c0,2.9,2.4,5.3,5.3,5.3h1.3c2.9,0,5.3-2.4,5.3-5.3
						C97.8,183.1,95.4,180.8,92.5,180.8z"/>
					<path id="_Path_23" class="st8" d="M110.9,200.5c-6.8,0-6.8,10.5,0,10.5S117.7,200.5,110.9,200.5z"/>
					<path id="_Path_24" class="st8" d="M129.8,177.9c-1.5-2.5-4.7-3.3-7.2-1.9l-2.5,1.5c-2.5,1.5-3.4,4.7-1.9,7.2s4.7,3.4,7.2,1.9
						l0,0l2.5-1.5C130.4,183.6,131.2,180.4,129.8,177.9z"/>
					<path id="_Path_25" class="st8" d="M138.4,242.9c-0.3-2-1.8-3.6-3.7-4.1c-2.8-0.7-5.7,0.9-6.5,3.7c-1,4.1,1.2,7.6,5,9
						c2.6,1,5.9-1.1,6.5-3.7C140.2,246.1,139.7,244.2,138.4,242.9z"/>
					<path id="_Path_26" class="st8" d="M113.6,261h-3.9c-2.9,0-5.3,2.4-5.3,5.3c0,2.9,2.4,5.2,5.3,5.3h3.9c2.9,0,5.3-2.3,5.3-5.3
						S116.5,261,113.6,261C113.6,261,113.6,261,113.6,261z"/>
					<path id="_Path_27" class="st8" d="M130.7,266.2c-6.8,0-6.8,10.5,0,10.5S137.4,266.2,130.7,266.2z"/>
					<path id="_Path_28" class="st8" d="M154.4,299.5l-1.3-0.2c-2.7-0.4-5.8,0.7-6.5,3.7c-0.6,2.5,0.8,6,3.7,6.5l1.3,0.2
						c2.7,0.4,5.8-0.7,6.5-3.7C158.6,303.5,157.3,300,154.4,299.5z"/>
					<path id="_Path_29" class="st8" d="M218.6,321.6c-0.8-2.6-3.6-4.6-6.5-3.6l-4,1.3c-2.6,0.9-4.6,3.7-3.7,6.5
						c0.9,2.6,3.7,4.6,6.5,3.7l4-1.3C217.6,327.2,219.6,324.4,218.6,321.6z"/>
					<path id="_Path_30" class="st8" d="M166.2,357h-2.6c-2.9,0-5.3,2.3-5.3,5.3s2.3,5.3,5.3,5.3c0,0,0,0,0,0h2.6
						c2.9,0,5.3-2.3,5.3-5.3S169.1,357,166.2,357C166.2,357,166.2,357,166.2,357z"/>
					<path id="_Path_31" class="st8" d="M189.8,392.5c-6.8,0-6.8,10.5,0,10.5S196.6,392.5,189.8,392.5z"/>
					<path id="_Path_32" class="st8" d="M237.2,363.6h-1.3c-2.9,0-5.3,2.4-5.3,5.3c0,2.9,2.4,5.2,5.3,5.3h1.3c2.9,0,5.3-2.3,5.3-5.3
						S240.1,363.6,237.2,363.6C237.2,363.6,237.2,363.6,237.2,363.6z"/>
					<path id="_Path_33" class="st8" d="M247.7,343.8h-2.6c-2.9,0-5.3,2.4-5.3,5.3c0,2.9,2.4,5.2,5.3,5.3h2.6c2.9,0,5.3-2.4,5.3-5.3
						C252.9,346.2,250.6,343.8,247.7,343.8z"/>
					<path id="_Path_34" class="st8" d="M254.3,380.7H253c-2.9,0-5.3,2.4-5.3,5.3c0,2.9,2.4,5.2,5.3,5.3h1.3c2.9,0,5.3-2.4,5.3-5.3
						C259.6,383,257.2,380.7,254.3,380.7L254.3,380.7z"/>
					<path id="_Path_35" class="st8" d="M434.4,45.3c-0.2,0-0.4,0-0.5,0.1c-0.2,0-0.3,0-0.5,0c-2.7,0.1-5.5,2.3-5.3,5.3
						c0.2,3.1,2.5,5.8,5.8,5.7c3.2,0,5.8-2.6,5.8-5.8C439.7,47.7,437.3,45.4,434.4,45.3z"/>
					<path id="_Path_36" class="st8" d="M413.4,55.9h-1.3c-2.9,0-5.3,2.4-5.3,5.3c0,2.9,2.4,5.3,5.3,5.3h1.3c2.9,0,5.3-2.4,5.3-5.3
						C418.6,58.2,416.3,55.9,413.4,55.9z"/>
					<path id="_Path_37" class="st8" d="M509.1,51.7c-0.5-1.4-1.5-2.6-2.9-3.3c-0.6-1.4-1.8-2.4-3.3-2.8c-2.8-0.7-5.6,0.9-6.5,3.7
						c-1.9,5.1,3.9,10.9,9,9C508,57.2,510.1,54.6,509.1,51.7z"/>
					<path id="_Path_38" class="st8" d="M213.6,76.8c-0.1-0.4-0.1-0.8-0.2-1.3c-0.5-2.7-4-4.5-6.5-3.7c-2.8,0.8-4.4,3.7-3.7,6.5
						c0.1,0.4,0.1,0.8,0.2,1.3c0.5,2.7,3.9,4.5,6.5,3.7C212.7,82.4,214.3,79.5,213.6,76.8z"/>
					<path id="_Path_39" class="st8" d="M489.6,67.7c-11.9,0-11.9,18.4,0,18.4S501.5,67.7,489.6,67.7z"/>
					<path id="_Path_40" class="st8" d="M224,42.7c-11.9,0-11.9,18.4,0,18.4S235.9,42.7,224,42.7z"/>
				</g>
				<polygon id="_Path_41" class="st9" points="585.9,85.3 586.6,107.5 593,108.2 593.7,84.6 				"/>
				<polygon id="_Path_42" class="st9" points="519.5,196.6 520.3,212.2 526.7,212.8 527.4,196.1 				"/>
				<polygon id="_Path_43" class="st9" points="471,483.6 479.3,496.8 485.2,494 477.6,479.2 				"/>
				<polygon id="_Path_44" class="st9" points="710,351.7 696.9,343.1 692.7,348.1 705.8,358.4 				"/>
				<polygon id="_Path_45" class="st10" points="726.6,267 723.8,251.7 717.3,252 718.9,268.6 				"/>
				<polygon id="_Path_46" class="st9" points="641,122.6 620.5,131.3 622.2,137.6 644.5,129.7 				"/>
				<polygon id="_Path_47" class="st9" points="398.4,351.2 377.9,359.9 379.5,366.1 401.9,358.3 				"/>
				<polygon id="_Path_48" class="st10" points="439.8,392.6 421.9,379.5 417.3,384.2 435.5,399.3 				"/>
				<polygon id="_Path_49" class="st9" points="485.5,349.6 493.2,334.7 487.8,331.1 478.4,346.1 				"/>
				<polygon id="_Path_50" class="st9" points="520.7,544.6 528.3,529.8 522.9,526.1 513.5,541.2 				"/>
				<polygon id="_Path_51" class="st9" points="310.9,479.1 317.2,457.8 311.3,455.1 303.1,477.3 				"/>
				<polygon id="_Path_52" class="st11" points="454.2,547 433.7,555.7 435.4,561.9 457.7,554.1 				"/>
				<polygon id="_Path_53" class="st11" points="593.2,171 575.6,157.4 570.9,162 588.7,177.5 				"/>
				<polygon id="_Path_54" class="st11" points="560.4,308.3 542.8,294.7 538.2,299.3 556,314.8 				"/>
				<polygon id="_Path_55" class="st11" points="516.3,427.6 505.9,447.3 511.2,451.1 523.5,430.9 				"/>
				<polygon id="_Path_56" class="st10" points="608.7,404.5 588.7,394.8 585.1,400.2 605.7,411.8 				"/>
				<polygon id="_Path_57" class="st9" points="559.3,370.6 559.1,348.4 552.7,347.5 551.4,371.1 				"/>
				<polygon id="_Path_58" class="st10" points="343.5,552.6 356.7,534.7 352.1,530.1 336.9,548.3 				"/>
				<polygon id="_Path_59" class="st11" points="677.9,412.4 657.5,421 659.1,427.3 681.4,419.5 				"/>
				<polygon id="_Path_60" class="st10" points="531.9,135.3 525.3,114.1 518.9,115.1 524.5,138.1 				"/>
				<polygon id="_Path_61" class="st9" points="637.9,328 638.3,305.8 631.9,304.8 630,328.3 				"/>
				<polygon id="_Path_62" class="st11" points="678.1,257.2 661.8,242 656.8,246.1 673,263.3 				"/>
				<polygon id="_Path_63" class="st9" points="610.6,503 594.3,487.9 589.3,492 605.5,509.1 				"/>
				<polygon id="_Path_64" class="st11" points="366.4,420.4 350.2,405.2 345.1,409.3 361.4,426.5 				"/>
				<polygon id="_Path_65" class="st9" points="658.4,202.2 669.3,182.9 664.2,178.9 651.3,198.7 				"/>
				<polygon id="_Path_66" class="st10" points="599.1,248.2 610,228.9 604.9,224.9 592,244.7 				"/>
				<polygon id="_Path_67" class="st9" points="407.9,472.1 394.7,454.3 389,457.4 401.8,477.2 				"/>
				<path id="_Path_68" class="st8" d="M40.9,206.9c-17,13.7-6.2,90.2,18.7,89.9C78.7,296.6,54.7,195.8,40.9,206.9z"/>
				<path id="_Path_69" class="st8" d="M71.1,324.4c-9.9,11.8,12.7,46.9,28.1,34.6C111.4,349.3,84.8,308,71.1,324.4z"/>
			</g>
		</g>
	</g>
</g>
</svg>
