<?xml version="1.0" encoding="utf-8"?>
<!-- Generator: Adobe Illustrator 22.1.0, SVG Export Plug-In . SVG Version: 6.00 Build 0)  -->
<svg version="1.1" id="Layer_1" xmlns="http://www.w3.org/2000/svg" xmlns:xlink="http://www.w3.org/1999/xlink" x="0px" y="0px"
	 viewBox="0 0 548.4 468" style="enable-background:new 0 0 548.4 468;" xml:space="preserve">
<style type="text/css">
	.st0{fill:url(#SVGID_1_);}
	.st1{opacity:5.000000e-02;}
	.st2{fill:#FFDEF4;}
	.st3{opacity:0.2;fill:#662C1D;enable-background:new    ;}
	.st4{fill:#4F2216;}
	.st5{fill:url(#SVGID_2_);}
	.st6{fill:#740000;}
	.st7{opacity:0.3;fill:#CF1733;enable-background:new    ;}
	.st8{fill:#C98DB6;}
	.st9{opacity:0.5;fill:#FFFFFF;enable-background:new    ;}
	.st10{opacity:0.7;fill:url(#SVGID_3_);enable-background:new    ;}
	.st11{opacity:0.7;fill:url(#SVGID_4_);enable-background:new    ;}
	.st12{opacity:0.7;fill:url(#SVGID_5_);enable-background:new    ;}
	.st13{opacity:0.7;fill:url(#SVGID_6_);enable-background:new    ;}
	.st14{opacity:0.7;fill:url(#SVGID_7_);enable-background:new    ;}
	.st15{opacity:0.7;fill:url(#SVGID_8_);enable-background:new    ;}
	.st16{opacity:0.7;fill:url(#SVGID_9_);enable-background:new    ;}
	.st17{opacity:0.7;fill:url(#SVGID_10_);enable-background:new    ;}
	.st18{opacity:0.7;fill:url(#SVGID_11_);enable-background:new    ;}
</style>
<title>Asset 6</title>
<g>
	<g id="Layer_2_1_">
		<g id="Layer_4">
			
				<linearGradient id="SVGID_1_" gradientUnits="userSpaceOnUse" x1="434.2982" y1="-23.3104" x2="315.7982" y2="527.0496" gradientTransform="matrix(1 0 0 -1 -115.69 470)">
				<stop  offset="0" style="stop-color:#87493C"/>
				<stop  offset="1" style="stop-color:#672D1E"/>
			</linearGradient>
			<path class="st0" d="M2.8,324.5C-19.9,168.2,98.5,7.9,255.3,0.3c153.6-7.4,295.5,127.5,289.2,280.5c-0.9,1.6-4.2,4.5-9.6,8.4
				C484,307.4,295.1,409.8,230.5,462.3c-7.7,3.2-13.4,5.2-16.5,5.4C164.8,472.2,21.3,416.8,2.8,324.5z"/>
			<g class="st1">
				<path class="st2" d="M147.2,52.2c0,0-134.5,70.6-129,265.6c0.5,19.3,38.8,71.4,101.3,95.7C155.6,197.6,199.3,110.1,147.2,52.2z"
					/>
			</g>
			<path class="st3" d="M302.9,265.7c-5.3-9-10.6-18.1-15.7-27.2c-7.1,11-14.1,22.2-23.5,30.3c-97,83.1-219.5,98.9-263.4,6.6
				c-0.6,16.4,0.2,32.8,2.6,49c18.5,92.4,162,147.8,211.2,143.3c3.1-0.3,8.8-2.2,16.5-5.4c28.5-23.2,81.3-56.1,135.8-87.2
				C345.4,338.5,324.3,302,302.9,265.7z"/>
			<path class="st4" d="M548.2,277.8c2.2-47.4-15.3-94.3-39.7-135.9c-50.8-73.5-132.7-70.4-191.6-30.5
				C170.5,210.4,214,467.7,214,467.7c3.1-0.3,8.8-2.2,16.5-5.5c65.7-50.5,250.6-137.4,303.9-173.7
				C542.3,283.1,547.3,279.3,548.2,277.8z"/>
			
				<linearGradient id="SVGID_2_" gradientUnits="userSpaceOnUse" x1="230.7476" y1="343.7479" x2="566.3676" y2="0.8379" gradientTransform="matrix(1 0 0 -1 -44.14 470)">
				<stop  offset="0" style="stop-color:#FFC9DA"/>
				<stop  offset="1" style="stop-color:#F3869E"/>
			</linearGradient>
			<path class="st5" d="M529,236.8c-17.8-95.2-80.5-159.6-176-119.6c-117.6,49.2-130.1,197.3-127,287.6c0,0.2,0,0.5,0,0.7
				c0.9,24.9,3,45,4.5,56.8c62.4-26.2,258-139,304.3-173.1C533.9,271.6,532.5,253.8,529,236.8z"/>
			<path class="st6" d="M375.6,186c-33.4,16.1-82.8,65.3-73,172.1c1.5,15.7,169.9-73.8,168.6-92.1
				C467.9,219.2,425.4,162.1,375.6,186z"/>
			<path class="st7" d="M447.4,168.2c0.8,6.4,10.7,5.2,9.9-1.2S446.6,161.8,447.4,168.2z"/>
			<path class="st7" d="M308.9,170.9c2.7,5.8,11.8,1.6,9.1-4.2S306.1,165.1,308.9,170.9z"/>
			<path class="st7" d="M473.5,171.9c-2.5,3.2-2,7.8,1.2,10.3c0,0,0,0,0,0c1.5,1.2,3.5,1.7,5.4,1.5l0.6-0.1c4-0.5,6.9-4.1,6.5-8.2
				c-0.2-1.9-1.2-3.7-2.8-4.9c-1.5-1.2-3.5-1.7-5.4-1.5l-0.6,0.1C476.4,169.4,474.7,170.4,473.5,171.9z"/>
			<path class="st7" d="M306.3,191c-1.4,3.8,0.6,8,4.4,9.4c1.8,0.6,3.8,0.6,5.6-0.2l0.5-0.2c1.8-0.8,3.1-2.3,3.8-4.1
				c0.7-1.8,0.6-3.9-0.2-5.6c-0.8-1.8-2.3-3.1-4.1-3.8c-1.8-0.6-3.8-0.6-5.6,0.2l-0.5,0.2C308.3,187.7,307,189.2,306.3,191z"/>
			<path class="st7" d="M490.7,243.6c-0.3,10.3,14.6,10.8,14.9,0.4S491,233.2,490.7,243.6z"/>
			<path class="st7" d="M264.4,388.6c4.9,10.6,21.4,3,16.5-7.6S259.5,378,264.4,388.6z"/>
			<path class="st7" d="M507.4,264.3c-0.2,6.3,9.6,6.6,9.8,0.3S507.6,258,507.4,264.3z"/>
			<path class="st7" d="M358.2,154.7c2.6,5.7,11.5,1.6,8.9-4.1S355.5,149,358.2,154.7z"/>
			<path class="st7" d="M249,403.5c-1.9,1.2-3,3.4-1.9,5.7c0.8,1.8,2.5,3,4.5,3.2c1.3,0.1,2.6-0.3,3.6-1.1c1.7-1.6,2.1-4.2,1.1-6.3
				C254.9,401.9,251.3,402,249,403.5z"/>
			<path class="st7" d="M249.9,353.7c3.5,7.5,15.2,2.1,11.7-5.4S246.4,346.1,249.9,353.7z"/>
			<path class="st8" d="M230.5,462.3c62.4-26.2,258-139,304.3-173.1c-0.2-4.6-0.5-9.3-0.8-14C424.5,351.1,262.2,434.3,229.2,451
				C229.6,455.3,230.1,459.1,230.5,462.3z"/>
			<path id="_Path_" class="st9" d="M106.1,121.1c-6.3-6.6-19.8-2.7-29.5,10.2c-9.1,12.1-11.2,27.1-6.7,34.2c5.6,8.9,21,5.2,31.4-9
				C110.5,144,112.4,127.8,106.1,121.1z"/>
			<path class="st9" d="M139.9,90.7c0.9,6.4-3.5,12.3-9.8,13.2c-6.4,0.9-12.3-3.5-13.2-9.8s3.5-12.3,9.8-13.2c0,0,0,0,0,0
				C133,80,139,84.4,139.9,90.7C139.9,90.7,139.9,90.7,139.9,90.7z"/>
			
				<linearGradient id="SVGID_3_" gradientUnits="userSpaceOnUse" x1="461.498" y1="242.9354" x2="562.148" y2="94.7154" gradientTransform="matrix(1 0 0 -1 -118.68 470)">
				<stop  offset="0" style="stop-color:#DE4379"/>
				<stop  offset="0.25" style="stop-color:#C32D58"/>
				<stop  offset="0.57" style="stop-color:#A51532"/>
				<stop  offset="0.84" style="stop-color:#93061B"/>
				<stop  offset="1" style="stop-color:#8C0013"/>
			</linearGradient>
			<path class="st10" d="M362.8,211.9c-8.8,5-17.1,11.5-19.3,21.9c-0.9,4.1-0.5,8.5,1.1,12.4c2.8,6.8,12.5,21.8-0.6,26.1
				c-8,2.6-4.4,10.1,3.7,7.4c9-3,13.7-9.4,14.3-19.3c0.3-5.6-2-10.9-4.5-15.7c-5.9-11.4,0.3-20.1,9.9-25.6
				C374.7,215,370.2,207.7,362.8,211.9z"/>
			
				<linearGradient id="SVGID_4_" gradientUnits="userSpaceOnUse" x1="480.1757" y1="255.6103" x2="580.8157" y2="107.3903" gradientTransform="matrix(1 0 0 -1 -118.68 470)">
				<stop  offset="0" style="stop-color:#DE4379"/>
				<stop  offset="0.25" style="stop-color:#C32D58"/>
				<stop  offset="0.57" style="stop-color:#A51532"/>
				<stop  offset="0.84" style="stop-color:#93061B"/>
				<stop  offset="1" style="stop-color:#8C0013"/>
			</linearGradient>
			<path class="st11" d="M384.4,235c-6.2-5.8-14.3,1.2-8.1,7c4.8,4.4,8.2,13.3,8.6,19.9c0.5,8.4,12,7.6,11.5-0.9
				C395.9,251.1,391.6,241.8,384.4,235z"/>
			
				<linearGradient id="SVGID_5_" gradientUnits="userSpaceOnUse" x1="509.6837" y1="275.6526" x2="610.3337" y2="127.4325" gradientTransform="matrix(1 0 0 -1 -118.68 470)">
				<stop  offset="0" style="stop-color:#DE4379"/>
				<stop  offset="0.25" style="stop-color:#C32D58"/>
				<stop  offset="0.57" style="stop-color:#A51532"/>
				<stop  offset="0.84" style="stop-color:#93061B"/>
				<stop  offset="1" style="stop-color:#8C0013"/>
			</linearGradient>
			<path class="st12" d="M420.8,224.4c-5.8,0.5-12.5-0.6-18.3-1.6c-2.6-0.3-5-1.5-6.8-3.4c-2.9-3.5-2.8-8.6,0.3-11.9
				c6.1-6.1,10.6-0.4,16.5-0.7c5.5-0.4,8-5.6,4.3-9.5c-11.9-12.6-31.6,4.1-31.5,18c0.1,18.4,21.1,21.8,35.2,20.7
				C428.9,235.3,429.3,223.7,420.8,224.4z"/>
			
				<linearGradient id="SVGID_6_" gradientUnits="userSpaceOnUse" x1="524.4321" y1="285.6682" x2="625.0822" y2="137.4482" gradientTransform="matrix(1 0 0 -1 -118.68 470)">
				<stop  offset="0" style="stop-color:#DE4379"/>
				<stop  offset="0.25" style="stop-color:#C32D58"/>
				<stop  offset="0.57" style="stop-color:#A51532"/>
				<stop  offset="0.84" style="stop-color:#93061B"/>
				<stop  offset="1" style="stop-color:#8C0013"/>
			</linearGradient>
			<path class="st13" d="M443.9,220.5c-5.6-6.3-10.9-1.8-7.5,5.9c2.4,5.4,2.4,11.6,0.1,17c-1.4,3.3-1,7,2.4,9c2.8,1.7,7.6,0.9,9-2.4
				C452.3,240,451.9,229.5,443.9,220.5z"/>
			
				<linearGradient id="SVGID_7_" gradientUnits="userSpaceOnUse" x1="512.254" y1="277.3959" x2="612.894" y2="129.1759" gradientTransform="matrix(1 0 0 -1 -118.68 470)">
				<stop  offset="0" style="stop-color:#DE4379"/>
				<stop  offset="0.25" style="stop-color:#C32D58"/>
				<stop  offset="0.57" style="stop-color:#A51532"/>
				<stop  offset="0.84" style="stop-color:#93061B"/>
				<stop  offset="1" style="stop-color:#8C0013"/>
			</linearGradient>
			<path class="st14" d="M454.1,260.5c-6.9,2.3-23.4,8.3-27.2-8.3c-1.9-8.3-8.7-7.1-9,1.4c-0.1,8.7,5.1,16.6,13.2,19.8
				c9.3,3.9,19.5,0.9,27.4-4.7C465.5,263.9,462.8,257.7,454.1,260.5z"/>
			
				<linearGradient id="SVGID_8_" gradientUnits="userSpaceOnUse" x1="472.7599" y1="250.5799" x2="573.3999" y2="102.3599" gradientTransform="matrix(1 0 0 -1 -118.68 470)">
				<stop  offset="0" style="stop-color:#DE4379"/>
				<stop  offset="0.25" style="stop-color:#C32D58"/>
				<stop  offset="0.57" style="stop-color:#A51532"/>
				<stop  offset="0.84" style="stop-color:#93061B"/>
				<stop  offset="1" style="stop-color:#8C0013"/>
			</linearGradient>
			<path class="st15" d="M412.2,277.2c-12.2,6.4-25.2,5.1-32.8-4.3c-5.3-6.6-14.6,2.8-9.3,9.3c12.3,15.1,33.8,15.6,47.7,2.5
				C423.9,278.9,419.7,273.2,412.2,277.2z"/>
			
				<linearGradient id="SVGID_9_" gradientUnits="userSpaceOnUse" x1="410.1067" y1="208.0345" x2="510.7467" y2="59.8146" gradientTransform="matrix(1 0 0 -1 -118.68 470)">
				<stop  offset="0" style="stop-color:#DE4379"/>
				<stop  offset="0.25" style="stop-color:#C32D58"/>
				<stop  offset="0.57" style="stop-color:#A51532"/>
				<stop  offset="0.84" style="stop-color:#93061B"/>
				<stop  offset="1" style="stop-color:#8C0013"/>
			</linearGradient>
			<path class="st16" d="M336.3,298.8c-20.3,3.4-29.8,23.9-17.3,41.5c4.9,6.9,14.4,2.7,9.8-4.4c-6.8-10.5-3.1-23.7,9.7-28.9
				C346.4,303.8,344.6,297.4,336.3,298.8z"/>
			
				<linearGradient id="SVGID_10_" gradientUnits="userSpaceOnUse" x1="432.4927" y1="223.2351" x2="533.1328" y2="75.0151" gradientTransform="matrix(1 0 0 -1 -118.68 470)">
				<stop  offset="0" style="stop-color:#DE4379"/>
				<stop  offset="0.25" style="stop-color:#C32D58"/>
				<stop  offset="0.57" style="stop-color:#A51532"/>
				<stop  offset="0.84" style="stop-color:#93061B"/>
				<stop  offset="1" style="stop-color:#8C0013"/>
			</linearGradient>
			<path class="st17" d="M364.1,304.1c-2.2,9.3-8,12.8-17.9,13.5c-8.5,0.5-3.8,12.8,4.5,11c11.7-2.7,21-11.4,24.5-22.9
				C377.6,297.5,366.1,295.9,364.1,304.1z"/>
			
				<linearGradient id="SVGID_11_" gradientUnits="userSpaceOnUse" x1="430.6812" y1="222.0076" x2="531.3312" y2="73.7876" gradientTransform="matrix(1 0 0 -1 -118.68 470)">
				<stop  offset="0" style="stop-color:#DE4379"/>
				<stop  offset="0.25" style="stop-color:#C32D58"/>
				<stop  offset="0.57" style="stop-color:#A51532"/>
				<stop  offset="0.84" style="stop-color:#93061B"/>
				<stop  offset="1" style="stop-color:#8C0013"/>
			</linearGradient>
			<path class="st18" d="M323.8,256.9c-4,6.3-5.9,13.7-5.5,21.1c0.6,8.4,11.5,8.6,10.9,0.1c-0.4-5.3-0.1-12.5,2.2-17.3
				C335,253.5,328.3,249.7,323.8,256.9z"/>
		</g>
	</g>
</g>
</svg>
