<svg xmlns="http://www.w3.org/2000/svg" xmlns:xlink="http://www.w3.org/1999/xlink" viewBox="0 0 887.14 708.94"><defs><style>.cls-1{isolation:isolate;}.cls-2{fill:#a3846e;}.cls-3{fill:#d1721e;}.cls-4{fill:#732c09;}.cls-5{fill:#5c1d04;}.cls-6{fill:url(#linear-gradient);}.cls-7{fill:#ab8878;}.cls-33,.cls-8{fill:#ffe7b1;}.cls-9{fill:#d29f68;}.cls-26,.cls-9{opacity:0.2;}.cls-26,.cls-27,.cls-31,.cls-9{mix-blend-mode:multiply;}.cls-10{fill:url(#linear-gradient-2);}.cls-11{fill:#c45610;opacity:0.3;}.cls-12{fill:#4f1c02;}.cls-12,.cls-25,.cls-30{opacity:0.5;}.cls-13{fill:url(#linear-gradient-3);}.cls-14{fill:url(#linear-gradient-4);}.cls-15{fill:url(#linear-gradient-5);}.cls-16{fill:url(#linear-gradient-6);}.cls-17{fill:url(#linear-gradient-7);}.cls-18{fill:#e1b991;}.cls-19{fill:url(#linear-gradient-8);}.cls-20{fill:url(#linear-gradient-9);}.cls-21{fill:url(#linear-gradient-10);}.cls-22,.cls-33{opacity:0.7;}.cls-22{fill:url(#linear-gradient-11);}.cls-23{fill:url(#linear-gradient-12);}.cls-24{fill:url(#linear-gradient-13);}.cls-25{fill:#f8b34e;}.cls-26{fill:#d36812;}.cls-27{fill:#ebdab7;}.cls-28{fill:url(#linear-gradient-14);}.cls-29{fill:url(#linear-gradient-15);}.cls-30{fill:#d9a684;}.cls-31{fill:#590800;opacity:0.07;}.cls-32{fill:#ffe2ac;}.cls-33{mix-blend-mode:overlay;}</style><linearGradient id="linear-gradient" x1="946.93" y1="98.24" x2="972.2" y2="140.57" gradientTransform="translate(-899.6 622.23) rotate(-16.8)" gradientUnits="userSpaceOnUse"><stop offset="0.03" stop-color="#73371f"/><stop offset="0.67" stop-color="#65270e"/><stop offset="1" stop-color="#5c1d04"/></linearGradient><linearGradient id="linear-gradient-2" x1="1535.08" y1="213.52" x2="985.6" y2="213.52" gradientTransform="translate(-623.74 1150.6) rotate(-52.66)" gradientUnits="userSpaceOnUse"><stop offset="0" stop-color="#ec9c2a"/><stop offset="0.59" stop-color="#e99026"/><stop offset="1" stop-color="#d1721e"/></linearGradient><linearGradient id="linear-gradient-3" x1="991.64" y1="127.44" x2="1088.83" y2="155.38" gradientTransform="translate(-623.74 1150.6) rotate(-52.66)" gradientUnits="userSpaceOnUse"><stop offset="0" stop-color="#9c522d"/><stop offset="0.47" stop-color="#8b431e"/><stop offset="1" stop-color="#732c09"/></linearGradient><linearGradient id="linear-gradient-4" x1="1356.1" y1="177.84" x2="1125.65" y2="177.84" xlink:href="#linear-gradient-2"/><linearGradient id="linear-gradient-5" x1="1185.73" y1="104.42" x2="1211" y2="146.76" gradientTransform="translate(-935.97 -117.82) rotate(12.93)" xlink:href="#linear-gradient"/><linearGradient id="linear-gradient-6" x1="1092.25" y1="224.47" x2="1266.88" y2="224.47" xlink:href="#linear-gradient-2"/><linearGradient id="linear-gradient-7" x1="1110.26" y1="37.4" x2="1135.53" y2="79.73" gradientTransform="translate(-623.74 1150.6) rotate(-52.66)" xlink:href="#linear-gradient"/><linearGradient id="linear-gradient-8" x1="1126.6" y1="233.96" x2="1151.87" y2="276.3" gradientTransform="translate(-623.74 1150.6) rotate(-52.66)" xlink:href="#linear-gradient"/><linearGradient id="linear-gradient-9" x1="930.45" y1="336.83" x2="1431.47" y2="336.83" xlink:href="#linear-gradient-2"/><linearGradient id="linear-gradient-10" x1="1005.28" y1="359.57" x2="1343.44" y2="355.63" xlink:href="#linear-gradient-3"/><linearGradient id="linear-gradient-11" x1="886.3" y1="315.8" x2="1028.49" y2="315.8" xlink:href="#linear-gradient-3"/><linearGradient id="linear-gradient-12" x1="1023.54" y1="306.06" x2="1048.81" y2="348.39" gradientTransform="matrix(0.89, -0.45, 0.45, 0.89, -808.09, 694.95)" xlink:href="#linear-gradient"/><linearGradient id="linear-gradient-13" x1="897.44" y1="215.42" x2="1296.83" y2="448.75" xlink:href="#linear-gradient-2"/><linearGradient id="linear-gradient-14" x1="717.82" y1="360.08" x2="554.77" y2="859.4" gradientTransform="translate(-44.14)" gradientUnits="userSpaceOnUse"><stop offset="0" stop-color="#fff0db"/><stop offset="1" stop-color="#e0c0a8"/></linearGradient><linearGradient id="linear-gradient-15" x1="1265.15" y1="284.64" x2="1290.42" y2="326.97" gradientTransform="translate(-623.74 1150.6) rotate(-52.66)" xlink:href="#linear-gradient"/></defs><title>Asset 13</title><g class="cls-1"><g id="Layer_2" data-name="Layer 2"><g id="Layer_4" data-name="Layer 4"><polygon class="cls-2" points="242.45 708.94 181.01 267.82 611.85 173.39 667.73 625.07 242.45 708.94"/><path class="cls-3" d="M49,365.57l20.14,7.89L296.67,608.18S100.24,679.05,54,659.65,3.67,532.83,4.63,487.46C5.48,447.41,49,365.57,49,365.57Z"/><path class="cls-4" d="M114,393.64S57.86,412,43.93,476.51C28.25,549.12,87.45,661.58,167.09,656.74c35.95-2.19,156.58-76.87,156.58-76.87L126.43,405.16Z"/><circle class="cls-5" cx="59.67" cy="459.1" r="32.31" transform="translate(-307.15 176.66) rotate(-45)"/><circle class="cls-6" cx="54.63" cy="460.24" r="23.65" transform="translate(-259.3 119.28) rotate(-35.87)"/><path class="cls-7" d="M38.44,454.78c3.2-.43,6.26,2.68,6.84,7s-1.56,8.08-4.76,8.51-6.27-2.68-6.84-6.95S35.24,455.21,38.44,454.78Z"/><path id="_Path_" data-name="&lt;Path&gt;" class="cls-8" d="M105.74,650.79a86.63,86.63,0,0,0,43.26-6c12.23-5.17,24.31-16.48,31.17-27.85,7.27-12,3-29.69-11.66-35a45.17,45.17,0,0,0-31.51.66c-6.51,2.54-15.51,7.47-22.72,5.44-12.22-3.44-15.33-13.67-23.77-21.46C70.36,548,38.18,558.49,40.25,588,42.51,620.3,74.72,647.47,105.74,650.79Z"/><path class="cls-9" d="M168.51,581.92a45.17,45.17,0,0,0-31.51.66c-1.86.72-3.93,1.64-6.09,2.54a40.78,40.78,0,0,1-8.54,20.51C91.55,646,30.69,603,51.67,562.08c-7.41,5-12.26,13.91-11.42,26,2.26,32.26,34.47,59.43,65.49,62.75a86.63,86.63,0,0,0,43.26-6c12.23-5.17,24.31-16.48,31.17-27.85C187.44,604.88,183.2,587.23,168.51,581.92Z"/><path class="cls-10" d="M101.94,530c-13.25-6.6-28.75-32.5-41.23-114s-16.31-140.66-1.32-188S212.2,73.46,263.18,48.22s146.93-64.39,200.62-36c0,0,66.34,75.05,80.39,274.13S244.47,541.54,244.47,541.54,134.49,546.22,101.94,530Z"/><path class="cls-11" d="M56.64,228.24l118.24,71,.25,205.61s-53,42.39-78.4,21.32S44.73,350.49,56.64,228.24Z"/><path class="cls-4" d="M174.87,517.54s-61.93-42.28-76.1-122.48c-16.91-95.73,15.85-159.25,38.76-192.51,27.76-40.29,188-203.59,355.71-97.89L407.44,362S266,518,174.87,517.54Z"/><path class="cls-12" d="M178.83,498.42c-64-48.78-76.43-100.76-83.44-128.28.77,8.05,1.87,16.35,3.38,24.92,10.43,59,46.72,97.5,65.16,113.7Z"/><path class="cls-13" d="M173.24,411.23c-.32,12.57-4.26,23.55-15.25,26.36-7,1.78-13.94-3-19-8.2-11.67-12.13-18.9-29-20.66-45.66-1.22-11.51-.26-37.54,14.13-41.46s27.55,18.16,32.45,28.48C169,379.19,173.63,396.33,173.24,411.23Z"/><path class="cls-14" d="M138.14,354.7s-15.74-29.19,1.59-78.77,89.14-119,89.14-119l26.44-19.5s72-10.82,113.12-3.6c0,0-34.32,123.85-27.78,225.33C340.65,359.12,176.26,371.88,138.14,354.7Z"/><path class="cls-11" d="M264,285.49c-27.56-14.21-65.6-37.68-97.61-56.76-11.49,15.93-21.49,32.44-26.64,47.2-17.33,49.58-1.59,78.77-1.59,78.77,38.12,17.18,202.51,4.42,202.51,4.42-.89-13.77-1-28-.58-42.2C309.07,303.17,294.14,301,264,285.49Z"/><circle class="cls-5" cx="208.42" cy="274.17" r="32.31" transform="translate(-120.76 172.93) rotate(-35.66)"/><circle class="cls-15" cx="204.37" cy="274.12" r="23.65" transform="translate(-129.7 346.96) rotate(-65.59)"/><path class="cls-7" d="M188.18,268.66c3.21-.43,6.27,2.68,6.84,6.95s-1.55,8.08-4.75,8.51-6.27-2.68-6.84-6.95S185,269.09,188.18,268.66Z"/><path class="cls-16" d="M138.43,358.22s84,19.81,163.12,78.15l69.62-56.61,11.12-55.17s-68.86-26.15-149.58-86.79c0,0-2.11,23.84-3.94,49.21C191.18,321.13,138.43,358.22,138.43,358.22Z"/><path class="cls-11" d="M322,295.51a757.21,757.21,0,0,1-88-56.73l-1.55,49.33c2.53,2.9,87.65,52.59,87.65,52.59Z"/><path class="cls-4" d="M380.85,214.32c-60.42-38.32-111,8.53-125,40.18,14.86,11.57,53.31,35.8,53.31,35.8s-11.18,79.62-76.91,97.4c.55,13.5-4.39,26-9.37,39a217.76,217.76,0,0,0,22.81,20C353.5,442.08,434.19,248.15,380.85,214.32Z"/><path class="cls-12" d="M309.11,290.3s-8.55,60.87-54.63,88.05L283,385.3S336.94,311,317.85,257l-48.4,7.34C286.67,276.16,309.11,290.3,309.11,290.3Z"/><path class="cls-5" d="M111.43,314.14a106,106,0,0,1,23.24-22.45c1-4.56,2.22-9.07,3.59-13.54a32.31,32.31,0,1,0-33.84,46.6A97.76,97.76,0,0,1,111.43,314.14Z"/><path class="cls-17" d="M109.57,316.72c.61-.86,1.21-1.73,1.86-2.58a106.51,106.51,0,0,1,17.36-17.95,23.66,23.66,0,1,0-19.22,20.53Z"/><path class="cls-7" d="M89.12,288c3.21-.43,6.27,2.68,6.84,7s-1.55,8.08-4.75,8.52-6.27-2.69-6.84-6.95S85.92,288.45,89.12,288Z"/><path id="_Path_2" data-name="&lt;Path&gt;" class="cls-8" d="M202.25,474.83c15.71,3.12,39.94-7,55-21.95,9.79-9.73,15.53-22.18,18-35,3.79-19.48-6-50.21-20.42-64.93C243.7,341.5,226.7,337.5,215.48,351c-13.49,16.23,5.7,33.68-1.47,50.49-7.48,17.5-33.34,24.12-35.12,44.84C177.59,461.58,186.65,471.73,202.25,474.83Z"/><path id="_Path_3" data-name="&lt;Path&gt;" class="cls-18" d="M223.47,373.26l.19.12c2.43,1.65,4.2,13,4.39,18.51.25,7.45-.56,12.41-3.52,18.18-2.55,5-8.37,11.11-18,16.82a2.64,2.64,0,0,1-2.63.12,1,1,0,0,1-.44-.48c-.42-1.14,1.76-2.69,2.46-3.24a57.39,57.39,0,0,0,11.47-12.64,37.34,37.34,0,0,0,5.88-18.25,80.78,80.78,0,0,0-1.63-15.73C221.27,375.31,221.37,372,223.47,373.26Z"/><path id="_Path_4" data-name="&lt;Path&gt;" class="cls-18" d="M131.5,598.19a1.51,1.51,0,0,1-.12.2c-1.59,2.46-5.07,3.2-10.55,3.51-7.45.43-12.42-.28-18.26-3.1-5-2.45-11.29-8.13-17.22-17.63a2.67,2.67,0,0,1-.18-2.63,1,1,0,0,1,.48-.45c1.12-.44,2.72,1.7,3.29,2.39a57.67,57.67,0,0,0,12.89,11.18,37.24,37.24,0,0,0,18.38,5.47c5.29.07,6.31-.23,7.84-.7C129.41,596,132.68,596.07,131.5,598.19Z"/><path class="cls-9" d="M226.65,343.39c1,.64,2.1,1.25,3.12,2,28.21,19.59,32.14,62.63,12,89.06-15.16,19.88-39,27.39-61.62,23.33,3,8.89,10.83,14.85,22.12,17.09,15.71,3.12,39.93-7,55-21.95,9.79-9.73,15.53-22.18,18-35,3.79-19.48-6-50.21-20.42-64.93C247,344.87,236.25,340.55,226.65,343.39Z"/><path class="cls-5" d="M249.84,378.37a32.32,32.32,0,1,1,6.1,45.29A32.31,32.31,0,0,1,249.84,378.37Z"/><circle class="cls-19" cx="271.51" cy="399.7" r="23.65"/><path class="cls-7" d="M255.32,394.24c3.2-.43,6.26,2.68,6.84,6.95s-1.56,8.08-4.76,8.51-6.26-2.68-6.84-6.95S252.12,394.67,255.32,394.24Z"/><path class="cls-20" d="M100.5,532.79,350.44,622.7s150.19-70.83,177.69-175.77-12-227.28-12-227.28-60.66-33.76-145.23-89.15c0,0-39.18,102.16-29.88,248.54,0,0-90.29,62.49-150.3,113.88S100.5,532.79,100.5,532.79Z"/><path class="cls-11" d="M370.86,130.5s-11.34,29.63-20.38,79.78c-7.79,51.54-13.81,117.14-6.29,171.85l58,37.73S478,280.3,478.86,198C453,182.64,415.21,159.55,370.86,130.5Z"/><path class="cls-4" d="M142.42,649.44s-23.64-86,26.4-92.71c105.15-14.16,209.53-129,222.06-155.31,13.92-29.16,12.77-156.84,44.08-230,14.42-33.7,21.9-68.48,58.59-71.69,0,0,92.34,250.93-23.18,366.75S142.42,649.44,142.42,649.44Z"/><path class="cls-21" d="M352.27,494.22S331.75,478,367,448.94s42.22-54.05,48.54-94.84,21.57-73.76,62.91-59.08C478.43,295,448.16,412.7,352.27,494.22Z"/><path class="cls-22" d="M157.75,632s-12.93-10.35-9.69-30.19,12.86-35.42,45.51-37.28,62.95-31.18,75.26-25.88a17,17,0,0,1,10.54,17.08S189.71,627.12,157.75,632Z"/><path id="_Path_5" data-name="&lt;Path&gt;" class="cls-8" d="M485.21,265.41c13.17-9.13,22.74-33.56,22.44-54.81-.19-13.8-5.15-26.58-12.66-37.31C483.61,157,454.7,142.72,434.1,142.85c-16,.11-30.65,9.56-28.74,27,2.29,21,28.18,19.3,35.28,36.14,7.39,17.53-5.82,40.73,7.85,56.4C458.55,273.94,472.15,274.47,485.21,265.41Z"/><path class="cls-9" d="M434.1,142.85c-.93,0-1.85.05-2.77.12a69.76,69.76,0,0,1,25,10.84c28.22,19.59,32.15,62.63,12,89.06a61.4,61.4,0,0,1-21.21,17.65c.46.63.88,1.28,1.41,1.88,10.06,11.54,23.66,12.07,36.72,3S508,231.85,507.65,210.6c-.19-13.8-5.15-26.58-12.66-37.31C483.61,157,454.7,142.72,434.1,142.85Z"/><path class="cls-5" d="M244.5,504.9a32.31,32.31,0,1,1,6.1,45.29A32.32,32.32,0,0,1,244.5,504.9Z"/><circle class="cls-23" cx="266.32" cy="525.37" r="23.65" transform="translate(-204.08 170.88) rotate(-26.12)"/><path class="cls-7" d="M250.13,519.91c3.21-.43,6.27,2.68,6.84,7s-1.55,8.08-4.75,8.51-6.27-2.68-6.84-7S246.93,520.34,250.13,519.91Z"/><path class="cls-24" d="M55,665.92s379.56,43.53,794.49-12.32c0,0-324.45-564.19-380.37-638.86,0,0,26.38,58.08,26.4,129.22s-4.84,120.73-28,185.85S397,449.54,397,449.54s-43.78,52.85-90.38,87.95-72.1,55.54-96.2,67.64-58.22,34.41-91.31,46.6A255.63,255.63,0,0,1,55,665.92Z"/><path class="cls-25" d="M495.5,144c0,71.15-4.84,120.73-28,185.85S397,449.54,397,449.54s-43.78,52.85-90.38,87.95-72.1,55.54-96.2,67.64c-20.6,10.35-76.43,39.6-113,53.28,13.24.85,74.05-5.26,127.91-35.4,59.18-33.13,64-65.19,167.14-124.2C461.4,459.4,456.94,393.13,474.4,357c28.63-59.27,54-83.56,43.91-176.81-5.93-55.1-2.14-78.37,1.06-87.86C496.59,55.4,478.8,27.7,469.1,14.74,469.1,14.74,495.48,72.82,495.5,144Z"/><path class="cls-26" d="M531.52,297.89c-.67,15.6-.74,31.46-7.49,45.92-9,19.3-33,27.48-54.22,24.63-12.7,37.43-15.16,94.83-77.31,130.37-103,58.9-107.95,90.95-166.82,124,22.25,23.27,56.45,46.15,84.57,23.6,21.23-17,15.33-52.1,29-73.76,8.17-12.94,24.17-22.25,38.82-17.84,50.29,15.13,11.52,92.33,53.84,116.67,13.1,7.54,29.12,8.69,44,6,46.16-8.3,103.91-72.14,63.8-116.45-19.6-21.65-44.75-6.29-67.22-21.9-34.56-24-2.82-100.08,25.82-114.82,21.63-11.14,43-9.59,63.07,3.67,19.72,13,35.18,40.69,61.85,36.48,14.28-2.26,26.59-12.24,34-24.68s10.25-27.1,10.76-41.54c1.49-42.12-22.14-96.47-55.9-122-14.68-11.1-36.45-26.89-55.89-25.72C536.32,251.75,532.22,281.51,531.52,297.89Z"/><path class="cls-27" d="M717.05,425.12C677,356.41,633,281.43,592.93,214.16,536.16,435,458.28,565.8,458.28,565.8L317.77,680.26l2.34,1c77.54,1.59,168,1.13,265.59-3.76Z"/><path class="cls-28" d="M242.45,708.94S688.33,697,887.14,678.12L611.85,173.39S585.31,365.8,473.32,574.81C473.32,574.81,389.43,651.11,242.45,708.94Z"/><path class="cls-5" d="M407.87,350.67A109.29,109.29,0,0,1,424.92,300a32.31,32.31,0,1,0-17.05,50.66Z"/><path class="cls-29" d="M409.32,339.7a109.92,109.92,0,0,1,8.74-27.48,23.65,23.65,0,1,0-8.74,27.48Z"/><path class="cls-7" d="M379.65,314.82c3.2-.43,6.26,2.68,6.83,6.95s-1.55,8.08-4.75,8.51-6.27-2.68-6.84-6.95S376.44,315.25,379.65,314.82Z"/><path id="_Path_6" data-name="&lt;Path&gt;" class="cls-18" d="M434.18,181.64l.23,0c2.91-.37,11.74,7,15.51,11,5.12,5.43,7.78,9.69,9.38,16,1.38,5.43,1.05,13.87-2.41,24.52a2.66,2.66,0,0,1-1.9,1.83,1,1,0,0,1-.65-.07c-1.06-.58-.46-3.18-.29-4.06a57.71,57.71,0,0,0,.26-17.07,37.23,37.23,0,0,0-7.64-17.58,82.32,82.32,0,0,0-11.61-10.74C433.88,184.63,431.8,182.11,434.18,181.64Z"/><path class="cls-30" d="M766.94,457.74C706.78,563.86,636.07,644.33,555.7,697.94l17.79-.77q73-51.87,135-133.06a891.54,891.54,0,0,0,63.76-96.61Z"/><path class="cls-31" d="M887.14,678.12,473.32,574.81s-83.89,76.3-230.87,134.13C242.45,708.94,688.33,697,887.14,678.12Z"/><path class="cls-32" d="M483,43.11c-4.39-14-11.57-31.47-20.84-35.3-15-6.19-32.72-8.43-51.94-7.67v0q-3.11.15-6.22.38l-.51,0h0C337,5.35,270.2,32.59,204.87,78.41c-76.17,53.42-137,117.38-144.73,134.41-7.56,16.62-9.94,45.55-10.2,49.71-2.54,26.07-2.33,60.36.36,95.79C12,392.37-9.42,456.85,4,561.76,8.15,594,16,645.41,46.3,663.33c47.28,28,261.76-91.17,369.1-231.92,7.1-9.32,13.75-18.75,19.84-28.22C509.74,287.29,508,122.85,483,43.11Zm-54.4,353.14q-9.23,14.37-19.95,28.38C300.1,567,92.71,675.45,52.61,651.72c-29.08-17.21-72.82-189.07-1.23-280.46,6.8,73.8,24.06,148.75,49.12,161.53,27.74,14.15,69.35-19.18,126.93-65.31,34-27.24,72.56-58.12,115.12-84.33l1.64-1-.15-1.92c-.1-1.17-9.07-118.37,25.8-246l1-3.73-3.86-.25c-3.48-.23-85.77-5.42-114.07,5.84-33.61,13.38-101,98.49-114,132.43-12.32,32.2-11.53,78.07-4.07,87.49a5.84,5.84,0,0,0,5.49,2.51c9-1.22,72-53.54,91.1-69.55l1-.86,3.17-47a3.15,3.15,0,1,0-6.29-.42L223.54,283c-37.35,31.3-74.75,62.29-81.66,64.61-5.1-4.74-9.71-41.6,2.48-73.44,16.17-42.24,83.2-119.06,109.31-129.45,23.64-9.41,89.61-7,106.42-6.08-31.56,118.2-25.63,222-24.63,237.66-42.24,26.19-79.57,56.1-113.29,83.11-53.64,43-93.24,76.46-117.35,64.17-17.3-8.83-33.26-65.38-42.23-138.3-6.1-49.49-7.34-92.69-3.91-122.91.84-6,4.71-31.28,11.05-45.21C76.86,201.49,137.39,138.61,210.92,87c65.4-45.88,134.13-72.2,200.43-75.88,18-.57,33.11,1.69,44.56,6.42,2,.82,9.12,5.51,17.22,31.35C492.5,110.67,509,271.16,428.61,396.25Z"/><g id="_Group_" data-name="&lt;Group&gt;"><path class="cls-8" d="M142.86,176.15c8.55,12.57,22.56,22.56,37.93,27.55,14.52-18.22,30.68-36,45.34-49.08a34.52,34.52,0,0,0-6.65-3.15c-10.2-3.55-20.07-1.6-28.33-10.21-4.88-5.08-4.78-14.73-5.55-21.26a42.5,42.5,0,0,0-13.42-26.43C161.27,83.73,144.75,88,138,99.4c-6.39,10.73-10.41,25.76-9.28,38.2A81.4,81.4,0,0,0,142.86,176.15Z"/><path id="_Path_7" data-name="&lt;Path&gt;" class="cls-33" d="M151.38,102.33c-7.37-.7-17.61,16.7-16.55,32.79.8,12.16,8.2,26,15,25.61,7-.38,11.92-15.58,12.7-26.34C163.56,120.54,158.49,103,151.38,102.33Z"/></g><path class="cls-9" d="M159.17,97c13.55,5.87,11.39,37.21,23.4,49.92,8.69,9.21,23.72,10.34,35.44,15.25q4.13-4,8.12-7.54a34.52,34.52,0,0,0-6.65-3.15c-10.2-3.55-20.07-1.6-28.33-10.21-4.88-5.08-4.78-14.73-5.55-21.26a42.5,42.5,0,0,0-13.42-26.43C161.27,83.73,144.75,88,138,99.4c-.73,1.22-1.42,2.52-2.08,3.85C137.78,101.14,147.1,91.75,159.17,97Z"/><path id="_Path_8" data-name="&lt;Path&gt;" class="cls-18" d="M171.39,120.47a22,22,0,0,0,.19,7.76,38.88,38.88,0,0,0,1.5,7.06c2,5.3,5,10.9,9.22,14.75a46.43,46.43,0,0,0,9.76,6.85c6.22,3.22,12.49,4.5,19.4,5.12a1.87,1.87,0,0,0,2.14-1.63c.08-.67-.3-1.65-1.83-2.11h0c-16.12-3.8-22.66-8.58-26.38-12.64-5.52-6-7.61-12.83-9.49-21.55-.27-1.26-1.07-4.8-3.14-4.83a1.34,1.34,0,0,0-1.34,1.09Z"/></g></g></g></svg>