<svg xmlns="http://www.w3.org/2000/svg" xmlns:xlink="http://www.w3.org/1999/xlink" viewBox="0 0 737.84 714.29"><defs><style>.cls-1{fill:#390f06;}.cls-2{fill:url(#radial-gradient);}.cls-3{fill:#5e220a;}.cls-4{fill:#ecb39a;opacity:0.1;}.cls-5{fill:#f3c5e3;opacity:0.2;}.cls-6{fill:#fadddd;}.cls-7{fill:#ec0048;}.cls-8{fill:#ff8ab4;}.cls-9{fill:#fcee01;}.cls-10{fill:#fdb300;}.cls-11{fill:#1cbbb4;}.cls-12{fill:#00944c;}.cls-13{fill:#fd6400;}.cls-14{fill:#f9dddd;}</style><radialGradient id="radial-gradient" cx="311.71" cy="292.2" r="451.3" gradientUnits="userSpaceOnUse"><stop offset="0.53" stop-color="#732c09"/><stop offset="1" stop-color="#662c1d"/></radialGradient></defs><title>Asset 1</title><g id="Layer_2" data-name="Layer 2"><g id="Layer_4" data-name="Layer 4"><path class="cls-1" d="M368.9,21.48C172.9,21.48,14,173.93,14,362S172.9,702.49,368.9,702.49,723.78,550,723.78,362,564.9,21.48,368.9,21.48ZM364.29,488c-50,0-87.1-40.9-89.27-89.26-2.15-48.21,42.58-89.26,89.27-89.26,50,0,87.1,40.9,89.26,89.26S411,488,364.29,488Z"/><path class="cls-2" d="M681.53,146.06c-14.62-20.56-36.94-51-72-56.42-41.15-6.39-59.11,28-93.38,19.45-40.4-10-38.11-61.89-81.7-93.38-35-25.29-104-14.49-144-5.83-82.9,17.95-182.87,72-245.13,188.7-79,148.15-43.33,335.67,19.46,358,33.29,11.81,65.91-21.93,99.21-3.9,39.14,21.2,14.07,76,54.47,124.51,29.19,35,95.59,38.05,153.69,37,31.29-.58,126.45-9.72,198.43-58.36C676.16,584.46,711.51,482,720.44,453.43,756.39,338.27,733.3,218.79,681.53,146.06ZM488.62,452c-99.05-46.83-183.7,14.4-183.7,14.4C333.74,371,261.7,322.35,261.7,322.35c57.63-25.21,70.24-91.85,70.24-91.85,61.23,104.46,185.49,72,185.49,72C445.4,381.78,488.62,452,488.62,452Z"/><path class="cls-3" d="M681.53,146.05c-14.63-20.55-36.94-51-72-56.41-9.08-1.41-18,4.8-24.27.82,56.83,36,85.74,93.16,103.2,155.43,42.16,170-14.05,304.93-144,402.55-43.73,32.86-115.95,57.5-135.28,62.79,43.39-5.39,108.63-19.8,161.43-55.48C676.16,584.46,711.51,482,720.44,453.43,756.39,338.27,733.3,218.79,681.53,146.05Z"/><path class="cls-4" d="M416.34,46.24C339.63-1.53,175.06,57.12,95.63,168.31c-84.6,118.44-82,272.88-13.7,319.51,40.35,27.54,115.83,17.93,140.19-23.76,23.08-39.5,11.1-104.32-42.83-152.48,15.08-3.8,34.17-19.37,68.41-59.51,37-43.31,41.28-91,42-106,33.49,50.79,93.8,65,131.58,42,26.69-16.24,43.67-52,37.51-84.58C452.28,68.79,421.69,49.58,416.34,46.24Z"/><path class="cls-4" d="M295.08,529.29c-3.06,2.34-72.3,56.06-58.54,89.86,23.28,57.18,282.86,54.61,367.05-74,19.71-30.12,47.63-94.38,22-122.87-14.07-15.67-42.73-18.72-60.08-8.08-25.51,15.64-34.22,65.55-3.66,115.13C467.71,476.26,363.94,476.77,295.08,529.29Z"/><path class="cls-3" d="M488.62,452c-99.05-46.83-178,1.45-178,1.45C333,360.49,271,324.16,271,324.16c57.63-25.21,60.9-93.66,60.9-93.66S292.8,298,225.39,313.24c0,0,96.77,83.73,39.14,193.54C264.53,506.78,385.42,419,488.62,452Z"/><path class="cls-5" d="M216.58,369.25c-28.63-19.48-68.18-31.18-81.87-66.59-10.52-27.19,4.86-54,26.07-70.81,16.79-13.32,61.73-20.42,47.34-52-3.85-8.46-12.79-13.71-21.9-15.52-63.58-12.66-129.78,76.1-100.41,134.05a64,64,0,0,0,12.42,16.93c8.08,7.84,19.16,13.77,22.09,25.51C129.6,378.06,48.09,423.51,85,458.31c9.31,8.8,25.69,8.53,34.71-.56,10.7-10.77,10.16-35.51,30.19-29.73,17.23,5,14.14,18.48,15.37,32.59,1.74,19.86,18.21,47.42,42,42.74,18.55-3.65,37.87-28.72,42.58-45.72C255,438.69,251.59,418.19,244,400,238.58,386.89,228.53,377.39,216.58,369.25Z"/><path class="cls-5" d="M443.52,520.86c-9.57-66.21-94-46-134.21-14.69C280,529,256.61,574.73,269,612.5c5.07,15.48,23.9,27.44,38,19.31,8.64-5,12.55-15.64,12.68-25.61s-2.81-19.67-4.7-29.46c-2.25-11.72-3-24.08.8-35.41s12.72-21.45,24.36-24.08,25.38,4,28.36,15.61c3.27,12.68-6.26,25.66-4.43,38.63,1.62,11.48,12.44,20.27,23.93,21.8s23.13-3.13,32.24-10.3a64.3,64.3,0,0,0,24.15-50.79A88.56,88.56,0,0,0,443.52,520.86Z"/><path class="cls-4" d="M673.15,269.72c0-12.54-6.63-24.56-22.35-34.13-8.28-5-14-13.52-17.5-22.56-4.49-11.59-4.26-24.15-10-35.17a85.89,85.89,0,0,0-20.55-25.22c-17-14.39-39.9-20.79-60-8.59-34.82,21.15-49.75,73.5-33.9,108.07,6.24,13.61,24.34,22.21,37,14.27,12.33-7.73,14.21-26.21,26.43-34.1,13.81-8.93,33.75,2.06,38.88,17.67,15.7,47.78-38.14,53.78-67.3,72.79-16.84,11-34.62,34.52-12.84,50.51,26.81,19.69,89,5.23,117.08-4.53,3.66-1.27,7.44-2.76,10-5.69s3.29-7.76.64-10.59c-2.29-2.44-6.06-2.55-9.4-2.49l-46.28.8c8.54-.16,34.22-27.37,42.06-33.79C662,303.14,673.15,286,673.15,269.72Z"/><path class="cls-5" d="M356.93,52.61a124.48,124.48,0,0,0-42.68-4.74c-26.14,1.85-128.11,47.26-85.49,85.89a22.39,22.39,0,0,0,27.3,1.5c10.66-7.72,13.43-24.24,25.54-29.38,19.46-8.25,39.36,13.9,51.5,26,11.79,11.72,25.62,23.66,42.24,24.11,17,.47,32.83-12.57,37.69-28.88s-.38-34.67-11.44-47.6S374.28,57.65,356.93,52.61Z"/><path class="cls-6" d="M72.35,398.05A229.2,229.2,0,0,1,75.89,328c3.55-17.34-23.51-22.14-27.07-4.81A255.71,255.71,0,0,0,45,400.61C46.77,418.18,74.15,415.71,72.35,398.05Z"/><path class="cls-6" d="M81.14,222.22q-7.38,17.72-14.75,35.43c-6.82,16.37,19,25.92,25.75,9.62l14.75-35.43C113.7,215.47,87.92,205.92,81.14,222.22Z"/><path class="cls-6" d="M532.75,334.63c-7-4.22-14.3-.93-18.8,4.93-14.73,19.16-19.27,42.68-15.5,66.25,2.79,17.42,29.29,10,26.51-7.31-2.65-16.52,2.71-32,12.72-45.07C542.24,347.5,538.55,338.1,532.75,334.63Z"/><path class="cls-6" d="M186.18,125.15c-3.78-7.29-12-9.08-18.59-5.67-15.69,8.17-35.76,25.68-48.31,46-7.77,12.58,10.76,30,23.35,12.21,9.65-13.67,23.18-25.48,37.88-33.93C187,140,189.29,131.14,186.18,125.15Z"/><path class="cls-6" d="M424.73,237.74a121.49,121.49,0,0,1-33.07-25.5c-12-13.05-31.41,6.43-19.44,19.44a144.7,144.7,0,0,0,38.64,29.8C426.48,269.75,440.39,246,424.73,237.74Z"/><path class="cls-7" d="M192.2,86.51a172.16,172.16,0,0,0,40,14.13c12.71,2.75,18.14-16.77,5.39-19.53A150.71,150.71,0,0,1,202.42,69c-11.64-5.76-21.92,11.7-10.22,17.49Z"/><path class="cls-7" d="M303.42,58.09l18-16.34c3.64-3.31,3.36-9.52,0-12.89a9.28,9.28,0,0,0-12.89,0l-18,16.34c-3.65,3.32-3.37,9.53,0,12.89a9.27,9.27,0,0,0,12.89,0Z"/><path class="cls-7" d="M378.35,46q-2.14,11.43-4.28,22.84c-.91,4.84,1.34,9.83,6.36,11.21,4.45,1.23,10.3-1.5,11.21-6.36l4.29-22.84c.91-4.83-1.34-9.83-6.37-11.21-4.44-1.22-10.3,1.5-11.21,6.36Z"/><path class="cls-7" d="M349.5,173.55l21.66-27.27c3.06-3.86,3.76-9.13,0-12.9-3.17-3.17-9.81-3.87-12.89,0l-21.66,27.28c-3.06,3.86-3.76,9.13,0,12.89,3.17,3.18,9.81,3.88,12.89,0Z"/><path class="cls-7" d="M371.67,180.35l11.47,7.3a9.19,9.19,0,0,0,12.47-3.27,9.31,9.31,0,0,0-3.27-12.47l-11.47-7.3a9.19,9.19,0,0,0-12.47,3.27,9.31,9.31,0,0,0,3.27,12.47Z"/><path class="cls-7" d="M494.05,126.85q-3.26,26.55-6.49,53.11c-1.42,11.62,16.82,11.51,18.23,0q3.24-26.55,6.49-53.11c1.42-11.62-16.82-11.52-18.23,0Z"/><path class="cls-7" d="M536.64,104.46l9,16.34a9.12,9.12,0,0,0,15.75-9.2l-9-16.34a9.12,9.12,0,0,0-15.74,9.2Z"/><path class="cls-7" d="M539.19,244.09c.81,1.09,1.62,2.19,2.44,3.28a9.94,9.94,0,0,0,5.44,4.19,9.33,9.33,0,0,0,7-.92,9.18,9.18,0,0,0,4.18-5.45c.51-2.24.52-5.09-.91-7-.82-1.09-1.63-2.19-2.44-3.28-1.47-2-3-3.51-5.45-4.19a9.3,9.3,0,0,0-7,.92,9.19,9.19,0,0,0-4.19,5.45c-.51,2.24-.52,5.1.92,7Z"/><path class="cls-7" d="M554.32,282,587,277c4.91-.75,7.52-6.86,6.37-11.21-1.37-5.22-6.37-7.11-11.21-6.37l-32.67,5c-4.9.75-7.51,6.86-6.36,11.21,1.37,5.22,6.37,7.11,11.21,6.37Z"/><path class="cls-7" d="M642.82,149.64q4.08,13.49,8.15,27c3.38,11.2,21,6.42,17.58-4.85q-4.08-13.48-8.15-27c-3.39-11.2-21-6.42-17.58,4.85Z"/><path class="cls-7" d="M583.61,369.46q-.42,6.12-.82,12.25c-.32,4.77,4.42,9.33,9.11,9.12a9.34,9.34,0,0,0,9.12-9.12q.4-6.12.82-12.25c.31-4.77-4.42-9.33-9.12-9.12a9.33,9.33,0,0,0-9.11,9.12Z"/><path class="cls-7" d="M662.26,380l8.17,8.17c3.37,3.37,9.56,3.63,12.89,0a9.28,9.28,0,0,0,0-12.89l-8.17-8.17c-3.38-3.38-9.56-3.63-12.89,0a9.27,9.27,0,0,0,0,12.89Z"/><path class="cls-7" d="M707.89,352.1l8.17-3.26c2.29-.92,4.16-2,5.45-4.19a9.38,9.38,0,0,0,.92-7,9.27,9.27,0,0,0-4.19-5.44c-2-1.08-4.8-1.81-7-.92L703,334.53a10,10,0,0,0-5.44,4.18,9.29,9.29,0,0,0-.92,7,9.19,9.19,0,0,0,4.19,5.44c2,1.08,4.79,1.82,7,.92Z"/><path class="cls-7" d="M529,450.87l27,5.67c11.45,2.41,16.34-15.16,4.85-17.58l-27-5.67c-11.45-2.41-16.34,15.16-4.85,17.58Z"/><path class="cls-7" d="M445.31,596.25q10.56-18.82,21.1-37.66c5.74-10.25-10-19.45-15.74-9.2q-10.55,18.83-21.1,37.66c-5.74,10.25,10,19.45,15.74,9.2Z"/><path class="cls-7" d="M203.85,517.33l25.34,19.6c3.89,3,9.1,3.79,12.89,0,3.14-3.14,3.92-9.86,0-12.89l-25.34-19.6c-3.89-3-9.09-3.79-12.89,0-3.13,3.14-3.91,9.86,0,12.89Z"/><path class="cls-7" d="M277.37,473.31l33.49,3.27c11.67,1.14,11.59-17.1,0-18.23l-33.49-3.27c-11.67-1.13-11.59,17.1,0,18.23Z"/><path class="cls-7" d="M257.24,434.52l8.17,5.72c3.92,2.74,10.3.84,12.47-3.27,2.47-4.67.91-9.55-3.27-12.47l-8.17-5.72c-3.92-2.75-10.3-.84-12.47,3.27-2.47,4.66-.91,9.54,3.27,12.47Z"/><path class="cls-7" d="M229.27,339.12l9.45-20.59c2.05-4.47,1.27-9.82-3.27-12.47-3.93-2.3-10.41-1.23-12.47,3.27l-9.45,20.59c-2.05,4.47-1.27,9.81,3.27,12.47,3.93,2.29,10.41,1.22,12.47-3.27Z"/><path class="cls-7" d="M179.61,236l10.63,4.89c4.32,2,10,1.37,12.47-3.27,2.12-4,1.35-10.34-3.27-12.47l-10.63-4.89c-4.32-2-10-1.37-12.47,3.27-2.12,4-1.35,10.34,3.27,12.47Z"/><path class="cls-7" d="M130.42,261.08l27.65-8.58c11.17-3.47,6.41-21.07-4.84-17.58l-27.65,8.58c-11.17,3.46-6.4,21.07,4.84,17.58Z"/><path class="cls-7" d="M115.63,344.93l22.87,20.43c8.72,7.79,21.66-5.05,12.89-12.89L128.52,332c-8.73-7.8-21.66,5-12.89,12.89Z"/><path class="cls-8" d="M330.4,55.69l-10,40c-2.87,11.38,14.71,16.24,17.57,4.85l10.06-40c2.86-11.38-14.72-16.23-17.58-4.85Z"/><path class="cls-8" d="M404.75,113.43l28.53-9.19c11.12-3.58,6.37-21.19-4.85-17.57l-28.52,9.19c-11.13,3.58-6.37,21.19,4.84,17.57Z"/><path class="cls-8" d="M452.22,175.82l4.91,4.08a9.73,9.73,0,0,0,6.44,2.67,9.12,9.12,0,0,0,9.12-9.11c-.1-2.29-.84-4.92-2.67-6.45l-4.91-4.08a9.78,9.78,0,0,0-6.44-2.67,9.12,9.12,0,0,0-9.12,9.12c.11,2.28.84,4.92,2.67,6.44Z"/><path class="cls-8" d="M507.76,162.93l24.49-1.23c11.67-.58,11.74-18.81,0-18.23l-24.49,1.23c-11.68.59-11.75,18.82,0,18.23Z"/><path class="cls-8" d="M575.56,329.8a167.74,167.74,0,0,0,36.73-3.09c11.51-2.22,6.63-19.79-4.85-17.58a144.42,144.42,0,0,1-31.88,2.44c-11.74-.35-11.73,17.88,0,18.23Z"/><path class="cls-8" d="M671.72,350.44l19.55-22.12c3.25-3.68,3.63-9.26,0-12.89-3.32-3.32-9.62-3.7-12.89,0l-19.55,22.12c-3.25,3.69-3.63,9.26,0,12.89,3.32,3.32,9.62,3.7,12.89,0Z"/><path class="cls-8" d="M570.37,505.9q.35,14.29.71,28.6c.29,11.71,18.52,11.75,18.23,0l-.72-28.6c-.29-11.71-18.52-11.75-18.22,0Z"/><path class="cls-8" d="M541.45,519.81l-6.54,18.79c-1.61,4.65,1.85,10,6.37,11.21,5,1.38,9.59-1.69,11.21-6.36L559,524.66c1.61-4.65-1.85-10-6.37-11.21-5-1.38-9.59,1.7-11.21,6.36Z"/><path class="cls-8" d="M528.91,641.42a244.54,244.54,0,0,1,27-29.41c8.62-8-4.29-20.85-12.89-12.89a244.54,244.54,0,0,0-27,29.41c-3,3.92-3.75,9.07,0,12.89,3.11,3.19,9.87,3.89,12.89,0Z"/><path class="cls-8" d="M166.23,419.59,189.11,422c4.9.52,9.12-4.56,9.12-9.12,0-5.36-4.2-8.59-9.12-9.11l-22.88-2.44c-4.9-.52-9.11,4.56-9.11,9.11,0,5.37,4.2,8.59,9.11,9.12Z"/><path class="cls-8" d="M140.41,227.82q5.72,9,11.44,18c6.28,9.87,22.06.74,15.74-9.2q-5.73-9-11.44-18c-6.28-9.87-22.06-.74-15.74,9.2Z"/><path class="cls-8" d="M199.72,264.69l9-1.64c4.7-.85,7.79-6.82,6.36-11.21-1.63-5-6.17-7.28-11.21-6.37l-9,1.64c-4.71.85-7.79,6.81-6.37,11.21,1.63,5,6.17,7.28,11.21,6.37Z"/><path class="cls-8" d="M196.57,556.46l7.36,7.35c3.37,3.38,9.56,3.63,12.89,0a9.28,9.28,0,0,0,0-12.89l-7.36-7.35c-3.37-3.38-9.56-3.63-12.89,0a9.28,9.28,0,0,0,0,12.89Z"/><path class="cls-8" d="M374,460l6.54,4.07c4,2.53,10.22,1,12.47-3.27a9.3,9.3,0,0,0-3.27-12.47l-6.54-4.07c-4.06-2.52-10.22-1-12.47,3.27A9.3,9.3,0,0,0,374,460Z"/><path class="cls-9" d="M324,539.3a146.46,146.46,0,0,0,26.36,24.3c4,2.9,10.16.68,12.47-3.27,2.69-4.61.72-9.56-3.27-12.47a128.68,128.68,0,0,1-22.67-21.45c-3.16-3.77-9.62-3.27-12.89,0-3.73,3.74-3.17,9.11,0,12.89Z"/><path class="cls-9" d="M578,567.07l35-10.13c11.25-3.25,6.47-20.85-4.84-17.58l-35,10.14c-11.25,3.25-6.46,20.84,4.85,17.57Z"/><path class="cls-9" d="M656.64,420.08q5.72,17.57,11.44,35.13c3.62,11.11,21.23,6.36,17.58-4.84q-5.71-17.56-11.44-35.13c-3.62-11.11-21.23-6.36-17.58,4.84Z"/><path class="cls-9" d="M609.72,206.23l20.56,19.47c8.52,8.06,21.43-4.81,12.89-12.89l-20.56-19.47c-8.51-8.07-21.43,4.8-12.89,12.89Z"/><path class="cls-9" d="M482.61,247.48,503,290c5.08,10.57,20.8,1.34,15.74-9.2l-20.43-42.48c-5.08-10.57-20.8-1.34-15.74,9.2Z"/><path class="cls-9" d="M552.48,183.05l41.25-24.41c10.09-6,.93-21.74-9.2-15.74l-41.25,24.41c-10.08,6-.92,21.73,9.2,15.74Z"/><path class="cls-9" d="M259.59,160.2l14.83,7.93a9.31,9.31,0,0,0,12.47-3.27c2.42-4.13,1.09-10.14-3.27-12.47l-14.83-7.93a9.31,9.31,0,0,0-12.47,3.27c-2.42,4.13-1.09,10.14,3.27,12.47Z"/><path class="cls-9" d="M242,184l1.65,14.7c.53,4.73,3.81,9.36,9.12,9.12,4.48-.2,9.68-4,9.11-9.12L260.26,184c-.53-4.72-3.81-9.35-9.11-9.12-4.48.21-9.69,4-9.12,9.12Z"/><path class="cls-9" d="M157.4,148.86l8.1,43.31c2.16,11.51,19.73,6.64,17.58-4.85Q179,165.66,175,144c-2.15-11.52-19.72-6.64-17.57,4.85Z"/><path class="cls-9" d="M143.37,284.74l27.81,2c11.7.84,11.65-17.39,0-18.23l-27.81-2c-11.71-.85-11.65,17.38,0,18.22Z"/><path class="cls-9" d="M93.06,431.16a129.84,129.84,0,0,1,34.63,12c10.4,5.4,19.63-10.33,9.2-15.74a147.24,147.24,0,0,0-39-13.85c-11.46-2.29-16.36,15.28-4.85,17.58Z"/><path class="cls-9" d="M220.86,455.24v6.54c0,4.77,4.2,9.33,9.12,9.11a9.26,9.26,0,0,0,9.11-9.11v-6.54c0-4.77-4.19-9.33-9.11-9.11a9.27,9.27,0,0,0-9.12,9.11Z"/><path class="cls-9" d="M276,608.32l-5.72,12.26c-2,4.31-1.35,10,3.27,12.47,4,2.13,10.32,1.34,12.47-3.27l5.72-12.26c2-4.31,1.35-10-3.27-12.47-4-2.13-10.32-1.34-12.47,3.27Z"/><path class="cls-9" d="M428.51,77.84q7.32,20,14.65,40.05c4,10.93,21.62,6.21,17.57-4.85L446.09,73c-4-10.93-21.62-6.21-17.58,4.85Z"/><path class="cls-10" d="M272.93,197.1l34.44,17.22c10.46,5.23,19.7-10.49,9.2-15.74l-34.44-17.22c-10.46-5.23-19.7,10.49-9.2,15.74Z"/><path class="cls-10" d="M528.76,132.4l26.35,1.79c11.71.8,11.66-17.43,0-18.23l-26.35-1.79c-11.71-.79-11.66,17.44,0,18.23Z"/><path class="cls-10" d="M625.1,246.88a199.57,199.57,0,0,1,45-26.5c10.75-4.62,1.47-20.33-9.2-15.74A215.68,215.68,0,0,0,612.21,234c-9.2,7.26,3.78,20.08,12.89,12.89Z"/><path class="cls-10" d="M686.45,307.93l26.28,7.26c11.33,3.12,16.16-14.46,4.85-17.58l-26.29-7.26c-11.32-3.13-16.15,14.46-4.84,17.58Z"/><path class="cls-10" d="M603.4,352.62l22.25,9.17c4.55,1.88,10-2,11.21-6.36,1.44-5.24-1.79-9.33-6.36-11.21L608.24,335c-4.55-1.88-10,2-11.21,6.37-1.44,5.23,1.8,9.32,6.37,11.21Z"/><path class="cls-10" d="M462.61,518.56,493,557c7.28,9.2,20.1-3.78,12.89-12.89L475.5,505.67c-7.27-9.2-20.09,3.78-12.89,12.89Z"/><path class="cls-10" d="M370.35,603.2l7.1,1c2.54.35,4.7.44,7-.91a9.12,9.12,0,0,0,3.27-12.48c-1.19-1.84-3.17-3.87-5.45-4.18l-7.09-1c-2.55-.34-4.71-.43-7,.92A9.11,9.11,0,0,0,364.9,599c1.19,1.84,3.17,3.88,5.45,4.19Z"/><path class="cls-10" d="M161.71,476.14,179,441.73c5.25-10.45-10.47-19.69-15.74-9.2L146,466.93c-5.25,10.46,10.47,19.7,15.74,9.21Z"/><path class="cls-10" d="M163.75,396.53l10.12-5.08c4.27-2.14,5.82-8.52,3.27-12.47a9.34,9.34,0,0,0-12.47-3.27l-10.12,5.07c-4.28,2.15-5.82,8.52-3.27,12.48a9.34,9.34,0,0,0,12.47,3.27Z"/><path class="cls-10" d="M575.09,488.1l23.21,21.36c8.62,7.93,21.54-4.93,12.89-12.89L588,475.21c-8.62-7.94-21.54,4.92-12.89,12.89Z"/><path class="cls-10" d="M245,70.62l1,8.1c.29,2.5.82,4.6,2.66,6.45a9.3,9.3,0,0,0,6.45,2.67,9.21,9.21,0,0,0,6.44-2.67c1.53-1.66,3-4.1,2.67-6.45q-.46-4.05-.95-8.1c-.29-2.5-.82-4.6-2.67-6.45a9.11,9.11,0,0,0-12.89,0c-1.52,1.66-2.95,4.1-2.67,6.45Z"/><path class="cls-11" d="M215.46,493.28l27.34,27.34c8.31,8.31,21.2-4.58,12.89-12.89l-27.34-27.34c-8.31-8.31-21.2,4.58-12.89,12.89Z"/><path class="cls-11" d="M272.7,398.15q1,4.05,2,8.1c1.16,4.63,6.6,7.86,11.21,6.37a9.3,9.3,0,0,0,6.37-11.21l-2-8.11c-1.16-4.62-6.6-7.85-11.21-6.36a9.28,9.28,0,0,0-6.36,11.21Z"/><path class="cls-11" d="M194.37,395.7l4,47.6c1,11.6,19.23,11.71,18.23,0l-4.05-47.6c-1-11.6-19.23-11.71-18.23,0Z"/><path class="cls-11" d="M128.07,387q6.57,9.14,13.13,18.26c2.86,4,7.93,5.92,12.47,3.27,3.94-2.3,6.15-8.45,3.27-12.47q-6.57-9.12-13.13-18.26c-2.87-4-7.94-5.92-12.47-3.27-3.94,2.31-6.16,8.46-3.27,12.47Z"/><path class="cls-11" d="M167.71,263.52,189,286.77c7.95,8.66,20.81-4.25,12.89-12.89L180.6,250.63c-7.94-8.67-20.81,4.25-12.89,12.89Z"/><path class="cls-11" d="M342.42,77.68q-.51,8.61-1,17.22c-.29,4.92,4.4,9.11,9.11,9.11,5.18,0,8.83-4.18,9.12-9.11l1-17.22c.29-4.92-4.4-9.11-9.11-9.11-5.18,0-8.83,4.18-9.12,9.11Z"/><path class="cls-11" d="M356.93,98.34c.67,3,1.35,6.07,2,9.11,1,4.66,6.69,7.83,11.21,6.37a9.33,9.33,0,0,0,6.37-11.22c-.68-3-1.35-6.07-2-9.11-1-4.66-6.69-7.83-11.21-6.37a9.33,9.33,0,0,0-6.36,11.22Z"/><path class="cls-11" d="M584.34,220.73q4.85,18.79,9.68,37.59c2.92,11.35,20.5,6.54,17.57-4.84q-4.83-18.79-9.67-37.59c-2.92-11.36-20.51-6.54-17.58,4.84Z"/><path class="cls-11" d="M444.73,225.81l38.47-3.28c11.6-1,11.7-19.23,0-18.23l-38.47,3.28c-11.6,1-11.71,19.23,0,18.23Z"/><path class="cls-11" d="M435.23,53.75l10.12,10.12c3.38,3.38,9.56,3.63,12.89,0a9.27,9.27,0,0,0,0-12.89L448.12,40.86c-3.38-3.38-9.56-3.63-12.89,0a9.27,9.27,0,0,0,0,12.89Z"/><path class="cls-11" d="M664.52,261.3l32,24.57c3.94,3,10.17.57,12.47-3.27,2.8-4.67.62-9.49-3.27-12.47l-32-24.57c-3.93-3-10.16-.58-12.47,3.27-2.79,4.66-.61,9.48,3.27,12.47Z"/><path class="cls-11" d="M699.16,239.31c-.35,1.34-.7,2.69-1,4a9.49,9.49,0,0,0,.91,7,9.12,9.12,0,0,0,16.66-2.17l1-4a9.54,9.54,0,0,0-.92-7,9.3,9.3,0,0,0-5.45-4.19,9.2,9.2,0,0,0-7,.92,9.35,9.35,0,0,0-4.19,5.45Z"/><path class="cls-11" d="M622.93,504.29l36.48,3.83c11.65,1.22,11.57-17,0-18.23l-36.48-3.83c-11.66-1.23-11.57,17,0,18.23Z"/><path class="cls-11" d="M539.17,493.42q6.2,9,12.4,18.07c2.78,4,8,5.88,12.47,3.27,4-2.35,6.07-8.39,3.27-12.47q-6.19-9-12.4-18.07c-2.78-4.05-8-5.88-12.47-3.27-4,2.35-6.06,8.4-3.27,12.47Z"/><path class="cls-11" d="M420,662.78l29.37,7.11c11.4,2.75,16.26-14.82,4.84-17.58l-29.36-7.1c-11.4-2.76-16.26,14.81-4.85,17.57Z"/><path class="cls-11" d="M78.42,287.94c-.67,2.36-1.35,4.72-2,7.09-1.31,4.58,1.59,10.12,6.36,11.21A9.29,9.29,0,0,0,94,299.87c.68-2.36,1.35-4.72,2-7.09,1.31-4.58-1.6-10.12-6.37-11.21a9.29,9.29,0,0,0-11.21,6.37Z"/><path class="cls-11" d="M576.69,413.52l-10.13,29.37c-3.83,11.11,13.77,15.88,17.58,4.84l10.13-29.37c3.83-11.11-13.77-15.89-17.58-4.84Z"/><path class="cls-11" d="M443.3,536.13l3,1a9.12,9.12,0,0,0,11.21-6.36,9.34,9.34,0,0,0-6.37-11.22l-3-1a9.12,9.12,0,0,0-4.84,17.58Z"/><path class="cls-11" d="M230.41,121.22q.41,11.64.8,23.3c.4,11.7,18.63,11.75,18.23,0q-.41-11.65-.8-23.3c-.4-11.7-18.63-11.76-18.23,0Z"/><path class="cls-12" d="M533.36,215.18l40.14-23.92c10.07-6,.91-21.77-9.2-15.74l-40.14,23.92c-10.07,6-.91,21.76,9.2,15.74Z"/><path class="cls-12" d="M639.76,273.8q-3.07,20.25-6.16,40.5c-1.75,11.47,15.82,16.42,17.58,4.84q3.08-20.25,6.16-40.49c1.74-11.48-15.82-16.43-17.58-4.85Z"/><path class="cls-12" d="M409.61,563.33l12.06-4.3c4.48-1.59,8-6.29,6.37-11.21-1.43-4.42-6.4-8.08-11.21-6.37l-12.07,4.3c-4.48,1.59-8,6.29-6.36,11.21,1.43,4.42,6.4,8.08,11.21,6.37Z"/><path class="cls-12" d="M619.93,448.46l32.3-3.87c4.93-.59,9.06-3.77,9.12-9.11,0-4.48-4.23-9.7-9.12-9.12l-32.3,3.87c-4.93.59-9.06,3.77-9.12,9.12,0,4.47,4.23,9.7,9.12,9.11Z"/><path class="cls-12" d="M208.14,297,183.71,333.4c-6.55,9.76,9.23,18.9,15.74,9.2l24.43-36.38c6.56-9.76-9.23-18.9-15.74-9.2Z"/><path class="cls-12" d="M201.64,192.21l28.79,25.84c8.71,7.82,21.65-5,12.89-12.89l-28.79-25.84c-8.71-7.82-21.64,5-12.89,12.89Z"/><path class="cls-12" d="M283,128.72,286,147c.81,4.86,6.82,7.57,11.22,6.36,5.15-1.41,7.17-6.33,6.36-11.21q-1.51-9.1-3-18.23c-.81-4.86-6.81-7.57-11.21-6.36-5.15,1.41-7.18,6.33-6.36,11.21Z"/><path class="cls-12" d="M284.31,225.16a65.81,65.81,0,0,1,26.19,12.28c3.91,3,10.2.61,12.47-3.27,2.74-4.69.65-9.47-3.27-12.47a78.22,78.22,0,0,0-30.54-14.12c-11.43-2.53-16.32,15-4.85,17.58Z"/><path class="cls-12" d="M470,95.91h.62c11.73,0,11.75-18.23,0-18.23H470c-11.73,0-11.75,18.23,0,18.23h.62c11.73,0,11.75-18.23,0-18.23H470c-11.73,0-11.75,18.23,0,18.23Z"/><path class="cls-12" d="M138.46,201.93a88.86,88.86,0,0,1,26.18,12.24c9.74,6.6,18.87-9.19,9.2-15.74a104.9,104.9,0,0,0-30.53-14.08c-11.31-3.18-16.14,14.4-4.85,17.58Z"/><path class="cls-12" d="M70.8,438.33,95.1,452.5c10.16,5.93,19.34-9.82,9.2-15.74L80,422.59c-10.16-5.93-19.34,9.82-9.2,15.74Z"/><path class="cls-12" d="M174.23,495.94q-1.53,19.24-3.07,38.48c-.93,11.7,17.3,11.64,18.23,0q1.53-19.24,3.07-38.48c.93-11.7-17.3-11.63-18.23,0Z"/><path class="cls-12" d="M227.61,607.72l4,4a9.44,9.44,0,0,0,6.45,2.67,9.27,9.27,0,0,0,6.44-2.67,9.16,9.16,0,0,0,2.67-6.45,9.41,9.41,0,0,0-2.67-6.44l-4.05-4a9.11,9.11,0,0,0-12.89,0,9.2,9.2,0,0,0-2.67,6.44,9.55,9.55,0,0,0,2.67,6.45Z"/><path class="cls-12" d="M547,308l19.25.8c4.92.2,9.11-4.34,9.11-9.11a9.27,9.27,0,0,0-9.11-9.12l-19.25-.8c-4.92-.21-9.12,4.34-9.12,9.11A9.27,9.27,0,0,0,547,308Z"/><path class="cls-13" d="M466.2,239.13l6.15,34.42c2.06,11.53,19.63,6.64,17.58-4.85l-6.15-34.42c-2.06-11.53-19.63-6.64-17.58,4.85Z"/><path class="cls-13" d="M408.05,145.75,423.2,162c3.36,3.6,9.5,3.4,12.89,0a9.26,9.26,0,0,0,0-12.89l-15.15-16.24c-3.36-3.6-9.49-3.4-12.89,0a9.26,9.26,0,0,0,0,12.89Z"/><path class="cls-13" d="M258,114.82a193.49,193.49,0,0,0,49,7.66c11.74.33,11.73-17.9,0-18.23a173.21,173.21,0,0,1-44.13-7C251.53,94,246.71,111.53,258,114.82Z"/><path class="cls-13" d="M153.6,311.46l23.3,8.07c4.65,1.61,10-1.84,11.22-6.37,1.37-5-1.7-9.59-6.37-11.21l-23.31-8.06c-4.65-1.61-10,1.83-11.21,6.36-1.38,5,1.7,9.6,6.37,11.21Z"/><path class="cls-13" d="M104.75,279.62q3,11.13,6.08,22.28c3.08,11.3,20.67,6.5,17.58-4.85l-6.08-22.28c-3.08-11.3-20.67-6.51-17.58,4.85Z"/><path class="cls-13" d="M245.27,586.07a351.26,351.26,0,0,0,8.41,50c2.79,11.39,20.37,6.56,17.58-4.85a317.07,317.07,0,0,1-7.76-45.17c-1.12-11.57-19.36-11.69-18.23,0Z"/><path class="cls-13" d="M504.34,527.47l34.19,35.68c8.13,8.49,21-4.41,12.89-12.89l-34.19-35.68c-8.13-8.49-21,4.41-12.89,12.89Z"/><path class="cls-13" d="M562.68,425.54a62.33,62.33,0,0,1,19.11-14.28c4.42-2.15,5.62-8.44,3.27-12.47-2.64-4.51-8-5.43-12.47-3.27a76.27,76.27,0,0,0-22.8,17.13c-7.89,8.65,5,21.58,12.89,12.89Z"/><path class="cls-13" d="M605.19,403.17q5.53,8.64,11.06,17.27a9.33,9.33,0,0,0,12.48,3.27c4.12-2.42,5.93-8.31,3.27-12.47L620.93,394a9.31,9.31,0,0,0-12.47-3.27c-4.12,2.41-5.93,8.31-3.27,12.47Z"/><path class="cls-13" d="M208.43,156.16,219.59,140c2.79-4.06.75-10.12-3.27-12.47-4.52-2.65-9.67-.8-12.47,3.27L192.69,147c-2.79,4.06-.75,10.12,3.27,12.47,4.52,2.65,9.67.8,12.47-3.27Z"/><path class="cls-14" d="M634.47,343.4q7.08,23.81,14.18,47.6c3.34,11.22,20.94,6.44,17.57-4.84q-7.08-23.81-14.18-47.6c-3.34-11.22-20.93-6.44-17.57,4.84Z"/><path class="cls-14" d="M668.56,192.12q.53,14.17,1,28.36c.43,11.69,18.66,11.75,18.23,0l-1-28.36c-.43-11.69-18.66-11.75-18.23,0Z"/><path class="cls-14" d="M629.4,263.38a96,96,0,0,1,23.47-17.81c10.31-5.61,1.12-21.35-9.2-15.74a112.83,112.83,0,0,0-27.16,20.66c-8.16,8.44,4.71,21.34,12.89,12.89Z"/><path class="cls-14" d="M598.06,314.49,625.32,309c11.5-2.31,6.63-19.88-4.84-17.58l-27.26,5.48c-11.5,2.31-6.63,19.88,4.84,17.57Z"/><path class="cls-14" d="M277.61,556.71h27c11.73,0,11.75-18.23,0-18.23h-27c-11.73,0-11.75,18.23,0,18.23Z"/><path class="cls-14" d="M136.89,339.22a71.43,71.43,0,0,0,22.77,20.29c10.28,5.69,19.48-10.05,9.2-15.74A50.35,50.35,0,0,1,152.63,330c-2.94-3.94-7.88-5.95-12.47-3.27-3.88,2.27-6.23,8.5-3.27,12.47Z"/><path class="cls-14" d="M230.72,264.43l4,1.37a9.12,9.12,0,1,0,4.85-17.58l-4.05-1.36a9.11,9.11,0,1,0-4.84,17.57Z"/><path class="cls-14" d="M519.08,606.52l52.76-13.1c11.38-2.83,6.56-20.41-4.84-17.58l-52.77,13.1c-11.38,2.83-6.56,20.41,4.85,17.58Z"/><path class="cls-14" d="M635.44,477h8.1c4.77,0,9.34-4.19,9.12-9.11a9.28,9.28,0,0,0-9.12-9.12h-8.1c-4.77,0-9.33,4.19-9.11,9.12a9.26,9.26,0,0,0,9.11,9.11Z"/><path class="cls-14" d="M310.45,142.5a117.93,117.93,0,0,0,5.43,38.95c3.52,11.14,21.12,6.38,17.58-4.85a101.84,101.84,0,0,1-4.78-34.1c.33-11.73-17.89-11.72-18.23,0Z"/><path class="cls-14" d="M89.12,509.58l32.41-14.86c10.65-4.89,1.39-20.6-9.2-15.74L79.92,493.84c-10.65,4.88-1.4,20.6,9.2,15.74Z"/><path class="cls-14" d="M184.71,472.66l6.75,2.71c2.06.82,5.2.14,7-.92A9.11,9.11,0,0,0,201.76,462a10.59,10.59,0,0,0-5.45-4.19l-6.75-2.7c-2.06-.82-5.2-.15-7,.92a9.13,9.13,0,0,0-3.27,12.47,10.67,10.67,0,0,0,5.45,4.18Z"/><path class="cls-14" d="M376.38,31.56l28.36,29.71c8.12,8.51,21-4.4,12.89-12.89L389.27,18.67c-8.11-8.5-21,4.4-12.89,12.89Z"/></g></g></svg>