<svg xmlns="http://www.w3.org/2000/svg" xmlns:xlink="http://www.w3.org/1999/xlink" viewBox="0 0 738.28 751.74"><defs><style>.cls-1{mask:url(#mask);filter:url(#luminosity-noclip-2);}.cls-2{mix-blend-mode:multiply;fill:url(#linear-gradient);}.cls-3{fill:url(#linear-gradient-2);}.cls-4{fill:#8a632d;}.cls-4,.cls-8{opacity:0.3;}.cls-12,.cls-15,.cls-5{opacity:0.5;}.cls-6{fill:#ba8fb2;}.cls-7{fill:#776680;}.cls-9{fill:#fff;}.cls-10{fill:url(#linear-gradient-3);}.cls-11{fill:url(#linear-gradient-4);}.cls-12{fill:#80b541;}.cls-13{fill:url(#linear-gradient-5);}.cls-14{fill:url(#linear-gradient-6);}.cls-15,.cls-23{fill:#672d1e;}.cls-16{mask:url(#mask-2);}.cls-17{opacity:0.6;fill:url(#linear-gradient-7);}.cls-18{fill:url(#linear-gradient-8);}.cls-19{fill:url(#linear-gradient-9);}.cls-20{fill:url(#linear-gradient-10);}.cls-21{fill:url(#linear-gradient-11);}.cls-22{fill:url(#linear-gradient-12);}.cls-24{fill:#8e4f30;}.cls-25{fill:url(#linear-gradient-13);}.cls-26{fill:url(#linear-gradient-14);}.cls-27{fill:url(#linear-gradient-15);}.cls-28{fill:url(#linear-gradient-16);}.cls-29{fill:#8c4e2f;}.cls-30{fill:url(#linear-gradient-17);}.cls-31{fill:url(#linear-gradient-18);}.cls-32{fill:url(#linear-gradient-19);}.cls-33{fill:url(#linear-gradient-20);}.cls-34{fill:#fce8cc;}.cls-35{opacity:0.2;}.cls-36{fill:url(#linear-gradient-21);}.cls-37{filter:url(#luminosity-noclip);}</style><filter id="luminosity-noclip" x="289.25" y="-9892.62" width="73.89" height="32766" filterUnits="userSpaceOnUse" color-interpolation-filters="sRGB"><feFlood flood-color="#fff" result="bg"/><feBlend in="SourceGraphic" in2="bg"/></filter><mask id="mask" x="289.25" y="-9892.62" width="73.89" height="32766" maskUnits="userSpaceOnUse"><g class="cls-37"/></mask><linearGradient id="linear-gradient" x1="307.68" y1="230.82" x2="387.66" y2="245.36" gradientTransform="translate(-44.14)" gradientUnits="userSpaceOnUse"><stop offset="0" stop-color="#fff"/><stop offset="0.23" stop-color="#c9c9c9"/><stop offset="0.75" stop-color="#424242"/><stop offset="1"/></linearGradient><linearGradient id="linear-gradient-2" x1="77.23" y1="577.16" x2="748.96" y2="577.16" gradientTransform="translate(-44.14)" gradientUnits="userSpaceOnUse"><stop offset="0" stop-color="#ffda26"/><stop offset="0.68" stop-color="#f0a923"/><stop offset="1" stop-color="#ff9307"/></linearGradient><linearGradient id="linear-gradient-3" x1="757.7" y1="304.2" x2="102.27" y2="458.95" gradientTransform="translate(-44.14)" gradientUnits="userSpaceOnUse"><stop offset="0" stop-color="#f2dcc8"/><stop offset="0.58" stop-color="#fbecde"/><stop offset="1" stop-color="#fff3e8"/></linearGradient><linearGradient id="linear-gradient-4" x1="-873.29" y1="-598.89" x2="-656.37" y2="-773.83" gradientTransform="matrix(0.7, 0.65, 0.68, -0.71, 1227.55, 145.69)" gradientUnits="userSpaceOnUse"><stop offset="0" stop-color="#6fb41d"/><stop offset="0.19" stop-color="#6bae1e"/><stop offset="0.46" stop-color="#619c21"/><stop offset="0.78" stop-color="#507e27"/><stop offset="1" stop-color="#42652b"/></linearGradient><linearGradient id="linear-gradient-5" x1="1769.68" y1="-323.26" x2="1723.61" y2="-42.05" gradientTransform="matrix(-0.89, 0.46, 0.46, 0.89, 1745.45, -410.48)" xlink:href="#linear-gradient-4"/><linearGradient id="linear-gradient-6" x1="253.59" y1="261.46" x2="541.75" y2="310.86" gradientTransform="translate(-44.14)" gradientUnits="userSpaceOnUse"><stop offset="0" stop-color="#bf7b5a"/><stop offset="0.62" stop-color="#905132"/><stop offset="0.65" stop-color="#8e4f30"/><stop offset="1" stop-color="#6e3519"/></linearGradient><filter id="luminosity-noclip-2" x="289.25" y="120.68" width="73.89" height="242.84" filterUnits="userSpaceOnUse" color-interpolation-filters="sRGB"><feFlood flood-color="#fff" result="bg"/><feBlend in="SourceGraphic" in2="bg"/></filter><mask id="mask-2" x="289.25" y="120.68" width="73.89" height="242.84" maskUnits="userSpaceOnUse"><g class="cls-1"><path class="cls-2" d="M296.52,120.68c0,5.82-7.27,184.68-7.27,184.68l65.43,58.16,8.45-214.58Z"/></g></mask><linearGradient id="linear-gradient-7" x1="307.68" y1="230.82" x2="387.66" y2="245.36" gradientTransform="translate(-44.14)" gradientUnits="userSpaceOnUse"><stop offset="0" stop-color="#d6a574"/><stop offset="1" stop-color="#bf7b5a"/></linearGradient><linearGradient id="linear-gradient-8" x1="769.95" y1="136.28" x2="391.85" y2="80.47" gradientTransform="translate(-118.68)" xlink:href="#linear-gradient-6"/><linearGradient id="linear-gradient-9" x1="639.02" y1="133.84" x2="542.65" y2="120.99" gradientTransform="translate(-118.68)" gradientUnits="userSpaceOnUse"><stop offset="0" stop-color="#bf7b5a"/><stop offset="0.96" stop-color="#905132"/><stop offset="1" stop-color="#8e4f30"/></linearGradient><linearGradient id="linear-gradient-10" x1="383.8" y1="130.64" x2="562.18" y2="130.64" gradientTransform="translate(-44.14)" xlink:href="#linear-gradient-9"/><linearGradient id="linear-gradient-11" x1="324.13" y1="106.55" x2="636.3" y2="106.55" gradientTransform="translate(-44.14)" gradientUnits="userSpaceOnUse"><stop offset="0" stop-color="#e0ab83"/><stop offset="1" stop-color="#bf7b5a"/></linearGradient><linearGradient id="linear-gradient-12" x1="759.73" y1="457.67" x2="481.81" y2="254.05" gradientTransform="translate(-44.14)" gradientUnits="userSpaceOnUse"><stop offset="0" stop-color="#bf7b5a"/><stop offset="0.39" stop-color="#905132"/><stop offset="0.4" stop-color="#8e4f30"/><stop offset="1" stop-color="#6e3519"/></linearGradient><linearGradient id="linear-gradient-13" x1="453.61" y1="303.19" x2="640.52" y2="469.15" gradientTransform="translate(-44.14)" gradientUnits="userSpaceOnUse"><stop offset="0" stop-color="#bf7b5a"/><stop offset="0.53" stop-color="#905132"/><stop offset="0.55" stop-color="#8e4f30"/><stop offset="1" stop-color="#6e3519"/></linearGradient><linearGradient id="linear-gradient-14" x1="391.14" y1="315.28" x2="626.99" y2="504.63" xlink:href="#linear-gradient-13"/><linearGradient id="linear-gradient-15" x1="368.53" y1="332.6" x2="499.62" y2="521.76" gradientTransform="translate(-44.14)" xlink:href="#linear-gradient-9"/><linearGradient id="linear-gradient-16" x1="483.75" y1="303.98" x2="738.13" y2="385.47" gradientTransform="translate(-44.14)" gradientUnits="userSpaceOnUse"><stop offset="0" stop-color="#bf7b5a"/><stop offset="0.28" stop-color="#b67252"/><stop offset="1" stop-color="#a15f40"/></linearGradient><linearGradient id="linear-gradient-17" x1="119.71" y1="521.8" x2="181.16" y2="512.38" gradientTransform="matrix(0.99, 0.14, -0.14, 0.99, 108.47, -132.45)" xlink:href="#linear-gradient-9"/><linearGradient id="linear-gradient-18" x1="65.76" y1="548.64" x2="304.77" y2="512.01" gradientTransform="matrix(0.99, 0.14, -0.14, 0.99, 108.47, -132.45)" gradientUnits="userSpaceOnUse"><stop offset="0" stop-color="#bf7b5a"/><stop offset="0.53" stop-color="#a36242"/><stop offset="1" stop-color="#8e4f30"/></linearGradient><linearGradient id="linear-gradient-19" x1="178.87" y1="378.93" x2="365.13" y2="458.29" gradientTransform="translate(-44.14)" xlink:href="#linear-gradient-9"/><linearGradient id="linear-gradient-20" x1="248.84" y1="378.08" x2="389.41" y2="217.43" xlink:href="#linear-gradient-11"/><linearGradient id="linear-gradient-21" x1="767.32" y1="344.9" x2="111.88" y2="499.66" xlink:href="#linear-gradient-3"/></defs><title>Asset 3</title><g id="Layer_2" data-name="Layer 2"><g id="Layer_4" data-name="Layer 4"><path class="cls-3" d="M122.64,704.36C230.29,775.19,536.87,759,609.41,705.6c17-12.5,71-173.16,95.41-285.46-42.64-41.71-236.27,77.43-335.7,77.43-102.2,0-295.4-129.6-336-86.06C44.38,492.48,109,695.38,122.64,704.36Z"/><path class="cls-4" d="M675.05,492.31c0-26.39-19.19-50.9-52.07-71.23-77.5,22.6-187,76.49-253.86,76.49-65.68,0-169-53.53-245.15-80.22-36.69,21-58.36,46.94-58.36,75C65.61,562.67,202,619.7,370.33,619.7S675.05,562.67,675.05,492.31Z"/><path class="cls-6" d="M7.48,386.2c0,117.67,154.22,203.39,358.09,203.39s361.5-85.72,361.5-203.39S572.6,176.73,368.73,176.73,7.48,268.52,7.48,386.2Z"/><path class="cls-7" d="M7.48,386.2c0,117.67,154.22,203.39,358.09,203.39s361.5-85.72,361.5-203.39S572.6,176.73,368.73,176.73,7.48,268.52,7.48,386.2Z"/><g class="cls-8"><path class="cls-9" d="M177.66,663.07c-26.43-6.29-47.33,10.69-60.61,32.95,2.31,4.54,4.21,7.43,5.59,8.34l1,.65c13.06-23.67,35.27-42.43,61.59-28.2,22.68,12.27,29.67,37.6,35.06,62.65q5.08,1,10.3,1.91C222.93,707.93,214,671.72,177.66,663.07Z"/><path class="cls-9" d="M231.4,580.51c.14,27.51.6,56,12.85,81.22,10.52,21.7,30,38.87,54.72,40.87,25.18,2,43.42-13.89,53.63-35.6,12.82-27.24,20.34-57.59,25.53-87.12,1.12-6.38-8.64-9.11-9.77-2.69a407.75,407.75,0,0,1-19.71,73.12c-8,21.32-20.78,43.08-46.61,42.34-55.54-1.61-60.3-71.41-60.51-112.14,0-6.52-10.16-6.53-10.13,0Z"/><path class="cls-9" d="M273.88,576c-3.85,18.44-3.57,37.42,2,55.52,3.38,11,10,25.63,23.64,25.66,13.13,0,19.79-13.63,23.68-24.14A164.25,164.25,0,0,0,333,573.14c-.1-6.51-10.23-6.53-10.13,0a157.76,157.76,0,0,1-4.06,39.39c-2.34,9.77-5.46,27.43-14.92,33.12-12.41,7.45-18.42-16.14-20.2-23.91a100.19,100.19,0,0,1-.06-43c1.33-6.36-8.43-9.08-9.77-2.69Z"/><path class="cls-9" d="M459.42,591.08c3.52,24.7,7.62,51.39,24.75,70.78,14.09,16,37.27,25.71,57.91,17.23,21.45-8.82,33.09-32.61,40.88-53a182,182,0,0,0,10.68-83.33c-.66-6.42-10.79-6.48-10.13,0a175.38,175.38,0,0,1-5.8,67.18c-5.8,19.93-15.4,44.91-33.68,56.73-19.29,12.49-43.2,1.37-55.63-15.57-13.14-17.93-16.17-41.32-19.21-62.71-.92-6.43-10.68-3.7-9.77,2.69Z"/><path class="cls-9" d="M488.09,571.22a80.35,80.35,0,0,0,10.17,48.85c6.27,10.78,17.47,23.9,31.41,18,12.92-5.45,16.64-22.3,19.55-34.41a279,279,0,0,0,7.53-60.84c.1-6.52-10-6.53-10.13,0a267.37,267.37,0,0,1-3.74,41.6c-2,11.77-4,25.6-9.72,36.22-4.09,7.52-10.65,11.37-18.19,5-4.47-3.79-7.78-9.85-10.33-15.07-6-12.31-7.83-25.82-6.42-39.36.67-6.48-9.46-6.43-10.13,0Z"/><path class="cls-9" d="M566.76,725.59c4-1.31,7.86-2.66,11.52-4.05a88.72,88.72,0,0,1,52-55.29c1.58-3.88,3.22-8,4.89-12.31A99.08,99.08,0,0,0,566.76,725.59Z"/><path class="cls-9" d="M638.76,518.68c-.82-6.38-11-6.46-10.13,0a97.57,97.57,0,0,0,32.62,60.54q1.66-5.19,3.33-10.49C650.83,555.53,641.24,538,638.76,518.68Z"/><path class="cls-9" d="M421.26,678.84c-17.95,2.18-32,17.27-41.48,31.53a106.46,106.46,0,0,0-16.24,41.37c3.42,0,6.85,0,10.26-.08a96.6,96.6,0,0,1,10.44-29.17c7.18-13,18.74-28.33,33.67-32.68,17.91-5.21,30.3,11.17,37.65,25.1a94.75,94.75,0,0,1,9.93,31q5-.57,9.81-1.2C470.6,714.43,453.79,674.89,421.26,678.84Z"/><path class="cls-9" d="M141.17,532.63c-.21-6.5-10.34-6.53-10.13,0,.72,22.19-1.12,49.37-13.7,68.49-7,10.63-17.84,16.75-30.56,14.46q1.73,5.28,3.44,10.38c9.21.82,18.51-1.7,27.31-9.56C139.17,597.08,142,559.61,141.17,532.63Z"/><path class="cls-9" d="M98.16,504.07c-2.78,1.31-3.8,2.56-4.21,5.59a5.46,5.46,0,0,0,2.81,5.55c2.31,15.21,2,31.61-3.24,46-2.6,7.15-7.19,15.22-15.31,17a15.19,15.19,0,0,1-3.2.33q1.47,4.79,2.95,9.52c6.69-.46,13.11-3.65,18.61-11,14.14-18.91,13.31-48,9-70C104.92,503.63,100.88,502.8,98.16,504.07Z"/></g><path class="cls-10" d="M369.14,172.45c203.87,0,369.14,95.4,369.14,213.07S573,598.59,369.14,598.59,0,503.19,0,385.52,165.27,172.45,369.14,172.45Zm0,389.17c184.09,0,333.32-82.52,333.32-184.33S553.23,193,369.14,193,35.81,275.48,35.81,377.29,185.05,561.62,369.14,561.62Z"/><path class="cls-11" d="M187.88,241.85c-3.72,1.5-48.69-36.71-44.54-58.46,2.92-3.3,9.31,2.67,13.9,4.69-6.67-7.17-24.73-50.31-18.72-63.22,1.33-2.64,8.4,4.48,11.63,8.06-5-13.17-7.28-30.53-6.17-44.74.23-3,0-11.62,3.8-12.66,3.53-1,8.72,6.79,10.4,9.14-1.88-8-2.87-15.8-1.53-24.18.75-4.66,4.7-25.67,11.17-26.62,3.79-.56,6.68,5.88,8.75,8.25,0-12.92,8-37,14.65-40.67,7.89-4.37,18.58,2.17,24.37,6.83,4.62,3.71,12.07,13,15.68,17.63,1.81-6.46,4.17-13.38,9.28-13.51,10.2-.27,23.46,28.57,25.05,38,11.53-22.3,25.15,18.82,21.78,29.14,28.09-29.53,20.15,51.37,19.56,59.82,3.08-2.77,11.91-4.06,12.73-1.24,1.73,6-2.8,20.25-6.76,24.76-6.8,7.73-13.55,85-21.92,91.14-21.73,16-41,.76-64.58,13.84C217.06,273.06,197.79,237.86,187.88,241.85Z"/><path class="cls-12" d="M272.26,140.53a180,180,0,0,1-27,42.07l-14.09-49.24c30-21.41,25.95-56.65,25.95-56.65-7.81,30-22.83,45.52-27.84,50L200.49,26.37c4.31,27.5,9.24,53.29,14.35,77-6.38-2.89-25.34-13-41.61-37,0,0,10.88,37.68,43.07,43.72,3.93,17.79,9.95,33.36,13.86,48.43-7.85-2.6-39.11-12.86-60.78-41.56,0,0,20.51,41.86,62.56,48.35,3.68,13.88,7.11,26.47,10.19,37.61l-30.34-10.5s13,16.41,32,17.27c7.56,27,13.27,45.2,14.16,48.06l7.75-3.73-19-66.35C268.64,175.1,272.26,140.53,272.26,140.53Z"/><path class="cls-13" d="M255.09,299.82c3.3-2.19-.67-21.81-1.3-24.7a165.92,165.92,0,0,0-6.06-21.79c-2.45-6.72-13.2-37.53-24.43-33.26-3.53,1.34-6.52,6.06-7.47,9.3-2.3-8.19-19.41-51.05-31.25-53.8-4.37.32-10.48,8.18-11.05,15.32-4.63-11-31.6-36.62-41.55-38.07-3.69-.54-7.39,10.24-7,13.74-20-16.36-56-31.89-56-7.83C65.55,157.37,26.75,143,20,150.53c-4.17,4.65,1.35,24.77,5.74,36.31-6.55-1.44-16.26-3-16.26.14,0,7.58,5.7,21.24,15.57,34-3.29-.61-10.63-1.29-10.69.46-.25,6.93,7.47,28.34,21.37,41.93-2.5.08-8.13.85-8.52,2.5-.47,2,6.15,24.24,28.81,35.53-7.61,0-13.83.38-12.19,4.54,8.95,23.69,40.31,27.56,61.41,33.3,27.42,7.48,58.62,2.56,84.94-6.5C213.18,324.81,234.84,313.23,255.09,299.82Z"/><path class="cls-12" d="M150.05,287.21s18.33-20.83,12.5-80c0,0,20.83,42.49-6.66,79.15Z"/><path class="cls-12" d="M209.69,333.34l-96.48-95.21c15-34-6-63.06-6-63.06,7.68,29.08,3.22,49.92.79,57.92L35,160.91c17.89,22.65,35.47,43.43,52.16,62.24-7.24.64-29.52,1.17-56.45-12.28,0,0,29,28.5,61.17,17.57,12.64,14.11,24.71,27,36,38.68-8,2-39,7.93-78.39-7.47,0,0,40.41,28.86,83.36,12.6,40.1,41.15,68.48,65.24,71.83,68.4Z"/><path class="cls-14" d="M279.86,94.66,268.71,528.17,534,513.09l55.88-375.21a107.06,107.06,0,0,0-32.94-30.64l6.52-27.41s-66.47-40.07-165.32-33S279.86,94.66,279.86,94.66Z"/><polygon class="cls-15" points="354.6 331.73 401.08 416.44 371.1 503.41 354.6 331.73"/><g class="cls-16"><path class="cls-17" d="M296.52,120.68c0,5.82-7.27,184.68-7.27,184.68l65.43,58.16,8.45-214.58Z"/></g><path class="cls-18" d="M491.9,53.74a324.29,324.29,0,0,0-93.81-6.93,313.29,313.29,0,0,0-35.69,4.51C288.85,66.59,286,93.26,286,93.26s-4.93,50.88,139.53,69.49c104.91,13.51,148-11.07,163.81-25.54a108.16,108.16,0,0,0-32.49-30l6.52-27.41s-2-1.17-5.62-3l-2-.49S530.4,63,491.9,53.74Z"/><path class="cls-19" d="M435.54,108.1l-3.41,28.42s36,9.09,55.32,6.44,32.58-11.37,19.32-22S435.54,108.1,435.54,108.1Z"/><path class="cls-20" d="M342.94,94.35l-3.28,46.51s48.15,14.77,88.09,21.34,84.82,4.38,84.82,4.38L518,134.29s-32.29,14.23-90.83,1.1S342.94,94.35,342.94,94.35Z"/><path class="cls-21" d="M441.36,114.6c19.13-1.75,39.62.75,56.72,10.11,4.39,2.4,10.4,7.89,4.37,10.42-11.1,4.65-34.32.68-44.1-.88-64.92-10.35-103-27.31-101.14-38.31,2.28-13.64,80.23-16,121.28-9.88a207.88,207.88,0,0,1,54.62,15.67c14.86,6.73,32.85,15.75,43.51,28.45,6.28,7.49,1.45,10.28-5.49,14.41-6.66,4-13.82,6.14-21.29,8.14a248.14,248.14,0,0,1-62,8A421.56,421.56,0,0,1,365.13,142.9a231.06,231.06,0,0,1-53.22-23.27c-7.46-4.48-18-11.37-20-20.58C289.4,88.2,300.74,79.27,309,74.68,326.9,64.77,349.5,60,369.47,56.51A294.63,294.63,0,0,1,432,52.58c42.91,1.78,85,12.86,123.76,31.22,6.92,3.28,12.76-7.13,5.81-10.42-43.15-20.44-90-32.22-137.87-33a301.93,301.93,0,0,0-69.52,7c-20.34,4.48-44.74,9.94-61,23.77-13.8,11.75-18.3,28.39-6.23,43.3,14,17.33,37.83,27.27,58.26,34,49.52,16.25,101.45,26.35,153.9,23.88,23.23-1.1,49.18-4.05,70.6-13.59,11.13-4.95,26.73-13.57,21.29-27.92-6.34-16.74-30.13-28.61-44.91-36.07a207.86,207.86,0,0,0-66.69-20.53C446.94,70,368.22,69.35,347.93,86.4c-9.84,8.26-5.42,19.27,3.32,25.13,18.8,12.59,39.43,19.25,66.19,26,24.6,6.24,49.56,10.73,74.92,10.16,8-.18,18.05.11,23.48-6.95,5.25-6.84,2.56-15.08-3.25-20.64-17.19-16.43-49.14-19.51-71.48-17.46C433.51,103.38,433.7,115.31,441.36,114.6Z"/><path class="cls-22" d="M677.64,390.07C689,358.64,706.06,294,601.26,249c-88.19-37.88-180.12,3.9-182.68,45.66s15.34,121,145.72,167C564.3,461.65,666.57,420.75,677.64,390.07Z"/><path class="cls-23" d="M640.15,343.2l18.47,64.29s-32.29,15.45-52,9.83S640.15,343.2,640.15,343.2Z"/><path class="cls-24" d="M567.71,319.34l-6.82,35.79S518.11,348.26,526,323.6C531.92,304.85,567.71,319.34,567.71,319.34Z"/><path class="cls-25" d="M520,327.86,471.42,523l131.23-69.88,37.5-109.93s-12.78,24.71-69,15.34S520,327.86,520,327.86Z"/><path class="cls-26" d="M646.27,477.84l37.82-89.66S651.22,435.43,567,413.86,459.07,354.18,451.91,308.51L399.12,554.85C502.15,550.13,591.7,521.27,646.27,477.84Z"/><path class="cls-15" d="M561.89,529.7l-45.7-93.52-38.39,110C501.84,541.88,540.7,536.63,561.89,529.7Z"/><path class="cls-27" d="M358.81,555.46c3.43,0,6.87.09,10.33.09a609.78,609.78,0,0,0,127-13l20-106.41s-112.82-24.65-104-139.13Z"/><path class="cls-15" d="M362.76,555.49c2.13,0,4.24.06,6.38.06a635.59,635.59,0,0,0,75.68-4.5c-15-29.14-46.17-89.91-59.73-122.86L361.83,540.82Z"/><path class="cls-28" d="M565.47,310.24c-12.46-3.25-26.89-6.26-38,2.24-9.65,7.39-11.27,19.61-3.48,29,8.61,10.41,24.3,16.05,36.82,19.9,14.46,4.46,30.4,6.77,45.5,5,25.17-3,43-22.44,33.32-48.11-9.9-26.19-38.08-42.41-63.63-49.95-36.8-10.87-118.2-12.59-124.11,40.19-2.78,24.75,12.86,50,29.4,67.09,11.12,11.48,25,20.27,39.28,27.25,47.59,23.2,152.3,45.06,169.76-27.83,5-20.88,2.17-42.6-6.75-62-7.78-17-27-38.28-42.55-49.37-45.48-32.39-79.41-35.26-122.86-33.51-23.19.94-47.7,4.3-67.71,16.06-23.79,14-41.82,41.27-41,69.32,1.26,43.06,28.34,80.42,62.25,104.89a208.48,208.48,0,0,0,34.65,20c7.76,3.59,14.56-7.93,6.75-11.54-35.36-16.37-68.46-42.53-83.13-79.75-10.42-26.46-11.22-58.75,11-79.37,21.84-20.29,53.81-25.25,82.51-26.5,54.46-2.35,118.22,17.91,145.3,68.63,13.16,24.65,17.4,64.46-6.18,84.59-19.16,16.35-48.38,16.76-72,13.78-27.47-3.47-55.08-12.73-78.64-27.35a107.11,107.11,0,0,1-33.67-32.32c-10.86-16.53-21.28-41.9-4.36-58.17,15.8-15.18,42.78-17.21,63.51-16.64,27.79.76,57.6,9.54,77.76,29.53,8.73,8.66,18.85,24.1,11.75,36.49-6.69,11.68-23.59,12.34-35.47,11.72a111.47,111.47,0,0,1-46.23-12.81c-5.94-3.17-17.49-9.16-10.36-17.07,6.25-6.92,19.56-2.39,27-.44C570.24,325.3,573.8,312.41,565.47,310.24Z"/><path class="cls-29" d="M297.61,249.35l4.27,40.6s59.31,18.55,53.46,79S282.15,466.14,217,462.29,82.69,438.06,80.31,366.66,175.1,255.2,297.61,249.35Z"/><polygon class="cls-15" points="307.82 344.06 341.28 399.07 313.2 425.75 307.82 344.06"/><path class="cls-30" d="M165.59,360.43,179.1,441l92.52-13.62L260.43,368S199.26,386.08,165.59,360.43Z"/><path class="cls-31" d="M119.61,365.09l18.15,117.14L327.18,468l-16.9-113.41s-26.14,53.17-102,55.81S119.61,365.09,119.61,365.09Z"/><path class="cls-32" d="M359.76,352.84c-.74-3.87-1.13-6-1.13-6S348.77,454.3,229.35,466.37C114.7,478,72.79,374.46,72.79,374.46L92.43,478.18c59.86,47.4,161.45,77.37,276.71,77.37q8.81,0,17.49-.24C377.05,487.87,365.15,420.67,359.76,352.84Z"/><path class="cls-33" d="M252.06,359.82a160.09,160.09,0,0,1-38.15,5.35c-10.07.28-30.29.91-35.95-9.81-.31,2.23-.62,4.45-.94,6.68,13.73-15.19,35.07-22.23,54.76-25.29,17.36-2.7,38.71-3.8,54.91,4.37,10.91,5.5,13.27,17.37,6.31,27.23-8.56,12.12-24.41,18.69-37.95,23.31-30.58,10.43-72.86,16.16-102.93,1-11-5.53-20.9-17.35-20-30.31s12.36-23.3,22.25-30.4c28.94-20.77,67.12-31.16,102.17-34.73,14-1.44,29.65-2.31,43.27,2.18,19.78,6.52,38.52,22.26,45.13,42.35,14.56,44.21-26.21,87.13-63.5,103.13-45.8,19.65-109.4,20.42-152.5-6.8-38.36-24.23-56.81-73.94-28.85-113.27,31-43.59,93.48-61.35,144-66.17,13.33-1.27,37.88-2.93,51.41-.79,6.34,1,6.47-12.43-2.13-12.82-60.66-2.74-135.91,10.33-183.52,50.16-20,16.71-35.06,39.51-36.77,66.06-1.55,24.21,7.34,48,23.17,66.22,38.24,44,106.92,51.84,161,39.19,49.22-11.52,101.93-49.27,103.74-104.58,1.49-45.44-40.06-78.18-83-79.11-41.24-.89-86.09,10.85-121.6,31.81-14.3,8.45-29.47,20.08-35.31,36.29-5.48,15.23-.23,31,10.4,42.62,12.29,13.43,31.67,18.25,49.14,19.95,21.74,2.12,44-.07,65.15-5.43,26.38-6.71,78-27.49,62.11-64.2-7.19-16.62-29-20.93-45.13-22-23.64-1.61-48.79,2.34-70.21,12.71a83.38,83.38,0,0,0-25.95,19,6.51,6.51,0,0,0-.94,6.68c7.78,14.75,25.63,17.62,40.87,18a172.69,172.69,0,0,0,50.67-6.26c8.27-2.3,3.15-14.66-5.07-12.37Z"/><g class="cls-5"><path class="cls-34" d="M315.46,175.91c6.52,0,6.53-10.13,0-10.13s-6.53,10.13,0,10.13Z"/></g><g class="cls-5"><path class="cls-34" d="M339.09,198.87c6.52,0,6.53-10.13,0-10.13s-6.53,10.13,0,10.13Z"/></g><g class="cls-5"><path class="cls-34" d="M316.84,246v.67a5.07,5.07,0,0,0,10.13,0V246a5.07,5.07,0,1,0-10.13,0Z"/></g><g class="cls-8"><path class="cls-34" d="M553.79,213.72c6.52,0,6.53-10.13,0-10.13s-6.52,10.13,0,10.13Z"/></g><g class="cls-8"><path class="cls-34" d="M536.24,200.22c6.52,0,6.53-10.13,0-10.13s-6.53,10.13,0,10.13Z"/></g><g class="cls-35"><path class="cls-34" d="M574.05,470.28c6.51,0,6.52-10.13,0-10.13s-6.53,10.13,0,10.13Z"/></g><g class="cls-35"><path class="cls-34" d="M593.63,458.13h.67a5.07,5.07,0,1,0,0-10.13h-.67a5.07,5.07,0,1,0,0,10.13Z"/></g><g class="cls-35"><path class="cls-34" d="M603.75,485.81c6.52,0,6.53-10.13,0-10.13s-6.52,10.13,0,10.13Z"/></g><g class="cls-35"><path class="cls-34" d="M644.94,444c6.52,0,6.53-10.13,0-10.13s-6.53,10.13,0,10.13Z"/></g><g class="cls-8"><path class="cls-34" d="M228,503v.67a5.07,5.07,0,1,0,10.13,0V503A5.07,5.07,0,1,0,228,503Z"/></g><g class="cls-8"><path class="cls-34" d="M253.35,535.1c6.51,0,6.52-10.13,0-10.13s-6.53,10.13,0,10.13Z"/></g><g class="cls-8"><path class="cls-34" d="M259.42,513.49h.68a5.07,5.07,0,0,0,0-10.13h-.68a5.07,5.07,0,0,0,0,10.13Z"/></g><g class="cls-35"><path class="cls-34" d="M335.72,460.15c6.51,0,6.52-10.12,0-10.12s-6.53,10.12,0,10.12Z"/></g><g class="cls-35"><path class="cls-34" d="M353.27,474.33c6.52,0,6.53-10.12,0-10.12s-6.53,10.12,0,10.12Z"/></g><g class="cls-8"><path class="cls-34" d="M151.91,423.85v-.91a5.07,5.07,0,0,0-10.13,0v.91a5.07,5.07,0,0,0,10.13,0Z"/></g><g class="cls-8"><path class="cls-34" d="M164.9,443.36c6.52,0,6.53-10.13,0-10.13s-6.52,10.13,0,10.13Z"/></g><g class="cls-5"><path class="cls-34" d="M411.05,405.27a3.32,3.32,0,0,0-2.24.92c-1.79,1.62-2,5.28.23,6.62a3.67,3.67,0,0,0,4-.29C415.61,410.54,414.72,405.15,411.05,405.27Z"/></g><g class="cls-5"><path class="cls-34" d="M438.51,417.17c6.52,0,6.53-10.13,0-10.13s-6.53,10.13,0,10.13Z"/></g><g class="cls-5"><path class="cls-34" d="M431.67,459.36c6.51,0,6.53-10.12,0-10.12s-6.53,10.12,0,10.12Z"/></g><g class="cls-8"><path class="cls-34" d="M531.52,370.21c6.51,0,6.52-10.12,0-10.12s-6.53,10.12,0,10.12Z"/></g><path class="cls-36" d="M703.51,295.17c-1.71,2.41-2,3.58-3.71,6,4.72,38.14,5,47.1,2.66,76.16,0,101.81-149.23,178.26-333.32,178.26S35.81,479.1,35.81,377.29a105.83,105.83,0,0,1,5.53-33.6c-2.36-3.31-4.65-6.78-6.85-10.33q-8.43-6.69-16.2-14.19C6.44,340.05,0,362.35,0,385.52,0,518.71,165.27,602.64,369.14,602.64s369.14-89,369.14-217.12C738.28,353.22,725.8,322.6,703.51,295.17Z"/></g></g></svg>