<svg xmlns="http://www.w3.org/2000/svg" xmlns:xlink="http://www.w3.org/1999/xlink" viewBox="0 0 918.39 1012.45"><defs><style>.cls-1{isolation:isolate;}.cls-2,.cls-56,.cls-8{fill:#9c5837;}.cls-13,.cls-2,.cls-24,.cls-26,.cls-39,.cls-4,.cls-7{opacity:0.5;}.cls-2,.cls-8{mix-blend-mode:multiply;}.cls-3{fill:url(#linear-gradient);}.cls-4{fill:#e8c668;}.cls-5{fill:url(#linear-gradient-2);}.cls-12,.cls-6{fill:#ec8f30;}.cls-20,.cls-7{fill:#fcaf35;}.cls-16,.cls-20,.cls-22,.cls-46,.cls-8{opacity:0.3;}.cls-9{fill:#a8500e;}.cls-10{fill:url(#linear-gradient-3);}.cls-11{fill:url(#linear-gradient-4);}.cls-12,.cls-29,.cls-36,.cls-38,.cls-40,.cls-49,.cls-52,.cls-53,.cls-57{opacity:0.7;}.cls-13,.cls-22,.cls-32{fill:#eac445;}.cls-14,.cls-15{opacity:0.4;}.cls-15,.cls-16,.cls-23,.cls-26,.cls-33,.cls-34{fill:#c9893b;}.cls-17{fill:#5c1d04;}.cls-18{fill:url(#linear-gradient-5);}.cls-19{fill:url(#linear-gradient-6);}.cls-21{fill:#fcb651;}.cls-25,.cls-34{opacity:0.8;}.cls-27{fill:url(#linear-gradient-7);}.cls-28{fill:url(#linear-gradient-8);}.cls-29{fill:url(#linear-gradient-9);}.cls-30{fill:#e3841e;}.cls-31,.cls-33{opacity:0.6;}.cls-35{fill:#732c09;}.cls-36{fill:url(#linear-gradient-10);}.cls-37{fill:#571f02;}.cls-38{fill:url(#linear-gradient-11);}.cls-39,.cls-40,.cls-46{fill:#4f1c02;}.cls-41{fill:#f0d371;}.cls-42{fill:#fff5cc;}.cls-43{fill:#e0b24e;}.cls-44{fill:#c79236;}.cls-45{fill:#ffeda9;}.cls-47{fill:url(#linear-gradient-12);}.cls-48{fill:#ab8878;}.cls-49{fill:#c49758;}.cls-50{fill:#d4b44c;opacity:0.2;}.cls-51{fill:#f8df8a;}.cls-52{fill:url(#linear-gradient-13);}.cls-53{fill:url(#linear-gradient-14);}.cls-54{fill:url(#linear-gradient-15);}.cls-55{fill:#fffbe8;}.cls-57{fill:url(#linear-gradient-16);}.cls-58{fill:#c86;}.cls-59{fill:url(#linear-gradient-17);}.cls-60{fill:url(#linear-gradient-18);}.cls-61{fill:url(#linear-gradient-19);}.cls-62{fill:#521a04;}.cls-63{fill:url(#linear-gradient-20);}.cls-64{fill:url(#linear-gradient-21);}.cls-65{fill:url(#linear-gradient-22);}</style><linearGradient id="linear-gradient" x1="61.98" y1="789.53" x2="891.43" y2="789.53" gradientTransform="translate(-44.14)" gradientUnits="userSpaceOnUse"><stop offset="0" stop-color="#fbe094"/><stop offset="0.19" stop-color="#fbe5a5"/><stop offset="0.34" stop-color="#fbe7ad"/><stop offset="0.54" stop-color="#fbe7ad"/><stop offset="0.66" stop-color="#f9e2a2"/><stop offset="0.87" stop-color="#f4d685"/><stop offset="1" stop-color="#f0ce71"/></linearGradient><linearGradient id="linear-gradient-2" x1="2798.11" y1="957.64" x2="2725.83" y2="610.31" gradientTransform="matrix(-1, 0, 0, 1, 3195.44, 0)" gradientUnits="userSpaceOnUse"><stop offset="0.51" stop-color="#df792b"/><stop offset="0.75" stop-color="#ce6b1f"/><stop offset="1" stop-color="#b8580f"/></linearGradient><linearGradient id="linear-gradient-3" x1="139.56" y1="600.74" x2="903.56" y2="600.74" xlink:href="#linear-gradient"/><linearGradient id="linear-gradient-4" x1="478" y1="788.32" x2="592.6" y2="351.08" gradientTransform="translate(-44.14)" xlink:href="#linear-gradient-2"/><linearGradient id="linear-gradient-5" x1="7.33" y1="471.14" x2="885.61" y2="471.14" xlink:href="#linear-gradient"/><linearGradient id="linear-gradient-6" x1="254.9" y1="656.78" x2="611.04" y2="228.35" gradientTransform="translate(821.16 1.06) rotate(88.64)" gradientUnits="userSpaceOnUse"><stop offset="0.55" stop-color="#df792b"/><stop offset="0.77" stop-color="#ce6b1f"/><stop offset="1" stop-color="#b8580f"/></linearGradient><linearGradient id="linear-gradient-7" x1="114.87" y1="299.61" x2="948.84" y2="299.61" xlink:href="#linear-gradient"/><linearGradient id="linear-gradient-8" x1="2388.68" y1="262.98" x2="3105.73" y2="262.98" gradientTransform="matrix(-1, 0, 0, 1, 3195.44, 0)" gradientUnits="userSpaceOnUse"><stop offset="0.55" stop-color="#df792b"/><stop offset="0.63" stop-color="#df752b"/><stop offset="1" stop-color="#df672b"/></linearGradient><linearGradient id="linear-gradient-9" x1="2719.14" y1="426.91" x2="2772.23" y2="81.81" gradientTransform="matrix(-1, 0, 0, 1, 3195.44, 0)" gradientUnits="userSpaceOnUse"><stop offset="0" stop-color="#f29932"/><stop offset="1" stop-color="#ec8f30"/></linearGradient><linearGradient id="linear-gradient-10" x1="185.98" y1="453.09" x2="428.23" y2="511.69" gradientTransform="translate(33.69 90.09) rotate(-4.18)" gradientUnits="userSpaceOnUse"><stop offset="0" stop-color="#9c522d"/><stop offset="0.47" stop-color="#8b431e"/><stop offset="1" stop-color="#732c09"/></linearGradient><linearGradient id="linear-gradient-11" x1="133.1" y1="196.58" x2="515.28" y2="298.49" gradientTransform="translate(-44.14)" xlink:href="#linear-gradient-10"/><linearGradient id="linear-gradient-12" x1="509.08" y1="37.14" x2="531.71" y2="75.04" gradientTransform="translate(148.93 -351.69) rotate(45)" gradientUnits="userSpaceOnUse"><stop offset="0.03" stop-color="#73371f"/><stop offset="0.67" stop-color="#65270e"/><stop offset="1" stop-color="#5c1d04"/></linearGradient><linearGradient id="linear-gradient-13" x1="150.76" y1="705.8" x2="213.78" y2="797.91" gradientTransform="translate(-44.14)" xlink:href="#linear-gradient-10"/><linearGradient id="linear-gradient-14" x1="83.14" y1="873.31" x2="168.36" y2="929.33" gradientTransform="translate(-44.14)" xlink:href="#linear-gradient-10"/><linearGradient id="linear-gradient-15" x1="652.65" y1="738.87" x2="909.09" y2="889.11" gradientTransform="translate(-44.14)" gradientUnits="userSpaceOnUse"><stop offset="0" stop-color="#fff5cc"/><stop offset="0.53" stop-color="#fff1bb"/><stop offset="1" stop-color="#ffeda9"/></linearGradient><linearGradient id="linear-gradient-16" x1="502.36" y1="686.09" x2="613.19" y2="712.9" gradientTransform="translate(-44.14)" xlink:href="#linear-gradient-10"/><linearGradient id="linear-gradient-17" x1="658.99" y1="325.65" x2="681.62" y2="363.56" gradientTransform="translate(-44.14)" xlink:href="#linear-gradient-12"/><linearGradient id="linear-gradient-18" x1="162.39" y1="428.2" x2="185.02" y2="466.11" gradientTransform="translate(140.68 -32.61) rotate(22.5)" xlink:href="#linear-gradient-12"/><linearGradient id="linear-gradient-19" x1="202.95" y1="451.12" x2="225.57" y2="489.03" gradientTransform="translate(-44.14)" xlink:href="#linear-gradient-12"/><linearGradient id="linear-gradient-20" x1="514.42" y1="276.29" x2="537.05" y2="314.19" gradientTransform="translate(-44.14)" xlink:href="#linear-gradient-12"/><linearGradient id="linear-gradient-21" x1="397.47" y1="815.2" x2="420.1" y2="853.11" gradientTransform="translate(-44.14)" xlink:href="#linear-gradient-12"/><linearGradient id="linear-gradient-22" x1="616.66" y1="971.52" x2="646.63" y2="996.2" gradientTransform="translate(-44.14)" xlink:href="#linear-gradient-12"/></defs><title>Asset 12</title><g class="cls-1"><g id="Layer_2" data-name="Layer 2"><g id="Layer_4" data-name="Layer 4"><ellipse class="cls-2" cx="601.71" cy="986.75" rx="27.62" ry="18.81"/><path class="cls-3" d="M50.2,786.4c6,124.16,166.2,207.87,396.45,206.52C700,991.44,825,897,829,786.4c5.42-150.07-174.34-200.29-389.4-200.29S42.31,623.85,50.2,786.4Z"/><path class="cls-4" d="M586.18,595.48c7.08,127.61,9.76,255.42,11.57,383.25C749.93,948.23,825.89,872.16,829,786.4,833.11,672.33,730.22,616,586.18,595.48Z"/><path class="cls-5" d="M75.22,734.34c0,107.15,158.58,195.26,364.37,195.26s372.64-86.87,372.64-194-166.84-194-372.64-194S75.22,627.19,75.22,734.34Z"/><path class="cls-6" d="M158.1,646.38c34.74-20.27,81.11-27.48,116.9-30.33q59.06-4.69,118.33-5.48c68.24-.89,137.1,2.21,203.3,18.8,53.21,13.35,104.87,35.78,148.27,69.7,21.85,17.08,34.43,29.83,31.91,59.11a78.49,78.49,0,0,1-32.2,56.3A71.44,71.44,0,0,1,703.25,828c-8.11,0-16.28-1.36-24.25-2.66-3.82-.63-15.26-4.39-18.94-2.7-4.45,2-6.09,13.5-7.67,18.06-5.1,14.72-11.21,29.3-22.87,40.12-27.31,25.36-63.45,18.17-95.8,9.54-15.65-4.18-25.74-3.07-40.69,3.06-18.8,7.7-35.95,14.25-56.32,16.42-29.9,3.19-73.44-2.15-102.73-11.26-21.58-6.71-42.89-17-63.31-26.33C250.88,863.14,231.73,861.14,211,855s-45-15.9-62.5-29c-45-33.68-19.8-110.47-3.05-129.42C156.8,683.76,142.88,655.26,158.1,646.38Z"/><path class="cls-7" d="M418.71,606.42c-137.84-5.52-282.08,45.5-289.06,116-6.77,68.32,96.41,134.47,247.6,154.19C556.54,900,684,822.39,687.13,750.77,690.13,682.22,580.52,612.91,418.71,606.42Z"/><path class="cls-8" d="M203.84,984.4c16.85,2.38,42,2.39,55-10.39,20.34-19.9-7-41.68-24-50.33-18.54-9.45-53.83-15.88-54-41.19-.09-14.09,13.89-18.31,26.44-18,27.84.74,74.75,14.75,95.35-10.84,6.76-8.39,8-20.55,4-30.56S294,805.36,283.89,801.67c-15.27-5.57-32.73-.72-48.42.25-15.85,1-31.41,5.29-46.16,11a243.87,243.87,0,0,0-33.95,16.39c-1.93,1.11-13.05,6-13.52,8.45l-17.63,91.68Z"/><ellipse class="cls-9" cx="459.49" cy="702.75" rx="148.57" ry="330" transform="translate(-255.29 1143.29) rotate(-88.47)"/><ellipse class="cls-9" cx="378.68" cy="850.11" rx="27.62" ry="18.81"/><path class="cls-10" d="M102.67,603.48C97,734.93,246.67,832,481.32,830.13c222.15-1.76,391.4-86.39,398.63-226.65,7.3-141.64-174-232.16-388.64-232.16S108.23,475.38,102.67,603.48Z"/><path class="cls-4" d="M665.18,393c5.89,98.62,4.42,185.22,3.23,283.71-.46,38.67,5.38,89.58,2.85,128.13C793.65,769.85,875,699.78,880,603.48,885.14,502.74,794.92,427.88,665.18,393Z"/><path class="cls-11" d="M123.21,583.7c3.83,111,171.65,195.23,374.84,188.22s360.59-96.21,361-213.61c.36-111-171.65-195.23-374.84-188.22S119.39,472.74,123.21,583.7Z"/><path class="cls-12" d="M190.35,662.26c-25.18-26-43-61-55.94-92.55-7.24-17.65-12.12-40.31,1.29-53.9,15.8-16,42.24-6.46,64.34-2.29,86.61,16.36,167.58-69.23,254.58-55.12,32.18,5.22,60.44,23.65,90.7,35.79s67.45,17.11,93.37-2.67c15.74-12,24.68-31.28,40.46-43.24,25.87-19.62,64.25-14.09,91.07,4.2C812.05,481,858,545.78,815,592.66c-11.42,12.43-26,22.28-35.24,36.79-17.78,28.1-23,64.52-58.67,76.21-36.54,12-77.71,21.43-115.66,28.14-32,5.66-64.51,8.57-96.87,4.69-13.73-1.65-29.26-7-43.17-5.86-13,1-24.48,9.88-36.81,13.67C394,757,360.25,742.58,328.49,729.83c-31.53-12.66-63.7-24.05-94.93-37.16C217.13,685.77,202.84,675.13,190.35,662.26Z"/><ellipse class="cls-9" cx="437.74" cy="557.36" rx="321.95" ry="153.54"/><ellipse class="cls-2" cx="608.66" cy="687.86" rx="63.55" ry="44.48" transform="translate(-158.24 182.4) rotate(-15.11)"/><path class="cls-13" d="M454.23,804.17c8.19,0,8.2,12.72,0,12.72S446,804.17,454.23,804.17Z"/><g class="cls-14"><path class="cls-15" d="M849.72,662.15h-.8a6.36,6.36,0,0,1,0-12.72h.8a6.36,6.36,0,0,1,0,12.72Z"/></g><path class="cls-13" d="M587.63,784.19h.73c4.55,0,8.92,4,8.71,8.71a8.87,8.87,0,0,1-8.71,8.7h-.73c-4.55,0-8.91-4-8.7-8.7A8.85,8.85,0,0,1,587.63,784.19Z"/><path class="cls-13" d="M500.58,787.82h.72c4.56,0,8.92,4,8.71,8.7a8.86,8.86,0,0,1-8.71,8.71h-.72c-4.56,0-8.92-4-8.71-8.71A8.86,8.86,0,0,1,500.58,787.82Z"/><path class="cls-15" d="M301.88,777.52h.8c5,0,9.77,4.39,9.54,9.54a9.7,9.7,0,0,1-9.54,9.54h-.8c-5,0-9.77-4.38-9.54-9.54A9.71,9.71,0,0,1,301.88,777.52Z"/><path class="cls-16" d="M812.06,679.75c9.14,0,9.15,14.2,0,14.2S802.91,679.75,812.06,679.75Z"/><ellipse class="cls-9" cx="788.6" cy="545.98" rx="27.62" ry="18.81"/><circle class="cls-17" cx="774.79" cy="538.05" r="28.93" transform="translate(-90.24 914.25) rotate(-58.28)"/><path class="cls-18" d="M0,471.14C2.64,607.37,173.67,696.43,387.88,696.43S774.3,618,775.73,471.14c1.21-124.42-173.65-225.29-387.85-225.29S-2.36,346.74,0,471.14Z"/><path class="cls-4" d="M561.06,269.46c1.36,135.19,5.37,270.42,6.47,405.61C690.8,642.58,774.74,573.5,775.73,471.14,776.59,382.83,688.72,306.39,561.06,269.46Z"/><ellipse class="cls-19" cx="387.96" cy="443.61" rx="190.95" ry="361.59" transform="translate(-64.76 820.9) rotate(-88.64)"/><path class="cls-12" d="M64.82,375c10.64-18.17,25.94-34,44.31-44.4,38-21.55,76.94-18,117.26-7.26,60.25,16.08,121.67-20,184-22.64,38.36-1.65,76,9.46,112.8,20.46l66.08,19.75c29.74,8.89,60,18.39,85.95,36.07,20.31,13.85,44,25.35,51.65,51C754,518.78,626.1,594.76,548.52,592.12c-50.54-1.73-72.28-23.8-177.72,12.25-23.71,8.11-58.62,18.62-79.85-.73-11.71-10.68-17.55-27.78-31.72-34.89-10.9-5.46-24-3.48-35.7,0S200.22,577,188,576.85c-19.59-.2-38.15-24.18-55.05-33.8C74.53,509.78,26.47,440.44,64.82,375Z"/><path class="cls-20" d="M358.43,291.22c-130,2.7-262.52,62.22-264.77,133C91.48,492.82,192.57,552.71,336,563.38,506,576,621.17,491,619.73,419.31,618.35,350.71,511,288.06,358.43,291.22Z"/><path class="cls-21" d="M84.92,492.18c-1-8-5.93-15-10.39-21.52-2.77-4-13.92-15.27-5.67-19,4.6-2.09,8.9,2.13,13.5-.77,3.42-2.15,5.45-7.83,4.5-11.67-2.67-10.79-18.51-8.08-22.14-17.22-1.53-3.83.6-8.06,2.67-11.63,4.44-7.66,19.57-26.45,8-34.51-5.88-4.12-14.44-1.12-18.8,7C46.36,402.12,41.08,425.2,44.24,447c1.92,13.2,8.54,25.29,16.82,35.56,3.69,4.58,11.73,16.27,18.37,16.09C84.05,498.55,85.36,495.87,84.92,492.18Z"/><path class="cls-21" d="M179.86,533.07c-.32-.23-.64-.45-1-.65-10.57-6.53-24.91,3.68-36.49-.8-10.27-4-13-15.88-22.77-20.46-10.59-5-17.31,3-14.35,13.24C112.94,551,134.89,563.11,164,563,185.64,562.93,191.92,541.88,179.86,533.07Z"/><path class="cls-21" d="M243.65,576c-4.66-12.26-27.06-15.76-30.28,2.1-3,16.59,22.76,24.14,29.57,9.24A14.42,14.42,0,0,0,243.65,576Z"/><ellipse class="cls-9" cx="429.67" cy="409.77" rx="129.05" ry="309.42" transform="translate(8.56 828.33) rotate(-88.47)"/><ellipse class="cls-9" cx="186.51" cy="482.51" rx="27.62" ry="18.81"/><path class="cls-2" d="M376.15,578.59c6.48,18.29,96.43,40.36,161.07,8.71,90.72-44.43,13-125.45-109.23-105.41C344.78,495.53,369.67,560.29,376.15,578.59Z"/><path class="cls-22" d="M444,668.52c9.47,0,9.49,14.72,0,14.72S434.53,668.52,444,668.52Z"/><path class="cls-22" d="M524.07,651c9.48,0,9.49,14.73,0,14.73S514.59,651,524.07,651Z"/><g class="cls-14"><path class="cls-23" d="M681.14,614.77h-.92c-3.86,0-7.54-3.39-7.37-7.36a7.49,7.49,0,0,1,7.37-7.36h.92c3.85,0,7.53,3.38,7.36,7.36a7.5,7.5,0,0,1-7.36,7.36Z"/></g><g class="cls-24"><path class="cls-23" d="M715.49,574.28h-.92c-3.85,0-7.54-3.39-7.36-7.36a7.48,7.48,0,0,1,7.36-7.36h.92c3.85,0,7.54,3.38,7.36,7.36a7.48,7.48,0,0,1-7.36,7.36Z"/></g><g class="cls-24"><path class="cls-15" d="M238,662.81l-1.82.26c-3.81.54-7.94-2.29-8.33-6.25a7.49,7.49,0,0,1,6.25-8.33l1.82-.26c3.81-.54,7.94,2.29,8.33,6.25a7.5,7.5,0,0,1-6.25,8.33Z"/></g><g class="cls-25"><path class="cls-26" d="M122.78,626c-9.47,0-9.49-14.72,0-14.72s9.49,14.72,0,14.72Z"/></g><path class="cls-15" d="M193.18,614.37c11.14-1.59,13.63,15.72,2.47,17.31S182,616,193.18,614.37Z"/><path class="cls-13" d="M383.29,649.81h.92c5.77,0,11.31,5.08,11,11s-4.85,11-11,11h-.92c-5.78,0-11.31-5.08-11-11A11.23,11.23,0,0,1,383.29,649.81Z"/><path class="cls-16" d="M644,600.05c14.21,0,14.24,22.08,0,22.08S629.79,600.05,644,600.05Z"/><path class="cls-27" d="M64.14,306.66c1.51,123.25,165.65,209.06,387.8,209.06,214.17,0,377.29-77,380.82-218.22s-166.65-214-380.82-214S62.3,156.29,64.14,306.66Z"/><path class="cls-4" d="M612.05,99.12c1.7,132.38,9.83,264.92,11.3,397.3,124.21-31,206.91-98.84,209.41-198.92C835.34,194.12,744.78,127.44,612.05,99.12Z"/><ellipse class="cls-28" cx="448.24" cy="262.98" rx="358.52" ry="189.21"/><path class="cls-29" d="M173,153.4q3.15-2.33,6.38-4.42c28-18.24,57.67-23.12,88.16-33.35,31.28-10.48,59.73-18.42,92.49-24a480.23,480.23,0,0,1,72.86-7c53.65-.88,108.57-1,160.17,16.13,30,10,60.17,14.13,89.25,28,50.55,24.17,97.29,66.63,100.18,127.41C784,288.08,764.22,315.5,737.56,330c-19.94,10.85-37.45,20.58-54.27,35.51C669,378.18,649.48,387.07,630.78,389c-28,2.87-46.93,6.89-71.58,20.67-18.32,10.24-42.55,10.94-63,9.58-28.35-1.87-53.28-2.21-81.16,1.38-50.57,6.51-93.48-13.59-141.16-26-33.55-8.73-63.92-13.77-92.38-36.76-17.18-13.88-35.38-27.39-48.3-45.79-11.77-16.77-14.11-36.35-15.16-56.62C116,215.27,141.93,176.28,173,153.4Z"/><path class="cls-2" d="M726.6,295.92c-12.35-41.43-335.87,89.92-335.87,89.92l28.21,148.1,68.76-12.35s-29.09-82.86,52-119.88c25-11.42,53.53-21.91,80.66-32.18,5.07,4,12.59,6.61,21,6.61,15.26,0,27.62-8.42,27.62-18.81a13.5,13.5,0,0,0-1.72-6.48C705.89,334.09,732.81,316.8,726.6,295.92Z"/><path class="cls-7" d="M491.36,95.59c129.78,7.66,259.95,72.2,259.49,143-.45,68.62-103.75,124.6-247.47,129.78-170.41,6.15-282.21-83.25-278-154.81C229.35,145.09,339,86.59,491.36,95.59Z"/><path class="cls-30" d="M543.37,160.19h-.75c-4.72,0-9.24,4.14-9,9a9.18,9.18,0,0,0,9,9h.75c4.72,0,9.24-4.14,9-9A9.17,9.17,0,0,0,543.37,160.19Z"/><path class="cls-30" d="M392.3,115.36h-.52a6.25,6.25,0,0,0,0,12.5h.52a6.25,6.25,0,0,0,0-12.5Z"/><path class="cls-30" d="M289.32,177h-.52a6.26,6.26,0,0,0,0,12.51h.52c3.27,0,6.41-2.88,6.26-6.25A6.37,6.37,0,0,0,289.32,177Z"/><path class="cls-30" d="M311.12,194.28h-.52a6.26,6.26,0,0,0,0,12.51h.52a6.26,6.26,0,0,0,0-12.51Z"/><path class="cls-30" d="M544.13,264.19h-.52a6.25,6.25,0,0,0,0,12.5h.52a6.25,6.25,0,0,0,0-12.5Z"/><path class="cls-30" d="M502,282.22h-.52a6.26,6.26,0,0,0,0,12.51H502a6.26,6.26,0,0,0,0-12.51Z"/><path class="cls-30" d="M578.71,320.56h-.52a6.25,6.25,0,1,0,0,12.5h.52a6.25,6.25,0,0,0,0-12.5Z"/><path class="cls-30" d="M671.85,207.69h-.4a4.81,4.81,0,0,0,0,9.62h.4a4.81,4.81,0,0,0,0-9.62Z"/><path class="cls-13" d="M557.89,478.26c9.13-.4,9.77,13.78.63,14.19S548.74,478.67,557.89,478.26Z"/><g class="cls-31"><path class="cls-23" d="M738.05,428l-.88,0c-3.72.17-7.42-2.94-7.41-6.77a7.21,7.21,0,0,1,6.77-7.41l.89,0c3.71-.17,7.41,2.94,7.41,6.77a7.21,7.21,0,0,1-6.78,7.41Z"/></g><g class="cls-24"><path class="cls-32" d="M329.76,487.48l-1.78.07c-3.71.17-7.41-2.94-7.41-6.77a7.24,7.24,0,0,1,6.78-7.42l1.78-.07c3.71-.17,7.41,2.94,7.41,6.77a7.23,7.23,0,0,1-6.78,7.42Z"/></g><g class="cls-24"><path class="cls-32" d="M289.26,458.28c-9.13.41-9.78-13.78-.63-14.19s9.77,13.78.63,14.19Z"/></g><path class="cls-13" d="M258.78,451.41c13.7-.6,14.67,20.68,1,21.29S245.07,452,258.78,451.41Z"/><path class="cls-16" d="M601,454.9l.89,0c5.56-.24,11.12,4.41,11.11,10.17a10.84,10.84,0,0,1-10.16,11.12l-.89,0c-5.57.24-11.12-4.41-11.12-10.17A10.85,10.85,0,0,1,601,454.9Z"/><path class="cls-13" d="M502.8,472.08l.89,0c5.57-.25,11.12,4.41,11.11,10.17a10.82,10.82,0,0,1-10.16,11.11l-.89,0c-5.57.25-11.12-4.41-11.12-10.16A10.85,10.85,0,0,1,502.8,472.08Z"/><path class="cls-33" d="M759.13,383.72c13.69-.61,14.66,20.67.94,21.28S745.41,384.33,759.13,383.72Z"/><g class="cls-14"><path class="cls-34" d="M160.75,416.24c-9.48,0-9.49-14.72,0-14.72s9.49,14.72,0,14.72Z"/></g><path class="cls-35" d="M309.87,462c12.75-3.33,25.48-12,39.14-9.6,21.77,3.87,36.34,24,31.38,46-5.23,23.22-45.2,3.24-69.3,3.73-19.18.38-30,17.14-10,43,47.64,61.65,170.43,51.72,225.67,21.16,21.18-11.72,34.78-36,17.63-51.72-14.1-12.93-82.7,7.5-90.5-11.75-13.53-33.36,13.75-72.1,39.86-94.63,32.52-28.07,83.79-37.17,123.59-49.81,63.4-20.12,144.8-36.69,149.2-113,3.52-61.12-66.95-102.66-116.25-125.59-49.77-23.16-104.89-34.88-159-42.19a543.55,543.55,0,0,0-83.2-5c-63,1.19-127.51,11.85-186.46,34.29C171.89,125.83,118.3,157.38,95.37,207.76c-15.66,34.43-5.34,73.65,24.09,97.68,18.22,14.87,40.67,23.4,62.69,31.68,34.66,13,67.76,7.67,79.37,50C268.35,412.09,270.31,472.27,309.87,462Z"/><path class="cls-36" d="M366.05,529.53c-33.82-4.52-45.11-9.49-47.61-5.29-4.26,7.17,19.77,36.66,51.13,51.13,67.27,31,156-12.79,154.27-27.33-.75-6.24-18.42-9.14-37.9-12.34-24.31-4-31.7-.44-67-1.76C391.77,532.92,367.64,529.74,366.05,529.53Z"/><path class="cls-37" d="M766.54,237.2c-.07-1.39-.16-2.77-.3-4.14-.08-.75-.19-1.49-.29-2.23-.17-1.27-.37-2.53-.61-3.78-.14-.74-.29-1.48-.45-2.21-.27-1.27-.59-2.53-.93-3.78-.19-.67-.36-1.34-.56-2-.43-1.42-.91-2.83-1.42-4.23-.16-.46-.31-.92-.48-1.38-.72-1.87-1.5-3.73-2.35-5.56l-.22-.45q-1.18-2.49-2.5-4.92l-.85-1.47q-1.1-1.92-2.26-3.81l-1-1.6q-1.2-1.83-2.47-3.63l-1.06-1.47q-1.43-1.93-2.93-3.82c-.29-.36-.57-.73-.87-1.09a148.11,148.11,0,0,0-13.38-14.28l-.69-.64q-2.08-1.95-4.25-3.84l-.86-.75c-1.45-1.25-2.93-2.49-4.42-3.71l-.7-.57c-1.72-1.39-3.45-2.75-5.21-4.09,22.91,32.4,34.06,60.44,26.44,88.81-11.61,43.19-65.51,66.22-104.17,83.21-40.35,17.74-83.88,27.92-122.38,49.87-18.7,10.67-36.06,24.11-48.46,41.93-14.19,20.37-22.62,41.21-49,48.5a63.69,63.69,0,0,1-46.11-5.17,37.11,37.11,0,0,1,9.4,28.32c11.51,3.22,23.26,7.55,25.55,8.34,7,2.41,16.43,4.35,22.72,8.37,9.51,6.08,17.48,15.16,28,19.63,11.51,4.89,32.37,12.38,29.2,28.26-1.9,9.5-10.73,15.24-19,18.92-21,9.35-45.74,10.7-68.38,11.59-3,.12-6.09.21-9.14.29,49.7,6.15,104.56-4.6,136.64-22.35,21.18-11.72,34.78-36,17.63-51.72-14.1-12.93-82.7,7.5-90.5-11.75-13.53-33.36,13.75-72.1,39.86-94.63,32.52-28.07,83.79-37.17,123.59-49.81,7.54-2.39,15.35-4.74,23.25-7.14,36-15.58,77.79-25.07,103.09-50.91a83.65,83.65,0,0,0,22.19-47.72c.29-2.34.53-4.72.67-7.2.12-2.1.14-4.17.09-6.22C766.63,238.5,766.57,237.86,766.54,237.2Z"/><path class="cls-38" d="M605.71,141.14c30.36,10.17,60.66,24.24,81.47,48.58,16.27,19,16.61,49.74,7.79,72.42-12.8,32.93-43.17,44.88-73,58.47-38.35,17.46-80.3,22.45-119.26,36.57-29.44,10.67-62.76,14.37-77.52,46-5.42,11.6-5.85,24.74-14.49,34.66-14.15,16.25-27.9,6-44-1-11.21-4.88-27.24-6.68-38.7-1.35-8.52,4-13.54,14.63-24.52,12.46-11.65-2.3-13.74-13.86-14.92-23.75-3.63-30.33-11.82-65-34.23-87.37-34.87-34.8-92.17-15.23-125.56-54.88-34.38-40.82-19-95,21.34-124.59,46-33.7,106.41-38.58,161.79-42.3C408.2,108.55,513.54,110.27,605.71,141.14Z"/><ellipse class="cls-39" cx="498.57" cy="310.61" rx="27.62" ry="18.81"/><circle class="cls-17" cx="174.2" cy="140.19" r="28.93" transform="translate(-48.11 164.24) rotate(-45)"/><path class="cls-40" d="M299.93,283s44.94,25.75,58.36,25.75c11.08,0,153.21-34,153.21-34l67,16.46S714.2,280.89,721.89,236c4.63-27-32.91-78.75-108.13-107S299.93,283,299.93,283Z"/><path class="cls-13" d="M417.14,942.75c13.16,0,13.18,20.46,0,20.46S404,942.75,417.14,942.75Z"/><path class="cls-15" d="M365.19,949.53c13.16,0,13.19,20.45,0,20.45S352,949.53,365.19,949.53Z"/><path class="cls-15" d="M738.67,886.16h.78c4.88,0,9.56,4.29,9.33,9.33a9.49,9.49,0,0,1-9.33,9.33h-.78c-4.88,0-9.56-4.29-9.33-9.33A9.5,9.5,0,0,1,738.67,886.16Z"/><path class="cls-15" d="M776.08,858.13h.56c3.51,0,6.88,3.09,6.71,6.72a6.83,6.83,0,0,1-6.71,6.71h-.56c-3.51,0-6.88-3.09-6.72-6.71A6.84,6.84,0,0,1,776.08,858.13Z"/><path id="_Path_" data-name="&lt;Path&gt;" class="cls-41" d="M379.18,181s-1.8,69.36.73,76.93c4.21,12.62,117.49,41.33,177.43,35.62,49.37-4.7,118.31-34.3,121.06-43.49,2.53-8.41,1.88-85.52,1.88-85.52Z"/><g class="cls-24"><path class="cls-42" d="M614.43,225.61l-7,.41,3.31,56q3.49-1.08,6.93-2.22Z"/><path class="cls-42" d="M575.33,212.84,538,216.14l5.68,78.13c2.4,0,4.76-.11,7-.23l-5.2-71.48,23.77-2.11,10.09,69.71c2.29-.47,4.59-1,6.91-1.5Z"/></g><path class="cls-43" d="M680.28,164.56l-40.52,2.21c.79,34.88,1.65,69.7,1.29,104.48,20.86-8.43,36.09-16.95,37.35-21.17C680.93,241.67,680.28,164.56,680.28,164.56Z"/><path class="cls-43" d="M485.94,169.86,379.18,181s-1.79,69.36.73,76.93c2.86,8.57,56,24.55,108.64,32.14C487,246.88,488,206,485.94,169.86Z"/><path class="cls-44" d="M438.67,174.8,379.18,181s-1.79,69.36.73,76.93c1.84,5.54,24.68,14.16,54.78,21.61C434,244.63,435.68,209.67,438.67,174.8Z"/><path id="_Path_2" data-name="&lt;Path&gt;" class="cls-45" d="M380.4,199.66C371.51,176.07,388.34,103,397,87.71,409.91,65,525.76,44.41,553.79,47.47c48,5.25,129.12,85.72,127.27,124.2-1.53,31.89-81.4,85-116.21,89.21C507.67,267.88,389.62,224.15,380.4,199.66Z"/><path id="_Path_3" data-name="&lt;Path&gt;" class="cls-45" d="M380.4,199.66C371.51,176.07,388.34,103,397,87.71,409.91,65,525.76,44.41,553.79,47.47c48,5.25,129.12,85.72,127.27,124.2-1.53,31.89-81.4,85-116.21,89.21C507.67,267.88,389.62,224.15,380.4,199.66Z"/><ellipse class="cls-46" cx="492.4" cy="69.95" rx="27.62" ry="18.81"/><circle class="cls-17" cx="480.3" cy="60.3" r="28.93" transform="translate(-3.07 34.2) rotate(-4.07)"/><circle class="cls-47" cx="476.92" cy="57.21" r="21.18" transform="translate(99.23 353.99) rotate(-45)"/><path class="cls-48" d="M473.2,45.66c2,2.05,1.49,5.92-1.24,8.65s-6.6,3.28-8.64,1.23-1.5-5.91,1.23-8.64S471.15,43.62,473.2,45.66Z"/><path class="cls-42" d="M680.55,175.29c-27.12,29.83-89.68,68.36-116.16,72.15-61.71,8.81-113.72-27.33-113.72-27.33l-20.35,12.62c41.7,17.69,99.52,32.44,134.53,28.15C598.38,256.78,673.67,207.41,680.55,175.29Z"/><path id="_Path_4" data-name="&lt;Path&gt;" class="cls-13" d="M484.3,162.89c-.5-6.43,34.29-13.23,43.64-8.85s34.93,32.64,29.25,36.78c-8,5.78-32.66-22.76-32.66-22.76S484.86,169.93,484.3,162.89Z"/><path id="_Path_5" data-name="&lt;Path&gt;" class="cls-13" d="M582.42,168.68c-5.35,4.84-28.72-27.08-30-33.09s14.69-35.6,20.06-34.52-5.66,33.19-5.66,33.19S589.93,161.88,582.42,168.68Z"/><path id="_Path_6" data-name="&lt;Path&gt;" class="cls-13" d="M539.19,90c8.27-.71-11,30.42-14.82,33.37-4.49,3.52-44.76,14-43.85,5.78s36.86-16,36.86-16S529.53,90.86,539.19,90Z"/><path id="_Path_7" data-name="&lt;Path&gt;" class="cls-49" d="M526.4,135.86a4.72,4.72,0,0,1,.35,6.52,4.61,4.61,0,0,1-6.15,1.17,4.56,4.56,0,0,1-1.06-5.9C520.94,135.15,524.34,134.2,526.4,135.86Z"/><path id="_Path_8" data-name="&lt;Path&gt;" class="cls-49" d="M541.81,122.18c2,1.6,2.27,4.94.39,7.29a4.82,4.82,0,1,1-8.05-5.29C535.71,121.38,539.51,120.33,541.81,122.18Z"/><path id="_Path_9" data-name="&lt;Path&gt;" class="cls-49" d="M545,140.09c2,1.61,2.28,4.95.4,7.3a5.15,5.15,0,0,1-6.87,1.31,5.09,5.09,0,0,1-1.19-6.6C538.93,139.3,542.73,138.25,545,140.09Z"/><path class="cls-50" d="M468.3,93.17c-17.78-6.69-45.74-8.6-72.45-3.19-8.89,19.11-24,87.09-15.45,109.68,5.92,15.72,56.71,39.37,107.45,52.43C538.53,196,557.34,126.67,468.3,93.17Z"/><path class="cls-43" d="M500.33,163.1c-4.7,25.27-35.74,76.41-93.44,64.06-34.38-7.36-48.13-46.81-40.18-92s40.72-71.56,75.44-66.06C479.88,75.05,505.9,133.18,500.33,163.1Z"/><path class="cls-51" d="M267.94,28.51c-21.12,12.1-71,86-83.23,137.52-1.8,7.57,8.73,45.24,12.88,53.16,5.66,10.78,56.56,62.19,84.31,74.16,20.68,8.92,150-38.33,163-48.18,32.64-24.72,49.42-114.36,36.6-144.92C474.94,84.59,450.87,30.69,424,21,371.1,1.83,294.78,13.15,267.94,28.51Z"/><g class="cls-24"><path class="cls-42" d="M397.19,265.59q3.38-1.23,6.62-2.45L375.75,193l-24.47,14,20.34,67.56q3.36-1.12,6.69-2.26l-18.66-62,12.56-7.18Z"/><path class="cls-42" d="M317.85,204.25,282.3,216.1l24.14,76.43c2.23-.4,4.54-.86,7-1.38l-22.28-70.56,22.63-7.54,28,70.81q3.38-1,6.79-2Z"/><path class="cls-42" d="M402.81,179.09l-6.53,2.69,29.91,72.52c2.34-1,4.48-1.92,6.47-2.8Z"/></g><path class="cls-41" d="M424,21c-25.53-9.23-56.52-11.36-84.78-9.36,21.34,45.4,42.25,91,64.32,136.06,15.29,31.24,31.38,61.95,46.23,93.24,29.43-29.41,43.95-111.62,31.78-140.64C474.94,84.59,450.87,30.69,424,21Z"/><path class="cls-42" d="M264.1,20.68c-47.16,29.71-98.47,107.68-75.35,159,11.25,24.93,55.69,66.88,80.75,78.18,16,7.2,143.5-37.45,159.52-54.1,28.39-29.51,46.81-123.9,17.25-166.14C421.47,2.15,324.37-17.27,264.1,20.68Z"/><path class="cls-35" d="M606.93,658.1c-10.45,3.14-21.15,7.85-30.17,10.2-17.79,4.65-35.85,8.51-54.21,10-13.89,1.11-34.27.75-43.26,13.58-9.47,13.53-3.76,30.45,8.19,40.64,11.68,10,29.21,12,44.06,12.5,29.89.92,63.16-3,88.47-20.2,12.78-8.71,22.55-21,27.09-35.93s-4.28-33.14-21.05-33.87C620.11,654.73,613.57,656.1,606.93,658.1Z"/><path class="cls-40" d="M626.05,655a46.62,46.62,0,0,0-11.51,1.18c35.07,28.22-3.13,74.64-62.79,88.61,24-1.26,48.55-6.57,68.26-20,12.78-8.71,22.55-21,27.09-35.93S642.82,655.72,626.05,655Z"/><path class="cls-35" d="M221,945.49c10,5.44,18.18,21.21,15.62,32.7C234.2,989,220.27,992,211,992.78c-20.93,1.79-43.45-3.91-63.16-10.58C113.38,970.56,71.15,948,50.07,917.37c-14.59-21.2-24.51-58,10.65-63.63,19.09-3,46.91,8.32,56.11-4.48,7.85-10.92,8.92-26,9.31-39.63.59-20.88-21.21-44.08-30.33-61.93-10.16-19.87,2.11-61.27,36.29-47.59,4.41,1.76,21.46,20.9,26.89,26,29.09,27.33,49.7,40.61,118.69,70.47,12.25,5.3,31.22,17.61,25.43,32.92-11.95,31.61-64.28,19.51-88.17,15.94-17.67-2.63-42.47-2.41-52.25,15.6C142.84,897.59,190.61,929,221,945.49Z"/><path class="cls-52" d="M108.64,716.41c-8.28,6.18-2.7,31.67,9.69,48.49,19.11,25.92,57.83,35.86,65.24,26.45,6.85-8.71-12.3-34.93-25.57-48.49C144.08,728.63,118.08,709.37,108.64,716.41Z"/><path class="cls-53" d="M52.22,878.62c-6.92,9.57,11.71,34.42,22,45.74,32.7,35.81,78.09,44.62,87.26,31.83,7.58-10.56-5.91-34.45-27.33-52C104.25,879.63,60.52,867.11,52.22,878.62Z"/><path class="cls-45" d="M753.35,724.24C699.29,738.34,634,827.59,641,869.21S712,996.73,742.78,1004c39.94,9.4,128.11-22.33,159.85-68.17,14.57-21-13.14-114.31-22.33-134.23C859.49,756.49,792.85,713.93,753.35,724.24Z"/><path class="cls-42" d="M698.66,968.9l54.89-35.49L732,901.1l-57.27,37c1.34,1.93,2.69,3.85,4.07,5.76L730,910.79l13.72,20.58L694,963.49C695.57,965.33,697.11,967.14,698.66,968.9Z"/><path class="cls-42" d="M662.5,919.19l64.74-45.08L706.3,846.87,645.47,885c.81,2.17,1.68,4.38,2.66,6.65l56.48-35.39,12.53,16.3-58.2,40.53Q660.67,916.13,662.5,919.19Z"/><path class="cls-51" d="M640.52,863c-.34-43.67,61.3-125.35,112.83-138.79,17.31-4.52,39.81,1.12,61.39,12.67C760.28,783.25,698.88,821.11,640.52,863Z"/><path class="cls-43" d="M744.08,990.55C768.75,974.12,791,954.2,813,934.42c19-17.06,37.86-33.86,58.43-49,9.39-6.91,18.82-13.79,28.14-20.82,6.78,29.61,10.69,60.24,3.09,71.22-31.74,45.84-119.91,77.57-159.85,68.17a39.53,39.53,0,0,1-11.46-5.23C735.6,996.07,739.87,993.35,744.08,990.55Z"/><path class="cls-54" d="M761.16,721c-36.42,8.67-95.39,90.18-88.45,131.8S738.2,975.44,769.81,977c36.42,1.73,119.37-16,136.34-44.67C921.43,906.42,921.23,805,912,785.12,891.22,740,800.86,711.5,761.16,721Z"/><path class="cls-55" d="M742.47,730.15c-29,30.93-58.65,89-54,117,6.26,37.58,60.78,116.17,89.33,117.53,17.72.85,57.09-1.08,92-7.09-32.19,13.23-76.16,20.46-100.07,19.33-31.61-1.51-90.16-82.57-97.1-124.19C666.87,817.74,707.68,754.5,742.47,730.15Z"/><path id="_Path_10" data-name="&lt;Path&gt;" class="cls-13" d="M778.42,897.13c-3.7-5,18.07-29.06,27.92-30.13s45.11,9.27,42.6,15.44c-3.51,8.63-38.2-2.35-38.2-2.35S782.47,902.58,778.42,897.13Z"/><path id="_Path_11" data-name="&lt;Path&gt;" class="cls-13" d="M858.13,852c-1.87,6.58-37.21-7.82-41.35-12.05s-6.26-36.22-1.34-38,12.38,29.79,12.38,29.79S860.76,842.72,858.13,852Z"/><path id="_Path_12" data-name="&lt;Path&gt;" class="cls-13" d="M782.74,809.39c6.36-4.66,6.58,30.19,5,34.46-1.86,5.08-24.6,34.36-28.09,27.19s17.18-32,17.18-32S775.31,814.85,782.74,809.39Z"/><path id="_Path_13" data-name="&lt;Path&gt;" class="cls-49" d="M795.78,853a4.56,4.56,0,0,1,3.62,5.13,4.32,4.32,0,0,1-4.4,4,4.44,4.44,0,0,1-3.88-4.28C791,855.1,793.27,852.65,795.78,853Z"/><path id="_Path_14" data-name="&lt;Path&gt;" class="cls-49" d="M801.32,834.24a5.11,5.11,0,0,1,4,5.73,4.82,4.82,0,0,1-4.92,4.46,5,5,0,0,1-4.34-4.78C796,836.61,798.5,833.87,801.32,834.24Z"/><path id="_Path_15" data-name="&lt;Path&gt;" class="cls-49" d="M813.1,847.22a5.11,5.11,0,0,1,4,5.73,4.82,4.82,0,0,1-4.92,4.46,5,5,0,0,1-4.34-4.78C807.73,849.58,810.28,846.85,813.1,847.22Z"/><path class="cls-50" d="M912,785.12c-12.42-26.91-49.61-47.91-86-58.47,22.61,14.82,60.29,41,69.84,56.76,12,19.86,16.27,86.13,17.74,125.07C921,868.59,919.36,801,912,785.12Z"/><path class="cls-55" d="M274.07,237.15c-38.79-5.88-82.27-68.17-89.2-103.87-3.16,16.42-2.42,32.38,3.88,46.36,11.25,24.93,55.69,66.88,80.75,78.18,11.86,5.35,85.29-17.92,128.83-37.07C362.82,231.22,308.16,242.32,274.07,237.15Z"/><path id="_Path_16" data-name="&lt;Path&gt;" class="cls-13" d="M317.13,176.11c-5.84-2.68,5.39-35.7,13.81-41.58s45.63-14,46.42-7.19c1.11,9.6-35.9,16.9-35.9,16.9S323.53,179.05,317.13,176.11Z"/><path id="_Path_17" data-name="&lt;Path&gt;" class="cls-13" d="M370.54,95.07c1.57,6.91-37.72,11.42-43.59,9.64s-23.74-29.8-20.15-33.87,26.09,20.91,26.09,20.91S368.32,85.35,370.54,95.07Z"/><path id="_Path_18" data-name="&lt;Path&gt;" class="cls-13" d="M280.8,93.92c3.45-7.41,21,24.16,21.73,28.82.84,5.55-9.85,45.07-16.59,40.28s4.26-39.24,4.26-39.24S276.75,102.58,280.8,93.92Z"/><path id="_Path_19" data-name="&lt;Path&gt;" class="cls-49" d="M314.36,127.05a4.74,4.74,0,0,1,5.85,2.85,4.48,4.48,0,0,1-2,5.82,4.6,4.6,0,0,1-5.66-1.95C311.06,131.36,311.91,128,314.36,127.05Z"/><path id="_Path_20" data-name="&lt;Path&gt;" class="cls-49" d="M310.06,107.25a5.29,5.29,0,0,1,6.54,3.2,5,5,0,0,1-2.25,6.5,5.14,5.14,0,0,1-6.33-2.18C306.36,112.08,307.32,108.32,310.06,107.25Z"/><path id="_Path_21" data-name="&lt;Path&gt;" class="cls-49" d="M327.23,113.18a5.29,5.29,0,0,1,6.54,3.2,5,5,0,0,1-2.25,6.5,5.13,5.13,0,0,1-6.32-2.18C323.53,118,324.49,114.25,327.23,113.18Z"/><path class="cls-56" d="M138.9,169c-4.11-1.85-40.08,36.64-32.91,76.4,10.75,59.55,112.28,88.52,122.24,75.22,2-2.68.27-7.06-1.17-10.57-15.71-38.16-80-25.24-99.91-58.77C108.33,219.63,143.36,171,138.9,169Z"/><path class="cls-56" d="M278.77,375.26c-5.14,1.77,1.19,30.91,4.71,44.08,3.39,12.71,7.16,26.84,12.92,27,4.65.15,9.47-8.78,10.58-16.46.72-5,.13-11-8.81-27.32C290.12,387.88,282.51,374,278.77,375.26Z"/><path class="cls-56" d="M49,881.66c-4.55,10.2,16.62,34.74,25.24,42.7C85.75,935,115.48,956.07,131.93,953c17.18-3.17-.42-12.45-7.53-15.88-14.51-7-32.36-15.89-40-30.93-6.77-13.33.88-24.16-7.51-30.26C68.78,870.07,52.59,873.67,49,881.66Z"/><path class="cls-56" d="M106.71,721.08c-3,.78-4,14.51.87,26.57,3.5,8.63,13.78,32.72,27.94,24.7,14-7.92-8.38-23-13.32-28.43C110.8,731.46,109.47,720.37,106.71,721.08Z"/><path class="cls-57" d="M580.63,681.31c-7.33-6.68-22.54-2.28-30.23.31-12.59,4.25-27.82,5.08-41,5.93a44.88,44.88,0,0,0-12.8,2.21c-6.14,2.27-11.63,7.56-12.13,14.09-.73,9.68,8.28,19.35,15.18,25,19.13,15.53,54,5.27,69.76-10.53,6.68-6.72,18.3-22.44,14.16-32.72A11.51,11.51,0,0,0,580.63,681.31Z"/><path class="cls-56" d="M316.39,516.89c-4,1.77-5.15,9.09-4.71,14.11,2.47,27.69,58.14,47.19,62.3,41.14,1.42-2.07-8.46-12.35-28.21-32.91S320.17,515.23,316.39,516.89Z"/><path class="cls-56" d="M486.82,697.9c-2.86,1.08-3.17,14.41,3.52,23.8,11.05,15.49,37,14.44,37.91,11.46.63-2.06-11.14-4-24.68-16.75C492.49,706,489.34,697,486.82,697.9Z"/><path class="cls-40" d="M236.61,978.19c2.56-11.49-5.6-27.26-15.62-32.7-30.38-16.5-78.15-47.9-58.3-84.45,9.78-18,34.58-18.23,52.25-15.6,23.89,3.57,76.22,15.67,88.17-15.94,5.79-15.31-13.18-27.62-25.43-32.92l-1.83-.79c.45,1.12.87,2.25,1.22,3.42,2.55,8.49,1.86,18.33-3.5,25.39-17.63,23.23-109.06,11.5-149.25-27a37.54,37.54,0,0,1,1.82,12c-.39,13.64-1.46,28.71-9.31,39.63a12,12,0,0,1-.9,1c6.26,6.76,11.28,15.09,15.26,23.39,8,16.63,13.94,34.89,26.92,48,5.77,5.82,12.71,10.37,18.61,16.05,7.57,7.3,12.91,15.38,11.16,21.22-4,13.29-48.3,17-84.53,3.45l-.49-.19a268.16,268.16,0,0,0,45,20c19.71,6.67,42.23,12.37,63.17,10.58C220.27,992,234.2,989,236.61,978.19Z"/><path class="cls-58" d="M235.33,323.36c11.88-18.69-23.5-29.26-38.89-25.61-11.63,2.77-13.9,13.33-6.23,20.78C198,326.13,230,331.77,235.33,323.36Z"/><path class="cls-58" d="M266.87,325.27c-4.66-3.74-11.12-5-15.84.16-8.15,9,3,22.35,13.42,19.47C276.65,341.54,273.71,330.76,266.87,325.27Z"/><path class="cls-58" d="M126.62,729.28a13.22,13.22,0,0,0-3.9-10.49c-9.56-9.07-21.41-2.07-21.47,9.76,0,8.61,6,17.67,15.54,14.57C122.61,741.24,126.3,735.26,126.62,729.28Z"/><path class="cls-58" d="M496.66,693.23c-6.61.29-12.19,5.35-12.19,12.19v2c0,6.38,5.61,12.49,12.19,12.2s12.2-5.36,12.2-12.2v-2C508.86,699,503.25,692.93,496.66,693.23Z"/><path class="cls-58" d="M173.28,298.43c-2.2,5.06-8.39,7.25-13.83,4.89s-8.07-8.37-5.88-13.44S162,282.63,167.4,285,175.47,293.37,173.28,298.43Z"/><circle class="cls-17" cx="630.21" cy="348.81" r="28.93"/><circle class="cls-59" cx="626.83" cy="345.73" r="21.18"/><circle class="cls-17" cx="133.03" cy="452.25" r="28.93" transform="translate(-100.35 42.66) rotate(-13.28)"/><circle class="cls-60" cx="130.23" cy="448.28" r="21.18" transform="translate(-161.64 83.96) rotate(-22.5)"/><path class="cls-48" d="M126.83,434.64c2,2.05,1.49,5.92-1.24,8.65s-6.59,3.28-8.64,1.23-1.49-5.91,1.23-8.64S124.78,432.6,126.83,434.64Z"/><circle class="cls-17" cx="174.16" cy="474.58" r="28.93" transform="matrix(0.92, -0.38, 0.38, 0.92, -168.36, 102.78)"/><circle class="cls-61" cx="170.79" cy="471.2" r="21.18"/><path class="cls-48" d="M168.7,458c2.05,2.05,1.49,5.92-1.23,8.65s-6.6,3.28-8.65,1.23-1.49-5.91,1.24-8.64S166.65,456,168.7,458Z"/><circle class="cls-62" cx="485.64" cy="299.45" r="28.93" transform="translate(-77.63 208.64) rotate(-22.5)"/><circle class="cls-63" cx="482.26" cy="296.36" r="21.18"/><path class="cls-48" d="M478.53,281.28c2.05,2.05,1.5,5.92-1.23,8.65s-6.6,3.28-8.65,1.23-1.49-5.91,1.24-8.64S476.49,279.24,478.53,281.28Z"/><path class="cls-48" d="M167.35,123.49c2.05,2,1.49,5.91-1.23,8.64s-6.6,3.28-8.65,1.24-1.49-5.92,1.24-8.65S165.3,121.44,167.35,123.49Z"/><circle class="cls-17" cx="366.93" cy="838.95" r="28.93" transform="translate(-533.88 1003.31) rotate(-76.72)"/><circle class="cls-64" cx="365.31" cy="835.27" r="21.18"/><path class="cls-48" d="M360.41,820.79c2,2,1.49,5.91-1.24,8.64s-6.6,3.28-8.64,1.23-1.49-5.91,1.23-8.64S358.36,818.74,360.41,820.79Z"/><circle class="cls-17" cx="585.55" cy="983.52" r="28.93" transform="translate(-175.43 128.48) rotate(-10.9)"/><circle class="cls-65" cx="583.35" cy="980.44" r="21.18"/><path class="cls-48" d="M577.85,967.12c2,2,1.5,5.92-1.23,8.64S570,979.05,568,977s-1.49-5.92,1.24-8.64S575.81,965.08,577.85,967.12Z"/><path class="cls-48" d="M623.11,334.18c2,2,1.49,5.91-1.24,8.64s-6.6,3.28-8.64,1.24-1.5-5.92,1.23-8.65S621.06,332.13,623.11,334.18Z"/></g></g></g></svg>