<svg xmlns="http://www.w3.org/2000/svg" xmlns:xlink="http://www.w3.org/1999/xlink" viewBox="0 0 969.68 816.19"><defs><style>.cls-1{fill:none;}.cls-2{isolation:isolate;}.cls-3{fill:url(#linear-gradient);}.cls-4{fill:#c2550d;}.cls-5{fill:url(#linear-gradient-2);}.cls-6{fill:url(#linear-gradient-3);}.cls-7{fill:url(#linear-gradient-4);}.cls-8{fill:url(#linear-gradient-5);}.cls-9{fill:url(#linear-gradient-6);}.cls-10{fill:url(#linear-gradient-7);}.cls-11{fill:url(#linear-gradient-8);}.cls-12{fill:#d9a3c1;}.cls-12,.cls-23,.cls-28{opacity:0.5;}.cls-13{fill:url(#linear-gradient-9);}.cls-14{fill:#de7d7d;}.cls-14,.cls-18{opacity:0.3;}.cls-15{fill:#cf8282;opacity:0.8;}.cls-16{fill:#e67c7c;}.cls-16,.cls-26{opacity:0.7;}.cls-17{fill:#fffefc;}.cls-18{fill:#ab131d;mix-blend-mode:multiply;}.cls-19{clip-path:url(#clip-path);}.cls-20{fill:url(#linear-gradient-10);}.cls-21{fill:url(#radial-gradient);}.cls-22{fill:#ab1118;}.cls-23{fill:#f74346;}.cls-24{fill:#f79421;}.cls-25{fill:#eb6000;}.cls-26{fill:#fff;}.cls-27{fill:url(#linear-gradient-11);}.cls-28{fill:#80b541;}.cls-29{fill:url(#linear-gradient-12);}.cls-30{fill:#ff554d;}.cls-31{fill:#ff8c78;}.cls-32{fill:#ffc2a8;}.cls-33{fill:#f85344;}</style><linearGradient id="linear-gradient" x1="152.79" y1="411.41" x2="1084.4" y2="411.41" gradientTransform="translate(-115.69)" gradientUnits="userSpaceOnUse"><stop offset="0" stop-color="#ffca69"/><stop offset="0.59" stop-color="#ee933f"/><stop offset="1" stop-color="#e37126"/></linearGradient><linearGradient id="linear-gradient-2" x1="775.72" y1="284.33" x2="1085.76" y2="284.33" gradientTransform="translate(-117.87 2.32) rotate(-0.21)" gradientUnits="userSpaceOnUse"><stop offset="0.01" stop-color="#f9c668"/><stop offset="1" stop-color="#eb9227"/></linearGradient><linearGradient id="linear-gradient-3" x1="793.85" y1="-49.3" x2="1070.91" y2="570.23" gradientTransform="translate(-115.69)" gradientUnits="userSpaceOnUse"><stop offset="0.01" stop-color="#ffce73"/><stop offset="0.3" stop-color="#f9c567"/><stop offset="1" stop-color="#eb9227"/></linearGradient><linearGradient id="linear-gradient-4" x1="405.75" y1="651.97" x2="1066.49" y2="651.97" gradientTransform="translate(-115.69)" gradientUnits="userSpaceOnUse"><stop offset="0" stop-color="#ffe5ba"/><stop offset="1" stop-color="#fadba8"/></linearGradient><linearGradient id="linear-gradient-5" x1="560.09" y1="652.47" x2="-143.19" y2="617.1" gradientTransform="translate(-44.14)" gradientUnits="userSpaceOnUse"><stop offset="0" stop-color="#f2dcc8"/><stop offset="0.58" stop-color="#fbecde"/><stop offset="1" stop-color="#fff3e8"/></linearGradient><linearGradient id="linear-gradient-6" x1="564.01" y1="649.49" x2="1089.47" y2="404.07" gradientTransform="translate(-44.14)" gradientUnits="userSpaceOnUse"><stop offset="0" stop-color="#910c00"/><stop offset="1" stop-color="#700a00"/></linearGradient><linearGradient id="linear-gradient-7" x1="962.5" y1="544.63" x2="174.14" y2="822.41" gradientTransform="translate(-44.14)" gradientUnits="userSpaceOnUse"><stop offset="0" stop-color="#b72618"/><stop offset="0.58" stop-color="#ff5846"/><stop offset="1" stop-color="#ff5846"/></linearGradient><linearGradient id="linear-gradient-8" x1="545.43" y1="43.82" x2="554.1" y2="586.92" gradientTransform="translate(-115.69)" xlink:href="#linear-gradient-5"/><linearGradient id="linear-gradient-9" x1="355.84" y1="211.14" x2="828.93" y2="211.14" gradientTransform="translate(-115.69)" gradientUnits="userSpaceOnUse"><stop offset="0" stop-color="#f2dcc8"/><stop offset="1" stop-color="#f2dcc8"/></linearGradient><clipPath id="clip-path"><path class="cls-1" d="M552.59,78.77c-185-87.48-297.51,165.57-293.74,258.11,0,0,5.09,10.7,16.7,25.28-.42-1.24-.86-2.47-1.26-3.72,31.81,26.95,81.91,45.07,159.44,46.39s143.67-20,177.4-40.6c16.11-18.74,24.06-33.45,24.06-33.45S737.59,166.26,552.59,78.77Z"/></clipPath><linearGradient id="linear-gradient-10" x1="1000.65" y1="176.13" x2="884.76" y2="283.11" gradientTransform="translate(-383.54 -3.26) rotate(-1.79)" gradientUnits="userSpaceOnUse"><stop offset="0" stop-color="#68b728"/><stop offset="0.28" stop-color="#63aa23"/><stop offset="0.8" stop-color="#578917"/><stop offset="1" stop-color="#527a11"/></linearGradient><radialGradient id="radial-gradient" cx="432.51" cy="267.65" r="210.93" gradientTransform="translate(233.19 -227.48) rotate(34.68)" gradientUnits="userSpaceOnUse"><stop offset="0.54" stop-color="#e1171b"/><stop offset="0.79" stop-color="#bf1b23"/><stop offset="1" stop-color="#ab131d"/></radialGradient><linearGradient id="linear-gradient-11" x1="286.97" y1="-778.97" x2="503.55" y2="-953.63" gradientTransform="matrix(0.58, -0.76, -0.78, -0.61, -505.91, 225.51)" gradientUnits="userSpaceOnUse"><stop offset="0" stop-color="#6fb41d"/><stop offset="0.19" stop-color="#6bae1e"/><stop offset="0.46" stop-color="#619c21"/><stop offset="0.78" stop-color="#507e27"/><stop offset="1" stop-color="#42652b"/></linearGradient><linearGradient id="linear-gradient-12" x1="675.74" y1="81.37" x2="791.72" y2="530.16" gradientTransform="translate(-144.29 458.13) rotate(-25.15)" gradientUnits="userSpaceOnUse"><stop offset="0" stop-color="#ff383c"/><stop offset="0.68" stop-color="#e2181c"/><stop offset="1" stop-color="#cc1519"/></linearGradient></defs><title>Asset 5</title><g class="cls-2"><g id="Layer_2" data-name="Layer 2"><g id="Layer_4" data-name="Layer 4"><path class="cls-3" d="M37.1,736.58s12.44,61.15,17.19,63.93c9.55,5.6,778.78,21.38,794.34,13.53s117.71-270.5,120.09-331.56l-37.67-1.16s50.41-66.42,32-115.71L935.87,378.7s25.75-61.14-1.66-97.4l-28.53,13.09s23.1-76.72-14.73-122l-32.44,7.92s4.87-88.34-34.17-107.68l-31.11,17s-9.33-64.91-43.16-83Z"/><path class="cls-4" d="M467.26,333.8a587.26,587.26,0,0,0,84.51,84.1c45.82,33.49,95.69,60.72,147.61,83.56,26.85,10.85,54.18,20.5,82.56,26.1a232.13,232.13,0,0,0,28.53.13,269.9,269.9,0,0,0,40.06-12c27.34-12.18,54.3-25.08,82-36.46,8.17-11.45,47-69.44,30.55-113.66L935.87,378.7s25.75-61.14-1.66-97.41l-28.53,13.1s23.1-76.72-14.73-122l-32.44,7.92s4.87-88.34-34.17-107.68l-31.11,17s-9.33-64.91-43.16-83L452,311.76C457,319.2,462,326.57,467.26,333.8Z"/><path class="cls-5" d="M658.14,75.72S683.28,7,729.85.36,762.5,80.48,762.5,80.48s51.67-26.07,66-6.71S843,152.66,814.66,186.42c0,0,53.42-41.85,71.06-21.84,27.39,31.07-6.06,115.62-6.06,115.62s45-21.89,54.55,1.1c9.17,22-11.54,65.2-30.86,92.45,0,0,55.78-27.61,59.74-8.14,5.28,25.87-24.56,71.43-55.51,101.31,0,0,52.82-19.44,61.1,6.47,7.89,24.65-31.18,77.44-116.78,93.17Z"/><path class="cls-6" d="M857.29,488.87c46.38-28,90.82-99.52,82.13-112.08-6.65-9.59-60.87,12.56-60.87,12.56,9.66-12.56,46.37-77.29,35.75-98.55-8.12-16.23-58.94,5.8-58.94,5.8,26.09-41.54,28.35-103.83,12.56-115-16.43-11.6-65.7,21.25-65.7,21.25S830.24,105.3,809,85c-15.84-15.12-66.66,26.09-66.66,26.09s12.56-89.86-11.6-93.72C701.09,12.64,665,90.81,665,90.81s5.61,15.55,15,40.4L720.5,233.69C767.56,347.91,828.05,506.54,857.29,488.87Z"/><path class="cls-7" d="M0,562.29s34.23,164.2,39.19,185.88c50,11.59,197.49,13.68,360.36,14.8,174.9,1.2,341.68,19.08,381.86-1.85S848,630.24,862.25,566.56C865.81,520.23,188.53,524.08,0,562.29Z"/><path class="cls-8" d="M0,562.29s34.23,164.2,39.19,185.88c50,11.59,197.49,13.68,360.36,14.8,174.9,1.2,341.68,19.08,381.86-1.85S848,630.24,862.25,566.56C865.81,520.23,188.53,524.08,0,562.29Z"/><path class="cls-9" d="M842.22,653.72c-356.4,19.55-712.06,2.87-823.89-3.8,9,42.92,18.43,87.64,20.86,98.25,15.61,3.62,40.75,6.32,72.91,8.34q9.65.62,20.12,1.14,10.25.52,21.22,1l.9,0q11,.45,22.69.84c8,.27,16.3.51,24.76.74,20.8.56,42.84,1,65.81,1.37,41.55.65,86.14,1,132,1.36,174.9,1.2,341.68,19.08,381.86-1.85C807.22,747.68,827.35,701.74,842.22,653.72Z"/><path class="cls-10" d="M828.12,693.79c-278,12-666.5,1-802-6.65,6.1,28.94,13.33,62.63,15.05,70.14C139.31,767,236,766.83,398.8,769.5c146.15,2.4,351,13.18,383.85-5.62C800.66,753.57,815.33,725.4,828.12,693.79Z"/><path class="cls-11" d="M658.14,75.72c33.49,21,124,84.08,173.66,206,59.61,146.19,43.38,220.56,30.45,284.89C544.87,577.56,275.15,579,0,562.29,84.36,477,184.19,385.88,310.88,292.57A2674.85,2674.85,0,0,1,658.14,75.72Z"/><ellipse class="cls-12" cx="579.97" cy="289.35" rx="136.36" ry="105.26"/><ellipse class="cls-12" cx="670.32" cy="435.81" rx="133.51" ry="82.29"/><path class="cls-13" d="M713.24,116.74a442.2,442.2,0,0,0-55.1-41A2674.85,2674.85,0,0,0,310.88,292.57q-36.84,27.14-70.73,54C418.4,230.41,561.43,162.09,713.24,116.74Z"/><path class="cls-14" d="M800,501.14c-15,1.2-25.09,11.19-24.7,20,.47,10.84,16.79,18.48,29.72,16.72,9.47-1.29,21.13-8.16,21.19-17.7C826.25,510.85,815.26,500.93,800,501.14Z"/><path class="cls-15" d="M642.62,108.06c-6.35,0-13.52,4.74-13.31,10.08s7.47,9.18,13.48,9.09c5.8-.08,12.84-4,13-9.14C656,112.75,648.89,108.07,642.62,108.06Z"/><path class="cls-16" d="M813.5,316.61c0,7.67-7.78,13.92-17.44,13.95s-17.51-6.15-17.53-13.82,7.77-13.92,17.43-13.95S813.47,308.94,813.5,316.61Z"/><path class="cls-14" d="M448.23,256.49c0,6.66-6.75,12.08-15.14,12.11s-15.2-5.34-15.23-12,6.76-12.08,15.14-12.11S448.21,249.83,448.23,256.49Z"/><path class="cls-14" d="M260.88,525.16c.14,4.27-5.17,7.91-11.87,8.13s-12.24-3.06-12.38-7.34,5.18-7.91,11.88-8.13S260.74,520.89,260.88,525.16Z"/><path class="cls-16" d="M277.72,395.52c0,4.69-5.31,8.51-11.9,8.53s-11.94-3.76-12-8.44,5.31-8.51,11.9-8.54S277.7,390.83,277.72,395.52Z"/><path class="cls-14" d="M472.24,538.27c0,4.69-5.31,8.51-11.9,8.53s-11.94-3.76-12-8.44,5.31-8.51,11.9-8.54S472.22,533.58,472.24,538.27Z"/><path class="cls-14" d="M845.53,468.35c0,5.75-6.5,10.43-14.58,10.46s-14.63-4.6-14.65-10.35S822.8,458,830.88,458,845.51,462.61,845.53,468.35Z"/><path class="cls-14" d="M768,287.83c0,5.51-5.88,10-13.18,10s-13.24-4.42-13.26-9.93,5.88-10,13.18-10S768,282.32,768,287.83Z"/><path class="cls-16" d="M418.39,286.78c0,4.68-5.31,8.51-11.9,8.53s-11.94-3.76-12-8.45,5.31-8.51,11.9-8.53S418.37,282.09,418.39,286.78Z"/><path class="cls-14" d="M115.24,526.27c0,5-5.31,9-11.9,9s-11.94-4-12-8.91,5.31-9,11.9-9S115.22,521.32,115.24,526.27Z"/><path class="cls-16" d="M221.63,427.65c0,6.66-6.76,12.08-15.14,12.11s-15.21-5.34-15.23-12,6.75-12.08,15.14-12.11S221.6,421,221.63,427.65Z"/><path class="cls-16" d="M777.87,234.74c0,6.66-6.75,12.08-15.14,12.11s-15.2-5.34-15.22-12,6.75-12.09,15.14-12.12S777.85,228.08,777.87,234.74Z"/><path class="cls-16" d="M526.69,514.14c0,6.66-6.76,12.08-15.14,12.11s-15.21-5.34-15.23-12,6.75-12.08,15.14-12.11S526.66,507.48,526.69,514.14Z"/><path class="cls-17" d="M53.12,565.4s437.14,3.46,594.4,6.23C647.52,571.63,343.39,592.41,53.12,565.4Z"/><path class="cls-18" d="M746.44,728.93c0,5.11-5.24,9.24-11.71,9.24S723,734,723,728.93s5.24-9.23,11.71-9.23S746.44,723.83,746.44,728.93Z"/><path class="cls-18" d="M709.25,750.8c0,5.1-5.24,9.24-11.71,9.24s-11.71-4.14-11.71-9.24,5.25-9.24,11.71-9.24S709.25,745.7,709.25,750.8Z"/><ellipse class="cls-18" cx="82.68" cy="718.52" rx="10.08" ry="7.95"/><path class="cls-18" d="M129.22,740.19c0,3.46-3.56,6.27-8,6.27s-8-2.81-8-6.27,3.56-6.27,8-6.27S129.22,736.73,129.22,740.19Z"/><g class="cls-19"><path id="_Path_" data-name="&lt;Path&gt;" class="cls-20" d="M517.82,213.13S514.5,165.55,521,147s27.45-48.06,32.85-47.49,2,76.92,2,76.92,45.15-33.54,56-28.42-34.66,57.56-34.66,57.56S647,210,655.72,218.44c2.36,2.28-27.46,21.23-55.69,24.69-20.32,2.5-66.36-8.38-66.36-8.38Z"/><g id="_Group_" data-name="&lt;Group&gt;"><g id="_Group_2" data-name="&lt;Group&gt;"><path id="_Path_2" data-name="&lt;Path&gt;" class="cls-21" d="M551.75,193.1c-54.89-57.85-119.37-79.85-179.28-44-55.89,33.42-133.39,172.4-53.92,263.71,74.53,85.62,219.7,35.93,270.11-31.14C624.4,334.1,600.63,244.62,551.75,193.1Z"/><path class="cls-22" d="M285.3,334.24a45.59,45.59,0,0,0,1.41,5.6A14.5,14.5,0,0,0,285.3,334.24Z"/><path class="cls-23" d="M480.44,160.6c-34.81-32.2-103.77-15.85-133.81,27.1-24.59,35.15-24.91,90.72,4.47,115.7,37.57,31.94,115,6.49,140.34-44.84C505.92,229.16,506.51,184.72,480.44,160.6Z"/><path id="_Path_3" data-name="&lt;Path&gt;" class="cls-24" d="M418.89,275.86c7.78,7.68,23.08-15.53,18.81-18.81C432.84,253.33,408.07,265.19,418.89,275.86Z"/><path id="_Path_4" data-name="&lt;Path&gt;" class="cls-24" d="M457.29,211.72c6.13,9.15,25.52-10.54,22-14.64C475.24,192.42,448.78,199,457.29,211.72Z"/><path id="_Path_5" data-name="&lt;Path&gt;" class="cls-24" d="M359,224.11c9,5.88,20.47-18.45,15.73-22C370.7,199.11,347.05,216.29,359,224.11Z"/><g id="_Group_3" data-name="&lt;Group&gt;"><path id="_Path_6" data-name="&lt;Path&gt;" class="cls-25" d="M560.17,344.31c9.29,6.49,20.92-21.39,15.78-24.92C571.61,316.4,549.59,336.92,560.17,344.31Z"/></g><g id="_Group_4" data-name="&lt;Group&gt;"><path id="_Path_7" data-name="&lt;Path&gt;" class="cls-24" d="M500.19,281.37c8.38,10.88,26-12,21.78-16.65S491.89,270.58,500.19,281.37Z"/></g><g id="_Group_5" data-name="&lt;Group&gt;"><path id="_Path_8" data-name="&lt;Path&gt;" class="cls-25" d="M467,349.17c6.91,8,23-8.56,19.83-13.73C484.15,331.08,457.47,338.17,467,349.17Z"/></g><g id="_Group_6" data-name="&lt;Group&gt;"><path id="_Path_9" data-name="&lt;Path&gt;" class="cls-25" d="M310.78,304.37C319,311.63,328.25,293.3,324,289,320.35,285.42,299.88,294.73,310.78,304.37Z"/></g><g id="_Group_7" data-name="&lt;Group&gt;"><path id="_Path_10" data-name="&lt;Path&gt;" class="cls-24" d="M393.52,350.66c8.54,8.2,21.67-14.07,17.81-17.61C406.77,328.87,384,341.56,393.52,350.66Z"/></g><g id="_Group_8" data-name="&lt;Group&gt;"><path id="_Path_11" data-name="&lt;Path&gt;" class="cls-25" d="M334.42,365.47c8.2,8.55,19.07-10.71,15.35-14.41C345.38,346.7,325.3,356,334.42,365.47Z"/></g><g id="_Group_9" data-name="&lt;Group&gt;"><path id="_Path_12" data-name="&lt;Path&gt;" class="cls-24" d="M360.9,275.88c9.52,8.28,19.41-12.55,15.67-15.63C373.4,257.64,351,267.25,360.9,275.88Z"/></g></g><path id="_Path_13" data-name="&lt;Path&gt;" class="cls-26" d="M450.44,162.73c1.27-6.68-7-12.93-19.11-12.92-11.35,0-21.38,5.52-23.76,11.37-3,7.27,6.06,14.81,19.22,14.61C438.41,175.61,449.17,169.45,450.44,162.73Z"/></g><path class="cls-26" d="M388.08,166.25c3.74,2.9,4.24,8.7,1.12,12.95s-8.69,5.35-12.42,2.45-4.24-8.71-1.12-13S384.35,163.34,388.08,166.25Z"/></g><path class="cls-27" d="M512.8,460.37a70.37,70.37,0,0,1-12.61,15.32c-12.86,11.64-28.37,32.25-47.95,30.75-3.84-2.51,1.9-9.38,3.59-14.08-7,7.27-51.42,29.37-65.91,24.83-3-1,3.93-8.68,7.44-12.21-13.61,6.25-32,10.26-47.38,10.64-3.25.08-12.48,1.16-14-2.42-1.41-3.34,6.38-9.23,8.73-11.11-8.42,2.67-16.66,4.43-25.79,4-5.08-.25-28.05-1.95-29.75-8.18-1-3.65,5.62-7.14,7.95-9.41-8.42.83-39.6,2.08-35.9-12.72,1.38-5.51,6.47-9.17,11.35-12.07a155.05,155.05,0,0,1,39.29-16.55c-5.14-1.33-14.67,1.24-14.67-2.62,0-5.75,34.94-22,57.94-21.24-3.87-2.58-13.24-2.84-10.3-7.08,5.79-8.37,39.75-16,52.78-17.38-3.22-2.58-8.37-2.58-7.72-7.73.6-4.79,21.59-6.35,24.85-6.76,14-1.72,26.73.9,40.62.62a14.21,14.21,0,0,1-11-11.35c-.77-4.69,33,.77,35.93,2,11.85,4.92,23.72,14.16,32,23.81C522.71,411.45,527,420.51,523,436A89,89,0,0,1,512.8,460.37Z"/><path class="cls-28" d="M523.22,386.06l-67.36,25.38c-15.37-16.63-40.38-13.68-40.38-13.68l32.2,16.77-43.93,16.55c-15.49-12.2-39.42-10.79-39.42-10.79,14.08,5.63,23,10.32,30,13.61L285.72,473.26c29.07-7.05,56.23-14.53,81.13-22-2.43,6.54-11.3,26.14-35.42,44.53,0,0,39.31-14.52,42.44-46.65,18.69-5.68,34.77-13.16,50.54-18.55-2,8-9.72,39.6-38.27,63.76,0,0,42.79-24.38,45.38-66.2,56-19.41,92.1-33.2,96.51-34.92Z"/><path id="_Path_14" data-name="&lt;Path&gt;" class="cls-29" d="M680.45,263.49c-32.18-13.94-65-4.81-93.88,10.12-54.75,28.34-118,110-91.81,169,31.31,70.52,184.86,109.91,240,52.71,29.44-30.54,27.06-82.16,17.9-122.66S721.28,281.17,680.45,263.49Z"/><path id="_Path_15" data-name="&lt;Path&gt;" class="cls-30" d="M650.94,276.49C568.17,271,492.15,361.78,510.81,429.85,532.34,508.42,681.09,522.33,716.2,489,771.27,436.8,721.68,281.2,650.94,276.49Z"/><path class="cls-31" d="M710.85,386.23c-.39-14.56-54.38-23.33-54.38-23.33s42.54-8.13,42.8-19.35c.27-11.73-70-13.36-70-13.36s41.35-13,42.17-23.64-78.29-2.21-78.29-2.21S634.83,287.94,629,280c-3.29-4.53-15.3-1.47-19.48-.61-12.94,2.64-25.31,8.35-36.62,15.09-21.29,12.68-44.53,40.43-56.1,66.35-2.8,6.26-14.74,30.57-5.07,36,7.57,4.21,20.69-11.31,28.12-21.35-2.79,23.16-5.47,57.18,2.54,59.4,12.23,3.39,27.3-42.94,27.3-42.94S574,464.69,583.86,465c12.9.41,18-39.63,18-39.63s23.36,65.29,36.38,61.75c8.66-2.36,6.59-23.81,4.23-36,21.86,20.63,56.33,24.17,63,15,8.64-11.92-.8-34.67-18.06-63.38C696.92,402.61,711.05,393.87,710.85,386.23Z"/><path id="_Path_16" data-name="&lt;Path&gt;" class="cls-32" d="M574.15,335.87c36.2-30.81,113.93,94.89,108,101.46C675.13,445.22,538.34,366.34,574.15,335.87Z"/><path id="_Path_17" data-name="&lt;Path&gt;" class="cls-33" d="M610.21,348.68s26.74,26.2,14.73,37.66-41-18-36.84-20.47c1.78-1.05,22.44,18.21,28.93,11.47C621.59,372.6,605,350.59,610.21,348.68Z"/></g></g></g></svg>